<?xml version="1.0" encoding="UTF-8" standalone="no"?>
<svg
   width="32"
   version="1.1"
   height="32"
   viewBox="0 0 32 32"
   id="svg60"
   sodipodi:docname="applications-graphics.svg"
   inkscape:version="1.1-alpha (3331a31d88, 2021-03-04, custom)"
   xmlns:inkscape="http://www.inkscape.org/namespaces/inkscape"
   xmlns:sodipodi="http://sodipodi.sourceforge.net/DTD/sodipodi-0.dtd"
   xmlns:xlink="http://www.w3.org/1999/xlink"
   xmlns="http://www.w3.org/2000/svg"
   xmlns:svg="http://www.w3.org/2000/svg">
  <sodipodi:namedview
     id="namedview62"
     pagecolor="#ffffff"
     bordercolor="#999999"
     borderopacity="1"
     objecttolerance="10.0"
     gridtolerance="10.0"
     guidetolerance="10.0"
     inkscape:pageshadow="0"
     inkscape:pageopacity="0"
     inkscape:pagecheckerboard="0"
     showgrid="false"
     inkscape:zoom="11.313709"
     inkscape:cx="18.959301"
     inkscape:cy="7.4688154"
     inkscape:window-width="1920"
     inkscape:window-height="1080"
     inkscape:window-x="0"
     inkscape:window-y="0"
     inkscape:window-maximized="1"
     inkscape:current-layer="layer1" />
  <defs
     id="defs5455">
    <linearGradient
       inkscape:collect="always"
       id="linearGradient1932">
      <stop
         style="stop-color:#40ac0a;stop-opacity:1"
         id="stop1926" />
      <stop
         offset="0.5"
         style="stop-color:#64f51c;stop-opacity:1"
         id="stop1928" />
      <stop
         offset="1"
         style="stop-color:#bbfd9a;stop-opacity:1"
         id="stop1930" />
    </linearGradient>
    <linearGradient
       inkscape:collect="always"
       id="linearGradient4508">
      <stop
         style="stop-color:#ffffff"
         id="stop4510" />
      <stop
         offset="1"
         style="stop-color:#ffffff;stop-opacity:0"
         id="stop4512" />
    </linearGradient>
    <linearGradient
       inkscape:collect="always"
       id="linearGradient4496">
      <stop
         style="stop-color:#b83564"
         id="stop4498" />
      <stop
         offset="0.5"
         style="stop-color:#ff6a5a"
         id="stop4504" />
      <stop
         offset="1"
         style="stop-color:#ffb350"
         id="stop4500" />
    </linearGradient>
    <linearGradient
       inkscape:collect="always"
       xlink:href="#linearGradient4303"
       id="linearGradient4378"
       y1="31"
       y2="2"
       x2="0"
       gradientUnits="userSpaceOnUse" />
    <linearGradient
       inkscape:collect="always"
       id="linearGradient4303">
      <stop
         style="stop-color:#c6cdd1"
         id="stop4305" />
      <stop
         offset="1"
         style="stop-color:#e0e5e7"
         id="stop4307" />
    </linearGradient>
    <linearGradient
       inkscape:collect="always"
       xlink:href="#linearGradient1932"
       id="linearGradient4481"
       y1="517.79797"
       y2="521.79797"
       x2="0"
       gradientUnits="userSpaceOnUse" />
    <linearGradient
       inkscape:collect="always"
       xlink:href="#linearGradient4508"
       id="linearGradient4514"
       y1="529.79797"
       y2="535.79797"
       x2="0"
       gradientUnits="userSpaceOnUse"
       gradientTransform="matrix(0 -1 1 0 -134.2265 930.36946)" />
    <linearGradient
       inkscape:collect="always"
       xlink:href="#linearGradient4508"
       id="linearGradient4518"
       y1="529.79797"
       y2="535.79797"
       gradientUnits="userSpaceOnUse"
       x2="0"
       gradientTransform="matrix(0 -1 1 0 -138.2265 930.36946)" />
    <linearGradient
       inkscape:collect="always"
       xlink:href="#linearGradient4508"
       id="linearGradient4524"
       y1="529.79797"
       y2="535.79797"
       gradientUnits="userSpaceOnUse"
       x2="0"
       gradientTransform="matrix(0 1 1 0 -126.2265 129.22656)" />
    <linearGradient
       inkscape:collect="always"
       xlink:href="#linearGradient4508"
       id="linearGradient4526"
       y1="529.79797"
       y2="535.79797"
       gradientUnits="userSpaceOnUse"
       x2="0"
       gradientTransform="matrix(0 -1 1 0 -130.2265 930.36946)" />
    <linearGradient
       inkscape:collect="always"
       xlink:href="#linearGradient4508"
       id="linearGradient4620"
       y1="529.79797"
       y2="535.79797"
       gradientUnits="userSpaceOnUse"
       x2="0"
       gradientTransform="matrix(0 1 1 0 -122.2265 129.22656)" />
    <linearGradient
       inkscape:collect="always"
       xlink:href="#linearGradient4508"
       id="linearGradient4644"
       y1="529.79797"
       y2="535.79797"
       gradientUnits="userSpaceOnUse"
       x2="0"
       gradientTransform="matrix(0 -1 1 0 -142.2265 930.36946)" />
    <linearGradient
       inkscape:collect="always"
       xlink:href="#linearGradient4508"
       id="linearGradient4674"
       y1="529.79797"
       y2="535.79797"
       gradientUnits="userSpaceOnUse"
       x2="0"
       gradientTransform="matrix(1 0 0 1 1.99998 -2.99993)" />
    <linearGradient
       inkscape:collect="always"
       xlink:href="#linearGradient4508"
       id="linearGradient4676"
       y1="529.79797"
       y2="535.79797"
       gradientUnits="userSpaceOnUse"
       x2="0"
       gradientTransform="matrix(1 0 0 1 1.99998 -6.99993)" />
    <linearGradient
       inkscape:collect="always"
       xlink:href="#linearGradient4508"
       id="linearGradient4678"
       y1="529.79797"
       y2="535.79797"
       gradientUnits="userSpaceOnUse"
       x2="0"
       gradientTransform="matrix(-1 0 0 1 803.14287 5.00007)" />
    <linearGradient
       inkscape:collect="always"
       xlink:href="#linearGradient4508"
       id="linearGradient4680"
       y1="529.79797"
       y2="535.79797"
       gradientUnits="userSpaceOnUse"
       x2="0"
       gradientTransform="matrix(1 0 0 1 1.99998 1.00007)" />
    <linearGradient
       inkscape:collect="always"
       xlink:href="#linearGradient4508"
       id="linearGradient4682"
       y1="529.79797"
       y2="535.79797"
       gradientUnits="userSpaceOnUse"
       x2="0"
       gradientTransform="matrix(-1 0 0 1 803.14287 9.00007)" />
    <linearGradient
       inkscape:collect="always"
       xlink:href="#linearGradient4508"
       id="linearGradient4684"
       y1="529.79797"
       y2="535.79797"
       gradientUnits="userSpaceOnUse"
       x2="0"
       gradientTransform="matrix(1 0 0 1 1.99998 -10.99993)" />
    <linearGradient
       inkscape:collect="always"
       xlink:href="#linearGradient4496"
       id="linearGradient4749"
       y1="544.79797"
       x1="413.57144"
       y2="518.79797"
       gradientUnits="userSpaceOnUse"
       x2="387.57144"
       gradientTransform="matrix(1 0 0 1 -0.000013 0)" />
    <linearGradient
       inkscape:collect="always"
       xlink:href="#linearGradient4410"
       id="linearGradient4839"
       y1="7"
       x1="7"
       y2="26"
       x2="26"
       gradientUnits="userSpaceOnUse" />
    <linearGradient
       inkscape:collect="always"
       id="linearGradient4410">
      <stop
         style="stop-color:#383e51"
         id="stop4412" />
      <stop
         offset="1"
         style="stop-color:#655c6f;stop-opacity:0"
         id="stop4414" />
    </linearGradient>
    <linearGradient
       inkscape:collect="always"
       xlink:href="#linearGradient1932"
       id="linearGradient4268"
       y1="544.79797"
       x1="413.57144"
       y2="518.79797"
       gradientUnits="userSpaceOnUse"
       x2="387.57144"
       gradientTransform="matrix(0.92307692,0,0,0.92307692,30.813177,40.907536)" />
  </defs>
  <metadata
     id="metadata5458" />
  <g
     inkscape:label="Capa 1"
     inkscape:groupmode="layer"
     id="layer1"
     transform="translate(-384.57143,-515.798)"
     style="display:inline">
    <circle
       cx="400.57144"
       cy="531.79797"
       style="display:inline;fill:url(#linearGradient4749);stroke-width:0.096362;stroke-linecap:square"
       r="13"
       id="circle4747" />
    <circle
       cx="388.57144"
       cy="519.79797"
       style="display:inline;fill:url(#linearGradient4481);stroke-width:0.2;stroke-linecap:square;fill-opacity:1.0"
       id="path4479"
       r="2" />
    <path
       style="display:inline;fill:url(#linearGradient4378);fill-rule:evenodd"
       id="path4203"
       d="M 2,2 V 16 A 14.000013,14.000013 0 0 0 16,30 14.000013,14.000013 0 0 0 30,16 14.000013,14.000013 0 0 0 16,2 Z M 4,3 A 1,1 0 0 1 5,4 1,1 0 0 1 4,5 1,1 0 0 1 3,4 1,1 0 0 1 4,3 Z M 16,4 A 12.000013,12.000013 0 0 1 28,16 12.000013,12.000013 0 0 1 16,28 12.000013,12.000013 0 0 1 4,16 12.000013,12.000013 0 0 1 16,4 Z"
       transform="translate(384.57143,515.798)" />
    <circle
       cx="400.57144"
       cy="531.79797"
       style="display:inline;fill:#99a1a7;stroke-width:0.1;stroke-linecap:square"
       id="path4745"
       r="13" />
    <circle
       cx="400.57144"
       cy="531.79797"
       style="display:inline;fill:url(#linearGradient4268);fill-opacity:1;stroke-width:0.08895;stroke-linecap:square"
       id="path4483"
       r="12" />
    <g
       id="g4253"
       style="display:inline">
      <path
         inkscape:connector-curvature="0"
         style="opacity:0.1;fill:url(#linearGradient4514);stroke-width:0.1;stroke-linecap:square"
         id="rect4506"
         d="m 400.57143,519.798 a 12,11.999999 0 0 0 -4,0.70117 v 3.29883 4 4 4 4 3.29883 a 12,11.999999 0 0 0 4,0.70117 v -4 -4 -4 -4 -4 z" />
      <path
         inkscape:connector-curvature="0"
         style="opacity:0.1;fill:url(#linearGradient4518);stroke-width:0.1;stroke-linecap:square"
         id="rect4516"
         d="m 396.57143,520.49917 a 12,11.999999 0 0 0 -4,2.37305 v 0.92578 4 4 4 4 0.92773 a 12,11.999999 0 0 0 4,2.3711 v -3.29883 -4 -4 -4 -4 z" />
      <path
         inkscape:connector-curvature="0"
         style="opacity:0.1;fill:url(#linearGradient4524);stroke-width:0.1;stroke-linecap:square"
         id="rect4520"
         d="m 404.57143,520.49917 v 3.29883 4 4 4 4 3.29883 a 12,11.999999 0 0 0 4,-2.37305 v -0.92578 -4 -4 -4 -4 -0.92773 a 12,11.999999 0 0 0 -4,-2.3711 z" />
      <path
         inkscape:connector-curvature="0"
         style="opacity:0.1;fill:url(#linearGradient4526);stroke-width:0.1;stroke-linecap:square"
         id="rect4522"
         d="m 400.57143,519.798 v 4 4 4 4 4 4 a 12,11.999999 0 0 0 4,-0.70117 v -3.29883 -4 -4 -4 -4 -3.29883 a 12,11.999999 0 0 0 -4,-0.70117 z" />
      <path
         inkscape:connector-curvature="0"
         style="opacity:0.1;fill:url(#linearGradient4620);stroke-width:0.1;stroke-linecap:square"
         id="rect4608"
         d="m 408.57143,522.87027 v 0.92773 4 4 4 4 0.92578 a 12,11.999999 0 0 0 4,-8.92578 12,11.999999 0 0 0 -4,-8.92773 z" />
      <path
         inkscape:connector-curvature="0"
         style="opacity:0.1;fill:url(#linearGradient4644);stroke-width:0.1;stroke-linecap:square"
         id="rect4632"
         d="m 392.57143,522.87222 a 12,11.999999 0 0 0 -4,8.92578 12,11.999999 0 0 0 4,8.92773 v -0.92773 -4 -4 -4 -4 z" />
      <g
         id="g4245">
        <path
           inkscape:connector-curvature="0"
           style="opacity:0.1;fill:url(#linearGradient4674);stroke-width:0.1;stroke-linecap:square"
           id="path4662"
           d="m 389.2726,527.798 a 12,11.999999 0 0 0 -0.70117,4 h 4 4 4 4 4 4 a 12,11.999999 0 0 0 -0.70117,-4 h -3.29883 -4 -4 -4 -4 z" />
        <path
           inkscape:connector-curvature="0"
           style="opacity:0.1;fill:url(#linearGradient4676);stroke-width:0.1;stroke-linecap:square"
           id="path4664"
           d="m 391.6437,523.798 a 12,11.999999 0 0 0 -2.3711,4 h 3.29883 4 4 4 4 3.29883 a 12,11.999999 0 0 0 -2.37305,-4 h -0.92578 -4 -4 -4 -4 z" />
        <path
           inkscape:connector-curvature="0"
           style="opacity:0.1;fill:url(#linearGradient4678);stroke-width:0.1;stroke-linecap:square"
           id="path4666"
           d="m 389.2726,535.798 a 12,11.999999 0 0 0 2.37305,4 h 0.92578 4 4 4 4 0.92773 a 12,11.999999 0 0 0 2.3711,-4 h -3.29883 -4 -4 -4 -4 z" />
        <path
           inkscape:connector-curvature="0"
           style="opacity:0.1;fill:url(#linearGradient4680);stroke-width:0.1;stroke-linecap:square"
           id="path4668"
           d="m 388.57143,531.798 a 12,11.999999 0 0 0 0.70117,4 h 3.29883 4 4 4 4 3.29883 a 12,11.999999 0 0 0 0.70117,-4 h -4 -4 -4 -4 -4 z" />
        <path
           inkscape:connector-curvature="0"
           style="opacity:0.1;fill:url(#linearGradient4682);stroke-width:0.1;stroke-linecap:square"
           id="path4670"
           d="m 391.64565,539.798 a 12,11.999999 0 0 0 8.92578,4 12,11.999999 0 0 0 8.92773,-4 h -0.92773 -4 -4 -4 -4 z" />
        <path
           inkscape:connector-curvature="0"
           style="opacity:0.1;fill:url(#linearGradient4684);stroke-width:0.1;stroke-linecap:square"
           id="path4672"
           d="m 400.57143,519.798 a 12,11.999999 0 0 0 -8.92773,4 h 0.92773 4 4 4 4 0.92578 a 12,11.999999 0 0 0 -8.92578,-4 z" />
      </g>
    </g>
    <path
       style="display:inline;fill:url(#linearGradient4378);fill-rule:evenodd"
       id="path4821"
       d="M 2,2 V 16 A 14.000013,14.000013 0 0 0 16,30 14.000013,14.000013 0 0 0 30,16 14.000013,14.000013 0 0 0 16,2 Z M 4,3 A 1,1 0 0 1 5,4 1,1 0 0 1 4,5 1,1 0 0 1 3,4 1,1 0 0 1 4,3 Z M 16,4 A 12.000013,12.000013 0 0 1 28,16 12.000013,12.000013 0 0 1 16,28 12.000013,12.000013 0 0 1 4,16 12.000013,12.000013 0 0 1 16,4 Z"
       transform="translate(384.57143,515.798)" />
    <path
       style="display:inline;opacity:0.2;fill:url(#linearGradient4839);stroke-width:0.1;stroke-linecap:square"
       id="rect4819"
       d="m 24.484375,7.515625 -0.0039,0.00391 a 12.000013,12.000013 0 0 1 0.126953,0.1191407 z m 0.123047,0.1230469 A 12.000013,12.000013 0 0 1 28,16 12.000013,12.000013 0 0 1 16,28 12.000013,12.000013 0 0 1 7.5195312,24.480469 l -0.00391,0.0039 5.0800778,5.082031 A 14.000013,14.000013 0 0 0 16,30 14.000013,14.000013 0 0 0 30,16 14.000013,14.000013 0 0 0 29.560547,12.589844 Z"
       transform="translate(384.57143,515.798)" />
  </g>
</svg>
