<?xml version="1.0" encoding="UTF-8" standalone="no"?>
<svg
   width="211.185mm"
   height="211.185mm"
   viewBox="0 0 211.18499 211.18499"
   version="1.1"
   id="svg6"
   inkscape:version="1.1-dev (2afca83fab, 2021-01-02, custom)"
   sodipodi:docname="Artykuly.svg"
   xmlns:inkscape="http://www.inkscape.org/namespaces/inkscape"
   xmlns:sodipodi="http://sodipodi.sourceforge.net/DTD/sodipodi-0.dtd"
   xmlns="http://www.w3.org/2000/svg"
   xmlns:svg="http://www.w3.org/2000/svg">
  <defs
     id="defs2" />
  <sodipodi:namedview
     id="base"
     pagecolor="#ffffff"
     bordercolor="#666666"
     borderopacity="1.0"
     inkscape:pageopacity="0.0"
     inkscape:pageshadow="2"
     inkscape:zoom="0.49497475"
     inkscape:cx="188.89853"
     inkscape:cy="468.71078"
     inkscape:document-units="mm"
     inkscape:current-layer="layer2"
     showgrid="false"
     inkscape:window-width="1920"
     inkscape:window-height="1044"
     inkscape:window-x="0"
     inkscape:window-y="36"
     inkscape:window-maximized="1"
     objecttolerance="10.0"
     gridtolerance="10.0"
     guidetolerance="10.0"
     inkscape:pagecheckerboard="false"
     fit-margin-top="0"
     fit-margin-left="0"
     fit-margin-right="0"
     fit-margin-bottom="0" />
  <g
     inkscape:label="Warstwa 1"
     inkscape:groupmode="layer"
     id="layer1"
     transform="translate(0.086881,-0.21003932)" />
  <g
     inkscape:groupmode="layer"
     id="layer2"
     inkscape:label="Warstwa 2"
     transform="translate(0.086881,-0.21003932)">
    <rect
       style="fill:none;fill-rule:evenodd;stroke-width:1;stroke-linecap:round;stroke-linejoin:round;stroke:#000000;stroke-opacity:1;stroke-miterlimit:4;stroke-dasharray:none"
       id="rect1049"
       width="112.17632"
       height="147.62222"
       x="50.434628"
       y="31.206461" />
    <rect
       style="fill:#000000;fill-rule:evenodd;stroke-width:0;stroke-linecap:round;stroke-linejoin:round"
       id="rect1175"
       width="85.41581"
       height="12.579127"
       x="62.061413"
       y="42.488235" />
    <path
       style="font-variation-settings:normal;opacity:1;vector-effect:none;fill:none;fill-opacity:1;stroke:#000000;stroke-width:1.865;stroke-linecap:butt;stroke-linejoin:miter;stroke-miterlimit:4;stroke-dasharray:none;stroke-dashoffset:0;stroke-opacity:1;stop-color:#000000;stop-opacity:1"
       d="M 63.037385,61.646984 H 146.97968"
       id="path1210" />
    <path
       style="fill:none;stroke:#000000;stroke-width:0.264583px;stroke-linecap:butt;stroke-linejoin:miter;stroke-opacity:1"
       d="m 67.010745,73.671499 c 0.34789,-0.679887 3.36233,-2.20965 4.12455,-1.584074 1.07716,0.88405 0.34886,1.79565 2.93907,1.79565 3.99689,0 2.26758,-2.621444 6.40856,-0.156765 7.66669,4.563149 -1.39828,-0.775986 3.54367,3.134608 0.38678,0.306065 0.94637,0.302041 1.37581,0.544637 0.31113,0.17576 0.84714,0.864751 1.33635,0.801809 2.99243,-0.385003 5.83748,-1.528212 8.75391,-2.301089 20.393125,-5.404334 -6.21459,1.702049 12.437625,-3.490081 2.40018,-0.668126 3.02843,0.241474 4.79562,2.00067 0.20188,0.200975 0.98101,1.208183 1.46982,0.806688 1.76784,-1.452075 2.35987,-2.623719 4.89404,-2.402165 1.87283,0.163735 4.81192,0.944377 6.29728,1.458955 2.13979,0.741294 7.48525,3.508867 9.98773,2.659483 0.4136,-0.140383 1.04342,-2.892957 1.33635,-3.484258 0.67397,-1.360469 5.24554,-0.800325 6.71772,-0.800325"
       id="path1351" />
    <path
       style="fill:none;stroke:#000000;stroke-width:0.264583px;stroke-linecap:butt;stroke-linejoin:miter;stroke-opacity:1"
       d="m 66.128125,86.976299 c 0.58576,-0.09888 1.16592,-0.240197 1.75728,-0.296635 0.35963,-0.03432 2.26743,0.144555 2.42004,0 0.99703,-0.944356 2.63885,-3.367942 4.37548,-2.687328 1.72816,0.677294 3.36933,2.294189 4.56746,3.671107 0.53619,0.284877 0.48226,0.951127 0.82176,1.356299 0.0776,0.09258 -0.18866,-0.2002 0.27218,-0.72871 0.36008,-0.412954 0.72642,-0.834588 1.17449,-1.149892 1.66654,-1.172716 6.48828,-2.593639 8.40033,-1.8819 1.57379,0.585825 3.94413,3.594394 5.8512,4.355854 0.80988,0.323371 1.00852,-0.439991 1.58871,-0.782166 0.66003,-0.389263 1.37887,-0.676622 2.10105,-0.932786 3.166115,-1.123045 3.724825,-1.222243 6.920545,-1.515838 2.19602,-0.20175 7.35918,4.551601 8.37811,3.878067 0.65511,-0.433046 1.02715,-1.214215 1.67794,-1.653746 1.34981,-0.911644 3.15083,-1.29739 4.74021,-1.530454 0.62352,-0.09143 1.26791,0.09714 1.89056,0 1.43831,-0.224393 2.76936,-0.623477 4.25244,-0.623477 1.60262,0 2.90154,1.88917 3.46047,1.632704 0.44814,-0.205634 0.81939,-0.772335 1.25384,-0.993534 0.78643,-0.400418 4.6963,0.235005 5.87992,0 0.58746,-0.116636 1.59476,-0.08287 2.14795,-0.267269 0.30473,-0.101579 0.49018,-0.456631 0.80181,-0.53454 1.09909,-0.274773 2.32655,-0.267269 3.4745,-0.267269"
       id="path1353" />
    <path
       style="fill:none;stroke:#000000;stroke-width:0.264583px;stroke-linecap:butt;stroke-linejoin:miter;stroke-opacity:1"
       d="m 64.446695,98.204586 c 1.90126,-0.03274 3.61681,-0.560713 5.46976,-0.861074 1.05607,-0.171188 2.14387,-0.101803 3.19584,-0.296648 1.07105,-0.198376 2.44334,-1.030084 3.64905,-0.62403 0.84341,0.284035 1.92032,1.227955 2.44775,1.88555 0.0528,0.06582 0.47445,1.042713 0.54424,1.112928 0.6572,0.661228 0.38737,-0.08712 0.80181,0.53454 0.1105,0.165758 0.0891,0.445448 0.26727,0.534538 0.65009,0.32504 4.78587,0.4057 5.56111,0.29667 1.63579,-0.23007 7.44454,-2.643469 8.5633,-1.976108 3.5746,2.132318 5.184195,4.046828 9.576725,4.504018 3.02307,0.31466 9.73341,-2.37914 12.82848,-2.89554 3.06244,-0.510959 12.61749,-2.192876 16.16655,-0.765528 0.0551,0.02214 0.48658,0.517508 0.53943,0.544338 0.50033,0.25404 -0.15885,-1.504879 1.60518,-1.152073 1.43497,0.286991 2.73177,1.077443 4.2063,1.077443"
       id="path1357" />
    <path
       style="fill:none;stroke:#000000;stroke-width:0.264583px;stroke-linecap:butt;stroke-linejoin:miter;stroke-opacity:1"
       d="m 65.441565,110.97649 c 0.48603,-0.16643 0.95409,-0.39971 1.45809,-0.49928 0.6118,-0.12088 1.2923,-0.2327 1.87088,0 0.26214,0.10542 0.96654,1.6302 1.32425,1.34122 0.85579,-0.69135 4.46575,-3.05847 5.83406,-2.21355 0.40124,0.24776 1.983,2.36249 2.14357,2.41581 0.17684,0.0587 -0.3081,-1.11745 0.26727,-1.17893 0.21447,-0.0229 0.28262,0.33138 0.45756,0.45756 1.10649,0.79818 0.64614,0.34831 1.95506,1.08916 0.35315,0.19989 1.81822,1.53115 2.27848,1.34624 0.74494,-0.29928 4.80881,-2.7754 5.62398,-1.96028 0.19432,0.19431 0.11451,0.55145 0.26727,0.7799 0.83606,1.25029 -0.1688,-0.29541 0.50917,0.27223 0.79099,0.66226 -2.592,0.22448 0.16696,1.14413 0.44781,0.14927 1.16775,-0.20935 1.58651,0 0.0265,0.0132 0.65769,0.55039 0.79463,0.26722 1.01881,-2.10681 -1.21875,1.15995 0.26727,-1.06908 0.13977,-0.20966 0.42184,-0.30916 0.53454,-0.53454 0.0797,-0.15937 -0.126,-0.40855 0,-0.53454 0.35918,-0.35918 3.3431,0 3.71624,0 1.73733,0 3.1871,0.14722 4.861185,0.56384 0.79383,0.19756 0.52564,-1.04962 0.72667,-0.92898 1.23873,0.74333 2.17083,1.6363 3.71858,1.32621 2.14026,-0.4288 4.17983,-1.28163 6.31721,-1.72461 2.83197,-0.58693 5.69621,-1.00919 8.55582,-1.44182 1.16055,-0.17559 0.85624,-0.14334 1.08102,0.51225 0.29868,0.87115 0.15833,-0.0867 0.51222,0.26727 0.12916,0.12918 -0.27381,1.07547 0.2274,0.77284 0.34867,-0.21053 0.42893,-0.73052 0.77577,-0.94404 1.55614,-0.95799 3.35913,-0.98797 5.06658,-1.22266 0.24421,-0.0336 0.49411,-0.38494 0.79286,-0.26727 1.51632,0.5972 3.15998,1.09526 4.64388,1.76261 0.82811,0.37243 0.67493,0.59385 1.40463,0.83604 0.35781,0.11876 2.23833,-0.40061 2.94431,0 0.89821,0.50969 1.46182,0.58013 2.32069,1.00957"
       id="path1359" />
    <path
       style="fill:none;stroke:#000000;stroke-width:0.264583px;stroke-linecap:butt;stroke-linejoin:miter;stroke-opacity:1"
       d="m 66.531345,122.36075 c -0.5917,-3.11107 -0.0716,-0.0852 0,0 0.44756,0.5327 1.0772,0.9616 1.75053,1.13686 0.24725,0.0643 0.33947,-0.38698 0.54442,-0.53953 0.39474,-0.29384 1.21212,-0.46848 1.60853,-0.53454 1.43734,-0.23956 3.5541,0.2299 4.82563,0.53941 0.21581,0.0525 0.53614,1.22655 0.53614,1.60522 0,0.12557 0.073,-0.43195 0.1598,-0.34115 0.7885,0.82528 2.09534,0.0865 2.28531,0.22133 0.31449,0.22319 1.14705,0.5208 1.56626,0.94259 0.43088,0.43353 0.70143,1.26485 1.60362,0.81166 2.32143,-1.16611 2.53262,-4.89556 5.10458,-5.74921 1.03663,-0.34407 1.58193,3.50457 3.91622,3.17648 3.90585,-0.54898 7.13717,-2.81091 11.036055,-3.29717 1.66934,-0.20819 0.99124,0.77757 2.30028,1.5517 1.07733,0.63709 2.53054,0.90636 3.65222,1.43022 0.52697,0.24612 0.96367,0.6637 1.49599,0.89801 1.05054,0.46241 0.27463,-0.68455 0.54419,-0.98495 0.28527,-0.3179 0.85425,0 1.28138,0 1.64362,0 3.15479,-0.0475 4.78096,0.34896 1.10992,0.27059 2.51582,0.88814 3.76034,0.5932 0.58023,-0.13751 1.10963,-0.44996 1.6902,-0.58597 0.61608,-0.14433 3.16333,-0.28043 3.75832,-0.86473 0.0636,-0.0624 -0.0793,-0.22669 0,-0.26727 0.80784,-0.4133 2.69897,0.66438 3.53819,0.83222 0.77562,0.15512 2.71969,0.27431 3.32991,0 0.4019,-0.18067 -0.66198,-0.62874 1.47745,-1.10926 0.62124,-0.13953 1.26648,-0.14644 1.89066,-0.27216 1.6772,-0.33782 1.57345,1.04966 2.08905,1.04966"
       id="path1361" />
    <path
       style="fill:none;stroke:#000000;stroke-width:0.264583px;stroke-linecap:butt;stroke-linejoin:miter;stroke-opacity:1"
       d="m 65.603075,134.64547 c 2.48933,-0.24421 3.01373,0.37592 4.32798,2.58225 0.20188,0.33891 0.32755,1.44931 0.47563,1.08367 0.0644,-0.15895 -0.10102,-0.3759 0,-0.51449 0.40121,-0.5504 0.9935,-0.93598 1.43523,-1.45444 1.52488,-1.78968 2.74639,-3.52191 4.13735,-5.3845 0.35912,-0.48089 0.52998,-1.37439 1.12952,-1.40221 0.27655,-0.0128 0.11462,0.55543 0.26727,0.7864 0.25381,0.38405 0.52015,0.76158 0.81684,1.11356 0.99797,1.18395 2.54854,2.04984 3.92624,2.50908 1.91267,0.63755 3.47548,-1.8174 5.18533,-2.19206 0.44623,-0.0978 0.91363,0 1.37044,0 5.06082,0 4.49781,0.97012 7.64813,4.14012 0.37981,0.38218 1.82189,-1.57351 2.31804,-1.85124 0.94948,-0.5315 4.808225,2.67725 6.401455,1.88064 0.47839,-0.2392 0.78086,-0.9994 1.08425,-1.35134 1.17499,-1.36305 1.48204,-1.71158 2.98796,-2.4751 0.10016,-0.0508 0.96265,-0.0127 0.99299,0 1.94959,0.81366 3.47394,1.87208 5.70555,2.14794 0.79883,0.0988 1.61592,0.0988 2.41475,0 0.86853,-0.10743 4.02368,-2.36806 4.75598,-2.15812 1.79293,0.51401 2.80363,3.36738 5.09818,2.44451 1.47992,-0.59522 1.4971,-3.05044 3.26587,-3.52828 0.36039,-0.0974 0.47749,0.59207 0.79433,0.78947 0.50971,0.31756 1.04319,0.61328 1.61338,0.80181 0.42603,0.14087 0.92047,-0.1419 1.34616,0 1.59432,0.53144 2.41456,-0.3666 3.88758,-1.08678 0.70588,-0.34511 -0.17053,0.69259 0.26727,0"
       id="path1363" />
    <path
       style="fill:none;stroke:#000000;stroke-width:0.264583px;stroke-linecap:butt;stroke-linejoin:miter;stroke-opacity:1"
       d="m 65.444075,147.01897 c 0.48463,-0.49529 5.30391,-5.03473 5.60589,-4.96719 0.0534,0.0119 0.8242,2.84917 1.0589,2.91253 0.96921,0.26163 5.17005,-2.16938 6.41267,-2.66461 0.25202,-0.10043 7.06182,-0.0624 7.1546,0 0.55123,0.37089 1.02308,1.04645 1.62331,1.35116 0.18587,0.0944 1.0307,0 1.18374,0 1.02819,0 2.20097,0.11221 3.21699,0 1.60358,-0.1771 3.10313,-1.1215 4.60232,-1.61373 1.954,-0.64156 5.101645,1.47311 6.338365,2.71431 0.34697,0.34823 0.11609,0.5965 0.54435,0.81165 0.52759,0.26503 2.59005,0.11833 3.18173,0 0.64153,-0.12831 0.54623,-0.45038 1.07906,-0.80181 1.63523,-1.07855 0.49,-0.0994 2.15779,-0.80672 0.53087,-0.22513 0.8206,-0.86018 1.35612,-1.07399 0.80527,-0.32151 6.37318,0.27233 7.76576,0.27233 0.58839,0 1.52954,0.12738 2.04136,0 0.39719,-0.0989 0.71967,-0.39618 1.1031,-0.53939 1.05872,-0.39542 2.1192,-0.27766 3.22261,-0.27766 1.12836,0 1.46646,-0.1059 2.68251,0.81163 0.0982,0.0741 0.57019,1.50532 1.08878,1.36085 0.59105,-0.16466 0.82133,-0.9169 1.2894,-1.31359 1.33456,-1.13102 3.00496,-1.66139 4.58789,-2.18261 0.60929,-0.20062 2.17763,-0.39205 2.80238,-0.26727 0.36331,0.0726 0.74687,0.10279 1.07884,0.26727 0.20892,0.10351 0.0758,0.92851 0.0758,0.69535 0,-0.083 0.0855,-0.14229 0.12825,-0.21344"
       id="path1365" />
    <path
       style="fill:none;stroke:#000000;stroke-width:0.264583px;stroke-linecap:butt;stroke-linejoin:miter;stroke-opacity:1"
       d="m 65.929935,153.91477 c 1.20445,-2.08222 2.50157,-2.17706 4.56339,-2.17706 0.10401,0 0.64258,-0.0706 0.71987,0 0.16128,0.14737 0.19119,0.99151 0.25092,1.1707 0.33353,1.00058 0.0482,-0.81867 0.44248,-0.2056 0.34065,0.52963 0.95864,1.13937 1.61839,1.32933 0.14165,0.0408 4.52454,0.16067 4.74871,0 0.11153,-0.0799 -0.0999,-0.58151 0,-0.6814 0.50772,-0.50772 1.95324,0.64735 2.35236,0.8165 0.87306,0.37002 1.40946,0.52858 1.88071,1.04358 0.53378,0.58334 2.42853,-0.8372 2.64237,-1.0351 0.16569,-0.15334 0.14039,-0.46536 0.32626,-0.59351 0.11053,-0.0762 1.44564,-0.0339 1.58172,0 0.99918,0.24864 1.28267,0.62812 2.10563,1.04837 0.81337,0.41534 3.58495,-0.21153 4.02699,-0.27737 0.46186,-0.0688 0.91422,-0.19249 1.37515,-0.26727 0.16566,-0.0269 0.50346,0.16782 0.50346,0 0,-0.0771 -0.29762,-0.0393 -0.2313,0 0.52534,0.31131 1.20577,0.52533 1.76129,0.80181 1.26425,0.62921 1.91786,0.67496 3.508645,0.53454 0.25168,-0.0222 3.32224,-0.78489 3.32224,-1.11318 0,-0.0701 -0.27251,-0.0327 -0.21043,0 0.2904,0.15283 3.10302,1.16559 3.36478,1.16559 1.73735,0 2.71975,-1.68791 4.13945,-2.50818 1.85524,-1.07192 2.95319,-0.62504 4.84289,0.005 0.23984,0.16903 0.54825,-0.0845 0.80181,0 2.87098,0.95699 6.30387,-0.10673 9.08765,-0.95124 0.40665,-0.12336 0.99744,-0.61718 1.24548,-0.27213 0.20068,0.27916 0.53942,1.06197 0.79927,1.28823 0.97817,0.85171 6.18317,0.80839 7.47924,0.80839 0.85674,0 3.29971,0.37184 4.07537,-0.27209 0.0532,-0.0442 -0.62403,0.30098 -0.62403,0.74755"
       id="path1369" />
    <path
       style="fill:none;stroke:#000000;stroke-width:0.264583px;stroke-linecap:butt;stroke-linejoin:miter;stroke-opacity:1"
       d="m 65.548575,162.4024 c 0.75281,-0.0822 4.45291,-2.16604 5.22574,-1.65846 0.0829,0.0544 -0.0343,0.20444 0,0.29748 0.59254,1.60739 0.98534,1.58181 3.39519,1.58181 1.06314,0 2.17318,0.31228 3.18942,0 0.0186,-0.006 0,-0.5913 0,-0.64382 0,-0.0523 -0.0168,0.10734 0,0.15683 0.2579,0.75799 0.21194,0.33813 0.51087,1.08402 0.261,0.65128 0.74672,2.89002 1.06908,3.20856 0.69038,0.6822 3.54954,-0.7804 4.08799,-1.10428 0.2574,-0.15483 1.62204,-2.21195 1.91891,-1.78034 0.0481,0.0699 -0.0607,0.19529 0,0.25465 2.80116,2.74032 8.305,2.36112 11.5923,0.93028 1.3812,-0.60118 0.30175,-0.37159 1.35101,-1.07885 0.78139,-0.52669 2.10853,0.53409 3.004585,0.26728 0.39807,-0.11854 0.70167,-0.48571 1.1086,-0.56887 1.74669,-0.35692 3.53818,-0.44789 5.31404,-0.60473 2.14181,-0.18916 3.63479,1.7393 5.50633,2.48914 1.1567,0.46344 2.619,0.71184 3.84315,0.83117 3.22701,0.31459 7.53284,-0.30438 10.64216,-1.19856 0.87008,-0.25023 1.57784,-0.79319 2.42021,-1.07398 0.76445,-0.25481 1.06134,0.46528 1.29772,0.80181 0.19103,0.27198 1.00522,-0.7929 1.82449,-0.7929 1.1368,0 2.72513,1.06908 4.1372,1.06908"
       id="path1371" />
  </g>
</svg>
