<?xml version="1.0" encoding="UTF-8" standalone="no"?>
<!-- Created with Inkscape (http://www.inkscape.org/) -->

<svg
   width="202.964mm"
   height="202.964mm"
   viewBox="0 0 202.96401 202.964"
   version="1.1"
   id="svg5"
   xml:space="preserve"
   inkscape:version="1.2.1 (9c6d41e410, 2022-07-14, custom)"
   sodipodi:docname="bidon.svg"
   xmlns:inkscape="http://www.inkscape.org/namespaces/inkscape"
   xmlns:sodipodi="http://sodipodi.sourceforge.net/DTD/sodipodi-0.dtd"
   xmlns="http://www.w3.org/2000/svg"
   xmlns:svg="http://www.w3.org/2000/svg"><sodipodi:namedview
     id="namedview7"
     pagecolor="#505050"
     bordercolor="#eeeeee"
     borderopacity="1"
     inkscape:showpageshadow="0"
     inkscape:pageopacity="0"
     inkscape:pagecheckerboard="0"
     inkscape:deskcolor="#505050"
     inkscape:document-units="mm"
     showgrid="false"
     inkscape:zoom="0.95875069"
     inkscape:cx="387.48342"
     inkscape:cy="128.81347"
     inkscape:window-width="1920"
     inkscape:window-height="1047"
     inkscape:window-x="0"
     inkscape:window-y="33"
     inkscape:window-maximized="1"
     inkscape:current-layer="layer2"
     showguides="true"><sodipodi:guide
       position="101.48181,221.6643"
       orientation="1,0"
       id="guide1228"
       inkscape:locked="false" /></sodipodi:namedview><defs
     id="defs2" /><g
     inkscape:groupmode="layer"
     id="layer2"
     inkscape:label="Warstwa 2"
     style="display:inline"
     transform="translate(-132.77188,-54.733834)"><path
       style="fill:none;stroke:#000000;stroke-width:0.965;stroke-linecap:butt;stroke-linejoin:miter;stroke-dasharray:none;stroke-opacity:1"
       d="m 197.91618,237.83736 -0.0956,-109.86401 c -0.66109,-4.39693 2.3852,-4.98622 4.26833,-7.07442 l 0.12875,-10.79837 c -2.64102,-3.16367 -6.84415,-3.49557 -5.02869,-12.040758 l 2.77427,-16.585715 c 0.45043,-6.28181 7.26371,-6.856653 12.18682,-9.126826 l 12.93128,-4.11281 0.60625,-6.400945 c -2.69428,-1.451804 0.0123,-4.955381 4.09418,-5.158317 l 8.56051,0.0204 c 1.81338,0.129488 5.24663,2.021767 5.4855,3.24364 0.28267,0.965443 -0.85978,1.417452 -1.442,1.971631 l 0.3081,6.494481 13.10822,3.839667 c 15.31987,5.748059 10.71723,8.945504 14.16411,24.946237 3.28214,6.103595 0.84962,8.732175 -3.39885,12.109095 l 0.0839,11.11301 c 1.52845,2.42079 4.61996,2.73784 4.30182,7.64401 l 0.2267,108.09314 c -0.984,8.39062 -0.36109,14.61221 -10.04392,17.92531 -9.49386,3.64667 -20.06196,2.73382 -30.47436,3.04924 -9.40008,0.34603 -18.46791,-0.14534 -26.43972,-4.25992 -3.82765,-1.97184 -5.78022,-8.79229 -6.30559,-15.02777 z"
       id="path920"
       sodipodi:nodetypes="ccccccccccccccccccccccccc" /><path
       style="display:inline;fill:none;stroke:#000000;stroke-width:0.965;stroke-linecap:butt;stroke-linejoin:miter;stroke-dasharray:none;stroke-opacity:1"
       d="m 225.63688,61.765227 16.8131,0.173889"
       id="path1093" /><path
       style="display:inline;fill:none;stroke:#000000;stroke-width:0.965;stroke-linecap:butt;stroke-linejoin:miter;stroke-dasharray:none;stroke-opacity:1"
       d="m 230.22927,56.593861 v -1.377527 h 7.77783 v 1.395828"
       id="path1095" /><path
       style="fill:none;stroke:#000000;stroke-width:0.965;stroke-linecap:butt;stroke-linejoin:miter;stroke-dasharray:none;stroke-opacity:1"
       d="m 202.03597,109.97425 c 18.78227,0.57679 38.01376,1.02202 64.74217,-0.72817"
       id="path1102"
       sodipodi:nodetypes="cc" /><path
       style="display:inline;fill:none;stroke:#000000;stroke-width:0.965;stroke-linecap:butt;stroke-linejoin:miter;stroke-dasharray:none;stroke-opacity:1"
       d="m 202.13702,121.23484 c 32.64883,1.80386 49.4651,0.57327 64.56136,-0.77152"
       id="path1104"
       sodipodi:nodetypes="cc" /><path
       style="fill:none;stroke:#000000;stroke-width:0.965;stroke-linecap:butt;stroke-linejoin:miter;stroke-dasharray:none;stroke-opacity:1"
       d="m 201.33138,77.662653 c 20.2134,1.567521 41.65085,1.255106 63.99141,-0.162028"
       id="path1107"
       sodipodi:nodetypes="cc" /><path
       style="fill:none;stroke:#000000;stroke-width:0.965;stroke-linecap:butt;stroke-linejoin:miter;stroke-dasharray:none;stroke-opacity:1"
       d="m 213.36391,71.947483 c 13.33999,1.067066 27.14287,0.975165 41.20857,-0.0222"
       id="path1109"
       sodipodi:nodetypes="cc" /><path
       style="fill:none;stroke:#000000;stroke-width:0.965;stroke-linecap:butt;stroke-linejoin:miter;stroke-dasharray:none;stroke-opacity:1"
       d="m 197.20106,95.800859 c 27.34006,2.505926 49.92539,1.288298 72.13008,-0.227426"
       id="path1174"
       sodipodi:nodetypes="cc" /></g></svg>
