<?xml version="1.0" encoding="UTF-8" standalone="no"?>
<!-- Generator: Adobe Illustrator 12.0.0, SVG Export Plug-In . SVG Version: 6.00 Build 51448)  -->

<svg
   version="1.1"
   id="Layer_1"
   width="150.02077"
   height="150.02077"
   viewBox="0 0 232.4112 232.41117"
   overflow="visible"
   enable-background="new 0 0 600 400"
   xml:space="preserve"
   sodipodi:docname="dmb.svg"
   inkscape:version="1.2-dev (fd8ac3146e, 2021-05-04, custom)"
   xmlns:inkscape="http://www.inkscape.org/namespaces/inkscape"
   xmlns:sodipodi="http://sodipodi.sourceforge.net/DTD/sodipodi-0.dtd"
   xmlns="http://www.w3.org/2000/svg"
   xmlns:svg="http://www.w3.org/2000/svg"><defs
   id="defs165"><marker
     style="overflow:visible"
     id="Arrow1Mend"
     refX="0"
     refY="0"
     orient="auto"
     inkscape:stockid="Arrow1Mend"
     inkscape:isstock="true"><path
       transform="matrix(-0.4,0,0,-0.4,-4,0)"
       style="fill:context-stroke;fill-rule:evenodd;stroke:context-stroke;stroke-width:1pt"
       d="M 0,0 5,-5 -12.5,0 5,5 Z"
       id="path11424" /></marker><marker
     style="overflow:visible"
     id="Arrow1Lend"
     refX="0"
     refY="0"
     orient="auto"
     inkscape:stockid="Arrow1Lend"
     inkscape:isstock="true"><path
       transform="matrix(-0.8,0,0,-0.8,-10,0)"
       style="fill:context-stroke;fill-rule:evenodd;stroke:context-stroke;stroke-width:1pt"
       d="M 0,0 5,-5 -12.5,0 5,5 Z"
       id="path11418" /></marker><marker
     style="overflow:visible"
     id="Arrow1Mend-4"
     refX="0"
     refY="0"
     orient="auto"
     inkscape:stockid="Arrow1Mend"
     inkscape:isstock="true"><path
       transform="matrix(-0.4,0,0,-0.4,-4,0)"
       style="fill:context-stroke;fill-rule:evenodd;stroke:context-stroke;stroke-width:1pt"
       d="M 0,0 5,-5 -12.5,0 5,5 Z"
       id="path11424-8" /></marker><marker
     style="overflow:visible"
     id="Arrow1Mend-44"
     refX="0"
     refY="0"
     orient="auto"
     inkscape:stockid="Arrow1Mend"
     inkscape:isstock="true"><path
       transform="matrix(-0.4,0,0,-0.4,-4,0)"
       style="fill:context-stroke;fill-rule:evenodd;stroke:context-stroke;stroke-width:1pt"
       d="M 0,0 5,-5 -12.5,0 5,5 Z"
       id="path11424-4" /></marker><marker
     style="overflow:visible"
     id="Arrow1Mend-44-1"
     refX="0"
     refY="0"
     orient="auto"
     inkscape:stockid="Arrow1Mend"
     inkscape:isstock="true"><path
       transform="matrix(-0.4,0,0,-0.4,-4,0)"
       style="fill:context-stroke;fill-rule:evenodd;stroke:context-stroke;stroke-width:1pt"
       d="M 0,0 5,-5 -12.5,0 5,5 Z"
       id="path11424-4-7" /></marker><marker
     style="overflow:visible"
     id="Arrow1Mend-44-1-7"
     refX="0"
     refY="0"
     orient="auto"
     inkscape:stockid="Arrow1Mend"
     inkscape:isstock="true"><path
       transform="matrix(-0.4,0,0,-0.4,-4,0)"
       style="fill:context-stroke;fill-rule:evenodd;stroke:context-stroke;stroke-width:1pt"
       d="M 0,0 5,-5 -12.5,0 5,5 Z"
       id="path11424-4-7-8" /></marker><marker
     style="overflow:visible"
     id="Arrow1Mend-44-1-7-9"
     refX="0"
     refY="0"
     orient="auto"
     inkscape:stockid="Arrow1Mend"
     inkscape:isstock="true"><path
       transform="matrix(-0.4,0,0,-0.4,-4,0)"
       style="fill:context-stroke;fill-rule:evenodd;stroke:context-stroke;stroke-width:1pt"
       d="M 0,0 5,-5 -12.5,0 5,5 Z"
       id="path11424-4-7-8-7" /></marker><marker
     style="overflow:visible"
     id="Arrow1Mend-44-1-7-9-3"
     refX="0"
     refY="0"
     orient="auto"
     inkscape:stockid="Arrow1Mend"
     inkscape:isstock="true"><path
       transform="matrix(-0.4,0,0,-0.4,-4,0)"
       style="fill:context-stroke;fill-rule:evenodd;stroke:context-stroke;stroke-width:1pt"
       d="M 0,0 5,-5 -12.5,0 5,5 Z"
       id="path11424-4-7-8-7-1" /></marker><marker
     style="overflow:visible"
     id="Arrow1Mend-44-1-7-9-3-3"
     refX="0"
     refY="0"
     orient="auto"
     inkscape:stockid="Arrow1Mend"
     inkscape:isstock="true"><path
       transform="matrix(-0.4,0,0,-0.4,-4,0)"
       style="fill:context-stroke;fill-rule:evenodd;stroke:context-stroke;stroke-width:1pt"
       d="M 0,0 5,-5 -12.5,0 5,5 Z"
       id="path11424-4-7-8-7-1-3" /></marker><marker
     style="overflow:visible"
     id="Arrow1Mend-44-8"
     refX="0"
     refY="0"
     orient="auto"
     inkscape:stockid="Arrow1Mend"
     inkscape:isstock="true"><path
       transform="matrix(-0.4,0,0,-0.4,-4,0)"
       style="fill:context-stroke;fill-rule:evenodd;stroke:context-stroke;stroke-width:1pt"
       d="M 0,0 5,-5 -12.5,0 5,5 Z"
       id="path11424-4-8" /></marker><marker
     style="overflow:visible"
     id="Arrow1Mend-44-8-3"
     refX="0"
     refY="0"
     orient="auto"
     inkscape:stockid="Arrow1Mend"
     inkscape:isstock="true"><path
       transform="matrix(-0.4,0,0,-0.4,-4,0)"
       style="fill:context-stroke;fill-rule:evenodd;stroke:context-stroke;stroke-width:1pt"
       d="M 0,0 5,-5 -12.5,0 5,5 Z"
       id="path11424-4-8-0" /></marker></defs><sodipodi:namedview
   id="namedview163"
   pagecolor="#505050"
   bordercolor="#eeeeee"
   borderopacity="1"
   objecttolerance="10.0"
   gridtolerance="10.0"
   guidetolerance="10.0"
   inkscape:pageshadow="0"
   inkscape:pageopacity="0"
   inkscape:pagecheckerboard="0"
   showgrid="false"
   inkscape:zoom="2.556169"
   inkscape:cx="14.670392"
   inkscape:cy="96.628979"
   inkscape:window-width="1920"
   inkscape:window-height="1080"
   inkscape:window-x="0"
   inkscape:window-y="0"
   inkscape:window-maximized="1"
   inkscape:current-layer="rope-9"
   fit-margin-top="10"
   fit-margin-left="10"
   fit-margin-right="10"
   fit-margin-bottom="10"
   lock-margins="true"
   showguides="false" />







<g
   inkscape:groupmode="layer"
   id="layer1"
   inkscape:label="Layer 1"
   style="display:inline"
   transform="translate(73.709738,-424.90373)"><g
     id="rope-9"
     transform="matrix(1.4113757,0,0,1.4113757,-368.85595,24.835844)"
     style="display:inline"><path
       fill-rule="evenodd"
       clip-rule="evenodd"
       fill="#ffffff"
       d="m 231.81139,338.44888 c 0,0 1.558,-0.354 2.428,-0.696 0.518,-0.519 1.557,-1.559 2.075,-2.254 0.696,-0.69 1.041,-1.559 2.084,-2.249 0,0 1.211,-0.696 2.597,-0.867 -4.33,-1.903 -8.494,-4.157 -12.477,-6.577 h 0.174 c -1.386,0.171 -2.772,0.69 -2.772,0.69 -1.036,0.521 -1.559,1.384 -2.076,2.08 -0.697,0.52 -1.736,1.559 -2.426,1.903 -0.869,0.345 -2.427,0.516 -2.427,0.516 3.985,2.602 8.315,5.199 12.65,7.454 z"
       id="path31-6" /><path
       fill-rule="evenodd"
       clip-rule="evenodd"
       fill="#ffffff"
       d="m 249.30139,346.06288 c 0,0 1.563,-0.343 2.253,-1.037 0.525,-0.521 1.387,-1.559 1.912,-2.422 0.342,-0.696 0.69,-1.735 1.729,-2.425 0,0 1.041,-0.87 2.427,-1.215 -4.509,-1.385 -9.012,-3.117 -13.168,-5.024 v 0.179 c -1.21,0.171 -2.425,0.86 -2.425,0.86 -1.039,0.696 -1.387,1.733 -1.908,2.427 -0.689,0.689 -1.558,1.731 -2.247,2.255 -0.697,0.519 -2.254,0.688 -2.254,0.688 4.329,2.255 8.834,4.156 13.51,5.89 z"
       id="path33-4" /><path
       fill-rule="evenodd"
       clip-rule="evenodd"
       fill="#ffffff"
       d="m 360.84639,341.21888 c 0,0 0.688,-1.385 0.862,-2.254 0,-0.694 -0.175,-2.252 -0.347,-3.117 -0.172,-0.868 -0.69,-1.729 -0.69,-2.941 0,0 0.347,-1.386 0.862,-2.601 -4.157,2.248 -8.312,4.159 -12.649,5.889 -0.687,1.04 -1.212,2.426 -1.212,2.426 -0.347,1.388 -0.17,1.902 -0.17,2.946 0.17,0.86 -0.177,2.426 -0.347,3.116 -0.173,0.866 -0.871,2.597 -0.871,2.597 4.512,-1.559 10.054,-3.812 14.562,-5.891 z"
       id="path35-9" /><path
       fill-rule="evenodd"
       clip-rule="evenodd"
       fill="#ffffff"
       d="m 233.54139,386.24688 c -2.426,1.559 -3.813,2.772 -3.813,2.772 l 7.454,8.658 3.116,-4.674 z"
       id="path113-9" /><path
       fill-rule="evenodd"
       clip-rule="evenodd"
       fill="#ffffff"
       d="m 237.69439,381.74788 c 6.759,-5.541 12.302,1.73 12.302,1.73 l -5.023,4.846 z"
       id="path115-4" /><path
       fill-rule="evenodd"
       clip-rule="evenodd"
       fill="#ffffff"
       d="m 356.33839,388.50088 c 2.254,1.731 3.637,2.946 3.637,2.946 l -7.794,8.485 -2.951,-4.855 z"
       id="path117-8" /><path
       fill-rule="evenodd"
       clip-rule="evenodd"
       fill="#ffffff"
       d="m 352.36139,383.97388 c -6.59,-5.911 -12.308,1.213 -12.308,1.213 l 4.681,5.045 z"
       id="path119-1" /><path
       fill-rule="evenodd"
       clip-rule="evenodd"
       fill="#ffffff"
       d="m 339.71039,369.44888 c -8.836,-4.675 -13.51,2.076 -13.51,2.076 5.37,2.598 9.697,8.658 9.697,8.658 l 1.387,2.251 -0.173,-0.17 c 0,0 6.928,-7.446 11.955,-2.77 -2.077,-2.775 -3.985,-5.201 -5.027,-6.411 -0.863,-0.86 -2.421,-2.248 -4.329,-3.634 z"
       id="path121-2" /><path
       fill-rule="evenodd"
       clip-rule="evenodd"
       fill="#ffffff"
       d="m 343.00539,367.36588 c 5.197,-6.058 2.945,-13.334 2.076,-16.8 l -10.569,4.853 c 0.172,0.519 1.729,3.463 -1.212,6.93 0,0 10.224,4.328 9.705,5.017 z"
       id="path123-9" /><path
       fill-rule="evenodd"
       clip-rule="evenodd"
       fill="#ffffff"
       d="m 281.17739,372.90888 c -1.042,0.182 -1.911,0.182 -2.951,0.182 -1.73,0 -3.634,-0.354 -5.2,-1.043 -1.383,4.501 -11.605,3.462 -11.605,3.462 3.637,3.466 8.489,6.064 13.688,6.925 v -0.17 c 0,0 5.714,-1.213 5.889,-9.527 z"
       id="path125-3" /><path
       fill-rule="evenodd"
       clip-rule="evenodd"
       fill="#ffffff"
       d="m 322.39539,369.96688 c 0,0.173 7.099,-6.579 11.606,-4.503 l -1.041,-0.868 c -3.986,-3.115 -9.009,-4.845 -13.861,-5.018 -4.33,0 -11.953,1.212 -13.685,3.985 0,0 6.584,1.382 10.74,5.542 0.345,0.344 2.084,0 6.241,0.862 z"
       id="path127-9" /><path
       fill-rule="evenodd"
       clip-rule="evenodd"
       fill="#ffffff"
       d="m 258.14039,376.20688 c -2.076,1.383 -3.291,2.59 -3.291,2.59 l -2.08,1.909 h 0.172 c 0,0 -6.583,-7.797 -11.781,-3.289 2.082,-2.599 3.983,-5.194 5.198,-6.238 1.041,-1.212 2.426,-2.427 4.5,-3.46 l -0.69,0.343 c 0.872,-0.343 1.558,-0.517 2.254,-0.868 0.001,-10e-4 1.386,6.582 5.718,9.013 z"
       id="path129-0" /><path
       fill-rule="evenodd"
       clip-rule="evenodd"
       fill="#ffffff"
       d="m 311.48739,370.30888 c -6.066,-5.017 -12.131,-5.886 -16.633,-7.271 v 0 l -9.009,6.239 10.738,3.632 c 3.295,0.867 3.984,2.426 8.144,5.025 0,0 9.533,-5.541 6.76,-7.625 z"
       id="path131-8" /><path
       fill-rule="evenodd"
       clip-rule="evenodd"
       fill="#ffffff"
       d="m 330.01839,379.31788 c -3.469,3.463 -9.355,3.807 -9.355,3.807 -3.983,0.182 -7.795,-0.344 -12.478,-3.116 0,0 7.799,-5.36 7.451,-7.961 1.904,0.346 7.448,1.385 8.84,0.346 0,-0.001 1.901,4.673 5.542,6.924 z"
       id="path133-8" /><path
       fill-rule="evenodd"
       clip-rule="evenodd"
       fill="#ffffff"
       d="m 284.11239,372.39288 0.175,-0.171 4.499,1.037 c 8.15,2.075 9.533,3.289 9.533,3.289 0,0 -9.18,8.658 -17.33,6.576 0,0 6.068,-4.5 3.298,-10.902 z"
       id="path135-5" /><path
       fill-rule="evenodd"
       clip-rule="evenodd"
       fill="#ffffff"
       d="m 341.96639,348.14688 c 0,0 0.341,-1.04 0.515,-1.908 0.18,-0.69 0.524,-1.733 0.352,-2.601 0,-0.861 -0.695,-1.559 -0.352,-2.592 0,0 0.868,-2.598 1.738,-3.641 -4.509,1.559 -10.919,3.982 -15.077,6.232 -1.04,0.524 -1.902,1.044 -1.902,1.044 -0.525,1.038 -0.696,1.9 -0.696,2.769 0,0.869 -0.172,2.254 -0.172,3.115 0,2.083 -1.903,4.853 -1.903,4.853 4.849,-0.868 11.087,-3.638 15.07,-6.063 z"
       id="path137-0" /><path
       fill-rule="evenodd"
       clip-rule="evenodd"
       fill="#ffffff"
       d="m 315.81239,345.02588 c 4.156,-3.46 7.614,-4.677 10.389,-3.986 9.532,-3.983 11.091,-4.327 11.091,-4.327 -3.642,-4.33 -7.455,-5.02 -14.035,-4.85 -2.945,0.176 -11.953,3.463 -13.34,5.371 z"
       id="path139-9" /><path
       fill-rule="evenodd"
       clip-rule="evenodd"
       fill="#ffffff"
       d="m 315.81939,345.02588 c 0,0 -7.461,-5.889 -5.206,-8.489 z"
       id="path141-6" /><path
       fill-rule="evenodd"
       clip-rule="evenodd"
       fill="#ffffff"
       d="m 266.79939,371.52488 c 1.039,-0.347 2.079,-1.216 2.427,-1.559 h 0.171 c -3.641,-2.773 -5.89,-7.274 -5.89,-12.121 -6.588,-0.868 -7.975,-8.312 -7.975,-8.312 -1.039,2.597 -1.558,5.188 -1.558,8.134 0,5.024 1.385,9.873 3.984,13.857 h 0.175 c 10e-4,10e-4 5.025,1.04 8.666,10e-4 z"
       id="path143-3" /><path
       fill-rule="evenodd"
       clip-rule="evenodd"
       fill="#ffffff"
       d="m 257.43739,345.54888 c 0,0 1.564,7.792 6.759,8.134 1.044,-3.286 5.372,-7.1 8.145,-9 l 1.039,-1.215 c -0.867,-6.404 2.08,-10.047 2.08,-10.047 l -2.947,0.698 c -6.239,1.729 -11.781,6.061 -15.076,11.43 z"
       id="path145-8" /><path
       fill-rule="evenodd"
       clip-rule="evenodd"
       fill="#ffffff"
       d="m 281.34339,334.28988 c 0.862,-1.213 2.426,-0.693 3.467,-0.869 5.716,-0.686 13.684,3.116 15.244,6.759 l -2.601,1.9 c -2.074,1.906 -5.197,2.255 -5.197,2.255 l -1.385,-0.523 c -1.73,-0.688 -4.503,-1.034 -6.583,-1.034 -1.905,0 -4.16,-0.521 -5.889,0.171 -2.254,-2.253 2.944,-8.659 2.944,-8.659 z"
       id="path147-5" /><path
       fill-rule="evenodd"
       clip-rule="evenodd"
       fill="#ffffff"
       d="m 306.79939,355.24788 c -0.867,0.344 4.683,2.248 13.339,1.034 v -0.173 c 0,0 1.216,-1.211 1.566,-1.9 0.172,-0.696 0.861,-2.428 0.861,-3.289 0.171,-0.87 0.353,-1.386 0.353,-2.601 0,0 0,-1.04 0.515,-2.08 -1.038,0.521 -6.239,2.252 -6.239,2.252 -1.382,0.347 -2.425,0.518 -2.425,0.518 -0.691,0.525 -1.387,1.215 -1.901,1.73 -0.525,0.354 -1.559,1.215 -2.599,2.254 -0.524,0.348 -3.123,1.905 -3.47,2.255 z"
       id="path149-6" /><path
       fill-rule="evenodd"
       clip-rule="evenodd"
       fill="#ffffff"
       d="m 287.06439,356.28188 c 0,0 -0.698,0 0.171,-3.805 0.175,-1.043 0.518,-1.738 0.867,-2.601 0.346,-0.697 0.69,-1.729 1.558,-2.77 0,0 -1.212,0.691 0,0 l -1.735,0.172 c -4.847,-0.519 -7.273,-0.868 -11.781,-1.73 -1.212,0 0,0 0,0 -1.384,0.345 -3.46,1.73 -3.984,2.599 -0.344,0.69 -1.042,1.032 -1.559,1.558 -0.514,0.519 -1.729,2.076 -1.729,2.076 4.673,2.08 13.51,4.681 18.192,4.501 z"
       id="path151-1" /><path
       fill-rule="evenodd"
       clip-rule="evenodd"
       fill="#ffffff"
       d="m 312.87439,346.93288 c 0,0 -6.239,-5.195 -5.198,-9.009 -6.936,6.238 -9.705,9.354 -15.42,9.354 -1.563,0.172 -0.352,0 -0.352,0 -0.69,0.868 -1.034,2.076 -1.384,2.944 -0.175,0.869 -0.519,1.73 -0.519,2.599 -0.172,2.419 0,3.115 0,3.115 6.411,0.345 5.886,0.519 11.78,-1.039 0,0 3.986,-1.386 7.798,-5.199 0.696,-0.518 2.597,-2.076 3.295,-2.765 z"
       id="path153-1" /><path
       fill-rule="evenodd"
       clip-rule="evenodd"
       fill="#ffffff"
       d="m 289.49039,361.65088 c -7.107,-2.591 -16.805,-3.459 -22.005,-1.385 l 1.215,2.426 3.635,4.849 4.161,-0.348 c 0,0 3.118,0 5.543,1.216 10e-4,0 6.581,-6.929 7.451,-6.758 z"
       id="path155-5" /><polygon
       fill-rule="evenodd"
       clip-rule="evenodd"
       fill="#ffffff"
       points="355.366,356.092 354.498,355.05 347.564,361.109 348.431,362.149 "
       id="polygon157-9"
       transform="translate(-1.1046123,31.369878)" /><polygon
       fill-rule="evenodd"
       clip-rule="evenodd"
       fill="#ffffff"
       points="242.961,359.897 243.829,358.862 237.247,352.623 236.38,353.666 "
       id="polygon159-8"
       transform="translate(-1.1046123,31.369878)" /></g></g></svg>
