<?xml version="1.0" encoding="UTF-8" standalone="no"?>
<!-- Created with Inkscape (http://www.inkscape.org/) -->

<svg
   width="93.310593mm"
   height="93.310593mm"
   viewBox="0 0 93.310593 93.310593"
   version="1.1"
   id="svg3808"
   inkscape:version="1.1.2 (0a00cf5339, 2022-02-04, custom)"
   sodipodi:docname="domek.svg"
   xmlns:inkscape="http://www.inkscape.org/namespaces/inkscape"
   xmlns:sodipodi="http://sodipodi.sourceforge.net/DTD/sodipodi-0.dtd"
   xmlns="http://www.w3.org/2000/svg"
   xmlns:svg="http://www.w3.org/2000/svg">
  <sodipodi:namedview
     id="namedview3810"
     pagecolor="#505050"
     bordercolor="#eeeeee"
     borderopacity="1"
     inkscape:pageshadow="0"
     inkscape:pageopacity="0"
     inkscape:pagecheckerboard="0"
     inkscape:document-units="mm"
     showgrid="false"
     inkscape:zoom="1.1545455"
     inkscape:cx="287.99213"
     inkscape:cy="65.393701"
     inkscape:window-width="1890"
     inkscape:window-height="1020"
     inkscape:window-x="0"
     inkscape:window-y="0"
     inkscape:window-maximized="1"
     inkscape:current-layer="layer3"
     fit-margin-top="0"
     fit-margin-left="0"
     fit-margin-right="0"
     fit-margin-bottom="0" />
  <defs
     id="defs3805" />
  <g
     inkscape:groupmode="layer"
     id="layer3"
     inkscape:label="Warstwa 2"
     style="display:inline;opacity:1"
     transform="translate(-51.411585,-130.49747)">
    <path
       style="fill:none;stroke:#000000;stroke-width:0.264583px;stroke-linecap:butt;stroke-linejoin:miter;stroke-opacity:1"
       d="m 53.665953,202.70862 1.769776,-25.57088 -2.436463,-0.17188 0.188214,-2.47831 -1.48645,0.0573 22.382017,-27.19967 c 18.646132,1.46815 38.180573,0.91098 58.004683,-0.3066 l 1.1653,1.91434 -2.4208,-0.0273 13.67749,28.54468 -4.43809,-0.1025 -0.933,26.87002 -31.05052,-0.7618 z"
       id="path3915"
       sodipodi:nodetypes="cccccccccccccc" />
    <path
       style="fill:none;stroke:#000000;stroke-width:0.264583px;stroke-linecap:butt;stroke-linejoin:miter;stroke-opacity:1"
       d="m 108.16487,203.56643 0.52033,-30.84373 3.00222,0.22805 -1.17851,30.54183"
       id="path4197" />
    <path
       style="fill:none;stroke:#000000;stroke-width:0.264583px;stroke-linecap:butt;stroke-linejoin:miter;stroke-opacity:1"
       d="m 91.497252,190.14809 0.272695,-14.30188 10.261583,-0.27627 c -0.43519,0.68745 -0.2706,1.48953 -0.008,2.31035 -0.32357,0.80213 -0.3805,1.66446 0.007,2.62714 -0.45656,0.81353 -0.40059,1.57764 -0.0177,2.31024 -0.12687,0.56378 -0.42218,0.8115 0.0273,2.45672 -0.41461,0.78641 -0.32297,1.51677 -0.0877,2.23124 -0.27889,0.89123 -0.31388,1.78245 -0.18262,2.67368 z"
       id="path4199"
       sodipodi:nodetypes="cccccccccc" />
    <path
       style="fill:none;stroke:#000000;stroke-width:0.264583px;stroke-linecap:butt;stroke-linejoin:miter;stroke-opacity:1"
       d="m 94.018953,189.49475 c 0,0 0.286034,-12.17523 0.395145,-12.17523 0.109112,0 5.25223,-0.141 5.25223,-0.141 l -0.14646,12.21543 z"
       id="path5013" />
    <path
       style="fill:none;stroke:#000000;stroke-width:0.264583px;stroke-linecap:butt;stroke-linejoin:miter;stroke-opacity:1"
       d="m 99.519866,189.39395 1.405084,-0.0738 0.39206,-13.01688 -7.895361,0.34055 -0.14986,12.87477 0.747162,-0.0238"
       id="path5015" />
    <path
       style="fill:none;stroke:#000000;stroke-width:0.264583px;stroke-linecap:butt;stroke-linejoin:miter;stroke-opacity:1"
       d="m 102.01283,182.81767 6.44097,-0.25629"
       id="path5017" />
    <path
       style="fill:none;stroke:#000000;stroke-width:0.264583px;stroke-linecap:butt;stroke-linejoin:miter;stroke-opacity:1"
       d="m 102.03153,175.56994 6.58661,-0.35013"
       id="path5019" />
    <path
       style="fill:none;stroke:#000000;stroke-width:0.264583px;stroke-linecap:butt;stroke-linejoin:miter;stroke-opacity:1"
       d="m 102.02353,177.88029 6.56993,-0.22837"
       id="path5021" />
    <path
       style="fill:none;stroke:#000000;stroke-width:0.264583px;stroke-linecap:butt;stroke-linejoin:miter;stroke-opacity:1"
       d="m 102.03053,180.50743 6.56783,-0.34555"
       id="path5023" />
    <path
       style="fill:none;stroke:#000000;stroke-width:0.264583px;stroke-linecap:butt;stroke-linejoin:miter;stroke-opacity:1"
       d="m 102.04013,185.27439 6.3624,-0.14869"
       id="path5025" />
    <path
       style="fill:none;stroke:#000000;stroke-width:0.264583px;stroke-linecap:butt;stroke-linejoin:miter;stroke-opacity:1"
       d="m 101.95243,187.50563 6.5255,0.0221"
       id="path5027" />
    <path
       style="fill:none;stroke:#000000;stroke-width:0.264583px;stroke-linecap:butt;stroke-linejoin:miter;stroke-opacity:1"
       d="m 101.76981,190.17931 6.70061,-0.2307"
       id="path5029" />
    <path
       style="fill:none;stroke:#000000;stroke-width:0.264583px;stroke-linecap:butt;stroke-linejoin:miter;stroke-opacity:1"
       d="m 130.83223,148.92562 -26.25873,0.47376 -25.058629,0.15081 -6.697662,-0.71844"
       id="path5031" />
    <path
       style="fill:none;stroke:#000000;stroke-width:0.264583px;stroke-linecap:butt;stroke-linejoin:miter;stroke-opacity:1"
       d="m 129.65903,148.85169 -15.00802,24.24017 -2.96359,-0.14111"
       id="path5033" />
    <path
       style="fill:none;stroke:#000000;stroke-width:0.264583px;stroke-linecap:butt;stroke-linejoin:miter;stroke-opacity:1"
       d="m 108.41029,192.2947 -50.90913,1.04562"
       id="path5035" />
    <path
       style="fill:none;stroke:#000000;stroke-width:0.264583px;stroke-linecap:butt;stroke-linejoin:miter;stroke-opacity:1"
       d="m 57.082357,198.2206 1.437914,-23.00577"
       id="path5037"
       sodipodi:nodetypes="cc" />
    <path
       style="fill:none;stroke:#000000;stroke-width:0.264583px;stroke-linecap:butt;stroke-linejoin:miter;stroke-opacity:1"
       d="m 53.984032,198.30976 c 0.09376,0 54.266108,-1.02101 54.266108,-1.02101"
       id="path5039" />
    <path
       style="fill:none;stroke:#000000;stroke-width:0.264583px;stroke-linecap:butt;stroke-linejoin:miter;stroke-opacity:1"
       d="M 57.300579,195.64796 108.4144,194.65892"
       id="path5041" />
    <path
       style="fill:none;stroke:#000000;stroke-width:0.264583px;stroke-linecap:butt;stroke-linejoin:miter;stroke-opacity:1"
       d="m 108.18027,200.38288 -54.408132,0.51747"
       id="path5043" />
    <path
       style="fill:none;stroke:#000000;stroke-width:0.264583px;stroke-linecap:butt;stroke-linejoin:miter;stroke-opacity:1"
       d="m 73.123805,191.89051 10.066996,-0.10871 c 0.200726,-0.48626 0.853547,-0.36413 1.34171,-0.46359 l 0.06121,-1.24307 -12.900247,0.26223 0.02937,1.03287 c 0.546889,0.10047 1.10118,0.19418 1.400961,0.52027 z"
       id="path5173"
       sodipodi:nodetypes="ccccccc" />
    <path
       style="fill:none;stroke:#000000;stroke-width:0.264583px;stroke-linecap:butt;stroke-linejoin:miter;stroke-opacity:1"
       d="m 72.975694,190.23108 0.6447,-13.98472 9.847101,-0.0527 -0.317524,13.8976"
       id="path5455" />
    <path
       style="fill:none;stroke:#000000;stroke-width:0.264583px;stroke-linecap:butt;stroke-linejoin:miter;stroke-opacity:1"
       d="m 82.204443,190.00352 0.239744,-12.37344 -6.280997,0.2782 -0.329787,12.11502"
       id="path5457" />
    <path
       style="fill:none;stroke:#000000;stroke-width:0.264583px;stroke-linecap:butt;stroke-linejoin:miter;stroke-opacity:1"
       d="m 57.616917,190.89311 14.054119,-0.18329"
       id="path5459" />
    <path
       style="fill:none;stroke:#000000;stroke-width:0.264583px;stroke-linecap:butt;stroke-linejoin:miter;stroke-opacity:1"
       d="m 57.661936,188.71228 15.352713,-0.34101"
       id="path5461" />
    <path
       style="fill:none;stroke:#000000;stroke-width:0.264583px;stroke-linecap:butt;stroke-linejoin:miter;stroke-opacity:1"
       d="m 57.810648,186.19878 15.344711,-0.34734"
       id="path5463" />
    <path
       style="fill:none;stroke:#000000;stroke-width:0.264583px;stroke-linecap:butt;stroke-linejoin:miter;stroke-opacity:1"
       d="m 58.048151,183.60616 15.204895,-0.1265"
       id="path5465" />
    <path
       style="fill:none;stroke:#000000;stroke-width:0.264583px;stroke-linecap:butt;stroke-linejoin:miter;stroke-opacity:1"
       d="m 58.067622,181.1528 15.362166,-0.16013"
       id="path5467" />
    <path
       style="fill:none;stroke:#000000;stroke-width:0.264583px;stroke-linecap:butt;stroke-linejoin:miter;stroke-opacity:1"
       d="m 58.298746,178.84496 15.198405,-0.21109"
       id="path5469" />
    <path
       style="fill:none;stroke:#000000;stroke-width:0.264583px;stroke-linecap:butt;stroke-linejoin:miter;stroke-opacity:1"
       d="m 58.4817,176.73261 c 0.500909,0.0627 15.138694,-0.48625 15.138694,-0.48625"
       id="path5471" />
    <path
       style="fill:none;stroke:#000000;stroke-width:0.264583px;stroke-linecap:butt;stroke-linejoin:miter;stroke-opacity:1"
       d="m 83.467495,176.19366 8.204766,-0.0561"
       id="path5473" />
    <path
       style="fill:none;stroke:#000000;stroke-width:0.264583px;stroke-linecap:butt;stroke-linejoin:miter;stroke-opacity:1"
       d="m 83.569743,178.30394 8.036385,-0.0592"
       id="path5475" />
    <path
       style="fill:none;stroke:#000000;stroke-width:0.264583px;stroke-linecap:butt;stroke-linejoin:miter;stroke-opacity:1"
       d="m 83.368773,180.78701 c 0.07844,0 8.302871,-0.12483 8.302871,-0.12483"
       id="path5477" />
    <path
       style="fill:none;stroke:#000000;stroke-width:0.264583px;stroke-linecap:butt;stroke-linejoin:miter;stroke-opacity:1"
       d="m 83.254023,183.2938 c 0.163651,-0.0719 8.374878,-0.15213 8.374878,-0.15213"
       id="path5479" />
    <path
       style="fill:none;stroke:#000000;stroke-width:0.264583px;stroke-linecap:butt;stroke-linejoin:miter;stroke-opacity:1"
       d="m 83.276346,185.70161 8.328552,-0.21943"
       id="path5481" />
    <path
       style="fill:none;stroke:#000000;stroke-width:0.264583px;stroke-linecap:butt;stroke-linejoin:miter;stroke-opacity:1"
       d="m 83.255084,188.17086 8.206754,-0.28606"
       id="path5483" />
    <path
       style="fill:none;stroke:#000000;stroke-width:0.264583px;stroke-linecap:butt;stroke-linejoin:miter;stroke-opacity:1"
       d="m 84.627904,190.40121 6.869348,-0.25312"
       id="path5485" />
    <path
       style="fill:none;stroke:#000000;stroke-width:0.264583px;stroke-linecap:butt;stroke-linejoin:miter;stroke-opacity:1"
       d="m 110.73502,199.72726 14.28032,1.49655"
       id="path5487" />
    <path
       style="fill:none;stroke:#000000;stroke-width:0.264583px;stroke-linecap:butt;stroke-linejoin:miter;stroke-opacity:1"
       d="m 110.66958,197.38259 13.88953,1.69151"
       id="path5489" />
    <path
       style="fill:none;stroke:#000000;stroke-width:0.264583px;stroke-linecap:butt;stroke-linejoin:miter;stroke-opacity:1"
       d="m 110.66214,194.83608 14.06598,1.9318"
       id="path5491" />
    <path
       style="fill:none;stroke:#000000;stroke-width:0.264583px;stroke-linecap:butt;stroke-linejoin:miter;stroke-opacity:1"
       d="m 110.89864,192.21004 13.97823,2.04084"
       id="path5493" />
    <path
       style="fill:none;stroke:#000000;stroke-width:0.264583px;stroke-linecap:butt;stroke-linejoin:miter;stroke-opacity:1"
       d="m 111.1319,190.01072 14.26561,2.02699"
       id="path5495" />
    <path
       style="fill:none;stroke:#000000;stroke-width:0.264583px;stroke-linecap:butt;stroke-linejoin:miter;stroke-opacity:1"
       d="m 111.08506,187.71186 14.15151,2.01607"
       id="path5497" />
    <path
       style="fill:none;stroke:#000000;stroke-width:0.264583px;stroke-linecap:butt;stroke-linejoin:miter;stroke-opacity:1"
       d="m 111.26974,185.1871 3.17222,0.48368"
       id="path5499" />
    <path
       style="fill:none;stroke:#000000;stroke-width:0.264583px;stroke-linecap:butt;stroke-linejoin:miter;stroke-opacity:1"
       d="m 111.32837,182.74044 c 0.088,0 3.18291,0.62611 3.18291,0.62611"
       id="path5501" />
    <path
       style="fill:none;stroke:#000000;stroke-width:0.264583px;stroke-linecap:butt;stroke-linejoin:miter;stroke-opacity:1"
       d="m 111.40939,180.14439 3.60266,0.91863"
       id="path5503" />
    <path
       style="fill:none;stroke:#000000;stroke-width:0.264583px;stroke-linecap:butt;stroke-linejoin:miter;stroke-opacity:1"
       d="m 111.57151,178.06162 3.35881,0.70626"
       id="path5505" />
    <path
       style="fill:none;stroke:#000000;stroke-width:0.264583px;stroke-linecap:butt;stroke-linejoin:miter;stroke-opacity:1"
       d="m 111.58916,175.53006 3.47044,0.7993"
       id="path5507" />
    <path
       style="fill:none;stroke:#000000;stroke-width:0.264583px;stroke-linecap:butt;stroke-linejoin:miter;stroke-opacity:1"
       d="m 111.70943,173.41824 3.74555,0.84465"
       id="path5509" />
    <path
       style="fill:none;stroke:#000000;stroke-width:0.264583px;stroke-linecap:butt;stroke-linejoin:miter;stroke-opacity:1"
       d="m 115.49391,171.68686 11.49406,1.86233"
       id="path5511" />
    <path
       style="fill:none;stroke:#000000;stroke-width:0.264583px;stroke-linecap:butt;stroke-linejoin:miter;stroke-opacity:1"
       d="m 115.34205,188.29619 1.14992,-12.71411 1.6002,0.26061 -1.36493,12.65704"
       id="path5513" />
    <path
       style="fill:none;stroke:#000000;stroke-width:0.264583px;stroke-linecap:butt;stroke-linejoin:miter;stroke-opacity:1"
       d="m 119.63994,188.87705 1.09788,-13.21099 -4.76063,-0.79028 -0.16992,1.5269 -0.85355,11.8633"
       id="path5515" />
    <path
       style="fill:none;stroke:#000000;stroke-width:0.264583px;stroke-linecap:butt;stroke-linejoin:miter;stroke-opacity:1"
       d="m 115.45498,174.26289 c 0.28419,0.64552 0.69596,1.27776 -0.39538,2.06647 1.12964,1.25593 0.5688,1.87315 -0.12928,2.43852 1.0783,1.01296 0.47724,1.62981 0.0817,2.29514 0.46733,0.90418 0.2425,1.65958 -0.50077,2.30353 0.82202,0.66647 0.91524,1.42056 -0.0693,2.30423 1.24236,1.25323 0.18168,1.7152 -0.16271,2.42326"
       id="path5517"
       sodipodi:nodetypes="ccccccc" />
    <path
       style="fill:none;stroke:#000000;stroke-width:0.264583px;stroke-linecap:butt;stroke-linejoin:miter;stroke-opacity:1"
       d="m 115.45498,174.26289 11.12099,1.7518 c 1.34871,-0.74601 0.99831,-1.59837 0.412,-2.4655"
       id="path5951"
       sodipodi:nodetypes="ccc" />
    <path
       style="fill:none;stroke:#000000;stroke-width:0.264583px;stroke-linecap:butt;stroke-linejoin:miter;stroke-opacity:1"
       d="m 120.30499,181.82715 5.64005,0.83682 c 0.921,-0.59717 1.22475,-1.33034 0.47019,-2.29669 l -6.05949,-0.80188"
       id="path6081"
       sodipodi:nodetypes="cccc" />
    <path
       style="fill:none;stroke:#000000;stroke-width:0.264583px;stroke-linecap:butt;stroke-linejoin:miter;stroke-opacity:1"
       d="m 120.35574,179.5654 0.25799,-1.87679 6.13714,0.41095 c 0.31875,0.67108 0.48719,1.37177 -0.33564,2.26772 l -6.05949,-0.80188"
       id="path6249"
       sodipodi:nodetypes="ccccc" />
    <path
       style="fill:none;stroke:#000000;stroke-width:0.264583px;stroke-linecap:butt;stroke-linejoin:miter;stroke-opacity:1"
       d="m 120.61373,177.68861 0.30537,-2.59356 5.65687,0.91964 c 0.67635,0.80827 0.73136,1.50263 0.1749,2.08487 z"
       id="path6251"
       sodipodi:nodetypes="ccccc" />
    <path
       style="fill:none;stroke:#000000;stroke-width:0.264583px;stroke-linecap:butt;stroke-linejoin:miter;stroke-opacity:1"
       d="m 125.23657,189.72793 c 0.81153,0.63241 0.88436,1.39886 0.16094,2.30978 0.37488,0.66964 0.97154,1.31175 -0.52064,2.21317 1.03915,0.87247 0.54403,1.69777 -0.14875,2.517 0.71875,0.87761 0.56962,1.63332 -0.16901,2.30622 1.43494,1.27439 0.48585,1.51215 0.45623,2.14971 1.05416,1.3738 0.44139,2.03596 -0.1914,2.68957 l -14.31503,-0.4208 0.22611,-3.76532"
       id="path6457"
       sodipodi:nodetypes="ccccccccc" />
    <path
       style="fill:none;stroke:#000000;stroke-width:0.264583px;stroke-linecap:butt;stroke-linejoin:miter;stroke-opacity:1"
       d="m 138.10643,204.13619 1.06643,-26.84049 0.89877,0.0721"
       id="path6891" />
    <path
       style="fill:none;stroke:#000000;stroke-width:0.264583px;stroke-linecap:butt;stroke-linejoin:miter;stroke-opacity:1"
       d="m 120.0831,183.75281 5.59299,0.871 c 1.05277,-0.4612 1.31331,-1.0804 0.26895,-1.95984 l -5.64005,-0.83682 z"
       id="path6893"
       sodipodi:nodetypes="ccccc" />
    <path
       style="fill:none;stroke:#000000;stroke-width:0.264583px;stroke-linecap:butt;stroke-linejoin:miter;stroke-opacity:1"
       d="m 120.0831,183.75281 -0.23327,2.11278 5.75577,0.77849 c 0.83646,-0.5143 1.13667,-1.13356 0.0705,-2.02027 z"
       id="path7137"
       sodipodi:nodetypes="ccccc" />
    <path
       style="fill:none;stroke:#000000;stroke-width:0.264583px;stroke-linecap:butt;stroke-linejoin:miter;stroke-opacity:1"
       d="m 119.84983,185.86559 -0.15097,1.83345 5.78378,0.80952 c 1.37441,-0.61823 0.7746,-1.24129 0.12296,-1.86448 l -5.75577,-0.77849"
       id="path7267"
       sodipodi:nodetypes="ccccc" />
    <path
       style="fill:none;stroke:#000000;stroke-width:0.264583px;stroke-linecap:butt;stroke-linejoin:miter;stroke-opacity:1"
       d="m 125.48264,188.50856 c 0.39668,0.52581 0.99696,1.10237 -0.24607,1.21937"
       id="path7269"
       sodipodi:nodetypes="cc" />
    <path
       style="fill:none;stroke:#000000;stroke-width:0.264583px;stroke-linecap:butt;stroke-linejoin:miter;stroke-opacity:1"
       d="m 127.40257,174.71157 11.77029,2.58413"
       id="path7441" />
    <path
       style="fill:none;stroke:#000000;stroke-width:0.264583px;stroke-linecap:butt;stroke-linejoin:miter;stroke-opacity:1"
       d="m 53.18748,174.48755 2.881479,-0.24505 -0.533304,0.59496 2.052989,0.20645 1.53199,-1.75322 2.56235,-0.26273 0.308948,-0.51809 1.995361,0.21171 0.467061,-0.59328 2.120913,0.41033 1.169667,-0.4618 1.835346,0.2634 0.584891,-0.63558 0.384368,0.16371 0.710552,0.57157 3.518961,0.28311 0.575267,-1.2621 2.951192,0.67956 1.139679,-0.4862 -0.195262,1.02319 2.399424,0.29922 1.21924,-1.41853 2.098418,-0.20377 1.132853,-0.13864 -0.694661,1.03226 c 0,0 1.938068,0.34789 1.909424,0.22234 -0.02865,-0.12555 0.237112,-0.48843 0.237112,-0.48843 l 1.070636,0.0274 2.136466,0.36031 0.444793,-0.31891 1.111928,0.13081 0.83431,-0.4938 0.905476,0.033 -0.500743,1.02263 2.15504,0.10306 0.476797,-0.5182 1.503011,0.014 0.572357,-0.32887 2.112521,0.45005 2.01315,0.18061 0.71436,-0.11291 0.20432,-0.30637 0.72029,0.0286 -0.12197,0.30571 1.89712,0.52547 1.97723,-0.19772 0.90637,-0.16416"
       id="path7443" />
    <path
       style="fill:none;stroke:#000000;stroke-width:0.264583px;stroke-linecap:butt;stroke-linejoin:miter;stroke-opacity:1"
       d="m 129.5386,201.21716 2.50538,-25.34379"
       id="path7445" />
    <path
       style="fill:none;stroke:#000000;stroke-width:0.264583px;stroke-linecap:butt;stroke-linejoin:miter;stroke-opacity:1"
       d="m 125.01534,201.22381 4.52326,-0.007"
       id="path7447" />
    <path
       style="fill:none;stroke:#000000;stroke-width:0.264583px;stroke-linecap:butt;stroke-linejoin:miter;stroke-opacity:1"
       d="m 125.83799,201.30546 2.87045,-26.39154"
       id="path7449" />
    <path
       style="fill:none;stroke:#000000;stroke-width:0.264583px;stroke-linecap:butt;stroke-linejoin:miter;stroke-opacity:1"
       d="m 127.70167,201.26068 2.44239,-25.87455"
       id="path7451" />
    <path
       style="fill:none;stroke:#000000;stroke-width:0.264583px;stroke-linecap:butt;stroke-linejoin:miter;stroke-opacity:1"
       d="m 131.94919,177.70208 7.19788,0.99284"
       id="path7457" />
    <path
       style="fill:none;stroke:#000000;stroke-width:0.264583px;stroke-linecap:butt;stroke-linejoin:miter;stroke-opacity:1"
       d="m 131.81642,179.46606 7.09581,0.93556"
       id="path7459" />
    <path
       style="fill:none;stroke:#000000;stroke-width:0.264583px;stroke-linecap:butt;stroke-linejoin:miter;stroke-opacity:1"
       d="m 131.50198,181.56094 7.371,0.73664"
       id="path7461" />
    <path
       style="fill:none;stroke:#000000;stroke-width:0.264583px;stroke-linecap:butt;stroke-linejoin:miter;stroke-opacity:1"
       d="m 131.39896,183.00178 7.50251,0.90122"
       id="path7463" />
    <path
       style="fill:none;stroke:#000000;stroke-width:0.264583px;stroke-linecap:butt;stroke-linejoin:miter;stroke-opacity:1"
       d="m 130.97233,184.95456 7.86584,0.73601"
       id="path7465" />
    <path
       style="fill:none;stroke:#000000;stroke-width:0.264583px;stroke-linecap:butt;stroke-linejoin:miter;stroke-opacity:1"
       d="m 130.97027,187.07365 7.70886,1.13558"
       id="path7467" />
    <path
       style="fill:none;stroke:#000000;stroke-width:0.264583px;stroke-linecap:butt;stroke-linejoin:miter;stroke-opacity:1"
       d="m 130.83006,189.44166 7.72231,1.22167"
       id="path7469" />
    <path
       style="fill:none;stroke:#000000;stroke-width:0.264583px;stroke-linecap:butt;stroke-linejoin:miter;stroke-opacity:1"
       d="m 130.32715,191.50014 8.23678,1.30839"
       id="path7471" />
    <path
       style="fill:none;stroke:#000000;stroke-width:0.264583px;stroke-linecap:butt;stroke-linejoin:miter;stroke-opacity:1"
       d="m 130.20103,193.3336 8.18028,2.02968"
       id="path7473" />
    <path
       style="fill:none;stroke:#000000;stroke-width:0.264583px;stroke-linecap:butt;stroke-linejoin:miter;stroke-opacity:1"
       d="m 129.98945,196.04279 8.31321,1.65084"
       id="path7475" />
    <path
       style="fill:none;stroke:#000000;stroke-width:0.264583px;stroke-linecap:butt;stroke-linejoin:miter;stroke-opacity:1"
       d="m 129.52689,198.06235 8.68272,1.85481"
       id="path7477" />
    <path
       style="fill:none;stroke:#000000;stroke-width:0.264583px;stroke-linecap:butt;stroke-linejoin:miter;stroke-opacity:1"
       d="m 129.5386,201.21716 8.59268,1.19936"
       id="path7479" />
    <path
       style="fill:none;stroke:#000000;stroke-width:0.264583px;stroke-linecap:butt;stroke-linejoin:miter;stroke-opacity:1"
       d="m 112.25966,173.11848 15.27942,-24.17719"
       id="path7594" />
    <path
       style="fill:none;stroke:#000000;stroke-width:0.264583px;stroke-linecap:butt;stroke-linejoin:miter;stroke-opacity:1"
       d="M 110.54147,172.73512 125.66245,149.1464"
       id="path7596" />
    <path
       style="fill:none;stroke:#000000;stroke-width:0.264583px;stroke-linecap:butt;stroke-linejoin:miter;stroke-opacity:1"
       d="M 108.6852,172.72265 124.224,148.99668"
       id="path7598" />
    <path
       style="fill:none;stroke:#000000;stroke-width:0.264583px;stroke-linecap:butt;stroke-linejoin:miter;stroke-opacity:1"
       d="m 105.27889,172.97578 c 6.16955,-6.87795 11.44643,-15.28093 16.64809,-23.81242"
       id="path7600"
       sodipodi:nodetypes="cc" />
    <path
       style="fill:none;stroke:#000000;stroke-width:0.264583px;stroke-linecap:butt;stroke-linejoin:miter;stroke-opacity:1"
       d="M 54.073284,174.64458 75.119076,149.17942"
       id="path7799" />
    <path
       style="fill:none;stroke:#000000;stroke-width:0.264583px;stroke-linecap:butt;stroke-linejoin:miter;stroke-opacity:1"
       d="M 56.068959,174.2425 76.870083,149.19065"
       id="path7891" />
    <path
       style="fill:none;stroke:#000000;stroke-width:0.264583px;stroke-linecap:butt;stroke-linejoin:miter;stroke-opacity:1"
       d="M 59.120634,173.29069 78.406346,149.38514"
       id="path7893" />
    <path
       style="fill:none;stroke:#000000;stroke-width:0.264583px;stroke-linecap:butt;stroke-linejoin:miter;stroke-opacity:1"
       d="M 61.991932,172.50987 80.444257,149.47629"
       id="path7895" />
    <path
       style="fill:none;stroke:#000000;stroke-width:0.264583px;stroke-linecap:butt;stroke-linejoin:miter;stroke-opacity:1"
       d="M 64.454354,172.1283 82.191309,149.50446"
       id="path7897" />
    <path
       style="fill:none;stroke:#000000;stroke-width:0.264583px;stroke-linecap:butt;stroke-linejoin:miter;stroke-opacity:1"
       d="M 66.575267,172.53863 83.829802,149.53658"
       id="path7899" />
    <path
       style="fill:none;stroke:#000000;stroke-width:0.264583px;stroke-linecap:butt;stroke-linejoin:miter;stroke-opacity:1"
       d="M 69.58028,172.34023 85.621319,149.44401"
       id="path7901" />
    <path
       style="fill:none;stroke:#000000;stroke-width:0.264583px;stroke-linecap:butt;stroke-linejoin:miter;stroke-opacity:1"
       d="m 71.260091,172.43993 16.045613,-22.91"
       id="path7903" />
    <path
       style="fill:none;stroke:#000000;stroke-width:0.264583px;stroke-linecap:butt;stroke-linejoin:miter;stroke-opacity:1"
       d="M 75.354319,171.46094 91.059173,149.36773"
       id="path7905" />
    <path
       style="fill:none;stroke:#000000;stroke-width:0.264583px;stroke-linecap:butt;stroke-linejoin:miter;stroke-opacity:1"
       d="M 72.966754,172.50223 89.111306,149.47202"
       id="path7907" />
    <path
       style="fill:none;stroke:#000000;stroke-width:0.264583px;stroke-linecap:butt;stroke-linejoin:miter;stroke-opacity:1"
       d="M 92.435925,149.57314 77.188633,171.82509"
       id="path7909" />
    <path
       style="fill:none;stroke:#000000;stroke-width:0.264583px;stroke-linecap:butt;stroke-linejoin:miter;stroke-opacity:1"
       d="m 120.07074,149.21771 -16.04429,23.03564"
       id="path7911" />
    <path
       style="fill:none;stroke:#000000;stroke-width:0.264583px;stroke-linecap:butt;stroke-linejoin:miter;stroke-opacity:1"
       d="m 124.15257,163.76777 -0.29386,-5.24337 1.93513,0.20873 0.46168,5.18837 z"
       id="path7913" />
    <path
       style="fill:none;stroke:#000000;stroke-width:0.264583px;stroke-linecap:butt;stroke-linejoin:miter;stroke-opacity:1"
       d="m 124.15257,163.76777 -0.5234,0.0881 0.10168,1.00456 0.5435,-0.127 0.30035,0.32457 2.20921,0.16734 0.39887,-0.34205 0.2596,0.0382 0.16015,-0.89339 -1.34701,-0.10666"
       id="path7915" />
    <path
       style="fill:none;stroke:#000000;stroke-width:0.264583px;stroke-linecap:butt;stroke-linejoin:miter;stroke-opacity:1"
       d="m 125.79384,158.73313 1.30665,0.0955 -0.0772,-1.27184 -2.6181,0.0102"
       id="path7917" />
    <path
       style="fill:none;stroke:#000000;stroke-width:0.264583px;stroke-linecap:butt;stroke-linejoin:miter;stroke-opacity:1"
       d="m 127.00934,153.59926 12.16352,23.69644"
       id="path8214" />
    <path
       style="fill:none;stroke:#000000;stroke-width:0.264583px;stroke-linecap:butt;stroke-linejoin:miter;stroke-opacity:1"
       d="m 90.75884,172.36965 16.35173,-23.11471"
       id="path8216" />
    <path
       style="fill:none;stroke:#000000;stroke-width:0.264583px;stroke-linecap:butt;stroke-linejoin:miter;stroke-opacity:1"
       d="m 92.315561,172.18155 c 6.338932,-7.2768 11.807349,-14.91754 16.538489,-22.86652"
       id="path8218"
       sodipodi:nodetypes="cc" />
    <path
       style="fill:none;stroke:#000000;stroke-width:0.264583px;stroke-linecap:butt;stroke-linejoin:miter;stroke-opacity:1"
       d="m 94.055347,171.72075 c 5.704549,-7.18981 11.853243,-13.75559 16.561993,-22.34452"
       id="path8310"
       sodipodi:nodetypes="cc" />
    <path
       style="fill:none;stroke:#000000;stroke-width:0.264583px;stroke-linecap:butt;stroke-linejoin:miter;stroke-opacity:1"
       d="m 96.186439,172.32824 c 6.241261,-7.53996 12.380341,-15.10062 16.402981,-23.08986"
       id="path8402"
       sodipodi:nodetypes="cc" />
    <path
       style="fill:none;stroke:#000000;stroke-width:0.264583px;stroke-linecap:butt;stroke-linejoin:miter;stroke-opacity:1"
       d="m 98.261809,172.01337 c 6.405251,-7.21266 11.746971,-14.82296 16.163641,-22.77913"
       id="path8532"
       sodipodi:nodetypes="cc" />
    <path
       style="fill:none;stroke:#000000;stroke-width:0.264583px;stroke-linecap:butt;stroke-linejoin:miter;stroke-opacity:1"
       d="m 116.30969,149.28403 c -4.99044,8.06047 -10.25598,15.83499 -15.93536,23.17939"
       id="path8662"
       sodipodi:nodetypes="cc" />
    <path
       style="fill:none;stroke:#000000;stroke-width:0.264583px;stroke-linecap:butt;stroke-linejoin:miter;stroke-opacity:1"
       d="m 103.30616,172.22475 c 5.25189,-7.75141 10.5088,-15.50382 15.01646,-23.10621"
       id="path8792"
       sodipodi:nodetypes="cc" />
    <path
       style="fill:none;stroke:#000000;stroke-width:0.264583px;stroke-linecap:butt;stroke-linejoin:miter;stroke-opacity:1"
       d="M 79.44519,171.6543 94.37762,149.47004"
       id="path9002" />
    <path
       style="fill:none;stroke:#000000;stroke-width:0.264583px;stroke-linecap:butt;stroke-linejoin:miter;stroke-opacity:1"
       d="m 97.914451,149.52075 c -5.620915,8.19958 -10.911608,16.66345 -18.664523,23.15674"
       id="path9004"
       sodipodi:nodetypes="cc" />
    <path
       style="fill:none;stroke:#000000;stroke-width:0.264583px;stroke-linecap:butt;stroke-linejoin:miter;stroke-opacity:1"
       d="m 99.626607,149.42589 c -4.737001,7.83679 -10.913355,14.89481 -16.758015,22.13229"
       id="path9134"
       sodipodi:nodetypes="cc" />
    <path
       style="fill:none;stroke:#000000;stroke-width:0.264583px;stroke-linecap:butt;stroke-linejoin:miter;stroke-opacity:1"
       d="M 103.2007,149.3614 87.551738,171.98194"
       id="path9342" />
    <path
       style="fill:none;stroke:#000000;stroke-width:0.264583px;stroke-linecap:butt;stroke-linejoin:miter;stroke-opacity:1"
       d="M 105.02989,149.3038 89.477492,172.09696"
       id="path9344" />
    <path
       style="fill:none;stroke:#000000;stroke-width:0.264583px;stroke-linecap:butt;stroke-linejoin:miter;stroke-opacity:1"
       d="M 86.099863,171.21577 101.46726,149.44749"
       id="path9346" />
    <path
       style="fill:none;stroke:#000000;stroke-width:0.264583px;stroke-linecap:butt;stroke-linejoin:miter;stroke-opacity:1"
       d="m 58.520271,175.21483 0.124857,-1.34645"
       id="path9348" />
    <path
       style="fill:none;stroke:#000000;stroke-width:0.264583px;stroke-linecap:butt;stroke-linejoin:miter;stroke-opacity:1"
       d="m 105.27889,172.97578 -46.782199,1.30183"
       id="path9350" />
    <path
       style="fill:none;stroke:#000000;stroke-width:0.264583px;stroke-linecap:butt;stroke-linejoin:miter;stroke-opacity:1"
       d="m 131.94903,163.21793 5.50542,-0.38169"
       id="path9352" />
    <path
       style="fill:none;stroke:#000000;stroke-width:0.264583px;stroke-linecap:butt;stroke-linejoin:miter;stroke-opacity:1"
       d="m 132.57181,164.5594 5.42361,-0.62089"
       id="path9354" />
    <path
       style="fill:none;stroke:#000000;stroke-width:0.264583px;stroke-linecap:butt;stroke-linejoin:miter;stroke-opacity:1"
       d="m 128.01816,151.79469 5.34671,11.34428"
       id="path9356" />
    <path
       style="fill:none;stroke:#000000;stroke-width:0.264583px;stroke-linecap:butt;stroke-linejoin:miter;stroke-opacity:1"
       d="m 135.49171,162.9899 -6.52865,-13.10431"
       id="path9358" />
    <path
       style="fill:none;stroke:#000000;stroke-width:0.264583px;stroke-linecap:butt;stroke-linejoin:miter;stroke-opacity:1"
       d="m 133.88629,164.36412 6.79443,12.99599"
       id="path9360" />
    <path
       style="fill:none;stroke:#000000;stroke-width:0.264583px;stroke-linecap:butt;stroke-linejoin:miter;stroke-opacity:1"
       d="m 142.64101,177.48979 -6.70035,-13.35734"
       id="path9362" />
    <path
       style="fill:none;stroke:#000000;stroke-width:0.264583px;stroke-linecap:butt;stroke-linejoin:miter;stroke-opacity:1"
       d="m 119.06769,166.10286 0.2043,6.31645"
       id="path9364" />
    <path
       style="fill:none;stroke:#000000;stroke-width:0.264583px;stroke-linecap:butt;stroke-linejoin:miter;stroke-opacity:1"
       d="m 121.85079,172.71199 -1.26099,-9.15707"
       id="path9366" />
    <path
       style="fill:none;stroke:#000000;stroke-width:0.264583px;stroke-linecap:butt;stroke-linejoin:miter;stroke-opacity:1"
       d="m 123.83054,172.90655 -1.04,-12.74469"
       id="path9368" />
    <path
       style="fill:none;stroke:#000000;stroke-width:0.264583px;stroke-linecap:butt;stroke-linejoin:miter;stroke-opacity:1"
       d="m 129.18508,158.13353 c 0.54585,5.47913 0.89336,10.95826 1.97279,16.43739"
       id="path9370"
       sodipodi:nodetypes="cc" />
    <path
       style="fill:none;stroke:#000000;stroke-width:0.264583px;stroke-linecap:butt;stroke-linejoin:miter;stroke-opacity:1"
       d="m 131.90614,174.34993 -2.03443,-15.10036"
       id="path9500" />
    <path
       style="fill:none;stroke:#000000;stroke-width:0.264583px;stroke-linecap:butt;stroke-linejoin:miter;stroke-opacity:1"
       d="M 125.67674,173.23167 124.5747,165.058"
       id="path9502" />
    <path
       style="fill:none;stroke:#000000;stroke-width:0.264583px;stroke-linecap:butt;stroke-linejoin:miter;stroke-opacity:1"
       d="m 138.33921,175.65325 -11.35124,-2.10406"
       id="path9504" />
    <path
       style="fill:none;stroke:#000000;stroke-width:0.264583px;stroke-linecap:butt;stroke-linejoin:miter;stroke-opacity:1"
       d="m 133.25299,166.177 0.87866,8.61626"
       id="path9506" />
    <path
       style="fill:none;stroke:#000000;stroke-width:0.264583px;stroke-linecap:butt;stroke-linejoin:miter;stroke-opacity:1"
       d="m 132.60876,174.5259 -1.1018,-12.18782"
       id="path9508" />
    <path
       style="fill:none;stroke:#000000;stroke-width:0.264583px;stroke-linecap:butt;stroke-linejoin:miter;stroke-opacity:1"
       d="m 135.10938,174.99645 -0.59959,-6.84634"
       id="path9510" />
    <path
       style="fill:none;stroke:#000000;stroke-width:0.264583px;stroke-linecap:butt;stroke-linejoin:miter;stroke-opacity:1"
       d="m 127.00934,153.59926 1.82843,20.17595"
       id="path9512"
       sodipodi:nodetypes="cc" />
    <path
       style="fill:none;stroke:#000000;stroke-width:0.264583px;stroke-linecap:butt;stroke-linejoin:miter;stroke-opacity:1"
       d="m 126.98797,173.54919 -0.96723,-8.45736"
       id="path9606" />
    <path
       style="fill:none;stroke:#000000;stroke-width:0.264583px;stroke-linecap:butt;stroke-linejoin:miter;stroke-opacity:1"
       d="m 125.63872,155.33927 0.15688,2.15593"
       id="path9608" />
  </g>
</svg>
