<?xml version="1.0" encoding="UTF-8" standalone="no"?>
<!-- Created with Inkscape (http://www.inkscape.org/) -->

<svg
   width="110.56956mm"
   height="110.02578mm"
   viewBox="0 0 110.56956 110.02578"
   version="1.1"
   id="svg5"
   inkscape:version="1.2-dev (2b1b049028, 2021-10-21, custom)"
   sodipodi:docname="dziecku.svg"
   xmlns:inkscape="http://www.inkscape.org/namespaces/inkscape"
   xmlns:sodipodi="http://sodipodi.sourceforge.net/DTD/sodipodi-0.dtd"
   xmlns="http://www.w3.org/2000/svg"
   xmlns:svg="http://www.w3.org/2000/svg">
  <sodipodi:namedview
     id="namedview7"
     pagecolor="#505050"
     bordercolor="#eeeeee"
     borderopacity="1"
     inkscape:pageshadow="0"
     inkscape:pageopacity="0"
     inkscape:pagecheckerboard="0"
     inkscape:blackoutopacity="0.0"
     inkscape:document-units="mm"
     showgrid="false"
     inkscape:zoom="0.66903058"
     inkscape:cx="621.04784"
     inkscape:cy="498.48244"
     inkscape:window-width="1894"
     inkscape:window-height="1024"
     inkscape:window-x="0"
     inkscape:window-y="0"
     inkscape:window-maximized="1"
     inkscape:current-layer="layer4"
     showguides="true"
     fit-margin-top="5"
     lock-margins="true"
     fit-margin-left="5"
     fit-margin-right="5"
     fit-margin-bottom="5" />
  <defs
     id="defs2" />
  <g
     inkscape:groupmode="layer"
     id="layer2"
     inkscape:label="Warstwa 2"
     style="display:inline"
     transform="translate(-18.7713,-30.825593)">
    <path
       style="fill:#b6b5ba;fill-opacity:1;stroke:#000000;stroke-width:0.264583px;stroke-linecap:butt;stroke-linejoin:miter;stroke-opacity:1"
       d="M 23.903698,87.03489 C 24.361981,59.252896 44.643885,36.175899 73.404213,35.957891 104.25781,36.345011 122.93536,58.163111 124.20855,83.789233 124.107,105.81167 112.30759,132.77843 76.221184,135.71626 49.026605,135.97848 26.932206,117.97727 23.903698,87.03489 Z"
       id="path603"
       sodipodi:nodetypes="ccccc" />
    <path
       style="fill:#447546;fill-opacity:1;stroke:#000000;stroke-width:0.264583px;stroke-linecap:butt;stroke-linejoin:miter;stroke-opacity:1"
       d="M 27.435532,87.227605 C 25.542961,70.048805 40.259642,39.305948 74.682161,38.424574 104.6923,39.162534 121.81652,64.556834 121.45144,85.463427 121.79255,108.34273 104.51023,131.00591 73.841395,133.0418 50.15368,132.1472 28.683216,115.3856 27.435532,87.227605 Z"
       id="path14023"
       sodipodi:nodetypes="ccccc" />
  </g>
  <g
     inkscape:groupmode="layer"
     id="layer4"
     inkscape:label="Warstwa 4"
     style="display:inline"
     transform="translate(-18.7713,-30.825593)">
    <path
       style="display:inline;fill:#dcdcd4;fill-opacity:1;stroke:#000000;stroke-width:0.343338px;stroke-linecap:butt;stroke-linejoin:miter;stroke-opacity:1"
       d="m 75.58178,124.49256 c -3.372596,-1.74461 -5.616464,-4.89425 -7.538059,-8.44506 l 0.05983,-4.94264 c 3.25569,-3.36436 3.737951,-7.67685 3.643845,-12.186367 2.496002,1.091817 4.985309,1.487047 7.458681,0.226974 -5.58e-4,4.645473 1.619228,8.520633 3.423684,12.593623 l -0.09538,4.4946 c -1.391581,3.17819 -3.33133,5.83389 -6.952634,8.25887 z"
       id="path59738-3"
       sodipodi:nodetypes="cccccccc" />
    <path
       style="display:inline;fill:#dcdcd4;fill-opacity:1;stroke:#000000;stroke-width:0.343338px;stroke-linecap:butt;stroke-linejoin:miter;stroke-opacity:1"
       d="m 67.692666,95.758098 c -0.642743,7.026312 -3.355986,9.804422 -7.506876,9.632792 -3.751589,-0.19553 -6.069644,-2.06263 -7.975446,-4.41045 -0.41808,3.39206 -1.481224,7.28842 1.228205,9.99815 2.550049,2.71498 5.124677,3.2715 7.700967,3.68301 3.763358,0.13236 5.455436,-1.70549 6.93453,-3.74592 4.023721,-4.1438 3.582895,-8.08663 3.749293,-11.906937 -1.839843,-0.916443 -2.870857,-2.124837 -4.130673,-3.250645 z"
       id="path61451-6"
       sodipodi:nodetypes="cccccccc" />
    <path
       style="display:inline;fill:#dcdcd4;fill-opacity:1;stroke:#000000;stroke-width:0.343338px;stroke-linecap:butt;stroke-linejoin:miter;stroke-opacity:1"
       d="m 79.20682,99.295296 3.648075,-2.288813 c 1.590914,4.041157 3.134982,8.144577 7.608571,8.353967 3.825139,-0.0787 6.297891,-1.9736 8.386563,-4.38414 1.968281,11.00307 -3.5831,12.49152 -9.284491,13.79016 -2.506237,0.18846 -4.743461,-1.22684 -6.824422,-3.57377 -2.261541,-3.59694 -3.351456,-7.59277 -3.534296,-11.897404 z"
       id="path63689-7"
       sodipodi:nodetypes="ccccccc" />
    <path
       style="display:inline;fill:#dcdcd4;fill-opacity:1;stroke:#000000;stroke-width:0.343338px;stroke-linecap:butt;stroke-linejoin:miter;stroke-opacity:1"
       d="m 82.900871,97.081227 c -5.260646,4.084893 -9.966881,3.928583 -14.87306,-1.166463 -0.360488,-0.851898 -0.719382,-2.099243 -0.108744,-3.664607 0.90069,-2.4306 3.632452,-3.811124 7.245594,-3.841009 5.216149,-0.16091 7.88727,1.822531 8.79759,5.524602 0.02426,1.147984 -0.129117,2.233746 -1.061406,3.147477 z"
       id="path64488-5"
       sodipodi:nodetypes="cccccc" />
    <path
       style="display:inline;fill:#dcdcd4;fill-opacity:1;stroke:#000000;stroke-width:0.343338px;stroke-linecap:butt;stroke-linejoin:miter;stroke-opacity:1"
       d="M 67.937118,92.384984 C 66.678417,84.111646 61.785332,81.754219 56.050237,80.767405 50.857991,80.348867 48.633056,86.248641 45.453694,88.247213 40.85785,84.721858 36.979714,80.467812 36.068746,73.201144 35.934685,67.195081 42.561881,62.224188 47.684119,62.268597 c 7.50868,-0.428346 21.319374,7.349275 24.14236,26.636709 -1.638044,0.259272 -3.018997,1.222989 -3.889361,3.479678 z"
       id="path66152-3"
       sodipodi:nodetypes="ccccccc" />
    <path
       style="display:inline;fill:#dcdcd4;fill-opacity:1;stroke:#000000;stroke-width:0.343338px;stroke-linecap:butt;stroke-linejoin:miter;stroke-opacity:1"
       d="m 71.868212,88.844731 c -1.193196,-6.769698 -3.80042,-13.045702 -7.777373,-18.843488 -1.608133,-2.850474 -2.754561,-5.518432 -2.423866,-7.602469 1.048688,-6.89228 3.668578,-13.72584 13.568657,-20.287325 3.914288,0.669563 12.69872,9.757551 13.800549,15.850057 1.023007,3.651875 0.225401,6.850879 0.105238,10.218396 -4.137525,4.136418 -8.101034,8.898512 -10.117657,20.660431 -3.047714,-0.77448 -5.095843,-0.378267 -7.155548,0.0039 z"
       id="path68489-5"
       sodipodi:nodetypes="cccccccc" />
    <path
       style="display:inline;fill:#dcdcd4;fill-opacity:1;stroke:#000000;stroke-width:0.343338px;stroke-linecap:butt;stroke-linejoin:miter;stroke-opacity:1"
       d="m 79.085827,88.865156 c 1.933456,-11.863829 5.992174,-16.330365 10.088488,-20.666003 3.579404,-2.947167 7.2429,-5.820081 13.964265,-5.993341 6.53009,0.773591 11.06961,3.542526 12.08753,9.841482 -0.31468,6.107781 -3.31209,11.54154 -9.74796,16.111405 -3.21201,-2.55816 -5.17482,-7.50292 -11.348441,-7.157008 -8.094752,1.524975 -9.206583,5.793263 -10.956369,10.271604 -1.31864,-0.976616 -2.565648,-2.237172 -4.087513,-2.408139 z"
       id="path71037-6"
       sodipodi:nodetypes="cccccccc" />
  </g>
  <g
     inkscape:groupmode="layer"
     id="layer3"
     inkscape:label="Warstwa 3"
     style="display:inline"
     transform="translate(-18.7713,-30.825593)">
    <path
       style="fill:#f0cb7d;fill-opacity:1;stroke:#000000;stroke-width:0.264583px;stroke-linecap:butt;stroke-linejoin:miter;stroke-opacity:1"
       d="M 67.906217,128.31467 68.550403,99.684222 C 65.621764,92.889417 57.635826,89.264523 59.458394,78.037501 c 2.151157,-3.04752 3.033703,-1.789473 3.431034,1.115356 2.043428,15.576073 21.979151,14.832151 25.506638,1.366002 0.195854,-4.624009 1.799956,-5.165928 3.385076,-2.933219 l 0.06256,5.090319 c -0.861375,4.783654 -7.702575,11.368063 -9.448477,16.068394 l -0.989063,26.691937 c -0.190009,2.30091 -0.09052,4.93227 -2.566903,4.62344 -0.807126,-0.0727 -1.617902,-0.1313 -1.608153,-3.33931 l -0.630463,-16.02663 c -0.320866,-1.74031 0.02293,-4.37066 -1.653836,-4.90229 -1.354108,0.18199 -1.781102,3.46817 -1.838717,5.53507 l -0.889717,14.28188 c 0.04937,2.05355 0.338648,4.52589 -2.335373,4.55691 -0.951749,-0.1774 -2.096472,-0.0652 -1.976784,-1.85069 z"
       id="path16632"
       sodipodi:nodetypes="cccccccccccccccccc" />
    <path
       style="fill:#f0cb7d;fill-opacity:1;stroke:#000000;stroke-width:0.264583px;stroke-linecap:butt;stroke-linejoin:miter;stroke-opacity:1"
       d="m 70.318381,85.417754 c 0.432273,-3.476964 2.866562,-5.010093 4.903797,-4.988621 3.327088,0.151611 5.45429,2.513527 5.183061,5.273046 -0.166818,2.718103 -2.090835,4.521209 -4.952439,4.694234 -3.19174,-0.02 -4.992024,-2.199674 -5.134419,-4.978659 z"
       id="path23360"
       sodipodi:nodetypes="ccccc" />
  </g>
</svg>
