<?xml version="1.0" encoding="UTF-8" standalone="no"?>
<svg
   version="1.1"
   width="128.839"
   height="128.839"
   id="svg122"
   sodipodi:docname="folder.svg"
   inkscape:version="1.2.1 (9c6d41e410, 2022-07-14, custom)"
   xmlns:inkscape="http://www.inkscape.org/namespaces/inkscape"
   xmlns:sodipodi="http://sodipodi.sourceforge.net/DTD/sodipodi-0.dtd"
   xmlns="http://www.w3.org/2000/svg"
   xmlns:svg="http://www.w3.org/2000/svg">
  <defs
     id="defs126" />
  <sodipodi:namedview
     id="namedview124"
     pagecolor="#505050"
     bordercolor="#eeeeee"
     borderopacity="1"
     inkscape:showpageshadow="0"
     inkscape:pageopacity="0"
     inkscape:pagecheckerboard="0"
     inkscape:deskcolor="#505050"
     showgrid="false"
     inkscape:zoom="8.6097322"
     inkscape:cx="51.221106"
     inkscape:cy="69.514358"
     inkscape:window-width="1920"
     inkscape:window-height="1047"
     inkscape:window-x="0"
     inkscape:window-y="33"
     inkscape:window-maximized="1"
     inkscape:current-layer="svg122" />
  <path
     d="m 9.991323,100.97817 c -2.15,0 -3.9775,-0.7525 -5.4825,-2.2575 -1.505,-1.505 -2.2575,-3.3325 -2.2575,-5.4825 v -63.5325 c 0,-2.15 0.91375,-4.13875 2.74125,-5.96625 1.8275,-1.8275 3.81625,-2.74125 5.96625,-2.74125 h 41.925 l 5.4825,5.4825 h 47.407497 c 1.505,0 2.87562,0.3225 4.11187,0.9675 1.23625,0.645 2.28438,-0.495 3.14438,0.58 H 56.915073 l -5.4825,-5.4825 h -40.47375 c -1.505,0 -2.74125,0.48375 -3.70875,1.45125 -0.9675,0.9675 -3.45125,4.20375 -3.45125,5.70875 v 62.565 c 0,1.1825 0.295625,4.15 0.886875,4.9025 0.59125,0.7525 3.370625,1.3975 4.338125,1.935 l 15.64125,-57.1475 H 128.18757 l -15.97703,53.37375 c -0.5375,1.8275 -0.65859,3.225 -2.00234,4.1925 -1.34375,0.9675 -2.98313,1.45125 -4.91813,1.45125 z m 0.74125,-1.5475 H 108.83757 L 126.1728,43.50817 H 25.245073 Z m 0,0 14.5125,-55.9225 z m -6.93375,-69.4025 v -0.3225 l 2,-3.70875 v -1.45125 z"
     id="path205"
     sodipodi:nodetypes="ssssssccsscccsssssccccsssccccccccccccc" />
</svg>
