<?xml version="1.0" encoding="UTF-8" standalone="no"?>
<svg
   width="172.86177mm"
   height="173.13734mm"
   viewBox="0 0 172.86177 173.13734"
   version="1.1"
   id="svg5"
   inkscape:version="1.1-dev (2afca83fab, 2021-01-02, custom)"
   sodipodi:docname="fse.svg"
   xmlns:inkscape="http://www.inkscape.org/namespaces/inkscape"
   xmlns:sodipodi="http://sodipodi.sourceforge.net/DTD/sodipodi-0.dtd"
   xmlns="http://www.w3.org/2000/svg"
   xmlns:svg="http://www.w3.org/2000/svg">
  <sodipodi:namedview
     id="namedview7"
     pagecolor="#ffffff"
     bordercolor="#666666"
     borderopacity="1.0"
     objecttolerance="10.0"
     gridtolerance="10.0"
     guidetolerance="10.0"
     inkscape:pageshadow="2"
     inkscape:pageopacity="0.0"
     inkscape:pagecheckerboard="false"
     inkscape:document-units="mm"
     showgrid="false"
     inkscape:zoom="0.81890664"
     inkscape:cx="116.61891"
     inkscape:cy="201.48817"
     inkscape:window-width="1920"
     inkscape:window-height="1044"
     inkscape:window-x="0"
     inkscape:window-y="36"
     inkscape:window-maximized="1"
     inkscape:current-layer="layer3"
     fit-margin-top="10"
     fit-margin-left="10"
     fit-margin-right="10"
     fit-margin-bottom="10"
     lock-margins="true" />
  <defs
     id="defs2" />
  <g
     inkscape:groupmode="layer"
     id="layer2"
     inkscape:label="Warstwa 2"
     style="display:inline;opacity:1"
     transform="translate(-33.655882,-66.77292)">
    <path
       style="font-variation-settings:normal;opacity:1;vector-effect:none;fill:#ab2328;fill-opacity:1;stroke:none;stroke-width:0.264583px;stroke-linecap:butt;stroke-linejoin:miter;stroke-miterlimit:4;stroke-dasharray:none;stroke-dashoffset:0;stroke-opacity:1;stop-color:#000000;stop-opacity:1"
       d="m 101.61269,229.91026 c 2.74063,-20.65962 5.44355,-41.09644 5.43685,-62.85436 -21.873192,0.67932 -43.873224,1.52709 -63.393658,5.24791 6.707016,-12.37514 12.800577,-15.15834 18.939761,-18.65488 -8.427942,-5.09117 -14.989004,-11.3355 -18.90903,-19.21116 19.224813,2.77425 39.376745,5.05167 63.193707,5.36501 -0.16644,-21.65654 -2.43215,-42.40335 -4.97546,-63.02986 9.61573,5.291471 14.57714,11.904483 18.48252,18.817341 5.16833,-9.856294 11.69774,-14.790591 18.58824,-18.419111 -3.58925,20.59037 -4.21077,41.66971 -5.25607,62.67922 21.36277,0.066 41.92368,-2.77185 62.73059,-4.71884 -2.17098,5.18798 -9.97991,14.76769 -18.24909,18.26646 9.70036,4.36875 15.77845,13.38685 18.3166,18.44526 -20.78739,-2.55312 -41.81121,-5.28727 -62.80552,-4.88889 0.89374,21.26852 2.45191,42.2597 4.92688,62.81158 -7.10866,-4.78129 -14.02653,-9.81964 -18.2526,-18.48504 -5.19404,8.57618 -10.94056,15.76672 -18.77372,18.62936 z"
       id="path55"
       sodipodi:nodetypes="ccccccccccccccccc" />
  </g>
  <g
     inkscape:groupmode="layer"
     id="layer3"
     inkscape:label="Warstwa 3"
     style="display:inline"
     transform="translate(-33.655882,-66.77292)">
    <path
       style="font-variation-settings:normal;opacity:1;vector-effect:none;fill:#efbe7d;fill-opacity:1;stroke:none;stroke-width:0.264583px;stroke-linecap:butt;stroke-linejoin:miter;stroke-miterlimit:4;stroke-dasharray:none;stroke-dashoffset:0;stroke-opacity:1;stop-color:#000000;stop-opacity:1"
       d="m 120.45877,191.57665 -8.96482,-8.6094 4.42134,-6.94067 -8.09645,-0.25859 v -3.74489 c 5.20196,-1.42621 8.84368,-19.28637 -1.12388,-20.16005 -8.804361,0.2435 -9.354894,9.27265 -2.82502,13.00557 -15.326214,0.81404 -14.564968,-13.00181 -13.786185,-15.08525 2.203074,-3.75546 4.523884,-7.50362 11.788915,-8.10408 1.96517,0.16678 9.37367,0.44473 13.86765,15.55539 0.91509,5.42695 0.32445,10.41745 -1.96567,14.91535 l 3.48281,0.20597 c 4.64136,-21.25749 -21.115451,-50.71042 3.1436,-64.99927 15.44467,9.16065 9.69709,23.65364 8.90186,28.69727 l -6.17729,23.96407 c -0.8025,4.22473 -0.28622,8.28201 0.50111,12.30488 l 3.63979,0.0138 c -1.68494,-5.39926 -4.34471,-10.28069 -1.53744,-18.06619 2.29282,-5.6605 5.3419,-10.75212 13.07042,-12.32373 9.13091,-0.21934 10.09799,4.95818 11.59534,9.78516 0.0509,9.61601 -4.68911,13.58849 -13.37294,12.91543 7.41801,-3.54877 3.92688,-15.01977 -2.94807,-12.58105 -8.52701,1.86323 -8.42494,12.66333 -1.57031,20.44 l -0.15759,3.07852 -7.58304,0.37646 4.32188,7.00432 z"
       id="path19529"
       sodipodi:nodetypes="ccccccccccccccccccccccccccc" />
  </g>
  <g
     inkscape:groupmode="layer"
     id="layer4"
     inkscape:label="Warstwa 4"
     style="display:inline"
     transform="translate(-33.655882,-66.77292)">
    <path
       style="font-variation-settings:normal;display:inline;vector-effect:none;fill:#e59e6d;fill-opacity:1;stroke:none;stroke-width:0.264583px;stroke-linecap:butt;stroke-linejoin:miter;stroke-miterlimit:4;stroke-dasharray:none;stroke-dashoffset:0;stroke-opacity:1;stop-color:#000000"
       d="m 120.31733,191.6476 c -0.32815,-7.16796 -0.15483,-54.38707 0.3018,-84.19922 15.44467,9.16065 9.69709,23.65364 8.90186,28.69727 l -6.17729,23.96407 c -0.8025,4.22473 -0.28622,8.28201 0.50111,12.30488 l 3.63979,0.0138 c -1.68494,-5.39926 -4.34471,-10.28069 -1.53744,-18.06619 2.29282,-5.6605 5.3419,-10.75212 13.07042,-12.32373 9.13091,-0.21934 10.09799,4.95818 11.59534,9.78516 0.0509,9.61601 -4.68911,13.58849 -13.37294,12.91543 7.41801,-3.54877 3.92688,-15.01977 -2.94807,-12.58105 -8.52701,1.86323 -8.42494,12.66333 -1.57031,20.44 l -0.15759,3.07852 -7.58304,0.37646 4.32188,7.00432 z"
       id="path19529-3"
       sodipodi:nodetypes="cccccccccccccccc" />
  </g>
</svg>
