<?xml version="1.0" encoding="UTF-8" standalone="no"?>
<!-- Created with Inkscape (http://www.inkscape.org/) -->

<svg
   width="195.37624mm"
   height="195.37624mm"
   viewBox="0 0 195.37624 195.37624"
   version="1.1"
   id="svg5"
   inkscape:version="1.2-dev (5f01de93b4, 2021-08-06, custom)"
   sodipodi:docname="gitara.svg"
   xmlns:inkscape="http://www.inkscape.org/namespaces/inkscape"
   xmlns:sodipodi="http://sodipodi.sourceforge.net/DTD/sodipodi-0.dtd"
   xmlns="http://www.w3.org/2000/svg"
   xmlns:svg="http://www.w3.org/2000/svg">
  <sodipodi:namedview
     id="namedview7"
     pagecolor="#505050"
     bordercolor="#eeeeee"
     borderopacity="1"
     inkscape:pageshadow="0"
     inkscape:pageopacity="0"
     inkscape:pagecheckerboard="0"
     inkscape:document-units="mm"
     showgrid="false"
     inkscape:zoom="0.96504998"
     inkscape:cx="292.73095"
     inkscape:cy="397.90685"
     inkscape:window-width="1890"
     inkscape:window-height="1029"
     inkscape:window-x="0"
     inkscape:window-y="0"
     inkscape:window-maximized="1"
     inkscape:current-layer="layer2"
     showguides="true"
     fit-margin-top="10"
     lock-margins="true"
     fit-margin-left="10"
     fit-margin-right="10"
     fit-margin-bottom="10"
     height="195.37624mm" />
  <defs
     id="defs2" />
  <g
     inkscape:groupmode="layer"
     id="layer2"
     inkscape:label="Warstwa 2"
     style="display:inline"
     transform="translate(-39.239488,-58.629017)">
    <path
       style="fill:none;stroke:#000000;stroke-width:0.8;stroke-linecap:butt;stroke-linejoin:miter;stroke-miterlimit:4;stroke-dasharray:none;stroke-opacity:1"
       d="m 92.266574,233.79196 c 10.942096,5.54776 19.782326,6.20307 27.330476,3.85087 6.10902,-2.75106 8.74367,-7.05596 9.73001,-12.09802 0.22255,-13.86774 0.26834,-13.67553 8.28127,-19.42744 5.83353,-3.43373 10.95775,-7.25934 10.1281,-14.37421 l -2.21322,-10.63903 -4.41864,-6.09338 35.63307,-47.86712 c 1.1046,-3.27521 3.31664,-4.88672 5.75513,-6.15804 l 17.01228,-24.162581 c -1.69532,-1.687177 -3.09899,-3.259946 -3.40696,-5.857501 0.16601,-3.391521 -1.991,-3.06078 -4.98487,-2.444811 -1.47179,-0.48412 -3.47504,-1.075233 -4.42105,-1.962625 -1.88329,0.827152 -2.8358,2.573397 -3.8005,4.307613 l -12.5691,22.027275 c 0.56458,4.16274 -1.62606,7.25846 -3.42188,10.50708 l -31.74921,41.39304 c -1.75116,-0.30213 -3.02953,1.71667 -4.43971,3.08827 -8.80691,-4.04525 -17.61912,-9.48125 -26.37938,-1.28358 -4.489343,4.54094 -6.327894,10.0417 -6.338057,16.25016 -2.55882,2.02753 -5.811867,3.9317 -10.374611,5.6032 -6.186537,2.70702 -12.110132,6.03464 -15.26885,15.88821 -4.071782,6.3614 -3.263015,11.72409 0.256327,16.53213 4.704515,5.0324 11.628579,9.19363 19.659375,12.92049 z"
       id="path900"
       sodipodi:nodetypes="cccccccccccccccccccccccc" />
    <path
       style="fill:none;stroke:#000000;stroke-width:0.8;stroke-linecap:butt;stroke-linejoin:miter;stroke-miterlimit:4;stroke-dasharray:none;stroke-opacity:1"
       d="m 73.202971,202.0775 c 3.041183,-5.28305 8.047422,-9.15779 13.665855,-11.47815 10.613862,-3.11482 11.095429,-4.57199 11.898665,-10.04968"
       id="path7427"
       sodipodi:nodetypes="ccc" />
    <path
       style="fill:none;stroke:#000000;stroke-width:0.8;stroke-linecap:butt;stroke-linejoin:miter;stroke-miterlimit:4;stroke-dasharray:none;stroke-opacity:1"
       d="M 98.767491,180.54967 C 107.02375,154.86989 121.39286,165.57516 131.3524,169.9602"
       id="path8219"
       sodipodi:nodetypes="cc" />
    <path
       style="fill:none;stroke:#000000;stroke-width:0.8;stroke-linecap:butt;stroke-linejoin:miter;stroke-miterlimit:4;stroke-dasharray:none;stroke-opacity:1"
       d="m 139.27034,177.0049 c 4.2518,3.06323 5.68928,4.54149 7.37197,9.54301"
       id="path8628"
       sodipodi:nodetypes="cc" />
    <path
       style="fill:none;stroke:#000000;stroke-width:0.8;stroke-linecap:butt;stroke-linejoin:miter;stroke-miterlimit:4;stroke-dasharray:none;stroke-opacity:1"
       d="m 86.901329,213.10914 7.573052,3.8602 -0.425789,0.87102 11.712428,5.79105 0.58907,-0.68613 6.55634,3.27021 2.74821,-3.24798 -26.579765,-13.4068 z"
       id="path8942" />
    <path
       style="fill:none;stroke:#000000;stroke-width:0.8;stroke-linecap:butt;stroke-linejoin:miter;stroke-miterlimit:4;stroke-dasharray:none;stroke-opacity:1"
       d="m 115.18649,191.05162 c -4.61259,0.99393 -6.66547,4.91658 -4.82103,8.31106 1.03279,2.08006 2.89832,3.32795 5.70227,3.75821 3.20547,0.64782 4.79358,-0.32727 6.46156,-1.38852 1.43169,-1.58446 2.88967,-3.70559 1.47672,-6.38662 -2.01079,-3.55257 -6.33544,-4.60437 -8.81952,-4.29413 z"
       id="path8955"
       sodipodi:nodetypes="cccccc" />
    <path
       style="fill:none;stroke:#000000;stroke-width:0.8;stroke-linecap:butt;stroke-linejoin:miter;stroke-miterlimit:4;stroke-dasharray:none;stroke-opacity:1"
       d="M 115.18649,191.05162 135.15961,164.7894"
       id="path11671"
       sodipodi:nodetypes="cc" />
    <path
       style="fill:none;stroke:#000000;stroke-width:0.8;stroke-linecap:butt;stroke-linejoin:miter;stroke-miterlimit:4;stroke-dasharray:none;stroke-opacity:1"
       d="M 124.65519,196.66429 141.13063,174.9354"
       id="path12087" />
    <path
       style="fill:none;stroke:#000000;stroke-width:0.8;stroke-linecap:butt;stroke-linejoin:miter;stroke-miterlimit:4;stroke-dasharray:none;stroke-opacity:1"
       d="m 167.27417,123.02755 c 1.32798,-3.00558 3.61254,-3.90977 3.94223,-9.10776 l 15.15441,-27.028362"
       id="path12643"
       sodipodi:nodetypes="ccc" />
    <path
       style="fill:none;stroke:#000000;stroke-width:0.8;stroke-linecap:butt;stroke-linejoin:miter;stroke-miterlimit:4;stroke-dasharray:none;stroke-opacity:1"
       d="m 173.23489,114.06538 c 3.53219,-6.76823 7.25811,-13.42017 11.23245,-19.923008 1.07006,-1.410607 3.41615,-0.07439 2.92076,1.697925 l -11.32015,19.683263 c -1.67406,0.96236 -2.79559,0.828 -2.83306,-1.45818 z"
       id="path13506"
       sodipodi:nodetypes="ccccc" />
    <path
       style="fill:none;stroke:#000000;stroke-width:0.8;stroke-linecap:butt;stroke-linejoin:miter;stroke-miterlimit:4;stroke-dasharray:none;stroke-opacity:1"
       d="m 178.93744,117.4298 12.44264,-17.655452 c 1.40042,-1.727044 3.54502,-0.354147 2.74309,1.551192 l -12.40425,17.73877 c -1.41064,1.74636 -3.94552,0.493 -2.78148,-1.63451 z"
       id="path16520"
       sodipodi:nodetypes="ccccc" />
    <path
       style="fill:none;fill-rule:nonzero;stroke:#000000;stroke-width:0.5;stroke-linecap:butt;stroke-linejoin:miter;stroke-miterlimit:4;stroke-dasharray:none;stroke-opacity:1"
       d="m 96.124484,218.90234 1.330193,-2.17153 0.641242,0.0261 71.933911,-95.49373 3.78012,-5.41463"
       id="path20398" />
    <path
       style="fill:none;fill-rule:nonzero;stroke:#000000;stroke-width:0.5;stroke-linecap:butt;stroke-linejoin:miter;stroke-miterlimit:4;stroke-dasharray:none;stroke-opacity:1"
       d="m 175.12191,116.08427 -3.94481,6.63715 -71.742804,94.88936 -0.777626,0.15286 -1.066518,1.77078"
       id="path20400" />
    <path
       style="fill:none;fill-rule:nonzero;stroke:#000000;stroke-width:0.5;stroke-linecap:butt;stroke-linejoin:miter;stroke-miterlimit:4;stroke-dasharray:none;stroke-opacity:1"
       d="m 99.148147,220.43231 1.285453,-1.93267 0.76419,-0.24824 71.36668,-94.80475 6.04315,-12.23742"
       id="path20402" />
    <path
       style="fill:none;fill-rule:nonzero;stroke:#000000;stroke-width:0.5;stroke-linecap:butt;stroke-linejoin:miter;stroke-miterlimit:4;stroke-dasharray:none;stroke-opacity:1"
       d="m 178.86611,117.42931 -5.37055,7.50444 -70.72589,94.00645 -0.78619,0.54502 -1.21305,1.81714"
       id="path20404" />
    <path
       style="fill:none;fill-rule:nonzero;stroke:#000000;stroke-width:0.5;stroke-linecap:butt;stroke-linejoin:miter;stroke-miterlimit:4;stroke-dasharray:none;stroke-opacity:1"
       d="m 102.49641,221.89059 1.20725,-1.77473 1.09831,-0.96693 70.1112,-93.20843 4.06009,-6.56468"
       id="path20406" />
  </g>
</svg>
