<?xml version="1.0" encoding="UTF-8" standalone="no"?>
<!-- Created with Inkscape (http://www.inkscape.org/) -->

<svg
   width="110.56956mm"
   height="110.02578mm"
   viewBox="0 0 110.56956 110.02578"
   version="1.1"
   id="svg5"
   inkscape:version="1.2-dev (2b1b049028, 2021-10-21, custom)"
   sodipodi:docname="gospodarce.svg"
   xmlns:inkscape="http://www.inkscape.org/namespaces/inkscape"
   xmlns:sodipodi="http://sodipodi.sourceforge.net/DTD/sodipodi-0.dtd"
   xmlns="http://www.w3.org/2000/svg"
   xmlns:svg="http://www.w3.org/2000/svg">
  <sodipodi:namedview
     id="namedview7"
     pagecolor="#505050"
     bordercolor="#eeeeee"
     borderopacity="1"
     inkscape:pageshadow="0"
     inkscape:pageopacity="0"
     inkscape:pagecheckerboard="0"
     inkscape:blackoutopacity="0.0"
     inkscape:document-units="mm"
     showgrid="false"
     inkscape:zoom="0.47307606"
     inkscape:cx="245.2037"
     inkscape:cy="277.96799"
     inkscape:window-width="1894"
     inkscape:window-height="1024"
     inkscape:window-x="0"
     inkscape:window-y="0"
     inkscape:window-maximized="1"
     inkscape:current-layer="layer2"
     showguides="true"
     fit-margin-top="5"
     lock-margins="true"
     fit-margin-left="5"
     fit-margin-right="5"
     fit-margin-bottom="5" />
  <defs
     id="defs2" />
  <g
     inkscape:groupmode="layer"
     id="layer2"
     inkscape:label="Warstwa 2"
     style="display:inline"
     sodipodi:insensitive="true"
     transform="translate(-18.7713,-30.825593)">
    <path
       style="fill:#b6b5ba;fill-opacity:1;stroke:#000000;stroke-width:0.264583px;stroke-linecap:butt;stroke-linejoin:miter;stroke-opacity:1"
       d="M 23.903698,87.03489 C 24.361981,59.252896 44.643885,36.175899 73.404213,35.957891 104.25781,36.345011 122.93536,58.163111 124.20855,83.789233 124.107,105.81167 112.30759,132.77843 76.221184,135.71626 49.026605,135.97848 26.932206,117.97727 23.903698,87.03489 Z"
       id="path603"
       sodipodi:nodetypes="ccccc" />
    <path
       style="fill:#447546;fill-opacity:1;stroke:#000000;stroke-width:0.264583px;stroke-linecap:butt;stroke-linejoin:miter;stroke-opacity:1"
       d="M 27.435532,87.227605 C 25.542961,70.048805 40.259642,39.305948 74.682161,38.424574 104.6923,39.162534 121.81652,64.556834 121.45144,85.463427 121.79255,108.34273 104.51023,131.00591 73.841395,133.0418 50.15368,132.1472 28.683216,115.3856 27.435532,87.227605 Z"
       id="path14023"
       sodipodi:nodetypes="ccccc" />
  </g>
  <g
     inkscape:groupmode="layer"
     id="layer4"
     inkscape:label="Warstwa 4"
     style="display:inline"
     transform="translate(-18.7713,-30.825593)">
    <path
       style="display:inline;fill:#dcdcd4;fill-opacity:1;stroke:#000000;stroke-width:0.251095px;stroke-linecap:butt;stroke-linejoin:miter;stroke-opacity:1"
       d="m 87.650584,108.16042 c -2.466498,-1.2759 -4.107516,-3.57934 -5.512846,-6.1762 l 0.04375,-3.614723 c 2.380998,-2.460474 2.733692,-5.614347 2.66487,-8.912313 1.825412,0.798484 3.645929,1.087528 5.454792,0.165993 -4.08e-4,3.397396 1.184198,6.231435 2.503859,9.210155 l -0.06976,3.287058 c -1.017712,2.32434 -2.436317,4.26654 -5.084704,6.04003 z"
       id="path59738-3"
       sodipodi:nodetypes="cccccccc" />
    <path
       style="display:inline;fill:#dcdcd4;fill-opacity:1;stroke:#000000;stroke-width:0.251095px;stroke-linecap:butt;stroke-linejoin:miter;stroke-opacity:1"
       d="m 81.880999,87.145877 c -0.470059,5.138586 -2.454348,7.170314 -5.490037,7.044795 -2.743669,-0.142998 -4.438943,-1.508473 -5.832721,-3.225515 -0.305757,2.480732 -1.083272,5.330274 0.898228,7.311995 1.86494,1.985558 3.747855,2.392558 5.631985,2.693518 2.752274,0.0967 3.989749,-1.247291 5.071463,-2.739527 2.942686,-3.030506 2.620295,-5.914034 2.741987,-8.707956 -1.345539,-0.670227 -2.099557,-1.553968 -3.020905,-2.37731 z"
       id="path61451-6"
       sodipodi:nodetypes="cccccccc" />
    <path
       style="display:inline;fill:#dcdcd4;fill-opacity:1;stroke:#000000;stroke-width:0.251095px;stroke-linecap:butt;stroke-linejoin:miter;stroke-opacity:1"
       d="m 90.3017,89.732752 2.667965,-1.673888 c 1.16349,2.955438 2.292721,5.956412 5.564411,6.109547 2.797454,-0.05756 4.605874,-1.443364 6.133394,-3.206275 1.43947,8.046927 -2.62045,9.135484 -6.79008,10.085214 -1.832897,0.13783 -3.469058,-0.89723 -4.990936,-2.613613 C 91.23251,95.80317 90.435418,92.88088 90.3017,89.732752 Z"
       id="path63689-7"
       sodipodi:nodetypes="ccccccc" />
    <path
       style="display:inline;fill:#dcdcd4;fill-opacity:1;stroke:#000000;stroke-width:0.251095px;stroke-linecap:butt;stroke-linejoin:miter;stroke-opacity:1"
       d="m 93.003287,88.113527 c -3.847292,2.987424 -7.289125,2.873109 -10.877184,-0.853075 -0.263638,-0.623022 -0.526109,-1.535249 -0.07952,-2.680055 0.658706,-1.777582 2.656539,-2.787206 5.298954,-2.809063 3.814751,-0.117678 5.768235,1.332881 6.433984,4.040333 0.01774,0.839562 -0.09443,1.633616 -0.776244,2.30186 z"
       id="path64488-5"
       sodipodi:nodetypes="cccccc" />
    <path
       style="display:inline;fill:#dcdcd4;fill-opacity:1;stroke:#000000;stroke-width:0.251095px;stroke-linecap:butt;stroke-linejoin:miter;stroke-opacity:1"
       d="m 82.059776,84.679001 c -0.920531,-6.050579 -4.499015,-7.774648 -8.693289,-8.496338 -3.79727,-0.306092 -5.424441,4.008618 -7.749619,5.470242 -3.361101,-2.578213 -6.197316,-5.689345 -6.863539,-11.003712 -0.09805,-4.392441 4.748655,-8.027829 8.494726,-7.995351 5.491359,-0.313266 15.591598,5.37478 17.656146,19.48035 -1.197959,0.189615 -2.207897,0.894414 -2.844425,2.544809 z"
       id="path66152-3"
       sodipodi:nodetypes="ccccccc" />
    <path
       style="display:inline;fill:#dcdcd4;fill-opacity:1;stroke:#000000;stroke-width:0.251095px;stroke-linecap:butt;stroke-linejoin:miter;stroke-opacity:1"
       d="m 84.934721,82.089892 c -0.872625,-4.950915 -2.779378,-9.540775 -5.687862,-13.780898 -1.176084,-2.08465 -2.014506,-4.03582 -1.772657,-5.559949 0.766942,-5.040563 2.682958,-10.038184 9.923229,-14.836825 2.862655,0.489673 9.287015,7.136036 10.092821,11.591696 0.74816,2.670744 0.164843,5.010287 0.07697,7.473069 -3.025915,3.025106 -5.924568,6.50779 -7.399394,15.10969 -2.228898,-0.566404 -3.726767,-0.27664 -5.233101,0.0028 z"
       id="path68489-5"
       sodipodi:nodetypes="cccccccc" />
    <path
       style="display:inline;fill:#dcdcd4;fill-opacity:1;stroke:#000000;stroke-width:0.251095px;stroke-linecap:butt;stroke-linejoin:miter;stroke-opacity:1"
       d="m 90.213214,82.104829 c 1.414004,-8.67643 4.382285,-11.942963 7.378062,-15.113765 2.617734,-2.155366 5.296984,-4.256428 10.212554,-4.383139 4.77568,0.565754 8.09558,2.590773 8.84004,7.197417 -0.23015,4.466834 -2.42226,8.44073 -7.12903,11.782831 -2.34906,-1.870872 -3.78453,-5.487146 -8.29952,-5.234169 -5.919966,1.115267 -6.733086,4.236814 -8.012766,7.511981 -0.964366,-0.714234 -1.876348,-1.636121 -2.98934,-1.761156 z"
       id="path71037-6"
       sodipodi:nodetypes="cccccccc" />
  </g>
  <g
     inkscape:groupmode="layer"
     id="layer3"
     inkscape:label="Warstwa 3"
     style="display:inline"
     transform="translate(-18.7713,-30.825593)">
    <path
       style="fill:#dcdcd4;fill-opacity:1;stroke:#000000;stroke-width:0.264583px;stroke-linecap:butt;stroke-linejoin:miter;stroke-opacity:1"
       d="m 53.721195,79.282715 c -7.768198,-0.0657 -16.565702,6.223253 -16.090852,16.956537 0.646541,8.000588 5.707937,15.151828 16.386331,15.729018 8.103098,-0.24393 16.131614,-4.95208 16.309321,-16.505403 -0.885944,-11.255332 -7.08392,-15.812681 -16.6048,-16.180152 z"
       id="path96338"
       sodipodi:nodetypes="ccccc" />
    <path
       style="fill:#1f1b20;fill-opacity:1;stroke:none;stroke-width:0.264583px;stroke-linecap:butt;stroke-linejoin:miter;stroke-opacity:1"
       d="m 41.270221,94.674773 1.253522,-2.232159 7.390011,0.0924 -4.64217,7.392908 h 4.473977 v 1.615578 h -8.955969 l 4.324324,-6.639994 z"
       id="path97890" />
    <path
       style="fill:#1f1b20;fill-opacity:1;stroke:none;stroke-width:0.264583px;stroke-linecap:butt;stroke-linejoin:miter;stroke-opacity:1"
       d="M 51.05982,102.62909 V 88.508561 h -1.520002 l 6.947204,-5.954532 v 19.982621 h 1.068864 v 1.92594 h -7.267128 v -1.79172 z"
       id="path106668" />
    <path
       style="fill:#1f1b20;fill-opacity:1;stroke:#000000;stroke-width:0.264583px;stroke-linecap:butt;stroke-linejoin:miter;stroke-opacity:1"
       d="m 60.533494,94.65521 v -5.628193 h 3.750855 v 3.051887 l 0.973555,-1.336217 v 2.675437 l -1.192025,1.210461 v 6.250965 h 0.615813 v 0.88672 h -4.79801 v -1.00319 h 0.74553 v -3.547129 l -1.126622,0.820764 v -2.555962 z"
       id="path114185" />
  </g>
</svg>
