<?xml version="1.0" encoding="UTF-8" standalone="no"?>
<!-- Created with Inkscape (http://www.inkscape.org/) -->

<svg
   width="224.8721mm"
   height="224.8721mm"
   viewBox="0 0 224.8721 224.8721"
   version="1.1"
   id="svg5"
   inkscape:version="1.1.1 (3bf5ae0d25, 2021-09-20, custom)"
   sodipodi:docname="hamak.svg"
   xmlns:inkscape="http://www.inkscape.org/namespaces/inkscape"
   xmlns:sodipodi="http://sodipodi.sourceforge.net/DTD/sodipodi-0.dtd"
   xmlns="http://www.w3.org/2000/svg"
   xmlns:svg="http://www.w3.org/2000/svg">
  <sodipodi:namedview
     id="namedview7"
     pagecolor="#505050"
     bordercolor="#eeeeee"
     borderopacity="1"
     inkscape:pageshadow="0"
     inkscape:pageopacity="0"
     inkscape:pagecheckerboard="false"
     inkscape:blackoutopacity="0.0"
     inkscape:document-units="mm"
     showgrid="false"
     inkscape:zoom="0.5"
     inkscape:cx="277"
     inkscape:cy="631"
     inkscape:window-width="1920"
     inkscape:window-height="1042"
     inkscape:window-x="0"
     inkscape:window-y="38"
     inkscape:window-maximized="1"
     inkscape:current-layer="layer2"
     fit-margin-top="10"
     lock-margins="true"
     fit-margin-left="10"
     fit-margin-right="10"
     fit-margin-bottom="10" />
  <defs
     id="defs2" />
  <g
     inkscape:groupmode="layer"
     id="layer2"
     inkscape:label="Warstwa 2"
     transform="translate(9.5278571,-139.28493)">
    <path
       style="fill:#000000;fill-opacity:1;stroke:none;stroke-width:0.1;stroke-linecap:butt;stroke-linejoin:miter;stroke-miterlimit:4;stroke-dasharray:none;stroke-opacity:1"
       d="m 0.48345148,216.57531 1.92588522,1.1972 c 0.136213,0.78785 0.5408759,1.08943 1.2502624,0.83906 2.9865915,2.04372 5.6198682,4.33731 8.4048279,6.52363 l 0.226665,-0.25154 c -2.7834954,-2.27896 -5.664013,-4.48848 -8.2570019,-6.90379 0.010379,-0.92068 -0.2831068,-1.48582 -1.3371353,-1.16109 l -1.6230219,-1.54055 c -0.40094656,0.2324 -0.66017519,0.63101 -0.59048142,1.29708 z"
       id="path10166"
       sodipodi:nodetypes="ccccccccc" />
    <path
       style="fill:#000000;fill-opacity:1;stroke:none;stroke-width:0.065;stroke-linecap:butt;stroke-linejoin:miter;stroke-miterlimit:4;stroke-dasharray:none;stroke-opacity:1"
       d="m 12.053765,225.11885 c -1.368262,1.41359 -0.954203,3.29252 -0.375357,4.00871 3.309707,3.69675 6.724608,7.33808 9.929121,11.09024 l 9.587327,9.09867 9.156949,8.58 13.800783,12.04883 c 4.122808,3.54541 8.561495,6.91768 13.081669,9.64866 l 0.256434,-0.27166 c -5.077248,-2.97245 -8.846694,-6.35362 -13.119007,-9.57763 l -8.438073,-7.39005 -7.533267,-6.74506 -7.656565,-7.1518 -6.587829,-6.11973 -9.933115,-10.87847 c -1.499662,-1.87667 -4.2486903,-3.48817 -1.901997,-6.1812 z"
       id="path11812"
       sodipodi:nodetypes="cccccccccccccccc" />
    <path
       style="fill:#000000;fill-opacity:1;stroke:none;stroke-width:0.065;stroke-linecap:butt;stroke-linejoin:miter;stroke-miterlimit:4;stroke-dasharray:none;stroke-opacity:1"
       d="m 11.443856,226.79311 c 10.99004,11.24011 22.039937,22.44087 32.920074,33.75324 0.862338,0.63996 2.905713,1.91049 5.475211,2.15955 l 1.821135,0.0189 c 7.842012,-1.38352 15.493862,-2.92574 23.221881,-4.36946 l 21.777454,-4.54732 14.626339,-3.08861 13.10829,-3.70178 9.98523,-3.12811 11.20954,-3.93303 7.94941,-3.19428 3.22336,-1.57579 2.77689,-1.6201 -0.75806,0.0142 c -1.63234,0.9492 -3.33278,1.8821 -5.35493,2.73803 -6.81272,2.85918 -13.66181,5.61952 -20.75726,7.7106 l -18.18506,5.36681 c -4.41546,1.25784 -8.91677,2.11771 -13.40166,3.05372 l -12.666521,2.6277 -13.020561,2.76163 -10.298716,2.04296 c -4.044375,0.78981 -8.076784,1.68105 -12.135268,2.35127 -3.029885,0.25247 -5.961164,0.12016 -8.402941,-1.92235 -10.80534,-11.26724 -21.981905,-22.60175 -33.023622,-33.91183 z"
       id="path14628"
       sodipodi:nodetypes="ccccccccccccccccccccccccc" />
    <path
       style="fill:#000000;fill-opacity:1;stroke:none;stroke-width:0.065;stroke-linecap:butt;stroke-linejoin:miter;stroke-miterlimit:4;stroke-dasharray:none;stroke-opacity:1"
       d="m 12.039364,225.12194 c 0.867114,-0.50499 2.463251,-0.33296 4.520017,0.25648 4.258974,1.19916 9.902202,3.79545 15.023608,5.86507 l 28.977172,10.60689 12.825627,4.638 c 3.505612,1.19413 6.929662,2.21369 10.629836,3.82426 l -0.503947,0.17695 C 80.094849,248.9481 76.594762,247.89046 73.107721,246.757 l -14.10172,-5.06618 -16.653295,-6.11578 -10.248239,-3.76566 c -5.258411,-2.11756 -10.77551,-4.69841 -15.670944,-6.16592 -0.726213,-0.21868 -3.08756,-0.82746 -4.111373,-0.36641 -0.05572,0.0251 -0.282786,-0.15509 -0.282786,-0.15509 z"
       id="path1193"
       sodipodi:nodetypes="ccccccccccccscc" />
    <path
       style="fill:#000000;fill-opacity:1;stroke:none;stroke-width:0.065;stroke-linecap:butt;stroke-linejoin:miter;stroke-miterlimit:4;stroke-dasharray:none;stroke-opacity:1"
       d="m 14.362369,225.16465 10.224803,11.01183 13.114577,14.27453 7.286164,7.86471 c 1.066947,0.8475 2.247817,1.58837 4.359647,1.68674 6.714953,-0.6189 30.364918,-6.04467 45.691682,-8.94239 8.293588,-1.70227 16.682488,-3.76224 25.167568,-6.18312 12.00163,-3.10675 23.89155,-6.60102 35.83119,-10.18585 l 9.71618,-3.18204 c 5.7789,-2.32642 10.37208,-3.42811 15.25735,-7.01903 l -0.93634,0.14601 c -0.52871,1.06849 -9.87215,5.07739 -15.25023,6.83709 -10.62339,3.68105 -21.29669,6.56616 -31.95611,9.67251 -11.88503,3.426 -23.77796,6.65868 -35.357145,9.00228 -13.651688,2.87758 -27.310433,5.70417 -40.991393,8.37028 -5.645574,1.16204 -9.239343,2.57212 -13.040227,-2.25449 L 14.802234,225.00423 Z"
       id="path7833"
       sodipodi:nodetypes="cccccccccccccccccc" />
    <path
       style="fill:#000000;fill-opacity:1;stroke:none;stroke-width:0.065;stroke-linecap:butt;stroke-linejoin:miter;stroke-miterlimit:4;stroke-dasharray:none;stroke-opacity:1"
       d="m 15.443962,225.37141 6.32911,6.78737 4.266225,4.53845 4.128103,4.35173 7.130986,7.54931 5.098846,5.43085 c 1.630305,1.28468 3.165954,1.98847 5.316769,2.21582 1.968118,0.19705 3.955787,-0.0654 5.941572,-0.28368 l 15.13332,-2.49995 9.953678,-1.77814 5.254193,-0.97014 13.322197,-3.18839 14.606359,-3.41592 13.27778,-3.08734 9.12691,-2.1435 15.2459,-4.90805 15.00992,-4.7222 11.12972,-3.27671 6.27974,-1.66751 c 1.29056,-0.35173 2.45179,-0.61054 3.37637,-0.44806 0.73736,0.12958 0.98635,0.94171 1.43548,1.79855 l 0.27612,-0.015 c -0.31914,-0.86917 -1.05459,-1.94118 -1.57346,-2.04646 -3.2191,-0.11631 -8.97384,1.78966 -12.59017,2.81475 l -24.78578,7.63156 -13.8507,4.33788 -9.59039,2.34731 -22.72506,5.28448 -19.010931,4.54293 -24.569803,4.33413 c -3.76637,0.64579 -7.489106,1.2608 -11.093926,1.00098 -3.626299,-0.27358 -5.673648,-3.12308 -7.927946,-5.58174 l -10.749134,-11.42414 -7.638872,-8.00781 -5.199823,-5.57889 z"
       id="path15453"
       sodipodi:nodetypes="cccccccccccccccccccscccccccccccccccc" />
    <path
       style="fill:#000000;fill-opacity:1;stroke:none;stroke-width:0.065;stroke-linecap:butt;stroke-linejoin:miter;stroke-miterlimit:4;stroke-dasharray:none;stroke-opacity:1"
       d="m 22.615787,232.52773 9.729835,6.93592 7.765034,5.62643 6.619126,4.78812 7.940915,5.69227 -0.703863,0.0504 -4.607636,-3.41148 -7.265914,-5.23633 -11.755733,-8.45117 -7.30957,-5.29007 z"
       id="path24969" />
    <path
       style="fill:#000000;fill-opacity:1;stroke:none;stroke-width:0.264583px;stroke-linecap:butt;stroke-linejoin:miter;stroke-opacity:1"
       d="m 48.88572,255.95485 -0.565975,0.0261 -4.163772,-3.59381 -12.672755,-10.33793 -1.154536,-1.28195 5.417084,4.28178 z"
       id="path25097" />
    <path
       style="fill:#000000;fill-opacity:1;stroke:none;stroke-width:0.065;stroke-linecap:butt;stroke-linejoin:miter;stroke-miterlimit:4;stroke-dasharray:none;stroke-opacity:1"
       d="m 58.624826,254.84111 -0.43959,0.12296 -10.70272,-7.46508 -6.656062,-4.33981 -6.461778,-3.91309 -6.236314,-4.46985 -4.412627,-3.41394 -4.389266,-3.57648 0.863857,0.25035 3.925022,3.21796 4.779562,3.70067 5.773404,4.09536 4.769107,2.90961 6.294916,3.95421 3.689337,2.45922 5.036378,3.51102 z"
       id="path26288"
       sodipodi:nodetypes="ccccccccccccccccc" />
    <path
       style="fill:#000000;fill-opacity:1;stroke:none;stroke-width:0.065;stroke-linecap:butt;stroke-linejoin:miter;stroke-miterlimit:4;stroke-dasharray:none;stroke-opacity:1"
       d="m 22.576214,229.13939 10.527841,6.28968 c 4.326779,2.43351 8.511247,4.93346 12.987247,7.2973 l 9.941161,5.20852 c 3.965312,1.83378 7.937133,3.67664 12.04467,5.36304 l 0.615698,-0.16236 c -4.747272,-1.72254 -9.131293,-3.92143 -13.522714,-6.06546 -5.415267,-2.73328 -10.757542,-5.5271 -15.883353,-8.50042 -4.877517,-2.71681 -9.642358,-5.53178 -14.39564,-8.35681 z"
       id="path27085"
       sodipodi:nodetypes="cccccccccc" />
    <path
       style="fill:#000000;fill-opacity:1;stroke:none;stroke-width:0.065;stroke-linecap:butt;stroke-linejoin:miter;stroke-miterlimit:4;stroke-dasharray:none;stroke-opacity:1"
       d="m 73.99747,252.15724 -0.601098,0.14209 -6.235251,-2.79696 -7.469399,-3.45096 -6.716924,-3.05741 -8.366041,-3.80158 -7.501522,-3.38909 -14.505082,-6.6175 15.079606,6.48984 12.466431,5.62548 9.390073,4.35406 11.573116,5.20945 z"
       id="path30091"
       sodipodi:nodetypes="ccccccccccccc" />
    <path
       style="fill:#000000;fill-opacity:1;stroke:none;stroke-width:0.065;stroke-linecap:butt;stroke-linejoin:miter;stroke-miterlimit:4;stroke-dasharray:none;stroke-opacity:1"
       d="m 78.338719,251.43989 0.622853,-0.16106 -8.458084,-2.7026 -13.837131,-5.3495 -11.806277,-4.87848 -22.257109,-9.55513 -5.993722,-2.51241 0.636807,0.67032 8.573751,3.61418 20.406835,8.7234 11.060917,4.57276 12.129463,4.69903 z"
       id="path30585" />
    <path
       style="fill:#000000;fill-opacity:1;stroke:none;stroke-width:0.065;stroke-linecap:butt;stroke-linejoin:miter;stroke-miterlimit:4;stroke-dasharray:none;stroke-opacity:1"
       d="m 187.06508,225.62063 c 0.3266,1.88436 -0.36938,3.65722 -1.82047,5.34775 -5.90906,5.22832 -12.33832,9.71383 -18.58323,14.46259 l -16.31438,11.82889 -14.92288,10.55184 -3.87849,2.68536 -9.86073,6.47259 c -1.99825,0.93686 -3.97948,1.89188 -6.25587,2.53179 -3.45117,0.7089 -6.87733,1.47939 -10.52058,1.71516 l -4.45806,-0.0717 0.39758,-0.2713 c 3.49019,0.25434 7.22689,0.11014 11.747,-1.11341 2.5086,-0.40954 5.42366,-1.14567 7.73242,-2.61697 2.31632,-0.97924 7.01388,-4.39985 10.52076,-6.60001 l 8.68246,-6.11737 11.89523,-8.41705 5.57469,-4.03305 10.0532,-7.29344 5.92292,-4.36913 c 4.29944,-2.9878 11.19172,-8.58025 12.06176,-9.75591 1.65189,-1.96014 2.07011,-3.56209 1.74808,-4.9491 z"
       id="path33075"
       sodipodi:nodetypes="cccccccccccccccccccccc" />
    <path
       style="fill:#000000;fill-opacity:1;stroke:none;stroke-width:0.065;stroke-linecap:butt;stroke-linejoin:miter;stroke-miterlimit:4;stroke-dasharray:none;stroke-opacity:1"
       d="m 47.50785,262.26785 c 1.853379,2.25109 3.859487,3.44467 8.052406,3.65279 5.675221,0.43315 10.772466,-1.4039 16.097612,-2.3458 l 14.000472,-3.5503 11.887731,-3.17242 10.577519,-2.89586 11.84723,-3.29268 8.9491,-2.47907 c 2.43857,-0.7402 4.86994,-1.46753 7.39839,-2.36825 l 9.90513,-3.4049 5.26829,-1.82023 5.05257,-1.79604 7.74664,-2.70679 7.54652,-2.76924 5.95309,-2.21442 4.70825,-2.02747 4.46414,-3.20321 -0.18657,-0.30763 c -2.33878,1.50389 -4.36662,3.55199 -7.09336,4.37689 l -15.32133,5.67597 -8.01839,2.84281 -15.47596,5.34506 c -4.84495,1.75965 -9.68266,3.45056 -14.4722,4.68349 l -13.71014,3.77317 -11.00343,3.04048 -16.940536,4.59135 -11.769677,2.95043 c -5.931932,1.41844 -11.879117,2.88458 -17.324562,2.78183 -4.13085,-0.20334 -6.234214,-1.5285 -7.573536,-3.27642 z"
       id="path39252"
       sodipodi:nodetypes="cccccccccccccccccccccccccccccc" />
    <path
       style="fill:#000000;fill-opacity:1;stroke:none;stroke-width:0.065;stroke-linecap:butt;stroke-linejoin:miter;stroke-miterlimit:4;stroke-dasharray:none;stroke-opacity:1"
       d="m 185.13089,227.17616 0.40839,-0.29682 c -0.27234,1.25432 -1.0107,2.3449 -2.17666,3.28523 l -3.07009,2.78745 -4.19283,3.38402 -4.53502,3.4209 -5.8094,4.07025 -3.4215,2.42442 -2.70186,1.80471 -2.15459,1.47831 -4.61603,3.04665 -2.34541,1.4787 -3.3645,2.36786 -10.22352,6.94731 -9.45251,6.84875 c -2.84548,2.65583 -5.81864,4.82535 -8.77177,7.07114 l -2.69762,1.75175 -0.87138,0.24138 3.19526,-2.20504 4.44242,-3.24764 c 3.34103,-2.65656 6.33239,-5.34398 10.13085,-8.01341 l 7.48265,-5.20235 6.18769,-4.25923 5.96229,-3.9693 5.36961,-3.60056 5.40706,-3.61756 6.26386,-4.48622 c 2.29074,-1.52147 4.49036,-3.22976 6.69482,-4.92812 1.93514,-1.35725 3.68725,-2.92115 5.45236,-4.47036 1.33122,-1.30216 2.97992,-2.49291 3.40743,-4.11222 z"
       id="path42646"
       sodipodi:nodetypes="cccccccccccccccccccccccccccccc" />
    <path
       style="fill:#000000;fill-opacity:1;stroke:none;stroke-width:0.065;stroke-linecap:butt;stroke-linejoin:miter;stroke-miterlimit:4;stroke-dasharray:none;stroke-opacity:1"
       d="m 101.86831,280.91667 c 3.162,-0.99171 6.34798,-2.19305 9.61682,-4.11916 2.69807,-1.34208 5.27522,-3.04857 7.89551,-4.62505 2.70246,-1.63676 5.27831,-3.31182 7.96037,-5.09832 l 7.72179,-5.22276 7.86607,-5.58427 c 1.2708,-0.91873 2.36208,-1.80201 3.42922,-2.68052 l 1.88207,-1.08764 -5.35855,4.15605 -6.34419,4.54636 -8.96195,6.10426 -7.10603,4.58425 -6.79373,4.09396 c -4.08934,2.40713 -7.58244,3.74417 -11.11087,5.14463 z"
       id="path46809"
       sodipodi:nodetypes="ccccccccccccccc" />
    <path
       style="fill:#000000;fill-opacity:1;stroke:none;stroke-width:0.065;stroke-linecap:butt;stroke-linejoin:miter;stroke-miterlimit:4;stroke-dasharray:none;stroke-opacity:1"
       d="m 100.67608,280.93068 7.90324,-3.53974 c 2.39012,-1.26381 4.66375,-2.61157 6.9513,-3.9493 3.04726,-1.9117 5.69198,-4.02163 8.31999,-6.13979 l -1.30407,0.6923 c -2.4012,1.98018 -5.33251,4.11129 -8.2276,5.94482 -4.46648,2.73543 -9.42596,4.94341 -14.11122,6.8172 z"
       id="path48765"
       sodipodi:nodetypes="cccccccc" />
    <path
       style="fill:#000000;fill-opacity:1;stroke:none;stroke-width:0.065;stroke-linecap:butt;stroke-linejoin:miter;stroke-miterlimit:4;stroke-dasharray:none;stroke-opacity:1"
       d="m 93.017273,282.48766 c 1.993977,-0.0401 4.547698,-0.53679 7.470807,-1.33477 l 0.33858,-0.2495 -0.58018,-0.12473 c -2.310094,0.66988 -4.622797,1.29221 -6.963534,1.40389 z"
       id="path51106"
       sodipodi:nodetypes="cccccc" />
    <path
       style="fill:#000000;fill-opacity:1;stroke:none;stroke-width:0.065;stroke-linecap:butt;stroke-linejoin:miter;stroke-miterlimit:4;stroke-dasharray:none;stroke-opacity:1"
       d="m 67.480364,279.32127 -0.283194,0.30693 5.007115,1.77126 c 2.982474,0.51117 5.96089,1.21267 8.931275,2.29084 1.654246,1.10107 4.033003,0.84603 6.511806,0.40372 1.875864,-0.37394 3.776278,-1.15848 5.685156,-1.89173 l 7.399938,-3.50419 8.08418,-3.85101 6.7751,-3.32577 6.52732,-3.24168 6.97519,-3.97481 7.67658,-4.75946 9.17546,-5.64193 4.81895,-2.90839 9.97953,-6.00346 c 1.8461,-1.10252 3.62435,-2.43205 5.39158,-3.79844 l 5.74441,-4.27889 5.38257,-3.9757 5.24353,-3.87676 -1.51519,0.60743 -4.69391,3.57754 -7.31471,5.42334 -4.90126,3.69095 c -2.99585,2.21757 -6.07007,3.84814 -9.12609,5.69413 l -12.4363,7.52887 -11.88842,7.36565 -7.96365,4.59655 -12.20023,6.06411 -10.880393,5.19568 -6.743625,3.25722 c -2.989689,1.24936 -8.233834,3.42293 -11.820602,1.20736 -3.060155,-1.02428 -4.368006,-1.35372 -6.851902,-1.74937 -2.149632,-0.34241 -4.498174,-1.3216 -6.690214,-2.19999 z"
       id="path51624"
       sodipodi:nodetypes="cccccccccccccccccccccccccccccccsc" />
    <path
       style="fill:#000000;fill-opacity:1;stroke:none;stroke-width:0.065;stroke-linecap:butt;stroke-linejoin:miter;stroke-miterlimit:4;stroke-dasharray:none;stroke-opacity:1"
       d="m 81.299107,283.4616 c 2.732177,0.0455 5.464771,0.0894 8.479287,-0.99882 3.482699,-1.07527 5.788867,-2.60056 8.665692,-3.90757 l 7.409904,-4.08883 6.36371,-3.61569 6.68774,-3.85625 9.44497,-5.49844 6.92196,-4.04597 8.35377,-4.91736 9.39963,-5.57193 6.84598,-4.32808 5.75663,-3.52004 6.68324,-4.12359 7.82056,-4.93687 -2.12871,0.92223 -2.08856,1.39415 -7.07373,4.38986 -7.67369,4.74506 -6.23241,3.7886 -7.06162,4.32774 -7.51063,4.42141 -7.33302,4.31472 -6.83666,3.98189 -7.03489,4.09083 -6.50347,3.78881 -8.48875,4.8122 -8.367475,4.60837 c -2.332457,1.0984 -4.678858,2.23897 -7.198085,2.83557 -2.605102,1.04729 -5.168528,0.68095 -7.69566,0.79735 z"
       id="path57807"
       sodipodi:nodetypes="cccccccccccccccccccccccccccccc" />
    <path
       style="fill:#000000;fill-opacity:1;stroke:none;stroke-width:0.065;stroke-linecap:butt;stroke-linejoin:miter;stroke-miterlimit:4;stroke-dasharray:none;stroke-opacity:1"
       d="m 67.075615,279.24259 c 0.04829,0 7.566015,1.39938 7.566015,1.39938 2.722927,0.61353 5.263742,0.84472 7.616293,0.68066 3.15906,-0.56066 6.311897,-1.21096 9.400706,-2.7838 l 9.215261,-5.17795 13.00133,-7.41753 7.91314,-4.64498 7.60912,-3.93993 8.86192,-4.88109 8.38838,-4.62374 5.48371,-2.98016 5.90897,-3.40942 -8.43997,4.4511 -9.4493,5.18205 -7.28997,3.98623 -13.09883,6.96581 -8.39933,4.85648 -7.73997,4.45416 -10.379244,5.92232 c -3.141363,1.76156 -6.637655,3.21466 -11.231753,3.71368 -5.256162,0.28463 -10.47614,-1.35429 -15.70704,-2.33698 z"
       id="path58999"
       sodipodi:nodetypes="cccccccccccccccccccccc" />
    <path
       style="fill:#000000;fill-opacity:1;stroke:none;stroke-width:0.065;stroke-linecap:butt;stroke-linejoin:miter;stroke-miterlimit:4;stroke-dasharray:none;stroke-opacity:1"
       d="m 62.942554,276.50474 9.137142,1.98464 c 2.989104,0.26177 6.350251,0.41736 9.454898,-0.3038 5.116819,-1.06247 8.409381,-3.24437 12.511077,-4.92975 l 10.713319,-5.14597 9.32629,-4.58198 9.90876,-4.95707 10.37113,-5.15632 6.61449,-3.35438 18.58321,-9.32415 4.88459,-2.53745 -7.2002,3.36277 -7.8162,3.88719 -7.64161,3.8314 -10.08142,5.06086 -8.18949,4.08564 -12.8046,6.35285 -8.43815,4.11783 -12.772517,6.14107 c -3.129532,1.25695 -6.085035,2.721 -9.935287,3.12027 -3.974496,0.52646 -8.161964,0.20151 -12.599646,-1.12373 l -4.8255,-1.15479 z"
       id="path60096"
       sodipodi:nodetypes="ccccccccccccccccccccccc" />
    <path
       style="fill:#000000;fill-opacity:1;stroke:none;stroke-width:0.065;stroke-linecap:butt;stroke-linejoin:miter;stroke-miterlimit:4;stroke-dasharray:none;stroke-opacity:1"
       d="m 50.637965,264.80912 1.945433,2.69145 c 1.654255,1.81278 3.277595,3.64074 5.287771,5.28178 2.760821,2.09934 6.042521,2.837 9.551458,2.98061 4.860242,0.0113 9.652021,-0.70814 14.351796,-2.40969 l 9.663179,-3.64117 11.828758,-5.50404 2.97843,-1.46365 -1.86058,0.59644 -4.952255,2.3956 -9.18981,4.06105 c -4.812901,2.13264 -9.764123,3.72849 -14.721009,5.0052 -5.221052,0.85265 -10.262628,1.10778 -14.690428,-0.68053 -2.405429,-1.12363 -4.212205,-2.80326 -5.952895,-4.54427 -1.207296,-1.31172 -2.377574,-2.63697 -3.320471,-3.94869 z"
       id="path62154"
       sodipodi:nodetypes="cccccccccccccccc" />
    <path
       style="fill:#000000;fill-opacity:1;stroke:none;stroke-width:0.065;stroke-linecap:butt;stroke-linejoin:miter;stroke-miterlimit:4;stroke-dasharray:none;stroke-opacity:1"
       d="m 50.692854,264.86515 2.261946,2.01764 4.723757,3.67682 c 1.103945,0.77676 2.224927,1.53184 3.832649,1.66743 1.384015,0.20641 4.671417,0.66154 7.096215,0.59612 4.341024,0.19617 8.47061,-1.28477 12.643842,-2.41952 l 14.419574,-4.20622 13.727283,-4.49524 10.98653,-4.15122 c 2.76866,-1.08948 5.19304,-2.33482 6.68335,-4.00301 l -0.60247,0.1882 c -2.66023,2.68064 -8.60261,4.29273 -13.22189,6.22601 l -17.181339,5.74716 -15.032606,4.41614 c -4.209542,1.1889 -8.427993,2.48035 -12.532958,2.46544 -4.807032,-0.0717 -9.39358,-0.51946 -12.415911,-3.63589 l -4.967549,-4.04138 z"
       id="path65524"
       sodipodi:nodetypes="cccccccccccccccccc" />
    <path
       style="fill:#000000;fill-opacity:1;stroke:none;stroke-width:0.065;stroke-linecap:butt;stroke-linejoin:miter;stroke-miterlimit:4;stroke-dasharray:none;stroke-opacity:1"
       d="m 51.404694,265.17729 c 2.328484,1.36899 4.595685,2.76676 7.295971,3.70534 3.307854,0.32952 6.583511,0.18722 9.860388,0.0628 5.73424,-1.06904 11.371831,-2.79118 17.055255,-4.2036 l 20.398622,-5.47216 20.22814,-5.41602 6.89918,-1.88655 14.38733,-6.23887 17.55434,-7.86379 c 3.66629,-1.86639 7.80663,-3.79822 9.08677,-5.33523 l -0.66869,0.14342 c -2.08262,1.80867 -4.92265,3.04413 -7.61266,4.39312 l -9.16701,4.22237 c -7.39571,3.38078 -14.89418,6.57895 -22.38838,9.78472 -3.56031,1.30568 -7.44067,2.23521 -11.26351,3.23234 l -7.93189,2.15491 -11.89547,3.16007 -17.727427,4.76695 -15.3366,3.98591 c -3.583958,0.18231 -7.084981,0.60313 -10.851806,0.25952 -1.665092,-0.20562 -4.342424,-1.63657 -7.695395,-3.41787 z"
       id="path69140"
       sodipodi:nodetypes="cccccccccccccccccccccc" />
    <path
       style="fill:#000000;fill-opacity:1;stroke:none;stroke-width:0.065;stroke-linecap:butt;stroke-linejoin:miter;stroke-miterlimit:4;stroke-dasharray:none;stroke-opacity:1"
       d="m 186.78768,225.09503 10.23226,-6.46156 3.36115,-1.76385 c 1.03593,0.26055 1.58035,-0.11244 1.7071,-1.0238 l 3.25605,-1.79046 -0.81987,-1.27039 -3.14891,2.31165 c -1.35873,-0.15614 -1.24496,0.5967 -1.54999,1.09101 -4.09681,3.02202 -8.79661,5.77436 -13.27362,8.62633 z"
       id="path73121"
       sodipodi:nodetypes="cccccccccc" />
  </g>
</svg>
