<?xml version="1.0" encoding="UTF-8" standalone="no"?>
<svg
   width="189.89256mm"
   height="201.94751mm"
   viewBox="0 0 189.89256 201.94751"
   version="1.1"
   id="svg6"
   inkscape:version="1.1-dev (0df1fa2914, 2020-11-14, custom)"
   sodipodi:docname="harcerz.svg"
   xmlns:inkscape="http://www.inkscape.org/namespaces/inkscape"
   xmlns:sodipodi="http://sodipodi.sourceforge.net/DTD/sodipodi-0.dtd"
   xmlns="http://www.w3.org/2000/svg"
   xmlns:svg="http://www.w3.org/2000/svg">
  <defs
     id="defs2" />
  <sodipodi:namedview
     id="base"
     pagecolor="#ffffff"
     bordercolor="#666666"
     borderopacity="1.0"
     inkscape:pageopacity="0.0"
     inkscape:pageshadow="2"
     inkscape:zoom="0.7"
     inkscape:cx="-29.285714"
     inkscape:cy="405.71429"
     inkscape:document-units="mm"
     inkscape:current-layer="layer3"
     showgrid="false"
     inkscape:window-width="1920"
     inkscape:window-height="1044"
     inkscape:window-x="0"
     inkscape:window-y="36"
     inkscape:window-maximized="1"
     fit-margin-top="0"
     fit-margin-left="0"
     fit-margin-right="0"
     fit-margin-bottom="0" />
  <g
     inkscape:groupmode="layer"
     id="layer3"
     inkscape:label="Warstwa 2"
     style="display:inline"
     transform="translate(-15.331014,-59.906217)">
    <path
       style="font-variation-settings:normal;opacity:1;vector-effect:none;fill:#e6cfba;fill-opacity:1;stroke:#000000;stroke-width:6.55269;stroke-linecap:butt;stroke-linejoin:miter;stroke-miterlimit:4;stroke-dasharray:none;stroke-dashoffset:0;stroke-opacity:1;stop-color:#000000;stop-opacity:1"
       d="m 167.02801,147.09899 -24.14722,-0.9803 C 103.60836,162.2954 84.008988,137.80848 56.130938,130.43332 l -7.182269,6.94456 c 10.21729,181.17518 140.013411,137.89518 118.079341,9.72111 z"
       id="path60938"
       sodipodi:nodetypes="ccccc" />
    <path
       style="font-variation-settings:normal;opacity:1;vector-effect:none;fill:#000000;fill-opacity:1;stroke:#000000;stroke-width:1.04128px;stroke-linecap:butt;stroke-linejoin:miter;stroke-miterlimit:4;stroke-dasharray:none;stroke-dashoffset:0;stroke-opacity:1;stop-color:#000000;stop-opacity:1"
       d="m 89.788626,219.45084 c 5.035384,15.11533 35.549154,19.14192 40.665024,0.88122 -18.60774,9.98478 -24.72847,5.96838 -40.665024,-0.88122 z"
       sodipodi:nodetypes="ccc" />
    <ellipse
       style="fill:#000000;fill-opacity:1;fill-rule:evenodd;stroke:#000000;stroke-width:1.04292;stroke-linecap:round;stroke-linejoin:round;stroke-miterlimit:4;stroke-dasharray:none;stroke-opacity:1"
       id="path9599"
       cx="137.58208"
       cy="218.32494"
       rx="2.2117159"
       ry="3.1960874" />
    <ellipse
       style="fill:#000000;fill-opacity:1;fill-rule:evenodd;stroke:#000000;stroke-width:1.04292;stroke-linecap:round;stroke-linejoin:round;stroke-miterlimit:4;stroke-dasharray:none;stroke-opacity:1"
       id="path9705"
       cx="84.471207"
       cy="219.22423"
       rx="1.8230891"
       ry="3.1967797" />
    <path
       style="font-variation-settings:normal;opacity:1;vector-effect:none;fill:#000000;fill-opacity:1;stroke:#000000;stroke-width:1.04128px;stroke-linecap:butt;stroke-linejoin:miter;stroke-miterlimit:4;stroke-dasharray:none;stroke-dashoffset:0;stroke-opacity:1;stop-color:#000000;stop-opacity:1"
       d="m 133.6893,179.25827 c 1.65018,3.08477 5.48877,7.43498 9.94263,0.42968 5.08434,-24.57178 -18.29848,-24.19746 -9.94263,-0.42968 z"
       id="path9740"
       sodipodi:nodetypes="ccc" />
    <path
       style="font-variation-settings:normal;opacity:1;vector-effect:none;fill:#000000;fill-opacity:1;stroke:#000000;stroke-width:1.04128px;stroke-linecap:butt;stroke-linejoin:miter;stroke-miterlimit:4;stroke-dasharray:none;stroke-dashoffset:0;stroke-opacity:1;stop-color:#000000;stop-opacity:1"
       d="m 78.619444,186.71263 c 5.46802,5.19279 8.042148,2.80584 10.38451,-0.40876 6.073545,-32.70238 -21.007162,-28.44991 -10.38451,0.40876 z"
       id="path11331"
       sodipodi:nodetypes="ccc" />
    <path
       style="font-variation-settings:normal;opacity:1;vector-effect:none;fill:#000000;fill-opacity:1;stroke:#000000;stroke-width:1.04128px;stroke-linecap:butt;stroke-linejoin:miter;stroke-miterlimit:4;stroke-dasharray:none;stroke-dashoffset:0;stroke-opacity:1;stop-color:#000000;stop-opacity:1"
       d="m 110.49303,182.64109 c -7.04653,15.23617 -11.666719,26.0591 2.61002,31.92884 20.05373,-9.58332 6.54754,-25.77437 -2.61002,-31.92884 z"
       id="path12562"
       sodipodi:nodetypes="ccc" />
    <path
       style="font-variation-settings:normal;opacity:1;vector-effect:none;fill:#dda59a;fill-opacity:0.556863;stroke:#000000;stroke-width:1.04128px;stroke-linecap:butt;stroke-linejoin:miter;stroke-miterlimit:4;stroke-dasharray:none;stroke-dashoffset:0;stroke-opacity:1;stop-color:#000000;stop-opacity:1"
       d="m 113.18436,209.52771 c 7.92809,-8.19257 4.77268,-6.8492 -1.75361,-17.89689 -1.7455,7.08396 -5.47766,15.12149 1.75361,17.89689 z"
       id="path13810"
       sodipodi:nodetypes="ccc" />
    <path
       style="font-variation-settings:normal;opacity:1;vector-effect:none;fill:#000000;fill-opacity:1;stroke:#000000;stroke-width:1.04128px;stroke-linecap:butt;stroke-linejoin:miter;stroke-miterlimit:4;stroke-dasharray:none;stroke-dashoffset:0;stroke-opacity:1;stop-color:#000000;stop-opacity:1"
       d="m 68.55387,164.10746 c 6.178229,-7.87923 13.312445,-10.58925 22.566233,-11.85299 l -8.778649,-3.67054 c -20.420923,9.79367 -15.02146,12.19508 -13.787584,15.52353 z"
       id="path51517"
       sodipodi:nodetypes="cccc" />
    <path
       style="font-variation-settings:normal;opacity:1;vector-effect:none;fill:#000000;fill-opacity:1;stroke:#000000;stroke-width:1.04128px;stroke-linecap:butt;stroke-linejoin:miter;stroke-miterlimit:4;stroke-dasharray:none;stroke-dashoffset:0;stroke-opacity:1;stop-color:#000000;stop-opacity:1"
       d="m 128.77647,158.37371 c 11.74134,-7.26054 37.13699,3.3684 18.22571,-8.64059 l -19.76671,6.24453 c -0.6038,2.14228 0.16529,2.63403 1.541,2.39606 z"
       id="path59025"
       sodipodi:nodetypes="cccc" />
    <path
       style="font-variation-settings:normal;opacity:1;vector-effect:none;fill:#000000;fill-opacity:1;stroke:#000000;stroke-width:1.04292;stroke-linecap:butt;stroke-linejoin:miter;stroke-miterlimit:4;stroke-dasharray:none;stroke-dashoffset:0;stroke-opacity:1;stop-color:#000000;stop-opacity:1"
       d="m 164.71426,219.64274 7.62163,-51.72929 c 0.11605,-0.0474 19.93717,-7.27515 22.88824,12.20328 0.40933,25.39396 -19.04651,38.06423 -30.50987,39.52601 z"
       id="path91335"
       sodipodi:nodetypes="cccc" />
    <path
       style="font-variation-settings:normal;opacity:1;vector-effect:none;fill:#c58aa1;fill-opacity:1;stroke:#000000;stroke-width:1.04128px;stroke-linecap:butt;stroke-linejoin:miter;stroke-miterlimit:4;stroke-dasharray:none;stroke-dashoffset:0;stroke-opacity:1;stop-color:#000000;stop-opacity:1"
       d="m 174.11067,178.95772 c 0.0957,-4.46296 4.16846,-6.82301 8.74461,0.83509 5.21973,20.54775 -10.89708,32.54458 -11.83523,33.6933 1.60991,-11.44844 3.06563,-22.91311 3.09062,-34.52839 z"
       id="path92668"
       sodipodi:nodetypes="cccc" />
    <path
       style="font-variation-settings:normal;opacity:1;vector-effect:none;fill:#000000;fill-opacity:1;stroke:#000000;stroke-width:1.04128px;stroke-linecap:butt;stroke-linejoin:miter;stroke-miterlimit:4;stroke-dasharray:none;stroke-dashoffset:0;stroke-opacity:1;stop-color:#000000;stop-opacity:1"
       d="m 65.139343,222.12584 c -13.121492,1.86908 -18.739456,-8.6996 -26.616981,-15.5229 -7.143503,-10.39603 -5.178599,-18.92557 -2.508994,-28.79793 2.106544,-4.45112 8.024281,-7.65776 13.92163,-6.13986 z"
       id="path109336"
       sodipodi:nodetypes="ccccc" />
    <path
       style="font-variation-settings:normal;opacity:1;vector-effect:none;fill:#cf98a1;fill-opacity:1;stroke:none;stroke-width:1.04128px;stroke-linecap:butt;stroke-linejoin:miter;stroke-miterlimit:4;stroke-dasharray:none;stroke-dashoffset:0;stroke-opacity:1;stop-color:#000000;stop-opacity:1"
       d="M 62.961722,217.48548 C 48.971023,210.22333 31.981826,196.2051 42.654418,179.42467 c 2.715061,-3.73875 6.779073,-1.4636 10.400766,-1.44844 l 10.81695,38.00084 z"
       id="path110069"
       sodipodi:nodetypes="ccccc" />
  </g>
  <g
     inkscape:groupmode="layer"
     id="layer5"
     inkscape:label="Warstwa 3"
     style="display:inline"
     transform="translate(-15.331014,-59.906217)">
    <path
       style="font-variation-settings:normal;opacity:1;vector-effect:none;fill:#000000;fill-opacity:1;stroke:#000000;stroke-width:1.04128px;stroke-linecap:butt;stroke-linejoin:miter;stroke-miterlimit:4;stroke-dasharray:none;stroke-dashoffset:0;stroke-opacity:1;stop-color:#000000;stop-opacity:1"
       d="m 204.61146,116.17629 c 2.0017,19.54449 -29.39466,37.63936 -56.03675,30.86016 l 25.24099,-24.52968 c 11.74358,0.75842 21.13605,-3.04737 30.79576,-6.33048 z"
       id="path132818"
       sodipodi:nodetypes="cccc" />
    <path
       style="font-variation-settings:normal;opacity:1;vector-effect:none;fill:#f1cb77;fill-opacity:1;stroke:none;stroke-width:1.04128px;stroke-linecap:butt;stroke-linejoin:miter;stroke-miterlimit:4;stroke-dasharray:none;stroke-dashoffset:0;stroke-opacity:1;stop-color:#000000;stop-opacity:1"
       d="m 172.54959,125.65014 c -5.97118,9.2233 -13.32066,14.48814 -20.45401,20.37377 14.93393,-0.35408 29.87514,-5.25739 44.83431,-21.309 -8.12677,3.06814 -16.25353,2.38986 -24.3803,0.93523 z"
       id="path133929"
       sodipodi:nodetypes="cccc" />
    <path
       style="font-variation-settings:normal;opacity:1;vector-effect:none;fill:#000000;fill-opacity:1;stroke:#000000;stroke-width:1.04128px;stroke-linecap:butt;stroke-linejoin:miter;stroke-miterlimit:4;stroke-dasharray:none;stroke-dashoffset:0;stroke-opacity:1;stop-color:#000000;stop-opacity:1"
       d="m 168.34666,149.11191 23.82376,-10.21757 c 3.91246,-0.64032 10.99699,-3.98506 11.73992,-1.91318 1.95892,9.20058 -8.84859,14.2343 -13.3907,17.1746 -0.91564,1.19893 6.83615,0.49029 5.64249,4.90452 -8.58604,9.86946 -16.13069,8.16569 -26.87818,9.64775 z"
       id="path183360"
       sodipodi:nodetypes="ccccccc" />
    <path
       style="font-variation-settings:normal;opacity:1;vector-effect:none;fill:#b7965b;fill-opacity:1;stroke:#000000;stroke-width:1.04128px;stroke-linecap:butt;stroke-linejoin:miter;stroke-miterlimit:4;stroke-dasharray:none;stroke-dashoffset:0;stroke-opacity:1;stop-color:#000000;stop-opacity:1"
       d="m 172.80281,163.96298 c 2.41261,-2.1216 10.34401,-4.78748 14.06194,-4.58698 0.98423,-1.76583 -10.76245,-5.85629 -10.09659,-6.94543 0.95496,-1.64454 19.66896,-7.79739 18.25452,-8.91675 l -10.19183,-1.37011 -13.87633,7.15774 c 0.82653,3.31097 0.83552,15.25051 1.84829,14.66153 z"
       id="path185853"
       sodipodi:nodetypes="ccccccc" />
    <path
       style="font-variation-settings:normal;opacity:1;vector-effect:none;fill:#000000;fill-opacity:1;stroke:#000000;stroke-width:1.04128px;stroke-linecap:butt;stroke-linejoin:miter;stroke-miterlimit:4;stroke-dasharray:none;stroke-dashoffset:0;stroke-opacity:1;stop-color:#000000;stop-opacity:1"
       d="m 49.332976,144.17477 c -1.092313,7.78654 -17.919444,9.64563 -25.893508,0.26089 -3.454393,0.2133 -4.782997,9.84902 3.715321,18.41432 1.361151,1.61824 -11.138445,-0.0888 -11.301888,6.80612 0.791282,3.87858 3.434439,7.41192 9.884183,10.23566 l 7.59995,0.43976 8.565694,-3.94138 7.065776,-1.01939 8.273795,1.63604 z"
       id="path193936"
       sodipodi:nodetypes="cccccccccc" />
    <path
       style="font-variation-settings:normal;opacity:1;vector-effect:none;fill:#e0bb6f;fill-opacity:1;stroke:none;stroke-width:1.04128px;stroke-linecap:butt;stroke-linejoin:miter;stroke-miterlimit:4;stroke-dasharray:none;stroke-dashoffset:0;stroke-opacity:1;stop-color:#000000;stop-opacity:1"
       d="m 48.928244,151.66271 c -2.968904,5.97116 -13.901401,5.10338 -22.49378,3.24771 1.268351,8.21971 16.184298,10.67291 15.231697,11.49349 -0.676679,2.54365 -3.003417,0.21162 -8.312717,1.02704 l -11.17957,2.87297 c -1.361703,0.24948 6.671708,6.32584 14.853412,6.03513 2.232639,-2.21383 4.131661,-7.50691 17.722942,-2.05703 0.564318,0.44172 -5.103588,-23.76987 -5.821984,-22.61931 z"
       id="path195551"
       sodipodi:nodetypes="cccccccc" />
    <path
       style="font-variation-settings:normal;opacity:1;vector-effect:none;fill:#000000;fill-opacity:1;stroke:#000000;stroke-width:1.04128px;stroke-linecap:butt;stroke-linejoin:miter;stroke-miterlimit:4;stroke-dasharray:none;stroke-dashoffset:0;stroke-opacity:1;stop-color:#000000;stop-opacity:1"
       d="M 173.8157,122.50677 C 134.18581,125.77205 78.310423,109.86941 55.42549,132.89193 L 39.363469,143.68086 C 29.057983,100.44503 89.009503,76.289302 106.70399,60.467267 l 37.0275,7.314362 c 11.81218,1.072651 17.45985,9.112288 21.89448,18.522899 l 10.82077,19.874832 c 0.35616,8.249 -1.03489,12.52168 -2.63104,16.32741 z"
       id="path226716"
       sodipodi:nodetypes="cccccccc" />
    <path
       style="font-variation-settings:normal;opacity:1;vector-effect:none;fill:#486a38;fill-opacity:1;stroke:none;stroke-width:1.04128px;stroke-linecap:butt;stroke-linejoin:miter;stroke-miterlimit:4;stroke-dasharray:none;stroke-dashoffset:0;stroke-opacity:1;stop-color:#000000;stop-opacity:1"
       d="M 166.83442,109.83349 C 163.98434,99.683835 158.44729,91.883601 154.23801,82.9224 151.4303,78.68598 150.92633,73.488537 139.95774,72.656494 l -27.38706,-7.191533 c -18.000789,19.788121 -37.434911,31.323007 -56.6902,43.887529 -3.987268,7.99595 -6.255014,16.17244 -7.716717,24.43355 8.928709,-9.24167 19.927286,-15.28264 33.214111,-17.78525 16.54511,-5.8741 37.658416,-2.77664 57.258966,-2.6501 z"
       id="path229631"
       sodipodi:nodetypes="ccccccccc" />
    <path
       style="font-variation-settings:normal;opacity:1;vector-effect:none;fill:#010201;fill-opacity:1;stroke:#000000;stroke-width:1.04128px;stroke-linecap:butt;stroke-linejoin:miter;stroke-miterlimit:4;stroke-dasharray:none;stroke-dashoffset:0;stroke-opacity:1;stop-color:#000000;stop-opacity:1"
       d="m 115.36272,105.16159 c 2.93313,4.11856 4.48512,3.32488 5.17648,-1.81702 4.52352,-0.8169 5.21398,-0.87203 0.13302,-6.43201 -1.34277,-2.804484 1.97935,-5.8254 3.78836,-4.969146 5.164,3.666374 4.34604,-0.545007 4.44155,-1.682154 -0.29792,-4.7039 -5.5267,-3.751709 -8.56758,-4.674821 -1.66411,-3.013457 -5.19871,-8.435176 -6.41696,-7.842442 -4.1395,3.3223 -1.99608,11.223945 -3.10303,10.986682 -2.50313,0.32429 -5.84654,0.06812 -6.47206,5.055858 0.063,0.978304 1.46064,2.943349 3.967,2.467199 3.85795,-1.837471 4.57607,0.398546 4.68492,3.425007 -1.78571,2.419047 -8.32853,5.604977 2.3683,5.482847 z"
       id="path240573"
       sodipodi:nodetypes="cccccccccccc" />
    <path
       style="font-variation-settings:normal;opacity:1;vector-effect:none;fill:#000000;fill-opacity:1;stroke:#000000;stroke-width:1.04128px;stroke-linecap:butt;stroke-linejoin:miter;stroke-miterlimit:4;stroke-dasharray:none;stroke-dashoffset:0;stroke-opacity:1;stop-color:#000000;stop-opacity:1"
       d="m 55.42549,132.89193 c 60.54445,42.42325 91.6928,20.86299 118.39021,-10.38516 l -91.314502,-3.83929 c -9.511368,4.3888 -20.084707,8.00706 -27.075708,14.22445 z"
       id="path272969"
       sodipodi:nodetypes="cccc" />
    <path
       style="font-variation-settings:normal;opacity:1;vector-effect:none;fill:#463e37;fill-opacity:1;stroke:#000000;stroke-width:1.04128px;stroke-linecap:butt;stroke-linejoin:miter;stroke-miterlimit:4;stroke-dasharray:none;stroke-dashoffset:0;stroke-opacity:1;stop-color:#000000;stop-opacity:1"
       d="m 159.52889,128.39003 c -25.32076,1.3177 -50.28068,-3.47752 -75.314663,-7.01787 -9.573628,-0.75817 -15.263772,3.39043 -21.854998,6.40054 51.860451,29.19207 77.708981,19.65956 97.169661,0.61733 z"
       id="path273262"
       sodipodi:nodetypes="cccc" />
  </g>
</svg>
