<?xml version="1.0" encoding="UTF-8" standalone="no"?>
<svg
   width="208.30066mm"
   height="208.30066mm"
   viewBox="0 0 208.30066 208.30066"
   version="1.1"
   id="svg6"
   inkscape:version="1.1-dev (0df1fa2914, 2020-11-14, custom)"
   sodipodi:docname="HS.svg"
   xmlns:inkscape="http://www.inkscape.org/namespaces/inkscape"
   xmlns:sodipodi="http://sodipodi.sourceforge.net/DTD/sodipodi-0.dtd"
   xmlns="http://www.w3.org/2000/svg"
   xmlns:svg="http://www.w3.org/2000/svg">
  <defs
     id="defs2" />
  <sodipodi:namedview
     id="base"
     pagecolor="#ffffff"
     bordercolor="#666666"
     borderopacity="1.0"
     inkscape:pageopacity="0.0"
     inkscape:pageshadow="2"
     inkscape:zoom="0.70710678"
     inkscape:cx="233.34524"
     inkscape:cy="350.72496"
     inkscape:document-units="mm"
     inkscape:current-layer="layer5"
     showgrid="false"
     inkscape:window-width="1920"
     inkscape:window-height="1044"
     inkscape:window-x="0"
     inkscape:window-y="36"
     inkscape:window-maximized="1"
     fit-margin-top="0"
     fit-margin-left="0"
     fit-margin-right="0"
     fit-margin-bottom="0" />
  <g
     inkscape:groupmode="layer"
     id="layer5"
     inkscape:label="Warstwa 2"
     style="display:inline"
     transform="translate(-1.9501261,-37.964424)">
    <rect
       style="fill:#393185;fill-opacity:1;fill-rule:evenodd;stroke:#ffffff;stroke-width:0;stroke-linecap:round;stroke-linejoin:round;stroke-opacity:1"
       id="rect22438"
       width="208.30066"
       height="208.30066"
       x="1.9501266"
       y="37.964424"
       ry="28.657087"
       rx="28.657087" />
  </g>
  <g
     inkscape:groupmode="layer"
     id="layer3"
     inkscape:label="Warstwa 3"
     style="display:inline;opacity:1"
     transform="translate(-1.9501261,-37.964424)">
    <path
       style="font-variation-settings:normal;opacity:1;vector-effect:none;fill:#ffffff;fill-opacity:1;stroke:none;stroke-width:0.264583px;stroke-linecap:butt;stroke-linejoin:miter;stroke-miterlimit:4;stroke-dasharray:none;stroke-dashoffset:0;stroke-opacity:1;stop-color:#000000;stop-opacity:1"
       d="m 99.501596,217.71999 c 24.457144,3.13223 53.635594,-5.47479 76.022194,-49.05962 l 10.49037,0.83708 C 166.59,231.04463 120.60247,230.55374 95.399656,228.01549 Z"
       id="path3617"
       sodipodi:nodetypes="ccccc" />
    <path
       style="font-variation-settings:normal;opacity:1;vector-effect:none;fill:#393185;fill-opacity:1;stroke:#ffffff;stroke-width:0.264583px;stroke-linecap:butt;stroke-linejoin:miter;stroke-miterlimit:4;stroke-dasharray:none;stroke-dashoffset:0;stroke-opacity:1;stop-color:#000000;stop-opacity:1"
       d="m 85.753283,231.40105 33.583477,-70.77562 -11.44037,-21.0924 z"
       id="path5281" />
    <path
       style="font-variation-settings:normal;display:inline;vector-effect:none;fill:#fefefe;fill-opacity:1;stroke:none;stroke-width:0.264583px;stroke-linecap:butt;stroke-linejoin:miter;stroke-miterlimit:4;stroke-dasharray:none;stroke-dashoffset:0;stroke-opacity:1;stop-color:#000000"
       d="m 85.753281,231.40105 1.893668,-79.38782 20.249441,-12.4802 z"
       id="path22475" />
    <path
       style="font-variation-settings:normal;display:inline;vector-effect:none;fill:#393185;fill-opacity:1;stroke:#ffffff;stroke-width:0.264583px;stroke-linecap:butt;stroke-linejoin:miter;stroke-miterlimit:4;stroke-dasharray:none;stroke-dashoffset:0;stroke-opacity:1;stop-color:#000000"
       d="m 130.03949,47.66501 -33.944063,72.40555 11.800963,19.46247 z"
       id="path5281-3"
       sodipodi:nodetypes="cccc" />
    <path
       style="font-variation-settings:normal;display:inline;vector-effect:none;fill:#fefefe;fill-opacity:1;stroke:none;stroke-width:0.264583px;stroke-linecap:butt;stroke-linejoin:miter;stroke-miterlimit:4;stroke-dasharray:none;stroke-dashoffset:0;stroke-opacity:1;stop-color:#000000"
       d="m 130.03949,47.66501 -3.26951,81.58871 -18.87359,10.27931 z"
       id="path22475-6"
       sodipodi:nodetypes="cccc" />
    <path
       style="font-variation-settings:normal;display:inline;vector-effect:none;fill:#393185;fill-opacity:1;stroke:#ffffff;stroke-width:0.264583px;stroke-linecap:butt;stroke-linejoin:miter;stroke-miterlimit:4;stroke-dasharray:none;stroke-dashoffset:0;stroke-opacity:1;stop-color:#000000"
       d="m 199.76441,161.67614 -72.99443,-32.42242 -18.87359,10.27931 z"
       id="path5281-3-7"
       sodipodi:nodetypes="cccc" />
    <path
       style="font-variation-settings:normal;display:inline;vector-effect:none;fill:#fefefe;fill-opacity:1;stroke:none;stroke-width:0.264583px;stroke-linecap:butt;stroke-linejoin:miter;stroke-miterlimit:4;stroke-dasharray:none;stroke-dashoffset:0;stroke-opacity:1;stop-color:#000000"
       d="m 199.76441,161.67614 -80.42765,-1.05071 -11.44037,-21.0924 z"
       id="path22475-6-5"
       sodipodi:nodetypes="cccc" />
    <path
       style="font-variation-settings:normal;display:inline;vector-effect:none;fill:#393185;fill-opacity:1;stroke:#ffffff;stroke-width:0.264583px;stroke-linecap:butt;stroke-linejoin:miter;stroke-miterlimit:4;stroke-dasharray:none;stroke-dashoffset:0;stroke-opacity:1;stop-color:#000000"
       d="m 16.028371,117.38992 71.618578,34.62331 20.249441,-12.4802 z"
       id="path5281-3-7-3"
       sodipodi:nodetypes="cccc" />
    <path
       style="font-variation-settings:normal;display:inline;vector-effect:none;fill:#fefefe;fill-opacity:1;stroke:none;stroke-width:0.264583px;stroke-linecap:butt;stroke-linejoin:miter;stroke-miterlimit:4;stroke-dasharray:none;stroke-dashoffset:0;stroke-opacity:1;stop-color:#000000"
       d="m 16.028371,117.38992 80.067056,2.68064 11.800963,19.46247 z"
       id="path22475-6-5-5"
       sodipodi:nodetypes="cccc" />
    <path
       style="font-variation-settings:normal;opacity:1;vector-effect:none;fill:#fefefe;fill-opacity:1;stroke:#ffffff;stroke-width:0.264583px;stroke-linecap:butt;stroke-linejoin:miter;stroke-miterlimit:4;stroke-dasharray:none;stroke-dashoffset:0;stroke-opacity:1;stop-color:#000000;stop-opacity:1"
       d="m 180.63742,147.08028 10.2035,4.91126 c -0.40491,-50.01911 -26.12705,-73.189575 -56.2683,-85.450875 16.657,9.617168 45.19033,26.260837 46.0648,80.539615 z"
       id="path40007"
       sodipodi:nodetypes="cccc" />
    <path
       style="font-variation-settings:normal;opacity:1;vector-effect:none;fill:#fefefe;fill-opacity:1;stroke:#ffffff;stroke-width:0.264583px;stroke-linecap:butt;stroke-linejoin:miter;stroke-miterlimit:4;stroke-dasharray:none;stroke-dashoffset:0;stroke-opacity:1;stop-color:#000000;stop-opacity:1"
       d="M 80.300236,220.32733 81.1234,211.79247 C 57.909918,195.77791 41.742294,174.98122 46.244853,141.47284 c -11.341661,36.82093 13.067983,62.85315 34.055383,78.85449 z"
       id="path61869"
       sodipodi:nodetypes="cccc" />
    <path
       style="font-variation-settings:normal;vector-effect:none;fill:#fefefe;fill-opacity:1;stroke:none;stroke-width:0.264583px;stroke-linecap:butt;stroke-linejoin:miter;stroke-miterlimit:4;stroke-dasharray:none;stroke-dashoffset:0;stroke-opacity:1;stop-color:#000000"
       d="m 22.010822,103.31948 17.758471,-37.8218 14.04304,0.0132 -5.58538,12.747193 14.947336,2.65e-4 6.008645,-12.181702 14.121315,-0.03464 -16.801726,37.336714 -15.246385,-0.0798 7.142337,-14.695986 -14.719265,-0.02138 -6.54998,14.778236 z"
       id="path80190" />
    <path
       style="font-variation-settings:normal;opacity:1;vector-effect:none;fill:#fefefe;fill-opacity:1;stroke:none;stroke-width:0.264583px;stroke-linecap:butt;stroke-linejoin:miter;stroke-miterlimit:4;stroke-dasharray:none;stroke-dashoffset:0;stroke-opacity:1;stop-color:#000000;stop-opacity:1"
       d="m 81.562936,90.429209 -9.098883,-0.03075 -4.717216,10.419821 c 8.302474,5.67281 33.709923,6.13974 41.795173,-10.231763 1.9925,-5.473058 -2.87931,-8.780281 -10.715342,-11.15223 -7.084656,-0.564123 -10.146726,-1.952176 -8.520785,-4.848438 3.857534,-1.226091 10.259967,-3.074075 9.896037,2.955488 l 14.49756,-0.169868 c 0.22341,-4.656742 1.12603,-9.522906 -7.69363,-11.391408 -8.80946,-0.898282 -17.501344,-0.659052 -25.688841,4.45997 l -5.511906,12.355661 c 2.353438,2.858096 7.058604,5.490407 17.113229,7.609125 2.994984,3.619431 0.203834,5.670279 -6.021898,6.790034 -6.207526,-0.238385 -6.271772,-3.273791 -5.333498,-6.765642 z"
       id="path97964"
       sodipodi:nodetypes="cccccccccccccc" />
  </g>
  <g
     inkscape:groupmode="layer"
     id="layer6"
     inkscape:label="Warstwa 4"
     style="display:inline"
     transform="translate(-1.9501261,-37.964424)">
    <path
       style="font-variation-settings:normal;opacity:1;vector-effect:none;fill:#393185;fill-opacity:1;stroke:none;stroke-width:0.264583px;stroke-linecap:butt;stroke-linejoin:miter;stroke-miterlimit:4;stroke-dasharray:none;stroke-dashoffset:0;stroke-opacity:1;stop-color:#000000;stop-opacity:1"
       d="m 68.030882,87.732286 c -1.134567,-4.362283 -2.892507,-2.900387 -3.926468,-1.910618 -0.970028,0.928568 -1.990209,2.183369 -3.089609,1.803645 -0.830831,-0.399264 -1.547059,-0.781695 -1.693276,-2.679858 0.867744,-5.121695 8.554109,-7.707611 10.489285,-3.610023 l 0.471972,5.700588 c -1.627354,2.142666 -2.067128,0.993801 -2.251904,0.696266 z"
       id="path138434"
       sodipodi:nodetypes="csccccc" />
    <path
       style="font-variation-settings:normal;opacity:1;vector-effect:none;fill:#393185;fill-opacity:1;stroke:none;stroke-width:0.264583px;stroke-linecap:butt;stroke-linejoin:miter;stroke-miterlimit:4;stroke-dasharray:none;stroke-dashoffset:0;stroke-opacity:1;stop-color:#000000;stop-opacity:1"
       d="m 71.170916,87.416803 1.765217,-0.154051 7.422031,-15.917503 c -5.222849,1.37939 -10.033134,3.518393 -9.187248,16.071554 z"
       id="path159459"
       sodipodi:nodetypes="cccc" />
    <path
       style="font-variation-settings:normal;opacity:1;vector-effect:none;fill:#393185;fill-opacity:1;stroke:none;stroke-width:0.165;stroke-linecap:butt;stroke-linejoin:miter;stroke-miterlimit:4;stroke-dasharray:none;stroke-dashoffset:0;stroke-opacity:1;stop-color:#000000;stop-opacity:1"
       d="m 71.825929,90.380247 -5.194755,0.0019 c -0.152218,-0.34969 -0.607339,-0.710351 0.0425,-1.030991 0.685918,-0.03537 1.147923,-0.13576 2.4647,0.01204 0.639171,-0.297515 1.296531,-0.562582 2.05541,-0.646557 1.067498,0.14658 0.564871,1.040773 0.632145,1.663608 z"
       id="path182977"
       sodipodi:nodetypes="cccccc" />
    <path
       style="font-variation-settings:normal;opacity:1;vector-effect:none;fill:#393185;fill-opacity:1;stroke:none;stroke-width:0.264583px;stroke-linecap:butt;stroke-linejoin:miter;stroke-miterlimit:4;stroke-dasharray:none;stroke-dashoffset:0;stroke-opacity:1;stop-color:#000000;stop-opacity:1"
       d="m 61.403385,93.387726 c 0.48103,0.75852 0.73115,1.768241 1.936181,1.739138 1.909197,-0.02008 3.184037,-1.931606 4.58365,-3.471097 l -1.725491,-0.08544 c -0.682314,1.279813 -1.501352,2.458999 -4.79434,1.817399 z"
       id="path189375"
       sodipodi:nodetypes="ccccc" />
    <path
       style="font-variation-settings:normal;opacity:1;vector-effect:none;fill:#393185;fill-opacity:1;stroke:none;stroke-width:0.165;stroke-linecap:butt;stroke-linejoin:miter;stroke-miterlimit:4;stroke-dasharray:none;stroke-dashoffset:0;stroke-opacity:1;stop-color:#000000;stop-opacity:1"
       d="m 67.104722,95.294817 c 0.72289,-1.281597 0.911716,-2.730991 2.98001,-3.589878 l 1.651029,0.04028 -4.102092,7.377729 C 66.74008,98.200756 65.490151,97.41468 65.32641,96.213696 c 0.209647,-0.708255 0.955845,-0.853577 1.778312,-0.918879 z"
       id="path208935"
       sodipodi:nodetypes="cccccc" />
  </g>
</svg>
