<?xml version="1.0" encoding="UTF-8" standalone="no"?>
<!-- Created with Inkscape (http://www.inkscape.org/) -->

<svg
   width="110.94955mm"
   height="110.94955mm"
   viewBox="0 0 110.94955 110.94955"
   version="1.1"
   id="svg182"
   inkscape:version="1.2-dev (5f01de93b4, 2021-08-06, custom)"
   sodipodi:docname="HZNP.svg"
   xmlns:inkscape="http://www.inkscape.org/namespaces/inkscape"
   xmlns:sodipodi="http://sodipodi.sourceforge.net/DTD/sodipodi-0.dtd"
   xmlns="http://www.w3.org/2000/svg"
   xmlns:svg="http://www.w3.org/2000/svg">
  <sodipodi:namedview
     id="namedview184"
     pagecolor="#505050"
     bordercolor="#eeeeee"
     borderopacity="1"
     inkscape:pageshadow="0"
     inkscape:pageopacity="0"
     inkscape:pagecheckerboard="0"
     inkscape:document-units="mm"
     showgrid="false"
     inkscape:zoom="1.5848993"
     inkscape:cx="117.67309"
     inkscape:cy="169.41139"
     inkscape:window-width="1920"
     inkscape:window-height="1080"
     inkscape:window-x="0"
     inkscape:window-y="0"
     inkscape:window-maximized="1"
     inkscape:current-layer="layer4"
     width="297mm"
     fit-margin-top="10"
     lock-margins="true"
     fit-margin-left="10"
     fit-margin-right="10"
     fit-margin-bottom="10"
     height="110.94955mm" />
  <defs
     id="defs179">
    <linearGradient
       id="linearGradient92473"
       inkscape:swatch="solid">
      <stop
         style="stop-color:#d4bc72;stop-opacity:1;"
         offset="0"
         id="stop92471" />
    </linearGradient>
    <clipPath
       clipPathUnits="userSpaceOnUse"
       id="clipPath133922">
      <path
         style="font-variation-settings:normal;opacity:1;vector-effect:none;fill:none;fill-opacity:1;stroke:#f1da85;stroke-width:1.949;stroke-linecap:round;stroke-linejoin:bevel;stroke-miterlimit:4;stroke-dasharray:none;stroke-dashoffset:0;stroke-opacity:1;stop-color:#000000;stop-opacity:1"
         d="M 102.54097,212.43177 73.042375,194.22534 c 0,0 -13.130318,-11.57085 -9.833139,-26.46494 3.297174,-14.89408 9.640631,-20.76459 4.033602,-34.37385 l 13.281356,-15.55382 c 0,0 19.11318,8.64715 41.491486,1.17258 l 12.56587,15.21481 c 0,0 -4.01536,5.42672 1.18928,20.04458 5.20462,14.6179 7.80432,20.96738 2.51372,32.38198"
         id="path133924"
         sodipodi:nodetypes="ccsccccsc" />
    </clipPath>
    <clipPath
       clipPathUnits="userSpaceOnUse"
       id="clipPath146680">
      <path
         style="font-variation-settings:normal;opacity:1;vector-effect:none;fill:none;fill-opacity:1;stroke:#f1da85;stroke-width:1.949;stroke-linecap:round;stroke-linejoin:bevel;stroke-miterlimit:4;stroke-dasharray:none;stroke-dashoffset:0;stroke-opacity:1;stop-color:#000000;stop-opacity:1"
         d="M 102.54097,212.43177 73.042375,194.22534 c 0,0 -13.130318,-11.57085 -9.833139,-26.46494 3.297174,-14.89408 9.640631,-20.76459 4.033602,-34.37385 l 13.281356,-15.55382 c 0,0 19.11318,8.64715 41.491486,1.17258 l 12.56587,15.21481 c 0,0 -4.01536,5.42672 1.18928,20.04458 5.20462,14.6179 7.80432,20.96738 2.51372,32.38198"
         id="path146682"
         sodipodi:nodetypes="ccsccccsc" />
    </clipPath>
    <clipPath
       clipPathUnits="userSpaceOnUse"
       id="clipPath133922-0">
      <path
         style="font-variation-settings:normal;opacity:1;vector-effect:none;fill:none;fill-opacity:1;stroke:#f1da85;stroke-width:1.949;stroke-linecap:round;stroke-linejoin:bevel;stroke-miterlimit:4;stroke-dasharray:none;stroke-dashoffset:0;stroke-opacity:1;stop-color:#000000;stop-opacity:1"
         d="M 102.54097,212.43177 73.042375,194.22534 c 0,0 -13.130318,-11.57085 -9.833139,-26.46494 3.297174,-14.89408 9.640631,-20.76459 4.033602,-34.37385 l 13.281356,-15.55382 c 0,0 19.11318,8.64715 41.491486,1.17258 l 12.56587,15.21481 c 0,0 -4.01536,5.42672 1.18928,20.04458 5.20462,14.6179 7.80432,20.96738 2.51372,32.38198"
         id="path133924-0"
         sodipodi:nodetypes="ccsccccsc" />
    </clipPath>
    <clipPath
       clipPathUnits="userSpaceOnUse"
       id="clipPath146680-1">
      <path
         style="font-variation-settings:normal;opacity:1;vector-effect:none;fill:none;fill-opacity:1;stroke:#f1da85;stroke-width:1.949;stroke-linecap:round;stroke-linejoin:bevel;stroke-miterlimit:4;stroke-dasharray:none;stroke-dashoffset:0;stroke-opacity:1;stop-color:#000000;stop-opacity:1"
         d="M 102.54097,212.43177 73.042375,194.22534 c 0,0 -13.130318,-11.57085 -9.833139,-26.46494 3.297174,-14.89408 9.640631,-20.76459 4.033602,-34.37385 l 13.281356,-15.55382 c 0,0 19.11318,8.64715 41.491486,1.17258 l 12.56587,15.21481 c 0,0 -4.01536,5.42672 1.18928,20.04458 5.20462,14.6179 7.80432,20.96738 2.51372,32.38198"
         id="path146682-7"
         sodipodi:nodetypes="ccsccccsc" />
    </clipPath>
    <clipPath
       clipPathUnits="userSpaceOnUse"
       id="clipPath133922-0-1">
      <path
         style="font-variation-settings:normal;opacity:1;vector-effect:none;fill:none;fill-opacity:1;stroke:#f1da85;stroke-width:1.949;stroke-linecap:round;stroke-linejoin:bevel;stroke-miterlimit:4;stroke-dasharray:none;stroke-dashoffset:0;stroke-opacity:1;stop-color:#000000;stop-opacity:1"
         d="M 102.54097,212.43177 73.042375,194.22534 c 0,0 -13.130318,-11.57085 -9.833139,-26.46494 3.297174,-14.89408 9.640631,-20.76459 4.033602,-34.37385 l 13.281356,-15.55382 c 0,0 19.11318,8.64715 41.491486,1.17258 l 12.56587,15.21481 c 0,0 -4.01536,5.42672 1.18928,20.04458 5.20462,14.6179 7.80432,20.96738 2.51372,32.38198"
         id="path133924-0-3"
         sodipodi:nodetypes="ccsccccsc" />
    </clipPath>
    <clipPath
       clipPathUnits="userSpaceOnUse"
       id="clipPath146680-1-2">
      <path
         style="font-variation-settings:normal;opacity:1;vector-effect:none;fill:none;fill-opacity:1;stroke:#f1da85;stroke-width:1.949;stroke-linecap:round;stroke-linejoin:bevel;stroke-miterlimit:4;stroke-dasharray:none;stroke-dashoffset:0;stroke-opacity:1;stop-color:#000000;stop-opacity:1"
         d="M 102.54097,212.43177 73.042375,194.22534 c 0,0 -13.130318,-11.57085 -9.833139,-26.46494 3.297174,-14.89408 9.640631,-20.76459 4.033602,-34.37385 l 13.281356,-15.55382 c 0,0 19.11318,8.64715 41.491486,1.17258 l 12.56587,15.21481 c 0,0 -4.01536,5.42672 1.18928,20.04458 5.20462,14.6179 7.80432,20.96738 2.51372,32.38198"
         id="path146682-7-2"
         sodipodi:nodetypes="ccsccccsc" />
    </clipPath>
  </defs>
  <g
     inkscape:groupmode="layer"
     id="layer2"
     inkscape:label="Warstwa 2"
     style="display:inline;opacity:1"
     transform="translate(-49.230177,-146.78964)">
    <path
       style="fill:#fce892;fill-opacity:1;stroke:none;stroke-width:0.264583px;stroke-linecap:butt;stroke-linejoin:miter;stroke-opacity:1"
       d="M 105.43054,247.73919 83.728328,235.30214 c -8.932484,-4.27272 -13.879764,-11.7336 -16.527076,-21.03446 -0.309173,-7.51271 1.533422,-14.74475 4.841266,-21.78568 2.634018,-8.29661 1.887592,-15.00864 -0.500822,-20.95099 l 12.437041,-14.27339 c 14.551842,5.31564 28.977913,3.44323 40.831183,-0.46798 l 11.58802,16.49424 c -1.38112,5.74971 -1.65695,11.5576 1.16858,17.52871 3.78629,9.8763 8.30956,19.43675 1.41899,33.88885 -7.43853,7.42284 -20.70658,16.09779 -33.55497,23.03775 z"
       id="path485"
       sodipodi:nodetypes="ccccccccccc" />
  </g>
  <g
     inkscape:groupmode="layer"
     id="layer3"
     inkscape:label="Warstwa 3"
     style="display:inline"
     transform="translate(-49.230177,-146.78964)">
    <path
       style="fill:#130aa4;fill-opacity:1;stroke:none;stroke-width:0.264583px;stroke-linecap:butt;stroke-linejoin:miter;stroke-opacity:1"
       d="m 104.05523,164.25894 c 7.11483,-0.27279 13.99989,-0.77536 19.71344,-2.44942 l 9.41405,10.71254 c -1.09603,4.93414 -1.47603,9.59551 0.70827,13.28 0.52464,3.67988 1.24076,7.33582 3.01013,10.8601 4.67861,12.48922 3.6068,19.22802 0.94436,24.37619 l -5.37103,4.13156 -18.06081,-17.88374 c -0.0214,-3.54075 0.17026,-6.95485 3.01014,-8.79432 2.8007,-0.51511 3.7609,3.80112 5.43004,6.25636 2.0277,2.43184 4.17507,4.71882 7.6729,5.37103 0.66386,-3.43058 -0.63725,-6.93976 -1.88871,-10.44695 0.86542,-9.58427 -0.33739,-15.86485 -4.50596,-17.26889 -3.34482,-1.47838 -6.84397,-1.27024 -10.26436,0.005 -2.49872,-5.9084 -6.13597,-11.9465 -9.81246,-18.14934 z"
       id="path19912"
       sodipodi:nodetypes="cccccccccccccccc" />
    <path
       style="fill:#a02422;fill-opacity:1;stroke:none;stroke-width:0.264583px;stroke-linecap:butt;stroke-linejoin:miter;stroke-opacity:1"
       d="m 76.257757,225.11879 10.225084,-9.47385 11.184994,-9.68253 c -1.417732,-3.52425 -2.19317,-8.42066 -5.216883,-8.51394 -1.569593,0.57021 -4.271577,5.54417 -6.468932,8.55568 l -5.133409,3.58921 c 1.015239,-4.73426 1.104002,-9.17596 0.626025,-13.43868 -1.014677,-7.6907 -0.05751,-12.69252 3.255333,-14.48206 2.646822,-1.34146 5.645158,-1.22664 9.390382,1.98242 l 2.337163,-1.25206 c -0.464649,-3.9843 1.699578,-7.53046 3.839606,-11.08065 0.96143,-2.30766 2.42101,-4.47945 2.2537,-7.09495 -6.119636,-0.86145 -12.208494,-1.74856 -17.4035,-3.38054 -2.536014,3.06755 -6.703259,8.65651 -9.473854,12.01969 0.538956,5.33418 2.204009,9.39511 -0.208676,16.36013 l -2.629308,8.76436 c -1.780695,4.86213 -2.78572,9.80183 -2.211956,14.89941 0.91563,4.13112 2.013621,8.25181 5.634231,12.22836 z"
       id="path43706"
       sodipodi:nodetypes="cccccccccccccccccc" />
    <path
       style="fill:#ffffff;fill-opacity:1;stroke:none;stroke-width:0.264583px;stroke-linecap:butt;stroke-linejoin:miter;stroke-opacity:1"
       d="m 78.386242,226.62126 c 4.223545,-2.43104 7.812189,-6.04119 10.934581,-10.51723 l 6.531533,-5.73857 2.775373,-1.85721 -2.045009,3.83962 16.52707,0.54255 c 0,0 -1.2204,-2.76822 -1.53075,-4.06139 l 18.47517,18.6478 c -4.62062,4.6706 -10.79192,8.50622 -17.44524,12.08229 l -7.26191,4.42391 C 95.275262,238.73821 82.665452,231.42358 78.386242,226.62126 Z"
       id="path82834"
       sodipodi:nodetypes="ccccccccccc" />
  </g>
  <g
     inkscape:groupmode="layer"
     id="layer4"
     inkscape:label="Warstwa 4"
     transform="translate(-49.230177,-146.78964)">
    <path
       style="fill:#e5c56f;fill-opacity:1;stroke:none;stroke-width:0.264583px;stroke-linecap:butt;stroke-linejoin:miter;stroke-opacity:1"
       d="m 104.17848,236.53333 3.63095,-7.07409 8.72263,-1.75287 -6.38546,-5.80117 1.41899,-8.26354 -6.80282,4.46565 -6.761058,-3.71442 0.16694,7.80445 -5.926377,5.25862 7.637498,1.33552 z"
       id="path85259" />
    <path
       style="fill:none;fill-opacity:1;stroke:#b9833d;stroke-width:0.765;stroke-linecap:butt;stroke-linejoin:miter;stroke-miterlimit:4;stroke-dasharray:none;stroke-opacity:1"
       d="m 85.433724,202.8595 c 3.165704,-11.07409 6.60323,-19.8703 13.634132,1.44604"
       id="path112750"
       sodipodi:nodetypes="cc" />
    <path
       style="fill:none;stroke:#b9833d;stroke-width:0.865;stroke-linecap:butt;stroke-linejoin:miter;stroke-miterlimit:4;stroke-dasharray:none;stroke-opacity:1"
       d="m 101.28118,204.80723 c 0.35749,-7.76214 -3.184028,-14.68878 -5.961229,-21.77921"
       id="path143056"
       sodipodi:nodetypes="cc" />
    <path
       style="fill:none;stroke:#b9833d;stroke-width:0.765;stroke-linecap:butt;stroke-linejoin:miter;stroke-miterlimit:4;stroke-dasharray:none;stroke-opacity:1"
       d="m 108.27533,204.57114 c -0.0945,-7.48551 2.58599,-14.83227 5.59236,-22.16274"
       id="path143240"
       sodipodi:nodetypes="cc" />
    <path
       style="fill:none;stroke:#b9833d;stroke-width:0.765;stroke-linecap:butt;stroke-linejoin:miter;stroke-miterlimit:4;stroke-dasharray:none;stroke-opacity:1"
       d="m 111.46253,204.03994 c 3.78116,-15.72515 8.47591,-15.33809 13.98827,-0.5312"
       id="path143387"
       sodipodi:nodetypes="cc" />
    <path
       style="fill:none;stroke:#b9833d;stroke-width:0.765;stroke-linecap:butt;stroke-linejoin:miter;stroke-miterlimit:4;stroke-dasharray:none;stroke-opacity:1"
       d="m 98.627729,208.50825 12.951311,0.32078"
       id="path143573" />
    <path
       style="fill:none;stroke:#b9833d;stroke-width:0.765;stroke-linecap:butt;stroke-linejoin:miter;stroke-miterlimit:4;stroke-dasharray:none;stroke-opacity:1"
       d="m 98.627729,208.50825 12.951311,0.32078"
       id="path143632" />
  </g>
</svg>
