<?xml version="1.0" encoding="UTF-8" standalone="no"?>
<svg
   width="210mm"
   height="297mm"
   viewBox="0 0 210 297"
   version="1.1"
   id="svg285"
   inkscape:version="1.1-dev (0df1fa2914, 2020-11-14, custom)"
   sodipodi:docname="HZNP.svg"
   xmlns:inkscape="http://www.inkscape.org/namespaces/inkscape"
   xmlns:sodipodi="http://sodipodi.sourceforge.net/DTD/sodipodi-0.dtd"
   xmlns="http://www.w3.org/2000/svg"
   xmlns:svg="http://www.w3.org/2000/svg">
  <defs
     id="defs281">
    <linearGradient
       id="linearGradient92473"
       inkscape:swatch="solid">
      <stop
         style="stop-color:#d4bc72;stop-opacity:1;"
         offset="0"
         id="stop92471" />
    </linearGradient>
    <clipPath
       clipPathUnits="userSpaceOnUse"
       id="clipPath133922">
      <path
         style="font-variation-settings:normal;opacity:1;vector-effect:none;fill:none;fill-opacity:1;stroke:#f1da85;stroke-width:1.949;stroke-linecap:round;stroke-linejoin:bevel;stroke-miterlimit:4;stroke-dasharray:none;stroke-dashoffset:0;stroke-opacity:1;stop-color:#000000;stop-opacity:1"
         d="M 102.54097,212.43177 73.042375,194.22534 c 0,0 -13.130318,-11.57085 -9.833139,-26.46494 3.297174,-14.89408 9.640631,-20.76459 4.033602,-34.37385 l 13.281356,-15.55382 c 0,0 19.11318,8.64715 41.491486,1.17258 l 12.56587,15.21481 c 0,0 -4.01536,5.42672 1.18928,20.04458 5.20462,14.6179 7.80432,20.96738 2.51372,32.38198"
         id="path133924"
         sodipodi:nodetypes="ccsccccsc" />
    </clipPath>
    <clipPath
       clipPathUnits="userSpaceOnUse"
       id="clipPath146680">
      <path
         style="font-variation-settings:normal;opacity:1;vector-effect:none;fill:none;fill-opacity:1;stroke:#f1da85;stroke-width:1.949;stroke-linecap:round;stroke-linejoin:bevel;stroke-miterlimit:4;stroke-dasharray:none;stroke-dashoffset:0;stroke-opacity:1;stop-color:#000000;stop-opacity:1"
         d="M 102.54097,212.43177 73.042375,194.22534 c 0,0 -13.130318,-11.57085 -9.833139,-26.46494 3.297174,-14.89408 9.640631,-20.76459 4.033602,-34.37385 l 13.281356,-15.55382 c 0,0 19.11318,8.64715 41.491486,1.17258 l 12.56587,15.21481 c 0,0 -4.01536,5.42672 1.18928,20.04458 5.20462,14.6179 7.80432,20.96738 2.51372,32.38198"
         id="path146682"
         sodipodi:nodetypes="ccsccccsc" />
    </clipPath>
  </defs>
  <sodipodi:namedview
     id="base"
     pagecolor="#ffffff"
     bordercolor="#666666"
     borderopacity="1.0"
     inkscape:pageopacity="0.0"
     inkscape:pageshadow="2"
     inkscape:zoom="0.7"
     inkscape:cx="-152.85714"
     inkscape:cy="505.71429"
     inkscape:document-units="mm"
     inkscape:current-layer="layer9"
     showgrid="false"
     inkscape:window-width="1920"
     inkscape:window-height="1044"
     inkscape:window-x="0"
     inkscape:window-y="36"
     inkscape:window-maximized="1" />
  <g
     inkscape:groupmode="layer"
     id="layer2"
     inkscape:label="Warstwa 2"
     style="display:inline">
    <path
       style="font-variation-settings:normal;opacity:1;vector-effect:none;fill:#a02422;fill-opacity:1;stroke:#f1da85;stroke-width:4.34849;stroke-linecap:round;stroke-linejoin:bevel;stroke-miterlimit:4;stroke-dasharray:none;stroke-dashoffset:0;stroke-opacity:1;stop-color:#000000;stop-opacity:1"
       d="m 110.47573,247.06759 -65.815507,-40.6211 c 0,0 -29.295577,-25.81618 -21.939114,-59.04696 7.356462,-33.23077 21.509602,-46.32871 8.999532,-76.692867 l 29.63256,-34.702746 c 0,0 42.644179,19.293 92.573329,2.61619 l 28.03621,33.946368 c 0,0 -8.95884,12.107773 2.65345,44.722245 11.61224,32.61458 17.41252,46.78116 5.60845,72.24874"
       id="path1148"
       sodipodi:nodetypes="ccsccccsc" />
    <path
       style="font-variation-settings:normal;opacity:1;vector-effect:none;fill:none;fill-opacity:1;stroke:#f1da85;stroke-width:4.34849;stroke-linecap:round;stroke-linejoin:bevel;stroke-miterlimit:4;stroke-dasharray:none;stroke-dashoffset:0;stroke-opacity:1;stop-color:#000000;stop-opacity:1"
       d="m 190.22464,189.53746 c 0,0 -57.92171,47.14092 -79.74891,57.53013"
       id="path1150" />
  </g>
  <g
     inkscape:groupmode="layer"
     id="g306"
     inkscape:label="Warstwa 2 kopia 2"
     style="display:inline">
    <path
       style="font-variation-settings:normal;opacity:1;vector-effect:none;fill:#130aa4;fill-opacity:1;stroke:none;stroke-width:4.34849;stroke-linecap:round;stroke-linejoin:bevel;stroke-miterlimit:4;stroke-dasharray:none;stroke-dashoffset:0;stroke-opacity:1;stop-color:#000000;stop-opacity:1"
       d="M 110.47573,247.06759 98.392376,191.25501 c 0,0 -7.330179,-3.17327 0.02628,-36.40405 7.356464,-33.23077 18.778114,-33.34246 6.268044,-63.70662 l 0.4018,-43.645208 c 0,0 20.56794,2.225702 47.60509,-6.63899 l 29.26915,31.706333 c 0,0 -8.95884,12.107773 2.65345,44.722245 11.61224,32.61458 17.41252,46.78116 5.60845,72.24874"
       id="path302"
       sodipodi:nodetypes="ccsccccsc" />
  </g>
  <g
     inkscape:groupmode="layer"
     id="layer6"
     inkscape:label="Warstwa 6"
     style="display:none">
    <path
       style="font-variation-settings:normal;opacity:1;vector-effect:none;fill:#130aa4;fill-opacity:1;stroke:#000000;stroke-width:0.264583px;stroke-linecap:butt;stroke-linejoin:miter;stroke-miterlimit:4;stroke-dasharray:none;stroke-dashoffset:0;stroke-opacity:1;stop-color:#000000;stop-opacity:1"
       d="m 103.15231,168.96308 -3.218564,-46.3517 35.038974,-3.93119 13.11678,65.91977 -16.67414,7.39807 -24.12444,-23.58962 z"
       id="path119550"
       clip-path="url(#clipPath133922)"
       transform="matrix(2.2311398,0,0,2.2311398,-118.30751,-226.89737)" />
  </g>
  <g
     inkscape:groupmode="layer"
     id="layer9"
     inkscape:label="Warstwa 9"
     style="display:inline">
    <path
       style="font-variation-settings:normal;opacity:1;vector-effect:none;fill:#e0dde2;fill-opacity:1;stroke:none;stroke-width:0.590322px;stroke-linecap:butt;stroke-linejoin:miter;stroke-miterlimit:4;stroke-dasharray:none;stroke-dashoffset:0;stroke-opacity:1;stop-color:#000000;stop-opacity:1"
       d="m 174.89852,201.47706 -58.39329,-56.8173 -22.267056,6.9054 -54.376172,49.72984 70.613728,45.77259 z"
       id="path177819" />
  </g>
  <g
     inkscape:groupmode="layer"
     id="layer7"
     inkscape:label="Warstwa 7"
     style="display:none">
    <path
       style="font-variation-settings:normal;opacity:1;vector-effect:none;fill:#a02422;fill-opacity:1;stroke:none;stroke-width:0.264581;stroke-linecap:butt;stroke-linejoin:miter;stroke-miterlimit:4;stroke-dasharray:none;stroke-dashoffset:0;stroke-opacity:1;stop-color:#000000;stop-opacity:1"
       d="m 103.15231,168.96308 -3.218564,-46.3517 -36.982233,-7.99542 -6.532475,74.77835 c 0,0 14.472769,2.52212 14.472769,2.52212 L 94.439874,169.331 Z"
       id="path133960"
       clip-path="url(#clipPath146680)"
       transform="matrix(2.6116776,0,0,2.6116776,-159.77834,-281.98265)" />
  </g>
  <g
     inkscape:groupmode="layer"
     id="g142251"
     inkscape:label="Warstwa 2 kopia 1"
     style="display:none">
    <path
       style="font-variation-settings:normal;opacity:1;vector-effect:none;fill:none;fill-opacity:1;stroke:#f1da85;stroke-width:5.09016;stroke-linecap:round;stroke-linejoin:bevel;stroke-miterlimit:4;stroke-dasharray:none;stroke-dashoffset:0;stroke-opacity:1;stop-color:#000000;stop-opacity:1"
       d="m 201.3763,205.47829 c 0,0 -67.80071,55.18116 -93.3507,67.34233"
       id="path142249" />
  </g>
  <g
     inkscape:groupmode="layer"
     id="g133920"
     inkscape:label="Warstwa 2 kopia"
     style="display:none">
    <path
       style="font-variation-settings:normal;opacity:1;vector-effect:none;fill:none;fill-opacity:1;stroke:#f1da85;stroke-width:5.09016;stroke-linecap:round;stroke-linejoin:bevel;stroke-miterlimit:4;stroke-dasharray:none;stroke-dashoffset:0;stroke-opacity:1;stop-color:#000000;stop-opacity:1"
       d="m 201.3763,205.47829 c 0,0 -67.80071,55.18116 -93.3507,67.34233"
       id="path133918" />
  </g>
  <g
     inkscape:groupmode="layer"
     id="layer3"
     inkscape:label="Warstwa 3"
     style="display:inline">
    <path
       style="font-variation-settings:normal;vector-effect:none;fill:none;fill-opacity:1;stroke:#f1da85;stroke-width:4.3842;stroke-linecap:butt;stroke-linejoin:miter;stroke-miterlimit:4;stroke-dasharray:none;stroke-dashoffset:0;stroke-opacity:1;stop-color:#000000"
       d="M 39.862002,201.295 94.238179,151.56516"
       id="path32588"
       sodipodi:nodetypes="cc" />
    <path
       style="font-variation-settings:normal;opacity:1;vector-effect:none;fill:#ecd582;fill-opacity:1;stroke:#f1da85;stroke-width:4.3842;stroke-linecap:butt;stroke-linejoin:miter;stroke-miterlimit:4;stroke-dasharray:none;stroke-dashoffset:0;stroke-opacity:1;stop-color:#000000;stop-opacity:1"
       d="m 128.06954,155.24644 46.82898,46.23062"
       id="path33124"
       sodipodi:nodetypes="cc" />
  </g>
  <g
     inkscape:groupmode="layer"
     id="layer4"
     inkscape:label="Warstwa 4"
     style="display:inline">
    <path
       style="font-variation-settings:normal;opacity:1;vector-effect:none;fill:#e9d17f;fill-opacity:1;stroke:none;stroke-width:0.590322px;stroke-linecap:butt;stroke-linejoin:miter;stroke-miterlimit:4;stroke-dasharray:none;stroke-dashoffset:0;stroke-opacity:1;stop-color:#000000;stop-opacity:1"
       d="m 93.07751,179.39276 c 0,0 -4.805082,-16.67124 6.732903,-4.93134 11.537997,11.73991 18.900547,-2.7925 23.557817,-5.55704 4.6573,-2.76453 3.00292,2.51075 3.00292,2.51075 0,0 -9.01251,18.03132 3.04354,23.01573 12.05608,4.98438 8.20946,8.5178 8.20946,8.5178"
       id="path36263"
       sodipodi:nodetypes="cssc" />
    <path
       style="font-variation-settings:normal;opacity:1;vector-effect:none;fill:#e9d17f;fill-opacity:1;stroke:none;stroke-width:0.590322px;stroke-linecap:butt;stroke-linejoin:miter;stroke-miterlimit:4;stroke-dasharray:none;stroke-dashoffset:0;stroke-opacity:1;stop-color:#000000;stop-opacity:1"
       d="m 93.07751,179.39276 c 0,0 6.657673,11.22877 -11.827091,19.15843 0,0 -7.715898,4.65146 7.011547,5.31167 14.727444,0.66025 11.911354,6.14452 14.451984,11.31753 2.54062,5.17301 5.5436,13.63372 8.4545,3.98247 0,0 2.70735,-14.54919 12.51474,-14.56061 0,0 6.77063,-2.82723 13.94096,-1.65359"
       id="path36265"
       sodipodi:nodetypes="ccssc" />
  </g>
  <g
     inkscape:groupmode="layer"
     id="layer5"
     inkscape:label="Warstwa 5"
     style="display:inline;opacity:1">
    <g
       id="g73037"
       style="mix-blend-mode:normal;fill:#d4bc72;fill-opacity:1;fill-rule:nonzero"
       transform="matrix(2.2311398,0,0,2.2311398,-118.30751,-226.89737)">
      <g
         id="g77644"
         style="fill:#d4bc72;fill-opacity:1;fill-rule:nonzero">
        <path
           style="font-variation-settings:normal;opacity:1;vector-effect:none;fill:#d4bc72;fill-opacity:1;fill-rule:nonzero;stroke:none;stroke-width:0.264583px;stroke-linecap:butt;stroke-linejoin:miter;stroke-miterlimit:4;stroke-dasharray:none;stroke-dashoffset:0;stroke-opacity:1;stop-color:#000000;stop-opacity:1"
           d="m 93.645227,139.67316 c 0,0 5.937845,-16.76876 6.580193,-15.66547 3.38152,5.80803 12.51956,20.10135 12.51956,20.10135 0,0 12.81769,-6.32711 14.82201,8.08621"
           id="path64420"
           sodipodi:nodetypes="cscc" />
        <path
           style="font-variation-settings:normal;opacity:1;vector-effect:none;fill:#d4bc72;fill-opacity:1;fill-rule:nonzero;stroke:none;stroke-width:0.264583px;stroke-linecap:butt;stroke-linejoin:miter;stroke-miterlimit:4;stroke-dasharray:none;stroke-dashoffset:0;stroke-opacity:1;stop-color:#000000;stop-opacity:1"
           d="m 127.56699,152.19525 c 0,0 -1.30715,9.56345 1.53435,14.91552 2.8415,5.35206 -0.93454,11.80578 -8.58863,-0.65914 -7.65408,-12.46493 -7.69538,-1.16186 -7.69538,-1.16186 l -0.84559,4.06943 -17.531864,-0.0282 c 0,0 -4.249652,-20.64478 -12.644485,-0.15146 0,0 -8.19442,8.49713 -5.18742,0.0141 3.007,-8.48305 -4.075109,-26.12662 6.851036,-26.70343 0,0 2.86234,-0.80719 6.297783,2.05024 0,0 3.517965,0.37656 3.48861,-2.93607 l 0.399827,-1.93122"
           id="path64422"
           sodipodi:nodetypes="cssccccsc" />
      </g>
    </g>
  </g>
  <g
     inkscape:groupmode="layer"
     id="layer8"
     inkscape:label="Warstwa 8"
     style="display:inline;opacity:1">
    <path
       style="font-variation-settings:normal;opacity:1;vector-effect:none;fill:#d4bc72;fill-opacity:1;stroke:none;stroke-width:0.590322px;stroke-linecap:butt;stroke-linejoin:miter;stroke-miterlimit:4;stroke-dasharray:none;stroke-dashoffset:0;stroke-opacity:1;stop-color:#000000;stop-opacity:1"
       d="m 131.51709,150.96667 -4.79788,7.6365 2.40075,6.19983 -2.87686,3.48102 -36.870534,-2.53105 5.319406,-9.32643 -2.290941,-5.52279 z"
       id="path146718" />
  </g>
  <g
     inkscape:groupmode="layer"
     id="layer14"
     inkscape:label="Warstwa 14"
     style="display:inline">
    <path
       style="font-variation-settings:normal;opacity:1;vector-effect:none;fill:none;fill-opacity:1;stroke:#c49c54;stroke-width:2.37617;stroke-linecap:butt;stroke-linejoin:miter;stroke-miterlimit:4;stroke-dasharray:none;stroke-dashoffset:0;stroke-opacity:1;stop-color:#000000;stop-opacity:1"
       d="m 93.796198,157.06904 32.923012,0.35347"
       id="path207123" />
  </g>
  <g
     inkscape:groupmode="layer"
     id="layer10"
     inkscape:label="Warstwa 10"
     style="display:inline">
    <path
       style="font-variation-settings:normal;opacity:1;vector-effect:none;fill:none;fill-opacity:1;stroke:#c49c54;stroke-width:3.0455;stroke-linecap:butt;stroke-linejoin:miter;stroke-miterlimit:4;stroke-dasharray:none;stroke-dashoffset:0;stroke-opacity:1;stop-color:#000000;stop-opacity:1"
       d="m 101.57177,149.7922 c 0,0 -4.03856,-39.54831 -15.349855,-54.09745"
       id="path190707" />
  </g>
  <g
     inkscape:groupmode="layer"
     id="layer11"
     inkscape:label="Warstwa 11"
     style="display:inline">
    <path
       style="font-variation-settings:normal;opacity:1;vector-effect:none;fill:none;fill-opacity:1;stroke:#c49c54;stroke-width:2.37617;stroke-linecap:butt;stroke-linejoin:miter;stroke-miterlimit:4;stroke-dasharray:none;stroke-dashoffset:0;stroke-opacity:1;stop-color:#000000;stop-opacity:1"
       d="m 118.63625,147.38917 c 0,0 0.45933,-34.30061 14.60605,-52.75914"
       id="path206836" />
  </g>
  <g
     inkscape:groupmode="layer"
     id="layer12"
     inkscape:label="Warstwa 12"
     style="display:inline">
    <path
       style="font-variation-settings:normal;opacity:1;vector-effect:none;fill:none;fill-opacity:1;stroke:#c49c54;stroke-width:2.37617;stroke-linecap:butt;stroke-linejoin:miter;stroke-miterlimit:4;stroke-dasharray:none;stroke-dashoffset:0;stroke-opacity:1;stop-color:#000000;stop-opacity:1"
       d="m 95.809276,145.81709 c 0,0 -17.239535,-64.644017 -33.520598,-2.50176"
       id="path206905" />
  </g>
  <g
     inkscape:groupmode="layer"
     id="layer13"
     inkscape:label="Warstwa 13"
     style="display:inline">
    <path
       style="font-variation-settings:normal;opacity:1;vector-effect:none;fill:none;fill-opacity:1;stroke:#c49c54;stroke-width:2.15305;stroke-linecap:butt;stroke-linejoin:miter;stroke-miterlimit:4;stroke-dasharray:none;stroke-dashoffset:0;stroke-opacity:1;stop-color:#000000;stop-opacity:1"
       d="m 126.75944,148.19749 c 0,0 -0.11625,-24.95483 13.59658,-29.96512 13.71286,-5.01028 13.34242,24.66555 20.68648,29.8593"
       id="path206974" />
  </g>
</svg>
