<?xml version="1.0" encoding="UTF-8" standalone="no"?>
<!-- Created with Inkscape (http://www.inkscape.org/) -->

<svg
   width="145.78999mm"
   height="145.78999mm"
   viewBox="0 0 145.78999 145.78999"
   version="1.1"
   id="svg1"
   xml:space="preserve"
   inkscape:version="1.2.1 (9c6d41e410, 2022-07-14)"
   sodipodi:docname="instruktorska_pwd.svg"
   xmlns:inkscape="http://www.inkscape.org/namespaces/inkscape"
   xmlns:sodipodi="http://sodipodi.sourceforge.net/DTD/sodipodi-0.dtd"
   xmlns="http://www.w3.org/2000/svg"
   xmlns:svg="http://www.w3.org/2000/svg"><sodipodi:namedview
     id="namedview1"
     pagecolor="#505050"
     bordercolor="#eeeeee"
     borderopacity="1"
     inkscape:showpageshadow="0"
     inkscape:pageopacity="0"
     inkscape:pagecheckerboard="0"
     inkscape:deskcolor="#505050"
     inkscape:document-units="mm"
     showgrid="false"
     inkscape:zoom="1.1866162"
     inkscape:cx="309.70419"
     inkscape:cy="382.60055"
     inkscape:window-width="1920"
     inkscape:window-height="1047"
     inkscape:window-x="0"
     inkscape:window-y="0"
     inkscape:window-maximized="1"
     inkscape:current-layer="layer2" /><defs
     id="defs1" /><g
     inkscape:groupmode="layer"
     id="layer2"
     inkscape:label="Warstwa 2"
     style="opacity:1"
     transform="translate(-48.455482,-71.542503)"><path
       style="opacity:1;fill:#16225c;fill-opacity:1;stroke:#000000;stroke-width:1.565;stroke-linecap:butt;stroke-linejoin:miter;stroke-dasharray:none;stroke-opacity:1"
       d="m 87.336258,159.20269 c -14.476234,-7.07831 -28.042353,-31.09194 -14.604729,-44.70608 12.60493,-9.0844 26.13971,1.70623 37.459441,16.83446 -3.74361,-8.39865 -8.141,-16.79729 -7.02365,-25.19594 2.6062,-8.699423 2.43201,-15.404222 18.06082,-33.445945 15.85128,15.801009 25.80614,32.719015 12.48649,59.422295 6.67456,-11.54548 20.42038,-33.150906 38.90878,-16.61149 13.65129,18.62141 -7.28337,41.48446 -15.38513,39.24325 -0.41157,-6.99418 -0.55034,-14.55875 -4.125,-14.93919 -4.03921,-0.11425 -7.6281,1.12246 -10.47974,4.57094 -3.25475,2.95752 -4.58453,7.29 -5.79729,11.70608 7.36622,6.07657 5.33344,11.98105 0,16.72298 -0.25768,2.08824 0.93802,4.22424 3.12162,5.57432 6.12825,-1.97791 9.36952,-6.43037 13.60135,-10.03378 4.39606,9.39677 2.50886,18.28211 -3.12162,25.64189 -6.98063,4.64451 -14.78769,7.12028 -19.39865,-3.79054 3.60148,14.41268 -2.63995,20.17553 -8.58446,26.19932 -10.76831,-4.87142 -12.00951,-15.46737 -11.48311,-24.19257 -4.27066,4.61588 -15.542616,9.2322 -20.513502,-4.68243 -1.457292,-5.56158 -4.461916,-13.61687 0.445947,-17.83784 3.134262,0.83097 7.039157,6.52828 10.925655,8.58446 1.8561,-0.32676 3.48436,-2.09717 4.45946,-6.35473 -3.39218,-2.18909 -4.63126,-5.09589 -4.45946,-8.47297 -0.44526,-3.68882 1.42522,-6.11451 4.23649,-8.02703 3.70978,-7.19672 -5.84411,-19.55655 -13.378363,-15.83107 -7.198099,3.20865 -5.523031,11.87771 -5.351349,19.62161 z"
       id="path1"
       sodipodi:nodetypes="cccccccccccccccccccccccccc" /><path
       style="fill:none;stroke:#000000;stroke-width:1.565;stroke-linecap:butt;stroke-linejoin:miter;stroke-dasharray:none;stroke-opacity:1"
       d="m 105.95448,155.74662 30.60306,0.16723"
       id="path10477" /><path
       style="fill:none;stroke:#000000;stroke-width:1.265;stroke-linecap:butt;stroke-linejoin:miter;stroke-dasharray:none;stroke-opacity:1"
       d="m 102.05246,160.42905 h 37.96116"
       id="path10493" /><path
       style="fill:none;stroke:#000000;stroke-width:1.265;stroke-linecap:butt;stroke-linejoin:miter;stroke-dasharray:none;stroke-opacity:1"
       d="m 102.27543,168.01013 h 37.96116"
       id="path10495" /><path
       style="fill:none;stroke:#000000;stroke-width:1.565;stroke-linecap:butt;stroke-linejoin:miter;stroke-dasharray:none;stroke-opacity:1"
       d="m 105.95448,172.05112 h 31.66218"
       id="path10497" /><path
       style="fill:none;stroke:#000000;stroke-width:1.565;stroke-linecap:butt;stroke-linejoin:miter;stroke-dasharray:none;stroke-opacity:1"
       d="m 108.96462,129.32432 c 5.13017,8.17508 9.00863,16.7674 9.69933,26.4223"
       id="path10521"
       sodipodi:nodetypes="cc" /><path
       style="fill:none;stroke:#000000;stroke-width:1.565;stroke-linecap:butt;stroke-linejoin:miter;stroke-dasharray:none;stroke-opacity:1"
       d="m 134.38355,130.55067 c -5.01607,8.41496 -6.63151,17.04246 -6.91216,25.75338"
       id="path10634"
       sodipodi:nodetypes="cc" /><path
       style="fill:none;stroke:#000000;stroke-width:1.565;stroke-linecap:butt;stroke-linejoin:miter;stroke-dasharray:none;stroke-opacity:1"
       d="m 110.30246,193.20607 c 3.7754,-7.01894 8.92966,-14.11045 7.35811,-20.84797"
       id="path10649"
       sodipodi:nodetypes="cc" /><path
       style="fill:none;stroke:#000000;stroke-width:1.565;stroke-linecap:butt;stroke-linejoin:miter;stroke-dasharray:none;stroke-opacity:1"
       d="m 131.37341,191.19932 c -2.78095,-6.42905 -3.96804,-12.85811 -4.68243,-19.28716"
       id="path10651"
       sodipodi:nodetypes="cc" /></g></svg>
