<?xml version="1.0" encoding="UTF-8" standalone="no"?>
<!-- Created with Inkscape (http://www.inkscape.org/) -->

<svg
   width="227.54495mm"
   height="227.54495mm"
   viewBox="0 0 227.54495 227.54495"
   version="1.1"
   id="svg5"
   sodipodi:docname="karimata.svg"
   inkscape:version="1.2-dev (5f01de93b4, 2021-08-06, custom)"
   xmlns:inkscape="http://www.inkscape.org/namespaces/inkscape"
   xmlns:sodipodi="http://sodipodi.sourceforge.net/DTD/sodipodi-0.dtd"
   xmlns="http://www.w3.org/2000/svg"
   xmlns:svg="http://www.w3.org/2000/svg">
  <sodipodi:namedview
     id="namedview7"
     pagecolor="#505050"
     bordercolor="#eeeeee"
     borderopacity="1"
     inkscape:pageshadow="0"
     inkscape:pageopacity="0"
     inkscape:pagecheckerboard="0"
     inkscape:document-units="mm"
     showgrid="false"
     inkscape:zoom="1"
     inkscape:cx="328.49999"
     inkscape:cy="485.99999"
     inkscape:window-width="1890"
     inkscape:window-height="1029"
     inkscape:window-x="0"
     inkscape:window-y="0"
     inkscape:window-maximized="1"
     inkscape:current-layer="layer2"
     fit-margin-top="10"
     lock-margins="true"
     fit-margin-left="10"
     fit-margin-right="10"
     fit-margin-bottom="10"
     width="227.54495mm" />
  <defs
     id="defs2" />
  <g
     inkscape:groupmode="layer"
     id="layer2"
     inkscape:label="Warstwa 2"
     style="display:inline"
     transform="translate(9.810583,-34.881736)">
    <path
       style="fill:none;stroke:#000000;stroke-width:0.7;stroke-linecap:butt;stroke-linejoin:miter;stroke-miterlimit:4;stroke-dasharray:none;stroke-opacity:1"
       d="m 181.50796,69.60065 c -7.94864,-1.024308 -15.56138,3.680658 -23.31939,5.907913 -10.29626,-1.629237 -17.11634,0.195245 -23.81698,2.138397 l -17.0574,4.708403 c -2.19518,1.123601 -5.24999,1.771426 -8.00844,2.583278 -4.70402,2.354646 -10.292773,3.174225 -15.661928,4.374819 -13.407432,4.027041 -26.092691,8.515681 -38.568758,14.54438 -11.884142,3.9265 -31.596033,6.14487 -34.040778,7.13847 -5.384774,1.47701 -13.7818895,6.58923 -17.5467867,17.46689 -8.2474935,24.85954 5.255557,53.16071 17.3928677,69.20346 18.084184,18.92838 33.131685,26.55851 48.725615,15.15662 L 88.221869,199.4086 c 6.493243,-2.02904 10.776454,-5.13121 14.402001,-8.55274 l 73.16509,-44.08315 0.48734,0.38134 6.97426,-4.72392 8.92249,-5.99844 c 9.32429,-5.92203 13.70709,-13.71084 15.49247,-22.48093 1.6169,-15.012501 -1.77493,-27.980439 -17.40802,-35.951663 -5.45168,-2.072274 -10.68411,-2.548655 -15.8111,-2.257457 l -1.54372,3.141017 -2.19934,-1.480299 c 3.15758,-2.75445 5.7988,-5.687876 10.80462,-7.801708 z"
       id="path106"
       sodipodi:nodetypes="ccccccccccccccccccccccc" />
    <path
       style="fill:none;stroke:#000000;stroke-width:0.7;stroke-linecap:butt;stroke-linejoin:miter;stroke-miterlimit:4;stroke-dasharray:none;stroke-opacity:1"
       d="M 1.5578225,153.03732 C 0.50170161,121.5317 14.178319,114.20098 23.551298,111.80989 c 4.300918,-0.37834 8.386462,-0.89985 13.899705,-0.4723 8.375783,-0.45063 16.66643,-0.77888 25.573802,-1.99374 m 9.411642,-1.60761 C 75.737041,104.61306 88.897809,95.150351 95.206332,91.667498 100.24127,89.953364 106.81389,86.9473 109.92288,86.851303 l 4.73924,-1.41374 c 2.9663,-1.530558 6.63528,-1.889362 10.24111,-2.353471 14.4486,-6.867327 24.5845,-8.153744 32.98468,-7.194008 l 8.57842,2.39249 c 31.40006,21.27779 32.18415,47.452586 11.55071,67.457516 l 9.96477,-6.33682 c 10.43975,-15.89091 16.73008,-43.534676 -15.02924,-60.648566 l -13.20382,-3.875147"
       id="path8762"
       sodipodi:nodetypes="ccccccccccccccc" />
    <path
       style="fill:none;stroke:#000000;stroke-width:0.7;stroke-linecap:butt;stroke-linejoin:miter;stroke-miterlimit:4;stroke-dasharray:none;stroke-opacity:1"
       d="m 45.464066,106.64173 c 6.145676,0.20478 12.705004,-1.00308 17.826407,2.69965 41.129727,28.56598 51.340317,74.73446 27.12402,89.08115 l 13.153577,-8.09451 c 15.35846,-17.96837 6.59222,-59.16239 -31.235771,-82.68835 l -16.894802,-3.82475 z"
       id="path14768"
       sodipodi:nodetypes="ccccccc" />
    <path
       style="fill:none;stroke:#000000;stroke-width:0.7;stroke-linecap:butt;stroke-linejoin:miter;stroke-miterlimit:4;stroke-dasharray:none;stroke-opacity:1"
       d="m 166.05873,78.446777 0.84491,3.006405 c -1.83169,-1.730704 -3.57482,-2.083306 -5.21842,-0.887283 -3.5368,0.226333 -6.18454,-1.374705 -8.7222,-3.202001 -3.5863,2.176589 -7.58627,3.031963 -11.72926,3.43054 -2.25421,2.060181 -5.16625,2.259973 -8.22392,2.047936 -3.87569,3.113354 -5.6163,4.260924 -9.09169,2.960026 -2.78958,2.353593 -4.14677,3.54489 -9.53353,2.490546 -3.88785,4.580928 -6.64701,3.236399 -9.41273,3.187145 -5.925242,4.69716 -6.142532,6.766931 -14.862533,5.467623 -2.878664,2.62866 -3.996896,5.458386 -6.251842,7.619426 -2.385914,2.28654 -6.162331,2.34469 -9.823921,4.26271"
       id="path16914"
       sodipodi:nodetypes="ccccccccccsc" />
    <path
       style="fill:none;stroke:#000000;stroke-width:0.7;stroke-linecap:butt;stroke-linejoin:miter;stroke-opacity:1;stroke-miterlimit:4;stroke-dasharray:none"
       d="m 33.379357,208.9905 c 12.886373,8.81149 23.269975,11.57823 35.341384,2.34443 4.723573,-4.1818 6.03058,-14.08274 8.106739,-22.69616 0.465762,-18.48887 -4.570216,-28.26096 -7.892928,-34.94219 -4.753822,-9.67709 -11.358451,-16.84525 -18.120342,-23.80022 -4.919394,-4.48673 -9.428042,-6.58484 -13.876154,-8.33091 -6.11649,-2.17905 -11.862523,-2.37396 -16.934626,1.04064 -8.390466,5.67945 -8.146771,10.24892 -10.1639789,15.10904 -1.879976,6.01519 -1.3658967,11.85594 -1.0260356,17.70938 1.1086921,9.44756 4.8950355,16.9892 8.3719695,24.75108 4.029394,5.7274 4.656631,9.09342 13.967882,18.48685 5.952343,3.98969 11.56644,8.88572 18.804019,9.4316 5.548452,-0.83613 11.273957,-0.73375 15.571142,-8.20247 3.992185,-7.83069 5.365622,-15.68658 3.595258,-23.57272 -1.577699,-10.23934 -4.31738,-20.2599 -15.054376,-33.33363 -12.802499,-15.78246 -25.297124,-15.85048 -31.545878,-11.65407 -7.138823,5.38121 -8.563101,13.20371 -9.095311,19.87088 l 3.249156,17.09612 6.670135,13.81207 8.104416,9.2767 c 6.273233,4.6086 11.962558,10.68486 21.238236,7.74681 6.519533,-1.85806 8.394143,-5.99789 9.350076,-10.58901 1.99423,-6.67072 1.190958,-13.15063 -0.30489,-19.58331 -3.871667,-8.04948 -4.827655,-15.65638 -14.339951,-24.56206 -6.9927,-6.56863 -13.829495,-8.89408 -20.483763,-6.25182 -3.410861,4.00455 -7.873142,7.09345 -8.087362,13.88184 -0.09254,7.42337 2.55124,13.24973 4.555277,19.44946 2.880994,5.5731 5.878108,11.07516 11.413257,15.02441 3.81792,3.963 12.912883,6.84084 18.463472,3.16182 2.709145,-3.34041 4.533749,-8.09442 2.97062,-18.26245 -0.992525,-7.56072 -6.035811,-13.18502 -10.115661,-19.26988 -5.082448,-4.60759 -10.078767,-8.09412 -14.639417,-5.90998 -3.833193,2.95707 -7.536182,5.97546 -7.14375,10.92259 1.147867,9.10705 4.483506,17.16826 11.942164,23.25853 3.444154,1.44368 6.760216,3.12179 10.352275,4.29476 1.080689,1.03597 0.731232,1.24405 -0.868164,1.26168 -5.207868,-2.71748 -11.103307,-4.35814 -14.961425,-9.18949 -3.9907,-2.83714 -4.358297,-9.03438 -6.144068,-13.9164 -1.352134,-4.53197 -3.342985,-9.24983 -0.422907,-11.89895 3.791244,-5.90642 7.633376,-8.98814 11.565444,-7.07754 l 5.948087,2.56664 8.252531,7.18464 8.615625,17.08184 c 0.292935,6.6584 0.528817,13.31466 -2.957894,19.83096 -6.019522,3.32317 -11.370587,3.01345 -16.292158,0.36955 L 28.885187,182.03575 23.6992,174.34461 18.424134,159.20826 18.299077,147.30492 c 1.583382,-3.99527 4.827205,-7.65804 8.32081,-11.27079 5.362074,-0.14213 9.918321,0.35845 14.412622,0.90844 l 5.760048,5.66309 5.0765,6.01352 c 2.800185,1.05183 5.653757,1.98552 7.286699,5.62033 1.58492,2.80983 1.187422,6.44832 1.407665,9.8286 l 2.623936,7.21377 3.825542,8.37811 c -0.49861,3.65433 -4.185201,7.09806 -4.61574,10.75948 -0.412811,3.63348 -0.158375,6.15264 -0.780249,8.49516 -2.340487,0.70342 -3.398159,0.23002 -4.346504,-0.32589 -0.888357,0.8872 -2.040635,1.68943 -4.322024,2.1281 l -8.096792,0.31762 c -5.51357,-1.97881 -10.358533,-5.23787 -14.865758,-9.14363 l -8.113976,-10.6374 c -2.113306,-3.77571 -4.145358,-7.56668 -5.659344,-11.45498 -1.595241,-4.24492 -2.982727,-8.48811 -3.717021,-12.72584 -0.667286,-5.86615 -0.03983,-11.71541 1.535436,-17.55229 2.794704,-5.33174 6.378728,-9.12521 10.769885,-11.34569 l 10.801407,-1.38532 8.09253,6.18102 2.712109,1.61463 6.366793,0.57787 6.679308,14.29086 2.418715,3.73427 7.211576,6.71871 c 1.485392,6.32557 0.241415,13.41251 1.452238,18.94303 1.923978,3.4771 2.881499,4.81769 2.873985,7.91928 l -4.032313,10.43218 c -0.993719,3.33118 -1.988939,6.6579 -3.352184,8.89177 l -5.714187,1.61806 c -3.860219,2.15132 -8.430863,1.54471 -12.930735,1.21284 -6.49876,-1.69641 -10.508821,-4.90361 -14.71958,-7.98898 C 27.260507,197.13839 22.63509,190.85499 18.253085,183.79003 13.531761,175.58684 9.8500044,167.40406 7.5601974,156.3129 l 0.033073,-11.96206 c -0.3399018,-4.96519 -0.2900836,-9.80871 3.3822226,-13.5214 l 7.744295,-9.38685 10.955402,-3.56492 10.879699,-0.10387"
       id="path22806"
       sodipodi:nodetypes="ccccccccccccccccccccccccccccccccccccccccccccccccccccccccccccccccccccccccccccccccccccccccc" />
  </g>
</svg>
