<?xml version="1.0" encoding="UTF-8" standalone="no"?>
<!-- Created with Inkscape (http://www.inkscape.org/) -->

<svg
   width="141.3983mm"
   height="141.3983mm"
   viewBox="0 0 141.3983 141.3983"
   version="1.1"
   id="svg5"
   inkscape:version="1.2-dev (5f01de93b4, 2021-08-06, custom)"
   sodipodi:docname="kosci.svg"
   xmlns:inkscape="http://www.inkscape.org/namespaces/inkscape"
   xmlns:sodipodi="http://sodipodi.sourceforge.net/DTD/sodipodi-0.dtd"
   xmlns="http://www.w3.org/2000/svg"
   xmlns:svg="http://www.w3.org/2000/svg">
  <sodipodi:namedview
     id="namedview7"
     pagecolor="#505050"
     bordercolor="#eeeeee"
     borderopacity="1"
     inkscape:pageshadow="0"
     inkscape:pageopacity="0"
     inkscape:pagecheckerboard="0"
     inkscape:document-units="mm"
     showgrid="false"
     inkscape:zoom="1.3647868"
     inkscape:cx="248.75681"
     inkscape:cy="294.55151"
     inkscape:window-width="1890"
     inkscape:window-height="1029"
     inkscape:window-x="0"
     inkscape:window-y="0"
     inkscape:window-maximized="1"
     inkscape:current-layer="layer2"
     fit-margin-top="10"
     lock-margins="true"
     fit-margin-left="10"
     fit-margin-right="10"
     fit-margin-bottom="10"
     height="89.70292mm" />
  <defs
     id="defs2" />
  <g
     inkscape:groupmode="layer"
     id="layer2"
     inkscape:label="Warstwa 2"
     transform="translate(-20.083381,-96.323675)">
    <path
       style="fill:none;stroke:#000000;stroke-width:0.801;stroke-linecap:butt;stroke-linejoin:miter;stroke-miterlimit:4;stroke-dasharray:none;stroke-opacity:1"
       d="m 32.412785,195.32948 -1.537161,-18.8026 c -1.160155,-7.00685 0.461025,-14.98708 2.306627,-22.31746 3.288957,-11.32371 2.683627,-16.77337 10.154895,-16.14033 l 29.678675,2.89427 c 6.740276,0.12294 8.163995,3.33178 8.121348,7.39176 l 0.703618,26.13701 -5.029222,20.31421 c -0.04152,6.10547 -4.738898,8.21046 -14.04424,6.35614 -9.236577,-1.14773 -29.74731,0.53092 -30.35454,-5.833 z"
       id="path900"
       sodipodi:nodetypes="cccccccccc" />
    <path
       style="fill:none;stroke:#000000;stroke-width:0.801;stroke-linecap:butt;stroke-linejoin:miter;stroke-miterlimit:4;stroke-dasharray:none;stroke-opacity:1"
       d="m 75.495067,199.53074 -1.838777,-29.12895 6.354355,-26.5345"
       id="path6699" />
    <path
       style="fill:none;stroke:#000000;stroke-width:0.801;stroke-linecap:butt;stroke-linejoin:miter;stroke-miterlimit:4;stroke-dasharray:none;stroke-opacity:1"
       d="M 73.608392,170.38106 30.666139,166.90471"
       id="path7084" />
    <path
       style="fill:none;stroke:#000000;stroke-width:0.801;stroke-linecap:butt;stroke-linejoin:miter;stroke-miterlimit:4;stroke-dasharray:none;stroke-opacity:1"
       d="m 36.472234,162.10148 c -0.365128,-1.98935 0.220222,-4.11022 3.966095,-4.87936 4.001571,-0.32945 6.805781,1.02055 6.944496,3.90498 -0.182423,2.22943 -1.70209,3.83712 -6.215709,4.05278 -2.444909,0.0699 -3.997877,-1.36175 -4.694882,-3.0784 z"
       id="path9668"
       sodipodi:nodetypes="ccccc" />
    <path
       style="fill:none;stroke:#000000;stroke-width:0.801;stroke-linecap:butt;stroke-linejoin:miter;stroke-miterlimit:4;stroke-dasharray:none;stroke-opacity:1"
       d="m 50.405035,154.74923 c -0.365128,-1.98935 0.220222,-4.11022 3.966095,-4.87936 4.001571,-0.32945 6.805781,1.02055 6.944496,3.90498 -0.182423,2.22943 -1.70209,3.83712 -6.215709,4.05278 -2.444909,0.0699 -3.997877,-1.36175 -4.694882,-3.0784 z"
       id="path9668-3"
       sodipodi:nodetypes="ccccc" />
    <path
       style="fill:none;stroke:#000000;stroke-width:0.801;stroke-linecap:butt;stroke-linejoin:miter;stroke-miterlimit:4;stroke-dasharray:none;stroke-opacity:1"
       d="m 40.3237,145.53966 c -0.365128,-1.98935 0.220222,-4.11022 3.966095,-4.87936 4.001571,-0.32945 6.805781,1.02055 6.944496,3.90498 -0.182423,2.22943 -1.70209,3.83712 -6.215709,4.05278 -2.444909,0.0699 -3.997877,-1.36175 -4.694882,-3.0784 z"
       id="path9668-3-6"
       sodipodi:nodetypes="ccccc" />
    <path
       style="fill:none;stroke:#000000;stroke-width:0.801;stroke-linecap:butt;stroke-linejoin:miter;stroke-miterlimit:4;stroke-dasharray:none;stroke-opacity:1"
       d="m 110.96178,144.13392 c -0.34966,-1.77324 0.21089,-3.66371 3.79808,-4.34929 3.83206,-0.29366 6.51749,0.90968 6.65033,3.48076 -0.17469,1.98724 -1.62999,3.42027 -5.95241,3.61251 -2.34134,0.0623 -3.82852,-1.21382 -4.496,-2.74398 z"
       id="path9668-3-6-6"
       sodipodi:nodetypes="ccccc" />
    <path
       style="fill:none;stroke:#000000;stroke-width:0.801;stroke-linecap:butt;stroke-linejoin:miter;stroke-miterlimit:4;stroke-dasharray:none;stroke-opacity:1"
       d="m 115.51488,155.12001 c -0.34966,-1.77324 0.21089,-3.66371 3.79808,-4.3493 3.83206,-0.29366 6.51749,0.90969 6.65033,3.48077 -0.17469,1.98723 -1.62999,3.42027 -5.95241,3.6125 -2.34134,0.0623 -3.82852,-1.21381 -4.496,-2.74397 z"
       id="path9668-3-6-6-2"
       sodipodi:nodetypes="ccccc" />
    <path
       style="fill:none;stroke:#000000;stroke-width:0.801;stroke-linecap:butt;stroke-linejoin:miter;stroke-miterlimit:4;stroke-dasharray:none;stroke-opacity:1"
       d="m 120.08073,166.31749 c -0.35537,-1.84243 0.21433,-3.80666 3.86006,-4.51899 3.8946,-0.30512 6.62385,0.94518 6.75886,3.61657 -0.17754,2.06478 -1.65659,3.55373 -6.04955,3.75347 -2.37955,0.0647 -3.891,-1.26118 -4.56937,-2.85105 z"
       id="path9668-3-6-6-9"
       sodipodi:nodetypes="ccccc" />
    <path
       style="fill:none;stroke:#000000;stroke-width:0.801;stroke-linecap:butt;stroke-linejoin:miter;stroke-miterlimit:4;stroke-dasharray:none;stroke-opacity:1"
       d="m 64.045702,147.5149 c -0.365128,-1.98935 0.220222,-4.11022 3.966095,-4.87936 4.001571,-0.32945 6.805781,1.02055 6.944496,3.90498 -0.182423,2.22943 -1.70209,3.83712 -6.215709,4.05278 -2.444909,0.0699 -3.997877,-1.36175 -4.694882,-3.0784 z"
       id="path9668-3-7"
       sodipodi:nodetypes="ccccc" />
    <path
       style="fill:none;stroke:#000000;stroke-width:0.801;stroke-linecap:butt;stroke-linejoin:miter;stroke-miterlimit:4;stroke-dasharray:none;stroke-opacity:1"
       d="m 60.61743,164.24275 c -0.365128,-1.98935 0.220222,-4.11022 3.966095,-4.87936 4.001571,-0.32945 6.805781,1.02055 6.944496,3.90498 -0.182423,2.22943 -1.70209,3.83712 -6.215709,4.05278 -2.444909,0.0699 -3.997877,-1.36175 -4.694882,-3.0784 z"
       id="path9668-3-5"
       sodipodi:nodetypes="ccccc" />
    <path
       style="fill:none;stroke:#000000;stroke-width:0.801;stroke-linecap:butt;stroke-linejoin:miter;stroke-miterlimit:4;stroke-dasharray:none;stroke-opacity:1"
       d="m 47.620931,185.79014 c -0.667689,-1.34058 -0.542626,-4.28462 4.952565,-4.4515 2.636021,-0.0191 6.021796,2.29142 5.178285,5.54217 -0.963422,1.53975 -2.476306,2.4506 -4.980025,2.22736 -1.904868,-0.32222 -3.655047,-0.93583 -5.150825,-3.31803 z"
       id="path13179"
       sodipodi:nodetypes="ccccc" />
    <path
       style="fill:none;stroke:#000000;stroke-width:0.501;stroke-linecap:butt;stroke-linejoin:miter;stroke-miterlimit:4;stroke-dasharray:none;stroke-opacity:1"
       d="m 75.244871,176.02338 c -0.307589,-1.9378 -0.08522,-4.11748 0.384893,-6.47622 0.277605,-1.32891 1.282366,-1.05761 1.206719,-0.31673 -0.03837,2.38406 0.0074,3.26371 -0.474249,5.75044 -0.395952,2.36977 -0.929485,1.53946 -1.117363,1.04251 z"
       id="path15211"
       sodipodi:nodetypes="ccccc" />
    <path
       style="fill:none;stroke:#000000;stroke-width:0.501;stroke-linecap:butt;stroke-linejoin:miter;stroke-miterlimit:4;stroke-dasharray:none;stroke-opacity:1"
       d="m 77.24675,176.71109 c -0.307588,-1.9378 -0.08522,-4.11748 0.384894,-6.47622 0.277604,-1.32891 1.282365,-1.05761 1.206719,-0.31673 -0.03837,2.38406 0.0074,3.26371 -0.474249,5.75044 -0.395952,2.36977 -0.929485,1.53946 -1.117364,1.04251 z"
       id="path15211-3"
       sodipodi:nodetypes="ccccc" />
    <path
       style="fill:none;stroke:#000000;stroke-width:0.501;stroke-linecap:butt;stroke-linejoin:miter;stroke-miterlimit:4;stroke-dasharray:none;stroke-opacity:1"
       d="m 79.394511,177.12399 c -0.307589,-1.9378 -0.08522,-4.11748 0.384893,-6.47622 0.277605,-1.32891 1.282366,-1.05761 1.206719,-0.31673 -0.03837,2.38406 0.0074,3.26371 -0.474249,5.75044 -0.395952,2.36977 -0.929485,1.53946 -1.117363,1.04251 z"
       id="path15211-5"
       sodipodi:nodetypes="ccccc" />
    <path
       style="fill:none;stroke:#000000;stroke-width:0.801;stroke-linecap:butt;stroke-linejoin:miter;stroke-miterlimit:4;stroke-dasharray:none;stroke-opacity:1"
       d="m 92.189777,189.43537 -0.821415,-24.00825 c -0.586266,-6.39125 3.248135,-8.50061 5.619222,-12.02735 L 109.5119,139.48396 c 2.92154,-4.0788 7.48213,-2.60375 12.18334,-0.65221 l 23.46174,8.67145 c 3.32782,1.34589 5.84812,2.9184 5.63181,7.48554 l 0.26382,21.31238 c 0.37422,4.84638 -3.02825,9.35368 -6.91645,13.81737 l -10.30926,12.68163 c -3.15285,4.09283 -7.79652,3.45722 -12.94612,1.21696 l -22.857801,-8.86494 c -3.078348,-1.27934 -5.247121,-3.06101 -5.833202,-5.71677 z"
       id="path19022"
       sodipodi:nodetypes="ccccccccccccc" />
    <path
       style="fill:none;stroke:#000000;stroke-width:0.801;stroke-linecap:butt;stroke-linejoin:miter;stroke-miterlimit:4;stroke-dasharray:none;stroke-opacity:1"
       d="m 130.86971,205.28969 -1.08158,-30.18129 20.18895,-23.96609"
       id="path21092"
       sodipodi:nodetypes="ccc" />
    <path
       style="fill:none;stroke:#000000;stroke-width:0.801;stroke-linecap:butt;stroke-linejoin:miter;stroke-miterlimit:4;stroke-dasharray:none;stroke-opacity:1"
       d="M 129.78813,175.1084 91.687368,161.17138"
       id="path21300" />
    <path
       style="fill:none;stroke:#000000;stroke-width:0.801;stroke-linecap:butt;stroke-linejoin:miter;stroke-miterlimit:4;stroke-dasharray:none;stroke-opacity:1"
       d="m 115.75322,179.7477 c -1.91719,-2.86582 0.66666,-5.30822 2.32652,-5.09292 2.1983,0.44266 4.12293,0.75993 6.06805,3.32457 1.95781,2.79102 1.91232,4.63716 -0.13337,5.5399 -4.34108,1.34365 -6.2643,-1.2743 -8.2612,-3.77155 z"
       id="path21654"
       sodipodi:nodetypes="ccccc" />
    <path
       style="fill:none;stroke:#000000;stroke-width:0.801;stroke-linecap:butt;stroke-linejoin:miter;stroke-miterlimit:4;stroke-dasharray:none;stroke-opacity:1"
       d="m 95.155281,189.97561 c -1.798866,-2.68894 0.625516,-4.98061 2.182933,-4.77859 2.062627,0.41534 3.868476,0.71303 5.693546,3.11938 1.83698,2.61877 1.7943,4.35097 -0.12514,5.19799 -4.073159,1.26073 -5.877682,-1.19565 -7.751339,-3.53878 z"
       id="path21654-1"
       sodipodi:nodetypes="ccccc" />
    <path
       style="fill:none;stroke:#000000;stroke-width:0.801;stroke-linecap:butt;stroke-linejoin:miter;stroke-miterlimit:4;stroke-dasharray:none;stroke-opacity:1"
       d="m 132.39431,179.26165 c 0.22521,-2.8055 1.29614,-5.29104 3.22309,-7.45273 1.16183,-1.02369 2.49459,-0.67869 2.06132,2.6999 -0.49142,2.00067 -0.65047,4.03059 -2.81501,5.88399 -1.52833,1.24808 -2.33036,0.8224 -2.4694,-1.13116 z"
       id="path24664"
       sodipodi:nodetypes="ccccc" />
    <path
       style="fill:none;stroke:#000000;stroke-width:0.801;stroke-linecap:butt;stroke-linejoin:miter;stroke-miterlimit:4;stroke-dasharray:none;stroke-opacity:1"
       d="m 144.17828,164.68939 c 0.22521,-2.8055 1.29614,-5.29104 3.22309,-7.45273 1.16183,-1.02369 2.49459,-0.67869 2.06132,2.6999 -0.49142,2.00067 -0.65047,4.03059 -2.81501,5.88399 -1.52833,1.24808 -2.33036,0.8224 -2.4694,-1.13116 z"
       id="path24664-0"
       sodipodi:nodetypes="ccccc" />
    <path
       style="fill:none;stroke:#000000;stroke-width:0.801;stroke-linecap:butt;stroke-linejoin:miter;stroke-miterlimit:4;stroke-dasharray:none;stroke-opacity:1"
       d="m 144.17828,173.65802 c 0.22521,-2.8055 1.29614,-5.29104 3.22309,-7.45273 1.16183,-1.0237 2.49459,-0.67869 2.06132,2.6999 -0.49142,2.00067 -0.65047,4.03059 -2.81501,5.88399 -1.52833,1.24808 -2.33036,0.8224 -2.4694,-1.13116 z"
       id="path24664-9"
       sodipodi:nodetypes="ccccc" />
    <path
       style="fill:none;stroke:#000000;stroke-width:0.801;stroke-linecap:butt;stroke-linejoin:miter;stroke-miterlimit:4;stroke-dasharray:none;stroke-opacity:1"
       d="m 144.17828,182.94769 c 0.22521,-2.8055 1.29614,-5.29104 3.22309,-7.45273 1.16183,-1.02369 2.49459,-0.67869 2.06132,2.6999 -0.49142,2.00067 -0.65047,4.03059 -2.81501,5.88399 -1.52833,1.24808 -2.33036,0.8224 -2.4694,-1.13116 z"
       id="path24664-3"
       sodipodi:nodetypes="ccccc" />
    <path
       style="fill:none;stroke:#000000;stroke-width:0.801;stroke-linecap:butt;stroke-linejoin:miter;stroke-miterlimit:4;stroke-dasharray:none;stroke-opacity:1"
       d="m 132.48556,188.51272 c 0.22521,-2.8055 1.29614,-5.29104 3.22309,-7.45274 1.16183,-1.02369 2.49459,-0.67869 2.06132,2.6999 -0.49142,2.00067 -0.65047,4.0306 -2.81501,5.88399 -1.52833,1.24808 -2.33036,0.8224 -2.4694,-1.13115 z"
       id="path24664-2"
       sodipodi:nodetypes="ccccc" />
    <path
       style="fill:none;stroke:#000000;stroke-width:0.801;stroke-linecap:butt;stroke-linejoin:miter;stroke-miterlimit:4;stroke-dasharray:none;stroke-opacity:1"
       d="m 132.80731,197.32024 c 0.22521,-2.8055 1.29614,-5.29104 3.22309,-7.45273 1.16183,-1.02369 2.49459,-0.67869 2.06132,2.6999 -0.49142,2.00067 -0.65047,4.03059 -2.81501,5.88399 -1.52833,1.24808 -2.33036,0.8224 -2.4694,-1.13116 z"
       id="path24664-7"
       sodipodi:nodetypes="ccccc" />
  </g>
</svg>
