<?xml version="1.0" encoding="UTF-8" standalone="no"?>
<svg
   width="188.27487pt"
   height="188.27487pt"
   viewBox="0 0 188.27487 188.27487"
   version="1.1"
   id="svg4"
   sodipodi:docname="kotwica.svg"
   inkscape:version="1.1.2 (0a00cf5339, 2022-02-04, custom)"
   xmlns:inkscape="http://www.inkscape.org/namespaces/inkscape"
   xmlns:sodipodi="http://sodipodi.sourceforge.net/DTD/sodipodi-0.dtd"
   xmlns="http://www.w3.org/2000/svg"
   xmlns:svg="http://www.w3.org/2000/svg">
  <defs
     id="defs8" />
  <sodipodi:namedview
     id="namedview6"
     pagecolor="#505050"
     bordercolor="#eeeeee"
     borderopacity="1"
     inkscape:pageshadow="0"
     inkscape:pageopacity="0"
     inkscape:pagecheckerboard="0"
     inkscape:document-units="pt"
     showgrid="false"
     lock-margins="false"
     fit-margin-top="0"
     fit-margin-left="0"
     fit-margin-right="0"
     fit-margin-bottom="0"
     height="188.27487pt"
     inkscape:zoom="1.35"
     inkscape:cx="-184.81481"
     inkscape:cy="135.92593"
     inkscape:window-width="1920"
     inkscape:window-height="1080"
     inkscape:window-x="0"
     inkscape:window-y="0"
     inkscape:window-maximized="1"
     inkscape:current-layer="svg4" />
  <path
     style="color:#000000;fill:#000000;-inkscape-stroke:none"
     d="m 115.77734,1.4199219 c -11.75146,-0.00641 -23.503034,-0.051606 -35.257809,0.025391 l 0.002,0.3632812 -0.365234,-0.00195 c -0.108283,15.2489244 0.04012,30.5048424 -0.07031,45.7519534 -3.686183,0.116175 -7.391711,-0.06337 -11.11914,0.07422 l -0.347656,0.01367 -0.002,0.347657 c -0.07012,7.66853 -0.05912,15.347943 -0.0078,23.021484 l 0.0039,0.349609 0.347656,0.01172 c 3.727487,0.137563 7.438392,-0.03996 11.125,0.07617 0.106064,24.235016 -0.02491,48.485095 0.06445,72.724605 v 0.006 0.004 c 0.09517,3.109 -0.250535,6.28514 -1.677735,9.02734 l -0.0039,0.006 -0.002,0.008 c -3.39024,7.24421 -12.404027,11.69765 -20.107422,9.05273 l -0.0098,-0.004 -0.01172,-0.002 c -5.378797,-1.47149 -9.740296,-5.93055 -11.365235,-11.23828 v -0.002 l -0.002,-0.002 c -0.87968,-2.79501 -0.770968,-5.80478 -0.6875,-8.77734 v -0.002 c 0.326273,-14.33659 2.981536,-28.61044 7.748047,-42.12305 v -0.002 c 0.590035,-1.707332 1.497368,-3.380398 1.818359,-5.292973 l 0.07813,-0.470703 -0.474609,0.04687 c -1.840514,0.184711 -3.569376,0.744888 -5.296875,1.164063 h -0.002 c -6.531172,1.623164 -13.054676,3.265123 -19.583985,4.874998 l -0.01367,0.004 -0.01367,0.004 c -0.3088,0.10199 -0.764708,0.17951 -1.191407,0.375 -0.426698,0.1955 -0.850854,0.58888 -0.904296,1.19727 l 0.01172,-0.0664 c -3.419854,12.27804 -5.510284,24.94441 -5.921875,37.69727 -0.173311,3.77034 -0.243775,7.57145 0.169922,11.35937 v 0.006 0.006 c 0.828212,6.04335 2.957361,11.90255 6.21875,17.06641 l 0.002,0.004 0.002,0.002 c 5.059524,7.70574 12.665232,13.8723 21.517579,16.67187 13.066405,4.51778 28.329868,1.55534 38.847656,-7.38867 0.994982,-0.7974 1.729797,-1.79295 2.716797,-2.24805 0.610459,0.34309 1.158858,0.83077 1.748047,1.3418 l -0.0078,-0.008 c 3.967315,3.66912 8.745997,6.38041 13.816407,8.17187 12.35671,4.31967 26.74519,2.2324 37.29101,-5.55273 l 0.002,-0.002 c 9.87329,-7.12925 16.36734,-18.81022 16.79492,-31.03516 v -0.004 -0.004 c 0.15431,-15.53986 -1.92217,-31.09142 -6.04297,-46.07031 l 0.0117,0.0625 c -0.0572,-0.60866 -0.47518,-1.00612 -0.90234,-1.20508 -0.42717,-0.19897 -0.88563,-0.2746 -1.20704,-0.37305 l -0.01,-0.002 -0.01,-0.004 c -6.34285,-1.558452 -12.68788,-3.161922 -19.0332,-4.740233 h -0.002 -0.002 c -1.9113,-0.45719 -3.8176,-1.08696 -5.84961,-1.310547 l -0.48242,-0.05273 0.084,0.478515 c 0.12542,0.712892 0.31059,1.411548 0.55468,2.097656 l 0.002,0.0039 v 0.0039 c 5.89855,15.4565 8.91902,31.99223 9.09179,48.5332 v 0.004 0.002 c 0.16939,5.37014 -2.30908,10.81223 -6.61132,14.0586 -4.42261,3.21472 -10.43683,4.57742 -15.61524,2.57226 l -0.008,-0.004 -0.01,-0.004 c -6.7004,-2.18123 -11.73726,-8.89455 -11.6621,-15.98242 v -0.002 -0.002 c 0.006,-24.88576 -0.0422,-49.775666 0.0332,-74.666014 7.18377,-0.279822 14.70897,0.83865 21.78906,-1.673829 9.53304,-2.941745 17.48725,-10.25935 21.48633,-19.359375 4.6053,-10.391112 3.70168,-23.040984 -2.47266,-32.605468 l -0.004,-0.0039 C 138.6924,7.9133702 127.42038,1.4977756 115.78125,1.4199219 h -0.002 z m -0.002,0.7265625 c 11.37603,0.076094 22.43731,6.3731669 28.39258,16.0449216 l 0.002,0.002 0.004,0.0039 c 6.03634,9.346194 6.92491,21.76151 2.42187,31.921875 v 0.002 c -3.91536,8.909517 -11.72312,16.088306 -21.04492,18.960937 l -0.008,0.002 -0.008,0.002 c -6.97041,2.474992 -14.54021,1.29888 -21.92969,1.634766 l -0.34766,0.01563 v 0.347656 c -0.077,25.01328 -0.0268,50.024236 -0.0332,75.029296 -0.0769,7.42768 5.14213,14.38251 12.14648,16.67188 0.001,5.2e-4 0.003,0.001 0.004,0.002 5.45669,2.11102 11.70505,0.6765 16.30078,-2.66406 l 0.004,-0.002 0.002,-0.002 c 4.50712,-3.39839 7.08058,-9.04832 6.90625,-14.65625 v -0.004 c -0.17405,-16.62053 -3.20837,-33.23608 -9.13672,-48.773433 l -0.002,-0.0078 c -0.16571,-0.466737 -0.26947,-0.94644 -0.37695,-1.425781 1.74083,0.256698 3.44943,0.749389 5.21484,1.171875 6.34353,1.577865 12.68916,3.181009 19.03516,4.740232 l -0.0215,-0.004 c 0.39065,0.11966 0.81395,0.19651 1.11328,0.33593 0.29933,0.13943 0.45371,0.26611 0.48633,0.61329 l 0.002,0.0312 0.01,0.0312 c 4.10321,14.91495 6.16924,30.39895 6.01562,45.86914 -0.42228,11.9808 -6.80756,23.46808 -16.49609,30.46289 l -0.002,0.002 c -10.34067,7.63482 -24.49752,9.68993 -36.61914,5.45312 h -0.002 c -4.98767,-1.76245 -9.678313,-4.42729 -13.562496,-8.01953 l -0.0039,-0.004 -0.0039,-0.004 c -0.617494,-0.53559 -1.241235,-1.15284 -2.052734,-1.55859 l -0.142578,-0.0723 -0.150391,0.0586 c -1.352125,0.52226 -2.136499,1.72877 -3.060547,2.4668 l -0.0039,0.004 -0.0039,0.004 c -10.315563,8.77205 -25.338873,11.68481 -38.148438,7.25196 h -0.0039 l -0.0059,-0.002 c -8.671158,-2.74227 -16.151463,-8.80101 -21.125,-16.37304 l -0.002,-0.002 c -7.82e-4,-0.001 -0.0012,-0.003 -0.002,-0.004 -3.202815,-5.07302 -5.293711,-10.83396 -6.107422,-16.77149 -0.406029,-3.72533 -0.336806,-7.48844 -0.164062,-11.24414 v -0.002 -0.002 c 0.409529,-12.68898 2.488832,-25.29818 5.894531,-37.52539 l 0.0098,-0.0332 0.002,-0.0332 c 0.02996,-0.34103 0.181018,-0.46152 0.482422,-0.59961 0.294072,-0.13473 0.707343,-0.2125 1.089844,-0.33594 l 0.0098,-0.002 c 0.0062,-0.002 0.01139,-0.004 0.01758,-0.006 6.521767,-1.608112 13.036695,-3.246808 19.556641,-4.867187 1.56422,-0.379555 3.076879,-0.794382 4.613281,-1.017578 -0.365607,1.549793 -1.047196,3.032188 -1.597656,4.625 -4.791409,13.583785 -7.46101,27.932875 -7.789063,42.347655 -0.08333,2.96713 -0.206481,6.06151 0.722657,9.01367 1.698357,5.54453 6.227035,10.17866 11.867187,11.72266 8.32e-4,2.3e-4 0.0011,0.002 0.002,0.002 8.095487,2.76461 17.424972,-1.85739 20.97461,-9.43359 1.50615,-2.89829 1.854004,-6.19511 1.757812,-9.36719 v -0.01 c -0.08972,-24.35222 0.04454,-48.719297 -0.06445,-73.076176 l -0.002,-0.34961 -0.347656,-0.01367 c -3.728152,-0.137616 -7.439715,0.04201 -11.126953,-0.07422 -0.04852,-7.432323 -0.05955,-14.869949 0.0059,-22.294922 3.686809,-0.116236 7.391073,0.06346 11.119141,-0.07422 l 0.349609,-0.01367 0.002,-0.347656 c 0.114597,-15.254094 -0.03384,-30.510356 0.07031,-45.75 11.628697,-0.073715 23.258684,-0.031739 34.890624,-0.025391 z m -12.17383,22.3925776 -0.34179,0.0332 -0.002,0.328125 c -0.0642,7.674558 -0.0576,15.347722 -0.006,23.021484 l 0.002,0.357422 0.35547,0.0039 c 4.07429,0.05771 8.16044,0.103845 12.23828,-0.03125 6.10846,-0.186112 11.2996,-5.753652 11.16601,-11.845703 0.1414,-6.087595 -5.07025,-11.615446 -11.1582,-11.828125 -4.08459,-0.141514 -8.1704,-0.09677 -12.23828,-0.03906 z m 0.38282,0.728516 c 3.94765,-0.05512 7.90225,-0.09951 11.8457,0.03711 5.66158,0.197785 10.593,5.430367 10.45703,11.091797 v 0.0078 0.0078 c 0.12982,5.669063 -4.784,10.938305 -10.46289,11.111328 -3.93757,0.130449 -7.89217,0.08638 -11.8457,0.03125 -0.0487,-7.429343 -0.0542,-14.858531 0.006,-22.287109 z"
     id="path2" />
</svg>
