<?xml version="1.0" encoding="UTF-8" standalone="no"?>
<!-- Created with Inkscape (http://www.inkscape.org/) -->

<svg
   width="91.667953mm"
   height="91.218506mm"
   viewBox="0 0 91.667951 91.218507"
   version="1.1"
   id="svg5"
   sodipodi:docname="krzyz_lilijka.svg"
   inkscape:version="1.2-dev (0853165845, 2021-06-13, custom)"
   xmlns:inkscape="http://www.inkscape.org/namespaces/inkscape"
   xmlns:sodipodi="http://sodipodi.sourceforge.net/DTD/sodipodi-0.dtd"
   xmlns="http://www.w3.org/2000/svg"
   xmlns:svg="http://www.w3.org/2000/svg">
  <sodipodi:namedview
     id="namedview7"
     pagecolor="#505050"
     bordercolor="#eeeeee"
     borderopacity="1"
     objecttolerance="10.0"
     gridtolerance="10.0"
     guidetolerance="10.0"
     inkscape:pageshadow="0"
     inkscape:pageopacity="0"
     inkscape:pagecheckerboard="0"
     inkscape:document-units="mm"
     showgrid="false"
     inkscape:zoom="0.83150518"
     inkscape:cx="125.67571"
     inkscape:cy="161.15354"
     inkscape:window-width="1920"
     inkscape:window-height="1080"
     inkscape:window-x="0"
     inkscape:window-y="0"
     inkscape:window-maximized="1"
     inkscape:current-layer="layer2"
     fit-margin-top="5"
     fit-margin-left="5"
     fit-margin-right="5"
     fit-margin-bottom="5"
     lock-margins="true" />
  <defs
     id="defs2" />
  <g
     inkscape:groupmode="layer"
     id="layer5"
     inkscape:label="Warstwa 5"
     style="display:inline"
     transform="translate(-61.77379,-125.89818)">
    <path
       style="fill:none;stroke:#ebebeb;stroke-width:0.264583px;stroke-linecap:butt;stroke-linejoin:miter;stroke-opacity:1"
       d="m 116.24484,176.69159 19.84698,5.3292"
       id="path3837" />
    <path
       style="fill:none;stroke:#ebebeb;stroke-width:0.264583px;stroke-linecap:butt;stroke-linejoin:miter;stroke-opacity:1"
       d="m 115.54272,175.43822 21.51705,2.44149"
       id="path3839" />
    <path
       style="fill:none;stroke:#ebebeb;stroke-width:0.264583px;stroke-linecap:butt;stroke-linejoin:miter;stroke-opacity:1"
       d="m 113.97985,172.79149 24.18725,1.61399"
       id="path3874" />
    <path
       style="fill:none;stroke:#ebebeb;stroke-width:0.264583px;stroke-linecap:butt;stroke-linejoin:miter;stroke-opacity:1"
       d="m 115.328,170.60233 10.47333,0.11995"
       id="path3880"
       sodipodi:nodetypes="cc" />
    <path
       style="fill:none;stroke:#ebebeb;stroke-width:0.264583px;stroke-linecap:butt;stroke-linejoin:miter;stroke-opacity:1"
       d="m 138.45733,170.86521 -8.07541,-0.1398"
       id="path3882"
       sodipodi:nodetypes="cc" />
    <path
       style="fill:none;stroke:#ebebeb;stroke-width:0.264583px;stroke-linecap:butt;stroke-linejoin:miter;stroke-opacity:1"
       d="m 116.80603,178.16559 18.47647,7.28888"
       id="path4592" />
    <path
       style="fill:none;stroke:#ebebeb;stroke-width:0.264583px;stroke-linecap:butt;stroke-linejoin:miter;stroke-opacity:1"
       d="m 116.69323,179.13448 16.84679,8.96548"
       id="path4594" />
    <path
       style="fill:none;stroke:#ebebeb;stroke-width:0.264583px;stroke-linecap:butt;stroke-linejoin:miter;stroke-opacity:1"
       d="m 117.40638,181.16206 13.72338,9.94819"
       id="path4596" />
    <path
       style="fill:none;stroke:#ebebeb;stroke-width:0.264583px;stroke-linecap:butt;stroke-linejoin:miter;stroke-opacity:1"
       d="m 94.436283,154.02371 -4.218421,-10.1529"
       id="path4598" />
    <path
       style="fill:none;stroke:#ebebeb;stroke-width:0.264583px;stroke-linecap:butt;stroke-linejoin:miter;stroke-opacity:1"
       d="m 93.218888,142.35315 4.383873,11.8448"
       id="path4600" />
    <path
       style="fill:none;stroke:#ebebeb;stroke-width:0.264583px;stroke-linecap:butt;stroke-linejoin:miter;stroke-opacity:1"
       d="m 96.609269,140.35672 3.007066,9.33464"
       id="path4602" />
    <path
       style="fill:none;stroke:#ebebeb;stroke-width:0.264583px;stroke-linecap:butt;stroke-linejoin:miter;stroke-opacity:1"
       d="m 101.06477,139.13943 1.31122,5.82649"
       id="path4604" />
    <path
       style="fill:none;stroke:#ebebeb;stroke-width:0.264583px;stroke-linecap:butt;stroke-linejoin:miter;stroke-opacity:1"
       d="m 87.282974,146.61266 3.331385,6.86228"
       id="path4606" />
    <path
       style="fill:none;stroke:#ebebeb;stroke-width:0.264583px;stroke-linecap:butt;stroke-linejoin:miter;stroke-opacity:1"
       d="m 84.338307,149.67543 3.074085,4.12779"
       id="path4608" />
    <path
       style="fill:none;stroke:#ebebeb;stroke-width:0.264583px;stroke-linecap:butt;stroke-linejoin:miter;stroke-opacity:1"
       d="m 80.91321,153.14535 2.126845,2.20144"
       id="path4610" />
    <path
       style="fill:none;stroke:#ebebeb;stroke-width:0.264583px;stroke-linecap:butt;stroke-linejoin:miter;stroke-opacity:1"
       d="m 78.546866,156.92125 2.25011,1.79758"
       id="path4612" />
    <path
       style="fill:none;stroke:#ebebeb;stroke-width:0.264583px;stroke-linecap:butt;stroke-linejoin:miter;stroke-opacity:1"
       d="m 76.906497,160.43434 3.180213,1.99435"
       id="path4614" />
    <path
       style="fill:none;stroke:#ebebeb;stroke-width:0.264583px;stroke-linecap:butt;stroke-linejoin:miter;stroke-opacity:1"
       d="m 76.161185,164.34932 3.560778,1.69387"
       id="path4616" />
    <path
       style="fill:none;stroke:#ebebeb;stroke-width:0.264583px;stroke-linecap:butt;stroke-linejoin:miter;stroke-opacity:1"
       d="m 75.394009,168.4481 4.438256,0.0907"
       id="path4618" />
    <path
       style="fill:none;stroke:#ebebeb;stroke-width:0.264583px;stroke-linecap:butt;stroke-linejoin:miter;stroke-opacity:1"
       d="m 76.263248,171.81475 7.09464,-0.35508"
       id="path4620" />
    <path
       style="fill:none;stroke:#ebebeb;stroke-width:0.264583px;stroke-linecap:butt;stroke-linejoin:miter;stroke-opacity:1"
       d="M 87.161684,171.05186 98.76874,170.57341"
       id="path4622" />
    <path
       style="fill:none;stroke:#ebebeb;stroke-width:0.264583px;stroke-linecap:butt;stroke-linejoin:miter;stroke-opacity:1"
       d="m 75.799735,175.94583 22.566907,-2.83491"
       id="path4624" />
    <path
       style="fill:none;stroke:#ebebeb;stroke-width:0.264583px;stroke-linecap:butt;stroke-linejoin:miter;stroke-opacity:1"
       d="m 77.917018,179.9498 19.622463,-4.65403"
       id="path4626" />
    <path
       style="fill:none;stroke:#ebebeb;stroke-width:0.264583px;stroke-linecap:butt;stroke-linejoin:miter;stroke-opacity:1"
       d="m 78.999611,184.00562 18.825625,-6.42634"
       id="path4628" />
    <path
       style="fill:none;stroke:#ebebeb;stroke-width:0.264583px;stroke-linecap:butt;stroke-linejoin:miter;stroke-opacity:1"
       d="M 80.458706,187.59288 97.634842,179.8351"
       id="path4630" />
    <path
       style="fill:none;stroke:#ebebeb;stroke-width:0.264583px;stroke-linecap:butt;stroke-linejoin:miter;stroke-opacity:1"
       d="m 83.189907,191.82547 16.034438,-9.77256"
       id="path4632" />
    <path
       style="fill:none;stroke:#ebebeb;stroke-width:0.264583px;stroke-linecap:butt;stroke-linejoin:miter;stroke-opacity:1"
       d="m 105.506,141.0226 -0.27983,-2.34943"
       id="path4634" />
    <path
       style="fill:none;stroke:#ebebeb;stroke-width:0.264583px;stroke-linecap:butt;stroke-linejoin:miter;stroke-opacity:1"
       d="m 110.43523,141.53918 0.57711,-2.26022"
       id="path4636" />
    <path
       style="fill:none;stroke:#ebebeb;stroke-width:0.264583px;stroke-linecap:butt;stroke-linejoin:miter;stroke-opacity:1"
       d="m 112.08867,145.24992 2.01765,-5.07601"
       id="path4638" />
    <path
       style="fill:none;stroke:#ebebeb;stroke-width:0.264583px;stroke-linecap:butt;stroke-linejoin:miter;stroke-opacity:1"
       d="m 114.20124,149.71333 3.43081,-7.96234"
       id="path4640" />
    <path
       style="fill:none;stroke:#ebebeb;stroke-width:0.264583px;stroke-linecap:butt;stroke-linejoin:miter;stroke-opacity:1"
       d="m 115.34282,152.94683 5.19742,-9.96328"
       id="path4642" />
    <path
       style="fill:none;stroke:#ebebeb;stroke-width:0.264583px;stroke-linecap:butt;stroke-linejoin:miter;stroke-opacity:1"
       d="m 116.70348,155.52983 6.94468,-10.34616"
       id="path4644" />
    <path
       style="fill:none;stroke:#ebebeb;stroke-width:0.264583px;stroke-linecap:butt;stroke-linejoin:miter;stroke-opacity:1"
       d="m 121.74807,154.62675 4.83542,-6.85723"
       id="path4646" />
    <path
       style="fill:none;stroke:#ebebeb;stroke-width:0.264583px;stroke-linecap:butt;stroke-linejoin:miter;stroke-opacity:1"
       d="m 124.96246,154.52414 4.70522,-4.38487"
       id="path4648" />
    <path
       style="fill:none;stroke:#ebebeb;stroke-width:0.264583px;stroke-linecap:butt;stroke-linejoin:miter;stroke-opacity:1"
       d="m 128.88688,155.544 3.04354,-2.58454"
       id="path4650" />
    <path
       style="fill:none;stroke:#ebebeb;stroke-width:0.264583px;stroke-linecap:butt;stroke-linejoin:miter;stroke-opacity:1"
       d="m 131.20203,156.61879 2.09158,-1.22234"
       id="path4652" />
    <path
       style="fill:none;stroke:#ebebeb;stroke-width:0.264583px;stroke-linecap:butt;stroke-linejoin:miter;stroke-opacity:1"
       d="m 132.93216,159.19289 2.23934,-0.95988"
       id="path4654" />
    <path
       style="fill:none;stroke:#ebebeb;stroke-width:0.264583px;stroke-linecap:butt;stroke-linejoin:miter;stroke-opacity:1"
       d="m 133.85072,161.81642 2.87886,-0.83144"
       id="path4656" />
    <path
       style="fill:none;stroke:#ebebeb;stroke-width:0.264583px;stroke-linecap:butt;stroke-linejoin:miter;stroke-opacity:1"
       d="m 134.24041,164.47676 2.7891,-0.5414"
       id="path4658" />
    <path
       style="fill:none;stroke:#ebebeb;stroke-width:0.264583px;stroke-linecap:butt;stroke-linejoin:miter;stroke-opacity:1"
       d="m 133.83249,167.43132 4.08581,0.12337"
       id="path4660" />
    <path
       style="fill:none;stroke:#ebebeb;stroke-width:0.264583px;stroke-linecap:butt;stroke-linejoin:miter;stroke-opacity:1"
       d="m 124.3403,168.02172 -7.57288,-0.30454"
       id="path4662" />
    <path
       style="fill:none;stroke:#ebebeb;stroke-width:0.264583px;stroke-linecap:butt;stroke-linejoin:miter;stroke-opacity:1"
       d="m 115.32415,181.54194 3.69053,2.99113"
       id="path4664" />
    <path
       style="fill:none;stroke:#ebebeb;stroke-width:0.264583px;stroke-linecap:butt;stroke-linejoin:miter;stroke-opacity:1"
       d="m 124.15661,189.26763 4.46748,3.96673"
       id="path4666" />
    <path
       style="fill:none;stroke:#ebebeb;stroke-width:0.264583px;stroke-linecap:butt;stroke-linejoin:miter;stroke-opacity:1"
       d="m 123.69507,193.20513 2.67298,2.63409"
       id="path4668" />
    <path
       style="fill:none;stroke:#ebebeb;stroke-width:0.264583px;stroke-linecap:butt;stroke-linejoin:miter;stroke-opacity:1"
       d="m 122.3097,195.64783 1.62421,2.51422"
       id="path4670" />
    <path
       style="fill:none;stroke:#ebebeb;stroke-width:0.264583px;stroke-linecap:butt;stroke-linejoin:miter;stroke-opacity:1"
       d="m 119.48907,197.15527 0.90802,2.69198"
       id="path4672" />
    <path
       style="fill:none;stroke:#ebebeb;stroke-width:0.264583px;stroke-linecap:butt;stroke-linejoin:miter;stroke-opacity:1"
       d="m 116.1178,197.54957 0.67171,3.49738"
       id="path4674" />
    <path
       style="fill:none;stroke:#ebebeb;stroke-width:0.264583px;stroke-linecap:butt;stroke-linejoin:miter;stroke-opacity:1"
       d="m 112.90968,197.34105 1.1539,5.0737"
       id="path4676" />
    <path
       style="fill:none;stroke:#ebebeb;stroke-width:0.264583px;stroke-linecap:butt;stroke-linejoin:miter;stroke-opacity:1"
       d="m 103.24369,201.02916 -0.13491,1.63147"
       id="path4678" />
    <path
       style="fill:none;stroke:#ebebeb;stroke-width:0.264583px;stroke-linecap:butt;stroke-linejoin:miter;stroke-opacity:1"
       d="m 99.934391,197.31655 -0.650282,4.71302"
       id="path4680" />
    <path
       style="fill:none;stroke:#ebebeb;stroke-width:0.264583px;stroke-linecap:butt;stroke-linejoin:miter;stroke-opacity:1"
       d="m 96.058304,198.13887 -0.629407,2.48665"
       id="path4682" />
    <path
       style="fill:none;stroke:#ebebeb;stroke-width:0.264583px;stroke-linecap:butt;stroke-linejoin:miter;stroke-opacity:1"
       d="m 91.327702,197.08737 -0.45066,1.51403"
       id="path4684" />
    <path
       style="fill:none;stroke:#ebebeb;stroke-width:0.264583px;stroke-linecap:butt;stroke-linejoin:miter;stroke-opacity:1"
       d="m 85.457267,194.18995 3.87268,-3.60956"
       id="path4686" />
  </g>
  <g
     inkscape:groupmode="layer"
     id="layer2"
     inkscape:label="Warstwa 2"
     style="display:inline"
     transform="translate(-61.77379,-125.89818)">
    <path
       style="fill:none;stroke:#ebebeb;stroke-width:1.00008;stroke-linecap:butt;stroke-linejoin:miter;stroke-miterlimit:4;stroke-dasharray:none;stroke-opacity:1"
       d="m 133.22593,140.85879 c -20.16619,-15.0103 -38.738787,-11.48185 -56.989602,5.78924 -12.840878,16.5032 -11.652506,36.19141 1.907226,51.8859 15.398089,14.82804 34.348836,18.49442 52.112126,3.44259 11.58114,-8.51082 19.61636,-19.20769 17.28543,-36.29522 -2.15979,-14.87163 -8.60527,-18.91808 -14.31518,-24.82251 z"
       id="path7184"
       sodipodi:nodetypes="cccccc" />
    <path
       style="fill:none;stroke:#ebebeb;stroke-width:1.00008;stroke-linecap:butt;stroke-linejoin:miter;stroke-miterlimit:4;stroke-dasharray:none;stroke-opacity:1"
       d="m 77.002295,184.68281 c -6.503847,-13.08418 -2.367675,-25.36123 4.817724,-34.65857 13.735284,-14.34022 28.819081,-16.62246 45.577001,-3.9353 11.04439,9.72467 16.34158,21.66531 9.55261,38.26604 -6.07551,10.15282 -13.51739,18.83603 -27.89978,20.05422 -12.721547,-1.31214 -24.68352,-4.58496 -32.047555,-19.72639 z"
       id="path10061"
       sodipodi:nodetypes="cccccc" />
    <path
       style="fill:none;stroke:#ebebeb;stroke-width:1.00008;stroke-linecap:butt;stroke-linejoin:miter;stroke-miterlimit:4;stroke-dasharray:none;stroke-opacity:1"
       d="m 103.42522,183.89693 c -0.90162,3.40542 -2.44859,8.93118 -5.812685,9.14938 -1.889729,-0.33615 -3.614247,-0.84012 -2.19243,-4.54022 0.83615,-1.6111 -0.680462,-4.26084 -1.833909,-2.87622 -1.876715,2.79494 -3.278707,5.68958 -2.733662,8.99314 1.652865,2.1385 3.854403,3.18997 7.187967,1.99868 7.436809,-1.54811 5.760209,-8.20735 7.646929,-12.66609 z"
       id="path15179"
       sodipodi:nodetypes="cccccccc" />
    <path
       style="fill:none;stroke:#ebebeb;stroke-width:1.00008;stroke-linecap:butt;stroke-linejoin:miter;stroke-miterlimit:4;stroke-dasharray:none;stroke-opacity:1"
       d="m 105.35929,184.73541 -2.52694,11.1579 c 0.13633,2.46355 0.44527,4.87946 4.00699,6.39753 2.72144,-2.16157 3.59083,-4.89517 4.0098,-7.76789 l -1.94819,-10.50877 -3.21352,-0.0586 z"
       id="path16107"
       sodipodi:nodetypes="ccccccc" />
    <path
       style="fill:none;stroke:#ebebeb;stroke-width:1.00008;stroke-linecap:butt;stroke-linejoin:miter;stroke-miterlimit:4;stroke-dasharray:none;stroke-opacity:1"
       d="m 108.90095,184.01418 c 0.73117,4.69246 0.87231,9.78962 4.74034,12.33048 3.92386,0.87745 6.64864,-0.10983 8.83047,-1.9415 2.18724,-4.28825 0.16733,-7.21672 -2.2284,-9.83524 -0.57102,2.99033 1.55885,7.23411 -3.5993,8.36575 -4.32598,-1.30917 -4.10842,-5.46309 -5.35336,-8.89727 z"
       id="path17115"
       sodipodi:nodetypes="ccccccc" />
    <path
       style="fill:none;stroke:#ebebeb;stroke-width:1.00008;stroke-linecap:butt;stroke-linejoin:miter;stroke-miterlimit:4;stroke-dasharray:none;stroke-opacity:1"
       d="m 101.37436,183.78283 c 3.9761,0.016 7.84917,0.71025 11.96614,-0.20105 2.30614,-3.32604 3.2163,-6.55085 -0.41764,-9.44619 l -11.57771,0.0266 c -2.606461,4.42148 -1.600084,7.16566 0.0292,9.62064 z"
       id="path17886"
       sodipodi:nodetypes="cccccc" />
    <path
       style="fill:none;stroke:#ebebeb;stroke-width:1.00008;stroke-linecap:butt;stroke-linejoin:miter;stroke-miterlimit:4;stroke-dasharray:none;stroke-opacity:1"
       d="m 105.93334,174.12456 c -0.96193,-8.31001 -7.338209,-15.92759 -5.70934,-23.73403 2.19272,-5.04765 5.24313,-7.8723 8.07427,-11.26527 2.80214,5.85857 5.3356,10.47412 5.57453,16.82442 -0.75383,6.00304 -3.82031,11.9902 -4.98502,18.16501 z"
       id="path18890"
       sodipodi:nodetypes="cccccc" />
    <path
       style="fill:none;stroke:#ebebeb;stroke-width:1.00008;stroke-linecap:butt;stroke-linejoin:miter;stroke-miterlimit:4;stroke-dasharray:none;stroke-opacity:1"
       d="m 102.38628,174.05231 c -1.28455,-6.18138 -3.129493,-11.92133 -11.105079,-12.83202 -5.007672,0.0993 -7.658142,1.53263 -4.836127,7.2459 1.897243,2.86216 -1.192912,6.46338 -5.088682,-0.33417 -0.230767,-7.36519 -0.182063,-14.09575 10.982878,-13.71694 10.58379,0.57134 12.35207,15.76379 13.59407,19.70948 z"
       id="path20198"
       sodipodi:nodetypes="ccccccc" />
    <path
       style="fill:none;stroke:#ebebeb;stroke-width:1.00008;stroke-linecap:butt;stroke-linejoin:miter;stroke-miterlimit:4;stroke-dasharray:none;stroke-opacity:1"
       d="m 108.88778,174.11469 c 3.14834,-21.50382 25.38301,-23.79521 24.46299,-8.08243 -1.33602,2.71631 -3.55699,6.1488 -7.32228,5.16932 6.0863,-17.45754 -15.01494,-7.8086 -14.5501,2.85788 z"
       id="path21761"
       sodipodi:nodetypes="ccccc" />
    <path
       style="fill:none;stroke:#ebebeb;stroke-width:1.00008;stroke-linecap:butt;stroke-linejoin:miter;stroke-miterlimit:4;stroke-dasharray:none;stroke-opacity:1"
       d="m 100.05189,177.35888 15.06862,0.051"
       id="path22969"
       sodipodi:nodetypes="cc" />
    <path
       style="fill:none;stroke:#ebebeb;stroke-width:1.00008;stroke-linecap:butt;stroke-linejoin:miter;stroke-miterlimit:4;stroke-dasharray:none;stroke-opacity:1"
       d="m 100.3339,181.68354 h 14.14139"
       id="path22971"
       sodipodi:nodetypes="cc" />
    <path
       style="fill:none;stroke:#ebebeb;stroke-width:1.00008;stroke-linecap:butt;stroke-linejoin:miter;stroke-miterlimit:4;stroke-dasharray:none;stroke-opacity:1"
       d="m 107.13516,173.04346 c -0.50496,-9.90952 -0.66772,-19.84285 0.37441,-29.85997"
       id="path33798"
       sodipodi:nodetypes="cc" />
    <path
       style="fill:none;stroke:#ebebeb;stroke-width:1.00008;stroke-linecap:butt;stroke-linejoin:miter;stroke-miterlimit:4;stroke-dasharray:none;stroke-opacity:1"
       d="m 107.38267,184.65664 -0.72775,14.02774"
       id="path33890" />
  </g>
</svg>
