<?xml version="1.0" encoding="UTF-8" standalone="no"?>
<!-- Created with Inkscape (http://www.inkscape.org/) -->

<svg
   width="41.508427mm"
   height="34.785427mm"
   viewBox="0 0 41.508426 34.785428"
   version="1.1"
   id="svg5"
   sodipodi:docname="krzyz_ziarenka.svg"
   inkscape:version="1.2-dev (0853165845, 2021-06-13, custom)"
   xmlns:inkscape="http://www.inkscape.org/namespaces/inkscape"
   xmlns:sodipodi="http://sodipodi.sourceforge.net/DTD/sodipodi-0.dtd"
   xmlns="http://www.w3.org/2000/svg"
   xmlns:svg="http://www.w3.org/2000/svg">
  <sodipodi:namedview
     id="namedview7"
     pagecolor="#505050"
     bordercolor="#eeeeee"
     borderopacity="1"
     objecttolerance="10.0"
     gridtolerance="10.0"
     guidetolerance="10.0"
     inkscape:pageshadow="0"
     inkscape:pageopacity="0"
     inkscape:pagecheckerboard="0"
     inkscape:document-units="mm"
     showgrid="false"
     inkscape:zoom="0.83150518"
     inkscape:cx="-348.1638"
     inkscape:cy="188.81422"
     inkscape:window-width="1920"
     inkscape:window-height="1080"
     inkscape:window-x="0"
     inkscape:window-y="0"
     inkscape:window-maximized="1"
     inkscape:current-layer="layer4"
     fit-margin-top="5"
     fit-margin-left="5"
     fit-margin-right="5"
     fit-margin-bottom="5"
     lock-margins="true" />
  <defs
     id="defs2" />
  <g
     inkscape:groupmode="layer"
     id="layer4"
     inkscape:label="Warstwa 4"
     style="display:inline"
     transform="translate(-86.362621,-99.626325)">
    <path
       style="fill:none;stroke:#ffffff;stroke-width:0.264583px;stroke-linecap:butt;stroke-linejoin:miter;stroke-opacity:1"
       d="m 107.46453,129.26195 c -2.10748,-0.26268 -2.80193,-3.82875 -0.25192,-4.33564 0.21046,-0.0418 0.78509,-0.17732 0.96405,-0.0599 0.23802,0.1562 0.41655,0.72263 0.56393,0.96998 0.83395,1.39969 0.0972,1.50388 -0.62952,2.72505 -0.17389,0.29223 -0.3728,0.59313 -0.64654,0.70049 z"
       id="path12470" />
    <path
       style="fill:none;stroke:#ffffff;stroke-width:0.264583px;stroke-linecap:butt;stroke-linejoin:miter;stroke-opacity:1"
       d="m 119.72549,124.5587 c 0.93092,2.83816 -2.18733,4.65478 -4.02089,2.12223 -0.10114,-0.1397 0.0459,-0.59408 0.0842,-0.73037 0.0925,-0.32974 0.24903,-0.93227 0.57217,-1.09226 0.68307,-0.33818 2.76888,-0.76632 3.36456,-0.2996 z"
       id="path12472" />
    <path
       style="fill:none;stroke:#ffffff;stroke-width:0.264583px;stroke-linecap:butt;stroke-linejoin:miter;stroke-opacity:1"
       d="m 115.3671,115.94323 c 1.36436,-0.21838 2.60207,1.43537 2.16288,2.75295 -0.10296,0.30889 -1.35003,0.61685 -1.64487,0.76135 -0.65533,0.32119 -1.78994,-0.70454 -2.03126,-1.19212 -0.42796,-0.86465 1.03827,-2.00535 1.51325,-2.32218 z"
       id="path12474" />
    <path
       style="fill:none;stroke:#ffffff;stroke-width:0.264583px;stroke-linecap:butt;stroke-linejoin:miter;stroke-opacity:1"
       d="m 95.013281,125.82257 c 3.351813,-0.57537 1.55194,-4.50267 -1.227171,-3.12737 -2.162607,1.07022 -0.619541,3.14558 1.227171,3.12737 z"
       id="path12478" />
    <path
       style="fill:none;stroke:#ffffff;stroke-width:0.264583px;stroke-linecap:butt;stroke-linejoin:miter;stroke-opacity:1"
       d="m 91.550722,120.00586 c 0.298079,0.34853 0.941419,0.67187 1.38988,0.78443 0.395795,0.0993 0.818237,0.21707 1.237829,0.31805 1.424736,0.34287 2.363997,-0.0606 2.056313,-1.59906 -0.07429,-0.37143 -0.03185,-0.89598 -0.224563,-1.18136 -1.170961,-1.73401 -5.025684,-1.03876 -4.459459,1.67794 z"
       id="path12480" />
    <path
       style="fill:none;stroke:#ffffff;stroke-width:0.264583px;stroke-linecap:butt;stroke-linejoin:miter;stroke-opacity:1"
       d="m 102.34468,111.96574 c 0.24162,0.92903 0.38035,4.44112 -1.58961,3.45135 -0.45154,-0.22686 -0.14959,-0.80566 -0.44934,-1.09314 -0.522233,-0.50085 -1.811598,-1.47937 -1.548306,-2.5418 0.36467,-1.4715 3.373626,-0.68085 3.587256,0.18359 z"
       id="path12484" />
    <path
       style="fill:none;stroke:#ffffff;stroke-width:0.264583px;stroke-linecap:butt;stroke-linejoin:miter;stroke-opacity:1"
       d="m 92.6287,116.44245 c 0.259898,0.17916 0.631648,0.38474 0.929333,0.38474 5.186498,0 -1.957874,-6.39846 -1.957874,-1.60796 0,0.71518 0.802608,0.71253 1.028541,1.22322 z"
       id="path12486" />
    <path
       style="fill:none;stroke:#ffffff;stroke-width:0.264583px;stroke-linecap:butt;stroke-linejoin:miter;stroke-opacity:1"
       d="m 104.29409,124.26691 c 0.84784,0.10662 1.22651,0.27875 2.00314,-0.21028 0.45865,-0.28881 0.42029,-0.69678 0.48867,-1.16763 0.0783,-0.53925 0.24466,-1.36649 -0.0847,-1.86053 -0.66483,-0.99725 -4.52972,-1.08316 -3.4741,2.1208 0.18143,0.55066 0.58096,0.90282 1.06699,1.11764 z"
       id="path12490" />
    <path
       style="fill:none;stroke:#ffffff;stroke-width:0.264583px;stroke-linecap:butt;stroke-linejoin:miter;stroke-opacity:1"
       d="m 99.369802,125.83103 c -0.196337,-0.36618 -0.735944,-0.88879 -1.192456,-0.88879 -1.234913,0 -1.653093,0.72263 -1.319239,1.72419 0.08886,0.26659 -0.09925,0.61618 0.106897,0.82233 1.200581,1.20058 3.893306,2.03788 3.239756,-0.5993 -0.12134,-0.48963 -0.582585,-0.67612 -0.834958,-1.05843 z"
       id="path12492" />
    <path
       style="fill:none;stroke:#ffffff;stroke-width:0.264583px;stroke-linecap:butt;stroke-linejoin:miter;stroke-opacity:1"
       d="m 109.25332,115.151 c 0.20472,0.3131 0.40487,0.62709 0.62403,0.91846 1.88344,2.50399 -1.40834,2.98905 -2.23814,2.15925 -1.85683,-1.85683 -0.9947,-3.23609 1.61411,-3.07771 z"
       id="path12494" />
    <path
       style="fill:none;stroke:#ffffff;stroke-width:0.264583px;stroke-linecap:butt;stroke-linejoin:miter;stroke-opacity:1"
       d="m 110.27808,109.38097 c -0.18873,0.44256 0.30954,1.44301 -0.34112,1.52364 -0.4821,0.0597 -0.92327,-0.0677 -1.40757,-0.0677 -0.24467,0 -0.83282,-0.0214 -1.01512,-0.14597 -0.0759,-0.0518 -0.0931,-0.37528 -0.14923,-0.47768 -0.11109,-0.20272 -1.15663,-1.52442 -0.85733,-1.78707 0.44547,-0.39092 1.33578,-0.44035 1.91867,-0.60936 0.27366,-0.0794 0.53683,-0.30439 0.77234,-0.38198 1.47575,-0.48615 1.17027,1.1906 1.07936,1.94609 z"
       id="path12496" />
    <path
       style="fill:none;stroke:#ffffff;stroke-width:0.264583px;stroke-linecap:butt;stroke-linejoin:miter;stroke-opacity:1"
       d="m 105.91924,115.2145 c -0.52948,-0.0674 -0.97201,-0.37138 -1.53202,-0.45151 -2.55529,-0.36564 -2.02234,2.0385 -0.15359,2.77507 1.3948,0.54975 2.28993,-1.58711 1.68561,-2.32356 z"
       id="path12498" />
    <path
       style="fill:none;stroke:#ffffff;stroke-width:0.264583px;stroke-linecap:butt;stroke-linejoin:miter;stroke-opacity:1"
       d="m 101.63103,119.77143 c 0.34838,0.30411 1.32812,0.47656 1.85955,0.3711 0.74173,-0.1472 0.82007,-1.65302 0.50977,-2.16913 -0.47448,-0.78915 -2.61426,-1.18219 -2.61426,0.19204 0,0.58654 0.43744,0.95197 0.24494,1.60599 z"
       id="path12500" />
    <path
       style="fill:none;stroke:#ffffff;stroke-width:0.264583px;stroke-linecap:butt;stroke-linejoin:miter;stroke-opacity:1"
       d="m 97.356019,123.28838 c -0.130382,0.64068 0.427968,0.84923 0.8578,1.17328 0.296227,0.22333 0.823709,0.25883 1.18827,0.30414 0.971171,0.1207 1.098441,-0.074 1.767721,-0.6228 0.1919,-0.15736 0.44811,-0.25813 0.486,-0.52469 0.0585,-0.41151 -0.22063,-0.70398 -0.22063,-1.09932 0,-0.22306 0.26611,-0.70407 0.12119,-0.8968 -0.42298,-0.56251 -2.626501,-1.17245 -3.315905,-0.93967 -0.189399,0.064 -0.262189,0.38893 -0.319675,0.56049 -0.118663,0.35414 -0.510849,0.62841 -0.641212,1.02459 -0.133586,0.40597 0.2525,0.73826 0.07644,1.02078 z"
       id="path12506" />
    <path
       style="fill:none;stroke:#ffffff;stroke-width:0.264583px;stroke-linecap:butt;stroke-linejoin:miter;stroke-opacity:1"
       d="m 99.845827,120.26698 c 0.519773,0.007 1.063553,-0.34366 1.225943,-0.83084 0.0718,-0.21543 -0.14574,-0.35441 -0.1998,-0.51871 -0.31499,-0.95728 -1.224303,-1.0855 -2.176583,-0.87605 -0.14872,0.0327 -0.457996,0.0466 -0.542708,0.19848 -0.533183,0.95599 1.104125,2.32305 1.693148,2.02712 z"
       id="path12510" />
    <path
       style="fill:none;stroke:#ffffff;stroke-width:0.264583px;stroke-linecap:butt;stroke-linejoin:miter;stroke-opacity:1"
       d="m 101.40038,116.45183 c -0.20723,-0.16528 -0.4251,-0.309 -0.69536,-0.309 -0.25245,0 -0.44919,0.0844 -0.6839,0.15106 -0.200754,0.057 -0.393915,0.1427 -0.606328,0.20237 -0.612532,0.17209 -0.266925,0.95382 0.140763,1.19705 0.108834,0.0649 0.270103,-0.0122 0.374171,0.0398 0.668174,0.33409 1.686084,-0.54817 1.470654,-1.28126 z"
       id="path12512" />
    <path
       style="fill:none;stroke:#ffffff;stroke-width:0.264583px;stroke-linecap:butt;stroke-linejoin:miter;stroke-opacity:1"
       d="m 103.51412,124.25906 c 0.46884,0.46108 0.66326,1.07094 0.8609,1.66735 1.09173,3.2945 -3.5165,2.07725 -3.88107,1.03174 -0.604562,-1.7338 0.70305,-2.71556 2.31113,-2.71556 0.34705,0 0.44885,-0.13708 0.70904,0.0165 z"
       id="path12514" />
    <path
       style="fill:none;stroke:#ffffff;stroke-width:0.264583px;stroke-linecap:butt;stroke-linejoin:miter;stroke-opacity:1"
       d="m 111.99064,124.2109 c 1.98625,0.22016 2.6252,3.29715 0.86682,4.14061 -0.1414,0.0678 -1.37967,0.46873 -1.48006,0.25527 -0.14666,-0.3118 -0.84741,-0.39516 -1.03143,-0.85951 -0.67664,-1.70746 0.27267,-2.99169 1.64467,-3.53637 z"
       id="path12516" />
    <path
       style="fill:none;stroke:#ffffff;stroke-width:0.264583px;stroke-linecap:butt;stroke-linejoin:miter;stroke-opacity:1"
       d="m 122.05053,121.06187 c -0.35183,-0.26915 -1.26757,-1.23961 -1.85537,-0.94571 -0.928,0.464 -0.68849,2.82815 -0.28598,3.45015 0.0653,0.10092 0.5574,-0.13208 0.58634,-0.14161 0.59404,-0.19572 1.0712,-0.17166 1.62785,-0.45187 1.36654,-0.68792 0.0484,-1.89563 -0.0728,-1.91096 z"
       id="path12518" />
    <path
       style="fill:none;stroke:#ffffff;stroke-width:0.264583px;stroke-linecap:butt;stroke-linejoin:miter;stroke-opacity:1"
       d="m 114.20102,120.62044 c -0.33432,-0.20273 -0.77141,-0.19659 -1.00273,-0.0439 -0.60055,0.39627 0.15986,2.45264 0.87451,2.09531 0.7941,-0.39705 1.07434,-1.69223 0.12822,-2.05136 z"
       id="path12520" />
    <path
       style="fill:none;stroke:#ffffff;stroke-width:0.264583px;stroke-linecap:butt;stroke-linejoin:miter;stroke-opacity:1"
       d="m 115.15671,115.19484 c 0.0947,-0.40563 -0.16405,-0.88583 -0.44593,-1.18784 -0.31345,-0.33584 -0.70309,-1.28606 -1.1941,-1.28606 -3.07626,0 -1.70817,4.62125 0.65544,3.23921 0.5015,-0.29325 0.58598,-0.43188 0.98459,-0.76531 z"
       id="path12522" />
    <path
       style="fill:none;stroke:#ffffff;stroke-width:0.264583px;stroke-linecap:butt;stroke-linejoin:miter;stroke-opacity:1"
       d="m 120.02355,119.04137 c -1.0041,-1.35745 -4.05348,0.22799 -1.96337,1.24585 0.2778,0.13529 0.61509,0.42674 0.91659,0.20369 0.43916,-0.32491 0.68337,-1.06676 1.04678,-1.44954 z"
       id="path12524" />
    <path
       style="fill:none;stroke:#ffffff;stroke-width:0.264583px;stroke-linecap:butt;stroke-linejoin:miter;stroke-opacity:1"
       d="m 111.6713,119.59684 c -0.24488,-0.32889 -0.53477,-0.89449 -0.91845,-1.02239 -1.54129,-0.51376 -2.59889,2.31428 -1.41515,3.12264 0.61803,0.42206 1.44996,1.37296 2.29339,1.51326 1.14228,0.19002 0.89683,-2.02964 0.50911,-2.61804 -0.21042,-0.31933 -0.35111,-0.65784 -0.4689,-0.99547 z"
       id="path12526" />
    <path
       style="fill:none;stroke:#ffffff;stroke-width:0.264583px;stroke-linecap:butt;stroke-linejoin:miter;stroke-opacity:1"
       d="m 106.06608,113.23872 c -0.34104,-1.80431 -3.08357,-0.53882 -2.0829,0.96218 0.41632,0.62449 2.08607,0.92548 2.36799,0.10613 0.14586,-0.4239 -0.22314,-0.71662 -0.28509,-1.06831 z"
       id="path12528" />
    <path
       style="fill:none;stroke:#ffffff;stroke-width:0.264583px;stroke-linecap:butt;stroke-linejoin:miter;stroke-opacity:1"
       d="m 97.491578,117.83617 c 0.489466,-0.0999 1.462405,-0.53676 1.132141,-1.19729 -0.200818,-0.40163 -1.174533,-0.66373 -1.645861,-1.61927 -0.09127,-0.18503 -0.466342,-1.41481 -0.739381,-1.28574 -0.65141,0.30795 -0.825161,2.93917 -0.24851,3.32743 0.439486,0.29591 0.966023,0.64867 1.501611,0.77487 z"
       id="path12530" />
    <path
       style="fill:none;stroke:#ffffff;stroke-width:0.264583px;stroke-linecap:butt;stroke-linejoin:miter;stroke-opacity:1"
       d="m 106.30207,109.93074 c 0.75319,3.00674 -3.9156,2.1281 -3.35347,-0.12041 0.1005,-0.402 0.51396,-0.42559 0.65193,-0.70807 0.82212,-1.68324 2.37055,-0.14211 2.70154,0.82848 z"
       id="path12532" />
    <path
       style="fill:none;stroke:#ffffff;stroke-width:0.264583px;stroke-linecap:butt;stroke-linejoin:miter;stroke-opacity:1"
       d="m 106.45313,105.11169 c 0.64177,0.48014 0.8733,1.28519 1.19201,1.90767 0.58508,1.14273 -3.59032,1.36484 -4.06626,0.83046 -1.74591,-1.96032 1.38214,-3.90032 2.87425,-2.73813 z"
       id="path12534" />
    <path
       style="fill:none;stroke:#ffffff;stroke-width:0.264583px;stroke-linecap:butt;stroke-linejoin:miter;stroke-opacity:1"
       d="m 114.14191,110.45006 c 0.70792,-0.61554 0.30829,-0.85263 0.0122,-1.44712 -0.17027,-0.34186 -0.3433,-0.84713 -0.64819,-1.04655 -0.62,-0.40554 -2.51686,-0.80042 -2.73186,0.28212 -0.0871,0.43855 0.0448,2.06461 0.47538,2.28703 0.6231,0.32184 2.26999,0.56339 2.89248,-0.0755 z"
       id="path12536" />
    <path
       style="fill:none;stroke:#ffffff;stroke-width:0.264583px;stroke-linecap:butt;stroke-linejoin:miter;stroke-opacity:1"
       d="m 109.41998,114.20299 c 2.12319,0.59816 1.94451,-1.98653 0.90231,-2.98114 -0.32297,-0.30822 -1.96376,0.13784 -2.18441,0.35849 -0.401,0.40099 0.15722,1.5459 0.33849,1.9148 0.22516,0.45824 0.61681,0.35694 0.94361,0.70785 z"
       id="path12538" />
    <path
       style="fill:none;stroke:#ffffff;stroke-width:0.264583px;stroke-linecap:butt;stroke-linejoin:miter;stroke-opacity:1"
       d="m 117.53449,121.12229 c -0.60999,-0.005 -1.3681,-0.19573 -1.90613,-0.32596 -0.29512,-0.0714 0.1293,1.95501 0.14106,2.0261 0.20833,1.25893 2.40012,0.95237 3.32435,0.64786 0.36659,-0.12078 0.26351,-2.99289 -1.55928,-2.348 z"
       id="path12548" />
    <path
       style="fill:none;stroke:#ffffff;stroke-width:0.264583px;stroke-linecap:butt;stroke-linejoin:miter;stroke-opacity:1"
       d="m 113.08953,118.19795 c 0.3379,0.15168 0.34961,0.53256 0.57678,0.7674 0.15476,0.15998 0.48915,0.21771 0.66863,0.39144 0.46848,0.45349 -1.30034,1.53305 -2.01929,-0.39463 -0.0526,-0.1411 -0.18947,-0.37595 0.0166,-0.37595 0.3826,0 0.44155,-0.40123 0.75729,-0.38826 z"
       id="path12550" />
    <path
       style="fill:none;stroke:#ffffff;stroke-width:0.264583px;stroke-linecap:butt;stroke-linejoin:miter;stroke-opacity:1"
       d="m 115.64033,123.77241 c 0.15214,0.13773 0.64784,0.77375 0.31377,0.99646 -3.78824,2.5255 -1.9739,-3.41965 -0.31377,-0.99646 z"
       id="path12556" />
  </g>
</svg>
