<?xml version="1.0" encoding="UTF-8" standalone="no"?>
<!-- Created with Inkscape (http://www.inkscape.org/) -->

<svg
   width="74.66069mm"
   height="74.66069mm"
   viewBox="0 0 74.660688 74.660691"
   version="1.1"
   id="svg5"
   sodipodi:docname="krzyz_lilijka_srebrna.svg"
   inkscape:version="1.2-dev (2b1b049028, 2021-10-21, custom)"
   xmlns:inkscape="http://www.inkscape.org/namespaces/inkscape"
   xmlns:sodipodi="http://sodipodi.sourceforge.net/DTD/sodipodi-0.dtd"
   xmlns="http://www.w3.org/2000/svg"
   xmlns:svg="http://www.w3.org/2000/svg">
  <sodipodi:namedview
     id="namedview7"
     pagecolor="#505050"
     bordercolor="#eeeeee"
     borderopacity="1"
     objecttolerance="10.0"
     gridtolerance="10.0"
     guidetolerance="10.0"
     inkscape:pageshadow="0"
     inkscape:pageopacity="0"
     inkscape:pagecheckerboard="0"
     inkscape:document-units="mm"
     showgrid="false"
     inkscape:zoom="3.3260207"
     inkscape:cx="134.54516"
     inkscape:cy="122.21812"
     inkscape:window-width="1894"
     inkscape:window-height="1024"
     inkscape:window-x="0"
     inkscape:window-y="0"
     inkscape:window-maximized="1"
     inkscape:current-layer="layer2"
     fit-margin-top="5"
     fit-margin-left="5"
     fit-margin-right="5"
     fit-margin-bottom="5"
     lock-margins="true"
     inkscape:blackoutopacity="0.0"
     height="74.66069mm" />
  <defs
     id="defs2" />
  <g
     inkscape:groupmode="layer"
     id="layer2"
     inkscape:label="Warstwa 2"
     style="display:inline"
     transform="translate(-75.800435,-133.2069)">
    <path
       style="fill:#ffffff;fill-opacity:1;stroke:#cacaca;stroke-width:1.00008;stroke-linecap:butt;stroke-linejoin:miter;stroke-miterlimit:4;stroke-dasharray:none;stroke-opacity:1"
       d="m 108.71689,183.89693 c -0.90162,3.40542 -2.44859,8.93118 -5.81269,9.14938 -1.88973,-0.33615 -3.614245,-0.84012 -2.19243,-4.54022 0.83615,-1.6111 -0.68046,-4.26084 -1.833907,-2.87622 -1.876715,2.79494 -3.278707,5.68958 -2.733662,8.99314 1.652865,2.1385 3.854403,3.18997 7.187969,1.99868 7.43681,-1.54811 5.76021,-8.20735 7.64693,-12.66609 z"
       id="path15179"
       sodipodi:nodetypes="cccccccc" />
    <path
       style="fill:#ffffff;fill-opacity:1;stroke:#cacaca;stroke-width:1.00008;stroke-linecap:butt;stroke-linejoin:miter;stroke-miterlimit:4;stroke-dasharray:none;stroke-opacity:1"
       d="m 110.65096,184.73541 -2.52694,11.1579 c 0.13633,2.46355 0.44527,4.87946 4.00699,6.39753 2.72144,-2.16157 3.59083,-4.89517 4.0098,-7.76789 l -1.94819,-10.50877 -3.21352,-0.0586 z"
       id="path16107"
       sodipodi:nodetypes="ccccccc" />
    <path
       style="fill:#ffffff;fill-opacity:1;stroke:#cacaca;stroke-width:1.00008;stroke-linecap:butt;stroke-linejoin:miter;stroke-miterlimit:4;stroke-dasharray:none;stroke-opacity:1"
       d="m 114.19262,184.01418 c 0.73117,4.69246 0.87231,9.78962 4.74034,12.33048 3.92386,0.87745 6.64864,-0.10983 8.83047,-1.9415 2.18724,-4.28825 0.16733,-7.21672 -2.2284,-9.83524 -0.57102,2.99033 1.55885,7.23411 -3.5993,8.36575 -4.32598,-1.30917 -4.10842,-5.46309 -5.35336,-8.89727 z"
       id="path17115"
       sodipodi:nodetypes="ccccccc" />
    <path
       style="fill:#ffffff;fill-opacity:1;stroke:#cacaca;stroke-width:1.00008;stroke-linecap:butt;stroke-linejoin:miter;stroke-miterlimit:4;stroke-dasharray:none;stroke-opacity:1"
       d="m 106.66603,183.78283 c 3.9761,0.016 7.84917,0.71025 11.96614,-0.20105 2.30614,-3.32604 3.2163,-6.55085 -0.41764,-9.44619 l -11.57771,0.0266 c -2.60646,4.42148 -1.60009,7.16566 0.0292,9.62064 z"
       id="path17886"
       sodipodi:nodetypes="cccccc" />
    <path
       style="fill:#ffffff;fill-opacity:1;stroke:#cacaca;stroke-width:1.00008;stroke-linecap:butt;stroke-linejoin:miter;stroke-miterlimit:4;stroke-dasharray:none;stroke-opacity:1"
       d="m 111.22501,174.12456 c -0.96193,-8.31001 -7.33821,-15.92759 -5.70934,-23.73403 2.19272,-5.04765 5.24313,-7.8723 8.07427,-11.26527 2.80214,5.85857 5.3356,10.47412 5.57453,16.82442 -0.75383,6.00304 -3.82031,11.9902 -4.98502,18.16501 z"
       id="path18890"
       sodipodi:nodetypes="cccccc" />
    <path
       style="fill:#ffffff;fill-opacity:1;stroke:#cacaca;stroke-width:1.00008;stroke-linecap:butt;stroke-linejoin:miter;stroke-miterlimit:4;stroke-dasharray:none;stroke-opacity:1"
       d="m 107.67795,174.05231 c -1.28455,-6.18138 -3.1295,-11.92133 -11.105082,-12.83202 -5.007672,0.0993 -7.658142,1.53263 -4.836127,7.2459 1.897243,2.86216 -1.192912,6.46338 -5.088682,-0.33417 -0.230767,-7.36519 -0.182063,-14.09575 10.982878,-13.71694 10.583793,0.57134 12.352073,15.76379 13.594073,19.70948 z"
       id="path20198"
       sodipodi:nodetypes="ccccccc" />
    <path
       style="fill:#ffffff;fill-opacity:1;stroke:#cacaca;stroke-width:1.00008;stroke-linecap:butt;stroke-linejoin:miter;stroke-miterlimit:4;stroke-dasharray:none;stroke-opacity:1"
       d="m 114.17945,174.11469 c 3.14834,-21.50382 25.38301,-23.79521 24.46299,-8.08243 -1.33602,2.71631 -3.55699,6.1488 -7.32228,5.16932 6.0863,-17.45754 -15.01494,-7.8086 -14.5501,2.85788 z"
       id="path21761"
       sodipodi:nodetypes="ccccc" />
    <path
       style="fill:#ffffff;fill-opacity:1;stroke:#cacaca;stroke-width:1.00008;stroke-linecap:butt;stroke-linejoin:miter;stroke-miterlimit:4;stroke-dasharray:none;stroke-opacity:1"
       d="m 105.34356,177.35888 15.06862,0.051"
       id="path22969"
       sodipodi:nodetypes="cc" />
    <path
       style="fill:#ffffff;fill-opacity:1;stroke:#cacaca;stroke-width:1.00008;stroke-linecap:butt;stroke-linejoin:miter;stroke-miterlimit:4;stroke-dasharray:none;stroke-opacity:1"
       d="m 105.62557,181.68354 h 14.14139"
       id="path22971"
       sodipodi:nodetypes="cc" />
    <path
       style="fill:#ffffff;fill-opacity:1;stroke:#cacaca;stroke-width:1.00008;stroke-linecap:butt;stroke-linejoin:miter;stroke-miterlimit:4;stroke-dasharray:none;stroke-opacity:1"
       d="m 112.42683,173.04346 c -0.50496,-9.90952 -0.66772,-19.84285 0.37441,-29.85997"
       id="path33798"
       sodipodi:nodetypes="cc" />
    <path
       style="fill:#ffffff;fill-opacity:1;stroke:#cacaca;stroke-width:1.00008;stroke-linecap:butt;stroke-linejoin:miter;stroke-miterlimit:4;stroke-dasharray:none;stroke-opacity:1"
       d="m 112.67434,184.65664 -0.72775,14.02774"
       id="path33890" />
  </g>
</svg>
