<?xml version="1.0" encoding="UTF-8" standalone="no"?>
<!-- Created with Inkscape (http://www.inkscape.org/) -->

<svg
   width="88.703506mm"
   height="32.375443mm"
   viewBox="0 0 88.703504 32.375443"
   version="1.1"
   id="svg5"
   sodipodi:docname="krzyz_czuwaj.svg"
   inkscape:version="1.2-dev (0853165845, 2021-06-13, custom)"
   xmlns:inkscape="http://www.inkscape.org/namespaces/inkscape"
   xmlns:sodipodi="http://sodipodi.sourceforge.net/DTD/sodipodi-0.dtd"
   xmlns="http://www.w3.org/2000/svg"
   xmlns:svg="http://www.w3.org/2000/svg">
  <sodipodi:namedview
     id="namedview7"
     pagecolor="#505050"
     bordercolor="#eeeeee"
     borderopacity="1"
     objecttolerance="10.0"
     gridtolerance="10.0"
     guidetolerance="10.0"
     inkscape:pageshadow="0"
     inkscape:pageopacity="0"
     inkscape:pagecheckerboard="0"
     inkscape:document-units="mm"
     showgrid="false"
     inkscape:zoom="1.1759259"
     inkscape:cx="59.952757"
     inkscape:cy="94.393703"
     inkscape:window-width="1920"
     inkscape:window-height="1080"
     inkscape:window-x="0"
     inkscape:window-y="0"
     inkscape:window-maximized="1"
     inkscape:current-layer="layer2"
     fit-margin-top="5"
     fit-margin-left="5"
     fit-margin-right="5"
     fit-margin-bottom="5"
     lock-margins="true" />
  <defs
     id="defs2" />
  <g
     inkscape:groupmode="layer"
     id="layer2"
     inkscape:label="Warstwa 2"
     style="display:inline"
     transform="translate(-102.97873,-155.11091)">
    <path
       style="fill:none;fill-opacity:1;stroke:#ffffff;stroke-width:1.00008;stroke-linecap:butt;stroke-linejoin:miter;stroke-miterlimit:4;stroke-dasharray:none;stroke-opacity:1"
       d="m 116.17088,181.78835 c -3.0199,0.2884 -6.08594,0.6828 -7.69145,-2.27757 l 0.081,-15.62946 c 4.33736,-5.20309 7.63149,-3.2329 10.14941,-0.47986 1.04031,2.39225 0.61193,5.43817 -2.82883,4.3781 0.0586,-2.74839 -2.57543,-5.29497 -3.74225,-3.14734 -0.5495,4.44529 0.0398,8.92902 0.18381,13.39772 1.74047,1.8719 3.51837,-1.0529 3.42509,-3.33436 0.38409,-1.24996 2.75289,-1.48565 3.35903,-0.30072 0.51014,3.09752 0.67218,5.62915 -2.93576,7.39349 z"
       id="path10811"
       sodipodi:nodetypes="cccccccccc" />
    <path
       style="fill:none;stroke:#ffffff;stroke-width:1.00008;stroke-linecap:butt;stroke-linejoin:miter;stroke-miterlimit:4;stroke-dasharray:none;stroke-opacity:1"
       d="m 120.70442,164.91033 0.79379,-3.90942 10.23439,0.0607 -6.28565,16.88703 5.6101,-0.53339 -1.18485,3.48231 -9.65175,0.11606 5.51937,-16.0255 z"
       id="path12577" />
    <path
       style="fill:none;stroke:#ffffff;stroke-width:1.00008;stroke-linecap:butt;stroke-linejoin:miter;stroke-miterlimit:4;stroke-dasharray:none;stroke-opacity:1"
       d="m 133.72227,161.65921 -0.20695,15.55147 c 2.62919,4.83718 6.12979,5.34338 10.70827,0.49252 l 0.59103,-16.1355 -3.77946,0.002 -0.0914,14.70011 c -1.39904,2.27819 -2.5361,2.04538 -3.43632,-0.45741 l 0.27881,-14.24045 z"
       id="path12579"
       sodipodi:nodetypes="ccccccccc" />
    <path
       style="fill:none;stroke:#ffffff;stroke-width:1.00008;stroke-linecap:butt;stroke-linejoin:miter;stroke-miterlimit:4;stroke-dasharray:none;stroke-opacity:1"
       d="m 149.18734,161.64616 4.16998,19.33659 2.88693,0.24642 0.99468,-8.54474 1.46794,8.62134 2.24587,0.40676 4.55095,-20.13535 -3.49862,0.12787 -1.68499,7.92947 -1.49466,-7.90539 c 0,0 -2.80816,-0.0104 -2.77429,0.41903 0.0339,0.42945 -1.73595,7.11347 -1.73595,7.11347 l -1.95875,-8.05983 z"
       id="path13355" />
    <path
       style="fill:none;stroke:#ffffff;stroke-width:1.00008;stroke-linecap:butt;stroke-linejoin:miter;stroke-miterlimit:4;stroke-dasharray:none;stroke-opacity:1"
       d="m 165.04069,181.29256 5.03648,-20.50668 2.57184,-0.15071 4.3457,20.18693 -3.58314,0.58854 -0.4714,-3.64094 -3.60039,0.13936 -0.88281,3.63738 z"
       id="path13357" />
    <path
       style="fill:none;stroke:#ffffff;stroke-width:1.00008;stroke-linecap:butt;stroke-linejoin:miter;stroke-miterlimit:4;stroke-dasharray:none;stroke-opacity:1"
       d="m 170.24155,174.58383 0.87535,-5.68779 1.42226,5.59022 z"
       id="path13359" />
    <path
       style="fill:none;stroke:#ffffff;stroke-width:1.00008;stroke-linecap:butt;stroke-linejoin:miter;stroke-miterlimit:4;stroke-dasharray:none;stroke-opacity:1"
       d="m 177.98147,175.33738 c -1.55701,5.6534 7.27974,9.02488 8.02751,2.73514 l 0.16795,-16.31651 -3.36112,0.0615 0.25931,14.41214 c 0.0575,1.92044 -2.18401,2.43912 -2.37685,0.97697 l -0.10612,-2.34252 z"
       id="path13361"
       sodipodi:nodetypes="cccccccc" />
  </g>
</svg>
