<?xml version="1.0" encoding="UTF-8" standalone="no"?>
<!-- Created with Inkscape (http://www.inkscape.org/) -->

<svg
   width="205.14799mm"
   height="216.61394mm"
   viewBox="0 0 205.14799 216.61394"
   version="1.1"
   id="svg5"
   sodipodi:docname="krzyz_ramiona.svg"
   inkscape:version="1.2-dev (0853165845, 2021-06-13, custom)"
   xmlns:inkscape="http://www.inkscape.org/namespaces/inkscape"
   xmlns:sodipodi="http://sodipodi.sourceforge.net/DTD/sodipodi-0.dtd"
   xmlns="http://www.w3.org/2000/svg"
   xmlns:svg="http://www.w3.org/2000/svg">
  <sodipodi:namedview
     id="namedview7"
     pagecolor="#505050"
     bordercolor="#eeeeee"
     borderopacity="1"
     objecttolerance="10.0"
     gridtolerance="10.0"
     guidetolerance="10.0"
     inkscape:pageshadow="0"
     inkscape:pageopacity="0"
     inkscape:pagecheckerboard="0"
     inkscape:document-units="mm"
     showgrid="false"
     inkscape:zoom="0.58796295"
     inkscape:cx="-36.56693"
     inkscape:cy="503.43308"
     inkscape:window-width="1920"
     inkscape:window-height="1080"
     inkscape:window-x="0"
     inkscape:window-y="0"
     inkscape:window-maximized="1"
     inkscape:current-layer="layer2"
     fit-margin-top="0"
     fit-margin-left="0"
     fit-margin-right="0"
     fit-margin-bottom="0" />
  <defs
     id="defs2" />
  <g
     inkscape:groupmode="layer"
     id="layer2"
     inkscape:label="Warstwa 2"
     style="display:inline"
     transform="translate(-4.3896651,-59.261185)">
    <path
       style="fill:none;stroke:#e0e0e0;stroke-width:1.00008;stroke-linecap:butt;stroke-linejoin:miter;stroke-miterlimit:4;stroke-dasharray:none;stroke-opacity:1"
       d="m 74.755101,94.139701 c 1.02336,1.82352 20.084735,37.885799 20.610731,39.631579 l -6.755394,3.23594 C 87.744899,136.17151 71.998092,105.63644 68.032854,100.10591 M 49.071092,75.84148 c -0.191419,-2.223198 2.519642,-5.071081 7.208351,-3.613406 36.545287,8.711159 65.441407,7.153043 99.721027,1.927883 8.04212,-1.169385 9.8222,1.875197 7.52553,4.774658 -17.37616,17.495918 -12.92143,13.523468 -17.5522,19.377025 m -11.62186,-0.588047 -16.02177,35.275237 m 16.02177,-35.275237 c 4.11909,-5.196197 -1.08105,0.922761 10.92994,-12.676185 -26.12382,2.0719 -51.956396,1.39686 -77.56479,-1.392629 l 7.038011,10.488922"
       id="path870"
       sodipodi:nodetypes="ccccccccccccccc" />
    <path
       style="fill:none;stroke:#e0e0e0;stroke-width:1.00008;stroke-linecap:butt;stroke-linejoin:miter;stroke-miterlimit:4;stroke-dasharray:none;stroke-opacity:1"
       d="m 144.80464,258.13476 c -4.12792,-6.53054 -12.88887,-17.76444 -14.30893,-19.15653 m -11.75816,-29.77931 7.07952,-3.90282 m 10.73661,24.33859 c 10.72347,18.03875 12.53059,20.02934 24.39515,32.14534 4.29886,5.04345 3.57668,7.73546 -5.80639,6.37141 -30.41963,-4.31548 -66.661144,-8.13343 -100.41119,-0.67259 -2.103887,-0.77154 -4.454961,-1.33129 -4.467782,-3.56632 2.832747,-4.97919 22.995905,-31.65496 26.020163,-37.19176 m 11.285642,-20.77557 7.756457,3.71283 m -7.626267,16.6968 c -0.635478,0.70039 -16.372997,29.69275 -17.099561,30.9019 23.735548,-1.27848 47.143678,-3.07171 74.204738,0.87803"
       id="path1532"
       sodipodi:nodetypes="ccccccccccccccc" />
    <path
       style="fill:none;stroke:#e0e0e0;stroke-width:1.00008;stroke-linecap:butt;stroke-linejoin:miter;stroke-miterlimit:4;stroke-dasharray:none;stroke-opacity:1"
       d="m 71.438879,188.63566 c -20.695974,6.40958 -39.019142,19.35253 -53.592443,34.62409 -4.544558,2.83916 -8.689679,4.81822 -8.2967656,-2.97441 4.0376096,-32.47094 8.1200146,-64.9407 0.3107402,-97.72129 -2.5455385,-11.33316 1.6436894,-9.87908 8.2936584,-3.75281 14.510809,15.64631 34.885507,24.83363 54.378849,33.29582 l -3.375415,7.22999 c -17.844099,-6.01196 -35.434719,-14.25904 -49.925787,-27.45111 2.981082,25.77828 2.412628,51.94261 1.254458,78.17107 12.018549,-12.57062 31.832875,-19.32478 48.753053,-26.61211 z"
       id="path5430"
       sodipodi:nodetypes="ccccccccccc" />
    <path
       style="fill:none;stroke:#e0e0e0;stroke-width:1.00008;stroke-linecap:butt;stroke-linejoin:miter;stroke-miterlimit:4;stroke-dasharray:none;stroke-opacity:1"
       d="m 142.11932,190.43392 c 13.73244,2.41587 38.93683,18.61572 52.04302,32.62229 10.70931,10.57734 10.51823,4.38381 8.36456,-4.82928 -5.34503,-31.07394 -5.31767,-62.28515 0.96137,-93.65612 1.34573,-7.235 2.94208,-14.83804 -8.19795,-3.73666 -13.88924,15.2528 -32.35381,24.16242 -52.26403,31.06782 l 2.83361,6.11038 c 16.72928,-6.33524 32.40354,-14.41251 47.63869,-24.34773 -2.03969,25.55218 -3.29139,50.86454 -1.14041,75.14135 -12.49964,-11.45702 -28.51298,-19.23408 -46.70178,-24.73275 z"
       id="path6443"
       sodipodi:nodetypes="ccccccccccc" />
    <path
       style="fill:none;stroke:#e0e0e0;stroke-width:1.00008;stroke-linecap:butt;stroke-linejoin:miter;stroke-miterlimit:4;stroke-dasharray:none;stroke-opacity:1"
       d="m 118.73755,209.19892 5.74271,16.63055"
       id="path41789" />
    <path
       style="fill:none;stroke:#e0e0e0;stroke-width:1.00008;stroke-linecap:butt;stroke-linejoin:miter;stroke-miterlimit:4;stroke-dasharray:none;stroke-opacity:1"
       d="m 124.48026,225.82947 6.01545,13.14876"
       id="path41791"
       sodipodi:nodetypes="cc" />
    <path
       style="fill:none;stroke:#e0e0e0;stroke-width:1.065;stroke-linecap:butt;stroke-linejoin:miter;stroke-miterlimit:4;stroke-dasharray:none;stroke-opacity:1"
       d="m 125.81707,205.2961 c 2.68629,8.62173 6.7644,16.44997 10.73661,24.33859"
       id="path43567"
       sodipodi:nodetypes="cc" />
    <path
       style="fill:none;stroke:#e0e0e0;stroke-width:1.065;stroke-linecap:butt;stroke-linejoin:miter;stroke-miterlimit:4;stroke-dasharray:none;stroke-opacity:1"
       d="m 95.799462,210.9353 -8.099999,15.41953"
       id="path45648" />
    <path
       style="fill:none;stroke:#e0e0e0;stroke-width:0.965;stroke-linecap:butt;stroke-linejoin:miter;stroke-miterlimit:4;stroke-dasharray:none;stroke-opacity:1"
       d="m 124.25665,135.28078 c 1.05431,-5.06579 17.9925,-32.89384 21.71715,-36.97314"
       id="path47941"
       sodipodi:nodetypes="cc" />
    <path
       style="fill:none;stroke:#e0e0e0;stroke-width:0.965;stroke-linecap:butt;stroke-linejoin:miter;stroke-miterlimit:4;stroke-dasharray:none;stroke-opacity:1"
       d="M 87.569272,205.9452 76.283631,226.72077"
       id="path51163" />
    <path
       style="fill:none;stroke:#e0e0e0;stroke-width:0.965;stroke-linecap:round;stroke-linejoin:miter;stroke-miterlimit:4;stroke-dasharray:none;stroke-opacity:1"
       d="M 65.834212,97.028031 C 60.949986,89.785784 55.414988,82.710109 49.07109,75.841478"
       id="path6956"
       sodipodi:nodetypes="cc" />
    <path
       style="fill:none;stroke:#e0e0e0;stroke-width:0.965;stroke-linecap:butt;stroke-linejoin:miter;stroke-miterlimit:4;stroke-dasharray:none;stroke-opacity:1"
       d="m 65.834212,97.028031 2.198642,3.077879"
       id="path9624" />
  </g>
</svg>
