<?xml version="1.0" encoding="UTF-8" standalone="no"?>
<!-- Created with Inkscape (http://www.inkscape.org/) -->

<svg
   width="216.61394mm"
   height="216.61394mm"
   viewBox="0 0 216.61393 216.61394"
   version="1.1"
   id="svg5"
   sodipodi:docname="krzyz_wieniec.svg"
   inkscape:version="1.2-dev (2b1b049028, 2021-10-21, custom)"
   xmlns:inkscape="http://www.inkscape.org/namespaces/inkscape"
   xmlns:sodipodi="http://sodipodi.sourceforge.net/DTD/sodipodi-0.dtd"
   xmlns="http://www.w3.org/2000/svg"
   xmlns:svg="http://www.w3.org/2000/svg">
  <sodipodi:namedview
     id="namedview7"
     pagecolor="#505050"
     bordercolor="#eeeeee"
     borderopacity="1"
     objecttolerance="10.0"
     gridtolerance="10.0"
     guidetolerance="10.0"
     inkscape:pageshadow="0"
     inkscape:pageopacity="0"
     inkscape:pagecheckerboard="0"
     inkscape:document-units="mm"
     showgrid="false"
     inkscape:zoom="3.3260207"
     inkscape:cx="273.14923"
     inkscape:cy="659.4968"
     inkscape:window-width="1894"
     inkscape:window-height="1024"
     inkscape:window-x="0"
     inkscape:window-y="0"
     inkscape:window-maximized="1"
     inkscape:current-layer="layer3"
     fit-margin-top="10"
     fit-margin-left="10"
     fit-margin-right="10"
     fit-margin-bottom="10"
     lock-margins="true"
     width="216.61394mm"
     inkscape:blackoutopacity="0.0" />
  <defs
     id="defs2" />
  <g
     inkscape:groupmode="layer"
     id="layer2"
     inkscape:label="Warstwa 2"
     style="display:inline"
     transform="translate(1.393983,-61.336317)">
    <path
       id="path10061"
       style="fill:#ffc400;stroke:#000000;stroke-width:1.00008;stroke-linecap:butt;stroke-linejoin:miter;stroke-miterlimit:4;stroke-dasharray:none;stroke-opacity:1;fill-opacity:1"
       d="m 77.002295,184.68281 c -6.503847,-13.08418 -2.367675,-25.36123 4.817724,-34.65857 13.735284,-14.34022 28.819081,-16.62246 45.577001,-3.9353 11.04439,9.72467 16.34158,21.66531 9.55261,38.26604 -6.07551,10.15282 -13.51739,18.83603 -27.89978,20.05422 -12.721547,-1.31214 -24.68352,-4.58496 -32.047555,-19.72639 z m 56.887375,-41.5811 c -20.16619,-15.0103 -38.738786,-11.48185 -56.989601,5.78924 -12.840878,16.5032 -11.652506,36.19141 1.907226,51.8859 15.398089,14.82804 34.348835,18.49442 52.112125,3.44259 11.58114,-8.51082 19.61636,-19.20769 17.28543,-36.29522 -2.15979,-14.87163 -8.60527,-18.91808 -14.31518,-24.82251 z" />
    <path
       style="fill:#ffc400;stroke:#000000;stroke-width:1.00008;stroke-linecap:butt;stroke-linejoin:miter;stroke-miterlimit:4;stroke-dasharray:none;stroke-opacity:1;fill-opacity:1"
       d="m 103.42522,183.89693 c -0.90162,3.40542 -2.44859,8.93118 -5.812685,9.14938 -1.889729,-0.33615 -3.614247,-0.84012 -2.19243,-4.54022 0.83615,-1.6111 -0.680462,-4.26084 -1.833909,-2.87622 -1.876715,2.79494 -3.278707,5.68958 -2.733662,8.99314 1.652865,2.1385 3.854403,3.18997 7.187967,1.99868 7.436809,-1.54811 5.760209,-8.20735 7.646929,-12.66609 z"
       id="path15179"
       sodipodi:nodetypes="cccccccc" />
    <path
       style="fill:#ffc400;stroke:#000000;stroke-width:1.00008;stroke-linecap:butt;stroke-linejoin:miter;stroke-miterlimit:4;stroke-dasharray:none;stroke-opacity:1;fill-opacity:1"
       d="m 105.35929,184.73541 -2.52694,11.1579 c 0.13633,2.46355 0.44527,4.87946 4.00699,6.39753 2.72144,-2.16157 3.59083,-4.89517 4.0098,-7.76789 l -1.94819,-10.50877 -3.21352,-0.0586 z"
       id="path16107"
       sodipodi:nodetypes="ccccccc" />
    <path
       style="fill:#ffc400;stroke:#000000;stroke-width:1.00008;stroke-linecap:butt;stroke-linejoin:miter;stroke-miterlimit:4;stroke-dasharray:none;stroke-opacity:1;fill-opacity:1"
       d="m 108.90095,184.01418 c 0.73117,4.69246 0.87231,9.78962 4.74034,12.33048 3.92386,0.87745 6.64864,-0.10983 8.83047,-1.9415 2.18724,-4.28825 0.16733,-7.21672 -2.2284,-9.83524 -0.57102,2.99033 1.55885,7.23411 -3.5993,8.36575 -4.32598,-1.30917 -4.10842,-5.46309 -5.35336,-8.89727 z"
       id="path17115"
       sodipodi:nodetypes="ccccccc" />
    <path
       style="fill:#ffc400;stroke:#000000;stroke-width:1.00008;stroke-linecap:butt;stroke-linejoin:miter;stroke-miterlimit:4;stroke-dasharray:none;stroke-opacity:1;fill-opacity:1"
       d="m 101.37436,183.78283 c 3.9761,0.016 7.84917,0.71025 11.96614,-0.20105 2.30614,-3.32604 3.2163,-6.55085 -0.41764,-9.44619 l -11.57771,0.0266 c -2.606461,4.42148 -1.600084,7.16566 0.0292,9.62064 z"
       id="path17886"
       sodipodi:nodetypes="cccccc" />
    <path
       style="fill:#ffc400;stroke:#000000;stroke-width:1.00008;stroke-linecap:butt;stroke-linejoin:miter;stroke-miterlimit:4;stroke-dasharray:none;stroke-opacity:1;fill-opacity:1"
       d="m 105.93334,174.12456 c -0.96193,-8.31001 -7.338209,-15.92759 -5.70934,-23.73403 2.19272,-5.04765 5.24313,-7.8723 8.07427,-11.26527 2.80214,5.85857 5.3356,10.47412 5.57453,16.82442 -0.75383,6.00304 -3.82031,11.9902 -4.98502,18.16501 z"
       id="path18890"
       sodipodi:nodetypes="cccccc" />
    <path
       style="fill:#ffc400;stroke:#000000;stroke-width:1.00008;stroke-linecap:butt;stroke-linejoin:miter;stroke-miterlimit:4;stroke-dasharray:none;stroke-opacity:1;fill-opacity:1"
       d="m 102.38628,174.05231 c -1.28455,-6.18138 -3.129493,-11.92133 -11.105079,-12.83202 -5.007672,0.0993 -7.658142,1.53263 -4.836127,7.2459 1.897243,2.86216 -1.192912,6.46338 -5.088682,-0.33417 -0.230767,-7.36519 -0.182063,-14.09575 10.982878,-13.71694 10.58379,0.57134 12.35207,15.76379 13.59407,19.70948 z"
       id="path20198"
       sodipodi:nodetypes="ccccccc" />
    <path
       style="fill:#ffc400;stroke:#000000;stroke-width:1.00008;stroke-linecap:butt;stroke-linejoin:miter;stroke-miterlimit:4;stroke-dasharray:none;stroke-opacity:1;fill-opacity:1"
       d="m 108.88778,174.11469 c 3.14834,-21.50382 25.38301,-23.79521 24.46299,-8.08243 -1.33602,2.71631 -3.55699,6.1488 -7.32228,5.16932 6.0863,-17.45754 -15.01494,-7.8086 -14.5501,2.85788 z"
       id="path21761"
       sodipodi:nodetypes="ccccc" />
    <path
       style="fill:#ffc400;stroke:#000000;stroke-width:1.00008;stroke-linecap:butt;stroke-linejoin:miter;stroke-miterlimit:4;stroke-dasharray:none;stroke-opacity:1;fill-opacity:1"
       d="m 100.05189,177.35888 15.06862,0.051"
       id="path22969"
       sodipodi:nodetypes="cc" />
    <path
       style="fill:#ffc400;stroke:#000000;stroke-width:1.00008;stroke-linecap:butt;stroke-linejoin:miter;stroke-miterlimit:4;stroke-dasharray:none;stroke-opacity:1;fill-opacity:1"
       d="m 100.3339,181.68354 h 14.14139"
       id="path22971"
       sodipodi:nodetypes="cc" />
    <path
       style="fill:#ffc400;stroke:#000000;stroke-width:1.00008;stroke-linecap:butt;stroke-linejoin:miter;stroke-miterlimit:4;stroke-dasharray:none;stroke-opacity:1;fill-opacity:1"
       d="m 102.43641,247.32554 c -0.92381,-3.92762 -0.5553,-7.99707 0.27071,-12.11672 3.03331,-0.62855 5.89504,-0.39257 8.66942,0.28345 0.17567,4.02286 0.92551,7.98402 -1.3533,12.27063 -2.62208,0.32644 -5.23786,0.62096 -7.58683,-0.43736 z"
       id="path23423"
       sodipodi:nodetypes="ccccc" />
    <path
       style="fill:#ffc400;stroke:#000000;stroke-width:1.00008;stroke-linecap:butt;stroke-linejoin:miter;stroke-miterlimit:4;stroke-dasharray:none;stroke-opacity:1;fill-opacity:1"
       d="m 104.92207,234.97866 -0.41364,13.07428"
       id="path23696" />
    <path
       style="fill:#ffc400;stroke:#000000;stroke-width:1.00008;stroke-linecap:butt;stroke-linejoin:miter;stroke-miterlimit:4;stroke-dasharray:none;stroke-opacity:1;fill-opacity:1"
       d="m 108.96174,235.05425 -0.1571,12.93178"
       id="path23698" />
    <path
       style="fill:#ffc400;stroke:#000000;stroke-width:1.00008;stroke-linecap:butt;stroke-linejoin:miter;stroke-miterlimit:4;stroke-dasharray:none;stroke-opacity:1;fill-opacity:1"
       d="m 110.02324,247.7629 c 2.71465,2.31751 4.65732,4.6379 8.56516,6.95094 2.72196,0.58923 4.62155,0.26636 5.23532,-1.48261 -0.0463,-2.04956 -1.69685,-2.73115 -5.96953,-4.37134 l -6.51303,-3.58188 z"
       id="path23844"
       sodipodi:nodetypes="cccccc" />
    <path
       style="fill:#ffc400;stroke:#000000;stroke-width:1.00008;stroke-linecap:butt;stroke-linejoin:miter;stroke-miterlimit:4;stroke-dasharray:none;stroke-opacity:1;fill-opacity:1"
       d="m 107.13516,173.04346 c -0.50496,-9.90952 -0.66772,-19.84285 0.37441,-29.85997"
       id="path33798"
       sodipodi:nodetypes="cc" />
    <path
       style="fill:#ffc400;stroke:#000000;stroke-width:1.00008;stroke-linecap:butt;stroke-linejoin:miter;stroke-miterlimit:4;stroke-dasharray:none;stroke-opacity:1;fill-opacity:1"
       d="m 107.38267,184.65664 -0.72775,14.02774"
       id="path33890" />
  </g>
  <g
     inkscape:groupmode="layer"
     id="layer3"
     inkscape:label="Warstwa 3"
     style="display:inline"
     transform="translate(1.393983,-61.336317)">
    <path
       style="fill:#ffc400;stroke:#000000;stroke-width:1.00008;stroke-linecap:butt;stroke-linejoin:miter;stroke-miterlimit:4;stroke-dasharray:none;stroke-opacity:1;fill-opacity:1"
       d="m 111.34116,245.27801 c 4.91988,2.37176 10.25768,3.97861 16.8709,3.25113 6.58651,-0.65172 10.13793,-3.42312 13.30435,-6.46339 -4.86806,-2.31919 -10.12941,-3.39315 -15.78965,-3.20405 l -14.18436,-0.72122 z"
       id="path24316"
       sodipodi:nodetypes="cccccc" />
    <path
       style="fill:#ffc400;stroke:#000000;stroke-width:1.00008;stroke-linecap:butt;stroke-linejoin:miter;stroke-miterlimit:4;stroke-dasharray:none;stroke-opacity:1;fill-opacity:1"
       d="m 112.79916,241.4384 c 6.64035,1.36181 13.29846,2.37427 20.06554,1.2431"
       id="path24598"
       sodipodi:nodetypes="cc" />
    <path
       style="fill:#ffc400;stroke:#000000;stroke-width:1.00008;stroke-linecap:butt;stroke-linejoin:miter;stroke-miterlimit:4;stroke-dasharray:none;stroke-opacity:1;fill-opacity:1"
       d="m 111.37654,235.49227 c 2.85351,-3.91391 5.98336,-7.67751 12.4719,-9.61425 l 8.71831,-1.51303 c -0.50762,3.99681 -2.71294,7.5838 -6.67815,10.74595 -4.28271,3.20484 -9.30053,3.17842 -14.3462,3.02954 z"
       id="path25042"
       sodipodi:nodetypes="cccccc" />
    <path
       style="fill:#ffc400;stroke:#000000;stroke-width:1.00008;stroke-linecap:butt;stroke-linejoin:miter;stroke-miterlimit:4;stroke-dasharray:none;stroke-opacity:1;fill-opacity:1"
       d="m 113.20785,236.37601 c 5.12867,-1.82852 9.95737,-3.84616 13.20743,-6.85909"
       id="path25471"
       sodipodi:nodetypes="cc" />
    <path
       style="fill:#ffc400;stroke:#000000;stroke-width:1.00008;stroke-linecap:butt;stroke-linejoin:miter;stroke-miterlimit:4;stroke-dasharray:none;stroke-opacity:1;fill-opacity:1"
       d="m 132.38284,233.68359 c 4.42922,-5.67166 11.12005,-9.62407 21.56352,-10.72375 -2.62704,8.25888 -6.96792,14.8024 -16.87061,15.77922 z"
       id="path25714"
       sodipodi:nodetypes="cccc" />
    <path
       style="display:inline;fill:#ffc400;stroke:#000000;stroke-width:1.00008;stroke-linecap:butt;stroke-linejoin:miter;stroke-miterlimit:4;stroke-dasharray:none;stroke-opacity:1;fill-opacity:1"
       d="m 154.25311,219.93836 c 8.35945,-7.54564 7.87068,-19.73657 3.02164,-23.4887 -2.35721,5.03985 -4.07544,11.05616 -6.52866,18.34347 z"
       id="path26623"
       sodipodi:nodetypes="cccc" />
    <path
       style="display:inline;fill:#ffc400;stroke:#000000;stroke-width:1.00008;stroke-linecap:butt;stroke-linejoin:miter;stroke-miterlimit:4;stroke-dasharray:none;stroke-opacity:1;fill-opacity:1"
       d="m 153.8737,217.74454 c 1.36791,-4.24198 2.89119,-8.32678 2.88196,-13.96188"
       id="path27209"
       sodipodi:nodetypes="cc" />
    <path
       style="fill:#ffc400;stroke:#000000;stroke-width:1.00008;stroke-linecap:butt;stroke-linejoin:miter;stroke-miterlimit:4;stroke-dasharray:none;stroke-opacity:1;fill-opacity:1"
       d="m 156.12517,222.36965 c 4.58069,-7.32102 10.9171,-12.74317 21.07068,-14.03701 0.19142,7.23261 -4.57706,13.62177 -14.67664,19.10434 z"
       id="path33324"
       sodipodi:nodetypes="cccc" />
    <path
       style="fill:#ffc400;stroke:#000000;stroke-width:1.00008;stroke-linecap:butt;stroke-linejoin:miter;stroke-miterlimit:4;stroke-dasharray:none;stroke-opacity:1;fill-opacity:1"
       d="m 159.55674,222.84615 c 6.00862,-2.81776 9.1499,-6.48513 12.94187,-9.95969"
       id="path33492"
       sodipodi:nodetypes="cc" />
    <path
       style="fill:#ffc400;stroke:#000000;stroke-width:1.00008;stroke-linecap:butt;stroke-linejoin:miter;stroke-miterlimit:4;stroke-dasharray:none;stroke-opacity:1;fill-opacity:1"
       d="m 137.5374,234.76574 c 3.92652,-1.66845 7.27462,-3.945 10.17378,-6.69353"
       id="path33706"
       sodipodi:nodetypes="cc" />
    <path
       style="fill:#ffc400;stroke:#000000;stroke-width:1.00008;stroke-linecap:butt;stroke-linejoin:miter;stroke-miterlimit:4;stroke-dasharray:none;stroke-opacity:1;fill-opacity:1"
       d="m 129.30029,108.59678 c -11.04839,2.09447 -17.23252,-3.64059 -23.62983,-9.032522 5.64344,-2.746952 13.88001,-3.10574 20.86061,-1.528161 1.11586,3.132393 2.18729,5.410633 4.07022,8.075793 z"
       id="path34103"
       sodipodi:nodetypes="ccccc" />
    <path
       style="fill:#ffc400;stroke:#000000;stroke-width:1.00008;stroke-linecap:butt;stroke-linejoin:miter;stroke-miterlimit:4;stroke-dasharray:none;stroke-opacity:1;fill-opacity:1"
       d="m 115.56074,100.63029 c 5.58434,0.82504 10.42162,2.44174 13.74,5.66806"
       id="path34537"
       sodipodi:nodetypes="cc" />
    <path
       style="fill:#ffc400;stroke:#000000;stroke-width:1.00008;stroke-linecap:butt;stroke-linejoin:miter;stroke-miterlimit:4;stroke-dasharray:none;stroke-opacity:1;fill-opacity:1"
       d="m 156.35193,146.76811 c -1.68358,-5.94653 -5.25666,-10.8048 -9.51812,-15.2666 9.12018,0.15462 17.73325,1.08033 21.31765,9.65237 z"
       id="path34794"
       sodipodi:nodetypes="cccc" />
    <path
       style="fill:#ffc400;stroke:#000000;stroke-width:1.00008;stroke-linecap:butt;stroke-linejoin:miter;stroke-miterlimit:4;stroke-dasharray:none;stroke-opacity:1;fill-opacity:1"
       d="m 153.44759,136.49174 c 3.98476,1.09725 7.03181,2.87474 8.4136,5.86025"
       id="path35000"
       sodipodi:nodetypes="cc" />
    <path
       style="fill:#ffc400;stroke:#000000;stroke-width:1.00008;stroke-linecap:butt;stroke-linejoin:miter;stroke-miterlimit:4;stroke-dasharray:none;stroke-opacity:1;fill-opacity:1"
       d="m 168.15146,141.15388 c -3.56038,-8.2078 -4.27092,-17.08365 -2.63957,-26.50847 8.89907,5.4718 10.65523,12.90924 14.19697,19.84548 z"
       id="path35183"
       sodipodi:nodetypes="cccc" />
    <path
       style="fill:#ffc400;stroke:#000000;stroke-width:1.00008;stroke-linecap:butt;stroke-linejoin:miter;stroke-miterlimit:4;stroke-dasharray:none;stroke-opacity:1;fill-opacity:1"
       d="m 169.67021,122.45779 c 1.0925,4.53185 1.87256,9.18049 1.92195,14.10227"
       id="path35731"
       sodipodi:nodetypes="cc" />
    <path
       style="fill:#ffc400;stroke:#000000;stroke-width:1.00008;stroke-linecap:butt;stroke-linejoin:miter;stroke-miterlimit:4;stroke-dasharray:none;stroke-opacity:1;fill-opacity:1"
       d="m 155.12278,131.95239 c -5.42727,-5.56096 -7.90841,-13.59788 -10.79099,-21.29743 8.80619,2.02537 17.28012,4.55222 20.36755,15.20859 -0.26362,5.33666 1.92072,10.25812 3.45212,15.29033 -2.04139,-3.96515 -4.84843,-7.63156 -13.02868,-9.20149 z"
       id="path35878"
       sodipodi:nodetypes="ccccc" />
    <path
       style="fill:#ffc400;stroke:#000000;stroke-width:1.00008;stroke-linecap:butt;stroke-linejoin:miter;stroke-miterlimit:4;stroke-dasharray:none;stroke-opacity:1;fill-opacity:1"
       d="m 153.85373,120.53445 c 5.00692,4.82623 6.54778,8.7556 9.08806,12.94357"
       id="path36464"
       sodipodi:nodetypes="cc" />
    <path
       style="fill:#ffc400;stroke:#000000;stroke-width:1.00008;stroke-linecap:butt;stroke-linejoin:miter;stroke-miterlimit:4;stroke-dasharray:none;stroke-opacity:1;fill-opacity:1"
       d="m 144.33179,110.65496 c -16.22115,-1.68757 -16.13428,-8.52034 -18.35069,-14.626425 16.68371,1.662092 19.98383,9.725195 25.81941,16.575665 z"
       id="path36867"
       sodipodi:nodetypes="cccc" />
    <path
       style="fill:#ffc400;stroke:#000000;stroke-width:1.00008;stroke-linecap:butt;stroke-linejoin:miter;stroke-miterlimit:4;stroke-dasharray:none;stroke-opacity:1;fill-opacity:1"
       d="m 132.29721,99.798591 10.51871,8.954449"
       id="path37149" />
    <path
       style="fill:#ffc400;stroke:#000000;stroke-width:1.00008;stroke-linecap:butt;stroke-linejoin:miter;stroke-miterlimit:4;stroke-dasharray:none;stroke-opacity:1;fill-opacity:1"
       d="m 145.95815,224.52951 c 0.10747,-3.34244 0.53628,-7.4541 2.30037,-10.42751 1.65845,3.2114 0.83964,6.64994 0.16754,9.72361 z"
       id="path37323"
       sodipodi:nodetypes="cccc" />
    <path
       style="fill:#ffc400;stroke:#000000;stroke-width:1.00008;stroke-linecap:butt;stroke-linejoin:miter;stroke-miterlimit:4;stroke-dasharray:none;stroke-opacity:1;fill-opacity:1"
       d="m 101.93804,245.65759 -13.382343,7.85086 c -1.594917,1.40042 2.252722,3.27338 4.869611,0.47139 l 9.011102,-6.6543 z"
       id="path38045"
       sodipodi:nodetypes="ccccc" />
    <path
       style="fill:#ffc400;stroke:#000000;stroke-width:1.00008;stroke-linecap:round;stroke-linejoin:round;stroke-miterlimit:4;stroke-dasharray:none;stroke-opacity:1;fill-opacity:1"
       d="m 101.06828,244.74375 c -1.936212,1.20066 -3.85383,2.63838 -5.965572,1.60114 -1.054867,1.0591 -1.332664,2.17124 -4.15349,3.1098 -0.962171,0.0512 -1.665998,-0.78025 -2.210668,-2.15552 -2.140825,2.7664 -4.393195,2.77413 -6.65453,2.56014 -0.323371,-0.92313 0.666516,-3.17345 -1.69556,-2.25281 -3.141184,0.42584 -4.82983,-1.99182 -6.190164,-4.10516 1.568364,-2.48639 2.979548,-5.22149 6.787365,-4.76739 -0.328913,-2.17679 -1.456476,-4.86352 2.076251,-5.93256 2.575247,0.3522 3.965487,2.08593 5.080408,4.14064 0.497365,-1.59424 0.990112,-3.19376 3.859828,-2.074 1.973921,0.9039 2.524022,2.47174 2.86919,4.13514 2.049035,0.17465 2.355073,-0.99339 3.227562,-1.72507 1.427043,0.33606 2.70262,0.8579 3.09518,2.4628 z"
       id="path38251"
       sodipodi:nodetypes="ccccccccccccccc" />
    <path
       style="display:inline;fill:#ffc400;stroke:#000000;stroke-width:0.965;stroke-linecap:butt;stroke-linejoin:round;stroke-miterlimit:4;stroke-dasharray:none;stroke-opacity:1;fill-opacity:1"
       d="m 62.908129,235.50883 c -2.822758,1.44035 -4.834142,0.58458 -5.857298,-3.06779 -4.363265,-0.71228 -8.276844,-1.81437 -8.475909,-6.13634 -2.398479,-1.92924 -5.107109,-3.75511 -5.858697,-6.23322 -3.880548,-2.62217 -4.665107,-4.93073 -2.104022,-6.90037 2.878297,-0.84509 5.621319,-0.39496 7.572996,1.52837 1.99962,1.97058 4.49205,3.60551 7.570195,4.25518 -3.375188,2.71059 0.719117,6.95456 3.904541,5.93174 -0.194877,3.09772 1.971125,4.05157 3.903699,5.2174 -1.421195,2.545 -0.993435,3.94725 -0.655505,5.40503 z"
       id="path5525"
       sodipodi:nodetypes="cccccscccc" />
    <path
       style="fill:#ffc400;stroke:#000000;stroke-width:1.00008;stroke-linecap:butt;stroke-linejoin:miter;stroke-miterlimit:4;stroke-dasharray:none;stroke-opacity:1;fill-opacity:1"
       d="m 82.363886,242.78169 14.809882,-0.0842"
       id="path40186" />
    <path
       style="fill:#ffc400;stroke:#000000;stroke-width:1.065;stroke-linecap:butt;stroke-linejoin:round;stroke-miterlimit:4;stroke-dasharray:none;stroke-opacity:1;fill-opacity:1"
       d="m 102.70712,235.20882 -4.260833,-2.43819 -4.206663,-5.1605 c -0.465743,-4.14133 -2.220366,-5.48365 -6.540161,-1.2553 -1.652819,-3.66892 -3.711586,-3.16335 -6.019192,-0.0989 -1.643839,2.1954 -0.93083,4.32573 0.492408,6.43645 3.087679,0.25224 4.451688,2.33257 5.969641,4.24962 1.997049,-4.03295 4.429111,-2.52831 6.729018,2.06114 1.335531,0.0849 2.378604,-0.5734 3.227562,-1.72507 2.33006,0.4218 2.51551,1.5029 3.09518,2.4628 z"
       id="path44457"
       sodipodi:nodetypes="ccccccccccc" />
    <path
       style="fill:#ffc400;stroke:#000000;stroke-width:0.865;stroke-linecap:butt;stroke-linejoin:miter;stroke-miterlimit:4;stroke-dasharray:none;stroke-opacity:1;fill-opacity:1"
       d="m 85.099437,229.43188 c 4.396981,1.4393 8.633455,3.51382 12.507277,7.02356"
       id="path45480"
       sodipodi:nodetypes="cc" />
    <path
       style="fill:#ffc400;stroke:#000000;stroke-width:0.965;stroke-linecap:butt;stroke-linejoin:miter;stroke-miterlimit:4;stroke-dasharray:none;stroke-opacity:1;fill-opacity:1"
       d="m 145.71277,120.38093 -10.18718,-2.78503 -4.39454,3.85861 -16.67219,-9.48977 c 10.15503,-1.29412 20.11777,-7.46621 30.70459,2.19375 z"
       id="path48033"
       sodipodi:nodetypes="cccccc" />
    <path
       style="display:inline;fill:#ffc400;fill-opacity:1;stroke:#000000;stroke-width:0.965;stroke-linecap:round;stroke-linejoin:round;stroke-miterlimit:4;stroke-dasharray:none;stroke-opacity:1"
       d="m 67.138769,105.2031 c 0.624273,-3.6209 0.820333,-11.626297 5.481627,-4.72983 2.020069,-4.75034 2.504003,-11.964301 8.864978,-5.2262 7.250065,-0.492273 7.919692,2.101896 3.985839,6.85525 4.725018,6.36639 -2.383437,5.63221 -8.642503,5.40769 -0.183208,1.81882 1.53496,4.70092 -2.146948,4.24336"
       id="path4242"
       sodipodi:nodetypes="cccccc" />
    <path
       style="fill:#ffc400;stroke:#000000;stroke-width:0.965;stroke-linecap:butt;stroke-linejoin:miter;stroke-miterlimit:4;stroke-dasharray:none;stroke-opacity:1;fill-opacity:1"
       d="m 127.52626,113.29746 c 5.22318,-0.034 10.31887,0.99648 15.26946,3.23853"
       id="path48163"
       sodipodi:nodetypes="cc" />
    <path
       style="fill:#ffc400;stroke:#000000;stroke-width:0.965;stroke-linecap:butt;stroke-linejoin:miter;stroke-miterlimit:4;stroke-dasharray:none;stroke-opacity:1;fill-opacity:1"
       d="m 75.22929,241.61921 c -3.386189,-0.61684 -4.502028,-3.00823 -4.108608,-6.5793 -5.473679,0.49266 -10.892817,1.77433 -7.557048,-4.93611 -8.626173,-4.24793 -1.115998,-11.55747 5.145392,-8.10752 0.968044,-1.48099 -1.258993,-5.12132 4.391072,-3.43804 4.490146,2.5423 2.851456,5.439 3.183533,8.16253 2.174698,-1.15954 3.153751,0.0722 4.15553,1.2585 -0.0309,1.7714 0.797778,3.25988 1.733516,4.71311 -2.256771,1.65458 -1.855783,3.82223 -1.187016,6.04157 -2.305012,-0.35757 -4.221866,0.6108 -5.756371,2.88526 z"
       id="path48703"
       sodipodi:nodetypes="cccccccccc" />
    <path
       style="fill:#ffc400;stroke:#000000;stroke-width:0.865;stroke-linecap:butt;stroke-linejoin:miter;stroke-miterlimit:4;stroke-dasharray:none;stroke-opacity:1;fill-opacity:1"
       d="m 66.683931,226.70896 c 3.167146,2.87806 6.648075,4.6519 10.163072,6.30585"
       id="path49593"
       sodipodi:nodetypes="cc" />
    <path
       style="fill:#ffc400;stroke:#000000;stroke-width:0.965;stroke-linecap:butt;stroke-linejoin:round;stroke-miterlimit:4;stroke-dasharray:none;stroke-opacity:1;fill-opacity:1"
       d="m 59.659935,224.8864 c -2.50392,1.31461 -7.95752,-3.58852 -3.904541,-5.93174 -9.437592,-3.34316 -7.913191,-5.75012 -5.32683,-8.06638 -0.555135,-3.64457 -0.0678,-6.80097 3.691406,-8.4252 5.614661,-0.43831 5.768123,2.53685 5.93943,5.50086 4.107563,1.27975 5.412936,4.07523 5.328806,7.62231 l 4.058132,2.16101 c -0.693642,1.45135 -0.64521,2.84469 -0.737312,4.24902 -3.391931,-0.94503 -6.752733,-1.73188 -9.049091,2.89012 z"
       id="path51637"
       sodipodi:nodetypes="ccccccccc" />
    <path
       style="fill:#ffc400;stroke:#000000;stroke-width:0.965;stroke-linecap:butt;stroke-linejoin:miter;stroke-miterlimit:4;stroke-dasharray:none;stroke-opacity:1;fill-opacity:1"
       d="m 55.585687,209.07554 c 1.091885,4.3921 4.003281,6.83139 7.092493,9.07983"
       id="path52299"
       sodipodi:nodetypes="cc" />
    <path
       style="fill:#ffc400;stroke:#000000;stroke-width:0.965;stroke-linecap:butt;stroke-linejoin:round;stroke-miterlimit:4;stroke-dasharray:none;stroke-opacity:1;fill-opacity:1"
       d="m 55.527976,123.60124 c 5.171171,0.83795 9.313674,1.0564 6.502808,-2.91269 5.361313,-0.94508 13.579632,-0.57674 7.50674,-6.77835 2.356417,-1.85811 3.568584,-4.13026 1.295288,-7.66362 -2.71,-1.91541 -4.906638,-1.16917 -6.751319,1.40185 0.0049,-1.89224 1.230048,-4.1846 -4.424727,-2.67681 -2.642923,2.82144 -4.345371,5.5009 -7.123442,6.84217"
       id="path927"
       sodipodi:nodetypes="ccccccc" />
    <path
       style="fill:#ffc400;stroke:#000000;stroke-width:0.965;stroke-linecap:butt;stroke-linejoin:miter;stroke-miterlimit:4;stroke-dasharray:none;stroke-opacity:1;fill-opacity:1"
       d="m 55.668499,118.7351 c 3.506657,-1.07059 6.379244,-3.57757 9.160314,-6.29187"
       id="path1874"
       sodipodi:nodetypes="cc" />
    <path
       style="fill:#ffc400;stroke:#000000;stroke-width:0.965;stroke-linecap:butt;stroke-linejoin:round;stroke-miterlimit:4;stroke-dasharray:none;stroke-opacity:1;fill-opacity:1"
       d="m 95.552325,109.38027 c 3.566275,0.1905 7.018275,0.27306 4.848165,-4.95476 4.73762,-1.84049 6.50589,-4.26598 0.81197,-8.161591 -2.137856,-0.480788 -2.561549,0.137769 -3.232321,0.597866 -1.446744,-5.746445 -5.103475,-2.730133 -8.56742,-0.478229 -0.776005,2.840505 -0.158078,3.996874 1.339911,4.089964"
       id="path2082"
       sodipodi:nodetypes="cccccc" />
    <path
       style="fill:#ffc400;stroke:#000000;stroke-width:0.965;stroke-linecap:butt;stroke-linejoin:miter;stroke-miterlimit:4;stroke-dasharray:none;stroke-opacity:1;fill-opacity:1"
       d="m 74.588157,104.45273 c 3.766849,-0.53173 6.194193,-2.69923 8.693701,-4.77861"
       id="path3908"
       sodipodi:nodetypes="cc" />
    <path
       style="fill:#ffc400;stroke:#000000;stroke-width:0.965;stroke-linecap:round;stroke-linejoin:round;stroke-miterlimit:4;stroke-dasharray:none;stroke-opacity:1;fill-opacity:1"
       d="m 73.045719,118.94485 c 2.646691,-3.81173 5.612482,-1.76034 8.521895,-0.74484 1.56425,-2.39335 3.507512,-3.06463 6.11568,-0.71486 4.82862,0.17995 2.726016,-2.30646 2.098429,-4.22545 7.146649,-1.86601 8.601587,-8.44332 -2.668172,-7.50857"
       id="path7823"
       sodipodi:nodetypes="ccccc" />
    <path
       style="fill:#ffc400;stroke:#000000;stroke-width:0.965;stroke-linecap:butt;stroke-linejoin:miter;stroke-miterlimit:4;stroke-dasharray:none;stroke-opacity:1;fill-opacity:1"
       d="m 91.419168,102.86746 c 1.696422,-0.88624 3.595725,-1.69344 7.327879,-1.7866"
       id="path8380"
       sodipodi:nodetypes="cc" />
    <path
       style="fill:#ffc400;stroke:#000000;stroke-width:0.965;stroke-linecap:butt;stroke-linejoin:miter;stroke-miterlimit:4;stroke-dasharray:none;stroke-opacity:1;fill-opacity:1"
       d="m 78.952425,112.88713 c 3.38943,-0.64742 6.438829,-1.67697 9.182375,-3.05023"
       id="path8382"
       sodipodi:nodetypes="cc" />
    <path
       style="fill:#ffc400;stroke:#000000;stroke-width:0.965;stroke-linecap:butt;stroke-linejoin:miter;stroke-miterlimit:4;stroke-dasharray:none;stroke-opacity:1;fill-opacity:1"
       d="m 162.26718,116.2352 c -2.09831,-0.41848 -4.04444,-1.21182 -5.90111,-2.61969 -0.57608,-2.30031 0.37297,-3.71603 2.98046,-4.16983 1.88698,0.79957 3.86609,1.49986 4.39838,3.75918 0.4136,1.65767 -0.4446,2.40651 -1.47773,3.03034 z"
       id="path938"
       sodipodi:nodetypes="ccccc" />
    <path
       style="fill:#ffc400;stroke:#000000;stroke-width:0.965;stroke-linecap:butt;stroke-linejoin:round;stroke-miterlimit:4;stroke-dasharray:none;stroke-opacity:1;fill-opacity:1"
       d="m 153.9702,111.61099 c -1.80313,-2.07957 -4.5226,-4.83402 -7.03355,-7.43489 3.9425,0.598 7.54269,1.66714 9.08141,5.57358 -0.34327,1.16564 -1.11165,1.6483 -2.04786,1.86131 z"
       id="path1258"
       sodipodi:nodetypes="cccc" />
    <path
       style="fill:#ffc400;stroke:#000000;stroke-width:0.9;stroke-linecap:butt;stroke-linejoin:round;stroke-miterlimit:4;stroke-dasharray:none;stroke-opacity:1;fill-opacity:1"
       d="m 43.141627,137.81223 c 0.166627,-1.74915 0.829756,-5.11175 5.969944,-3.34916 -0.85992,-7.11666 1.821838,-8.18764 5.477264,-8.7088 1.304772,0.5926 0.467267,5.00752 6.881342,0.38718 5.282575,1.81218 0.856785,5.30458 0.470926,7.86281 -0.54204,4.56835 -1.74198,7.66043 -4.772969,6.64379 2.602212,2.7253 0.675693,3.30599 0.55871,4.7436"
       id="path1611"
       sodipodi:nodetypes="ccccccc" />
    <path
       style="fill:#ffc400;stroke:#000000;stroke-width:0.965;stroke-linecap:butt;stroke-linejoin:miter;stroke-miterlimit:4;stroke-dasharray:none;stroke-opacity:1;fill-opacity:1"
       d="m 50.950688,140.33109 c 1.38656,-3.67734 4.31536,-6.24358 7.94423,-8.30547"
       id="path2524"
       sodipodi:nodetypes="cc" />
    <path
       style="fill:#ffc400;stroke:#000000;stroke-width:0.965;stroke-linecap:butt;stroke-linejoin:round;stroke-miterlimit:4;stroke-dasharray:none;stroke-opacity:1;fill-opacity:1"
       d="m 35.00769,132.60251 c -0.404437,-4.37256 1.309828,-4.93223 2.581476,-6.28845 1.077601,0.12498 2.265191,0.50109 2.112568,-2.18279 -0.0923,-5.32899 6.896132,-5.70975 7.307056,-2.03799 -0.265804,2.44003 1.59288,4.11373 3.931952,4.84809 -1.768887,1.35491 -2.684618,4.53798 -1.829171,7.5217 -2.98038,-0.98148 -5.448063,-0.87696 -5.969944,3.34916 z"
       id="path3446"
       sodipodi:nodetypes="cccccccc" />
    <path
       style="fill:#ffc400;stroke:#000000;stroke-width:0.965;stroke-linecap:butt;stroke-linejoin:miter;stroke-miterlimit:4;stroke-dasharray:none;stroke-opacity:1;fill-opacity:1"
       d="m 41.781994,133.47532 2.172327,-8.38114"
       id="path4222" />
    <path
       style="fill:#ffc400;stroke:#000000;stroke-width:0.965;stroke-linecap:butt;stroke-linejoin:miter;stroke-miterlimit:4;stroke-dasharray:none;stroke-opacity:1;fill-opacity:1"
       d="m 47.022583,121.05736 c 4.43108,4.63753 6.689557,1.45855 6.221669,-1.69398 l -0.649624,-3.64076 c -0.01819,-7.49472 -7.772776,-2.55899 -7.219775,0.46736 z"
       id="path5946"
       sodipodi:nodetypes="ccccc" />
    <path
       style="fill:#ffc400;stroke:#000000;stroke-width:0.965;stroke-linecap:butt;stroke-linejoin:miter;stroke-miterlimit:4;stroke-dasharray:none;stroke-opacity:1;fill-opacity:1"
       d="m 150.7377,230.6762 c 2.82974,-2.06638 6.64833,-1.9518 10.41724,-1.94677 -1.10799,4.02162 -3.99779,7.36607 -9.9545,9.54491 -2.21858,-0.45809 -4.38958,-0.92896 -6.18266,-1.50138 z"
       id="path1665"
       sodipodi:nodetypes="ccccc" />
    <path
       style="fill:#ffc400;stroke:#000000;stroke-width:0.965;stroke-linecap:butt;stroke-linejoin:miter;stroke-miterlimit:4;stroke-dasharray:none;stroke-opacity:1;fill-opacity:1"
       d="m 148.64044,235.35516 7.30349,-3.13972"
       id="path1890" />
    <path
       style="fill:#ffc400;fill-opacity:1;stroke:#000000;stroke-width:0.965;stroke-linecap:butt;stroke-linejoin:miter;stroke-miterlimit:4;stroke-dasharray:none;stroke-opacity:1"
       d="m 172.93074,205.58716 -2.29947,4.3003 c -3.64988,1.32535 -6.36348,3.28997 -8.95364,5.54349 l -2.64075,-1.65142 c 0.95139,-2.39282 2.11065,-4.75072 1.68431,-7.40685 l 2.50775,-6.70077"
       id="path2257"
       sodipodi:nodetypes="cccccc" />
    <path
       style="display:inline;fill:#ffc400;stroke:#000000;stroke-width:0.965;stroke-linecap:butt;stroke-linejoin:miter;stroke-miterlimit:4;stroke-dasharray:none;stroke-opacity:1;fill-opacity:1"
       d="m 48.135071,218.55779 12.411123,11.54757"
       id="path6833" />
    <path
       style="fill:#ffc400;stroke:#000000;stroke-width:0.965;stroke-linecap:butt;stroke-linejoin:miter;stroke-miterlimit:4;stroke-dasharray:none;stroke-opacity:1;fill-opacity:1"
       d="m 163.27903,212.7619 4.59536,-9.31729"
       id="path2259" />
  </g>
</svg>
