<?xml version="1.0" encoding="UTF-8" standalone="no"?>
<!-- Created with Inkscape (http://www.inkscape.org/) -->

<svg
   width="91.667953mm"
   height="91.218506mm"
   viewBox="0 0 91.667951 91.218507"
   version="1.1"
   id="svg5"
   sodipodi:docname="krzyz_lilijka_okrag.svg"
   inkscape:version="1.2-dev (2b1b049028, 2021-10-21, custom)"
   xmlns:inkscape="http://www.inkscape.org/namespaces/inkscape"
   xmlns:sodipodi="http://sodipodi.sourceforge.net/DTD/sodipodi-0.dtd"
   xmlns="http://www.w3.org/2000/svg"
   xmlns:svg="http://www.w3.org/2000/svg">
  <sodipodi:namedview
     id="namedview7"
     pagecolor="#505050"
     bordercolor="#eeeeee"
     borderopacity="1"
     objecttolerance="10.0"
     gridtolerance="10.0"
     guidetolerance="10.0"
     inkscape:pageshadow="0"
     inkscape:pageopacity="0"
     inkscape:pagecheckerboard="0"
     inkscape:document-units="mm"
     showgrid="false"
     inkscape:zoom="1.6630104"
     inkscape:cx="273.29956"
     inkscape:cy="210.76237"
     inkscape:window-width="1894"
     inkscape:window-height="1024"
     inkscape:window-x="0"
     inkscape:window-y="0"
     inkscape:window-maximized="1"
     inkscape:current-layer="layer2"
     fit-margin-top="5"
     fit-margin-left="5"
     fit-margin-right="5"
     fit-margin-bottom="5"
     lock-margins="true"
     inkscape:blackoutopacity="0.0" />
  <defs
     id="defs2">
    <linearGradient
       id="linearGradient17442"
       inkscape:swatch="solid">
      <stop
         style="stop-color:#000000;stop-opacity:1;"
         offset="0"
         id="stop17440" />
    </linearGradient>
    <linearGradient
       id="linearGradient15474"
       inkscape:swatch="solid">
      <stop
         style="stop-color:#000000;stop-opacity:1;"
         offset="0"
         id="stop15472" />
    </linearGradient>
  </defs>
  <g
     inkscape:groupmode="layer"
     id="layer5"
     inkscape:label="Warstwa 5"
     style="display:none"
     transform="translate(-61.77379,-125.89818)"
     sodipodi:insensitive="true">
    <path
       style="fill:none;stroke:#ebebeb;stroke-width:0.264583px;stroke-linecap:butt;stroke-linejoin:miter;stroke-opacity:1"
       d="m 116.24484,176.69159 19.84698,5.3292"
       id="path3837" />
    <path
       style="fill:none;stroke:#ebebeb;stroke-width:0.264583px;stroke-linecap:butt;stroke-linejoin:miter;stroke-opacity:1"
       d="m 115.54272,175.43822 21.51705,2.44149"
       id="path3839" />
    <path
       style="fill:none;stroke:#ebebeb;stroke-width:0.264583px;stroke-linecap:butt;stroke-linejoin:miter;stroke-opacity:1"
       d="m 113.97985,172.79149 24.18725,1.61399"
       id="path3874" />
    <path
       style="fill:none;stroke:#ebebeb;stroke-width:0.264583px;stroke-linecap:butt;stroke-linejoin:miter;stroke-opacity:1"
       d="m 115.328,170.60233 10.47333,0.11995"
       id="path3880"
       sodipodi:nodetypes="cc" />
    <path
       style="fill:none;stroke:#ebebeb;stroke-width:0.264583px;stroke-linecap:butt;stroke-linejoin:miter;stroke-opacity:1"
       d="m 138.45733,170.86521 -8.07541,-0.1398"
       id="path3882"
       sodipodi:nodetypes="cc" />
    <path
       style="fill:none;stroke:#ebebeb;stroke-width:0.264583px;stroke-linecap:butt;stroke-linejoin:miter;stroke-opacity:1"
       d="m 116.80603,178.16559 18.47647,7.28888"
       id="path4592" />
    <path
       style="fill:none;stroke:#ebebeb;stroke-width:0.264583px;stroke-linecap:butt;stroke-linejoin:miter;stroke-opacity:1"
       d="m 116.69323,179.13448 16.84679,8.96548"
       id="path4594" />
    <path
       style="fill:none;stroke:#ebebeb;stroke-width:0.264583px;stroke-linecap:butt;stroke-linejoin:miter;stroke-opacity:1"
       d="m 117.40638,181.16206 13.72338,9.94819"
       id="path4596" />
    <path
       style="fill:none;stroke:#ebebeb;stroke-width:0.264583px;stroke-linecap:butt;stroke-linejoin:miter;stroke-opacity:1"
       d="m 94.436283,154.02371 -4.218421,-10.1529"
       id="path4598" />
    <path
       style="fill:none;stroke:#ebebeb;stroke-width:0.264583px;stroke-linecap:butt;stroke-linejoin:miter;stroke-opacity:1"
       d="m 93.218888,142.35315 4.383873,11.8448"
       id="path4600" />
    <path
       style="fill:none;stroke:#ebebeb;stroke-width:0.264583px;stroke-linecap:butt;stroke-linejoin:miter;stroke-opacity:1"
       d="m 96.609269,140.35672 3.007066,9.33464"
       id="path4602" />
    <path
       style="fill:none;stroke:#ebebeb;stroke-width:0.264583px;stroke-linecap:butt;stroke-linejoin:miter;stroke-opacity:1"
       d="m 101.06477,139.13943 1.31122,5.82649"
       id="path4604" />
    <path
       style="fill:none;stroke:#ebebeb;stroke-width:0.264583px;stroke-linecap:butt;stroke-linejoin:miter;stroke-opacity:1"
       d="m 87.282974,146.61266 3.331385,6.86228"
       id="path4606" />
    <path
       style="fill:none;stroke:#ebebeb;stroke-width:0.264583px;stroke-linecap:butt;stroke-linejoin:miter;stroke-opacity:1"
       d="m 84.338307,149.67543 3.074085,4.12779"
       id="path4608" />
    <path
       style="fill:none;stroke:#ebebeb;stroke-width:0.264583px;stroke-linecap:butt;stroke-linejoin:miter;stroke-opacity:1"
       d="m 80.91321,153.14535 2.126845,2.20144"
       id="path4610" />
    <path
       style="fill:none;stroke:#ebebeb;stroke-width:0.264583px;stroke-linecap:butt;stroke-linejoin:miter;stroke-opacity:1"
       d="m 78.546866,156.92125 2.25011,1.79758"
       id="path4612" />
    <path
       style="fill:none;stroke:#ebebeb;stroke-width:0.264583px;stroke-linecap:butt;stroke-linejoin:miter;stroke-opacity:1"
       d="m 76.906497,160.43434 3.180213,1.99435"
       id="path4614" />
    <path
       style="fill:none;stroke:#ebebeb;stroke-width:0.264583px;stroke-linecap:butt;stroke-linejoin:miter;stroke-opacity:1"
       d="m 76.161185,164.34932 3.560778,1.69387"
       id="path4616" />
    <path
       style="fill:none;stroke:#ebebeb;stroke-width:0.264583px;stroke-linecap:butt;stroke-linejoin:miter;stroke-opacity:1"
       d="m 75.394009,168.4481 4.438256,0.0907"
       id="path4618" />
    <path
       style="fill:none;stroke:#ebebeb;stroke-width:0.264583px;stroke-linecap:butt;stroke-linejoin:miter;stroke-opacity:1"
       d="m 76.263248,171.81475 7.09464,-0.35508"
       id="path4620" />
    <path
       style="fill:none;stroke:#ebebeb;stroke-width:0.264583px;stroke-linecap:butt;stroke-linejoin:miter;stroke-opacity:1"
       d="M 87.161684,171.05186 98.76874,170.57341"
       id="path4622" />
    <path
       style="fill:none;stroke:#ebebeb;stroke-width:0.264583px;stroke-linecap:butt;stroke-linejoin:miter;stroke-opacity:1"
       d="m 75.799735,175.94583 22.566907,-2.83491"
       id="path4624" />
    <path
       style="fill:none;stroke:#ebebeb;stroke-width:0.264583px;stroke-linecap:butt;stroke-linejoin:miter;stroke-opacity:1"
       d="m 77.917018,179.9498 19.622463,-4.65403"
       id="path4626" />
    <path
       style="fill:none;stroke:#ebebeb;stroke-width:0.264583px;stroke-linecap:butt;stroke-linejoin:miter;stroke-opacity:1"
       d="m 78.999611,184.00562 18.825625,-6.42634"
       id="path4628" />
    <path
       style="fill:none;stroke:#ebebeb;stroke-width:0.264583px;stroke-linecap:butt;stroke-linejoin:miter;stroke-opacity:1"
       d="M 80.458706,187.59288 97.634842,179.8351"
       id="path4630" />
    <path
       style="fill:none;stroke:#ebebeb;stroke-width:0.264583px;stroke-linecap:butt;stroke-linejoin:miter;stroke-opacity:1"
       d="m 83.189907,191.82547 16.034438,-9.77256"
       id="path4632" />
    <path
       style="fill:none;stroke:#ebebeb;stroke-width:0.264583px;stroke-linecap:butt;stroke-linejoin:miter;stroke-opacity:1"
       d="m 105.506,141.0226 -0.27983,-2.34943"
       id="path4634" />
    <path
       style="fill:none;stroke:#ebebeb;stroke-width:0.264583px;stroke-linecap:butt;stroke-linejoin:miter;stroke-opacity:1"
       d="m 110.43523,141.53918 0.57711,-2.26022"
       id="path4636" />
    <path
       style="fill:none;stroke:#ebebeb;stroke-width:0.264583px;stroke-linecap:butt;stroke-linejoin:miter;stroke-opacity:1"
       d="m 112.08867,145.24992 2.01765,-5.07601"
       id="path4638" />
    <path
       style="fill:none;stroke:#ebebeb;stroke-width:0.264583px;stroke-linecap:butt;stroke-linejoin:miter;stroke-opacity:1"
       d="m 114.20124,149.71333 3.43081,-7.96234"
       id="path4640" />
    <path
       style="fill:none;stroke:#ebebeb;stroke-width:0.264583px;stroke-linecap:butt;stroke-linejoin:miter;stroke-opacity:1"
       d="m 115.34282,152.94683 5.19742,-9.96328"
       id="path4642" />
    <path
       style="fill:none;stroke:#ebebeb;stroke-width:0.264583px;stroke-linecap:butt;stroke-linejoin:miter;stroke-opacity:1"
       d="m 116.70348,155.52983 6.94468,-10.34616"
       id="path4644" />
    <path
       style="fill:none;stroke:#ebebeb;stroke-width:0.264583px;stroke-linecap:butt;stroke-linejoin:miter;stroke-opacity:1"
       d="m 121.74807,154.62675 4.83542,-6.85723"
       id="path4646" />
    <path
       style="fill:none;stroke:#ebebeb;stroke-width:0.264583px;stroke-linecap:butt;stroke-linejoin:miter;stroke-opacity:1"
       d="m 124.96246,154.52414 4.70522,-4.38487"
       id="path4648" />
    <path
       style="fill:none;stroke:#ebebeb;stroke-width:0.264583px;stroke-linecap:butt;stroke-linejoin:miter;stroke-opacity:1"
       d="m 128.88688,155.544 3.04354,-2.58454"
       id="path4650" />
    <path
       style="fill:none;stroke:#ebebeb;stroke-width:0.264583px;stroke-linecap:butt;stroke-linejoin:miter;stroke-opacity:1"
       d="m 131.20203,156.61879 2.09158,-1.22234"
       id="path4652" />
    <path
       style="fill:none;stroke:#ebebeb;stroke-width:0.264583px;stroke-linecap:butt;stroke-linejoin:miter;stroke-opacity:1"
       d="m 132.93216,159.19289 2.23934,-0.95988"
       id="path4654" />
    <path
       style="fill:none;stroke:#ebebeb;stroke-width:0.264583px;stroke-linecap:butt;stroke-linejoin:miter;stroke-opacity:1"
       d="m 133.85072,161.81642 2.87886,-0.83144"
       id="path4656" />
    <path
       style="fill:none;stroke:#ebebeb;stroke-width:0.264583px;stroke-linecap:butt;stroke-linejoin:miter;stroke-opacity:1"
       d="m 134.24041,164.47676 2.7891,-0.5414"
       id="path4658" />
    <path
       style="fill:none;stroke:#ebebeb;stroke-width:0.264583px;stroke-linecap:butt;stroke-linejoin:miter;stroke-opacity:1"
       d="m 133.83249,167.43132 4.08581,0.12337"
       id="path4660" />
    <path
       style="fill:none;stroke:#ebebeb;stroke-width:0.264583px;stroke-linecap:butt;stroke-linejoin:miter;stroke-opacity:1"
       d="m 124.3403,168.02172 -7.57288,-0.30454"
       id="path4662" />
    <path
       style="fill:none;stroke:#ebebeb;stroke-width:0.264583px;stroke-linecap:butt;stroke-linejoin:miter;stroke-opacity:1"
       d="m 115.32415,181.54194 3.69053,2.99113"
       id="path4664" />
    <path
       style="fill:none;stroke:#ebebeb;stroke-width:0.264583px;stroke-linecap:butt;stroke-linejoin:miter;stroke-opacity:1"
       d="m 124.15661,189.26763 4.46748,3.96673"
       id="path4666" />
    <path
       style="fill:none;stroke:#ebebeb;stroke-width:0.264583px;stroke-linecap:butt;stroke-linejoin:miter;stroke-opacity:1"
       d="m 123.69507,193.20513 2.67298,2.63409"
       id="path4668" />
    <path
       style="fill:none;stroke:#ebebeb;stroke-width:0.264583px;stroke-linecap:butt;stroke-linejoin:miter;stroke-opacity:1"
       d="m 122.3097,195.64783 1.62421,2.51422"
       id="path4670" />
    <path
       style="fill:none;stroke:#ebebeb;stroke-width:0.264583px;stroke-linecap:butt;stroke-linejoin:miter;stroke-opacity:1"
       d="m 119.48907,197.15527 0.90802,2.69198"
       id="path4672" />
    <path
       style="fill:none;stroke:#ebebeb;stroke-width:0.264583px;stroke-linecap:butt;stroke-linejoin:miter;stroke-opacity:1"
       d="m 116.1178,197.54957 0.67171,3.49738"
       id="path4674" />
    <path
       style="fill:none;stroke:#ebebeb;stroke-width:0.264583px;stroke-linecap:butt;stroke-linejoin:miter;stroke-opacity:1"
       d="m 112.90968,197.34105 1.1539,5.0737"
       id="path4676" />
    <path
       style="fill:none;stroke:#ebebeb;stroke-width:0.264583px;stroke-linecap:butt;stroke-linejoin:miter;stroke-opacity:1"
       d="m 103.24369,201.02916 -0.13491,1.63147"
       id="path4678" />
    <path
       style="fill:none;stroke:#ebebeb;stroke-width:0.264583px;stroke-linecap:butt;stroke-linejoin:miter;stroke-opacity:1"
       d="m 99.934391,197.31655 -0.650282,4.71302"
       id="path4680" />
    <path
       style="fill:none;stroke:#ebebeb;stroke-width:0.264583px;stroke-linecap:butt;stroke-linejoin:miter;stroke-opacity:1"
       d="m 96.058304,198.13887 -0.629407,2.48665"
       id="path4682" />
    <path
       style="fill:none;stroke:#ebebeb;stroke-width:0.264583px;stroke-linecap:butt;stroke-linejoin:miter;stroke-opacity:1"
       d="m 91.327702,197.08737 -0.45066,1.51403"
       id="path4684" />
    <path
       style="fill:none;stroke:#ebebeb;stroke-width:0.264583px;stroke-linecap:butt;stroke-linejoin:miter;stroke-opacity:1"
       d="m 85.457267,194.18995 3.87268,-3.60956"
       id="path4686" />
  </g>
  <g
     inkscape:groupmode="layer"
     id="layer2"
     inkscape:label="Warstwa 2"
     style="display:inline"
     transform="translate(-61.77379,-125.89818)">
    <path
       id="path7184"
       style="fill:none;fill-opacity:1;fill-rule:nonzero;stroke:#ebebeb;stroke-width:3.77983;stroke-linecap:butt;stroke-linejoin:miter;stroke-miterlimit:4;stroke-dasharray:none;stroke-opacity:1"
       d="M 168.42578 44.941406 C 167.51897 44.932772 166.61298 44.936526 165.70898 44.953125 C 164.80499 44.969724 163.90313 44.999267 163.00195 45.041016 C 162.10077 45.082764 161.20111 45.136312 160.30273 45.203125 C 159.40436 45.269938 158.50691 45.349612 157.61133 45.441406 C 156.71575 45.533201 155.82053 45.637215 154.92773 45.753906 C 154.03494 45.870598 153.14393 46.001073 152.25391 46.142578 C 151.36388 46.284083 150.47515 46.437282 149.58789 46.603516 C 148.70063 46.76975 147.81419 46.947793 146.92969 47.138672 C 146.04519 47.329551 145.163 47.532606 144.28125 47.748047 C 143.3995 47.963488 142.51964 48.191723 141.64062 48.431641 C 140.76161 48.671559 139.8841 48.923188 139.00781 49.1875 C 138.13152 49.451812 137.25638 49.728957 136.38281 50.017578 C 135.50924 50.306199 134.63649 50.607075 133.76562 50.919922 C 132.89476 51.232768 132.02441 51.557543 131.15625 51.894531 C 130.28809 52.231519 129.42211 52.58036 128.55664 52.941406 C 127.69117 53.302452 126.82763 53.675527 125.96484 54.060547 C 125.10205 54.445566 124.24098 54.843044 123.38086 55.251953 C 122.52074 55.660862 121.66019 56.080957 120.80273 56.513672 C 119.94528 56.946387 119.08918 57.391219 118.23438 57.847656 C 117.37957 58.304093 116.52794 58.771878 115.67578 59.251953 C 114.82362 59.732028 113.97257 60.224887 113.12305 60.728516 C 112.27352 61.232144 111.42502 61.746339 110.57812 62.273438 C 109.73123 62.800536 108.8853 63.34014 108.04102 63.890625 C 107.19673 64.44111 106.3534 65.002385 105.51172 65.576172 C 103.82836 66.723745 102.14955 67.917925 100.47656 69.158203 C 98.803573 70.398481 97.137306 71.685267 95.474609 73.017578 C 93.811913 74.349889 92.154432 75.728671 90.501953 77.152344 C 88.849474 78.576016 87.200931 80.044232 85.558594 81.558594 C 83.916257 83.072956 82.278754 84.633901 80.646484 86.238281 C 79.014215 87.842662 77.387903 89.49182 75.765625 91.185547 C 74.916956 92.283658 74.079191 93.391862 73.253906 94.511719 C 72.428622 95.631575 71.614602 96.763196 70.814453 97.904297 C 70.014304 99.045397 69.22834 100.19558 68.455078 101.35742 C 67.681816 102.51927 66.922359 103.69291 66.177734 104.875 C 65.43311 106.05709 64.702517 107.24935 63.988281 108.45117 C 63.274046 109.653 62.576627 110.86292 61.894531 112.08398 C 61.212436 113.30505 60.546642 114.53559 59.898438 115.77539 C 59.250233 117.01519 58.618422 118.2654 58.005859 119.52344 C 57.393297 120.78148 56.799779 122.04844 56.224609 123.32422 C 55.64944 124.6 55.092665 125.88472 54.556641 127.17773 C 54.020616 128.47075 53.504895 129.77229 53.009766 131.08203 C 52.514636 132.39178 52.040374 133.70918 51.587891 135.03516 C 51.135408 136.36113 50.704961 137.6954 50.296875 139.03711 C 49.888789 140.37882 49.502562 141.72705 49.140625 143.08398 C 48.778688 144.44092 48.440991 145.80607 48.126953 147.17773 C 47.812916 148.5494 47.524152 149.92856 47.259766 151.31445 C 46.995379 152.70035 46.755954 154.09257 46.542969 155.49219 C 46.329984 156.89181 46.142254 158.29809 45.982422 159.71094 C 45.82259 161.12378 45.690866 162.54318 45.585938 163.96875 C 45.481009 165.39432 45.403742 166.82588 45.355469 168.26367 C 45.307196 169.70146 45.286742 171.14619 45.296875 172.5957 C 45.307008 174.04522 45.347679 175.5002 45.417969 176.96094 C 45.488259 178.42167 45.588505 179.88792 45.720703 181.35938 C 45.852902 182.83083 46.017033 184.30739 46.212891 185.78906 C 46.408748 187.27074 46.637169 188.75861 46.898438 190.25 C 47.159706 191.74139 47.45282 193.23572 47.78125 194.73633 C 48.10968 196.23693 48.471799 197.74263 48.869141 199.25195 C 49.266483 200.76127 49.699963 202.27544 50.167969 203.79297 C 50.635974 205.3105 51.139267 206.83218 51.679688 208.35742 C 52.220108 209.88267 52.797523 211.4109 53.412109 212.94336 C 54.026696 214.47582 54.678638 216.01161 55.369141 217.55078 C 56.059644 219.08995 56.78847 220.63236 57.556641 222.17773 C 58.426409 223.96609 59.31353 225.71022 60.216797 227.41211 C 61.120064 229.114 62.038729 230.77487 62.974609 232.39258 C 63.910489 234.01028 64.86247 235.58529 65.830078 237.12109 C 66.797686 238.6569 67.780847 240.15318 68.779297 241.60938 C 69.777747 243.06557 70.791905 244.48246 71.820312 245.86133 C 72.84872 247.24019 73.89174 248.58094 74.949219 249.88477 C 76.006697 251.18859 77.078398 252.45448 78.164062 253.68555 C 79.249727 254.91661 80.349925 256.11284 81.462891 257.27344 C 82.575856 258.43403 83.702416 259.55993 84.841797 260.65234 C 85.981177 261.74475 87.133918 262.80357 88.298828 263.83008 C 89.463738 264.85659 90.640524 265.8496 91.830078 266.8125 C 93.019633 267.7754 94.220281 268.70781 95.433594 269.60938 C 96.646907 270.51094 97.873188 271.38208 99.109375 272.22461 C 100.34556 273.06713 101.59339 273.88025 102.85156 274.66602 C 104.10974 275.45178 105.37697 276.21011 106.65625 276.94141 C 107.93553 277.6727 109.2259 278.37753 110.52539 279.05664 C 111.82488 279.73575 113.1343 280.39032 114.45312 281.01953 C 115.77195 281.64874 117.10023 282.25239 118.4375 282.83398 C 119.77477 283.41558 121.12173 283.9735 122.47656 284.50977 C 123.83139 285.04603 125.1949 285.56146 126.56641 286.05469 C 127.93791 286.54791 129.31778 287.02019 130.70508 287.47266 C 132.09238 287.92512 133.48647 288.35749 134.88867 288.77148 C 136.29087 289.18548 137.70097 289.58118 139.11719 289.95898 C 140.53341 290.33679 141.95541 290.69711 143.38477 291.04102 C 144.81412 291.38492 146.2498 291.71115 147.69141 292.02344 C 149.13301 292.33573 150.58024 292.63306 152.0332 292.91602 C 153.48617 293.19897 154.94476 293.46869 156.4082 293.72461 C 157.87164 293.98052 159.34142 294.22392 160.81445 294.45508 C 162.28749 294.68623 163.76435 294.9046 165.24609 295.11328 C 166.72783 295.32196 168.21357 295.52049 169.70312 295.70898 C 172.68224 296.08598 175.67655 296.42442 178.68164 296.73438 C 180.38035 296.59049 182.05306 296.419 183.70117 296.2207 C 185.34929 296.02241 186.9715 295.7982 188.57031 295.54688 C 190.16912 295.29555 191.74413 295.01782 193.29492 294.71484 C 194.84571 294.41187 196.3729 294.08371 197.87695 293.73047 C 199.38101 293.37723 200.8617 292.99783 202.32031 292.5957 C 203.77892 292.19358 205.21641 291.76798 206.63086 291.31836 C 208.04531 290.86874 209.43702 290.39613 210.80859 289.90039 C 212.18017 289.40465 213.53135 288.88617 214.86133 288.3457 C 216.19131 287.80523 217.49938 287.24202 218.78906 286.6582 C 220.07874 286.07438 221.34895 285.46954 222.59961 284.84375 C 223.85027 284.21796 225.08199 283.57067 226.29492 282.9043 C 227.50785 282.23792 228.70243 281.55323 229.87891 280.84766 C 231.05539 280.14208 232.21415 279.41722 233.35547 278.67383 C 234.49679 277.93044 235.62107 277.1685 236.72852 276.38867 C 237.83596 275.60885 238.9271 274.81097 240.00195 273.99609 C 241.07681 273.18122 242.13418 272.34855 243.17773 271.5 C 244.22129 270.65145 245.25014 269.78708 246.26367 268.90625 C 247.27721 268.02542 248.27691 267.12853 249.26172 266.2168 C 250.24652 265.30506 251.21647 264.37875 252.17383 263.4375 C 253.13119 262.49625 254.07466 261.5397 255.00586 260.57031 C 255.93706 259.60092 256.85539 258.61724 257.76172 257.62109 C 258.66804 256.62495 259.56258 255.61722 260.44531 254.5957 C 261.32805 253.57419 262.20011 252.53964 263.06055 251.49414 C 263.92098 250.44864 264.76996 249.39037 265.60938 248.32227 C 266.44879 247.25416 267.27797 246.17527 268.09766 245.08594 C 268.91734 243.99661 269.72805 242.89823 270.5293 241.78906 C 271.33054 240.6799 272.12216 239.56122 272.90625 238.43359 C 273.69034 237.30597 274.46616 236.16813 275.23438 235.02344 C 276.7708 232.73405 278.27716 230.41188 279.75781 228.0625 C 281.23846 225.71312 282.69375 223.33776 284.12891 220.93945 C 284.93075 218.97874 285.68898 217.03402 286.40234 215.10742 C 287.1157 213.18082 287.78382 211.27195 288.41016 209.37891 C 289.03649 207.48586 289.61939 205.61005 290.16016 203.75 C 290.70093 201.88995 291.19958 200.04638 291.65625 198.21875 C 292.11292 196.39112 292.52831 194.57897 292.90234 192.7832 C 293.27638 190.98744 293.60949 189.20782 293.90234 187.44336 C 294.1952 185.6789 294.44897 183.92904 294.66211 182.19531 C 294.87525 180.46158 295.0487 178.74262 295.18359 177.03906 C 295.31848 175.33551 295.41455 173.64856 295.47266 171.97461 C 295.53076 170.30066 295.55043 168.641 295.5332 166.99609 C 295.51598 165.35119 295.46023 163.71994 295.36914 162.10352 C 295.27805 160.48709 295.15177 158.88538 294.98828 157.29688 C 294.82479 155.70837 294.62506 154.13342 294.39062 152.57227 C 294.15619 151.01111 293.88594 149.46405 293.58203 147.92969 C 293.27812 146.39532 292.94028 144.87338 292.56836 143.36523 C 292.19643 141.85709 291.79199 140.36139 291.35352 138.87891 C 290.91504 137.39643 290.44302 135.92809 289.93945 134.4707 C 289.43588 133.01332 288.89923 131.56762 288.33203 130.13477 C 287.76483 128.70192 287.16647 127.28193 286.53711 125.87305 C 285.90775 124.46417 285.24866 123.06712 284.55859 121.68164 C 283.86853 120.29617 283.14775 118.92123 282.39844 117.55859 C 281.64913 116.19596 280.87154 114.84426 280.06445 113.50391 C 279.25736 112.16355 278.42005 110.83427 277.55664 109.51562 C 276.69323 108.19698 275.80303 106.88929 274.88477 105.5918 C 273.96651 104.29431 273.02048 103.00737 272.04883 101.73047 C 271.07718 100.45357 270.08022 99.186568 269.05664 97.929688 C 268.03306 96.672807 266.98421 95.426874 265.91016 94.189453 C 264.83611 92.952032 263.73634 91.724385 262.61328 90.505859 C 261.49022 89.287334 260.34247 88.077148 259.17188 86.876953 C 258.00128 85.676759 256.80848 84.485161 255.5918 83.302734 C 254.37512 82.120308 253.13435 80.946473 251.87305 79.78125 C 250.61175 78.616027 249.32985 77.461083 248.02539 76.3125 C 246.04611 74.814017 244.07243 73.370739 242.10547 71.982422 C 240.13851 70.594105 238.17737 69.259291 236.22266 67.980469 C 235.2453 67.341058 234.26923 66.715679 233.29492 66.103516 C 232.32061 65.491353 231.34823 64.893593 230.37695 64.308594 C 229.40568 63.723595 228.43699 63.151669 227.46875 62.59375 C 226.50051 62.035831 225.53358 61.491861 224.56836 60.960938 C 223.60313 60.430014 222.638 59.912214 221.67578 59.408203 C 220.71357 58.904192 219.75414 58.41273 218.79492 57.935547 C 217.83571 57.458364 216.8781 56.995361 215.92188 56.544922 C 214.96565 56.094483 214.00988 55.658154 213.05664 55.234375 C 212.1034 54.810596 211.15144 54.399156 210.20117 54.001953 C 209.2509 53.60475 208.30278 53.22032 207.35547 52.849609 C 206.40816 52.478899 205.46193 52.121646 204.51758 51.777344 C 203.57322 51.433042 202.63086 51.103134 201.68945 50.785156 C 200.74804 50.467178 199.80762 50.160878 198.86914 49.869141 C 197.93067 49.577403 196.99414 49.298784 196.05859 49.033203 C 195.12304 48.767622 194.18849 48.514899 193.25586 48.275391 C 192.32323 48.035882 191.39262 47.809223 190.46289 47.595703 C 189.53316 47.382183 188.60457 47.181756 187.67773 46.994141 C 186.7509 46.806525 185.82629 46.632498 184.90234 46.470703 C 183.9784 46.308908 183.05583 46.159495 182.13477 46.023438 C 181.2137 45.88738 180.2932 45.764702 179.375 45.654297 C 178.4568 45.543892 177.54034 45.446165 176.625 45.361328 C 175.70966 45.276492 174.7953 45.203883 173.88281 45.144531 C 172.97033 45.08518 172.06004 45.03981 171.15039 45.005859 C 170.24075 44.971909 169.3326 44.95004 168.42578 44.941406 z "
       transform="matrix(0.26458333,0,0,0.26458333,61.77379,125.89818)" />
    <path
       id="path17646"
       style="fill:#ffc400;fill-opacity:1;fill-rule:nonzero;stroke:#ebebeb;stroke-width:3.77983;stroke-linecap:butt;stroke-linejoin:miter;stroke-miterlimit:4;stroke-dasharray:none;stroke-opacity:1"
       d="M 176.44531 20.792969 C 134.82479 20.308252 94.540859 40.685817 54.662109 78.423828 C 6.1296571 140.79813 10.61976 215.21154 61.869141 274.5293 C 120.06664 330.57228 191.69323 344.42982 258.83008 287.54102 C 302.60132 255.37414 332.96997 214.94412 324.16016 150.36133 C 315.99717 94.153593 291.63545 78.860878 270.05469 56.544922 C 237.89994 32.611176 206.81705 21.146681 176.44531 20.792969 z M 168.42578 44.941406 C 169.3326 44.95004 170.24075 44.971909 171.15039 45.005859 C 172.06004 45.03981 172.97033 45.08518 173.88281 45.144531 C 174.7953 45.203883 175.70966 45.276492 176.625 45.361328 C 177.54034 45.446165 178.4568 45.543892 179.375 45.654297 C 180.2932 45.764702 181.2137 45.88738 182.13477 46.023438 C 183.05583 46.159495 183.9784 46.308908 184.90234 46.470703 C 185.82629 46.632498 186.7509 46.806525 187.67773 46.994141 C 188.60457 47.181756 189.53316 47.382183 190.46289 47.595703 C 191.39262 47.809223 192.32323 48.035882 193.25586 48.275391 C 194.18849 48.514899 195.12304 48.767622 196.05859 49.033203 C 196.99414 49.298784 197.93067 49.577403 198.86914 49.869141 C 199.80762 50.160878 200.74804 50.467178 201.68945 50.785156 C 202.63086 51.103134 203.57322 51.433042 204.51758 51.777344 C 205.46193 52.121646 206.40816 52.478899 207.35547 52.849609 C 208.30278 53.22032 209.2509 53.60475 210.20117 54.001953 C 211.15144 54.399156 212.1034 54.810596 213.05664 55.234375 C 214.00988 55.658154 214.96565 56.094483 215.92188 56.544922 C 216.8781 56.995361 217.83571 57.458364 218.79492 57.935547 C 219.75414 58.41273 220.71357 58.904192 221.67578 59.408203 C 222.638 59.912214 223.60313 60.430014 224.56836 60.960938 C 225.53358 61.491861 226.50051 62.035831 227.46875 62.59375 C 228.43699 63.151669 229.40568 63.723595 230.37695 64.308594 C 231.34823 64.893593 232.32061 65.491353 233.29492 66.103516 C 234.26923 66.715679 235.2453 67.341058 236.22266 67.980469 C 238.17737 69.259291 240.13851 70.594105 242.10547 71.982422 C 244.07243 73.370739 246.04611 74.814017 248.02539 76.3125 C 249.32985 77.461083 250.61175 78.616027 251.87305 79.78125 C 253.13435 80.946473 254.37512 82.120308 255.5918 83.302734 C 256.80848 84.485161 258.00128 85.676759 259.17188 86.876953 C 260.34247 88.077148 261.49022 89.287334 262.61328 90.505859 C 263.73634 91.724385 264.83611 92.952032 265.91016 94.189453 C 266.98421 95.426874 268.03306 96.672807 269.05664 97.929688 C 270.08022 99.186568 271.07718 100.45357 272.04883 101.73047 C 273.02048 103.00737 273.96651 104.29431 274.88477 105.5918 C 275.80303 106.88929 276.69323 108.19698 277.55664 109.51562 C 278.42005 110.83427 279.25736 112.16355 280.06445 113.50391 C 280.87154 114.84426 281.64913 116.19596 282.39844 117.55859 C 283.14775 118.92123 283.86853 120.29617 284.55859 121.68164 C 285.24866 123.06712 285.90775 124.46417 286.53711 125.87305 C 287.16647 127.28193 287.76483 128.70192 288.33203 130.13477 C 288.89923 131.56762 289.43588 133.01332 289.93945 134.4707 C 290.44302 135.92809 290.91504 137.39643 291.35352 138.87891 C 291.79199 140.36139 292.19643 141.85709 292.56836 143.36523 C 292.94028 144.87338 293.27812 146.39532 293.58203 147.92969 C 293.88594 149.46405 294.15619 151.01111 294.39062 152.57227 C 294.62506 154.13342 294.82479 155.70837 294.98828 157.29688 C 295.15177 158.88538 295.27805 160.48709 295.36914 162.10352 C 295.46023 163.71994 295.51598 165.35119 295.5332 166.99609 C 295.55043 168.641 295.53076 170.30066 295.47266 171.97461 C 295.41455 173.64856 295.31848 175.33551 295.18359 177.03906 C 295.0487 178.74262 294.87525 180.46158 294.66211 182.19531 C 294.44897 183.92904 294.1952 185.6789 293.90234 187.44336 C 293.60949 189.20782 293.27638 190.98744 292.90234 192.7832 C 292.52831 194.57897 292.11292 196.39112 291.65625 198.21875 C 291.19958 200.04638 290.70093 201.88995 290.16016 203.75 C 289.61939 205.61005 289.03649 207.48586 288.41016 209.37891 C 287.78382 211.27195 287.1157 213.18082 286.40234 215.10742 C 285.68898 217.03402 284.93075 218.97874 284.12891 220.93945 C 282.69375 223.33776 281.23846 225.71312 279.75781 228.0625 C 278.27716 230.41188 276.7708 232.73405 275.23438 235.02344 C 274.46616 236.16813 273.69034 237.30597 272.90625 238.43359 C 272.12216 239.56122 271.33054 240.6799 270.5293 241.78906 C 269.72805 242.89823 268.91734 243.99661 268.09766 245.08594 C 267.27797 246.17527 266.44879 247.25416 265.60938 248.32227 C 264.76996 249.39037 263.92098 250.44864 263.06055 251.49414 C 262.20011 252.53964 261.32805 253.57419 260.44531 254.5957 C 259.56258 255.61722 258.66804 256.62495 257.76172 257.62109 C 256.85539 258.61724 255.93706 259.60092 255.00586 260.57031 C 254.07466 261.5397 253.13119 262.49625 252.17383 263.4375 C 251.21647 264.37875 250.24652 265.30506 249.26172 266.2168 C 248.27691 267.12853 247.27721 268.02542 246.26367 268.90625 C 245.25014 269.78708 244.22129 270.65145 243.17773 271.5 C 242.13418 272.34855 241.07681 273.18122 240.00195 273.99609 C 238.9271 274.81097 237.83596 275.60885 236.72852 276.38867 C 235.62107 277.1685 234.49679 277.93044 233.35547 278.67383 C 232.21415 279.41722 231.05539 280.14208 229.87891 280.84766 C 228.70243 281.55323 227.50785 282.23792 226.29492 282.9043 C 225.08199 283.57067 223.85027 284.21796 222.59961 284.84375 C 221.34895 285.46954 220.07874 286.07438 218.78906 286.6582 C 217.49938 287.24202 216.19131 287.80523 214.86133 288.3457 C 213.53135 288.88617 212.18017 289.40465 210.80859 289.90039 C 209.43702 290.39613 208.04531 290.86874 206.63086 291.31836 C 205.21641 291.76798 203.77892 292.19358 202.32031 292.5957 C 200.8617 292.99783 199.38101 293.37723 197.87695 293.73047 C 196.3729 294.08371 194.84571 294.41187 193.29492 294.71484 C 191.74413 295.01782 190.16912 295.29555 188.57031 295.54688 C 186.9715 295.7982 185.34929 296.02241 183.70117 296.2207 C 182.05306 296.419 180.38035 296.59049 178.68164 296.73438 C 175.67655 296.42442 172.68224 296.08598 169.70312 295.70898 C 168.21357 295.52049 166.72783 295.32196 165.24609 295.11328 C 163.76435 294.9046 162.28749 294.68623 160.81445 294.45508 C 159.34142 294.22392 157.87164 293.98052 156.4082 293.72461 C 154.94476 293.46869 153.48617 293.19897 152.0332 292.91602 C 150.58024 292.63306 149.13301 292.33573 147.69141 292.02344 C 146.2498 291.71115 144.81412 291.38492 143.38477 291.04102 C 141.95541 290.69711 140.53341 290.33679 139.11719 289.95898 C 137.70097 289.58118 136.29087 289.18548 134.88867 288.77148 C 133.48647 288.35749 132.09238 287.92512 130.70508 287.47266 C 129.31778 287.02019 127.93791 286.54791 126.56641 286.05469 C 125.1949 285.56146 123.83139 285.04603 122.47656 284.50977 C 121.12173 283.9735 119.77477 283.41558 118.4375 282.83398 C 117.10023 282.25239 115.77195 281.64874 114.45312 281.01953 C 113.1343 280.39032 111.82488 279.73575 110.52539 279.05664 C 109.2259 278.37753 107.93553 277.6727 106.65625 276.94141 C 105.37697 276.21011 104.10974 275.45178 102.85156 274.66602 C 101.59339 273.88025 100.34556 273.06713 99.109375 272.22461 C 97.873188 271.38208 96.646907 270.51094 95.433594 269.60938 C 94.220281 268.70781 93.019633 267.7754 91.830078 266.8125 C 90.640524 265.8496 89.463738 264.85659 88.298828 263.83008 C 87.133918 262.80357 85.981177 261.74475 84.841797 260.65234 C 83.702416 259.55993 82.575856 258.43403 81.462891 257.27344 C 80.349925 256.11284 79.249727 254.91661 78.164062 253.68555 C 77.078398 252.45448 76.006697 251.18859 74.949219 249.88477 C 73.89174 248.58094 72.84872 247.24019 71.820312 245.86133 C 70.791905 244.48246 69.777747 243.06557 68.779297 241.60938 C 67.780847 240.15318 66.797686 238.6569 65.830078 237.12109 C 64.86247 235.58529 63.910489 234.01028 62.974609 232.39258 C 62.038729 230.77487 61.120064 229.114 60.216797 227.41211 C 59.31353 225.71022 58.426409 223.96609 57.556641 222.17773 C 56.78847 220.63236 56.059644 219.08995 55.369141 217.55078 C 54.678638 216.01161 54.026696 214.47582 53.412109 212.94336 C 52.797523 211.4109 52.220108 209.88267 51.679688 208.35742 C 51.139267 206.83218 50.635974 205.3105 50.167969 203.79297 C 49.699963 202.27544 49.266483 200.76127 48.869141 199.25195 C 48.471799 197.74263 48.10968 196.23693 47.78125 194.73633 C 47.45282 193.23572 47.159706 191.74139 46.898438 190.25 C 46.637169 188.75861 46.408748 187.27074 46.212891 185.78906 C 46.017033 184.30739 45.852902 182.83083 45.720703 181.35938 C 45.588505 179.88792 45.488259 178.42167 45.417969 176.96094 C 45.347679 175.5002 45.307008 174.04522 45.296875 172.5957 C 45.286742 171.14619 45.307196 169.70146 45.355469 168.26367 C 45.403742 166.82588 45.481009 165.39432 45.585938 163.96875 C 45.690866 162.54318 45.82259 161.12378 45.982422 159.71094 C 46.142254 158.29809 46.329984 156.89181 46.542969 155.49219 C 46.755954 154.09257 46.995379 152.70035 47.259766 151.31445 C 47.524152 149.92856 47.812916 148.5494 48.126953 147.17773 C 48.440991 145.80607 48.778688 144.44092 49.140625 143.08398 C 49.502562 141.72705 49.888789 140.37882 50.296875 139.03711 C 50.704961 137.6954 51.135408 136.36113 51.587891 135.03516 C 52.040374 133.70918 52.514636 132.39178 53.009766 131.08203 C 53.504895 129.77229 54.020616 128.47075 54.556641 127.17773 C 55.092665 125.88472 55.64944 124.6 56.224609 123.32422 C 56.799779 122.04844 57.393297 120.78148 58.005859 119.52344 C 58.618422 118.2654 59.250233 117.01519 59.898438 115.77539 C 60.546642 114.53559 61.212436 113.30505 61.894531 112.08398 C 62.576627 110.86292 63.274046 109.653 63.988281 108.45117 C 64.702517 107.24935 65.43311 106.05709 66.177734 104.875 C 66.922359 103.69291 67.681816 102.51927 68.455078 101.35742 C 69.22834 100.19558 70.014304 99.045397 70.814453 97.904297 C 71.614602 96.763196 72.428622 95.631575 73.253906 94.511719 C 74.079191 93.391862 74.916956 92.283658 75.765625 91.185547 C 77.387903 89.49182 79.014215 87.842662 80.646484 86.238281 C 82.278754 84.633901 83.916257 83.072956 85.558594 81.558594 C 87.200931 80.044232 88.849474 78.576016 90.501953 77.152344 C 92.154432 75.728671 93.811913 74.349889 95.474609 73.017578 C 97.137306 71.685267 98.803573 70.398481 100.47656 69.158203 C 102.14955 67.917925 103.82836 66.723745 105.51172 65.576172 C 106.3534 65.002385 107.19673 64.44111 108.04102 63.890625 C 108.8853 63.34014 109.73123 62.800536 110.57812 62.273438 C 111.42502 61.746339 112.27352 61.232144 113.12305 60.728516 C 113.97257 60.224887 114.82362 59.732028 115.67578 59.251953 C 116.52794 58.771878 117.37957 58.304093 118.23438 57.847656 C 119.08918 57.391219 119.94528 56.946387 120.80273 56.513672 C 121.66019 56.080957 122.52074 55.660862 123.38086 55.251953 C 124.24098 54.843044 125.10205 54.445566 125.96484 54.060547 C 126.82763 53.675527 127.69117 53.302452 128.55664 52.941406 C 129.42211 52.58036 130.28809 52.231519 131.15625 51.894531 C 132.02441 51.557543 132.89476 51.232768 133.76562 50.919922 C 134.63649 50.607075 135.50924 50.306199 136.38281 50.017578 C 137.25638 49.728957 138.13152 49.451812 139.00781 49.1875 C 139.8841 48.923188 140.76161 48.671559 141.64062 48.431641 C 142.51964 48.191723 143.3995 47.963488 144.28125 47.748047 C 145.163 47.532606 146.04519 47.329551 146.92969 47.138672 C 147.81419 46.947793 148.70063 46.76975 149.58789 46.603516 C 150.47515 46.437282 151.36388 46.284083 152.25391 46.142578 C 153.14393 46.001073 154.03494 45.870598 154.92773 45.753906 C 155.82053 45.637215 156.71575 45.533201 157.61133 45.441406 C 158.50691 45.349612 159.40436 45.269938 160.30273 45.203125 C 161.20111 45.136312 162.10077 45.082764 163.00195 45.041016 C 163.90313 44.999267 164.80499 44.969724 165.70898 44.953125 C 166.61298 44.936526 167.51897 44.932772 168.42578 44.941406 z "
       transform="matrix(0.26458333,0,0,0.26458333,61.77379,125.89818)" />
    <path
       style="fill:#ffc400;stroke:#ebebeb;stroke-width:1.00008;stroke-linecap:butt;stroke-linejoin:miter;stroke-miterlimit:4;stroke-dasharray:none;stroke-opacity:1;fill-opacity:1"
       d="m 103.42522,183.89693 c -0.90162,3.40542 -2.44859,8.93118 -5.812685,9.14938 -1.889729,-0.33615 -3.614247,-0.84012 -2.19243,-4.54022 0.83615,-1.6111 -0.680462,-4.26084 -1.833909,-2.87622 -1.876715,2.79494 -3.278707,5.68958 -2.733662,8.99314 1.652865,2.1385 3.854403,3.18997 7.187967,1.99868 7.436809,-1.54811 5.760209,-8.20735 7.646929,-12.66609 z"
       id="path15179"
       sodipodi:nodetypes="cccccccc" />
    <path
       style="fill:#ffc400;stroke:#ebebeb;stroke-width:1.00008;stroke-linecap:butt;stroke-linejoin:miter;stroke-miterlimit:4;stroke-dasharray:none;stroke-opacity:1;fill-opacity:1"
       d="m 105.35929,184.73541 -2.52694,11.1579 c 0.13633,2.46355 0.44527,4.87946 4.00699,6.39753 2.72144,-2.16157 3.59083,-4.89517 4.0098,-7.76789 l -1.94819,-10.50877 -3.21352,-0.0586 z"
       id="path16107"
       sodipodi:nodetypes="ccccccc" />
    <path
       style="fill:#ffc400;stroke:#ebebeb;stroke-width:1.00008;stroke-linecap:butt;stroke-linejoin:miter;stroke-miterlimit:4;stroke-dasharray:none;stroke-opacity:1;fill-opacity:1"
       d="m 108.90095,184.01418 c 0.73117,4.69246 0.87231,9.78962 4.74034,12.33048 3.92386,0.87745 6.64864,-0.10983 8.83047,-1.9415 2.18724,-4.28825 0.16733,-7.21672 -2.2284,-9.83524 -0.57102,2.99033 1.55885,7.23411 -3.5993,8.36575 -4.32598,-1.30917 -4.10842,-5.46309 -5.35336,-8.89727 z"
       id="path17115"
       sodipodi:nodetypes="ccccccc" />
    <path
       style="fill:#ffc400;stroke:#ebebeb;stroke-width:1.00008;stroke-linecap:butt;stroke-linejoin:miter;stroke-miterlimit:4;stroke-dasharray:none;stroke-opacity:1;fill-opacity:1"
       d="m 101.37436,183.78283 c 3.9761,0.016 7.84917,0.71025 11.96614,-0.20105 2.30614,-3.32604 3.2163,-6.55085 -0.41764,-9.44619 l -11.57771,0.0266 c -2.606461,4.42148 -1.600084,7.16566 0.0292,9.62064 z"
       id="path17886"
       sodipodi:nodetypes="cccccc" />
    <path
       style="fill:#ffc400;stroke:#ebebeb;stroke-width:1.00008;stroke-linecap:butt;stroke-linejoin:miter;stroke-miterlimit:4;stroke-dasharray:none;stroke-opacity:1;fill-opacity:1"
       d="m 105.93334,174.12456 c -0.96193,-8.31001 -7.338209,-15.92759 -5.70934,-23.73403 2.19272,-5.04765 5.24313,-7.8723 8.07427,-11.26527 2.80214,5.85857 5.3356,10.47412 5.57453,16.82442 -0.75383,6.00304 -3.82031,11.9902 -4.98502,18.16501 z"
       id="path18890"
       sodipodi:nodetypes="cccccc" />
    <path
       style="fill:#ffc400;stroke:#ebebeb;stroke-width:1.00008;stroke-linecap:butt;stroke-linejoin:miter;stroke-miterlimit:4;stroke-dasharray:none;stroke-opacity:1;fill-opacity:1"
       d="m 102.38628,174.05231 c -1.28455,-6.18138 -3.129493,-11.92133 -11.105079,-12.83202 -5.007672,0.0993 -7.658142,1.53263 -4.836127,7.2459 1.897243,2.86216 -1.192912,6.46338 -5.088682,-0.33417 -0.230767,-7.36519 -0.182063,-14.09575 10.982878,-13.71694 10.58379,0.57134 12.35207,15.76379 13.59407,19.70948 z"
       id="path20198"
       sodipodi:nodetypes="ccccccc" />
    <path
       style="fill:#ffc400;stroke:#ebebeb;stroke-width:1.00008;stroke-linecap:butt;stroke-linejoin:miter;stroke-miterlimit:4;stroke-dasharray:none;stroke-opacity:1;fill-opacity:1"
       d="m 108.88778,174.11469 c 3.14834,-21.50382 25.38301,-23.79521 24.46299,-8.08243 -1.33602,2.71631 -3.55699,6.1488 -7.32228,5.16932 6.0863,-17.45754 -15.01494,-7.8086 -14.5501,2.85788 z"
       id="path21761"
       sodipodi:nodetypes="ccccc" />
    <path
       style="fill:#ffc400;stroke:#ebebeb;stroke-width:1.00008;stroke-linecap:butt;stroke-linejoin:miter;stroke-miterlimit:4;stroke-dasharray:none;stroke-opacity:1;fill-opacity:1"
       d="m 100.05189,177.35888 15.06862,0.051"
       id="path22969"
       sodipodi:nodetypes="cc" />
    <path
       style="fill:#ffc400;stroke:#ebebeb;stroke-width:1.00008;stroke-linecap:butt;stroke-linejoin:miter;stroke-miterlimit:4;stroke-dasharray:none;stroke-opacity:1;fill-opacity:1"
       d="m 100.3339,181.68354 h 14.14139"
       id="path22971"
       sodipodi:nodetypes="cc" />
    <path
       style="fill:#ffc400;stroke:#ebebeb;stroke-width:1.00008;stroke-linecap:butt;stroke-linejoin:miter;stroke-miterlimit:4;stroke-dasharray:none;stroke-opacity:1;fill-opacity:1"
       d="m 107.13516,173.04346 c -0.50496,-9.90952 -0.66772,-19.84285 0.37441,-29.85997"
       id="path33798"
       sodipodi:nodetypes="cc" />
    <path
       style="fill:#ffc400;stroke:#ebebeb;stroke-width:1.00008;stroke-linecap:butt;stroke-linejoin:miter;stroke-miterlimit:4;stroke-dasharray:none;stroke-opacity:1;fill-opacity:1"
       d="m 107.38267,184.65664 -0.72775,14.02774"
       id="path33890" />
  </g>
</svg>
