<?xml version="1.0" encoding="UTF-8" standalone="no"?>
<!-- Created with Inkscape (http://www.inkscape.org/) -->

<svg
   width="76.869202mm"
   height="63.533215mm"
   viewBox="0 0 76.8692 63.533215"
   version="1.1"
   id="svg5"
   sodipodi:docname="krzyz_laurowy.svg"
   inkscape:version="1.2-dev (0853165845, 2021-06-13, custom)"
   xmlns:inkscape="http://www.inkscape.org/namespaces/inkscape"
   xmlns:sodipodi="http://sodipodi.sourceforge.net/DTD/sodipodi-0.dtd"
   xmlns="http://www.w3.org/2000/svg"
   xmlns:svg="http://www.w3.org/2000/svg">
  <sodipodi:namedview
     id="namedview7"
     pagecolor="#505050"
     bordercolor="#eeeeee"
     borderopacity="1"
     objecttolerance="10.0"
     gridtolerance="10.0"
     guidetolerance="10.0"
     inkscape:pageshadow="0"
     inkscape:pageopacity="0"
     inkscape:pagecheckerboard="0"
     inkscape:document-units="mm"
     showgrid="false"
     inkscape:zoom="0.83150518"
     inkscape:cx="-220.68413"
     inkscape:cy="-84.184683"
     inkscape:window-width="1920"
     inkscape:window-height="1080"
     inkscape:window-x="0"
     inkscape:window-y="0"
     inkscape:window-maximized="1"
     inkscape:current-layer="layer3"
     fit-margin-top="5"
     fit-margin-left="5"
     fit-margin-right="5"
     fit-margin-bottom="5"
     lock-margins="true" />
  <defs
     id="defs2" />
  <g
     inkscape:groupmode="layer"
     id="layer3"
     inkscape:label="Warstwa 3"
     style="display:inline"
     transform="translate(-105.83219,-190.67177)">
    <path
       style="fill:none;stroke:#ffffff;stroke-width:1.00008;stroke-linecap:butt;stroke-linejoin:miter;stroke-miterlimit:4;stroke-dasharray:none;stroke-opacity:1"
       d="m 111.34116,245.27801 c 4.91988,2.37176 10.25768,3.97861 16.8709,3.25113 6.58651,-0.65172 10.13793,-3.42312 13.30435,-6.46339 -4.86806,-2.31919 -10.12941,-3.39315 -15.78965,-3.20405 l -14.18436,-0.72122 z"
       id="path24316"
       sodipodi:nodetypes="cccccc" />
    <path
       style="fill:none;stroke:#ffffff;stroke-width:1.00008;stroke-linecap:butt;stroke-linejoin:miter;stroke-miterlimit:4;stroke-dasharray:none;stroke-opacity:1"
       d="m 112.79916,241.4384 c 6.64035,1.36181 13.29846,2.37427 20.06554,1.2431"
       id="path24598"
       sodipodi:nodetypes="cc" />
    <path
       style="fill:none;stroke:#ffffff;stroke-width:1.00008;stroke-linecap:butt;stroke-linejoin:miter;stroke-miterlimit:4;stroke-dasharray:none;stroke-opacity:1"
       d="m 111.37654,235.49227 c 2.85351,-3.91391 5.98336,-7.67751 12.4719,-9.61425 l 8.71831,-1.51303 c -0.50762,3.99681 -2.71294,7.5838 -6.67815,10.74595 -4.28271,3.20484 -9.30053,3.17842 -14.3462,3.02954 z"
       id="path25042"
       sodipodi:nodetypes="cccccc" />
    <path
       style="fill:none;stroke:#ffffff;stroke-width:1.00008;stroke-linecap:butt;stroke-linejoin:miter;stroke-miterlimit:4;stroke-dasharray:none;stroke-opacity:1"
       d="m 113.20785,236.37601 c 5.12867,-1.82852 9.95737,-3.84616 13.20743,-6.85909"
       id="path25471"
       sodipodi:nodetypes="cc" />
    <path
       style="fill:none;stroke:#ffffff;stroke-width:1.00008;stroke-linecap:butt;stroke-linejoin:miter;stroke-miterlimit:4;stroke-dasharray:none;stroke-opacity:1"
       d="m 132.38284,233.68359 c 4.42922,-5.67166 11.12005,-9.62407 21.56352,-10.72375 -2.62704,8.25888 -6.96792,14.8024 -16.87061,15.77922 z"
       id="path25714"
       sodipodi:nodetypes="cccc" />
    <path
       style="display:inline;fill:none;stroke:#ffffff;stroke-width:1.00008;stroke-linecap:butt;stroke-linejoin:miter;stroke-miterlimit:4;stroke-dasharray:none;stroke-opacity:1"
       d="m 154.25311,219.93836 c 8.35945,-7.54564 7.87068,-19.73657 3.02164,-23.4887 -2.35721,5.03985 -4.07544,11.05616 -6.52866,18.34347 z"
       id="path26623"
       sodipodi:nodetypes="cccc" />
    <path
       style="display:inline;fill:none;stroke:#ffffff;stroke-width:1.00008;stroke-linecap:butt;stroke-linejoin:miter;stroke-miterlimit:4;stroke-dasharray:none;stroke-opacity:1"
       d="m 153.8737,217.74454 c 1.36791,-4.24198 2.89119,-8.32678 2.88196,-13.96188"
       id="path27209"
       sodipodi:nodetypes="cc" />
    <path
       style="fill:none;stroke:#ffffff;stroke-width:1.00008;stroke-linecap:butt;stroke-linejoin:miter;stroke-miterlimit:4;stroke-dasharray:none;stroke-opacity:1"
       d="m 156.12517,222.36965 c 4.58069,-7.32102 10.9171,-12.74317 21.07068,-14.03701 0.19142,7.23261 -4.57706,13.62177 -14.67664,19.10434 z"
       id="path33324"
       sodipodi:nodetypes="cccc" />
    <path
       style="fill:none;stroke:#ffffff;stroke-width:1.00008;stroke-linecap:butt;stroke-linejoin:miter;stroke-miterlimit:4;stroke-dasharray:none;stroke-opacity:1"
       d="m 159.55674,222.84615 c 6.00862,-2.81776 9.1499,-6.48513 12.94187,-9.95969"
       id="path33492"
       sodipodi:nodetypes="cc" />
    <path
       style="fill:none;stroke:#ffffff;stroke-width:1.00008;stroke-linecap:butt;stroke-linejoin:miter;stroke-miterlimit:4;stroke-dasharray:none;stroke-opacity:1"
       d="m 137.5374,234.76574 c 3.92652,-1.66845 7.27462,-3.945 10.17378,-6.69353"
       id="path33706"
       sodipodi:nodetypes="cc" />
    <path
       style="fill:none;stroke:#ffffff;stroke-width:1.00008;stroke-linecap:butt;stroke-linejoin:miter;stroke-miterlimit:4;stroke-dasharray:none;stroke-opacity:1"
       d="m 145.95815,224.52951 c 0.10747,-3.34244 0.53628,-7.4541 2.30037,-10.42751 1.65845,3.2114 0.83964,6.64994 0.16754,9.72361 z"
       id="path37323"
       sodipodi:nodetypes="cccc" />
    <path
       style="fill:none;stroke:#ffffff;stroke-width:0.965;stroke-linecap:butt;stroke-linejoin:miter;stroke-miterlimit:4;stroke-dasharray:none;stroke-opacity:1"
       d="m 150.7377,230.6762 c 2.82974,-2.06638 6.64833,-1.9518 10.41724,-1.94677 -1.10799,4.02162 -3.99779,7.36607 -9.9545,9.54491 -2.21858,-0.45809 -4.38958,-0.92896 -6.18266,-1.50138 z"
       id="path1665"
       sodipodi:nodetypes="ccccc" />
    <path
       style="fill:none;stroke:#ffffff;stroke-width:0.965;stroke-linecap:butt;stroke-linejoin:miter;stroke-miterlimit:4;stroke-dasharray:none;stroke-opacity:1"
       d="m 148.64044,235.35516 7.30349,-3.13972"
       id="path1890" />
    <path
       style="fill:none;stroke:#ffffff;stroke-width:0.965;stroke-linecap:butt;stroke-linejoin:miter;stroke-miterlimit:4;stroke-dasharray:none;stroke-opacity:1"
       d="m 160.6889,206.34149 2.54004,-6.66958"
       id="path2255" />
    <path
       style="fill:none;stroke:#ffffff;stroke-width:0.965;stroke-linecap:butt;stroke-linejoin:miter;stroke-miterlimit:4;stroke-dasharray:none;stroke-opacity:1"
       d="m 170.7638,210.07266 2.16694,-4.4855"
       id="path2257" />
    <path
       style="fill:none;stroke:#ffffff;stroke-width:0.965;stroke-linecap:butt;stroke-linejoin:miter;stroke-miterlimit:4;stroke-dasharray:none;stroke-opacity:1"
       d="m 163.27903,212.7619 4.59536,-9.31729"
       id="path2259" />
    <path
       style="fill:none;stroke:#ffffff;stroke-width:0.965;stroke-linecap:butt;stroke-linejoin:miter;stroke-miterlimit:4;stroke-dasharray:none;stroke-opacity:1"
       d="m 159.03688,213.77953 2.6141,1.65469"
       id="path2261" />
  </g>
</svg>
