<?xml version="1.0" encoding="UTF-8" standalone="no"?>
<svg
   width="210.87mm"
   height="210.87mm"
   viewBox="0 0 210.86999 210.86999"
   version="1.1"
   id="svg16655"
   sodipodi:docname="krzyz.svg"
   inkscape:version="1.2-dev (fd8ac3146e, 2021-05-04, custom)"
   xmlns:inkscape="http://www.inkscape.org/namespaces/inkscape"
   xmlns:sodipodi="http://sodipodi.sourceforge.net/DTD/sodipodi-0.dtd"
   xmlns="http://www.w3.org/2000/svg"
   xmlns:svg="http://www.w3.org/2000/svg">
  <defs
     id="defs16651" />
  <sodipodi:namedview
     id="base"
     pagecolor="#ffffff"
     bordercolor="#666666"
     borderopacity="1.0"
     inkscape:pageopacity="0.0"
     inkscape:pageshadow="2"
     inkscape:zoom="3.959798"
     inkscape:cx="247.10857"
     inkscape:cy="214.15234"
     inkscape:document-units="mm"
     inkscape:current-layer="layer2"
     showgrid="false"
     inkscape:window-width="1920"
     inkscape:window-height="1080"
     inkscape:window-x="0"
     inkscape:window-y="0"
     inkscape:window-maximized="1"
     objecttolerance="10.0"
     gridtolerance="10.0"
     guidetolerance="10.0"
     inkscape:pagecheckerboard="false"
     fit-margin-top="0"
     fit-margin-left="0"
     fit-margin-right="0"
     fit-margin-bottom="0" />
  <g
     inkscape:groupmode="layer"
     id="layer3"
     inkscape:label="Warstwa 3"
     transform="translate(-0.02898725,-0.61086619)"
     style="display:none" />
  <g
     inkscape:groupmode="layer"
     id="layer2"
     inkscape:label="Warstwa 2"
     transform="translate(-0.02898725,-0.61086619)">
    <g
       transform="matrix(1.1976196,0,0,-1.1976196,-111.26619,852.6138)"
       id="g2826">
      <g
         transform="translate(7.998002,7.9985993)"
         id="g5113"
         style="display:inline"
         inkscape:label="g5113">
        <path
           d="m 139.2288,541.9056 c 2.28,0.72 4.44,0.72 6.72,1.56 1.56,0 2.9988,0 4.5588,0 5.16,1.44 10.44,1.44 15.7188,1.44 9,0 17.9988,0.72 27.7176,0 3.72,0 8.16,-0.72 12,-1.44 1.44,0 2.16,0 3,-0.84 1.4388,0 2.9988,-0.72 3.7188,0 0,0 0,0 0.72,0 v 1.56 c -0.72,0.72 -1.44,1.44 -2.28,2.28 0,0.72 0,0.72 0,0.72 l -1.4388,1.4388 c -0.72,0.84 -0.72,2.28 -1.56,2.28 -0.72,1.56 -1.44,1.56 -1.44,3 -1.56,1.56 -3,3.72 -3.72,5.9988 -0.84,0.72 -0.84,0.72 -0.84,1.56 0,0 0,0 0,0 1.56,0 2.28,-0.84 3.84,0 0.72,0.72 0.72,1.44 1.44,2.16 0.72,0.84 2.28,0.84 2.9988,0.84 2.28,0 3,1.44 4.56,2.16 1.44,1.56 3,3.72 5.16,6 0,0 -0.72,0 -0.72,0.72 0.72,0.84 1.56,0.84 2.2788,1.56 0,0 0,0 0.72,0 0.72,1.44 3,2.9988 3.72,4.4388 1.56,1.56 2.28,3.84 3,5.28 0,1.56 0.84,2.28 0.84,3 0,0 0,0 0,0 l 5.16,-3 9.7188,-6 h 1.56 l 0.72,0.72 v 4.56 l -2.28,20.2788 c 0,4.4388 0,8.8788 0,13.4376 0,1.44 0,3 0,4.44 0.84,4.56 0,8.28 0.84,12.8388 0,5.16 0.72,9.7188 1.44,14.8788 v 6.84 c -1.44,0.72 -2.28,0 -3,-0.84 l -4.44,-3 -2.2788,-1.44 c -1.56,-2.28 -3.72,-3 -6,-4.44 -0.72,0 -1.44,-0.84 -2.28,-1.56 0,0 0,0.72 0,0.72 0,3 -0.72,5.28 -2.16,7.56 0,0.72 0,1.44 -0.84,1.44 -0.72,2.28 -2.16,3 -3,4.56 -0.72,0 -1.44,0.72 -2.1588,1.4388 -0.84,0 -0.84,0.72 -1.56,0.72 h -0.72 c 0,0 0,0.84 0,0.84 l -0.72,2.16 c -0.84,0.84 -1.56,0.84 -3,0.84 0,0 0,0 -0.84,0 0,-0.84 -0.72,-1.56 -0.72,-2.28 l 1.56,-2.28 c 0,0 0,-0.7188 0,-0.7188 -0.84,0 -1.56,1.4388 -2.28,2.2788 0,0.72 0,0.72 0,1.44 0,0 0,0 0,0 -0.72,0.72 -1.56,2.28 -2.28,3 -1.4388,1.56 -2.9988,3 -5.2788,3.72 l -1.44,2.28 c 0,0 0,0 0,0 v -2.28 c 0,-0.72 0,-0.72 0,-0.72 l -1.56,3 c 0.84,1.56 2.28,3 3,4.5588 0.84,0.72 0.84,1.44 1.56,2.16 0.72,1.56 1.44,2.28 2.28,3 l 4.4388,6 c 0,0 0,0 0,0.7188 0,0.84 0,1.56 -0.72,1.56 0,0 -0.72,0.72 -0.72,0.72 h -2.2788 c -1.56,-0.72 -2.28,-0.72 -3,-0.72 -1.56,-0.72 -2.28,0 -3,-0.72 -9,-1.5588 -17.2788,-2.9988 -26.2788,-2.2788 -9.7188,-0.72 -20.1576,0 -29.8764,1.4388 -4.56,0.84 -8.28,2.28 -12.8388,1.56 0,0 -0.72,-0.72 0,-1.56 0.84,-1.4388 1.56,-2.1588 2.2788,-3.7188 2.28,-3 3.72,-6 6,-8.16 0,-0.8388 0.72,-1.5588 0.72,-1.5588 0.84,-3 -0.72,-5.28 -2.16,-6.72 -0.84,-0.72 -1.56,-0.72 -1.56,-0.72 -1.44,0 -2.28,-1.56 -3,-2.28 0,-0.72 -0.7188,-1.56 -1.4388,-1.56 -0.84,0 -1.56,-0.72 -1.56,-0.72 l -2.16,-2.28 c -0.84,0 -0.84,0.84 -0.84,1.56 0,0 -0.72,0.72 -0.72,0.72 h -1.44 l -1.56,-0.72 c 0,-1.56 0,-2.28 0,-2.9988 v -1.56 c -1.44,0 -3.72,0 -4.44,-1.44 -0.84,-0.72 -0.84,-2.28 -1.56,-3 0,-0.72 -0.72,-0.72 -0.72,-0.72 -2.27904,-1.56 -1.55904,-5.28 -2.27904,-7.56 -1.44,0 -2.28,1.56 -3.72,2.28 -2.27952,2.28 -4.55952,3.72 -6.71904,6 -1.56,0.72 -2.28,1.44 -3,2.28 -0.84,0.72 -1.56,2.16 -2.99952,3 l -1.56,-0.84 h -0.72 c 0,0 0,-0.72 -0.72,-0.72 v -2.28 c 0,-0.72 0.72,-1.44 0.72,-2.16 1.56,-11.2788 3,-23.2776 3,-34.5576 0,-2.16 0,-4.4388 0,-6.7188 v -0.72 l -0.72,-8.2788 c -0.72,-6.72 -0.72,-12.72 -1.56,-19.4388 0,-1.56 -0.72,-3.72 -0.72,-5.28 0.72,-0.72 0.72,-1.44 2.28,-1.44 0,0 0,0 0,0 3.71952,3 6.71952,5.16 10.43904,8.16 2.27952,0.84 3.71952,1.56 5.27952,2.9988 l 1.44,0.84 c 0.84,0 0.84,0 0.84,0 -0.84,-0.84 -0.84,-1.5588 0,-2.2788 0,-0.72 0.71904,-0.72 1.43904,-1.56 h 1.56 c 0.72,0 0.72,-0.72 0,-0.72 -0.84,-0.72 -0.84,-1.44 -0.84,-3 0.84,-1.44 2.28,-3 1.56,-4.44 l 0.72,-1.5588 c 0,0 0.72,-0.72 0.72,-0.72 1.56,0 3,0 3.84,-1.56 0.72,-1.44 1.44,-3 3,-3.72 1.44,0 2.88,0 5.1588,0 0.72,0 2.28,0.72 3,0 l 0.72,-3 c 0,0 0.84,0 0.84,0 l 0.72,-0.72 c 0,0 0.72,0 1.44,0 0,-0.72 0,-0.72 0,-0.72 -1.44,0 -3.72,0 -4.44,-0.72 0,-0.84 0,-1.56 0,-2.28 0.72,-1.56 3,-1.56 4.44,-1.56 0.84,0 0.84,-0.72 0.84,-0.72 l -4.56,-5.9988 -1.44,-1.44 -4.5588,-5.9988 c -0.72,-0.84 -0.72,-2.28 -0.72,-3.84 0.72,0 0.72,0 0.72,0 0.72,0 0.72,0 0.72,-0.72 z m 62.8752,90.7128 5.28,1.4388 7.5588,3.84 -2.28,1.44 -7.5588,9.7188 c 0,0 0,0 0,0 0.84,0.72 1.56,0 2.28,0 -0.72,0 -0.72,0.72 -0.72,0.72 -2.28,1.56 -4.56,3.84 -6.72,5.28 -0.84,0.72 -0.84,0.72 -1.56,0.72 h -5.16 l -1.5588,-2.16 -3,-6.72 -0.72,-1.56 c 0.72,0 0,0 0.72,0 0.72,-0.72 2.28,-0.72 3,-2.2788 2.2788,-0.72 3.7188,-1.44 4.5588,-3 2.88,-2.16 4.44,-5.16 5.88,-7.4388 z m -56.8752,0 c 0,0 0.72,-0.72 0.72,-0.72 0.72,0.72 0.72,1.4388 0.72,2.1588 2.9988,3.84 5.9988,6.84 9.8388,9.8388 1.44,0 1.44,0 2.16,0.72 0,0.72 0,0.72 0,2.28 -0.72,1.44 -1.44,2.16 -1.44,3.72 -1.56,2.16 -2.28,4.44 -3,6.72 0,0 0,0 0,0 0,0 0,0 0,0.72 -0.72,0 0,0 -0.72,0 -0.84,0 -1.56,0 -2.28,0.72 -0.72,0 -2.28,0 -3,-0.72 0,0 0,0 0.72,0 l -1.4388,-3.72 c -0.84,-0.72 -2.28,-2.28 -3,-2.28 -0.84,-0.72 -1.56,-0.72 -2.28,-1.44 0.72,-3 -2.28,-5.28 -1.56,-8.2788 -0.72,-0.72 -0.72,-0.72 -0.72,-1.44 -2.28,-0.84 -2.28,-3 -3.7188,-5.28 0,0 0,0 0,0 z m 6.7188,-57.7152 2.28,2.9988 3,7.44 c 0,0 0,0 0.72,0.84 l 0.72,2.9988 c -4.44,2.16 -8.16,6 -11.1588,10.44 -0.84,0.72 -0.84,1.56 -1.56,2.28 0,0 0,0 0,0 0,0 0,0 -0.72,-0.72 l -8.9988,-3 c 0,0 0,0 -0.72,-0.84 l 0.72,-1.44 c 0,0 0,0 0,0 0.7188,-2.28 0.7188,-3 2.2788,-4.56 0,0 0,0 0,0 1.44,-0.72 3.72,-0.72 4.44,-3 0.72,-2.1588 1.56,-3.7188 3,-5.1588 0.72,-1.56 0,-2.28 0.72,-3 2.2788,-0.84 3.8388,-2.28 5.2788,-4.5588 0,0 0,0 0,-0.72 z m 41.9964,2.2788 1.44,0.72 0.84,0.72 c 0.72,0 0.72,0 1.44,0 v -0.72 c 0.72,0.72 2.28,1.44 3.72,2.28 0,0 0,0 0,0 l 3,1.44 c 0,0 0.72,0.72 1.56,0.72 2.16,2.28 2.16,7.5588 4.4388,9.8388 1.56,2.16 2.28,3.72 3.72,5.16 -1.44,1.56 -3.72,2.28 -5.9988,3.84 0,0 0,0 0,0 l -5.16,2.16 c -0.84,-1.44 -1.56,-2.16 -2.28,-3.72 -1.56,-1.44 -3,-3.72 -4.44,-5.28 -1.56,-1.44 -3.8388,-3 -5.2788,-4.44 -0.72,0 -1.56,0 -1.56,-0.72 v -2.2788 l 4.5588,-9.72"
           id="path2850"
           style="fill:none;fill-opacity:1;fill-rule:evenodd;stroke:#000000;stroke-opacity:1" />
        <path
           d="m 135.51,542.6256 c 1.4388,0 2.9988,0.84 4.4388,0.84 2.28,0 4.56,0 6,0.72 2.2788,0 3.7188,0.72 5.9988,0.72 19.4388,1.56 39.7176,2.28 59.1552,-1.44 0,0 0.84,0.72 0.84,0.72 l -1.56,1.44 -5.9988,9.8388 c 0,0 0,0 0,0 l -3,5.1588 -3.72,-2.9988 2.28,-3.72 2.16,-3.72 c 0,0 0,-0.72 0,-0.72 0,0 0,0 0,0 -5.16,0 -10.4388,0.72 -14.8788,0.72 -1.56,0 -3,0 -3.84,0 -3.72,0.72 -6.72,0 -9.7188,0 -9.7188,0.72 -19.4388,-0.72 -29.1576,-0.72 -0.84,0.72 0,1.44 0,1.44 l 5.1588,7.56 c -0.72,0.72 -1.44,1.4388 -1.44,2.9988 l -3.7188,-2.9988 -10.5588,-13.5588 v -1.44 l 1.56,-0.84 c 0,0 0,0 0,0"
           id="path2852"
           style="fill:none;fill-opacity:1;fill-rule:evenodd;stroke:#000000;stroke-opacity:1" />
        <path
           d="m 184.2252,553.1844 1.44,0.72 c -0.72,0.72 -2.28,1.56 -3,3 -0.72,0.72 -1.44,1.56 -3,1.56 0,0.72 -0.72,0.72 -1.44,0.72 0,0 0,0.7188 -0.84,0.7188 h -0.72 c 2.28,-1.4388 4.56,-3.7188 6.72,-5.9988 0,0 0.84,-0.72 0.84,-0.72"
           id="path2892"
           style="fill:none;fill-opacity:1;fill-rule:evenodd;stroke:#000000;stroke-opacity:1" />
        <path
           d="m 164.6676,553.9044 c 1.5588,1.56 3.7188,3.72 5.9988,5.28 0,0 -0.72,0 -0.72,0.7188 h -0.72 c -2.28,-1.4388 -4.5588,-2.9988 -5.9988,-5.9988"
           id="path2896"
           style="fill:none;fill-opacity:1;fill-rule:evenodd;stroke:#000000;stroke-opacity:1" />
        <path
           d="m 179.6652,554.6244 c 0,0 0,0 0,0 0,0 0,0 0,0 0,0 0,0 0,0"
           id="path2902"
           style="fill:none;fill-opacity:1;fill-rule:evenodd;stroke:#000000;stroke-opacity:1" />
        <path
           d="m 157.9476,556.1844 c 1.56,0 3,1.44 6,0.72 0,0 0,0 0,0.72 0,0 0,0 0,0 2.2788,0.84 2.9988,2.9988 5.2788,2.9988 0.72,0 0,0.84 0,0.84 h -0.84 c -0.72,0 -0.72,-0.84 -0.72,-0.84 -0.72,0.84 -0.72,0.84 -0.72,0.84 h -0.72 c 0,-0.84 0,-0.84 0,-1.56 -0.72,0 -0.72,0 -0.72,0 0,0 0,0 0,0 0,0 0,0 0,0.72 -0.8388,0 -0.8388,0 -0.8388,0 h -5.16 c -0.84,-0.72 -1.56,0 -2.28,0 l -0.72,0.84 c 0.72,0 0.72,0 1.44,0 l -3,0.72 c 0,0 0,0 0,0 3,0.72 6,-0.72 8.28,0 0,0 0,0 0,0 0,0 0,0.72 0,0.72 0.72,0 0.72,-0.72 1.44,-0.72 v 0 c 0,0 0.8388,0 0.8388,0 l -0.8388,0.72 c 0,0.72 0.8388,0 0.8388,0.72 0.72,0 0.72,0 0.72,0 0,0 0,0 0.72,0 l 1.44,-0.72 c 0,0 0,0 0,0 0.84,0 0.84,0 0.84,0 0,0 0,0 0,0.72 -0.84,0 -1.56,0 -2.28,0 -2.2788,1.56 -4.4388,3.84 -7.4388,3 -0.84,0 -0.84,0 -0.84,0 -1.44,0.84 -3,2.28 -4.44,1.56 -0.72,-2.28 -2.28,-3.72 -4.56,-4.56 0,-0.72 0,-0.72 -0.72,-0.72 0,-0.72 0,-0.72 0.72,-1.44 0,0 0,0 -0.72,0 l 0.72,-0.84 0.84,-1.4388 c 0,0 0,0 0.72,0 v 0 c 0,0 0,-0.72 0.72,-0.72 h 2.28"
           id="path2912"
           style="fill:none;fill-opacity:1;fill-rule:evenodd;stroke:#000000;stroke-opacity:1" />
        <path
           d="m 170.6664,556.9044 c 0,0 0,0 0,0 0,0 0,0 0,0 0,0 0,0 0,0 0,0 0,0 0,0"
           id="path2918"
           style="fill:none;fill-opacity:1;fill-rule:evenodd;stroke:#000000;stroke-opacity:1" />
        <path
           d="m 189.3852,556.9044 c 2.28,0 3.8388,0.72 5.2788,0.72 2.28,0.84 3,1.56 4.44,2.2788 l 1.56,1.56 -3.72,1.44 c 0,0 -0.72,0 -0.72,0 -1.56,0.72 -2.28,1.56 -3,1.56 -3.8388,0.72 -7.5588,0.72 -10.5588,-0.84 h -0.72 c 0,0 0,0 -0.72,0 l -2.28,-1.44 c 2.28,-0.72 4.44,0.72 6.72,0.72 0.72,0.72 0.72,0.72 1.56,0.72 0,0 0,-0.72 0,-0.72 -0.84,0 -0.84,0 -0.84,0 l -1.44,-0.72 c 0,0 0,0 0,0 l 7.44,-0.72 c 0,0 0,0 0,0 h -14.16 c 0,0 0,-0.84 0,-0.84 2.16,0 3.72,-1.4388 5.16,-2.1588 2.28,-0.84 3.84,-1.56 6,-0.84 0,0 0,-0.72 0,-0.72"
           id="path2920"
           style="fill:none;fill-opacity:1;fill-rule:evenodd;stroke:#000000;stroke-opacity:1" />
        <path
           d="m 173.6664,559.1844 c 0,0.7188 0,0.7188 0,0.7188 0.72,0 0,0 0,0 0,0 0,0.72 0,0.72 0,0 0,0 0,0 h 1.56 v 3 c 0,0 -0.84,0 -0.84,0 0,0 0.84,0.84 0,1.56 0,0 -0.72,0 -0.72,0.72 -0.72,0 0,0 0,0.72 l -0.72,-0.72 c -0.72,-1.44 -0.72,-3.72 0,-5.28 l 0.72,-0.72 c 0,0 0,-0.7188 0,-0.7188"
           id="path2924"
           style="fill:none;fill-opacity:1;fill-rule:evenodd;stroke:#000000;stroke-opacity:1" />
        <path
           d="m 161.6676,559.9032 c 0,0 0,0 0.84,0 -0.84,0 -0.84,0 -0.84,0 0,0 0,-0.7188 0,0"
           id="path2926"
           style="fill:none;fill-opacity:1;fill-rule:evenodd;stroke:#000000;stroke-opacity:1" />
        <path
           d="m 160.2276,559.9032 c 0,0 0,0 0,0 0,0 0.72,0.72 0,0.72 0,0 0,0 0,0 0,0 -0.72,-0.72 0,-0.72"
           id="path2928"
           style="fill:none;fill-opacity:1;fill-rule:evenodd;stroke:#000000;stroke-opacity:1" />
        <path
           d="m 163.9476,559.9032 c 0,0 0.72,0 0.72,0 0,0 0,0 -0.72,0"
           id="path2930"
           style="fill:none;fill-opacity:1;fill-rule:evenodd;stroke:#000000;stroke-opacity:1" />
        <path
           d="m 176.6652,560.6232 v 0 c 0,0.84 0,0 0.72,0.84 -0.72,0 -0.72,0 -0.72,0 v 2.16 c 0,0 0,0.84 0,1.56 0,0 -0.7188,0 -0.7188,0 v -4.56"
           id="path2932"
           style="fill:none;fill-opacity:1;fill-rule:evenodd;stroke:#000000;stroke-opacity:1" />
        <path
           d="m 155.6676,561.4632 c 0,0 0,-0.84 0.84,0 0,0 -0.84,0 -0.84,0 0,0 0,0 -0.72,0 0,0 0.72,0 0.72,0"
           id="path2934"
           style="fill:none;fill-opacity:1;fill-rule:evenodd;stroke:#000000;stroke-opacity:1" />
        <path
           d="m 170.6664,560.6232 0.72,0.84 c 0,0 0,0 0,0.72 v 3 c -0.72,0 -0.72,0 -0.72,0 v -4.56"
           id="path2936"
           style="fill:none;fill-opacity:1;fill-rule:evenodd;stroke:#000000;stroke-opacity:1" />
        <path
           d="m 143.6688,562.1832 v 2.28 h -3 l -0.72,-1.56 0.72,-0.72 h 2.28 c 0,0 0,0 0,0 0.72,0 0.72,-0.72 0.72,0"
           id="path2938"
           style="fill:none;fill-opacity:1;fill-rule:evenodd;stroke:#000000;stroke-opacity:1" />
        <path
           d="m 192.3852,561.4632 h 2.2788 -2.2788 c 0,0 0,0 0,0"
           id="path2940"
           style="fill:none;fill-opacity:1;fill-rule:evenodd;stroke:#000000;stroke-opacity:1" />
        <path
           d="m 204.384,561.4632 0.72,0.72 c 0.84,0 1.56,0.72 0.84,2.28 v 0 c -0.84,0 -1.56,0 -2.28,0.72 0,-0.72 -0.72,-0.72 -0.72,-1.56 0,0 0,-0.72 0,-0.72 0,-0.72 0.72,-1.44 1.44,-1.44"
           id="path2942"
           style="fill:none;fill-opacity:1;fill-rule:evenodd;stroke:#000000;stroke-opacity:1" />
        <path
           d="m 145.2288,562.1832 h 0.72 v 0.72 c 0,0.72 0,0.72 0.72,0.72 0,0 0,0 0,-0.72 v 0 c 0,-0.72 0.84,0 0.84,0 0,0 -0.84,0.72 -0.84,0.72 l -1.44,0.84 c -0.72,0 -0.72,0 -0.72,0 l 0.72,-2.28 c 0,0 0,0 0,0"
           id="path2944"
           style="fill:none;fill-opacity:1;fill-rule:evenodd;stroke:#000000;stroke-opacity:1" />
        <path
           d="m 200.664,562.9032 c 0,0 0,0 0.72,0 l 0.72,2.28 -3,-0.72 h -0.72 c 0,-0.84 0.72,-0.84 0.72,-0.84 v -0.72"
           id="path2948"
           style="fill:none;fill-opacity:1;fill-rule:evenodd;stroke:#000000;stroke-opacity:1" />
        <path
           d="m 178.9452,563.6232 c 2.28,2.28 8.28,1.56 10.44,4.56 1.56,0.72 2.28,2.16 3,3 1.5588,1.44 2.2788,3 2.9988,5.16 0,0 -0.72,0 -0.72,0 0,0 0,0 -0.72,0 l -3.7188,-1.44 c 0,0 0,0 0,0 -5.28,0 -9,-3.72 -10.56,-7.44 0,0 0,0 0,0 l 6,3.72 c -0.72,-1.56 -2.28,-2.28 -3,-3 l 4.56,3 c 0,0 0,0 0,0 l -0.84,-0.84 h -0.72 l 3.72,1.56 c 0,0 0,0 0,0 v -0.72 l -0.72,-0.84 c 0,0 0,0 0,0 l -3,-1.44 c 0,0 0,0 0,-0.72 -1.44,0 -2.28,-1.56 -4.44,-2.28 0,-0.72 -0.84,-0.72 -1.56,-1.44 -0.72,0 -0.72,-0.84 -0.72,-0.84"
           id="path2950"
           style="fill:none;fill-opacity:1;fill-rule:evenodd;stroke:#000000;stroke-opacity:1" />
        <path
           d="m 148.9476,564.4632 c 0,0 0.72,0 0.72,0 0,0.72 0,0.72 0,0.72 0,0 0.84,0 1.56,0 0,0 -0.72,0.72 -0.72,0.72 l -0.84,-0.72 -2.1588,1.44 c 0,0 0.7188,0.84 0.7188,0 h 0.72 c 0,0 0,0 0,0 l 3,-0.72 c 0,0.72 0,0.72 0,0.72 l -2.28,1.56 c 0,0 0,0 0,0 0,0 0,0 0,0 -0.72,0 -0.72,0 -0.72,0 l -0.72,0.72 c -0.7188,0 -1.5588,0.72 -2.2788,0.72 -0.72,0 -0.72,0.72 -0.72,0.72 -0.72,0 -0.72,0 -0.72,0 0,0 0,0.84 0,0.84 l 2.16,-0.84 -0.72,0.84 c 0,0 0,0 0,0.72 0,0 -0.72,0 -0.72,0 0,0 0,0 0,0 h -1.56 c 0,0.72 0,0.72 -0.72,1.44 0,0 -0.72,0 0,0.84 l 3.72,-2.28 c 0,0 0,0 0,0 l -3,3 5.2788,-3 0.72,-1.56 c 0,0 0.84,0 0.84,0 v 0.84 c 0,0 0,0.72 0,0.72 l 2.16,-2.28 c -0.72,0.72 -0.72,0.72 -0.72,0.72 0,0 0,0 0,0 l 1.56,-0.72 c 0,0.72 -0.84,0.72 -0.84,0.72 l -0.72,0.84 c 0,0 0,0 -0.72,0 0,0 -0.72,0.72 -0.72,0.72 0,0 0,0.72 0,0.72 l 0.72,-0.72 c 0,0 0,0 0,0.72 0,0 0,0 0,0 0.72,0 0.72,-0.72 0.72,-0.72 l 0.72,-0.72 -2.16,5.16 -2.28,2.2788 h -2.2788 l -1.44,-0.72 v -1.5588 c -0.84,0 -0.84,0.8388 -1.56,1.5588 h -3.72 l -0.72,-0.72 c 0,0 0,0 0,-0.8388 0,0 -0.84,0 -0.84,0 v -2.16 l 2.28,-1.56 c 0,0 0,-1.44 0.72,-1.44 0,-1.56 0,-2.28 0,-3 0.84,-1.56 2.28,-1.56 3.84,-1.56 0,0 0,0 0.72,0 l 2.9988,-1.44 c 0,0 0,-0.72 0,-0.72 0,0 0,0 0.72,0"
           id="path2952"
           style="fill:none;fill-opacity:1;fill-rule:evenodd;stroke:#000000;stroke-opacity:1" />
        <path
           d="m 169.2264,564.4632 c 0,0 0,0 0,0 0,0.72 -0.84,0.72 -0.84,1.44 -0.72,-0.72 -1.44,0 -2.16,0.72 l -2.2788,0.84 c 0,0 0,0 0,0 0.72,0 0.72,0 0.72,0 l -1.44,0.72 -0.72,0.72 c 0,0 0,0.72 0,0.72 l 1.44,-0.72 -2.28,0.72 c 0,0 0,0.72 0,0.72 h -1.44 c 0.72,0 1.44,0 1.44,-0.72 0,0 0,-0.72 0,-0.72 l -1.44,0.72 c -0.72,0.72 0,0.72 0,1.56 -0.72,0 -0.72,0 -0.72,0 0,0 0,0 0,0.72 l 1.44,-0.72 c 0.72,0 0,0 0.72,0.72 0,0 0.84,0 0.84,0 l 1.44,-0.72 c 0.72,0 0.72,-0.84 1.5588,-0.84 h 0.72 c 0,0.84 0.72,-0.72 1.44,-0.72 0,-0.72 0.72,-0.72 0.72,-0.72 0,-0.72 0,-0.72 0,-0.72 0.84,-0.72 1.56,-0.72 1.56,-1.56 0,0 -0.72,0 -0.72,0 0,0 0,0 0,0 l 0.72,-0.72 c 0,0 0.72,0 0.72,0.72 l -3,6.72 c -0.72,0 -0.72,0.84 -1.44,0.84 -0.72,0.72 -1.5588,0.72 -1.5588,2.16 0,0 -0.72,0 -1.44,0.8388 -0.72,0 -1.56,-0.8388 -2.28,-1.5588 -2.28,-2.28 -5.28,0.72 -7.44,-0.72 0,-0.72 0,-0.72 0,-0.72 v -0.84 c 0,0 0,0 0,-0.72 0,-0.72 0.72,-1.44 0.72,-2.28 0.72,0 1.44,-0.72 1.44,-0.72 1.56,-0.72 2.28,-1.44 3.84,-2.16 h 3.72 c 1.44,-0.84 2.9988,-1.56 5.1588,-2.28"
           id="path2954"
           style="fill:none;fill-opacity:1;fill-rule:evenodd;stroke:#000000;stroke-opacity:1" />
        <path
           d="m 207.384,564.4632 c 1.56,0.72 2.28,0.72 3.7188,0.72 3,1.44 3.84,3 6,5.16 l 1.56,1.56 c -2.28,0.72 -3.72,0 -6,0 -2.9988,-0.72 -5.2788,-2.28 -6.7188,-4.44 h 1.44 l 5.9988,2.16 c 0.72,0 0,-0.72 0,-0.72 -2.28,0 -3.7188,-1.44 -5.2788,-1.44 -0.72,0 -1.44,-0.84 -2.16,-0.84"
           id="path2956"
           style="fill:none;fill-opacity:1;fill-rule:evenodd;stroke:#000000;stroke-opacity:1" />
        <path
           d="m 148.2276,565.9032 c 0,0 -0.7188,0 -0.7188,0"
           id="path2958"
           style="fill:none;fill-opacity:1;fill-rule:evenodd;stroke:#000000;stroke-opacity:1" />
        <path
           d="m 178.9452,565.9032 2.28,0.72 -2.28,-0.72 c 0,0 0,0 0,0"
           id="path2960"
           style="fill:none;fill-opacity:1;fill-rule:evenodd;stroke:#000000;stroke-opacity:1" />
        <path
           d="m 181.9452,565.1832 5.28,3 -3.84,-1.56 -0.72,-0.72 c 0,0 -0.72,-0.72 -0.72,-0.72"
           id="path2962"
           style="fill:none;fill-opacity:1;fill-rule:evenodd;stroke:#000000;stroke-opacity:1" />
        <path
           d="m 193.224,565.1832 c 1.44,0 2.16,0.72 3.72,0.72 0.72,0.72 0.72,0.72 1.44,0.72 l 1.56,0.84 c 0,0 0,0 0,0 l -3,-1.56 2.16,0.72 c 0,0 0,-0.72 0,-0.72 h -0.72 c 0.72,-0.72 1.56,0 3,0 0.72,0.72 2.28,1.56 3.72,2.28 0.84,0.72 1.56,0.72 2.28,2.16 0.72,1.56 2.28,3 2.28,5.28 -1.56,0 -3.72,-0.72 -6,-0.72 -3.72,-0.72 -6.72,-3 -9.72,-5.28 l 2.28,1.56 c 0.72,0 0.72,0 0.72,0 l -1.56,-1.56 1.56,1.56 c 0,0 0,0 0,-0.84 l -0.72,-0.72 3.72,1.56 c 0,0 0.72,0.72 1.44,0.72 v 0 c 0.72,0 0.72,0 0.72,0 -0.72,-0.72 -2.16,-0.72 -3,-2.28 -2.16,0 -2.88,-1.44 -5.16,-2.16 0,0 0,0 0,0.72 l -2.9988,-0.72 -0.72,-0.84 3.7188,0.84 c 0,0 0,0 0,0 1.44,0 2.28,0.72 3,0.72 1.44,0.72 3,1.44 4.44,2.16 0,0 0,0 0.72,0 l 3,1.56 c 0,0 0.84,0 0.84,0 -0.84,-0.72 -1.56,-0.72 -2.28,-1.56 -0.72,-0.72 -2.28,-0.72 -3,-1.44 -1.56,0 -2.28,-0.72 -3.72,-1.44 0.72,0 0.72,0 1.44,0 l -3,-1.56 c 0,0 0,0.72 0,0.72 l -2.9988,-0.72 c 0,0 0,-0.72 0.8388,-0.72"
           id="path2964"
           style="fill:none;fill-opacity:1;fill-rule:evenodd;stroke:#000000;stroke-opacity:1" />
        <path
           d="m 167.6664,565.9032 -1.44,1.56 c 0,0 0,-0.84 0.72,-0.84 0,0 0.72,0 0.72,-0.72 0,0 0,0 0,0"
           id="path2968"
           style="fill:none;fill-opacity:1;fill-rule:evenodd;stroke:#000000;stroke-opacity:1" />
        <path
           d="m 151.9476,566.6232 v 0.84 c -0.72,0 -0.72,0.72 -0.72,0.72 0,-0.72 0,-0.72 0,-0.72 0.72,0 0,0 0.72,-0.84"
           id="path2970"
           style="fill:none;fill-opacity:1;fill-rule:evenodd;stroke:#000000;stroke-opacity:1" />
        <path
           d="m 181.9452,567.4632 c 0,0 0,0 0,0"
           id="path2972"
           style="fill:none;fill-opacity:1;fill-rule:evenodd;stroke:#000000;stroke-opacity:1" />
        <path
           d="m 166.9464,568.1832 c 0,0 -0.72,0 -0.72,0 l -0.72,0.72 c 0,0 -0.8388,0 -0.8388,0.72 0,0 0,0 0,0 l -1.44,0.72 c -0.72,0 0,0 0,0"
           id="path2974"
           style="fill:none;fill-opacity:1;fill-rule:evenodd;stroke:#000000;stroke-opacity:1" />
        <path
           d="m 195.384,568.9032 c 0,0 0,0 0,0 0,0 0,0 0,0"
           id="path2976"
           style="fill:none;fill-opacity:1;fill-rule:evenodd;stroke:#000000;stroke-opacity:1" />
        <path
           d="m 184.2252,568.9032 c 0.72,0 0.72,0 0.72,0.72"
           id="path2978"
           style="fill:none;fill-opacity:1;fill-rule:evenodd;stroke:#000000;stroke-opacity:1" />
        <path
           d="m 151.2276,569.6232 c 0,0 0,0 0,0 0,0.72 0,0.72 0,0.72 0,-0.72 0,-0.72 0,-0.72"
           id="path2980"
           style="fill:none;fill-opacity:1;fill-rule:evenodd;stroke:#000000;stroke-opacity:1" />
        <path
           d="m 149.6676,569.6232 c 0,0 0,0.72 0,0.72"
           id="path2982"
           style="fill:none;fill-opacity:1;fill-rule:evenodd;stroke:#000000;stroke-opacity:1" />
        <path
           d="m 133.95,570.3432 h 2.28 c 0.7188,0.84 -0.72,0.84 -0.72,1.56 0,0 0,0 0,0 l 2.1588,-1.56 h 2.28 c 0,0 0,0.84 -0.72,0.84 -0.72,0.72 -1.56,1.44 -2.28,1.44 -1.4388,0.72 -2.2788,2.28 -4.4388,2.28 0,0 -0.72,0.72 -0.72,1.44 -1.56,0 -2.28,0.8388 -3,0.8388 h -0.84 l -0.72,0.72 c 0,0 0,0 0.72,0 0.84,0 1.56,0 2.28,-0.72 0,0 -0.72,0 -0.72,0.72 0,0 0,0 0,0 0.72,0 0.72,0 0.72,0 0,0 -0.72,0.72 -1.44,1.44 -0.84,0.84 -3,0.84 -3.84,2.28 0,0 0,0 0,0.72 l 3,-1.44 c 0,0 0,0.72 0.84,0.72 l 2.16,-1.44 c -0.72,1.44 -3,2.16 -2.16,3.72 0,0.72 0.72,0.72 0,1.44 h -0.84 c -0.72,-1.44 -3,-1.44 -4.44,-1.44 -0.72,0 -0.72,-0.72 -0.72,-1.56 2.16,-2.16 1.44,-4.44 3,-6.7188 0.72,-0.72 3,-0.72 3,-1.44 0.72,0 0.72,0 0.72,0 h 0.72 c 0,0 0,-0.84 0,-0.84 0,0 0,0 -0.72,0 l 1.44,-3"
           id="path2984"
           style="fill:none;fill-opacity:1;fill-rule:evenodd;stroke:#000000;stroke-opacity:1" />
        <path
           d="m 214.1028,569.6232 h 0.84 c 0,0 -0.84,0 -0.84,0 0,0 0,0 0,0"
           id="path2986"
           style="fill:none;fill-opacity:1;fill-rule:evenodd;stroke:#000000;stroke-opacity:1" />
        <path
           d="m 148.2276,571.1832 c 0,0 0,0 0,0 0,0 0,0 -0.7188,0.72 0,0 0,-0.72 0,-0.72 h 0.7188"
           id="path2988"
           style="fill:none;fill-opacity:1;fill-rule:evenodd;stroke:#000000;stroke-opacity:1" />
        <path
           d="m 157.9476,571.1832 v 0.72 l -1.44,0.72 c 0,0 0,0 0,0 0,0.72 -0.84,0.72 -0.84,0 l 0.84,-0.72 h 0.72 c 0,0 0,-0.72 0,-0.72"
           id="path2990"
           style="fill:none;fill-opacity:1;fill-rule:evenodd;stroke:#000000;stroke-opacity:1" />
        <path
           d="m 166.9464,571.1832 v 0 c -0.72,1.44 -2.2788,2.16 -3.7188,2.16 0.72,0 0.72,0 1.44,-0.72"
           id="path2992"
           style="fill:none;fill-opacity:1;fill-rule:evenodd;stroke:#000000;stroke-opacity:1" />
        <path
           d="m 186.3852,571.1832 c 0,0 0,0.72 0.84,0.72 0,0 0,0 0,0 l 1.44,1.44 c -0.72,0 -1.44,-0.72 -2.28,-0.72 0,-0.72 -0.72,-1.44 0,-1.44"
           id="path2998"
           style="fill:none;fill-opacity:1;fill-rule:evenodd;stroke:#000000;stroke-opacity:1" />
        <path
           d="m 133.95,571.9032 h 0.72 c 0,0 0,0 0,0 0,0.72 0,0.72 0,0 l -1.44,0.72 c 0,-0.72 0.72,-0.72 0.72,-0.72"
           id="path3000"
           style="fill:none;fill-opacity:1;fill-rule:evenodd;stroke:#000000;stroke-opacity:1" />
        <path
           d="m 131.79,572.6232 c 0,0 0.72,0 0.72,0 h -0.72 c -0.84,0 0,0 0,0"
           id="path3006"
           style="fill:none;fill-opacity:1;fill-rule:evenodd;stroke:#000000;stroke-opacity:1" />
        <path
           d="m 212.6628,572.6232 h 0.72 c 0,0 0.72,0 0.72,0 0,0 0,0.72 0,0.72 l -0.72,-0.72 h -0.72"
           id="path3008"
           style="fill:none;fill-opacity:1;fill-rule:evenodd;stroke:#000000;stroke-opacity:1" />
        <path
           d="m 159.5076,573.3432 v 0 c 0,0 0,0 0,0 0,0 0,0 0,-0.72"
           id="path3010"
           style="fill:none;fill-opacity:1;fill-rule:evenodd;stroke:#000000;stroke-opacity:1" />
        <path
           d="m 214.1028,572.6232 c 0.84,0 1.56,0 2.28,0.72 0,0 0,-0.72 0,-0.72 0.72,0 0.72,0 0.72,0 l 1.56,0.72 c 0,0 0,0.84 0,0.84 2.9988,0.72 5.2788,2.9988 6.7188,5.9988 2.28,2.16 3,5.16 3.72,7.44 0,0.7188 -0.72,0 -1.44,0 0,0 0,0 0,0 -2.28,0 -4.56,-1.44 -6.7188,-2.28 -1.56,-0.72 -3,-1.44 -3.84,-2.16 0,0 -0.72,0 -0.72,-0.84 0,0 0,0 0,-0.72 h -0.72 c 0,0 0,0 -0.72,-0.72 0,0 0,0 0,0 l -1.56,-2.28 c 0,0 0,0 0,0 l -0.72,-2.2788 -0.72,-0.72 3.72,2.9988 3,3 c 0.72,0 0,-0.72 0,-0.72 0,0 0,0 0,-0.72 v 0 l -0.72,-0.84 -0.84,-1.44 c 0,0.72 0,0 0,0.72 l -1.44,-1.44 -3.72,-2.2788 1.44,0.72 1.56,0.72 c 0,0 0,0 0,0.8388 0.72,0 0.72,0 0.72,0 0,0 0,0 0.72,0 -0.72,0 -0.72,0 -0.72,0 0,0 0,0 0,0 0,0 0,0 0,0 l 1.44,0.72 c 0,0.72 0,0 0,0 0,0 0.84,0 0.84,0 v -0.72 l -3,-2.2788 c 0,0 0,0 0,0 0,0 0,-0.72 0,-0.72 l 3,1.44 1.44,1.5588 0.72,-0.8388 c 0,-0.72 -0.72,-0.72 -1.44,-0.72 0,0 0,-0.72 0,-0.72 l -2.28,-1.56 c -0.72,0 -0.72,0 0,0 l -2.28,-0.72"
           id="path3016"
           style="fill:none;fill-opacity:1;fill-rule:evenodd;stroke:#000000;stroke-opacity:1" />
        <path
           d="m 136.9488,573.3432 -0.7188,1.56 c 0,0 0,0 0,0 h -0.72 l 1.4388,-1.56"
           id="path3018"
           style="fill:none;fill-opacity:1;fill-rule:evenodd;stroke:#000000;stroke-opacity:1" />
        <path
           d="m 215.6628,572.6232 c 0,0 0,0 0,0.72 0,0 0,-0.72 -0.72,-0.72"
           id="path3022"
           style="fill:none;fill-opacity:1;fill-rule:evenodd;stroke:#000000;stroke-opacity:1" />
        <path
           d="m 217.1028,573.3432 3,2.28 -3.72,-2.28 c 0,0 0.72,0 0.72,0"
           id="path3024"
           style="fill:none;fill-opacity:1;fill-rule:evenodd;stroke:#000000;stroke-opacity:1" />
        <path
           d="m 189.3852,573.3432 0.84,0.84 h -0.84"
           id="path3026"
           style="fill:none;fill-opacity:1;fill-rule:evenodd;stroke:#000000;stroke-opacity:1" />
        <path
           d="m 196.224,574.1832 0.72,0.72 2.16,1.44 0.84,0.8388 c 0,0 0,-0.8388 0,-0.8388 v 0 l 3,2.2788 c 0,0 0.72,0 0.72,-0.72 0,0 -0.72,0 -0.72,-0.72 0,0 0,0 0,0 l -3,-2.2788 c 0,-0.72 0.72,0 0.72,0 0.72,0 0.72,0.72 0.72,0.72 0.72,0 0,-0.72 0,-0.72 l 3,0.72 c 1.56,1.5588 2.28,4.5588 2.28,6.7188 l -5.28,-3 c -1.44,-0.72 -2.28,-1.44 -3.72,-2.9988 -0.72,-0.72 -0.72,-1.44 -1.44,-2.16"
           id="path3030"
           style="fill:none;fill-opacity:1;fill-rule:evenodd;stroke:#000000;stroke-opacity:1" />
        <path
           d="m 198.384,574.1832 c 0,0 0.72,0 0.72,0.72"
           id="path3034"
           style="fill:none;fill-opacity:1;fill-rule:evenodd;stroke:#000000;stroke-opacity:1" />
        <path
           d="m 199.104,574.9032 0.84,0.72 -0.84,-0.72"
           id="path3040"
           style="fill:none;fill-opacity:1;fill-rule:evenodd;stroke:#000000;stroke-opacity:1" />
        <path
           d="m 215.6628,574.9032 v 0"
           id="path3042"
           style="fill:none;fill-opacity:1;fill-rule:evenodd;stroke:#000000;stroke-opacity:1" />
        <path
           d="m 157.9476,575.6232 1.56,2.9988 1.44,3 2.28,5.28 -3,1.4388 -6,-12.7176 c 0,0 0.72,0.72 0.72,0.72 0,0 0.72,0 0.72,-0.72 h 2.28"
           id="path3044"
           style="fill:none;fill-opacity:1;fill-rule:evenodd;stroke:#000000;stroke-opacity:1" />
        <path
           d="m 135.51,576.3432 c 0,0 0.72,0 1.4388,0 v 1.5588 l -2.2788,2.28 c 0,0 0,0 0.84,0 0,0 0,0 0,0 0,0 0.72,0 0.72,0 0,0 0,-0.84 0.7188,-0.84 l 0.72,-0.72 c 0,0 0,0 0,0 0,0 0,0 0,-0.72 0,0 0.84,0.72 0.84,0.72 h 1.44 c -1.44,1.56 -3.7188,3.72 -5.2788,5.28 0,0 0,0.72 0,0.72 0,0 0.84,0 1.56,0 0,0 0,0 0,0 0,-0.72 0,-0.72 0,-0.72 0,0 0,0 0,0 v -0.72 h 0.7188 c 0,-0.84 0.72,-0.84 0.72,-0.84 l 0.84,-0.72 -1.56,2.28 c 0,0 0,0 0,0 0,0.72 0.72,0 0.72,0 0,0 0,-0.72 0,-0.72 l 1.56,-1.56 1.44,-1.44 c -0.72,2.16 -2.16,3 -3.72,4.44 -0.7188,0.72 -2.2788,1.56 -2.9988,2.28 h -0.72 c 0,0.72 0,0.72 0,0.72 v 1.5588 c 0,0 0,0 0,0 l 2.28,-2.9988 2.1588,-1.56 c -0.72,0.72 -1.4388,1.56 -1.4388,2.28 l -0.72,0.72 c 0,0 0,0 0,0 2.1588,-1.44 4.4388,-3 5.9988,-5.28 -0.84,0 -0.84,0 -0.84,0 l 0.84,-0.72 c 0,0 0,0 0,0 0,0 0,0 0,0 0.72,0.72 0.72,0 0.72,0 0.72,-0.72 1.44,-1.44 2.28,-2.28 0.72,0 0.72,0 1.44,0.84 l -0.72,2.16 c -0.72,1.56 -3,3 -3,5.28 0,0.7188 -0.72,1.5588 -2.28,2.2788 -0.72,0 -2.28,0 -3,0.72 0,0.72 -0.7188,1.56 -0.7188,2.28 h -1.56 c 0,0.72 0,0.72 -0.72,0.72 h -3 c -0.72,-0.72 -0.72,-2.28 -0.72,-3.72 0.72,-2.2788 -0.72,-5.2788 -0.72,-6.7188 1.44,-1.56 3,-3 3.72,-4.56 l 0.72,-1.44"
           id="path3046"
           style="fill:none;fill-opacity:1;fill-rule:evenodd;stroke:#000000;stroke-opacity:1" />
        <path
           d="m 188.6652,575.6232 3.72,1.5588 v 1.44 l -4.44,9.7188 c 0,0 -0.72,0 -0.72,0 l -3,-1.4388 4.44,-11.2788"
           id="path3050"
           style="fill:none;fill-opacity:1;fill-rule:evenodd;stroke:#000000;stroke-opacity:1" />
        <path
           d="m 216.3828,575.6232 c 0,0 0.72,0 0.72,0.72 l -0.72,-0.72"
           id="path3052"
           style="fill:none;fill-opacity:1;fill-rule:evenodd;stroke:#000000;stroke-opacity:1" />
        <path
           d="m 200.664,575.6232 0.72,0.72"
           id="path3056"
           style="fill:none;fill-opacity:1;fill-rule:evenodd;stroke:#000000;stroke-opacity:1" />
        <path
           d="m 131.79,577.182 h -0.84 c 0,0 0.84,0 0.84,0"
           id="path3058"
           style="fill:none;fill-opacity:1;fill-rule:evenodd;stroke:#000000;stroke-opacity:1" />
        <path
           d="m 208.104,576.3432 v 0 l 0.84,0.8388 c 0,0 0,0 0,0 v -0.8388 c 0,0 0.72,0.8388 0.72,0.8388 l 0.7188,1.44 c 0,0 0,0 0.72,-0.72 l -0.72,-0.72 c 0,0 0,0 0.72,0 l 2.28,3.72 c 0.72,0.72 1.56,2.28 1.56,3 1.44,4.4388 1.44,8.2788 0.72,11.9988 0,0 0,0 -0.72,0 v 0.72 c -4.56,-3.72 -6.8388,-8.28 -6.8388,-14.2788 0,-0.72 -0.72,-2.16 -0.72,-3.72 0,0 0,0 0,-0.72 l 2.28,6.72 c 0,0 0.7188,0 0.7188,0 0,0 0,-0.72 0,-0.72 v 0.72 c 0,0.72 0,0.72 0,0.72 h 0.72 l 0.84,2.9988 c 0,0 0,0 0.72,0 v 2.28 c 0,0 0.72,0 0.72,0 l -3,-8.9988 c 0,0 0,0 0,0 l -1.4388,-3 0.72,0.72 c 0,0.84 0,0.84 0.7188,0.84 v 0 l -2.9988,-3.8388 c 0,0 0,0 0.72,0"
           id="path3068"
           style="fill:none;fill-opacity:1;fill-rule:evenodd;stroke:#000000;stroke-opacity:1" />
        <path
           d="m 132.51,577.902 -1.56,2.28 c 0,0 0,0 0,-0.84 l -1.44,0.84 c 0,0 0,0 0,-0.84 l 3,-1.44"
           id="path3070"
           style="fill:none;fill-opacity:1;fill-rule:evenodd;stroke:#000000;stroke-opacity:1" />
        <path
           d="m 101.7924,577.902 3.71952,3 c 0,0 0,0 0,0 l 8.27952,6 h 0.71952 l 8.99904,5.2788 8.28,5.16 7.4388,3 h 0.72 l 5.28,2.28 c 0,0 0.72,0 0,0.72 v 0.84 l -1.56,2.1588 -6.72,-2.1588 H 136.23 c -0.72,0 -1.56,-0.84 -2.28,-0.84 -2.16,-1.44 -4.44,-2.16 -7.44,-3.72 -1.56,-0.72 -3.72,-1.44 -5.28,-3 -0.72,0 -1.43904,-0.72 -2.27904,-0.72 -0.72,-0.72 -2.16,-1.56 -3,-2.28 -2.15952,-1.44 -3.71952,-2.28 -5.99952,-3.72 -0.72,0 -1.43952,-1.56 -2.99952,-1.56 -2.16,3.84 0.84,8.28 0,12.84 0,3.7188 0,7.4388 0.84,11.8788 -0.84,0.84 -0.84,1.56 -0.84,2.28 0.84,0.7188 0.84,0.7188 0.84,1.5588 -0.84,3.72 0,8.16 -0.84,12 0,4.4388 0,9.7188 -0.72,14.1588 0,0.8388 0,2.2788 0.72,2.9988 0,0 0,0.84 0.84,0.84 0.72,0.72 1.43952,0 2.15952,-0.84 0.84,-0.72 0.84,-0.72 1.56,-0.72 2.99952,-2.2788 5.27952,-4.4388 8.27952,-5.9988 l 2.15904,-1.44 2.28,-1.56 11.28,-5.2788 8.1588,-3.72 1.56,3.72 c -0.72,0 -1.56,0.84 -2.28,0.84 -1.44,0.72 -3,1.4388 -4.44,2.1588 -2.9988,0.84 -5.9988,2.28 -8.9988,3.84 -2.28,0.72 -3.72,2.16 -5.28,3 -1.44,0.72 -2.28,0.72 -3,2.16 -2.99904,1.5588 -5.27904,2.9988 -7.43856,4.5588 -2.28,1.44 -4.56,3.72 -5.99952,5.16 -1.56,1.56 -3,2.28 -3.84,3.84 -0.72,0 -1.43952,1.44 -2.87952,1.44 l -1.56,-0.72 2.28,-13.44 c 0.72,-1.5588 0,-3.8388 0.72,-5.2788 0,-2.28 0,-5.28 0,-7.5588 0.71952,-2.16 0.71952,-3.72 0.71952,-6 0,-0.72 0,-1.44 0,-2.16 0,-3 0,-6 0,-8.2788 -0.71952,-8.28 0,-16.4388 -1.43952,-23.9988 0,-3.7188 -0.72,-7.4388 -1.56,-11.2788 l 0.84,-0.72 c 0,0 0,0 0,0 0,0 0,-0.72 0.72,-0.72"
           id="path3076"
           style="fill:none;fill-opacity:1;fill-rule:evenodd;stroke:#000000;stroke-opacity:1" />
        <path
           d="m 209.664,577.902 1.4388,1.44 c 0,0.84 0,0.84 0,0.84"
           id="path3080"
           style="fill:none;fill-opacity:1;fill-rule:evenodd;stroke:#000000;stroke-opacity:1" />
        <path
           d="m 211.1028,578.622 0.84,0.72 c -0.84,0 -0.84,-0.72 -0.84,-0.72"
           id="path3096"
           style="fill:none;fill-opacity:1;fill-rule:evenodd;stroke:#000000;stroke-opacity:1" />
        <path
           d="m 137.6688,580.182 c -0.72,0 -0.72,0.72 -1.4388,1.44 h -0.72 l 2.1588,-1.44"
           id="path3108"
           style="fill:none;fill-opacity:1;fill-rule:evenodd;stroke:#000000;stroke-opacity:1" />
        <path
           d="m 125.79,580.182 c 0,0 0,0 0,0 0,0 0,0 0,0 0,0 0,0 0,0"
           id="path3112"
           style="fill:none;fill-opacity:1;fill-rule:evenodd;stroke:#000000;stroke-opacity:1" />
        <path
           d="m 245.6604,579.342 v 0 c 0.72,0 0.72,0.84 0.72,1.56 -0.72,2.28 0,4.44 -0.72,6.72 0,3.7188 -0.84,6.7188 -0.84,10.5588 -0.72,5.16 -0.72,10.4388 -0.72,15.7188 0,2.9988 0,5.9988 0,8.9988 0.72,6.72 0,13.4388 1.56,19.4388 0,2.9988 0,5.2788 0,7.4388 0,0 0.72,0 0.72,0 v 6 c 0,0 0,0 -0.72,0 l -0.84,-0.72 c 0,0 0,0 -0.72,0 -0.72,-0.72 -1.44,-1.44 -2.28,-2.28 -0.72,0 -1.44,-0.72 -2.16,-1.44 -1.56,-0.72 -1.56,-1.56 -2.9988,-1.56 -0.84,-1.44 -2.28,-2.16 -3.84,-2.88 -1.44,-0.84 -2.16,-1.56 -3.72,-2.28 0,0 -0.72,-0.72 -1.44,-0.72 -1.56,-1.5588 -3,-1.5588 -3.72,-2.2788 -2.28,-0.72 -2.9988,-1.56 -5.2788,-2.28 -2.28,-1.44 -4.56,-2.28 -6.72,-3.72 -2.2788,-0.72 -2.9988,-1.56 -4.5588,-2.28 -1.44,0 -2.28,-0.7188 -3.72,-1.4388 0,0 -0.72,0 -0.72,0 l 1.44,-3 c 1.56,-0.84 2.28,0 3.72,0.72 0.84,0 1.56,0 2.2788,0.72 0.72,0 1.56,0.72 2.28,0.72 l 0.72,0.84 2.28,0.72 3,1.4388 10.4388,6 4.56,2.28 c 0,0 0,0 0,0 l 6.7188,4.5588 c 0.72,0 0.72,-0.84 0.72,-1.56 0,-2.2788 -0.72,-4.4388 0,-6.7188 0,-2.28 -0.72,-3.72 -0.72,-5.9988 0,-7.56 -0.72,-15.72 0,-23.2788 0,-6.7188 0.72,-12.7188 0.72,-18.7188 0,-0.72 -0.72,-0.72 -0.72,-0.72 0,-0.72 -0.72,-0.72 -1.56,-0.72 -1.4388,0.72 -2.1588,1.44 -2.9988,2.16 -1.44,0 -2.16,0.84 -3,1.56 -2.16,0.72 -3.72,2.28 -5.16,3 l -3,2.28 -1.56,0.72 -3.7188,1.44 c 0,0 0,0.84 -0.72,0.84 l -3.72,2.16 c 0,0 0,0 0,0 l -5.2788,2.2788 -0.72,0.72 -4.56,1.56 v -0.72 c 0,0 0,0 0,-0.84 l -0.72,-1.44 5.28,-2.9988 c 0.72,0 0.72,-0.72 1.4388,-0.72 2.28,-1.56 5.28,-3 8.28,-4.56 l 4.4388,-3 c 0,0 0,0 0.84,0 2.16,-2.28 6,-3.72 8.88,-5.9988 3,-1.44 5.2788,-3.72 8.2788,-6 1.56,-0.72 3,-1.44 4.56,-2.28"
           id="path3116"
           style="fill:none;fill-opacity:1;fill-rule:evenodd;stroke:#000000;stroke-opacity:1" />
        <path
           d="m 142.9488,582.342 -1.44,2.28"
           id="path3132"
           style="fill:none;fill-opacity:1;fill-rule:evenodd;stroke:#000000;stroke-opacity:1" />
        <path
           d="m 219.3828,581.622 c 0.72,0 0.72,0 0.72,0 0,0.72 -0.72,0 -0.72,0"
           id="path3138"
           style="fill:none;fill-opacity:1;fill-rule:evenodd;stroke:#000000;stroke-opacity:1" />
        <path
           d="m 215.6628,583.182 1.44,1.44 c 0,0 0,-0.72 -0.72,-0.72 0,0 0,0 0,0 0,0 0,-0.72 -0.72,-0.72 0,0 0,0 0,0"
           id="path3144"
           style="fill:none;fill-opacity:1;fill-rule:evenodd;stroke:#000000;stroke-opacity:1" />
        <path
           d="m 142.9488,584.622 v 0 l -3,3.7188 0.72,-1.4388 c 0,-0.72 0,0 -0.72,-0.72 0.72,0 0.72,0 0.72,-0.84"
           id="path3146"
           style="fill:none;fill-opacity:1;fill-rule:evenodd;stroke:#000000;stroke-opacity:1" />
        <path
           d="m 127.95,586.182 h 0.84 l -0.84,0.72 c 0,0 0,0 0,0 v -0.72"
           id="path3154"
           style="fill:none;fill-opacity:1;fill-rule:evenodd;stroke:#000000;stroke-opacity:1" />
        <path
           d="m 129.51,586.182 c 0,0 0,0 0,0 0,0 0,0 0,0 0,0 0,0 0,0"
           id="path3156"
           style="fill:none;fill-opacity:1;fill-rule:evenodd;stroke:#000000;stroke-opacity:1" />
        <path
           d="m 217.9428,585.342 3,4.5588 0.7188,1.44 c 0,0 0,0 0.72,0 0,0 0,0 0,0 l -0.72,-0.72 -2.9988,-5.2788 4.4388,1.56 2.28,3.7188 -3,2.28 -2.2788,-3 c 0,0 0,0.72 0,0.72 l -0.72,-0.72 c 0,0 0,0 0,0 v 3 c 0.72,0.72 0.72,0.72 0.72,1.44 0,0 -0.72,0 -0.72,0 v -1.44 c 0,0 0,0 0,0 0,0 -0.72,-0.72 -0.72,-0.72 0,0 0,0 0,-0.84 -1.56,-0.72 0,-2.16 -0.72,-3 0.72,-1.4388 0,-2.1588 0,-2.9988"
           id="path3158"
           style="fill:none;fill-opacity:1;fill-rule:evenodd;stroke:#000000;stroke-opacity:1" />
        <path
           d="m 124.23,586.902 v 0 c 0,0 -0.72,0 -0.72,0.72 0,0 0.72,0 0.72,0 v -0.72 l 2.28,0.72 c -0.72,0 -0.72,0 -0.72,0 0,0 0,0.7188 0,0.7188 0,0 0,0 0,0 h 0.72 c 0,0 0,0 0.72,0 -0.72,0.84 -0.72,1.56 -1.44,1.56 -0.84,0 -0.84,0.72 -1.56,0 h -0.72 l 0.72,-2.9988"
           id="path3160"
           style="fill:none;fill-opacity:1;fill-rule:evenodd;stroke:#000000;stroke-opacity:1" />
        <path
           d="m 120.51,586.902 h 0.72 c 0,0 0,0.72 0,0.72 0,0 0.72,0.7188 0.72,0.7188 0,-0.7188 0,-0.7188 0,-1.4388 0.84,0 0,0.72 0,0.72 l 0.84,0.7188 v 0.84 h -2.28 c 0,0 -0.71904,-0.84 0,-1.5588 0,-0.72 0,-0.72 0,-0.72"
           id="path3162"
           style="fill:none;fill-opacity:1;fill-rule:evenodd;stroke:#000000;stroke-opacity:1" />
        <path
           d="m 128.79,586.902 c 0.72,0.72 0.72,0.72 0.72,0.72 -0.72,0 -0.72,0.7188 -0.72,0.7188 0,0 0,-0.7188 0,-1.4388"
           id="path3164"
           style="fill:none;fill-opacity:1;fill-rule:evenodd;stroke:#000000;stroke-opacity:1" />
        <path
           d="m 169.9464,586.902 c 3.72,0 7.4388,0 11.2788,0.72 8.16,2.2788 14.1588,6.7188 18.7188,13.5588 2.16,3 3.72,6.7188 4.44,10.4388 0,2.28 0,4.4388 0.72,6.7188 -0.72,2.28 -0.72,5.28 -1.44,6.72 -0.72,3 -2.28,5.28 -3,7.56 -1.56,2.2788 -2.28,3.7188 -3.72,5.2788 -2.28,1.44 -4.5588,3.72 -6.7188,4.44 -0.84,0.72 -1.56,1.5588 -1.56,1.5588 -2.28,0.72 -3.72,1.44 -6,2.16 -0.72,0.84 -2.28,0 -3,0.84 -3.7188,0.72 -7.4388,0.72 -11.2788,0 -1.44,0 -2.16,-0.84 -3.7188,-0.84 -3,-1.44 -5.16,-2.9988 -8.16,-4.4388 -3,-1.56 -6,-5.28 -8.28,-8.28 -0.7188,-1.4388 -1.5588,-2.9988 -2.2788,-3.7188 -2.28,-5.28 -3,-11.28 -2.28,-17.2788 0.84,-3.72 2.28,-7.44 3.84,-10.4388 l 1.4388,-2.28 3,-3.72 c 0,0 0,0 0.72,0 0.84,-1.56 2.28,-3 3.84,-3.72 0.72,-0.84 1.44,-0.84 2.16,-1.56 3,-1.44 6,-2.9988 9.7188,-3.7188"
           id="path3166"
           style="fill:none;fill-opacity:1;fill-rule:evenodd;stroke:#000000;stroke-opacity:1" />
        <path
           d="m 134.67,588.3408 v 0 l -0.72,0.84 c 0,0 0,0 0,0 0,0 0,-0.84 0.72,-0.84"
           id="path3168"
           style="fill:none;fill-opacity:1;fill-rule:evenodd;stroke:#000000;stroke-opacity:1" />
        <path
           d="m 121.23,588.3408 h 0.72 c 0.84,0 0,0 -0.72,0.84 0,0 0,-0.84 0,-0.84"
           id="path3170"
           style="fill:none;fill-opacity:1;fill-rule:evenodd;stroke:#000000;stroke-opacity:1" />
        <path
           d="m 128.79,589.1808 c 0,0.72 0,1.44 -0.84,2.16 0,0 -0.72,0.84 -0.72,0.84 0,0.72 0.72,0.72 0.72,0.72 0,0 -0.72,0.72 -0.72,0.72 0,0 -0.72,0 -0.72,0 v -0.72 c 0,0 0,0 -0.72,0 l -0.84,-0.72 c 0,0 0.84,0 0.84,-0.84 0,0 0,0 0,-0.72 l 2.16,-0.72 c 0,-0.72 0,0 0,0 0,0 0.84,0 0.84,-0.72 0,0 0,0 0,0"
           id="path3172"
           style="fill:none;fill-opacity:1;fill-rule:evenodd;stroke:#000000;stroke-opacity:1" />
        <path
           d="m 138.5088,589.1808 v 0 c 0,0 -0.84,0.72 -0.84,0.72 v -0.72 c 0.84,0 0.84,0 0.84,0"
           id="path3174"
           style="fill:none;fill-opacity:1;fill-rule:evenodd;stroke:#000000;stroke-opacity:1" />
        <path
           d="m 222.3816,589.1808 v 0.72 c 0,0 0.72,0.72 0.72,0.72 0,0 0,0 0,0 h -0.72 l -0.72,-1.44"
           id="path3180"
           style="fill:none;fill-opacity:1;fill-rule:evenodd;stroke:#000000;stroke-opacity:1" />
        <path
           d="m 121.95,590.6208 h 0.84 c 0.72,0 0,0 0.72,0.72 0,0 0,0 0.72,0 0,0 0,0 0,0 -0.72,0.84 -1.44,-0.72 -2.28,-0.72"
           id="path3182"
           style="fill:none;fill-opacity:1;fill-rule:evenodd;stroke:#000000;stroke-opacity:1" />
        <path
           d="m 175.2264,590.6208 c 1.4388,0 2.9988,0 4.4388,0.72 1.56,0 2.28,0 3,0.84 3.72,0.72 6.72,3 9.72,5.16 2.2788,1.56 3.8388,4.56 5.2788,6.84 0.72,2.1588 2.28,4.4388 3,6.7188 0,0.72 0,1.44 0,1.44 0,0 0,0 0.72,0.72 0,0 -0.72,0 -0.72,0 l 0.72,2.28 c 0,2.9988 0,5.9988 -0.72,8.2788 -0.72,2.28 -1.56,3.72 -2.28,5.28 -1.44,3.72 -4.44,7.4388 -8.1588,9.7188 -5.28,4.44 -13.56,5.9988 -20.9988,4.44 -2.28,0 -3.72,-0.72 -5.9988,-1.44 -0.72,-0.72 -2.28,-0.72 -3,-1.56 -0.72,-0.72 -0.72,-0.72 -1.56,-1.44 -2.16,-1.56 -4.44,-3 -6,-5.28 -0.72,-0.7188 -0.72,-0.7188 -0.72,-0.7188 0,0 0,0 0,0 -0.72,-1.56 -1.44,-3 -3,-5.28 -1.4388,-4.44 -2.2788,-9 -1.4388,-14.2788 0,-0.72 0,-2.16 0.7188,-3 0,-0.72 0.72,-1.44 0.72,-2.16 v -0.72 l 0.72,-1.56 c 0,0 0,0 0,0 0,-0.72 0,-0.72 0,-0.72 0.84,-0.7188 0.84,-0.7188 1.56,-1.5588 0.72,-1.44 1.44,-3 3,-3.72 3,-3.72 6.72,-6 11.9988,-8.28 3,-0.72 5.16,-0.72 9,-0.72"
           id="path3184"
           style="fill:none;fill-opacity:1;fill-rule:evenodd;stroke:#000000;stroke-opacity:1" />
        <path
           d="m 213.3828,591.3408 c 0,0 0,0 0,0"
           id="path3188"
           style="fill:none;fill-opacity:1;fill-rule:evenodd;stroke:#000000;stroke-opacity:1" />
        <path
           d="m 129.51,592.9008 c 0,0 0,0.72 0,1.44 0,0.84 0.72,0.84 0.72,0 l 2.28,0.84 c 0,0 0,0.72 0,0.72 0,0 0.72,0 0.72,0 0,0 0,0 0,0 v -0.72 c 0.72,0 0,0.72 0.72,0.72 0,0 0,0 0,0 0.72,0.72 0,0.72 0,0.72 l -3.72,-1.44 -1.44,-0.84 c 0,0 0,0 0,0 v -0.72 0.72 c 0,0 0.72,0 0.72,0 v -1.44"
           id="path3200"
           style="fill:none;fill-opacity:1;fill-rule:evenodd;stroke:#000000;stroke-opacity:1" />
        <path
           d="m 220.1028,592.1808 0.84,1.44 c 0,0 0,0 0,0 l -0.84,-1.44"
           id="path3204"
           style="fill:none;fill-opacity:1;fill-rule:evenodd;stroke:#000000;stroke-opacity:1" />
        <path
           d="m 221.6616,592.9008 c 0,0 0,0 0,0 0,0.72 0,0 -0.7188,0"
           id="path3212"
           style="fill:none;fill-opacity:1;fill-rule:evenodd;stroke:#000000;stroke-opacity:1" />
        <path
           d="m 218.6628,594.3408 c 0,0 0.72,0 0.72,0 -0.72,0 -0.72,0 -0.72,0"
           id="path3224"
           style="fill:none;fill-opacity:1;fill-rule:evenodd;stroke:#000000;stroke-opacity:1" />
        <path
           d="m 134.67,595.1808 c 0,0 0.84,0 0.84,0 0,0.72 0,1.44 -0.84,2.16 0,0 0,0 0,0 0,0 0,-0.72 0,-0.72 0.84,0 0.84,-0.72 0.84,-0.72 l -0.84,-0.72 c 0,0 0,0 0,0"
           id="path3226"
           style="fill:none;fill-opacity:1;fill-rule:evenodd;stroke:#000000;stroke-opacity:1" />
        <path
           d="m 217.9428,595.1808 c 0,0 0,0 0,0 0,0.72 0,0.72 0,0 v 0"
           id="path3232"
           style="fill:none;fill-opacity:1;fill-rule:evenodd;stroke:#000000;stroke-opacity:1" />
        <path
           d="m 174.3864,595.1808 0.84,0.72 0.72,3.72 -0.72,-0.72 c 0,0 0,0 0,0.72 0,0 0.72,0 1.4388,0.72 0.72,2.28 -1.4388,3.84 -2.2788,5.9988 v 0.84 -7.5588 c 0,-0.72 0,0 0.84,-0.72 0,0 0,0 0,0 0,-0.72 -0.84,-0.72 -0.84,-0.72 v -3"
           id="path3234"
           style="fill:none;fill-opacity:1;fill-rule:evenodd;stroke:#000000;stroke-opacity:1" />
        <path
           d="m 173.6664,595.9008 -0.72,10.4388 c -0.72,-2.1588 -0.72,-4.4388 -1.56,-6.7188 l 0.84,-1.44 1.44,-2.28"
           id="path3240"
           style="fill:none;fill-opacity:1;fill-rule:evenodd;stroke:#000000;stroke-opacity:1" />
        <path
           d="m 109.23144,598.1808 c 0,0 0,0 0,0 0,0 0,0 0,0 0,0 0,0 0,0"
           id="path3256"
           style="fill:none;fill-opacity:1;fill-rule:evenodd;stroke:#000000;stroke-opacity:1" />
        <path
           d="m 181.2252,598.9008 c 2.16,0 3.72,0 4.44,1.44 0,0.84 0.72,0.84 0.72,0.84 v 3 l -3,-3 c -0.72,0 -2.16,-0.84 -3,0 -2.16,0.72 -3,3 -4.4388,4.4388 l 2.2788,-5.2788 c 0.72,-0.72 2.16,-0.72 3,-1.44"
           id="path3272"
           style="fill:none;fill-opacity:1;fill-rule:evenodd;stroke:#000000;stroke-opacity:1" />
        <path
           d="m 165.5064,599.6208 c 0.72,0 0.72,0 0.72,0 v 1.56 c 0,0 0,0 0.72,0 0,0 0,0 0,-0.84 1.44,0.84 2.28,2.28 3,3 0,0 0,0 0,0.84 0,0 0,0 0,0 l 0.72,0.7188 0.72,0.72 0.84,2.28 c 0,0 0,0 0,0 l -4.56,-5.2788 c 0,-0.72 -0.72,-0.72 -1.44,-0.72 l -1.5588,1.44 -0.72,-2.16 c 0,-0.84 0.72,-1.56 1.5588,-1.56"
           id="path3280"
           style="fill:none;fill-opacity:1;fill-rule:evenodd;stroke:#000000;stroke-opacity:1" />
        <path
           d="m 183.3852,600.3408 c 0,0 0,0 0,0 0,0 0,0 0,0 0,0 -0.72,0 -0.72,0 0,0 0,0 0.72,0"
           id="path3284"
           style="fill:none;fill-opacity:1;fill-rule:evenodd;stroke:#000000;stroke-opacity:1" />
        <path
           d="m 164.6676,600.3408 v 0.84 c 0,0 0,0.72 0,0 h -0.72"
           id="path3288"
           style="fill:none;fill-opacity:1;fill-rule:evenodd;stroke:#000000;stroke-opacity:1" />
        <path
           d="m 235.1016,601.1808 c 0,0 0,0 0,0 0,0 0,0 0,0 0,0 0,0 0,0 0,0 0,0 0,0"
           id="path3298"
           style="fill:none;fill-opacity:1;fill-rule:evenodd;stroke:#000000;stroke-opacity:1" />
        <path
           d="m 181.9452,601.9008 h 1.44 l 0.84,0.72 0.72,1.56 c -1.56,0 -3,-2.28 -5.28,-0.84 l -2.28,2.2788 c 0,0 0,0 0,0 l -2.1588,2.28 c 0.72,0 0.72,0 0.72,-0.72 0,-0.84 0.7188,-0.84 0.7188,-1.56 0,0 0.72,0 0.72,-0.72 0,0 0.84,-0.7188 0.84,-0.7188 0.72,-1.56 2.16,-2.28 3.72,-2.28"
           id="path3300"
           style="fill:none;fill-opacity:1;fill-rule:evenodd;stroke:#000000;stroke-opacity:1" />
        <path
           d="m 166.9464,603.3408 c 1.44,0 2.28,2.2788 3,3.8388 0,0 0,0 0,0 0,0.72 0.72,0.72 0.72,0.72 0,0 0,0.72 0,0.72 0,0 0,0 0,0 l -3.72,-3.72 v -1.5588"
           id="path3322"
           style="fill:none;fill-opacity:1;fill-rule:evenodd;stroke:#000000;stroke-opacity:1" />
        <path
           d="m 172.2264,605.6196 c 0,0.72 0,0.72 0,0.72 0,0 0,-0.72 0,-0.72"
           id="path3354"
           style="fill:none;fill-opacity:1;fill-rule:evenodd;stroke:#000000;stroke-opacity:1" />
        <path
           d="m 142.9488,607.1796 h 0.72 c 0,0 -0.72,0 -0.72,0 0,0 0,0 0,0"
           id="path3374"
           style="fill:none;fill-opacity:1;fill-rule:evenodd;stroke:#000000;stroke-opacity:1" />
        <path
           d="m 231.3816,607.8996 c 0,0 0,0 0,0 0,0 0,0 0,0"
           id="path3396"
           style="fill:none;fill-opacity:1;fill-rule:evenodd;stroke:#000000;stroke-opacity:1" />
        <path
           d="m 233.6616,608.6196 c 0,0 0,0 0,0 0,0 0,0 0,0 v 0"
           id="path3408"
           style="fill:none;fill-opacity:1;fill-rule:evenodd;stroke:#000000;stroke-opacity:1" />
        <path
           d="m 170.6664,609.3396 h 7.5588 c 0.72,0.72 0,1.56 0,1.56 h -7.5588 c 0,0 0,-0.84 0,-1.56 0,0 0,0 0,0"
           id="path3418"
           style="fill:none;fill-opacity:1;fill-rule:evenodd;stroke:#000000;stroke-opacity:1" />
        <path
           d="m 172.2264,611.6196 5.9988,0.72 c 0.72,0 0,0.72 0,1.56 h -7.5588 c -0.72,-0.84 0,-1.56 0,-2.28 0,0 0.72,0 1.56,0"
           id="path3440"
           style="fill:none;fill-opacity:1;fill-rule:evenodd;stroke:#000000;stroke-opacity:1" />
        <path
           d="m 110.79144,614.6196 c 0,0 0,0 0,0 0,0 0,0 -0.84,0 0,0 0,0 0.84,0"
           id="path3456"
           style="fill:none;fill-opacity:1;fill-rule:evenodd;stroke:#000000;stroke-opacity:1" />
        <path
           d="m 170.6664,614.6196 h 7.5588 c 0.72,0 0,0.72 0,0.72 -0.84,0.7188 -2.2788,0 -3.8388,0 -0.72,0 -2.16,0 -3.72,0 0,0 0,-0.72 0,-0.72"
           id="path3462"
           style="fill:none;fill-opacity:1;fill-rule:evenodd;stroke:#000000;stroke-opacity:1" />
        <path
           d="m 172.9464,616.0584 -0.72,4.56 c -0.84,0 0,-0.72 -0.84,-0.72 0,0 0,0 0,0 0,0 0,0 0,0 v 1.44 c 0,0 0,0 0,0 0,0.72 0,0.72 -0.72,1.56 h -0.72 c 0,0 0,0 0,0.72 0,0 0,0 0,0 l -0.72,0.72 v 0.72 c 0,0 0,0 0,0 0,0 0,0 0,0 -0.84,-0.72 -1.56,0 -1.56,0 v 2.28 l -2.16,1.56 c -0.8388,0.72 -1.5588,1.44 -2.2788,1.44 -0.72,0 -1.56,0 -2.28,0 v -1.44 l 2.28,-0.84 c 0,0 0,-0.72 0,-0.72 0,0 0,0 0,-0.72 0,0 0.72,-0.72 1.44,-0.72 l 2.9988,-2.28 2.28,-2.28 c 0,-0.72 0,0 0,0 h 0.72 c 0,-0.72 0,-0.72 -0.72,-0.72 0,-0.72 0.72,-0.72 0.72,-0.72 l 2.28,-3.84"
           id="path3480"
           style="fill:none;fill-opacity:1;fill-rule:evenodd;stroke:#000000;stroke-opacity:1" />
        <path
           d="m 158.6676,616.8984 h 0.84 c 0.72,0 0,0 0.72,0.72 l -0.72,0.72 -3,3 c -0.84,0.72 -0.84,2.28 0,3.72 0.72,0.84 0.72,0.84 0.72,0.84 l -1.56,1.44 c 0,0 0,0.72 0,0.72 h 2.28 l 1.56,2.28 h -1.56 l -1.44,-0.72 -0.84,-0.72 c -0.72,-1.56 -2.16,-3.84 -2.16,-6 0,0 0,0 0,-0.84 v -0.72 c 1.44,-1.44 2.16,-3 3.72,-3.72 0.72,0 0.72,-0.72 0.72,-0.72 0.72,0 0.72,0 0.72,0 0,0 0,0 0,0"
           id="path3486"
           style="fill:none;fill-opacity:1;fill-rule:evenodd;stroke:#000000;stroke-opacity:1" />
        <path
           d="m 173.6664,616.8984 0.72,6 c -0.72,0 -0.72,0 -0.72,0 0,0 0,0.72 0,0.72 0,0 0,0 0,0 0.72,5.28 0.72,11.2788 0,16.4388 0,0 -0.72,-0.72 -0.72,-1.44 -2.28,-3 -3.72,-6.7188 -4.56,-11.2788 l 2.28,-2.28 0.72,-0.72 c 0.84,0 0,0 0,-0.72 l 0.84,-1.56 c 0,0 0,0 0,0 0.72,0 0.72,0 0.72,0 l 0.72,-5.16 c 0,0 0,0 0,0"
           id="path3488"
           style="fill:none;fill-opacity:1;fill-rule:evenodd;stroke:#000000;stroke-opacity:1" />
        <path
           d="m 175.2264,616.8984 c 0,1.44 0,3 0,4.44 0,0 0,0 0,0 l -0.84,-4.44 c 0,0 0,0 0,0"
           id="path3490"
           style="fill:none;fill-opacity:1;fill-rule:evenodd;stroke:#000000;stroke-opacity:1" />
        <path
           d="m 175.9464,616.8984 v 0 c 0,0 0,0 0,0.72 l 1.4388,3 3,3 c 0,0.72 0,0.72 0,0.72 l 3,1.56 c 0,0.72 -0.72,0.72 -0.72,0.72 0,0 -0.72,0 -0.72,0.72 0,0 0,0.72 0,0.72 h 1.44 c 0.84,0.84 0.84,0.84 1.56,1.56 0,0 0,0 0,0 l 1.44,-1.56 h 2.28 c 0,0 0,0 0,0 0,-0.72 -0.72,-1.44 -0.72,-1.44 1.44,0 3,-0.72 3.72,-2.28 0.72,-0.72 0,-2.28 -0.72,-3.72 0,0 0,-0.72 -0.72,-0.72 l -1.56,-1.56 c 0,0 0,0 0.72,0 l 2.28,1.56 c 1.5588,1.44 2.2788,3.72 2.2788,5.16 0,0.84 0,1.56 -0.72,1.56 l -2.2788,2.28 -0.72,0.72 c 0,0 0,0 0,0 -0.84,0 0,0 -0.84,0 -0.72,0.72 -2.16,0.72 -3.72,0.72 l -3.72,-1.44 c 0,0 -0.72,0 -0.72,0 0,0 0,0 0,0 -3.84,-3 -5.2788,-7.56 -5.2788,-12 0,0 0,0 0,0"
           id="path3492"
           style="fill:none;fill-opacity:1;fill-rule:evenodd;stroke:#000000;stroke-opacity:1" />
        <path
           d="m 233.6616,618.3384 c 0,0 0,0 0,0"
           id="path3526"
           style="fill:none;fill-opacity:1;fill-rule:evenodd;stroke:#000000;stroke-opacity:1" />
        <path
           d="m 169.9464,621.3384 c 0,0 0,0.72 0,0.72 0,0 0,0 0,0 -0.72,0 -0.72,-0.72 0,-0.72"
           id="path3550"
           style="fill:none;fill-opacity:1;fill-rule:evenodd;stroke:#000000;stroke-opacity:1" />
        <path
           d="m 238.1004,622.0584 v 0 c 0,0 0,0 0,0 0,0 0,0 0,0 0,0 0,0 0,0"
           id="path3558"
           style="fill:none;fill-opacity:1;fill-rule:evenodd;stroke:#000000;stroke-opacity:1" />
        <path
           d="m 175.9464,623.6184 v 2.28 l -0.72,0.72 c 0,0 0,0 0,0 h 0.72 c 0.7188,0 0.7188,0.72 0.7188,0.72 0.72,0 0.72,0 0.72,0 v 0.72 c 0,0 0,0 0,0 0,0.84 0,0.84 0.84,0.84 h -0.84 c -0.72,0 -0.72,0 -0.72,0.72 0,0 0,0 0,0 0.72,0 1.56,0 2.28,0 0,-0.72 0,-0.72 0,-0.72 0,0 0,0 0,0 0,0 0,0 0.72,0 0,0 0,0.72 0,0.72 h -0.72 l -0.72,0.72 c 0,0 0.72,0 0.72,0.72 h -1.56 c 0,0 -0.72,0 -0.72,0.84 0.72,0 1.56,0 1.56,0.72 0.72,0 0.72,0 0.72,0 0,-0.72 0,-0.72 0,-0.72 v 0.72 c 0,0.7188 0,1.4388 -0.72,2.2788 -0.84,2.16 -2.2788,3.72 -2.9988,5.16 l -0.84,-15.7188 c 0.84,0 0.84,0 1.56,-0.72 0,0 0,0 0,0"
           id="path3566"
           style="fill:none;fill-opacity:1;fill-rule:evenodd;stroke:#000000;stroke-opacity:1" />
        <path
           d="m 140.6688,624.3384 c 0,0 0,0 0,0 0,0 0,0 0,0 0,0 0,0 0,0"
           id="path3568"
           style="fill:none;fill-opacity:1;fill-rule:evenodd;stroke:#000000;stroke-opacity:1" />
        <path
           d="m 158.6676,624.3384 0.84,1.56 2.16,-1.56 c 0,0 0,0 0,0 0,0.72 -0.72,0.72 -0.72,1.56 0,0.72 0.72,0.72 1.56,1.44 h -1.56 l -0.72,2.28 -2.28,-2.28 h -0.72 l 1.44,-0.72 v -2.28"
           id="path3572"
           style="fill:none;fill-opacity:1;fill-rule:evenodd;stroke:#000000;stroke-opacity:1" />
        <path
           d="m 184.2252,624.3384 1.44,1.56 1.56,-0.84 -0.84,1.56 0.84,0.72 c 0,0 -0.84,0 -1.56,0 0,0.72 0,0.72 -0.72,0.72 0,0 0,0 0,-0.72 -0.72,0 -1.56,0 -1.56,0 -0.72,-0.72 0.84,-0.72 1.56,-0.72 0,0 0,-0.72 0,-0.72 l -0.72,-1.56 c 0,0 0,0 0,0"
           id="path3576"
           style="fill:none;fill-opacity:1;fill-rule:evenodd;stroke:#000000;stroke-opacity:1" />
        <path
           d="m 118.23096,625.8984 c 0,0 0,0 0,0 0,0 0,0 0,0 0,0 0,0 0,0 0,0 0,0 0,0"
           id="path3578"
           style="fill:none;fill-opacity:1;fill-rule:evenodd;stroke:#000000;stroke-opacity:1" />
        <path
           d="m 176.6652,625.0584 c 0,0 0,0 0,0 l 0.72,0.84 h -0.72 c 0,0 0,-0.84 0,-0.84"
           id="path3588"
           style="fill:none;fill-opacity:1;fill-rule:evenodd;stroke:#000000;stroke-opacity:1" />
        <path
           d="m 181.9452,625.8984 c 0,0 0,0 0,0 0,0 0,0.72 0,0 -0.72,0 0,0 0,0"
           id="path3596"
           style="fill:none;fill-opacity:1;fill-rule:evenodd;stroke:#000000;stroke-opacity:1" />
        <path
           d="m 237.3816,626.6184 c 0,0 0,0 0,0 0,0 -0.72,0 -0.72,0 0,0 0,0 0,0 0,0 0.72,-0.72 0.72,0"
           id="path3610"
           style="fill:none;fill-opacity:1;fill-rule:evenodd;stroke:#000000;stroke-opacity:1" />
        <path
           d="m 165.5064,627.3384 v 0 c 0,0.72 -0.8388,0 -0.8388,0 0,0 0.8388,0 0.8388,0"
           id="path3612"
           style="fill:none;fill-opacity:1;fill-rule:evenodd;stroke:#000000;stroke-opacity:1" />
        <path
           d="m 166.2264,627.3384 v 0 c 0.72,0 0,0.72 0,0.72 0,0 0,-0.72 0,-0.72"
           id="path3624"
           style="fill:none;fill-opacity:1;fill-rule:evenodd;stroke:#000000;stroke-opacity:1" />
        <path
           d="m 135.51,628.8984 c 0,0 0,0 0,0 0,0 0,0 0,0"
           id="path3642"
           style="fill:none;fill-opacity:1;fill-rule:evenodd;stroke:#000000;stroke-opacity:1" />
        <path
           d="m 219.3828,631.8984 v 0 c 0,0 0,0 0,0 0,0 0,0 0,0"
           id="path3700"
           style="fill:none;fill-opacity:1;fill-rule:evenodd;stroke:#000000;stroke-opacity:1" />
        <path
           d="m 134.67,636.3372 c 0,0 0,0 0,0.72 l 0.84,0.84 c 0,0 0.72,0 0.72,0 0,0 0,0.72 0,1.44 0,0 0,-0.72 0,-0.72 l -0.72,-0.72 c 0,0 0,0 -0.84,0 0,0.72 0.84,1.44 0.84,2.16 0,0 0.72,0 0.72,0 0,0 0,0 0,0 l 1.4388,1.56 c 0,0 0,0 0.84,0 0,0 0,0 0,0 0,0.72 0,0 0,0.72 -0.84,0 -0.84,0 -0.84,0 l 0.84,0.72 c 0,0 0.72,-0.72 0.72,-0.72 0,0.72 0,1.5588 0.72,1.5588 l -1.44,1.44 c 0,0 0,0 0.72,0 0,0.72 0,0.72 0.72,0.72 0,0 0,-0.72 0,-0.72 0.72,2.28 1.56,3 1.56,5.28 l -0.84,0.72 c 0,0 0,0 0,0 0.84,0 1.56,0 2.28,0.72 -0.72,0 -1.44,-0.72 -1.44,-0.72 l -0.84,0.72 c 0,0 0,0 0,-0.72 l -2.16,0.72 c -1.56,-0.72 -2.2788,-2.28 -5.2788,-1.44 -0.72,0 -1.44,0 -2.28,0 l -2.16,-5.28 c -0.84,0 -0.84,0 -1.56,0 -0.72,-0.72 -1.44,-1.44 -1.44,-2.9988 v -0.72 c 0,0 0,0 0,-0.72 0.72,0 1.44,-0.84 2.16,-0.84 0,0 0,0 0,0 l 0.84,0.84 c 0,0 0,0 -0.84,0 0,1.44 0.84,2.16 1.56,3.7188 l -0.72,-2.2788 3,2.9988 c 0,0 0.72,0 0.72,-0.72 l -0.72,-0.72 -0.84,-0.8388 c 0.84,0 0.84,0 0.84,0 0,0 0,0.8388 0,0.8388 0.72,0 1.44,0.72 1.44,0.72 0,0.72 -0.72,0.72 -0.72,0.72 -0.72,0 0,0.72 0,0.72 0,1.56 0.72,2.28 1.44,3.72 0.72,0 0.72,0 0.72,-0.72 l -1.44,-1.44 2.28,2.16 h 2.1588 l 0.84,0.84 c 0,0 0,0 0,0 0,0 0,0 0,0 v -0.84 l 0.72,-0.72 c 0,0 0,-0.72 0,-0.72 0,0 0,0 -0.72,0 0,0 0,0 0,0 0,0 0,0 -0.84,0.72 0,0 0,-0.72 -0.72,-1.44 0,0 0.72,0 0.72,-0.72 0,0 0,0 0,0 h -0.72 c -0.7188,0 0,0.72 -0.7188,0.72 l -1.56,-2.28 c 0,0 0,0 0,0 0,0 0,0 0.84,0 0,0 0,0 0,0 -0.84,-1.44 -0.84,-2.9988 -2.28,-3.7188 0,0 0,0 0,0 l -1.44,-3.72"
           id="path3742"
           style="fill:none;fill-opacity:1;fill-rule:evenodd;stroke:#000000;stroke-opacity:1" />
        <path
           d="m 232.8216,637.0572 v 0 c 0,0 0,0 0,0 0,0 0,0 0,0"
           id="path3752"
           style="fill:none;fill-opacity:1;fill-rule:evenodd;stroke:#000000;stroke-opacity:1" />
        <path
           d="m 130.95,638.6172 c 0,0 0.84,0.72 0.84,1.44 0,0 0,0 0,0 v 0.84 c 0,0 0,0 -0.84,0 h -0.72 v -1.56 c 0,0 -0.72,0 -0.72,0 0.72,-0.72 0.72,-0.72 1.44,-0.72"
           id="path3756"
           style="fill:none;fill-opacity:1;fill-rule:evenodd;stroke:#000000;stroke-opacity:1" />
        <path
           d="m 216.3828,638.6172 0.72,0.72 -3.72,3 c 0,0 0.72,0 0.72,0 0,0 -0.72,0.72 -0.72,0.72 0,0 0,0 -0.72,0.8388 0,0 0,0 0.72,0 l 0.72,-0.8388 c 0,0.8388 -0.72,0.8388 -1.44,1.5588 0,0 0,0 0,0 l 3.72,-2.2788 -1.44,1.5588 c 0.72,0 0.72,0 0.72,0 0,0 0,0 0,0 0.72,0 0.72,0 0.72,0 l 3,-2.2788 c 0,-0.72 -0.72,0 -0.72,-0.72 0,0 0,0 -0.72,0 0,0 0.72,0 0.72,0 0,0 0.72,-0.84 1.44,0 0,0 0,0 0,0 0,2.16 -1.44,3.7188 -3.72,4.4388 -0.72,1.56 -2.28,1.56 -3.72,2.28 -1.56,0 -3.7188,0.72 -5.2788,0 l 2.9988,-3 c 0.72,-2.2788 3,-5.2788 5.28,-5.9988 0.72,0 0.72,0 0.72,0"
           id="path3768"
           style="fill:none;fill-opacity:1;fill-rule:evenodd;stroke:#000000;stroke-opacity:1" />
        <path
           d="m 133.95,640.0572 c 0,0 0,0.84 0,0.84 0,0 0,0 0,0 v -1.56"
           id="path3770"
           style="fill:none;fill-opacity:1;fill-rule:evenodd;stroke:#000000;stroke-opacity:1" />
        <path
           d="m 217.9428,639.3372 -3,3 3,-3"
           id="path3780"
           style="fill:none;fill-opacity:1;fill-rule:evenodd;stroke:#000000;stroke-opacity:1" />
        <path
           d="m 217.9428,640.8972 c 0,0.72 -0.84,0 -0.84,0.72 0,0 0,-0.72 0.84,-0.72"
           id="path3790"
           style="fill:none;fill-opacity:1;fill-rule:evenodd;stroke:#000000;stroke-opacity:1" />
        <path
           d="m 124.23,642.3372 v 0 l 0.72,2.2788 0.84,3 v 0.72 l 0.72,0.72 c 0,0 0,-0.72 0,-0.72 0,0 0.72,0 0.72,0 0,0 0,0 0,0 0,0.72 0.72,1.44 0.72,1.44 0,0.84 0,0.84 0,0.84 0,0 0,0 0,0 0,0.72 0,1.44 -0.72,2.16 v 0.84 c 0,0 0,0 0.72,0 l -0.72,0.72 c -0.72,0.72 0,0.72 0,0.72 0,1.56 0,2.28 -0.72,3 h -2.28 c -1.44,-0.72 -1.44,-2.28 -2.28,-3.72 -0.72,-1.56 -2.15904,-1.56 -2.15904,-3.72 0,-2.28 -0.84,-4.56 0,-6 l 1.43904,-0.72 c 0,0 0,0 0,0 0.72,1.44 0.72,3 0.72,3.72 0.84,2.16 3,3.72 1.56,6 0,0 0,0 0,0 0.72,0 0.72,0 0.72,0 l 0.72,-0.84 -1.44,-5.16 0.72,1.44 0.72,3 c 0,0 0,0 0.84,0.72 0,0 0,0 0,-0.72 v -1.44 c 0,0.72 0,0.72 0.72,1.44 0,0 0,0 0,0 0,0 0,0 0.72,0 0,-0.72 0,-0.72 0,-0.72 0,-0.72 -0.72,0 -0.72,0 l -0.72,-2.28 c -0.84,0 0,0.72 -0.84,0.72 l -1.44,-2.88 c 0,0 0,0 0.72,0 0,-0.84 -0.72,-0.84 -0.72,-0.84 0,0 0,0 0,0 l -1.56,-2.9988"
           id="path3796"
           style="fill:none;fill-opacity:1;fill-rule:evenodd;stroke:#000000;stroke-opacity:1" />
        <path
           d="m 221.6616,641.6172 v 0 l -0.7188,1.44 0.7188,-1.44"
           id="path3798"
           style="fill:none;fill-opacity:1;fill-rule:evenodd;stroke:#000000;stroke-opacity:1" />
        <path
           d="m 223.1016,642.3372 0.84,0.72 -0.84,4.5588 c 0,-0.72 0,0 0,-0.72 -0.72,0.72 -0.72,0.72 -0.72,1.44 0,0 0.72,0 0.72,0 l -0.72,1.44 c 0,0 0.72,0 0.72,0 l 0.84,-2.16 c 0,0 0,-0.72 0,-0.72 l -1.56,7.44 c 0,0.72 0,0.72 0,0.72 0,-0.72 0,-0.72 0.72,-0.72 0,0 0,0 0,0 0,0 0,0 0,0 l 2.28,-9 -0.72,6 c 0,0 0,0 0,0 0.72,-1.56 0.72,-3 1.44,-4.44 0,-1.56 -0.72,-2.28 -0.72,-3 0.72,0 0.72,0 0.72,0 l 1.56,0.72 c 0.72,2.28 0,4.44 0,6 -0.72,2.16 -1.56,3.72 -3,5.16 0,0.84 -0.72,1.56 -0.72,2.28 l -3.8388,2.28 c 0,-4.56 0.84,-9 0.84,-13.44 0,-2.28 0.7188,-3.8388 2.1588,-4.5588"
           id="path3800"
           style="fill:none;fill-opacity:1;fill-rule:evenodd;stroke:#000000;stroke-opacity:1" />
        <path
           d="m 128.79,643.896 c 0,0 0,0 0,0.72 0,0 0,0 0,0 0,0 -0.84,0 -0.84,0 v -0.72"
           id="path3808"
           style="fill:none;fill-opacity:1;fill-rule:evenodd;stroke:#000000;stroke-opacity:1" />
        <path
           d="m 224.6616,643.0572 v 2.2788 -2.2788"
           id="path3810"
           style="fill:none;fill-opacity:1;fill-rule:evenodd;stroke:#000000;stroke-opacity:1" />
        <path
           d="m 238.8204,643.896 c 0,0 0,0 0,0 0,0 0,0 0,0 v 0"
           id="path3812"
           style="fill:none;fill-opacity:1;fill-rule:evenodd;stroke:#000000;stroke-opacity:1" />
        <path
           d="m 136.23,645.336 h 0.7188 l 0.72,1.56 -1.4388,-1.56"
           id="path3814"
           style="fill:none;fill-opacity:1;fill-rule:evenodd;stroke:#000000;stroke-opacity:1" />
        <path
           d="m 160.2276,645.336 3,1.56 -4.56,11.16 -0.72,1.56 -3,-1.56 4.56,-11.16 0.72,-1.56 c 0,0 0,0 0,0"
           id="path3816"
           style="fill:none;fill-opacity:1;fill-rule:evenodd;stroke:#000000;stroke-opacity:1" />
        <path
           d="m 135.51,646.056 h 0.72 c -0.72,0 -0.72,0 -0.72,0 0,0 0,0 0,0"
           id="path3818"
           style="fill:none;fill-opacity:1;fill-rule:evenodd;stroke:#000000;stroke-opacity:1" />
        <path
           d="m 226.9416,645.336 -0.84,2.28"
           id="path3820"
           style="fill:none;fill-opacity:1;fill-rule:evenodd;stroke:#000000;stroke-opacity:1" />
        <path
           d="m 134.67,646.056 2.2788,2.28 c 0,0.72 -0.7188,0 -0.7188,0.72 -1.56,-0.72 -1.56,-2.16 -1.56,-3 0,0 0,0 0,0"
           id="path3822"
           style="fill:none;fill-opacity:1;fill-rule:evenodd;stroke:#000000;stroke-opacity:1" />
        <path
           d="m 124.95,646.896 c 0,0 0,0.72 0,0.72 -0.72,0 0,-0.72 -0.72,-0.72"
           id="path3824"
           style="fill:none;fill-opacity:1;fill-rule:evenodd;stroke:#000000;stroke-opacity:1" />
        <path
           d="m 186.3852,646.056 c 0,0 0.84,0 0.84,0 0,0.84 0.72,0.84 0.72,1.56 l 0.72,1.44 0.72,2.28 c 0,0.72 0.84,0.72 0.84,0.72 v 1.56 l 1.44,2.16 -3,0.84 -3.72,-8.28 -0.72,-0.72 c 0,0 0,0 0,0"
           id="path3826"
           style="fill:none;fill-opacity:1;fill-rule:evenodd;stroke:#000000;stroke-opacity:1" />
        <path
           d="m 121.95,646.896 0.84,3.72 -0.84,-3.72"
           id="path3828"
           style="fill:none;fill-opacity:1;fill-rule:evenodd;stroke:#000000;stroke-opacity:1" />
        <path
           d="m 219.3828,646.896 c 0.72,2.88 -0.72,6.72 -2.28,8.88 -1.44,1.56 -3,3 -4.44,3.84 -1.56,0.72 -2.28,1.4388 -3.7188,2.1588 -1.56,0.84 -2.28,1.56 -3.84,1.56 l 1.56,-5.9988 c 0,0 0,0 0,0 0.72,-3 3,-4.56 4.4388,-6 0.84,-0.72 0.84,-0.72 1.56,-0.72 l 0.72,-0.84 -1.44,2.28 c 0,0 0,0.72 0,0.72 l 1.44,-1.44 -1.44,2.28 c 0,0 0,0 0,-0.84 0,0.84 0,0.84 0,0.84 0,0 -0.84,0 -0.84,0 0,0 0,0.72 0,0.72 l -2.9988,4.44 c 0,0 0,0 0,0.84 l 3.8388,-5.28 3,-3 c 0,0 0,0 0,0 l 3.72,-4.44 c 0,0 0.72,0 0.72,0"
           id="path3830"
           style="fill:none;fill-opacity:1;fill-rule:evenodd;stroke:#000000;stroke-opacity:1" />
        <path
           d="m 217.1028,647.616 -0.72,1.44 h -0.72 c 0,0 0,0 -0.72,0 l 0.72,-0.72"
           id="path3836"
           style="fill:none;fill-opacity:1;fill-rule:evenodd;stroke:#000000;stroke-opacity:1" />
        <path
           d="m 130.95,648.336 0.84,1.44 c 0,0 -0.84,0 -0.84,0 h -0.72 v -1.44"
           id="path3838"
           style="fill:none;fill-opacity:1;fill-rule:evenodd;stroke:#000000;stroke-opacity:1" />
        <path
           d="m 226.1016,648.336 -0.72,3"
           id="path3840"
           style="fill:none;fill-opacity:1;fill-rule:evenodd;stroke:#000000;stroke-opacity:1" />
        <path
           d="m 211.1028,649.056 v 0 c 0,0 0,0 -0.72,0.72 0,0 0,-0.72 0,-0.72 l -0.7188,0.72 -2.28,1.56 -2.28,1.44 c 0,0 0,0.84 0,0.84 l -0.72,0.72 c 0,0 0,0 0,0 l 3,-1.56 -1.44,3 c -1.56,0.84 -3.84,1.56 -5.28,0.84 0,-1.56 1.44,-1.56 2.28,-2.28 0.72,-1.56 2.16,-2.28 3.72,-3 0.72,-0.72 1.44,-1.56 3,-2.28 0,0 0.7188,0 1.4388,0"
           id="path3846"
           style="fill:none;fill-opacity:1;fill-rule:evenodd;stroke:#000000;stroke-opacity:1" />
        <path
           d="m 222.3816,649.056 c 0,0.72 0,0.72 -0.72,1.56 l 0.72,-1.56"
           id="path3852"
           style="fill:none;fill-opacity:1;fill-rule:evenodd;stroke:#000000;stroke-opacity:1" />
        <path
           d="m 210.3828,649.776 v 0 c 0,0 -0.7188,0.84 -0.7188,0.84"
           id="path3860"
           style="fill:none;fill-opacity:1;fill-rule:evenodd;stroke:#000000;stroke-opacity:1" />
        <path
           d="m 121.95,651.336 v 0.72 c 0,-0.72 0,-0.72 0,-0.72"
           id="path3864"
           style="fill:none;fill-opacity:1;fill-rule:evenodd;stroke:#000000;stroke-opacity:1" />
        <path
           d="m 133.95,651.336 c 0.72,0 0.72,0 1.56,0 l 2.9988,2.28 c 0,0 0.72,-0.84 0.72,-0.84 l 0.72,0.84 h 0.72 c 0.84,0 0,0 0.84,0 h 0.72 v 0.72 l 1.44,1.44 h 0.84 v 0.84 c 0,0.72 0,0.72 0,0.72 0,0 0,0 -0.84,0 0,0 0,0 0,0 l 0.84,0.72 h -1.56 c 0,0 0,0 0,0.72 h 2.28 v 1.56 h 1.44 c -0.72,0.7188 -0.72,2.2788 -0.72,2.9988 0,0.72 0.72,1.44 0.72,2.28 0,0.72 0.84,1.44 0,2.16 0,0.84 -0.72,0.84 -1.44,0.84 -1.56,0 -3.72,-0.84 -6,-0.84 -1.56,-0.72 -1.56,-2.16 -2.28,-3 -0.7188,0 -1.4388,-0.72 -2.2788,-0.72 -1.44,-0.72 -1.44,-2.28 -2.16,-3 0.72,-2.2788 0.72,-3.7188 -0.72,-5.2788 h -3 v -0.72 c 0,0 0,0 0,0 0,0 0,0 0.72,0 h 0.72 c 0,0 0,-0.72 0,-0.72 0,0 0,0 0,0 0,0 0,0 0.72,0 0,-0.72 -0.72,-1.56 -0.72,-2.28 0,0 0,0.72 0.72,0.72 l 0.84,2.28 -0.84,-0.72 c 0,0 0,0 0,0 l 0.84,0.72 c 0,0 0,0 0,0 l 2.16,2.28 c 0,0 0,0 0,0 0,2.28 1.56,3 2.9988,4.4388 h 0.72 l 0.84,2.28 -2.2788,-2.28 c 0,0 0,0 0,0 l 1.4388,2.28 1.56,0.72 c 0,0 0,0 0,0 0.72,0 0.72,0 0.72,0.84 0,0 0,-0.84 0,-0.84 l -0.72,-1.44 c 0,0 0,0 0,-0.72 l -1.56,-1.56 1.56,1.56 c 0,0 0,0 0,0 l 3,2.16 0.72,0.84 2.28,0.72 c 0,0.72 0,0 0.72,0 0,0 -0.72,-0.72 -0.72,-0.72 0,0 0,0 0,0 l -0.72,-0.84 c 0,0 0,0 -0.84,0 v 0 c 0,-0.72 0,-0.72 0,-0.72 l -3,-2.28 c 0,0 0.84,0 0.84,0 0.72,0 0,-0.72 0,-0.72 l -0.84,-0.7188 c 0,0 0,0 -0.72,-0.72 0,0 0,0 0.72,0 l -0.72,-0.84 c 0,0 0,0 -0.72,0 0,-0.72 0,-0.72 0,-0.72 l 1.44,0.72 c 0,-0.72 0.84,0 0,-0.72 -1.44,-0.72 -2.16,-1.44 -3.72,-3 l 2.28,2.28 c 0,0 0,-0.72 0,-0.72 v -0.84 c 0,0 0,0 0,0 h 0.72 c 0,-0.72 0,-0.72 0,-0.72 h -0.72 l -0.72,-0.72 c 0,0 0,0 0,0 0,-0.72 0,-0.72 -0.84,-0.72 l -0.72,-0.84 -0.7188,-0.72 c 0,0 0,0 -0.72,0 0,0 0,0 0,0 -0.84,0 -0.84,0 -0.84,0 0,0 0,0 0,-0.72 h -0.72"
           id="path3870"
           style="fill:none;fill-opacity:1;fill-rule:evenodd;stroke:#000000;stroke-opacity:1" />
        <path
           d="m 221.6616,652.056 c 0,0 0,0 0,0 0,0 0,0 0,-0.72"
           id="path3874"
           style="fill:none;fill-opacity:1;fill-rule:evenodd;stroke:#000000;stroke-opacity:1" />
        <path
           d="m 177.3852,652.776 c 0,0 0,0 0,0 0,0 0,0 0,0 0,0 0,0 0,0 0,0 0,0 0,0"
           id="path3876"
           style="fill:none;fill-opacity:1;fill-rule:evenodd;stroke:#000000;stroke-opacity:1" />
        <path
           d="m 144.5088,652.776 1.44,0.84 1.56,3 c 0,0.72 0,0.72 0,0.72 l -1.56,-2.28 c -0.72,0 -0.72,0 -0.72,0 0,0 0,0.72 0,0.72 0,-0.72 0,-0.72 0,-0.72 l -0.72,-1.44 c 0,0 0,0 0,0 0,0 0,0 0,-0.84"
           id="path3880"
           style="fill:none;fill-opacity:1;fill-rule:evenodd;stroke:#000000;stroke-opacity:1" />
        <path
           d="m 211.9428,652.776 -2.2788,1.56 2.2788,-1.56"
           id="path3882"
           style="fill:none;fill-opacity:1;fill-rule:evenodd;stroke:#000000;stroke-opacity:1" />
        <path
           d="m 126.51,653.616 c 0,0 0,0 0,0 0,0.72 0,0.72 0,0.72 -0.72,0 0,0 0,-0.72 0,0 0,0 0,0"
           id="path3884"
           style="fill:none;fill-opacity:1;fill-rule:evenodd;stroke:#000000;stroke-opacity:1" />
        <path
           d="m 135.51,654.336 c 0,0 0,0 0.72,0 0,0 -0.72,0 -0.72,0"
           id="path3888"
           style="fill:none;fill-opacity:1;fill-rule:evenodd;stroke:#000000;stroke-opacity:1" />
        <path
           d="m 184.2252,655.056 v 0 c 0,0 0,0 0,0 0,0 0,0 0,0 v 0"
           id="path3892"
           style="fill:none;fill-opacity:1;fill-rule:evenodd;stroke:#000000;stroke-opacity:1" />
        <path
           d="m 210.3828,654.336 v 0.72 l -0.7188,0.72"
           id="path3894"
           style="fill:none;fill-opacity:1;fill-rule:evenodd;stroke:#000000;stroke-opacity:1" />
        <path
           d="m 219.3828,655.056 v 1.56 c 0,0 0,0 -0.72,0 0,0 0,0 0,0 0,-0.84 0,-1.56 0.72,-2.28"
           id="path3896"
           style="fill:none;fill-opacity:1;fill-rule:evenodd;stroke:#000000;stroke-opacity:1" />
        <path
           d="m 140.6688,655.776 0.84,0.84 c 0,0 0,0 0,0 -0.84,0 -0.84,-0.84 -0.84,-0.84"
           id="path3900"
           style="fill:none;fill-opacity:1;fill-rule:evenodd;stroke:#000000;stroke-opacity:1" />
        <path
           d="m 145.9488,656.616 c 0,0 0.72,0.72 0,0.72 0,0 0,0 0,-0.72 v 0"
           id="path3904"
           style="fill:none;fill-opacity:1;fill-rule:evenodd;stroke:#000000;stroke-opacity:1" />
        <path
           d="m 135.51,656.616 2.9988,3.72 c -1.56,-0.72 -2.2788,-3 -2.9988,-3.72"
           id="path3908"
           style="fill:none;fill-opacity:1;fill-rule:evenodd;stroke:#000000;stroke-opacity:1" />
        <path
           d="m 131.79,657.336 v 3.7188 c -1.56,0 -2.28,-1.4388 -3,-2.2788 0,0 0,0 0,0 0,-0.72 0,0 0,0 0,0 0.72,0 0.72,0 0,0 0,0 0.72,-0.72 0,0 0,0 0,0 l 0.72,-0.72"
           id="path3912"
           style="fill:none;fill-opacity:1;fill-rule:evenodd;stroke:#000000;stroke-opacity:1" />
        <path
           d="m 193.224,657.336 h 4.44 c 0.72,0 0.72,0 0.72,0 h 3.72 l -3,1.44 c 0,0 0,0 0,0 0,0 0,0 0,0 0,0.84 0,0.84 0,0.84 l 2.28,-0.84 c 0,0 0,0 0,0 -0.72,0.84 -0.72,0.84 -0.72,0 -0.72,0 -0.72,0.84 -0.72,0.84 0,0 -0.84,0 -0.84,0 0,0 0,0 -0.72,0 0,0 0.72,0 0.72,0 0,-0.84 0,-0.84 0,-0.84 l -1.44,0.84 c -3,0 -5.2788,1.4388 -7.4388,1.4388 h -2.28 c 0,0 0,0.72 0,0.72 h 3.72 c 0,0 0,0 0,0 -0.72,0 -0.72,0 0,0 0,0 0,0.84 0,0.84 l 1.5588,-0.84 c 0,0 0,0 0,0 h 1.44 c 0,0 -0.72,0 -0.72,0 0,0 0.72,0.84 0.72,0 0,0 0,0 0,0 l 3.72,-0.72 c 0,0 0,0.72 0,0.72 l 3,-0.72 c 0,0 -0.72,0 -0.72,0.72 0,0 0,0 0,0 0,0 0,0 0,0 0,0 0,0 0,0 l -2.28,0.84 c 0,0 0.72,0 0.72,0 0,0 0.84,0 0.84,0 l 3,-0.84 c 0,0 0,-0.72 0,-0.72 0.72,0 0.72,-0.7188 0.72,-1.4388 l -0.72,2.9988 c -1.56,0.72 -3.84,1.44 -6,2.16 -3.72,0.84 -6.7188,0.84 -10.5588,0.84 0,0 0,0 0,-0.84 -1.44,0 -2.16,0.84 -3.72,0 -0.72,0 -1.44,0 -2.28,-0.72 3,-3 6.84,-5.2788 10.56,-6.7188 0.72,0 1.44,0 2.2788,0"
           id="path3914"
           style="fill:none;fill-opacity:1;fill-rule:evenodd;stroke:#000000;stroke-opacity:1" />
        <path
           d="m 146.6688,657.336 c 0,0.72 0,0.72 0.84,0.72 -0.84,0 -0.84,0 -0.84,0 0,-0.72 0,-0.72 0,-0.72"
           id="path3916"
           style="fill:none;fill-opacity:1;fill-rule:evenodd;stroke:#000000;stroke-opacity:1" />
        <path
           d="m 204.384,657.336 -0.72,0.72 c 0,0 0,0 0,-0.72"
           id="path3918"
           style="fill:none;fill-opacity:1;fill-rule:evenodd;stroke:#000000;stroke-opacity:1" />
        <path
           d="m 218.6628,657.336 -0.72,3 h -0.84 c -0.72,-0.72 -1.44,0 -2.16,0 0,0 0,0 0.72,-0.72 0,0 0,0 0,0 0,0 0.72,0 0.72,0 l 0.72,-0.84 c 0,0 0.84,0 0.84,0 l 0.72,-1.44"
           id="path3924"
           style="fill:none;fill-opacity:1;fill-rule:evenodd;stroke:#000000;stroke-opacity:1" />
        <path
           d="m 145.2288,658.056 0.72,0.72 c 0,0 0,0.84 0,0.84 0,0 0,0 -0.72,-0.84 v -0.72"
           id="path3928"
           style="fill:none;fill-opacity:1;fill-rule:evenodd;stroke:#000000;stroke-opacity:1" />
        <path
           d="m 219.3828,658.056 v 0.72 -0.72"
           id="path3932"
           style="fill:none;fill-opacity:1;fill-rule:evenodd;stroke:#000000;stroke-opacity:1" />
        <path
           d="m 208.104,659.616 v 0 l -0.72,0.72 0.72,-0.72"
           id="path3940"
           style="fill:none;fill-opacity:1;fill-rule:evenodd;stroke:#000000;stroke-opacity:1" />
        <path
           d="m 218.6628,659.616 0.72,0.72 c -0.72,0 -0.72,0 -0.72,0 0,0 0,-0.72 0,-0.72"
           id="path3942"
           style="fill:none;fill-opacity:1;fill-rule:evenodd;stroke:#000000;stroke-opacity:1" />
        <path
           d="m 148.2276,660.336 3,0.7188 c 0.72,0 0.72,0 0.72,-0.7188 0.72,0 1.56,0 2.28,0.7188 0.72,0.72 2.28,0 3.72,0.72 0,0 0,-0.72 0,-0.72 0,0 0,0 -0.72,0 h 2.28 c 0,0 0,0 -0.84,0 0,0 0,0 0,0.72 0,0 -0.72,-0.72 -0.72,-0.72 0,1.56 1.56,1.56 2.28,1.56 0,0.72 0,0.72 0,1.44 0,0 0,0 0,0 v 0.72 l 1.44,1.56 c 0,0 0.84,0 0.84,0 l -1.56,-1.56 c 0,0 0,0 0.72,-0.72 0,0 0,0 0,0 h 0.84 l 2.16,2.28 v 1.44 c 0,0 0,0 0,0 l -0.72,-0.72 c -0.72,0 -0.72,0 -0.72,0 0,0 -0.72,0 0,0 0,0.72 0.72,0.72 1.44,1.56 0,0 0,0 0,0 -0.72,0 -0.72,0.72 -0.72,0.72 l -5.28,1.44 -1.44,-3 c 0,0 0.72,0 0.72,0 0.72,0 0.72,0 0.72,0 l -4.44,-1.44 c 0,0 0,0 0,0 0,0 0,0 0.72,0.72 l -0.72,-0.72 -2.28,-1.56 c 0,0 0,0 0,0 -0.72,-0.72 -0.72,-0.72 -1.44,-0.72 -0.84,-1.44 -1.56,-1.44 -2.9988,-2.28 0,0 0,0 0,0 l 2.9988,1.56 c 3,0 5.16,1.44 7.44,3 0,0 0,0 0,0 l -1.44,-1.56 c 0,0 0,0 0,0 l -8.28,-4.4388 c 0,0 0,0 0,0"
           id="path3944"
           style="fill:none;fill-opacity:1;fill-rule:evenodd;stroke:#000000;stroke-opacity:1" />
        <path
           d="m 155.6676,660.336 c 0,0 0,0 0,0 0,0 0,0 0,0 0,0 -0.72,0 0,0"
           id="path3946"
           style="fill:none;fill-opacity:1;fill-rule:evenodd;stroke:#000000;stroke-opacity:1" />
        <path
           d="m 129.51,661.0548 0.72,0.72 c 0,0 0,0 0,0 v 1.56 c 0,0 -0.72,0 -0.72,0 v -2.28 c 0,0 0,0 0,0"
           id="path3952"
           style="fill:none;fill-opacity:1;fill-rule:evenodd;stroke:#000000;stroke-opacity:1" />
        <path
           d="m 160.2276,661.0548 c 0,0.72 0.72,0.72 0.72,1.56 0,0 -0.72,-0.84 -0.72,-1.56"
           id="path3956"
           style="fill:none;fill-opacity:1;fill-rule:evenodd;stroke:#000000;stroke-opacity:1" />
        <path
           d="m 202.104,661.0548 c 0,0 0,0.72 0,0.72 -0.72,0 -0.72,0 -0.72,0 0.72,0 0.72,-0.72 0.72,-0.72"
           id="path3960"
           style="fill:none;fill-opacity:1;fill-rule:evenodd;stroke:#000000;stroke-opacity:1" />
        <path
           d="m 217.1028,661.0548 0.84,0.72 c 0,0 0,0.84 0,1.56 l -0.84,1.44 c -0.72,0 -1.44,0 -2.16,0 0,-0.72 0,-1.44 0,-2.16 0.72,0 0.72,-0.84 1.44,-0.84 l 0.72,-0.72"
           id="path3962"
           style="fill:none;fill-opacity:1;fill-rule:evenodd;stroke:#000000;stroke-opacity:1" />
        <path
           d="m 143.6688,662.6148 c 0,0 0,0 0,0 0,0.72 0,0 -0.72,0 0,0 0,0 0.72,0"
           id="path3966"
           style="fill:none;fill-opacity:1;fill-rule:evenodd;stroke:#000000;stroke-opacity:1" />
        <path
           d="m 141.5088,662.6148 c 0,0 0,0.72 0,0.72 0,0 0,0 -0.84,-0.72"
           id="path3968"
           style="fill:none;fill-opacity:1;fill-rule:evenodd;stroke:#000000;stroke-opacity:1" />
        <path
           d="m 197.664,662.6148 c 0,0.72 0,0 0,0 0,0 0,0 0,0"
           id="path3970"
           style="fill:none;fill-opacity:1;fill-rule:evenodd;stroke:#000000;stroke-opacity:1" />
        <path
           d="m 148.2276,663.3348 c 0,0 0,0 0,0 0.72,0.72 0.72,0.72 1.44,1.44 0,0 0,0 0,0 h 0.84 c 0,0 0,0 -0.84,0 h -0.72 c 0,0 0,0.84 -0.72,0.84 0.72,0.72 0.72,0.72 1.44,1.44 0,0 0,0 0,0 0,-0.72 0,-0.72 0,-1.44 l 0.84,0.72 1.44,0.72 c 0,0 0,0 0,0 l 2.28,1.56 c 0,0 0.72,0.72 1.44,0 0,0 0,0 0,-0.84 h 0.84 c 0,0 0,0.84 0,0.84 0,0 0,0 0,0 l 0.72,2.16 3,4.56 c 0,0 0,0 0,0.72 0,0 0,0 0,0 0,0.72 -0.72,0.72 -0.72,0.72 0,0 0,-0.72 0,-0.72 l -0.84,0.72 c -1.44,0 -2.16,0 -3.72,0 -1.44,0.8388 -3.72,0.8388 -6,0 -0.72,0 -1.4388,0 -2.2788,-0.72 -2.16,-1.44 -2.16,-4.44 -4.44,-6.72 1.44,0 3,0 3.72,0.72 0,0.72 0.72,0.72 0.72,0.72 0.84,-0.72 0,-0.72 -0.72,-0.72 0,-0.72 0,-0.72 0,-0.72 0,0 0.72,0 0.72,0 1.5588,1.44 2.9988,2.28 4.5588,3 0,0.72 0.72,0.72 0.72,1.44 0.72,0 1.56,0.84 1.56,0.84 0,0 0,-0.84 0,-0.84 l -1.56,-0.72 c 0.72,0 0.72,0.72 1.56,0.72 0,0 0,-0.72 0.72,-0.72 l -6,-5.28 c 1.44,1.56 2.28,3 4.44,3.84 0,0 0,-0.84 0,-0.84 0,0 0,0 0,0 l -0.72,-0.72 c 0,0 0,0 0,0 l -2.28,-2.28 c 0,0 0,0 0,0 0,0 0,-0.72 -0.72,-0.72 0,0 0,0 -0.72,-0.72 0,0 0,0 0,0.72 0,0 0,0 0,0 l -0.7188,-3.72 c 0,0 0.7188,0 0.7188,0"
           id="path3972"
           style="fill:none;fill-opacity:1;fill-rule:evenodd;stroke:#000000;stroke-opacity:1" />
        <path
           d="m 156.5076,663.3348 1.44,0.72 -1.44,-0.72"
           id="path3974"
           style="fill:none;fill-opacity:1;fill-rule:evenodd;stroke:#000000;stroke-opacity:1" />
        <path
           d="m 211.1028,663.3348 -1.4388,3.72 1.4388,-3.72"
           id="path3978"
           style="fill:none;fill-opacity:1;fill-rule:evenodd;stroke:#000000;stroke-opacity:1" />
        <path
           d="m 147.5088,664.7748 0.7188,0.84 c 0,0 0,-0.84 -0.7188,-0.84"
           id="path3982"
           style="fill:none;fill-opacity:1;fill-rule:evenodd;stroke:#000000;stroke-opacity:1" />
        <path
           d="m 140.6688,665.6148 c 0.84,0 0.84,0 1.56,0.72 -0.72,0 -1.56,0 -1.56,-0.72 0,0 0,0 0,0"
           id="path3988"
           style="fill:none;fill-opacity:1;fill-rule:evenodd;stroke:#000000;stroke-opacity:1" />
        <path
           d="m 166.2264,665.6148 1.44,0.72 h 1.56 l 0.72,2.28 c 0,0 -0.72,0 -0.72,0 0,0 0.72,0 0.72,0.72 v 0.72 c 0.72,0.72 1.44,1.56 2.28,1.56 0,0 0.72,0.72 0.72,1.44 v 0.72 c 0.72,0 0.72,0 0.72,0.84 0,0 0,0 0,0 l -6,0.72 h -1.44 l -0.72,1.44 c -0.8388,0.8388 -1.5588,0.8388 -1.5588,0.8388 l -3,-1.5588 c 0,0 0,-0.72 0,-0.72 l -1.44,-3 0.72,0.72 c 1.44,-0.72 2.28,0.72 3.72,0.72 0.72,0 0.72,0.84 1.5588,0.84 0,-0.84 0,-0.84 0,-0.84 l -1.5588,-0.72 c -0.72,0 -0.72,0 -0.72,0 l -3,-1.44 c 0,0 0,0 0.72,0 l 7.4388,2.16 -3.7188,-2.16 -1.44,-0.84 2.2788,-0.72 0.72,-1.44 c 0,0 0,0 0.72,0 0,0 0,0 0,-0.84 h -0.72 c 0,-0.72 -0.72,-1.44 -0.72,-2.16 0,0 0,0 0,0"
           id="path3990"
           style="fill:none;fill-opacity:1;fill-rule:evenodd;stroke:#000000;stroke-opacity:1" />
        <path
           d="m 201.384,665.6148 v 0 l -0.72,0.72 c -0.72,0 -0.72,0 -0.72,0 0,0.72 0,0.72 -0.84,0.72 l -3.72,3 -1.44,0.72 c 0,0 0.72,0 0.72,0 1.56,-0.72 2.28,-1.44 3.72,-2.16 1.56,-0.84 2.28,-1.56 3.72,-2.28 -1.44,1.44 -3.72,2.28 -5.16,3.72 0,0 0,0 0,0 0,0.72 0,0.72 0,0.72 l 2.16,-1.44 2.28,-1.56 c 0,0.84 -0.72,0.84 -0.72,0.84 v 0.72 c 0,0.72 0,0 0.72,0 l -1.44,1.44 c 0,0 0,0 0,0.84 0,0 0,0 0,0 0,0 0,0.72 0,0.72 l 2.16,-2.28 -1.44,3 c -2.28,1.56 -6,2.28 -9.7188,3 -1.56,0 -2.28,0.72 -3.72,0.72 0.72,-0.72 1.44,-2.16 2.16,-3 1.56,-3 4.5588,-5.16 6.8388,-6 0,0 0,0 0.72,-0.72 0,0 0,0.72 0,0.72 0,0 0.72,0 0.72,-0.72 0,0 0,0 -0.72,0 0.72,0 0.72,0 0.72,0 l -0.72,0.72 2.16,-1.44 2.28,-0.72"
           id="path3992"
           style="fill:none;fill-opacity:1;fill-rule:evenodd;stroke:#000000;stroke-opacity:1" />
        <path
           d="m 197.664,665.6148 v 0 l -0.72,0.72 c 0,-0.72 0.72,-0.72 0.72,-0.72"
           id="path3994"
           style="fill:none;fill-opacity:1;fill-rule:evenodd;stroke:#000000;stroke-opacity:1" />
        <path
           d="m 195.384,666.3348 v 0 l -4.4388,2.28 c 0,0 0,-0.84 0,-0.84 -0.72,0 -0.72,0 -0.72,0 0,0.84 0,0.84 0,0.84 -0.84,0 -0.84,0 -1.56,0 h -0.72 c 0,0.72 0.72,0.72 0.72,0.72 -0.72,0 -2.28,0 -3,0.72 -0.72,0.72 -1.44,0.72 -2.28,0.72 -1.44,0.84 -3,0.84 -3.72,1.56 1.56,0.72 2.28,-0.72 3.72,-0.72 0.84,-0.84 1.56,0 2.28,-0.84 2.28,0 3.72,-1.44 6,-1.44 0,0 0,-0.72 0,-0.72 -0.72,2.16 -2.28,3.72 -3.72,5.16 -0.72,1.56 -3,1.56 -3.72,0.84 -3,0 -6,-0.84 -8.2788,-0.84 -0.72,-0.72 0,-0.72 -0.72,-0.72 0.72,-0.72 2.1588,-1.44 2.9988,-2.28 2.16,-2.16 5.16,-3 8.16,-3.72 1.56,-0.72 3,-0.72 4.56,-0.72 0,0 0,0 0,0.72"
           id="path3998"
           style="fill:none;fill-opacity:1;fill-rule:evenodd;stroke:#000000;stroke-opacity:1" />
        <path
           d="m 159.5076,666.3348 0.72,0.72"
           id="path4000"
           style="fill:none;fill-opacity:1;fill-rule:evenodd;stroke:#000000;stroke-opacity:1" />
        <path
           d="m 166.9464,667.0548 c 0,0 0,0 0,0 0,0.72 0,0 -0.72,0.72 0,-0.72 0,-0.72 0.72,-0.72"
           id="path4004"
           style="fill:none;fill-opacity:1;fill-rule:evenodd;stroke:#000000;stroke-opacity:1" />
        <path
           d="m 190.9452,667.0548 c 0,0 0,0 -0.72,0"
           id="path4006"
           style="fill:none;fill-opacity:1;fill-rule:evenodd;stroke:#000000;stroke-opacity:1" />
        <path
           d="m 204.384,667.7748 c 0,0 0,0 -0.72,0.84"
           id="path4010"
           style="fill:none;fill-opacity:1;fill-rule:evenodd;stroke:#000000;stroke-opacity:1" />
        <path
           d="m 168.3864,667.7748 0.84,0.84 c 0,0 0,0 -0.84,0 0,0 0,0 0,-0.84"
           id="path4012"
           style="fill:none;fill-opacity:1;fill-rule:evenodd;stroke:#000000;stroke-opacity:1" />
        <path
           d="m 187.9452,667.7748 c 0,0 0,0 0.72,0 -0.72,0.84 -0.72,0.84 -0.72,0.84 0,0 0,-0.84 0,-0.84"
           id="path4016"
           style="fill:none;fill-opacity:1;fill-rule:evenodd;stroke:#000000;stroke-opacity:1" />
        <path
           d="m 148.2276,668.6148 2.28,2.16 -0.84,-0.72 c -0.72,0 -0.72,0 -0.72,0.72 0,-0.72 -0.72,-0.72 -0.72,-0.72 0,0 0,0 0,0 0.72,0 0.72,0 0.72,0 0,-0.72 -0.72,-0.72 -0.72,-1.44 0,0 0,0 0,0"
           id="path4018"
           style="fill:none;fill-opacity:1;fill-rule:evenodd;stroke:#000000;stroke-opacity:1" />
        <path
           d="m 167.6664,669.3348 0.72,0.72 h -0.72 c 0,0 0,0 0,-0.72"
           id="path4026"
           style="fill:none;fill-opacity:1;fill-rule:evenodd;stroke:#000000;stroke-opacity:1" />
        <path
           d="m 164.6676,670.7748 h 1.5588 c -0.72,0 -1.5588,0 -1.5588,0 0,0 0,0 0,0"
           id="path4028"
           style="fill:none;fill-opacity:1;fill-rule:evenodd;stroke:#000000;stroke-opacity:1" />
        <path
           d="m 147.5088,670.7748 0.7188,0.84 -1.5588,-0.84 c 0,0 0.84,0 0.84,0"
           id="path4030"
           style="fill:none;fill-opacity:1;fill-rule:evenodd;stroke:#000000;stroke-opacity:1" />
        <path
           d="m 145.2288,670.7748 2.28,1.56 -1.56,-0.72 -0.72,-0.84"
           id="path4032"
           style="fill:none;fill-opacity:1;fill-rule:evenodd;stroke:#000000;stroke-opacity:1" />
        <path
           d="m 162.5076,670.7748 c 0,0 0,0 0,0.84 0,0 0,0 0,-0.84 0,0 0,0 0,0"
           id="path4034"
           style="fill:none;fill-opacity:1;fill-rule:evenodd;stroke:#000000;stroke-opacity:1" />
        <path
           d="m 195.384,670.7748 c 0,0 0,0 0.84,0 0,0.84 0,0 0.72,0 l -2.28,1.56 c 0.72,-0.72 0.72,-0.72 0.72,-0.72 0,0 0,0 0,0 0,-0.84 0,-0.84 0,-0.84"
           id="path4036"
           style="fill:none;fill-opacity:1;fill-rule:evenodd;stroke:#000000;stroke-opacity:1" />
        <path
           d="m 193.944,671.6148 c 0,0 -0.72,0 -0.72,0 0,0 0,0 0.72,0"
           id="path4038"
           style="fill:none;fill-opacity:1;fill-rule:evenodd;stroke:#000000;stroke-opacity:1" />
        <path
           d="m 145.9488,672.3348 1.56,1.44 c -0.84,0 -1.56,-0.72 -2.28,-1.44"
           id="path4040"
           style="fill:none;fill-opacity:1;fill-rule:evenodd;stroke:#000000;stroke-opacity:1" />
        <path
           d="m 201.384,673.7748 3,4.5588 3,4.44 2.28,2.28 2.2788,3 0.72,2.2788 c 0,0 -0.72,0 -0.72,0 -1.56,0.72 -2.9988,0 -5.2788,0 -0.72,0 -2.28,-0.84 -3,-0.84 -1.56,-0.7188 -2.28,-0.7188 -3,-0.7188 -9.7188,-2.16 -20.2788,-2.16 -30.7176,-2.16 -3.72,0.72 -7.4388,0.72 -11.2788,0.72 -4.44,0 -9.72,0.72 -14.1588,1.44 -2.28,0.7188 -5.28,0.7188 -7.56,1.5588 0,0 0,0 -0.7188,0 h -0.72 c 0,0 0,0 0,-0.84 0,-0.7188 0.72,-0.7188 0.72,-1.4388 l 2.9988,-3 5.28,-8.9988 3,1.5588 c 0.7188,0 0,1.44 -0.84,2.16 -0.72,1.56 -1.44,3.84 -3,5.28 0,0 0.84,0 0.84,0.72 11.9988,-2.16 23.8776,-2.16 36.7164,-2.16 2.16,0 4.44,0 7.44,0 3.72,0 7.5588,0.72 11.2788,1.44 0.72,0.72 2.16,0 3,0 0.72,0 0.72,-1.44 0.72,-1.44 -0.72,-0.84 -0.72,-0.84 -0.72,-0.84 l -2.28,-3 -2.28,-4.4388 3,-2.28"
           id="path4044"
           style="fill:none;fill-opacity:1;fill-rule:evenodd;stroke:#000000;stroke-opacity:1" />
        <path
           d="m 151.2276,674.6148 3,1.44 -3,-1.44 c 0,0 0,-0.84 0,0"
           id="path4046"
           style="fill:none;fill-opacity:1;fill-rule:evenodd;stroke:#000000;stroke-opacity:1" />
        <path
           d="m 148.2276,674.6148 c 0,0.72 0,0.72 0.72,1.44 l -1.4388,-1.44 c 0,0 0,0 0.7188,0"
           id="path4048"
           style="fill:none;fill-opacity:1;fill-rule:evenodd;stroke:#000000;stroke-opacity:1" />
        <path
           d="m 179.6652,678.3336 v 0 c 0,0 0,0 0,0 0,0 0,0 0,0"
           id="path4076"
           style="fill:none;fill-opacity:1;fill-rule:evenodd;stroke:#000000;stroke-opacity:1" />
        <path
           d="m 198.384,679.0536 c 0,0 0,0 0,0 0,0 0,0 0,0 0,0 0,0 0,0"
           id="path4086"
           style="fill:none;fill-opacity:1;fill-rule:evenodd;stroke:#000000;stroke-opacity:1" />
        <path
           d="m 159.5076,679.7736 v 0 c 0,0 0,0 0,0 0,0 0,0 0,0"
           id="path4088"
           style="display:none;fill:#000000;fill-opacity:1;fill-rule:evenodd;stroke:none" />
        <path
           d="m 179.6652,679.0536 c 0,0 0,0 0,0 0,0.72 0,0.72 0,0.72 0,0 0,0 -0.72,0 0,0 0,-0.72 0.72,-0.72"
           id="path4090"
           style="display:none;fill:#000000;fill-opacity:1;fill-rule:evenodd;stroke:none" />
        <path
           d="m 194.664,679.0536 c 0,0 0,0 0,0 0,0.72 0,0.72 0,0.72 h -0.72 c 0,0 0,-0.72 0.72,-0.72"
           id="path4092"
           style="display:none;fill:#000000;fill-opacity:1;fill-rule:evenodd;stroke:none" />
        <path
           d="m 197.664,679.0536 c 0,0.72 0.72,0.72 0.72,0.72 -0.72,0.84 -0.72,0 -0.72,0 0,0 0,-0.72 0,-0.72"
           id="path4094"
           style="display:none;fill:#000000;fill-opacity:1;fill-rule:evenodd;stroke:none" />
        <path
           d="m 176.6652,679.7736 c 0,0 0,0 0,0 0,0.84 0,0 -0.7188,0"
           id="path4096"
           style="display:none;fill:#000000;fill-opacity:1;fill-rule:evenodd;stroke:none" />
        <path
           d="m 164.6676,679.7736 c 0,0 0,0 0,0 0,0.84 0,0.84 0,0.84 0,0 0,0 0,0 0,0 0,-0.84 0,-0.84"
           id="path4098"
           style="display:none;fill:#000000;fill-opacity:1;fill-rule:evenodd;stroke:none" />
        <path
           d="m 172.2264,680.6136 v 0 c 0.72,0 0,0 0,0 0,0 0,0 -0.84,0 0,0 0,0 0,0 0,0 0,0 0,0"
           id="path4100"
           style="display:none;fill:#000000;fill-opacity:1;fill-rule:evenodd;stroke:none" />
        <path
           d="m 153.5076,680.6136 c 0,0 0,0 0.72,0 0,0 0,0.72 0,0.72 h -0.72 c 0,-0.72 0,-0.72 0,-0.72"
           id="path4102"
           style="display:none;fill:#000000;fill-opacity:1;fill-rule:evenodd;stroke:none" />
        <path
           d="m 178.9452,680.6136 v 0 c 0,0 0,0 0,0.72 0,0 0,0 0,-0.72 -0.72,0 0,0 0,0"
           id="path4104"
           style="display:none;fill:#000000;fill-opacity:1;fill-rule:evenodd;stroke:none" />
        <path
           d="m 189.3852,680.6136 c 0,0 0.84,0 0.84,0 0,0 -0.84,0 -0.84,0.72 0,0 0,0 0,0 v -0.72 c 0,0 0,0 0,0"
           id="path4106"
           style="display:none;fill:#000000;fill-opacity:1;fill-rule:evenodd;stroke:none" />
        <path
           d="m 151.9476,681.3336 c 0.72,0 0.72,0 0,0 0,0 0,0 0,0 0,0 0,0 0,0 0,0 0,0 0,0"
           id="path4108"
           style="display:none;fill:#000000;fill-opacity:1;fill-rule:evenodd;stroke:none" />
        <path
           d="m 162.5076,680.6136 h 1.44 c -0.72,0.72 -0.72,0.72 -1.44,0.72 0,0 -0.84,-0.72 0,-0.72"
           id="path4110"
           style="display:none;fill:#000000;fill-opacity:1;fill-rule:evenodd;stroke:none" />
        <path
           d="m 176.6652,680.6136 h 0.72 c 0,0 0,0 0,0.72 0,0 0,0 -0.72,0 0,0 0,-0.72 0,-0.72"
           id="path4112"
           style="display:none;fill:#000000;fill-opacity:1;fill-rule:evenodd;stroke:none" />
        <path
           d="m 180.3852,681.3336 c 0,0 0.84,0 0.84,0 0,0 0,0 -0.84,0 0,0 0,0.72 0,0.72 0,0 0,0 -0.72,0 0,-0.72 0.72,-0.72 0.72,-0.72"
           id="path4114"
           style="display:none;fill:#000000;fill-opacity:1;fill-rule:evenodd;stroke:none" />
        <path
           d="m 185.6652,681.3336 h 0.72 c 0,0 0,0 0,0 0,0 -0.72,0 -0.72,0 0,0 0,0 0,0"
           id="path4116"
           style="display:none;fill:#000000;fill-opacity:1;fill-rule:evenodd;stroke:none" />
        <path
           d="m 196.224,681.3336 v 0 c 0,0 0.72,0 0,0 l -0.84,0.72 c -0.72,0 -0.72,-0.72 -0.72,-0.72"
           id="path4118"
           style="display:none;fill:#000000;fill-opacity:1;fill-rule:evenodd;stroke:none" />
        <path
           d="m 192.3852,681.3336 c 0,0 0,0 0,0 0,0.72 0,0.72 0,0 0,0 0,0 0,0"
           id="path4120"
           style="display:none;fill:#000000;fill-opacity:1;fill-rule:evenodd;stroke:none" />
        <path
           d="m 199.944,681.3336 c 0,0 0.72,0 0.72,0 0,0 0,0.72 0,0.72 l -0.72,-0.72 c 0,0 0,0 0,0"
           id="path4122"
           style="display:none;fill:#000000;fill-opacity:1;fill-rule:evenodd;stroke:none" />
        <path
           d="m 149.6676,682.0536 v 0 c 0,0 0,0 0,0.72 0,0 0,0 0,-0.72 0,0 0,0 0,0"
           id="path4124"
           style="display:none;fill:#000000;fill-opacity:1;fill-rule:evenodd;stroke:none" />
        <path
           d="m 158.6676,682.0536 c 0,0 0,0 0,0 0.84,0 0,0 0,0.72 h -0.72 c 0,-0.72 0.72,-0.72 0.72,-0.72 0,0 0,0 0,0"
           id="path4126"
           style="display:none;fill:#000000;fill-opacity:1;fill-rule:evenodd;stroke:none" />
        <path
           d="m 151.2276,682.7736 c 0,0 0,0 0,0 0,0 0,0 0,0 0,0.84 -0.72,0.84 -0.72,0 h 0.72"
           id="path4128"
           style="display:none;fill:#000000;fill-opacity:1;fill-rule:evenodd;stroke:none" />
        <path
           d="m 118.95096,613.8996 c -0.72,-2.28 -2.16,-3.84 -3.72,-3.84 -1.43952,0 -2.99952,0.84 -3.71952,1.56 -0.72,1.44 -1.56,3.72 -1.56,5.9988 0,3 0.84,4.44 1.56,6 0.72,1.44 2.28,2.28 3.71952,2.28 1.56,0 3,-1.56 3,-3.84 h -0.72 c 0,1.56 -0.72,3 -2.28,3 -2.27952,0 -4.43952,-2.16 -4.43952,-7.44 0,-5.2788 2.16,-6.7188 4.43952,-6.7188 1.56,0 2.28,2.16 3,3"
           id="path4138"
           style="display:inline;fill:none;fill-opacity:1;fill-rule:evenodd;stroke:#000000;stroke-opacity:1" />
        <path
           d="m 121.23,610.8996 6,13.4388 h -5.28 v 0.72 h 6 v 0 l -5.16,-14.1588 h 5.16 v -0.84 h -6.72"
           id="path4140"
           style="display:inline;fill:none;fill-opacity:1;fill-rule:evenodd;stroke:#000000;stroke-opacity:1" />
        <path
           d="m 138.5088,616.0584 c 0,-4.4388 -0.84,-5.9988 -3.8388,-5.9988 -2.16,0 -2.88,1.56 -2.88,5.9988 v 9 h 0.72 v -9 c 0,-3.7188 0,-5.1588 2.16,-5.1588 2.2788,0 2.9988,1.44 2.9988,5.1588 v 9 l 1.26311,-0.003"
           id="path4142"
           style="display:inline;fill:none;fill-opacity:1;fill-rule:evenodd;stroke:#000000;stroke-opacity:1"
           sodipodi:nodetypes="cssccssscc" />
        <path
           d="m 214.1028,625.0584 c 0,-3 -0.72,-5.16 -1.44,-7.44 l -0.72,-7.5588 h -1.56 l -2.9988,16.5588 h 0.72 l 1.56,-7.56 c 0.7188,-3 0.7188,-5.1588 1.4388,-7.4388 v 0 c 0,2.28 0.84,4.4388 1.56,7.4388 l 0.72,7.56 h 1.56 l 1.44,-7.56 c 0,-3 0.72,-5.1588 0.72,-7.4388 v 0 c 0.84,2.28 1.56,4.4388 1.56,7.4388 l 1.44,7.56 h 0.84 l -3,-16.5588 h -0.84 l -1.44,7.5588 c -0.72,2.28 -0.72,5.28 -1.56,7.44"
           id="path4144"
           style="display:inline;fill:#000000;fill-opacity:1;fill-rule:evenodd;stroke:#000000;stroke-opacity:1" />
        <path
           d="m 223.1016,615.3396 -1.44,-5.28 h -0.7188 l 4.4388,16.5588 h 0.72 l 4.56,-16.5588 h -0.72 l -1.56,5.28 z m 3.84,5.2788 c 0,1.44 -0.84,3 -0.84,4.44 v 0 c -0.72,-1.44 -0.72,-3 -1.44,-4.44 l -0.72,-4.56 h 4.44"
           id="path4146"
           style="display:inline;fill:#000000;fill-opacity:1;fill-rule:evenodd;stroke:#000000;stroke-opacity:1" />
        <path
           d="m 231.3816,612.3396 c 0.72,-0.72 1.44,-1.44 2.28,-1.44 1.44,0 3,1.44 3,5.1588 v 10.56 h 0.72 v -10.56 c 0,-3.7188 -1.56,-5.9988 -3.72,-5.9988 -0.84,0 -1.56,0.84 -2.28,1.56"
           id="path4148"
           style="display:inline;fill:none;fill-opacity:1;fill-rule:evenodd;stroke:#000000;stroke-opacity:1" />
      </g>
      <g
         id="g4210"
         style="display:none" />
      <g
         id="g4224"
         style="display:none" />
      <g
         id="g4240"
         style="display:none" />
      <g
         id="g4254"
         style="display:none" />
      <g
         id="g4270"
         style="display:none" />
      <g
         id="g4284"
         style="display:none" />
    </g>
  </g>
</svg>
