<?xml version="1.0" encoding="UTF-8" standalone="no"?>
<!-- Created with Inkscape (http://www.inkscape.org/) -->

<svg
   width="74.592033mm"
   height="58.502995mm"
   viewBox="0 0 74.592032 58.502995"
   version="1.1"
   id="svg5"
   sodipodi:docname="krzyz_debowy.svg"
   inkscape:version="1.2-dev (0853165845, 2021-06-13, custom)"
   xmlns:inkscape="http://www.inkscape.org/namespaces/inkscape"
   xmlns:sodipodi="http://sodipodi.sourceforge.net/DTD/sodipodi-0.dtd"
   xmlns="http://www.w3.org/2000/svg"
   xmlns:svg="http://www.w3.org/2000/svg">
  <sodipodi:namedview
     id="namedview7"
     pagecolor="#505050"
     bordercolor="#eeeeee"
     borderopacity="1"
     objecttolerance="10.0"
     gridtolerance="10.0"
     guidetolerance="10.0"
     inkscape:pageshadow="0"
     inkscape:pageopacity="0"
     inkscape:pagecheckerboard="0"
     inkscape:document-units="mm"
     showgrid="false"
     inkscape:zoom="0.83150518"
     inkscape:cx="-273.60022"
     inkscape:cy="-61.334555"
     inkscape:window-width="1920"
     inkscape:window-height="1080"
     inkscape:window-x="0"
     inkscape:window-y="0"
     inkscape:window-maximized="1"
     inkscape:current-layer="layer3"
     fit-margin-top="5"
     fit-margin-left="5"
     fit-margin-right="5"
     fit-margin-bottom="5"
     lock-margins="true" />
  <defs
     id="defs2" />
  <g
     inkscape:groupmode="layer"
     id="layer3"
     inkscape:label="Warstwa 3"
     style="display:inline"
     transform="translate(-33.647575,-196.9391)">
    <path
       style="fill:none;stroke:#ffffff;stroke-width:1.00008;stroke-linecap:round;stroke-linejoin:round;stroke-miterlimit:4;stroke-dasharray:none;stroke-opacity:1"
       d="m 101.06828,244.74375 c -1.936212,1.20066 -3.85383,2.63838 -5.965572,1.60114 -1.054867,1.0591 -1.332664,2.17124 -4.15349,3.1098 -0.962171,0.0512 -1.665998,-0.78025 -2.210668,-2.15552 -2.140825,2.7664 -4.393195,2.77413 -6.65453,2.56014 -0.323371,-0.92313 0.666516,-3.17345 -1.69556,-2.25281 -3.141184,0.42584 -4.82983,-1.99182 -6.190164,-4.10516 1.568364,-2.48639 2.979548,-5.22149 6.787365,-4.76739 -0.328913,-2.17679 -1.456476,-4.86352 2.076251,-5.93256 2.575247,0.3522 3.965487,2.08593 5.080408,4.14064 0.497365,-1.59424 0.990112,-3.19376 3.859828,-2.074 1.973921,0.9039 2.524022,2.47174 2.86919,4.13514 2.049035,0.17465 2.355073,-0.99339 3.227562,-1.72507 1.427043,0.33606 2.70262,0.8579 3.09518,2.4628 z"
       id="path38251"
       sodipodi:nodetypes="ccccccccccccccc" />
    <path
       style="fill:none;stroke:#ffffff;stroke-width:1.00008;stroke-linecap:butt;stroke-linejoin:miter;stroke-miterlimit:4;stroke-dasharray:none;stroke-opacity:1"
       d="m 82.363886,242.78169 14.809882,-0.0842"
       id="path40186" />
    <path
       style="fill:none;stroke:#ffffff;stroke-width:1.065;stroke-linecap:butt;stroke-linejoin:round;stroke-miterlimit:4;stroke-dasharray:none;stroke-opacity:1"
       d="m 102.70712,235.20882 -4.260833,-2.43819 -4.206663,-5.1605 c -0.465743,-4.14133 -2.220366,-5.48365 -6.540161,-1.2553 -1.652819,-3.66892 -3.711586,-3.16335 -6.019192,-0.0989 -1.643839,2.1954 -0.93083,4.32573 0.492408,6.43645 3.087679,0.25224 4.451688,2.33257 5.969641,4.24962 1.997049,-4.03295 4.429111,-2.52831 6.729018,2.06114 1.335531,0.0849 2.378604,-0.5734 3.227562,-1.72507 2.33006,0.4218 2.51551,1.5029 3.09518,2.4628 z"
       id="path44457"
       sodipodi:nodetypes="ccccccccccc" />
    <path
       style="fill:none;stroke:#ffffff;stroke-width:0.865;stroke-linecap:butt;stroke-linejoin:miter;stroke-miterlimit:4;stroke-dasharray:none;stroke-opacity:1"
       d="m 85.099437,229.43188 c 4.396981,1.4393 8.633455,3.51382 12.507277,7.02356"
       id="path45480"
       sodipodi:nodetypes="cc" />
    <path
       style="fill:none;stroke:#ffffff;stroke-width:0.965;stroke-linecap:butt;stroke-linejoin:miter;stroke-miterlimit:4;stroke-dasharray:none;stroke-opacity:1"
       d="m 75.22929,241.61921 c -3.386189,-0.61684 -4.502028,-3.00823 -4.108608,-6.5793 -5.473679,0.49266 -10.892817,1.77433 -7.557048,-4.93611 -8.626173,-4.24793 -1.115998,-11.55747 5.145392,-8.10752 0.968044,-1.48099 -1.258993,-5.12132 4.391072,-3.43804 4.490146,2.5423 2.851456,5.439 3.183533,8.16253 2.174698,-1.15954 3.153751,0.0722 4.15553,1.2585 -0.0309,1.7714 0.797778,3.25988 1.733516,4.71311 -2.256771,1.65458 -1.855783,3.82223 -1.187016,6.04157 -2.305012,-0.35757 -4.221866,0.6108 -5.756371,2.88526 z"
       id="path48703"
       sodipodi:nodetypes="cccccccccc" />
    <path
       style="fill:none;stroke:#ffffff;stroke-width:0.865;stroke-linecap:butt;stroke-linejoin:miter;stroke-miterlimit:4;stroke-dasharray:none;stroke-opacity:1"
       d="m 66.683931,226.70896 c 3.167146,2.87806 6.648075,4.6519 10.163072,6.30585"
       id="path49593"
       sodipodi:nodetypes="cc" />
    <path
       style="fill:none;stroke:#ffffff;stroke-width:0.965;stroke-linecap:butt;stroke-linejoin:round;stroke-miterlimit:4;stroke-dasharray:none;stroke-opacity:1"
       d="m 59.659935,224.8864 c -2.50392,1.31461 -7.95752,-3.58852 -3.904541,-5.93174 -9.437592,-3.34316 -7.913191,-5.75012 -5.32683,-8.06638 -0.555135,-3.64457 -0.0678,-6.80097 3.691406,-8.4252 5.614661,-0.43831 5.768123,2.53685 5.93943,5.50086 4.107563,1.27975 5.412936,4.07523 5.328806,7.62231 l 4.058132,2.16101 c -0.693642,1.45135 -0.64521,2.84469 -0.737312,4.24902 -3.391931,-0.94503 -6.752733,-1.73188 -9.049091,2.89012 z"
       id="path51637"
       sodipodi:nodetypes="ccccccccc" />
    <path
       style="fill:none;stroke:#ffffff;stroke-width:0.965;stroke-linecap:butt;stroke-linejoin:miter;stroke-miterlimit:4;stroke-dasharray:none;stroke-opacity:1"
       d="m 55.585687,209.07554 c 1.091885,4.3921 4.003281,6.83139 7.092493,9.07983"
       id="path52299"
       sodipodi:nodetypes="cc" />
    <path
       style="fill:none;stroke:#ffffff;stroke-width:0.965;stroke-linecap:butt;stroke-linejoin:round;stroke-miterlimit:4;stroke-dasharray:none;stroke-opacity:1"
       d="m 62.908129,235.50883 c -2.822758,1.44035 -4.834142,0.58458 -5.857298,-3.06779 -4.363265,-0.71228 -8.276844,-1.81437 -8.475909,-6.13634 -2.398479,-1.92924 -5.107109,-3.75511 -5.858697,-6.23322 -3.880548,-2.62217 -4.665107,-4.93073 -2.104022,-6.90037 2.878297,-0.84509 5.621319,-0.39496 7.572996,1.52837 1.99962,1.97058 4.49205,3.60551 7.570195,4.25518 -3.375188,2.71059 0.719117,6.95456 3.904541,5.93174 -0.194877,3.09772 1.971125,4.05157 3.903699,5.2174 -1.421195,2.545 -0.993435,3.94725 -0.655505,5.40503 z"
       id="path5525"
       sodipodi:nodetypes="cccccscccc" />
    <path
       style="fill:none;stroke:#ffffff;stroke-width:0.965;stroke-linecap:butt;stroke-linejoin:miter;stroke-miterlimit:4;stroke-dasharray:none;stroke-opacity:1"
       d="m 48.135071,218.55779 12.411123,11.54757"
       id="path6833" />
  </g>
</svg>
