<?xml version="1.0" encoding="UTF-8" standalone="no"?>
<svg
   width="210.61501mm"
   height="210.61501mm"
   viewBox="0 0 210.61501 210.61501"
   version="1.1"
   id="svg6"
   inkscape:version="1.1-dev (2afca83fab, 2021-01-02, custom)"
   sodipodi:docname="ksiazki.svg"
   xmlns:inkscape="http://www.inkscape.org/namespaces/inkscape"
   xmlns:sodipodi="http://sodipodi.sourceforge.net/DTD/sodipodi-0.dtd"
   xmlns:xlink="http://www.w3.org/1999/xlink"
   xmlns="http://www.w3.org/2000/svg"
   xmlns:svg="http://www.w3.org/2000/svg">
  <defs
     id="defs2">
    <linearGradient
       id="linearGradient1458">
      <stop
         id="stop1452"
         offset="0"
         style="stop-color:#deddda;stop-opacity:1" />
      <stop
         style="stop-color:#ffffff;stop-opacity:1"
         offset="0.51104856"
         id="stop1454" />
      <stop
         id="stop1456"
         offset="1"
         style="stop-color:#c0bfbc;stop-opacity:1" />
    </linearGradient>
    <linearGradient
       gradientTransform="translate(0,640)"
       gradientUnits="userSpaceOnUse"
       y2="120"
       x2="416"
       y1="120"
       x1="384"
       id="linearGradient1053-2"
       xlink:href="#linearGradient1458" />
  </defs>
  <sodipodi:namedview
     id="base"
     pagecolor="#ffffff"
     bordercolor="#666666"
     borderopacity="1.0"
     inkscape:pageopacity="0.0"
     inkscape:pageshadow="2"
     inkscape:zoom="1.4"
     inkscape:cx="283.92857"
     inkscape:cy="370.35714"
     inkscape:document-units="mm"
     inkscape:current-layer="layer4"
     showgrid="false"
     inkscape:window-width="1920"
     inkscape:window-height="1080"
     inkscape:window-x="0"
     inkscape:window-y="0"
     inkscape:window-maximized="1"
     objecttolerance="10.0"
     gridtolerance="10.0"
     guidetolerance="10.0"
     inkscape:pagecheckerboard="false"
     fit-margin-top="0"
     fit-margin-left="0"
     fit-margin-right="0"
     fit-margin-bottom="0" />
  <g
     inkscape:groupmode="layer"
     id="layer3"
     inkscape:label="Warstwa 2"
     transform="translate(0.03824979,0.09918876)"
     style="display:none">
    <rect
       style="fill:#ffffff;fill-opacity:1;fill-rule:evenodd;stroke-width:0.475574;stroke-linecap:round;stroke-linejoin:round"
       id="rect2775"
       width="210.61501"
       height="210.61501"
       x="-0.038249791"
       y="-0.09918876" />
  </g>
  <g
     inkscape:label="Warstwa 1"
     inkscape:groupmode="layer"
     id="layer1"
     transform="translate(0.03824979,0.09918876)"
     style="display:none">
    <g
       style="display:inline;enable-background:new"
       id="g64"
       transform="matrix(1.4399454,0,0,1.4399454,10.772566,15.605068)">
      <g
         transform="translate(0,-172)"
         style="display:inline"
         id="layer1-3">
        <g
           style="display:inline"
           id="layer9">
          <g
             transform="translate(192.50002,2.5)"
             id="g1308"
             style="display:inline;enable-background:new">
            <rect
               style="display:inline;opacity:1;fill:#f8e45c;fill-opacity:1;stroke:none;stroke-width:6;stroke-linecap:round;stroke-linejoin:miter;stroke-miterlimit:4;stroke-dasharray:none;stroke-dashoffset:0;stroke-opacity:1;marker:none;marker-start:none;marker-mid:none;marker-end:none;paint-order:normal;enable-background:new"
               id="rect1036-36"
               width="16"
               height="24"
               x="-92.500015"
               y="193.5"
               rx="8"
               ry="8.0034189" />
            <rect
               style="display:inline;opacity:1;fill:#2ec27e;fill-opacity:1;stroke:none;stroke-width:6;stroke-linecap:round;stroke-linejoin:miter;stroke-miterlimit:4;stroke-dasharray:none;stroke-dashoffset:0;stroke-opacity:1;marker:none;marker-start:none;marker-mid:none;marker-end:none;paint-order:normal;enable-background:new"
               id="rect1036-3-7"
               width="16"
               height="24"
               x="-92.500015"
               y="209.5"
               rx="8"
               ry="8.0034189" />
            <rect
               style="display:inline;opacity:1;fill:#c061cb;fill-opacity:1;stroke:none;stroke-width:6;stroke-linecap:round;stroke-linejoin:miter;stroke-miterlimit:4;stroke-dasharray:none;stroke-dashoffset:0;stroke-opacity:1;marker:none;marker-start:none;marker-mid:none;marker-end:none;paint-order:normal;enable-background:new"
               id="rect1036-3-3-5"
               width="16"
               height="24"
               x="-92.500015"
               y="225.5"
               rx="8"
               ry="8.0034189" />
            <rect
               style="display:inline;opacity:1;fill:#f66151;fill-opacity:1;stroke:none;stroke-width:6;stroke-linecap:round;stroke-linejoin:miter;stroke-miterlimit:4;stroke-dasharray:none;stroke-dashoffset:0;stroke-opacity:1;marker:none;marker-start:none;marker-mid:none;marker-end:none;paint-order:normal;enable-background:new"
               id="rect1036-3-3-6-3"
               width="16"
               height="24"
               x="-92.500015"
               y="241.5"
               rx="8"
               ry="8.0034189" />
            <g
               style="display:inline;enable-background:new"
               id="g1002"
               transform="matrix(0.25,0,0,0.25,-188.50002,62.499999)">
              <path
                 id="rect954-3"
                 d="m 64,540 v 368 h 320 c 17.728,0 32,-14.272 32,-32 V 572 c 0,-17.728 -14.272,-32 -32,-32 z"
                 style="display:inline;opacity:1;fill:#546a0e;fill-opacity:1;stroke:none;stroke-width:24;stroke-linecap:butt;stroke-linejoin:miter;stroke-miterlimit:4;stroke-dasharray:none;stroke-dashoffset:0;stroke-opacity:1;marker:none;marker-start:none;marker-mid:none;marker-end:none;paint-order:normal;enable-background:new" />
              <path
                 id="rect954-3-6-1"
                 d="m 72,620 v 280 h 312 c 17.728,0 32,-14.272 32,-32 V 652 c 0,-17.728 -14.272,-32 -32,-32 z"
                 style="display:inline;opacity:1;fill:url(#linearGradient1053-2);fill-opacity:1;stroke:none;stroke-width:24;stroke-linecap:butt;stroke-linejoin:miter;stroke-miterlimit:4;stroke-dasharray:none;stroke-dashoffset:0;stroke-opacity:1;marker:none;marker-start:none;marker-mid:none;marker-end:none;paint-order:normal;enable-background:new" />
              <path
                 id="rect954-3-2"
                 d="m 64,540 v 336 h 320 c 17.728,0 32,-14.272 32,-32 V 572 c 0,-17.728 -14.272,-32 -32,-32 z"
                 style="display:inline;opacity:1;fill:#546a0e;fill-opacity:1;stroke:none;stroke-width:24;stroke-linecap:butt;stroke-linejoin:miter;stroke-miterlimit:4;stroke-dasharray:none;stroke-dashoffset:0;stroke-opacity:1;marker:none;marker-start:none;marker-mid:none;marker-end:none;paint-order:normal;enable-background:new" />
              <path
                 id="rect954-3-2-9-0-3"
                 d="m 64,460 v 408 h 320 c 17.728,0 32,-14.272 32,-32 V 492 c 0,-17.728 -14.272,-32 -32,-32 z"
                 style="display:inline;opacity:1;fill:#759414;fill-opacity:1;stroke:none;stroke-width:24;stroke-linecap:butt;stroke-linejoin:miter;stroke-miterlimit:4;stroke-dasharray:none;stroke-dashoffset:0;stroke-opacity:1;marker:none;marker-start:none;marker-mid:none;marker-end:none;paint-order:normal;enable-background:new" />
              <path
                 style="display:inline;opacity:0.187;fill:#ffffff;fill-opacity:1;stroke:none;stroke-width:24;stroke-linecap:butt;stroke-linejoin:miter;stroke-miterlimit:4;stroke-dasharray:none;stroke-dashoffset:0;stroke-opacity:1;marker:none;marker-start:none;marker-mid:none;marker-end:none;paint-order:normal;enable-background:new"
                 d="m 72,460.00003 h 8 v 408 h -8 z"
                 id="rect1366-2" />
              <path
                 d="m 248.74662,727.03345 c -21.57933,-37.74912 -97.10636,5.39483 -75.52724,43.14397 21.57913,37.80667 97.09187,-5.38035 75.52724,-43.14397"
                 id="path2394"
                 style="display:inline;stroke-width:14.3861;enable-background:new" />
              <line
                 fill="none"
                 stroke="#000000"
                 stroke-width="7.5527"
                 stroke-miterlimit="10"
                 x1="248.74657"
                 y1="737.82245"
                 x2="248.74657"
                 y2="532.82104"
                 id="line2396"
                 style="display:inline;enable-background:new" />
              <path
                 d="m 248.73212,532.82095 c 6.47373,60.43612 103.58007,97.10636 60.42164,198.51397 17.26337,-64.73757 -14.02634,-125.11594 -60.42164,-138.07785"
                 id="path2398"
                 style="display:inline;stroke-width:14.3861;enable-background:new" />
            </g>
          </g>
        </g>
      </g>
    </g>
  </g>
  <g
     inkscape:groupmode="layer"
     id="layer2"
     inkscape:label="Warstwa 3"
     style="display:inline">
    <path
       style="font-variation-settings:normal;opacity:1;vector-effect:none;fill:none;fill-opacity:1;stroke:#000000;stroke-width:0.264583px;stroke-linecap:butt;stroke-linejoin:miter;stroke-miterlimit:4;stroke-dasharray:none;stroke-dashoffset:0;stroke-opacity:1;stop-color:#000000;stop-opacity:1"
       d="M 39.609723,27.223818 V 174.09825 H 155.41571 c 5.08872,-0.99476 9.72085,-2.79352 10.81754,-10.81754 V 37.398317 c -1.01701,-4.803808 -3.49098,-8.735355 -10.15711,-10.157103 z"
       id="path879"
       sodipodi:nodetypes="ccccccc" />
    <path
       style="font-variation-settings:normal;opacity:1;vector-effect:none;fill:none;fill-opacity:1;stroke:#000000;stroke-width:0.264583px;stroke-linecap:butt;stroke-linejoin:miter;stroke-miterlimit:4;stroke-dasharray:none;stroke-dashoffset:0;stroke-opacity:1;stop-color:#000000;stop-opacity:1"
       d="m 166.33063,166.68113 v 10.3385 c -0.93977,8.16393 -5.57298,10.77523 -11.47661,11.47661 l -115.244297,0.002 V 174.09838 H 155.33488 c 3.65051,-1.03679 9.58435,-1.33802 10.90645,-10.90645 v 3.57661 c -1.20032,7.91157 -6.62837,9.45493 -10.1761,10.17609 H 42.494554 v 8.68614 H 155.75709 c 6.27255,-1.09425 10.76079,-2.69038 10.57354,-18.94964 z"
       id="path2899"
       sodipodi:nodetypes="ccccccccccccc" />
  </g>
  <g
     inkscape:groupmode="layer"
     id="layer4"
     inkscape:label="Warstwa 4">
    <path
       style="font-variation-settings:normal;display:inline;fill:#000000;fill-opacity:1;stroke:#000000;stroke-width:0.143796px;stroke-linecap:butt;stroke-linejoin:miter;stroke-miterlimit:4;stroke-dasharray:none;stroke-dashoffset:0;stroke-opacity:1;enable-background:new;stop-color:#000000"
       d="m 127.94421,171.38923 4.78698,-32.76124 c 0,0 4.64312,-37.59825 5.78802,-41.844967 1.14488,-4.246715 2.61014,-18.067654 2.61014,-18.067654 l 0.63911,-4.654157 c 0.12968,-0.439644 0.24719,-1.092954 0.47005,0.101356 0.57355,1.950353 0.69733,6.804542 0.79446,6.674349 1.85954,2.285023 1.54035,7.169175 1.80067,6.88428 l 0.3242,-5.647307 c 0.0204,-0.2868 2.30848,4.048665 2.26911,3.663265 -0.24739,-1.807924 -0.81667,-3.76139 -1.25566,-5.655936 -0.29241,-1.13132 -0.50895,-2.269092 -0.0164,-3.467131 0.73253,-0.873357 0.66865,-2.276419 0.0905,-3.59336 -1.07437,-3.137669 -2.42714,-6.154541 -2.194,-9.859576 0.006,-3.572674 0.25424,-7.266706 0.58561,-11.001758 -0.0899,-0.525937 -1.49858,-0.589407 -1.57616,-0.113537 l -3.00026,20.522226 -1.00626,8.716381 -1.27497,9.659122 -6.50662,43.373234 -4.98121,36.78186 z"
       id="path1440"
       sodipodi:nodetypes="ccsccccccccccccccccccc" />
    <path
       style="font-variation-settings:normal;display:inline;fill:#000000;fill-opacity:1;stroke:#000000;stroke-width:0.143796px;stroke-linecap:butt;stroke-linejoin:miter;stroke-miterlimit:4;stroke-dasharray:none;stroke-dashoffset:0;stroke-opacity:1;enable-background:new;stop-color:#000000"
       d="m 90.5358,162.6089 c 0.32487,-1.51903 0.278809,-2.83554 3.321171,-2.66473 -0.220566,0.17026 3.726204,-2.69008 4.002691,-3.80397 l -0.0469,-2.73693 c -0.0139,-0.18658 -0.498476,-0.74955 -1.086109,-0.87911 l -2.250177,0.0255 c -1.31104,0.22868 -2.538593,0.53889 -3.130496,1.46971 -0.787962,-2.35066 -0.06902,-4.90447 0.470179,-7.43405 l 2.073495,-6.55975 c -0.107682,-1.34832 0.332116,-2.26201 0.837547,-3.12359 l 1.171899,-4.63641 c -0.355103,-1.52317 0.203317,-2.99284 1.229585,-4.43511 0.78309,-1.15927 1.289245,-2.4821 1.104007,-4.21326 l -8.612871,0.20436 c 0.340618,0.75866 0.09917,1.74056 -0.0071,2.67065 l -0.885365,1.79454 c -0.437272,-0.0903 -0.808805,0.18385 -1.100647,0.8998 -1.123882,2.69246 -2.0234,5.39287 -2.12165,8.12177 l 0.131749,5.52504 c 0.208609,1.42194 0.921065,2.15722 0.107167,4.97265 l -0.03618,7.72072 c -0.138899,1.74737 -0.563105,2.33395 -1.04515,2.68522 -0.444928,0.70124 -0.49433,1.27429 -0.505956,2.20368 -0.05261,0.62907 -0.01295,1.31817 0.0833,2.74745 0.736354,1.50394 5.127519,1.59704 6.29588,-0.55417 z"
       id="path4653"
       sodipodi:nodetypes="ccccccccccccccccccccccccc" />
    <path
       style="font-variation-settings:normal;display:inline;fill:#000000;fill-opacity:1;stroke:#000000;stroke-width:0.143796px;stroke-linecap:butt;stroke-linejoin:miter;stroke-miterlimit:4;stroke-dasharray:none;stroke-dashoffset:0;stroke-opacity:1;enable-background:new;stop-color:#000000"
       d="m 125.55727,169.41819 -7.22327,-0.75715 -1.61792,-1.32472 c -1.0131,-0.47652 -2.0924,-0.8961 -3.87089,-0.71421 0.0919,0.47481 0.14535,0.95301 -0.0326,1.45172 -2.06871,0.23385 -4.09314,0.10804 -6.05544,-0.52265 0.26991,-1.27272 -0.22864,-2.02171 -0.73218,-2.7673 -0.0153,-0.9538 -0.12586,-1.89129 0.21652,-2.90625 0.54338,-0.59883 0.60612,-1.27881 0.67019,-1.95858 0.0877,-2.05715 -0.23394,-2.84235 -0.70183,-3.1731 l 0.009,-2.33069 0.41668,-0.22648 c -0.21298,-1.26028 0.16446,-1.79775 -1.33451,-4.63229 -0.44263,-2.47191 -1.29133,-3.9924 -2.2032,-5.36488 -0.5838,-1.493 -0.90781,-1.98536 -1.20139,-3.6166 0.0241,-0.88014 0.006,-1.75837 -0.55461,-2.61188 -0.1937,-2.44162 -0.20428,-4.83938 -0.0173,-7.14901 0.48533,-1.19427 1.29335,-1.3349 0.84998,-5.42616 -1.42286,-1.11947 -1.64942,-2.88891 -1.43376,-3.05269 l 10.42344,1.9411 c 0.73836,2.17837 -0.45438,6.14083 -0.36035,6.22136 0.56802,0.32976 0.77799,0.93507 0.85006,1.64648 -0.071,2.77838 -0.0363,5.5417 0.0945,8.29134 0.0122,0.84332 0.57988,2.50158 0.57707,2.60087 -0.34149,0.94997 -0.0668,2.02066 0.0226,3.05503 l 0.53401,7.22145 0.78958,1.72478 c 0.32672,0.79332 0.4001,1.93207 1.13615,2.16727 l 0.2019,1.56498 1.03721,1.33194 c 2.00427,0.32424 2.83943,1.86356 3.98488,3.08039 l 2.86163,0.78898 4.10986,-0.12584 c -0.0967,1.74207 -0.0727,3.50258 -0.81971,5.14528 z"
       id="path8990"
       sodipodi:nodetypes="ccccccccccccccccccccccccccccccccccc" />
    <path
       style="font-variation-settings:normal;display:inline;fill:#000000;fill-opacity:1;stroke:#000000;stroke-width:0.143796px;stroke-linecap:butt;stroke-linejoin:miter;stroke-miterlimit:4;stroke-dasharray:none;stroke-dashoffset:0;stroke-opacity:1;enable-background:new;stop-color:#000000"
       d="m 89.61982,123.82155 -1.049162,-3.08545 c -0.496161,-0.6137 -0.125469,-0.7358 -0.02237,-1.15535 l -0.870463,-5.96085 -0.0055,-2.63134 c -0.675558,-0.7892 -0.764405,-1.66242 0.122975,-2.67545 l -1.601974,-1.88364 c -0.660443,-0.84427 -0.58392,-1.47881 -0.496957,-2.11038 l 1.457595,-6.128509 0.827645,-1.158937 0.05833,-0.78968 0.529863,-1.031586 -0.05431,-0.667913 c -0.463873,-0.646459 0.189803,-1.080268 0.998785,-1.484522 l 20.534613,0.784421 1.72736,2.062423 1.01501,1.173646 0.89374,2.115308 -0.055,2.879879 c -0.74524,1.40048 -0.67434,2.82458 -0.22005,4.25978 0.82844,3.32549 1.29495,6.97629 1.3088,10.8288 0.23054,1.39063 0.0261,2.77473 0.72402,4.17239 0.13852,-0.0256 -2.52275,2.30061 -4.10477,3.30741 l -11.06607,-2.43181 c -0.12341,2.1e-4 -1.583013,0.88978 -2.03925,1.407 z"
       id="path13925"
       sodipodi:nodetypes="cccccccccccccccccccccccccc" />
    <path
       style="font-variation-settings:normal;display:inline;fill:#000000;fill-opacity:1;stroke:#000000;stroke-width:0.143796px;stroke-linecap:butt;stroke-linejoin:miter;stroke-miterlimit:4;stroke-dasharray:none;stroke-dashoffset:0;stroke-opacity:1;enable-background:new;stop-color:#000000"
       d="m 111.41684,90.607522 2.65692,-12.708238 c 0.17759,1.584408 2.16246,2.461498 3.43726,3.437817 0.23308,-2.14e-4 1.77166,0.517092 1.79327,0.798509 l 0.46816,1.606299 c 0.22277,0.207423 0.45413,0.259593 0.78985,-0.03387 0.13436,-0.07211 0.89092,0.206318 1.33637,0.240596 l 1.06683,1.193702 c 0.13359,0.232975 1.01931,-1.299598 3.02277,-1.023032 l 1.03772,1.109194 c 0.75292,-0.222942 2.60182,-0.30455 2.92742,-0.136314 0.0486,0.167918 0.13818,0.335838 0.31396,0.503758 0.63091,-0.101837 1.11876,-0.443314 1.96935,-0.177163 0.50882,-0.152974 0.96542,-0.346302 1.7138,-0.314205 l 0.46875,-1.224077 c 0.6111,-0.632086 1.21769,-1.263353 1.53429,-1.841524 0.10148,-0.316921 0.44955,-0.521432 1.0058,-0.631061 l 2.10188,0.0168 1.93677,-0.07101 0.74824,1.014087 -0.16607,0.863041 0.5714,0.926058 c 0.28846,0.455624 0.29228,0.9097 -0.0805,1.361725 l -0.0397,1.671657 c -0.26429,0.09356 -0.35559,0.345851 -0.22688,0.80004 0.13635,1.107429 -0.76057,1.515509 -1.87579,1.775839 l -2.12481,0.759908 -2.03051,-0.281273 c -0.80923,-0.147659 -1.58309,-0.06174 -2.29902,0.406987 l -2.09232,-0.01673 c -1.69503,-0.357009 -1.60257,0.891029 -2.24991,1.507247 -0.92936,-1.44e-4 -2.76868,-0.824551 -3.00281,0.556316 -1.04185,0.308035 -2.34811,1.30116 -2.54491,1.472959 l -3.82713,-0.409395 c -0.006,0.05803 -3.34658,-1.727386 -3.49469,-1.918012 -0.86109,-0.227334 -3.06023,-0.827032 -3.22037,-0.947223 -0.9188,-0.191354 -1.09803,-0.196576 -1.62538,-0.28941 z"
       id="path16157"
       sodipodi:nodetypes="ccccccccccccccccccccccccccccccccccccc" />
    <path
       style="font-variation-settings:normal;display:inline;fill:#000000;fill-opacity:1;stroke:#000000;stroke-width:0.143796px;stroke-linecap:butt;stroke-linejoin:miter;stroke-miterlimit:4;stroke-dasharray:none;stroke-dashoffset:0;stroke-opacity:1;enable-background:new;stop-color:#000000"
       d="m 110.04887,93.842364 0.39086,-0.793639 1.05713,-1.551851 -0.08,-0.889352 2.65692,-12.708238 c -1.25846,-0.726364 -2.03063,-1.776911 -2.54196,-3.001339 -1.06284,-1.486419 -1.65242,-3.080349 -1.96693,-4.73677 -0.25733,-1.15673 -0.78766,-1.908786 -1.46323,-2.445521 -0.28823,-0.33031 -0.61984,-0.925758 -0.91865,-0.928065 -0.94044,0.12722 -1.36859,-0.351251 -1.91146,-1.119203 l -1.62504,-0.746491 c -0.21896,-0.820788 -0.1923,-1.704597 -1.47266,-2.253059 l -1.34002,-1.073327 c 0.56535,-0.718477 1.1035,-1.445606 1.37754,-2.256731 1.39982,-0.854386 3.72301,-1.413476 2.27223,-3.179497 l 0.10317,-1.651679 c 0.0447,-0.79658 0.11725,-1.595718 -0.45247,-2.154631 -0.12783,-0.175924 0.0741,-1.069436 -0.0983,-1.176289 l -0.48809,-0.171396 c -0.88199,-0.669229 -1.00814,-1.343735 -0.77266,-2.603217 0.0142,-0.117057 -0.89047,-0.806187 -1.1163,-1.125521 1.8684,-1.648613 4.27771,-3.184087 4.40554,-5.345901 -0.11551,-0.748238 -3.53074,0.631597 -4.78213,1.597954 -0.99643,0.811583 -1.15506,0.21763 -1.574015,-0.358408 C 99.143837,42.4435 98.941768,41.900878 98.898973,41.327275 L 97.461285,39.399508 C 97.01801,38.848925 96.288972,38.677365 95.00804,39.237794 l -6.424489,3.196209 c -0.167199,0.07102 -2.505757,2.478511 -3.756035,3.717618 l -3.461112,3.107169 -0.996026,1.068397 c -0.25672,0.365455 -0.0097,0.524071 0.244263,0.679859 l 3.951653,0.727882 c 0.956438,-0.204193 1.033485,0.849083 1.017177,1.315932 l 2.926908,3.94863 c 0.851967,-0.172853 1.282126,0.173939 1.666686,0.694262 0.200849,0.452623 1.259891,0.553432 1.093232,0.621285 l -2.206662,1.221646 c -0.236109,0.419475 0.422575,1.115112 -1.040113,1.115898 -0.305064,-0.03745 -0.244841,0.918205 -1.133585,1.032371 -0.566905,0.38448 -0.965488,0.927831 -1.365631,1.469711 l -0.125309,1.777579 -3.249233,2.37785 c -0.836402,0.08035 -1.830477,0.0011 -1.779796,0.97972 l 0.221782,1.238499 2.147166,8.777044 3.932895,7.218254 1.025271,0.795703 1.817166,6.738631 z"
       id="path22642"
       sodipodi:nodetypes="cccccccccccccccccccccccccccccccccccccccccccccccccc" />
    <path
       style="font-variation-settings:normal;display:inline;fill:#000000;fill-opacity:1;stroke:#000000;stroke-width:0.143796px;stroke-linecap:butt;stroke-linejoin:miter;stroke-miterlimit:4;stroke-dasharray:none;stroke-dashoffset:0;stroke-opacity:1;enable-background:new;stop-color:#000000"
       d="m 89.514248,93.057943 c -4.641419,0.145495 -4.864607,-1.17974 -5.421922,-2.393757 -0.0652,-0.09196 -0.286373,0.838014 -1.414037,0.33546 -1.054062,-0.180442 -1.846151,0.274247 -2.710979,0.552581 -2.068683,-0.653181 -3.151204,-2.006294 -4.268845,-3.334487 l -2.716298,-3.101364 -1.540732,-0.702555 -1.143753,-2.046134 0.270795,-1.677891 -0.370936,-1.964818 0.397569,-1.22281 c 1.576499,-0.862427 3.008365,-2.122021 4.127504,-4.240395 0.883182,-0.248643 2.855244,0.802597 2.34641,-1.107809 0.582128,-0.514058 1.331447,-0.749424 2.087533,-0.973513 0.319282,-0.618106 0.08722,-1.417526 1.439699,-1.695861 l 1.997974,8.678623 c -0.544375,-0.138519 -0.359058,0.597179 -0.456918,0.993611 -1.497682,1.600978 -3.26428,2.183523 -3.10649,2.259714 0.324453,0.08178 0.58839,0.252176 0.815663,0.476264 0.835636,-0.672686 1.383362,-0.439851 1.853087,0.03831 0.431499,0.581179 0.712659,1.251514 0.877705,1.990699 1.364964,0.356475 2.504268,1.06244 3.107371,2.598797 l 2.012434,-0.201318 z"
       id="path29775"
       sodipodi:nodetypes="cccccccccccccccccccccccc" />
  </g>
</svg>
