<?xml version="1.0" encoding="UTF-8" standalone="no"?>
<!-- Created with Inkscape (http://www.inkscape.org/) -->

<svg
   width="110.56956mm"
   height="110.02578mm"
   viewBox="0 0 110.56956 110.02578"
   version="1.1"
   id="svg5"
   inkscape:version="1.2-dev (2b1b049028, 2021-10-21, custom)"
   sodipodi:docname="kulturze.svg"
   xmlns:inkscape="http://www.inkscape.org/namespaces/inkscape"
   xmlns:sodipodi="http://sodipodi.sourceforge.net/DTD/sodipodi-0.dtd"
   xmlns="http://www.w3.org/2000/svg"
   xmlns:svg="http://www.w3.org/2000/svg">
  <sodipodi:namedview
     id="namedview7"
     pagecolor="#505050"
     bordercolor="#eeeeee"
     borderopacity="1"
     inkscape:pageshadow="0"
     inkscape:pageopacity="0"
     inkscape:pagecheckerboard="0"
     inkscape:blackoutopacity="0.0"
     inkscape:document-units="mm"
     showgrid="false"
     inkscape:zoom="0.66903058"
     inkscape:cx="727.91889"
     inkscape:cy="428.23155"
     inkscape:window-width="1894"
     inkscape:window-height="1024"
     inkscape:window-x="0"
     inkscape:window-y="0"
     inkscape:window-maximized="1"
     inkscape:current-layer="layer2"
     showguides="true"
     fit-margin-top="5"
     lock-margins="true"
     fit-margin-left="5"
     fit-margin-right="5"
     fit-margin-bottom="5" />
  <defs
     id="defs2" />
  <g
     inkscape:groupmode="layer"
     id="layer2"
     inkscape:label="Warstwa 2"
     style="display:inline"
     sodipodi:insensitive="true"
     transform="translate(-18.7713,-30.825593)">
    <path
       style="fill:#b6b5ba;fill-opacity:1;stroke:#000000;stroke-width:0.264583px;stroke-linecap:butt;stroke-linejoin:miter;stroke-opacity:1"
       d="M 23.903698,87.03489 C 24.361981,59.252896 44.643885,36.175899 73.404213,35.957891 104.25781,36.345011 122.93536,58.163111 124.20855,83.789233 124.107,105.81167 112.30759,132.77843 76.221184,135.71626 49.026605,135.97848 26.932206,117.97727 23.903698,87.03489 Z"
       id="path603"
       sodipodi:nodetypes="ccccc" />
    <path
       style="fill:#447546;fill-opacity:1;stroke:#000000;stroke-width:0.264583px;stroke-linecap:butt;stroke-linejoin:miter;stroke-opacity:1"
       d="M 27.435532,87.227605 C 25.542961,70.048805 40.259642,39.305948 74.682161,38.424574 104.6923,39.162534 121.81652,64.556834 121.45144,85.463427 121.79255,108.34273 104.51023,131.00591 73.841395,133.0418 50.15368,132.1472 28.683216,115.3856 27.435532,87.227605 Z"
       id="path14023"
       sodipodi:nodetypes="ccccc" />
  </g>
  <g
     inkscape:groupmode="layer"
     id="layer3"
     inkscape:label="Warstwa 5"
     style="display:inline"
     transform="translate(-18.7713,-30.825593)">
    <path
       style="fill:#dcdcd4;fill-opacity:1;stroke:#000000;stroke-width:0.264583px;stroke-linecap:butt;stroke-linejoin:miter;stroke-opacity:1"
       d="m 48.943222,117.38819 c -0.0035,-0.29428 0.02376,-43.278577 0.02376,-43.278577 -3.502923,-2.935576 -6.566735,-5.810236 -6.399968,-12.226701 0.347831,-4.850263 3.612614,-11.451789 13.024137,-12.051613 3.357285,-0.156809 7.193791,0.551915 12.750517,4.367578 l 6.508949,0.175961 c 6.702088,-2.431659 12.115039,-9.58713 17.845256,-8.717243 7.779197,-0.06162 15.165827,7.853134 15.495847,16.722624 -0.0996,10.728205 -10.346043,16.123369 -15.46437,15.820453 -10.575291,-0.442283 -11.706549,-5.398566 -12.094744,-10.710013 -0.256202,-6.103868 4.135748,-12.725565 9.361966,-12.641416 7.5322,-0.07801 9.882775,4.265438 10.573678,8.330804 -0.0971,4.163404 -4.295854,8.091931 -7.52962,7.884543 -4.371326,-0.390488 -4.514228,-3.300226 -3.662757,-6.8024 1.285445,0.646158 2.047979,1.627338 2.974928,2.50318 1.756273,-0.437194 1.819152,-3.550606 -2.287485,-4.879107 -3.135957,0.509355 -4.648632,2.999401 -5.314743,6.522405 0.589378,3.81823 2.451561,6.82454 7.907329,7.538503 5.34907,0.330382 13.986598,-5.326973 13.556528,-13.61658 -1.49694,-8.140372 -5.51162,-13.011584 -13.075126,-13.274791 -4.52152,-0.644213 -11.829502,6.816851 -17.951524,10.828189 -5.564782,1.458483 -8.489809,-1.100428 -11.611798,-3.359586 -2.71472,-1.585307 -5.448803,-2.911998 -8.296815,-2.716943 -7.624167,1.229349 -9.442668,4.928651 -9.997466,9.165582 0.315102,4.865402 3.124367,9.254189 8.950081,10.258345 5.56982,-0.292199 6.754359,-3.869823 7.23823,-7.469761 0.150412,-3.313877 -2.62272,-4.561623 -4.798581,-4.965422 -2.517612,-0.225272 -2.940277,1.004878 -3.234071,2.32456 0.04182,1.695555 1.265586,2.085785 2.967011,0.572355 1.65521,-0.106812 1.244843,4.520014 -2.467263,3.949125 -2.249865,0.06051 -3.334028,-1.660635 -3.629543,-4.587134 0.412084,-2.912993 1.846183,-5.051047 6.009716,-5.119518 4.214236,0.571099 7.062915,2.746492 7.385376,7.889759 -0.140284,5.353272 -4.561881,9.249878 -7.660352,9.334545 l -4.302503,-0.007 -0.398563,42.397844 z"
       id="path612"
       sodipodi:nodetypes="ccccccccccccccccccccccccccccccccccccc" />
    <path
       style="fill:#dcdcd4;fill-opacity:1;stroke:#000000;stroke-width:0.264583px;stroke-linecap:butt;stroke-linejoin:miter;stroke-opacity:1"
       d="M 58.659725,116.15553 V 76.636739 l -1.226103,-0.01524 v 39.469411 z"
       id="path13261"
       sodipodi:nodetypes="ccccc" />
    <path
       style="fill:#dcdcd4;fill-opacity:1;stroke:#000000;stroke-width:0.264583px;stroke-linecap:butt;stroke-linejoin:miter;stroke-opacity:1"
       d="M 60.54237,116.8645 V 76.650039 h -1.061384 v 39.834241 z"
       id="path13565" />
    <path
       style="fill:#dcdcd4;fill-opacity:1;stroke:#000000;stroke-width:0.264583px;stroke-linecap:butt;stroke-linejoin:miter;stroke-opacity:1"
       d="M 86.633673,116.7972 V 77.237094 l 1.155473,0.28212 v 38.892026 z"
       id="path13567" />
    <path
       style="fill:#dcdcd4;fill-opacity:1;stroke:#000000;stroke-width:0.264583px;stroke-linecap:butt;stroke-linejoin:miter;stroke-opacity:1"
       d="M 88.753256,116.02301 V 77.721732 l 1.068385,0.211589 -0.231289,37.518979 z"
       id="path13569" />
    <path
       style="fill:#dcdcd4;fill-opacity:1;stroke:#000000;stroke-width:0.264583px;stroke-linecap:butt;stroke-linejoin:miter;stroke-opacity:1"
       d="M 96.967473,77.491311 V 117.83754 H 95.285604 V 77.960838 Z"
       id="path13571" />
  </g>
  <g
     inkscape:groupmode="layer"
     id="layer4"
     inkscape:label="Warstwa 4"
     style="display:inline"
     transform="translate(-18.7713,-30.825593)">
    <path
       style="display:inline;fill:#dcdcd4;fill-opacity:1;stroke:#000000;stroke-width:0.263786px;stroke-linecap:butt;stroke-linejoin:miter;stroke-opacity:1"
       d="m 73.69987,131.65049 c -2.591157,-1.34038 -4.315113,-3.76024 -5.79147,-6.48835 l 0.04596,-3.79741 c 2.501336,-2.58482 2.871855,-5.8981 2.799555,-9.36275 1.91767,0.83884 3.830197,1.14249 5.730482,0.17438 -4.29e-4,3.56911 1.244048,6.54637 2.630406,9.67564 l -0.07329,3.45319 c -1.069148,2.44182 -2.559451,4.48218 -5.341689,6.3453 z"
       id="path59738-3"
       sodipodi:nodetypes="cccccccc" />
    <path
       style="display:inline;fill:#dcdcd4;fill-opacity:1;stroke:#000000;stroke-width:0.263786px;stroke-linecap:butt;stroke-linejoin:miter;stroke-opacity:1"
       d="m 67.638685,109.57386 c -0.493816,5.3983 -2.578392,7.5327 -5.767507,7.40084 -2.882337,-0.15022 -4.663291,-1.58471 -6.127512,-3.38853 -0.32121,2.60611 -1.138021,5.59966 0.943625,7.68154 1.959196,2.08591 3.937275,2.51348 5.91663,2.82965 2.891376,0.10159 4.191394,-1.31032 5.327779,-2.87797 3.091412,-3.18368 2.752727,-6.21294 2.880569,-9.14807 -1.413543,-0.7041 -2.20567,-1.63251 -3.173584,-2.49746 z"
       id="path61451-6"
       sodipodi:nodetypes="cccccccc" />
    <path
       style="display:inline;fill:#dcdcd4;fill-opacity:1;stroke:#000000;stroke-width:0.263786px;stroke-linecap:butt;stroke-linejoin:miter;stroke-opacity:1"
       d="m 76.484975,112.29147 2.802806,-1.75848 c 1.222294,3.1048 2.408597,6.25745 5.845641,6.41832 2.93884,-0.0605 4.838659,-1.51631 6.443381,-3.36831 1.512222,8.45362 -2.75289,9.59719 -7.133256,10.59492 -1.925533,0.1448 -3.644387,-0.94258 -5.243182,-2.7457 -1.737536,-2.76352 -2.574913,-5.83351 -2.71539,-9.14075 z"
       id="path63689-7"
       sodipodi:nodetypes="ccccccc" />
    <path
       style="display:inline;fill:#dcdcd4;fill-opacity:1;stroke:#000000;stroke-width:0.263786px;stroke-linecap:butt;stroke-linejoin:miter;stroke-opacity:1"
       d="m 79.323103,110.59041 c -4.041738,3.13841 -7.657524,3.01832 -11.426926,-0.89619 -0.276962,-0.65451 -0.552699,-1.61283 -0.08354,-2.8155 0.691998,-1.86742 2.790803,-2.92808 5.566767,-2.95103 4.007552,-0.12363 6.059767,1.40024 6.759163,4.24453 0.01864,0.88199 -0.0992,1.71618 -0.815476,2.41819 z"
       id="path64488-5"
       sodipodi:nodetypes="cccccc" />
    <path
       style="display:inline;fill:#dcdcd4;fill-opacity:1;stroke:#000000;stroke-width:0.263786px;stroke-linecap:butt;stroke-linejoin:miter;stroke-opacity:1"
       d="m 67.826498,106.9823 c -0.967055,-6.35638 -4.726399,-8.167581 -9.132655,-8.925746 -3.989187,-0.321562 -5.698596,4.211216 -8.141291,5.746716 -3.530973,-2.70852 -6.510533,-5.976893 -7.210427,-11.559852 -0.103006,-4.614438 4.988655,-8.433562 8.924056,-8.399442 5.768896,-0.329099 16.37961,5.646425 18.548501,20.464894 -1.258504,0.19921 -2.319485,0.93963 -2.988184,2.67343 z"
       id="path66152-3"
       sodipodi:nodetypes="ccccccc" />
    <path
       style="display:inline;fill:#dcdcd4;fill-opacity:1;stroke:#000000;stroke-width:0.263786px;stroke-linecap:butt;stroke-linejoin:miter;stroke-opacity:1"
       d="M 70.846745,104.26233 C 69.930017,99.061201 67.926895,94.239366 64.871414,89.784944 63.63589,87.594934 62.755093,85.54515 63.009165,83.94399 63.814869,78.648673 65.827722,73.398469 73.433922,68.3573 c 3.007336,0.514422 9.756388,7.496697 10.60292,12.17755 0.785973,2.805726 0.173175,5.263511 0.08086,7.850764 -3.178848,3.177997 -6.224001,6.836699 -7.773366,15.873346 -2.341548,-0.59503 -3.91512,-0.29062 -5.497586,0.003 z"
       id="path68489-5"
       sodipodi:nodetypes="cccccccc" />
    <path
       style="display:inline;fill:#dcdcd4;fill-opacity:1;stroke:#000000;stroke-width:0.263786px;stroke-linecap:butt;stroke-linejoin:miter;stroke-opacity:1"
       d="m 76.392017,104.27803 c 1.485469,-9.114943 4.603769,-12.546569 7.750955,-15.877626 2.750037,-2.2643 5.564698,-4.471551 10.728705,-4.604666 5.017045,0.594348 8.504733,2.721713 9.286823,7.56118 -0.24178,4.692592 -2.54468,8.867332 -7.489337,12.378352 -2.467784,-1.96544 -3.975803,-5.764478 -8.718985,-5.498715 -6.219165,1.171633 -7.073381,4.450945 -8.417737,7.891645 -1.013106,-0.75034 -1.97118,-1.71881 -3.140424,-1.85017 z"
       id="path71037-6"
       sodipodi:nodetypes="cccccccc" />
  </g>
</svg>
