<?xml version="1.0" encoding="UTF-8" standalone="no"?>
<!-- Created with Inkscape (http://www.inkscape.org/) -->

<svg
   width="243.39799mm"
   height="243.39799mm"
   viewBox="0 0 243.39799 243.39799"
   version="1.1"
   id="svg1246"
   xml:space="preserve"
   inkscape:version="1.2.1 (9c6d41e410, 2022-07-14, custom)"
   sodipodi:docname="lilijka_pusta.svg"
   xmlns:inkscape="http://www.inkscape.org/namespaces/inkscape"
   xmlns:sodipodi="http://sodipodi.sourceforge.net/DTD/sodipodi-0.dtd"
   xmlns="http://www.w3.org/2000/svg"
   xmlns:svg="http://www.w3.org/2000/svg"><sodipodi:namedview
     id="namedview1248"
     pagecolor="#505050"
     bordercolor="#eeeeee"
     borderopacity="1"
     inkscape:showpageshadow="0"
     inkscape:pageopacity="0"
     inkscape:pagecheckerboard="0"
     inkscape:deskcolor="#505050"
     inkscape:document-units="mm"
     showgrid="false"
     inkscape:zoom="0.95875068"
     inkscape:cx="204.95422"
     inkscape:cy="405.21484"
     inkscape:window-width="1920"
     inkscape:window-height="1047"
     inkscape:window-x="0"
     inkscape:window-y="33"
     inkscape:window-maximized="1"
     inkscape:current-layer="layer3" /><defs
     id="defs1243"><inkscape:path-effect
       effect="powerclip"
       id="path-effect1954"
       is_visible="true"
       lpeversion="1"
       inverse="true"
       flatten="false"
       hide_clip="false"
       message="Jeśli po konwersji przycięcia na ścieżki nie zostanie spłaszczony wynik, użyj reguły wypełniania w oknie dialogowym &lt;b&gt;wypełnienie i obrys&lt;/b&gt; ." /><filter
       id="mask-powermask-path-effect1935_inverse"
       inkscape:label="filtermask-powermask-path-effect1935"
       style="color-interpolation-filters:sRGB"
       height="100"
       width="100"
       x="-50"
       y="-50"><feColorMatrix
         id="mask-powermask-path-effect1935_primitive1"
         values="1"
         type="saturate"
         result="fbSourceGraphic" /><feColorMatrix
         id="mask-powermask-path-effect1935_primitive2"
         values="-1 0 0 0 1 0 -1 0 0 1 0 0 -1 0 1 0 0 0 1 0 "
         in="fbSourceGraphic" /></filter><clipPath
       clipPathUnits="userSpaceOnUse"
       id="clipPath1950"><path
         id="lpe_path-effect1954"
         style="display:inline;fill:#000000;fill-opacity:1;stroke:#000000;stroke-width:0.264583px;stroke-linecap:butt;stroke-linejoin:miter;stroke-opacity:1"
         class="powerclip"
         d="m 20.433744,128.53396 h 33.73218 v 33.45896 h -33.73218 z m 8.187145,16.44768 c 0.01888,4.68752 1.913896,8.35383 8.221017,9.49743 3.932875,0.2377 9.609328,-2.50667 9.309386,-9.70551 0.352134,-5.18191 -3.145991,-8.23218 -8.907431,-8.66828 -7.586559,0.99567 -8.549372,4.75079 -8.622972,8.87636 z" /></clipPath></defs><g
     inkscape:groupmode="layer"
     id="layer3"
     inkscape:label="Warstwa 2"
     style="display:inline"
     transform="translate(-17.280063,-4.6093679)"><path
       style="fill:none;stroke:#000000;stroke-width:0.965;stroke-linecap:butt;stroke-linejoin:miter;stroke-dasharray:none;stroke-opacity:1"
       d="M 80.028627,145.35541 C 64.432732,134.71382 49.69129,123.21067 50.04805,99.119743 50.461311,81.926782 61.676123,62.746944 80.931034,62.981151 113.67534,62.658884 117.97018,108.24516 129.78761,138.4143 l -19.17285,1.35144 c -3.14405,-8.71022 -4.64643,-19.75891 -16.034971,-19.65908 -7.905968,-0.0136 -13.771125,16.27623 -14.551162,25.24875 z"
       id="path1743"
       sodipodi:nodetypes="ccccccc" /><path
       style="fill:none;stroke:#000000;stroke-width:0.965;stroke-linecap:butt;stroke-linejoin:miter;stroke-dasharray:none;stroke-opacity:1"
       d="M 120.44341,139.41512 C 118.20247,118.6582 103.4459,95.634403 83.687926,95.630963 63.324596,96.056423 69.324824,131.33411 79.810862,145.3396"
       id="path1765"
       sodipodi:nodetypes="ccc" /><path
       style="fill:none;stroke:#000000;stroke-width:0.965;stroke-linecap:butt;stroke-linejoin:miter;stroke-dasharray:none;stroke-opacity:1"
       d="m 156.67743,138.19557 c 2.45992,-23.55645 20.22661,-41.882567 35.75156,-42.613387 22.97747,0.14603 13.27405,38.977637 4.96014,48.040487"
       id="path1763"
       sodipodi:nodetypes="ccc" /><path
       style="fill:none;stroke:#000000;stroke-width:0.965;stroke-linecap:butt;stroke-linejoin:miter;stroke-dasharray:none;stroke-opacity:1"
       d="m 129.60643,138.65463 c -6.31506,-20.15802 -2.74924,-38.33628 -19.07085,-60.499235 -3.65549,-6.473917 -6.61024,-13.095364 -5.55823,-20.560378 0.0788,-13.204771 7.71587,-22.738879 15.92752,-31.993953 L 137.92235,5.3335363 C 155.88056,24.260161 183.37739,49.912847 165.94078,77.615515 153.47852,93.987576 146.16053,115.53205 147.4607,138.46723 Z"
       id="path1745"
       sodipodi:nodetypes="cccccccc" /><path
       style="fill:none;stroke:#000000;stroke-width:0.965;stroke-linecap:butt;stroke-linejoin:miter;stroke-dasharray:none;stroke-opacity:1"
       d="m 147.39012,138.60607 c 3.78882,-21.36124 8.60872,-42.261577 22.15345,-60.447525 11.34562,-14.346584 18.61228,-14.874214 27.99653,-15.024844 9.1329,0.55177 28.59312,10.754184 27.90662,33.388722 -0.0338,26.953657 -11.63237,33.196237 -28.05436,47.044527 -3.79594,-10.88785 -7.17214,-23.14313 -17.11266,-23.26173 -11.12859,0.43851 -10.85151,13.6511 -14.03453,22.61987 -5.45711,-6.47824 -10.96297,-4.56675 -18.85505,-4.31902 z"
       id="path1747"
       sodipodi:nodetypes="cccccccc" /><path
       style="fill:none;stroke:#000000;stroke-width:0.965;stroke-linecap:round;stroke-linejoin:round;stroke-dasharray:none;stroke-opacity:1"
       d="m 117.31657,180.94307 c -2.17744,6.67953 -5.79339,12.10697 -15.73078,11.54747 -8.27651,-1.8534 -13.85864,-5.35383 -12.090874,-15.47289 -3.798582,6.25538 -7.165037,12.82216 -6.746055,22.11681 0.946021,11.59676 9.945543,15.7989 22.574609,16.41588 20.25575,0.95271 23.83589,-19.42352 26.1117,-34.98395 z"
       id="path1749"
       sodipodi:nodetypes="ccccccc" /><path
       style="fill:none;stroke:#000000;stroke-width:0.965;stroke-linecap:butt;stroke-linejoin:miter;stroke-dasharray:none;stroke-opacity:1"
       d="m 131.82818,180.56319 c -0.5657,4.56972 -5.2654,24.4554 -10.56066,29.01396 -0.83986,12.80104 4.17586,31.29111 17.31545,37.87944 9.28707,-5.66761 18.35337,-22.71392 15.32132,-38.09177 -2.73761,-11.48438 -6.44447,-16.43318 -11.81895,-28.40678 z"
       id="path1751"
       sodipodi:nodetypes="cccccc" /><path
       style="fill:none;stroke:#000000;stroke-width:0.965;stroke-linecap:butt;stroke-linejoin:round;stroke-dasharray:none;stroke-opacity:1"
       d="m 141.93129,181.0047 14.82549,28.67089 c 3.19145,7.07289 17.68095,9.13668 28.47085,2.19244 8.51671,-5.32079 9.78196,-13.33807 7.39927,-22.24996 l -6.25421,-14.80114 c 1.10838,8.72769 -1.12516,17.609 -13.57278,18.23212 -6.93875,-0.11794 -11.95262,-4.8567 -12.78799,-11.78823 z"
       id="path1753"
       sodipodi:nodetypes="cccccccc" /><path
       style="fill:none;stroke:#000000;stroke-width:0.965;stroke-linecap:butt;stroke-linejoin:miter;stroke-dasharray:none;stroke-opacity:1"
       d="m 110.03882,139.75205 48.10176,-1.46524 c 6.23314,0.45322 16.19007,11.14416 15.06861,22.12982 -0.64432,7.69728 -4.00344,16.78358 -13.00331,20.60288 l -47.314,-0.21814 c -9.77949,-3.95995 -12.84595,-11.54145 -13.912001,-21.11807 0.360577,-8.64095 2.220001,-16.17944 11.058941,-19.93125 z"
       id="path1755"
       sodipodi:nodetypes="ccccccc" /><path
       style="fill:none;stroke:#000000;stroke-width:0.965;stroke-linecap:butt;stroke-linejoin:miter;stroke-dasharray:none;stroke-opacity:1"
       d="M 138.39297,138.79986 137.97818,5.4174143"
       id="path1757" /><path
       style="fill:none;stroke:#000000;stroke-width:0.965;stroke-linecap:butt;stroke-linejoin:miter;stroke-dasharray:none;stroke-opacity:1"
       d="m 138.02624,180.85207 0.47077,66.61896"
       id="path1759"
       sodipodi:nodetypes="cc" /><path
       style="fill:none;stroke:#000000;stroke-width:0.965;stroke-linecap:butt;stroke-linejoin:miter;stroke-dasharray:none;stroke-opacity:1"
       d="m 89.269975,177.28962 c -3.465199,16.95615 0.149178,27.0363 12.085705,27.90566 19.83146,-0.55328 22.09959,-13.97433 21.8585,-24.43178"
       id="path1761"
       sodipodi:nodetypes="ccc" /><path
       style="fill:none;stroke:#000000;stroke-width:0.965;stroke-linecap:butt;stroke-linejoin:miter;stroke-dasharray:none;stroke-opacity:1"
       d="m 153.51254,181.54682 c 0.0964,11.15837 3.80519,20.9518 17.8889,23.16606 22.47717,1.18095 14.95867,-18.7138 15.27697,-29.42967"
       id="path1801"
       sodipodi:nodetypes="ccc" /></g></svg>
