<?xml version="1.0" encoding="UTF-8" standalone="no"?>
<!-- Created with Inkscape (http://www.inkscape.org/) -->

<svg
   width="176.388mm"
   height="176.388mm"
   viewBox="0 0 176.388 176.388"
   version="1.1"
   id="svg1246"
   xml:space="preserve"
   inkscape:version="1.2.1 (9c6d41e410, 2022-07-14, custom)"
   sodipodi:docname="lilijka_ramiona.svg"
   xmlns:inkscape="http://www.inkscape.org/namespaces/inkscape"
   xmlns:sodipodi="http://sodipodi.sourceforge.net/DTD/sodipodi-0.dtd"
   xmlns="http://www.w3.org/2000/svg"
   xmlns:svg="http://www.w3.org/2000/svg"><sodipodi:namedview
     id="namedview1248"
     pagecolor="#505050"
     bordercolor="#eeeeee"
     borderopacity="1"
     inkscape:showpageshadow="0"
     inkscape:pageopacity="0"
     inkscape:pagecheckerboard="0"
     inkscape:deskcolor="#505050"
     inkscape:document-units="mm"
     showgrid="false"
     inkscape:zoom="0.95875068"
     inkscape:cx="306.12755"
     inkscape:cy="262.32055"
     inkscape:window-width="1920"
     inkscape:window-height="1047"
     inkscape:window-x="0"
     inkscape:window-y="33"
     inkscape:window-maximized="1"
     inkscape:current-layer="layer3"
     showguides="true" /><defs
     id="defs1243"><inkscape:path-effect
       effect="powerclip"
       id="path-effect1954"
       is_visible="true"
       lpeversion="1"
       inverse="true"
       flatten="false"
       hide_clip="false"
       message="Jeśli po konwersji przycięcia na ścieżki nie zostanie spłaszczony wynik, użyj reguły wypełniania w oknie dialogowym &lt;b&gt;wypełnienie i obrys&lt;/b&gt; ." /><filter
       id="mask-powermask-path-effect1935_inverse"
       inkscape:label="filtermask-powermask-path-effect1935"
       style="color-interpolation-filters:sRGB"
       height="100"
       width="100"
       x="-50"
       y="-50"><feColorMatrix
         id="mask-powermask-path-effect1935_primitive1"
         values="1"
         type="saturate"
         result="fbSourceGraphic" /><feColorMatrix
         id="mask-powermask-path-effect1935_primitive2"
         values="-1 0 0 0 1 0 -1 0 0 1 0 0 -1 0 1 0 0 0 1 0 "
         in="fbSourceGraphic" /></filter><clipPath
       clipPathUnits="userSpaceOnUse"
       id="clipPath1950"><path
         id="lpe_path-effect1954"
         style="display:inline;fill:#000000;fill-opacity:1;stroke:#000000;stroke-width:0.264583px;stroke-linecap:butt;stroke-linejoin:miter;stroke-opacity:1"
         class="powerclip"
         d="m 20.433744,128.53396 h 33.73218 v 33.45896 h -33.73218 z m 8.187145,16.44768 c 0.01888,4.68752 1.913896,8.35383 8.221017,9.49743 3.932875,0.2377 9.609328,-2.50667 9.309386,-9.70551 0.352134,-5.18191 -3.145991,-8.23218 -8.907431,-8.66828 -7.586559,0.99567 -8.549372,4.75079 -8.622972,8.87636 z" /></clipPath></defs><g
     inkscape:groupmode="layer"
     id="layer3"
     inkscape:label="Warstwa 2"
     style="display:inline"
     transform="translate(-49.559232,-4.609368)"><path
       style="fill:none;stroke:#000000;stroke-width:0.965;stroke-linecap:butt;stroke-linejoin:miter;stroke-dasharray:none;stroke-opacity:1"
       d="M 80.028627,164.93458 C 64.432732,154.29299 49.69129,142.78984 50.04805,118.69891 50.461311,101.50594 61.676123,82.326111 80.931034,82.560318 113.67534,82.238051 117.97018,127.82433 129.78761,157.99347 l -19.17285,1.35144 c -3.14405,-8.71022 -4.64643,-19.75891 -16.034971,-19.65908 -7.905968,-0.0136 -13.771125,16.27623 -14.551162,25.24875 z"
       id="path1743"
       sodipodi:nodetypes="ccccccc" /><path
       style="fill:none;stroke:#000000;stroke-width:0.965;stroke-linecap:butt;stroke-linejoin:miter;stroke-dasharray:none;stroke-opacity:1"
       d="m 120.44341,158.99429 c -2.24094,-20.75692 -16.99751,-43.78072 -36.755484,-43.78416 -20.36333,0.42546 -14.363102,35.70315 -3.877064,49.70864"
       id="path1765"
       sodipodi:nodetypes="ccc" /><path
       style="fill:none;stroke:#000000;stroke-width:0.965;stroke-linecap:butt;stroke-linejoin:miter;stroke-dasharray:none;stroke-opacity:1"
       d="m 156.67743,157.77474 c 2.45992,-23.55645 20.22661,-41.88257 35.75156,-42.61339 22.97747,0.14603 13.27405,38.97764 4.96014,48.04049"
       id="path1763"
       sodipodi:nodetypes="ccc" /><path
       style="fill:none;stroke:#000000;stroke-width:0.965;stroke-linecap:butt;stroke-linejoin:miter;stroke-dasharray:none;stroke-opacity:1"
       d="m 129.60643,158.2338 c -6.31506,-20.15802 -2.74924,-38.33628 -19.07085,-60.499238 -3.65549,-6.473917 -6.61024,-13.095364 -5.55823,-20.560378 0.0788,-13.204771 7.71587,-22.738879 15.92752,-31.993953 l 17.01748,-20.267528 c 17.95821,18.926625 45.45504,44.579311 28.01843,72.281979 -12.46226,16.372058 -19.78025,37.916538 -18.48008,60.851718 z"
       id="path1745"
       sodipodi:nodetypes="cccccccc" /><path
       style="fill:none;stroke:#000000;stroke-width:0.965;stroke-linecap:butt;stroke-linejoin:miter;stroke-dasharray:none;stroke-opacity:1"
       d="m 147.39012,158.18524 c 3.78882,-21.36124 8.60872,-42.26158 22.15345,-60.447528 11.34562,-14.346584 18.61228,-14.874214 27.99653,-15.024844 9.1329,0.55177 28.59312,10.754184 27.90662,33.388722 -0.0338,26.95366 -11.63237,33.19624 -28.05436,47.04453 -3.79594,-10.88785 -7.17214,-23.14313 -17.11266,-23.26173 -11.12859,0.43851 -10.85151,13.6511 -14.03453,22.61987 -5.45711,-6.47824 -10.96297,-4.56675 -18.85505,-4.31902 z"
       id="path1747"
       sodipodi:nodetypes="cccccccc" /><path
       style="fill:none;stroke:#000000;stroke-width:0.965;stroke-linecap:butt;stroke-linejoin:miter;stroke-dasharray:none;stroke-opacity:1"
       d="M 138.39297,158.37903 137.97818,24.996581"
       id="path1757" /></g></svg>
