<?xml version="1.0" encoding="UTF-8" standalone="no"?>
<!-- Created with Inkscape (http://www.inkscape.org/) -->

<svg
   width="136.217mm"
   height="136.217mm"
   viewBox="0 0 136.21699 136.21699"
   version="1.1"
   id="svg1246"
   xml:space="preserve"
   inkscape:version="1.2.1 (9c6d41e410, 2022-07-14, custom)"
   sodipodi:docname="lilijka_ONC.svg"
   xmlns:inkscape="http://www.inkscape.org/namespaces/inkscape"
   xmlns:sodipodi="http://sodipodi.sourceforge.net/DTD/sodipodi-0.dtd"
   xmlns="http://www.w3.org/2000/svg"
   xmlns:svg="http://www.w3.org/2000/svg"><sodipodi:namedview
     id="namedview1248"
     pagecolor="#505050"
     bordercolor="#eeeeee"
     borderopacity="1"
     inkscape:showpageshadow="0"
     inkscape:pageopacity="0"
     inkscape:pagecheckerboard="0"
     inkscape:deskcolor="#505050"
     inkscape:document-units="mm"
     showgrid="false"
     inkscape:zoom="0.6779391"
     inkscape:cx="56.789761"
     inkscape:cy="227.89657"
     inkscape:window-width="1920"
     inkscape:window-height="1047"
     inkscape:window-x="0"
     inkscape:window-y="33"
     inkscape:window-maximized="1"
     inkscape:current-layer="layer3" /><defs
     id="defs1243"><inkscape:path-effect
       effect="powerclip"
       id="path-effect1954"
       is_visible="true"
       lpeversion="1"
       inverse="true"
       flatten="false"
       hide_clip="false"
       message="Jeśli po konwersji przycięcia na ścieżki nie zostanie spłaszczony wynik, użyj reguły wypełniania w oknie dialogowym &lt;b&gt;wypełnienie i obrys&lt;/b&gt; ." /><filter
       id="mask-powermask-path-effect1935_inverse"
       inkscape:label="filtermask-powermask-path-effect1935"
       style="color-interpolation-filters:sRGB"
       height="100"
       width="100"
       x="-50"
       y="-50"><feColorMatrix
         id="mask-powermask-path-effect1935_primitive1"
         values="1"
         type="saturate"
         result="fbSourceGraphic" /><feColorMatrix
         id="mask-powermask-path-effect1935_primitive2"
         values="-1 0 0 0 1 0 -1 0 0 1 0 0 -1 0 1 0 0 0 1 0 "
         in="fbSourceGraphic" /></filter><clipPath
       clipPathUnits="userSpaceOnUse"
       id="clipPath1950"><path
         id="lpe_path-effect1954"
         style="display:inline;fill:#000000;fill-opacity:1;stroke:#000000;stroke-width:0.264583px;stroke-linecap:butt;stroke-linejoin:miter;stroke-opacity:1"
         class="powerclip"
         d="m 20.433744,128.53396 h 33.73218 v 33.45896 h -33.73218 z m 8.187145,16.44768 c 0.01888,4.68752 1.913896,8.35383 8.221017,9.49743 3.932875,0.2377 9.609328,-2.50667 9.309386,-9.70551 0.352134,-5.18191 -3.145991,-8.23218 -8.907431,-8.66828 -7.586559,0.99567 -8.549372,4.75079 -8.622972,8.87636 z" /></clipPath></defs><g
     inkscape:groupmode="layer"
     id="layer3"
     inkscape:label="Warstwa 2"
     style="display:inline"
     transform="translate(-68.454372,-46.50769)"><path
       style="fill:#000000;fill-opacity:1;stroke:#000000;stroke-width:0.264583px;stroke-linecap:butt;stroke-linejoin:miter;stroke-opacity:1"
       d="m 128.66973,97.447223 -0.023,-19.05724 h 2.8022 l 0.009,1.792788 12.58662,12.057375 V 78.513374 h 1.86339 l 0.142,18.933289 h -2.69109 V 94.310676 L 131.24119,82.71225 v 14.538623 z"
       id="path1879"
       sodipodi:nodetypes="ccccccccccccc" /><path
       style="color:#000000;display:inline;fill:none;stroke:#000000;stroke-width:2.065;stroke-dasharray:none;stroke-opacity:1"
       d="m 69.486872,128.89669 c 0.112733,-6.15693 4.760567,-11.10543 11.817314,-11.10543 7.305048,0.0497 11.57096,5.03009 11.650284,10.53692 0,8.20166 -4.411475,12.62523 -12.193748,12.65744 -7.506944,-0.40492 -11.27385,-8.2202 -11.27385,-12.08893 z"
       id="path2283" /><path
       style="fill:#000000;fill-opacity:1;stroke:none;stroke-width:0.264583px;stroke-linecap:butt;stroke-linejoin:miter;stroke-opacity:1"
       d="m 202.7248,121.12022 1.92073,-2.09676 c -3.57074,-1.95583 -6.59781,-3.22798 -10.57194,-3.11672 -6.81913,0.66402 -10.06157,4.22438 -10.15363,8.9522 0.0228,5.19981 3.7359,10.33765 10.11143,10.39646 3.99413,0.13796 7.4606,-1.12128 10.63988,-2.91472 l -1.18726,-2.19739 c -2.63753,2.51132 -6.30204,3.04803 -9.85559,2.62995 -3.98649,-0.29465 -7.28802,-3.39673 -7.36086,-7.65097 0.052,-3.74603 3.2256,-6.72032 7.89139,-6.88476 3.10298,0.0427 6.68829,0.94319 8.56585,2.88271 z"
       id="path1960"
       sodipodi:nodetypes="ccccccccccc" /></g></svg>
