<?xml version="1.0" encoding="UTF-8" standalone="no"?>
<!-- Created with Inkscape (http://www.inkscape.org/) -->

<svg
   width="75.282997mm"
   height="75.282997mm"
   viewBox="0 0 75.282996 75.282996"
   version="1.1"
   id="svg1246"
   xml:space="preserve"
   inkscape:version="1.2.1 (9c6d41e410, 2022-07-14, custom)"
   sodipodi:docname="lilijka_wezel.svg"
   xmlns:inkscape="http://www.inkscape.org/namespaces/inkscape"
   xmlns:sodipodi="http://sodipodi.sourceforge.net/DTD/sodipodi-0.dtd"
   xmlns="http://www.w3.org/2000/svg"
   xmlns:svg="http://www.w3.org/2000/svg"><sodipodi:namedview
     id="namedview1248"
     pagecolor="#505050"
     bordercolor="#eeeeee"
     borderopacity="1"
     inkscape:showpageshadow="0"
     inkscape:pageopacity="0"
     inkscape:pagecheckerboard="0"
     inkscape:deskcolor="#505050"
     inkscape:document-units="mm"
     showgrid="false"
     inkscape:zoom="0.95875068"
     inkscape:cx="-0.52151202"
     inkscape:cy="175.74955"
     inkscape:window-width="1920"
     inkscape:window-height="1047"
     inkscape:window-x="0"
     inkscape:window-y="33"
     inkscape:window-maximized="1"
     inkscape:current-layer="layer3"
     showguides="true" /><defs
     id="defs1243"><inkscape:path-effect
       effect="powerclip"
       id="path-effect1954"
       is_visible="true"
       lpeversion="1"
       inverse="true"
       flatten="false"
       hide_clip="false"
       message="Jeśli po konwersji przycięcia na ścieżki nie zostanie spłaszczony wynik, użyj reguły wypełniania w oknie dialogowym &lt;b&gt;wypełnienie i obrys&lt;/b&gt; ." /><filter
       id="mask-powermask-path-effect1935_inverse"
       inkscape:label="filtermask-powermask-path-effect1935"
       style="color-interpolation-filters:sRGB"
       height="100"
       width="100"
       x="-50"
       y="-50"><feColorMatrix
         id="mask-powermask-path-effect1935_primitive1"
         values="1"
         type="saturate"
         result="fbSourceGraphic" /><feColorMatrix
         id="mask-powermask-path-effect1935_primitive2"
         values="-1 0 0 0 1 0 -1 0 0 1 0 0 -1 0 1 0 0 0 1 0 "
         in="fbSourceGraphic" /></filter><clipPath
       clipPathUnits="userSpaceOnUse"
       id="clipPath1950"><path
         id="lpe_path-effect1954"
         style="display:inline;fill:#000000;fill-opacity:1;stroke:#000000;stroke-width:0.264583px;stroke-linecap:butt;stroke-linejoin:miter;stroke-opacity:1"
         class="powerclip"
         d="m 20.433744,128.53396 h 33.73218 v 33.45896 h -33.73218 z m 8.187145,16.44768 c 0.01888,4.68752 1.913896,8.35383 8.221017,9.49743 3.932875,0.2377 9.609328,-2.50667 9.309386,-9.70551 0.352134,-5.18191 -3.145991,-8.23218 -8.907431,-8.66828 -7.586559,0.99567 -8.549372,4.75079 -8.622972,8.87636 z" /></clipPath></defs><g
     inkscape:groupmode="layer"
     id="layer3"
     inkscape:label="Warstwa 2"
     style="display:inline"
     transform="translate(-98.496261,-137.80378)"><path
       style="fill:none;stroke:#000000;stroke-width:0.965;stroke-linecap:butt;stroke-linejoin:miter;stroke-dasharray:none;stroke-opacity:1"
       d="m 110.03882,156.15623 48.10176,-1.46524 c 6.23314,0.45322 16.19007,11.14416 15.06861,22.12982 -0.64432,7.69728 -4.00344,16.78358 -13.00331,20.60288 l -47.314,-0.21814 c -9.77949,-3.95995 -12.84595,-11.54145 -13.912001,-21.11807 0.360577,-8.64095 2.220001,-16.17944 11.058941,-19.93125 z"
       id="path1755"
       sodipodi:nodetypes="ccccccc" /><path
       style="fill:#000000;fill-opacity:1;stroke:#000000;stroke-width:0.264583px;stroke-linecap:butt;stroke-linejoin:miter;stroke-opacity:1"
       d="m 106.34137,169.84438 v -3.15362 h 16.55502 l -10.90286,15.49593 h 10.94186 v 3.35045 h -17.2692 l 11.10689,-15.99892 z"
       id="path1803" /><path
       style="fill:#000000;fill-opacity:1;stroke:#000000;stroke-width:0.264583px;stroke-linecap:butt;stroke-linejoin:miter;stroke-opacity:1"
       d="M 126.80627,184.61703 V 167.29 h 3.709 v 6.95428 h 11.53121 v -7.01675 h 3.32358 v 17.5293 h -3.90649 v -8.11764 h -11.34592 v 8.13887 z"
       id="path1805" /><path
       style="fill:#000000;fill-opacity:1;stroke:#000000;stroke-width:0.264583px;stroke-linecap:butt;stroke-linejoin:miter;stroke-opacity:1"
       d="M 151.1626,184.71947 151.1029,167.396 h 3.21707 v 17.51043 z"
       id="path1807" /><path
       style="fill:#000000;fill-opacity:1;stroke:#000000;stroke-width:0.264583px;stroke-linecap:butt;stroke-linejoin:miter;stroke-opacity:1"
       d="m 154.24511,167.3594 h 10.34179 c 2.3839,-0.0447 3.66631,2.45054 3.45622,5.19693 0.0706,2.55913 -0.93521,4.95958 -3.75316,5.10987 h -10.03609 v -2.70405 h 9.09312 c 2.36443,-0.33366 2.8422,-4.78834 0,-5.38179 h -9.04111 z"
       id="path1809"
       sodipodi:nodetypes="cccccccccc" /></g></svg>
