<?xml version="1.0" encoding="UTF-8" standalone="no"?>
<!-- Created with Inkscape (http://www.inkscape.org/) -->

<svg
   width="297mm"
   height="297mm"
   viewBox="0 0 297 297"
   version="1.1"
   id="svg5"
   inkscape:version="1.3-dev (f8ca248943, 2022-05-21)"
   sodipodi:docname="ankieta.svg"
   inkscape:export-filename="/home/michaszek8/hps_app_rework/src/android/res/drawable-xxxhdpi/kirigami_splash.png"
   inkscape:export-xdpi="43.787205"
   inkscape:export-ydpi="43.787205"
   xmlns:inkscape="http://www.inkscape.org/namespaces/inkscape"
   xmlns:sodipodi="http://sodipodi.sourceforge.net/DTD/sodipodi-0.dtd"
   xmlns="http://www.w3.org/2000/svg"
   xmlns:svg="http://www.w3.org/2000/svg">
  <sodipodi:namedview
     id="namedview7"
     pagecolor="#505050"
     bordercolor="#eeeeee"
     borderopacity="1"
     objecttolerance="10.0"
     gridtolerance="10.0"
     guidetolerance="10.0"
     inkscape:pageshadow="0"
     inkscape:pageopacity="0"
     inkscape:pagecheckerboard="0"
     inkscape:document-units="mm"
     showgrid="false"
     inkscape:zoom="0.42709131"
     inkscape:cx="741.05933"
     inkscape:cy="551.40434"
     inkscape:window-width="1280"
     inkscape:window-height="767"
     inkscape:window-x="0"
     inkscape:window-y="33"
     inkscape:window-maximized="1"
     inkscape:current-layer="layer2"
     inkscape:showpageshadow="0"
     inkscape:deskcolor="#505050"
     showguides="true" />
  <defs
     id="defs2" />
  <g
     inkscape:groupmode="layer"
     id="layer3"
     inkscape:label="Warstwa 3"
     style="display:inline">
    <rect
       style="fill:#089d36;fill-opacity:1;stroke-width:1.66336;stroke-linecap:round;stroke-linejoin:round;stroke-dashoffset:6.93921"
       id="rect6435"
       width="297"
       height="297"
       x="-2.220446e-16"
       y="-5.5511151e-17"
       ry="36.869968" />
  </g>
  <g
     inkscape:groupmode="layer"
     id="layer2"
     inkscape:label="Warstwa 2"
     style="display:inline">
    <path
       style="fill:#000000;fill-opacity:1;stroke:#000000;stroke-width:0.264583px;stroke-linecap:butt;stroke-linejoin:miter;stroke-opacity:1"
       d="M 124.5317,262.00473 C 111.71213,260.62445 104.84925,251.4244 100.2852,239.20651 53.510344,214.1171 23.741855,123.38608 103.39307,73.486295 l -4.071234,-4.601057 c 10.330204,-10.03841 15.298744,-20.950176 16.146674,-32.533142 1.38899,14.552598 6.80759,20.802793 11.87717,27.772098 11.56363,-2.761794 24.71923,-3.580586 40.74666,-0.894289 1.47299,-4.388965 2.52246,-8.848991 2.76593,-13.444252 0.27779,5.097292 1.679,9.996142 3.33031,14.850814 99.97492,33.774159 79.82071,142.022813 28.01583,172.998563 -5.61009,13.25543 -14.31974,21.72011 -26.72359,24.47494 31.37625,-15.86138 27.86974,-67.13166 6.23584,-81.68963 6.09549,28.20336 -11.73622,39.11017 -22.88656,22.61085 -3.68959,-11.46663 -1.92305,-23.69459 2.79857,-36.33488 1.26234,-6.71012 2.35764,-13.50425 -0.20309,-22.13697 -0.091,4.48571 -7.62574,13.71439 -21.3338,26.87663 -9.40587,8.82048 -20.19325,24.80241 -2.05145,51.53498 -3.87267,-0.95141 -12.72511,-2.40386 -17.55817,-18.53084 -3.11172,-8.38352 -7.12456,-14.39689 -13.01764,-15.4649 4.09815,10.50378 3.79674,17.72004 0.6681,22.82368 -7.8411,19.95022 -1.1284,41.87626 16.39908,50.20584 z"
       id="path870"
       sodipodi:nodetypes="ccccccccccccccccccccc" />
    <path
       style="fill:#000000;fill-opacity:1;stroke:#000000;stroke-width:0.264583px;stroke-linecap:round;stroke-linejoin:round;stroke-opacity:1"
       d="m 151.30425,266.91992 c -11.1594,0.31257 -18.47942,-13.21651 -9.71978,-23.42789 1.0392,-0.98237 2.19494,-1.45207 3.56893,-0.96162 0.51642,6.1087 6.08083,9.30322 7.85111,2.73649 1.00484,-2.53994 0.65721,-6.75366 -0.52932,-12.32861 0.37469,-2.7035 1.43997,-4.80053 4.16741,-5.43788 -1.04466,6.54414 3.16142,11.46643 6.10199,16.77961 4.18168,10.77935 -0.35176,21.7782 -11.44034,22.6399 z"
       id="path5525"
       sodipodi:nodetypes="cccccccc" />
    <path
       style="fill:#000000;fill-opacity:1;stroke:none;stroke-width:0.264583px;stroke-linecap:butt;stroke-linejoin:miter;stroke-opacity:1"
       d="M 180.93168,34.584047 C 191.8276,23.574203 192.3516,16.526867 193.69807,9.1653121 194.24823,17.181645 197.62495,25.54194 206.33363,34.551075 194.78258,47.150367 195.11074,53.169767 193.68809,60.158941 192.69943,53.73818 192.01706,45.932522 180.93168,34.584047 Z"
       id="path18111"
       sodipodi:nodetypes="ccccc" />
  </g>
  <g
     inkscape:groupmode="layer"
     id="layer4"
     inkscape:label="Warstwa 4">
    <path
       style="fill:#089d36;fill-opacity:1;stroke:none;stroke-width:0.264583px;stroke-linecap:butt;stroke-linejoin:miter;stroke-opacity:1"
       d="m 174.80625,134.28599 c 3.30269,-3.48615 5.80489,-7.93101 8.09434,-12.63065 1.94443,5.02182 5.09007,8.85846 8.29414,12.63745 -3.48926,4.05936 -6.62382,8.20324 -8.24483,12.70778 -2.26353,-4.34135 -4.5934,-8.66752 -8.14365,-12.71458 z"
       id="path12764"
       sodipodi:nodetypes="ccccc" />
    <path
       style="fill:#089d36;fill-opacity:1;stroke:none;stroke-width:0.275209px;stroke-linecap:butt;stroke-linejoin:miter;stroke-opacity:1"
       d="m 185.33866,34.383292 c 3.43534,-3.626156 6.03802,-8.249524 8.41941,-13.137905 2.02252,5.2235 5.29449,9.214222 8.62724,13.144978 -3.62939,4.222387 -6.88983,8.532688 -8.57595,13.218133 -2.35443,-4.515701 -4.77787,-9.015613 -8.4707,-13.225206 z"
       id="path12764-35"
       sodipodi:nodetypes="ccccc" />
    <path
       style="fill:#089d36;fill-opacity:1;stroke:none;stroke-width:0.452339px;stroke-linecap:butt;stroke-linejoin:miter;stroke-opacity:1"
       d="m 156.81622,86.330101 c 5.64638,-5.960033 10.03716,-14.082718 13.95129,-22.117372 3.32425,8.585464 8.63434,15.748954 14.11211,22.209636 -5.96534,6.940011 -11.21381,14.350495 -13.98515,22.051595 -3.86979,-7.42211 -8.00863,-15.224875 -14.07825,-22.143859 z"
       id="path12764-3"
       sodipodi:nodetypes="ccccc" />
    <path
       style="fill:#089d36;fill-opacity:1;stroke:none;stroke-width:0.158498px;stroke-linecap:butt;stroke-linejoin:miter;stroke-opacity:1"
       d="m 92.518911,153.14537 c 1.99533,-2.07072 3.507043,-4.71091 4.890214,-7.50242 1.174724,2.98289 3.075165,5.26179 5.010915,7.50647 -2.10805,2.41119 -4.001791,4.87259 -4.981125,7.54823 -1.367511,-2.57869 -2.77511,-5.14838 -4.920004,-7.55228 z"
       id="path12764-6"
       sodipodi:nodetypes="ccccc" />
    <path
       style="fill:#089d36;fill-opacity:1;stroke:none;stroke-width:0.273168px;stroke-linecap:butt;stroke-linejoin:miter;stroke-opacity:1"
       d="m 116.5944,111.3397 c 3.43891,-3.56884 6.04432,-8.11916 8.4282,-12.930277 2.02463,5.140957 5.30001,9.068587 8.63623,12.937257 -3.63318,4.15564 -6.89702,8.39782 -8.58489,13.00922 -2.35689,-4.44432 -4.78286,-8.87312 -8.47954,-13.0162 z"
       id="path12764-6-7"
       sodipodi:nodetypes="ccccc" />
    <path
       style="fill:#089d36;fill-opacity:1;stroke:none;stroke-width:0.383201px;stroke-linecap:butt;stroke-linejoin:miter;stroke-opacity:1"
       d="m 103.36296,69.012693 c 4.82412,-5.006384 8.82459,-12.199358 12.16871,-18.948414 2.84016,7.211757 7.26382,13.300268 11.94389,18.727254 -5.09664,5.82955 -9.6171,12.643655 -11.98485,19.112545 -3.30625,-6.23451 -6.94203,-13.079455 -12.12775,-18.891385 z"
       id="path12764-6-7-5"
       sodipodi:nodetypes="ccccc" />
  </g>
</svg>
