<?xml version="1.0" encoding="UTF-8" standalone="no"?>
<!-- Created with Inkscape (http://www.inkscape.org/) -->

<svg
   version="1.1"
   id="svg824"
   xml:space="preserve"
   width="829.99286"
   height="794.10657"
   viewBox="0 0 829.99286 794.10657"
   sodipodi:docname="mapa.svg"
   inkscape:version="1.1.1 (3bf5ae0d25, 2021-09-20, custom)"
   xmlns:inkscape="http://www.inkscape.org/namespaces/inkscape"
   xmlns:sodipodi="http://sodipodi.sourceforge.net/DTD/sodipodi-0.dtd"
   xmlns="http://www.w3.org/2000/svg"
   xmlns:svg="http://www.w3.org/2000/svg"><defs
     id="defs828"><clipPath
       clipPathUnits="userSpaceOnUse"
       id="clipPath838"><path
         d="M 0,1080 H 1920 V 0 H 0 Z"
         id="path836" /></clipPath><clipPath
       clipPathUnits="userSpaceOnUse"
       id="clipPath938"><path
         d="M 0,1080 H 1920 V 0 H 0 Z"
         id="path936" /></clipPath></defs><sodipodi:namedview
     id="namedview826"
     pagecolor="#505050"
     bordercolor="#eeeeee"
     borderopacity="1"
     inkscape:pageshadow="0"
     inkscape:pageopacity="0"
     inkscape:pagecheckerboard="0"
     showgrid="false"
     fit-margin-top="10"
     fit-margin-left="10"
     fit-margin-right="10"
     fit-margin-bottom="10"
     lock-margins="true"
     inkscape:zoom="0.37695312"
     inkscape:cx="261.3057"
     inkscape:cy="470.88083"
     inkscape:window-width="1920"
     inkscape:window-height="1042"
     inkscape:window-x="0"
     inkscape:window-y="38"
     inkscape:window-maximized="1"
     inkscape:current-layer="g834" /><g
     id="g830"
     inkscape:groupmode="layer"
     inkscape:label="Ikonka-mapa"
     transform="matrix(1.3333333,0,0,-1.3333333,-1018.5127,1190.6813)"><g
       id="g832"><g
         id="g834"
         clip-path="url(#clipPath838)"><g
           id="g860"
           transform="translate(1182.6094,825.5957)"
           style="stroke-width:4.68567;stroke-miterlimit:4;stroke-dasharray:none"><path
             d="m 0,0 -204.656,56.524 c -0.872,-0.152 -1.755,-0.236 -2.643,-0.235 L -408.882,-3.155 v -508.724 l 204.83,59.942 193.927,-66.251 204.052,70.196 v 504.78 z"
             style="fill:none;stroke:#000000;stroke-width:4.68567;stroke-linecap:butt;stroke-linejoin:miter;stroke-miterlimit:4;stroke-dasharray:none;stroke-opacity:1"
             id="path862" /></g><g
           id="g864"
           transform="translate(976.2588,880.313)"><path
             d="M 0,0 C 1.741,-169.313 -0.259,-337.313 2.299,-506.654"
             style="fill:#000000;fill-opacity:1;fill-rule:nonzero;stroke:#000000;stroke-width:1;stroke-linecap:butt;stroke-linejoin:miter;stroke-miterlimit:10;stroke-dasharray:none;stroke-opacity:1"
             id="path866" /></g><g
           id="g868"
           transform="translate(1182.6094,825.5957)"><path
             d="M 0,0 -10.125,-518.188"
             style="fill:#000000;fill-opacity:1;fill-rule:nonzero;stroke:#000000;stroke-width:1;stroke-linecap:butt;stroke-linejoin:miter;stroke-miterlimit:10;stroke-dasharray:none;stroke-opacity:1"
             id="path870" /></g><g
           id="g872"
           transform="translate(886.6172,457.1279)"><path
             d="m 0,0 c 0,-10.999 -8.917,-19.915 -19.915,-19.915 -10.999,0 -19.915,8.916 -19.915,19.915 0,10.998 8.916,19.915 19.915,19.915 C -8.917,19.915 0,10.998 0,0 Z"
             style="fill:none;stroke:#000000;stroke-width:2;stroke-linecap:butt;stroke-linejoin:miter;stroke-miterlimit:10;stroke-dasharray:none;stroke-opacity:1"
             id="path874" /></g><g
           id="g876"
           transform="translate(879.7817,498.6309)"><path
             d="m 0,0 c 0,-7.224 -5.856,-13.079 -13.08,-13.079 -7.223,0 -13.08,5.855 -13.08,13.079 0,7.225 5.857,13.08 13.08,13.08 C -5.856,13.08 0,7.225 0,0 Z"
             style="fill:none;stroke:#000000;stroke-width:2;stroke-linecap:butt;stroke-linejoin:miter;stroke-miterlimit:10;stroke-dasharray:none;stroke-opacity:1"
             id="path878" /></g><g
           id="g880"
           transform="translate(893.5107,540)"><path
             d="m 0,0 c 0,-7.224 -5.856,-13.08 -13.08,-13.08 -7.224,0 -13.08,5.856 -13.08,13.08 0,7.224 5.856,13.08 13.08,13.08 C -5.856,13.08 0,7.224 0,0 Z"
             style="fill:none;stroke:#000000;stroke-width:2;stroke-linecap:butt;stroke-linejoin:miter;stroke-miterlimit:10;stroke-dasharray:none;stroke-opacity:1"
             id="path882" /></g><g
           id="g884"
           transform="translate(913.1489,573.9312)"><path
             d="m 0,0 c 0,-7.224 -5.856,-13.08 -13.08,-13.08 -7.224,0 -13.08,5.856 -13.08,13.08 0,7.224 5.856,13.08 13.08,13.08 C -5.856,13.08 0,7.224 0,0 Z"
             style="fill:none;stroke:#000000;stroke-width:2;stroke-linecap:butt;stroke-linejoin:miter;stroke-miterlimit:10;stroke-dasharray:none;stroke-opacity:1"
             id="path886" /></g><g
           id="g888"
           transform="translate(940.2837,607.8076)"><path
             d="m 0,0 c 0,-7.224 -5.856,-13.08 -13.08,-13.08 -7.224,0 -13.08,5.856 -13.08,13.08 0,7.224 5.856,13.08 13.08,13.08 C -5.856,13.08 0,7.224 0,0 Z"
             style="fill:none;stroke:#000000;stroke-width:2;stroke-linecap:butt;stroke-linejoin:miter;stroke-miterlimit:10;stroke-dasharray:none;stroke-opacity:1"
             id="path890" /></g><g
           id="g892"
           transform="translate(978.1689,631.084)"><path
             d="m 0,0 c 0,-7.224 -5.855,-13.08 -13.079,-13.08 -7.224,0 -13.08,5.856 -13.08,13.08 0,7.224 5.856,13.08 13.08,13.08 C -5.855,13.08 0,7.224 0,0 Z"
             style="fill:none;stroke:#000000;stroke-width:2;stroke-linecap:butt;stroke-linejoin:miter;stroke-miterlimit:10;stroke-dasharray:none;stroke-opacity:1"
             id="path894" /></g><g
           id="g896"
           transform="translate(1016.8301,641.0425)"><path
             d="m 0,0 c 0,-7.224 -5.856,-13.08 -13.08,-13.08 -7.224,0 -13.08,5.856 -13.08,13.08 0,7.224 5.856,13.08 13.08,13.08 C -5.856,13.08 0,7.224 0,0 Z"
             style="fill:none;stroke:#000000;stroke-width:2;stroke-linecap:butt;stroke-linejoin:miter;stroke-miterlimit:10;stroke-dasharray:none;stroke-opacity:1"
             id="path898" /></g><g
           id="g900"
           transform="translate(1054.3613,629.7329)"><path
             d="m 0,0 c 0,-7.224 -5.855,-13.08 -13.079,-13.08 -7.225,0 -13.08,5.856 -13.08,13.08 0,7.224 5.855,13.08 13.08,13.08 C -5.855,13.08 0,7.224 0,0 Z"
             style="fill:none;stroke:#000000;stroke-width:2;stroke-linecap:butt;stroke-linejoin:miter;stroke-miterlimit:10;stroke-dasharray:none;stroke-opacity:1"
             id="path902" /></g><g
           id="g904"
           transform="translate(1083.8984,602.98)"><path
             d="m 0,0 c 0,-7.224 -5.856,-13.08 -13.08,-13.08 -7.224,0 -13.08,5.856 -13.08,13.08 0,7.224 5.856,13.08 13.08,13.08 C -5.856,13.08 0,7.224 0,0 Z"
             style="fill:none;stroke:#000000;stroke-width:2;stroke-linecap:butt;stroke-linejoin:miter;stroke-miterlimit:10;stroke-dasharray:none;stroke-opacity:1"
             id="path906" /></g><g
           id="g908"
           transform="translate(1108.8037,577.4731)"><path
             d="m 0,0 c 0,-7.224 -5.856,-13.08 -13.08,-13.08 -7.224,0 -13.08,5.856 -13.08,13.08 0,7.224 5.856,13.08 13.08,13.08 C -5.856,13.08 0,7.224 0,0 Z"
             style="fill:none;stroke:#000000;stroke-width:2;stroke-linecap:butt;stroke-linejoin:miter;stroke-miterlimit:10;stroke-dasharray:none;stroke-opacity:1"
             id="path910" /></g><g
           id="g912"
           transform="translate(1141.7393,560.8516)"><path
             d="m 0,0 c 0,-7.224 -5.855,-13.08 -13.08,-13.08 -7.224,0 -13.079,5.856 -13.079,13.08 0,7.224 5.855,13.08 13.079,13.08 C -5.855,13.08 0,7.224 0,0 Z"
             style="fill:none;stroke:#000000;stroke-width:2;stroke-linecap:butt;stroke-linejoin:miter;stroke-miterlimit:10;stroke-dasharray:none;stroke-opacity:1"
             id="path914" /></g><g
           id="g916"
           transform="translate(1172.4844,577.4731)"><path
             d="m 0,0 c 0,-7.224 -5.855,-13.08 -13.079,-13.08 -7.225,0 -13.08,5.856 -13.08,13.08 0,7.224 5.855,13.08 13.08,13.08 C -5.855,13.08 0,7.224 0,0 Z"
             style="fill:none;stroke:#000000;stroke-width:2;stroke-linecap:butt;stroke-linejoin:miter;stroke-miterlimit:10;stroke-dasharray:none;stroke-opacity:1"
             id="path918" /></g><g
           id="g920"
           transform="translate(1198.3613,597.6177)"><path
             d="m 0,0 c 0,-7.224 -5.855,-13.08 -13.079,-13.08 -7.225,0 -13.08,5.856 -13.08,13.08 0,7.224 5.855,13.08 13.08,13.08 C -5.855,13.08 0,7.224 0,0 Z"
             style="fill:none;stroke:#000000;stroke-width:2;stroke-linecap:butt;stroke-linejoin:miter;stroke-miterlimit:10;stroke-dasharray:none;stroke-opacity:1"
             id="path922" /></g><g
           id="g924"
           transform="translate(1222.1064,620.8877)"><path
             d="m 0,0 c 0,-7.224 -5.856,-13.08 -13.08,-13.08 -7.224,0 -13.08,5.856 -13.08,13.08 0,7.224 5.856,13.08 13.08,13.08 C -5.856,13.08 0,7.224 0,0 Z"
             style="fill:none;stroke:#000000;stroke-width:2;stroke-linecap:butt;stroke-linejoin:miter;stroke-miterlimit:10;stroke-dasharray:none;stroke-opacity:1"
             id="path926" /></g><g
           id="g928"
           transform="translate(1238.957,654.1226)"><path
             d="m 0,0 c 0,-7.224 -5.855,-13.08 -13.079,-13.08 -7.225,0 -13.08,5.856 -13.08,13.08 0,7.224 5.855,13.08 13.08,13.08 C -5.855,13.08 0,7.224 0,0 Z"
             style="fill:none;stroke:#000000;stroke-width:2;stroke-linecap:butt;stroke-linejoin:miter;stroke-miterlimit:10;stroke-dasharray:none;stroke-opacity:1"
             id="path930" /></g></g></g><g
       id="g932"><g
         id="g934"
         clip-path="url(#clipPath938)"><g
           id="g940"
           transform="translate(1212.7373,727.333)"><path
             d="m 0,0 36,-36 c 9.113,-9.113 23.259,5.025 14.143,14.142 l -36,36 C 5.029,23.255 -9.116,9.117 0,0"
             style="fill:#000000;fill-opacity:1;fill-rule:nonzero;stroke:none"
             id="path942" /></g><g
           id="g944"
           transform="translate(1249.8652,741.4751)"><path
             d="m 0,0 -36,-36 c -9.113,-9.113 5.025,-23.259 14.142,-14.142 l 36,36 C 23.255,-5.029 9.116,9.117 0,0"
             style="fill:#000000;fill-opacity:1;fill-rule:nonzero;stroke:none"
             id="path946" /></g></g></g></g></svg>
