<?xml version="1.0" encoding="UTF-8" standalone="no"?>
<!-- Created with Inkscape (http://www.inkscape.org/) -->

<svg
   width="222.86874mm"
   height="222.86874mm"
   viewBox="0 0 222.86875 222.86875"
   version="1.1"
   id="svg5"
   inkscape:version="1.1 (c68e22c387, 2021-05-23)"
   sodipodi:docname="namiot_dycha.svg"
   xmlns:inkscape="http://www.inkscape.org/namespaces/inkscape"
   xmlns:sodipodi="http://sodipodi.sourceforge.net/DTD/sodipodi-0.dtd"
   xmlns="http://www.w3.org/2000/svg"
   xmlns:svg="http://www.w3.org/2000/svg">
  <sodipodi:namedview
     id="namedview7"
     pagecolor="#505050"
     bordercolor="#eeeeee"
     borderopacity="1"
     inkscape:pageshadow="0"
     inkscape:pageopacity="0"
     inkscape:pagecheckerboard="0"
     inkscape:document-units="mm"
     showgrid="false"
     inkscape:zoom="0.41071317"
     inkscape:cx="158.2613"
     inkscape:cy="346.95746"
     inkscape:window-width="1600"
     inkscape:window-height="837"
     inkscape:window-x="-8"
     inkscape:window-y="-8"
     inkscape:window-maximized="1"
     inkscape:current-layer="layer2"
     fit-margin-top="10"
     fit-margin-left="10"
     fit-margin-right="10"
     fit-margin-bottom="10"
     lock-margins="true"
     showguides="false" />
  <defs
     id="defs2" />
  <g
     inkscape:groupmode="layer"
     id="layer2"
     inkscape:label="Warstwa 2"
     style="display:inline"
     transform="translate(10.153724,-239.74797)">
    <path
       style="fill:none;stroke:#000000;stroke-width:0.9;stroke-linecap:butt;stroke-linejoin:miter;stroke-miterlimit:4;stroke-dasharray:none;stroke-opacity:1"
       d="m 25.980713,385.5751 1.611038,-37.60899 -3.034534,1.25268 2.021377,-2.59078 c 17.579593,-8.72536 25.504,-16.46221 39.927549,-26.87083 11.874329,-2.4817 22.494824,-6.03812 32.882956,-9.79371 l 48.370691,-12.07132 c 6.70688,11.74665 27.65707,25.86718 50.90452,40.37059 l 2.96089,2.44843 -2.73313,0.34164 0.51246,29.03949 -0.39858,12.98237 -1.02492,6.88976 -4.15664,-0.17082 -42.24961,5.69402"
       id="path870"
       sodipodi:nodetypes="ccccccccccccccc" />
    <path
       style="fill:none;stroke:#000000;stroke-width:0.9;stroke-linecap:butt;stroke-linejoin:miter;stroke-miterlimit:4;stroke-dasharray:none;stroke-opacity:1"
       d="m 25.451546,385.5751 53.860424,14.01102 c 0.339679,-21.23829 -0.959025,-42.47658 2.511073,-63.71487 m 1.759443,66.16329 64.423534,-5.13578 -0.48316,-27.29817 -0.32211,-52.26109"
       id="path872"
       sodipodi:nodetypes="ccccccc" />
    <path
       style="fill:none;stroke:#000000;stroke-width:0.9;stroke-linecap:butt;stroke-linejoin:miter;stroke-miterlimit:4;stroke-dasharray:none;stroke-opacity:1"
       d="m 27.591751,347.96611 c -2.465285,-0.001 7.401307,-0.576 7.503881,-4.047 1.973288,0.80227 3.111099,-1.71695 5.274958,-2.43925 13.908337,1.0395 16.693343,-1.71304 21.63727,-3.72958 h 14.519746 c 1.731689,-0.77132 3.275159,-2.35826 5.295437,-1.87903 24.547567,-4.45426 49.448267,-12.79289 74.420817,-21.92197 12.94217,9.55917 27.36025,17.32617 42.42044,24.31346"
       id="path1235"
       sodipodi:nodetypes="cccccccc" />
    <path
       style="fill:none;stroke:#000000;stroke-width:0.9;stroke-linecap:butt;stroke-linejoin:miter;stroke-miterlimit:4;stroke-dasharray:none;stroke-opacity:1"
       d="m 81.823043,335.87125 c 4.89367,2.31031 68.230817,-35.26019 65.936737,-37.9791"
       id="path1790"
       sodipodi:nodetypes="cc" />
    <path
       style="fill:none;stroke:#000000;stroke-width:0.9;stroke-linecap:butt;stroke-linejoin:miter;stroke-miterlimit:4;stroke-dasharray:none;stroke-opacity:1"
       d="m 147.75978,297.89215 8.48408,16.05713"
       id="path2502" />
    <path
       style="fill:none;stroke:#000000;stroke-width:0.9;stroke-linecap:butt;stroke-linejoin:miter;stroke-miterlimit:4;stroke-dasharray:none;stroke-opacity:1"
       d="m 130.37091,352.36812 -1.52998,-14.89723 16.74932,-0.88578 1.52999,14.4946 z"
       id="path2639" />
    <path
       style="fill:none;stroke:#000000;stroke-width:0.9;stroke-linecap:butt;stroke-linejoin:miter;stroke-miterlimit:4;stroke-dasharray:none;stroke-opacity:1"
       d="m 151.57477,395.48763 c 1.37497,-9.79371 0.39599,-19.58743 0.34164,-29.38114 l 0.34164,-11.16028 c -0.14271,-5.16705 0.73799,-10.38796 -0.68328,-15.48772 -0.94307,-10.06212 -2.08091,-19.10709 -4.37402,-22.11899"
       id="path2858"
       sodipodi:nodetypes="ccccc" />
    <path
       style="fill:none;stroke:#000000;stroke-width:0.9;stroke-linecap:butt;stroke-linejoin:miter;stroke-miterlimit:4;stroke-dasharray:none;stroke-opacity:1"
       d="m 158.12289,350.9604 -1.59433,-13.72258 13.49483,0.79716 1.36656,13.72259"
       id="path3102" />
    <path
       style="fill:none;stroke:#000000;stroke-width:0.9;stroke-linecap:butt;stroke-linejoin:miter;stroke-miterlimit:4;stroke-dasharray:none;stroke-opacity:1"
       d="M 171.38995,351.75757 158.12289,350.9604"
       id="path3104" />
    <path
       style="fill:none;stroke:#000000;stroke-width:0.9;stroke-linecap:butt;stroke-linejoin:miter;stroke-miterlimit:4;stroke-dasharray:none;stroke-opacity:1"
       d="m 198.3796,350.04936 c -0.40009,13.4966 -0.4229,27.07704 -4.55522,39.74425"
       id="path3235"
       sodipodi:nodetypes="cc" />
    <path
       style="fill:none;stroke:#000000;stroke-width:0.9;stroke-linecap:butt;stroke-linejoin:miter;stroke-miterlimit:4;stroke-dasharray:none;stroke-opacity:1"
       d="m 83.582485,402.03454 c -2.578338,-6.67767 -2.86622,-13.35534 -3.137432,-20.03301 l -1.207883,7.56941"
       id="path4513"
       sodipodi:nodetypes="ccc" />
    <path
       style="fill:none;stroke:#000000;stroke-width:0.9;stroke-linecap:butt;stroke-linejoin:miter;stroke-miterlimit:4;stroke-dasharray:none;stroke-opacity:1"
       d="m 80.445051,382.00153 1.377992,-46.13028"
       id="path5197" />
    <path
       style="display:inline;fill:none;stroke:#000000;stroke-width:0.264583px;stroke-linecap:butt;stroke-linejoin:miter;stroke-opacity:1"
       d="m 74.464621,338.00455 -48.835713,75.67047 -3.059972,-0.9663"
       id="path5621" />
    <path
       style="display:inline;fill:none;stroke:#000000;stroke-width:0.264583px;stroke-linecap:butt;stroke-linejoin:miter;stroke-opacity:1"
       d="M 62.00786,337.75028 11.261019,403.03024 7.8446076,402.34695"
       id="path5623" />
    <path
       style="display:inline;fill:none;stroke:#000000;stroke-width:0.264583px;stroke-linecap:butt;stroke-linejoin:miter;stroke-opacity:1"
       d="M 41.291134,341.60463 2.1567013,394.87136 -0.09801486,393.82453"
       id="path5625"
       sodipodi:nodetypes="ccc" />
  </g>
</svg>
