<?xml version="1.0" encoding="UTF-8" standalone="no"?>
<!-- Created with Inkscape (http://www.inkscape.org/) -->

<svg
   width="207.74684mm"
   height="207.74684mm"
   viewBox="0 0 207.74684 207.74684"
   version="1.1"
   id="svg5"
   inkscape:version="1.1.2 (0a00cf5339, 2022-02-04, custom)"
   sodipodi:docname="namiot_biwakowy.svg"
   xmlns:inkscape="http://www.inkscape.org/namespaces/inkscape"
   xmlns:sodipodi="http://sodipodi.sourceforge.net/DTD/sodipodi-0.dtd"
   xmlns="http://www.w3.org/2000/svg"
   xmlns:svg="http://www.w3.org/2000/svg">
  <sodipodi:namedview
     id="namedview7"
     pagecolor="#505050"
     bordercolor="#eeeeee"
     borderopacity="1"
     inkscape:pageshadow="0"
     inkscape:pageopacity="0"
     inkscape:pagecheckerboard="0"
     inkscape:document-units="mm"
     showgrid="false"
     inkscape:zoom="0.57727273"
     inkscape:cx="321.33858"
     inkscape:cy="284.96063"
     inkscape:window-width="1890"
     inkscape:window-height="1020"
     inkscape:window-x="0"
     inkscape:window-y="0"
     inkscape:window-maximized="1"
     inkscape:current-layer="layer2"
     fit-margin-top="0"
     fit-margin-left="0"
     fit-margin-right="0"
     fit-margin-bottom="0" />
  <defs
     id="defs2" />
  <g
     inkscape:groupmode="layer"
     id="layer2"
     inkscape:label="Warstwa 2"
     transform="translate(-1.3300635,-69.267236)">
    <path
       style="fill:none;stroke:#000000;stroke-width:0.965;stroke-linecap:butt;stroke-linejoin:miter;stroke-miterlimit:4;stroke-dasharray:none;stroke-opacity:1"
       d="m 2.6468302,214.73654 9.0623778,-13.29961 13.207407,-19.10744 7.671042,-11.44424 c 0.41155,-5.58442 2.563592,-9.79394 5.618835,-13.28998 l -0.0583,-2.8177 3.973042,-0.76214 c 2.864746,-2.2152 6.596411,-2.94917 10.339355,-3.66387 l 14.819519,-9.44574 c 7.401047,-6.51843 14.438357,-13.48965 23.846539,-17.50944 7.904317,-3.36118 16.022453,-6.3258 25.916643,-5.99661 9.63733,1.13992 19.27452,2.26916 28.97526,8.37869 10.6947,7.02963 19.34765,14.56455 25.19222,22.79448 9.22336,12.09304 16.12114,24.44433 22.38851,36.86562 l 11.39679,23.82058 3.51247,0.10877 0.0573,1.05117 -4.7787,-0.25759 c -1.01194,-1.09445 -3.185,-1.36204 -5.33976,-1.64266 -18.81535,8.80858 -37.75648,14.38899 -56.66974,20.68475 -9.48245,1.50923 -62.042997,3.17059 -93.064496,4.75588 3.796821,-5.61495 7.783969,-10.993 10.430886,-18.03927 l 3.776104,-7.95212 -20.953756,-4.07845 -1.955303,-1.78567 1.678245,-0.12085 c -0.552239,-1.88423 -1.977562,-2.37732 -3.977072,-1.95552 z"
       id="path1608"
       sodipodi:nodetypes="cccccccccccccccccccccccccccc" />
    <path
       style="fill:none;stroke:#000000;stroke-width:0.865;stroke-linecap:butt;stroke-linejoin:miter;stroke-miterlimit:4;stroke-dasharray:none;stroke-opacity:1"
       d="m 52.460588,150.35156 c 11.414937,2.16342 22.845677,4.36129 39.601301,18.16515 24.550341,19.68856 37.050501,43.7634 51.331091,67.19015"
       id="path2787"
       sodipodi:nodetypes="ccc" />
    <path
       style="fill:none;stroke:#000000;stroke-width:0.865;stroke-linecap:butt;stroke-linejoin:miter;stroke-miterlimit:4;stroke-dasharray:none;stroke-opacity:1"
       d="M 143.39298,235.70686 C 130.99805,200.96725 129.87975,162.94353 123.16256,126.45308 l -3.15151,-8.74111"
       id="path2955"
       sodipodi:nodetypes="ccc" />
    <path
       style="fill:none;stroke:#000000;stroke-width:0.765;stroke-linecap:butt;stroke-linejoin:miter;stroke-miterlimit:4;stroke-dasharray:none;stroke-opacity:1"
       d="m 91.935444,123.09291 31.227116,3.36017 23.19863,-0.45732"
       id="path3094" />
    <path
       style="fill:none;stroke:#000000;stroke-width:0.665;stroke-linecap:butt;stroke-linejoin:miter;stroke-miterlimit:4;stroke-dasharray:none;stroke-opacity:1"
       d="m 143.83799,156.49922 7.54445,7.46848 37.99044,56.50555 13.92545,17.30514 -2.29411,3.1132"
       id="path3096" />
    <path
       style="fill:none;stroke:#000000;stroke-width:0.665;stroke-linecap:butt;stroke-linejoin:miter;stroke-miterlimit:4;stroke-dasharray:none;stroke-opacity:1"
       d="m 62.920133,207.96807 c 5.789753,-13.98001 11.946294,-27.80844 16.525743,-42.28861"
       id="path3098"
       sodipodi:nodetypes="cc" />
    <path
       style="fill:none;stroke:#000000;stroke-width:0.665;stroke-linecap:butt;stroke-linejoin:miter;stroke-miterlimit:4;stroke-dasharray:none;stroke-opacity:1"
       d="m 32.587657,170.88525 8.015137,-11.79742"
       id="path3190" />
    <path
       style="fill:none;stroke:#000000;stroke-width:0.665;stroke-linecap:butt;stroke-linejoin:miter;stroke-miterlimit:4;stroke-dasharray:none;stroke-opacity:1"
       d="m 34.970577,167.35235 c -0.977869,10.80074 -1.918138,22.48432 2.74167,32.67523"
       id="path3192"
       sodipodi:nodetypes="cc" />
    <path
       style="fill:none;stroke:#000000;stroke-width:0.665;stroke-linecap:butt;stroke-linejoin:miter;stroke-miterlimit:4;stroke-dasharray:none;stroke-opacity:1"
       d="m 38.206492,157.59527 c 2.672843,2.89332 5.142279,0.57768 7.676075,-0.0898 l 25.826233,3.18797 7.737076,4.98597 2.558639,-4.4455"
       id="path3398"
       sodipodi:nodetypes="ccccc" />
    <path
       style="fill:none;stroke:#000000;stroke-width:0.665;stroke-linecap:butt;stroke-linejoin:miter;stroke-miterlimit:4;stroke-dasharray:none;stroke-opacity:1"
       d="M 56.506591,159.0421 C 45.389157,177.04403 42.888239,187.33954 37.712247,200.02758"
       id="path3523"
       sodipodi:nodetypes="cc" />
  </g>
</svg>
