<?xml version="1.0" encoding="UTF-8" standalone="no"?>
<!-- Created with Inkscape (http://www.inkscape.org/) -->

<svg
   width="110.89134mm"
   height="110.0789mm"
   viewBox="0 0 110.89134 110.0789"
   version="1.1"
   id="svg5"
   inkscape:version="1.2-dev (2b1b049028, 2021-10-21, custom)"
   sodipodi:docname="nauce.svg"
   xmlns:inkscape="http://www.inkscape.org/namespaces/inkscape"
   xmlns:sodipodi="http://sodipodi.sourceforge.net/DTD/sodipodi-0.dtd"
   xmlns="http://www.w3.org/2000/svg"
   xmlns:svg="http://www.w3.org/2000/svg">
  <sodipodi:namedview
     id="namedview7"
     pagecolor="#505050"
     bordercolor="#eeeeee"
     borderopacity="1"
     inkscape:pageshadow="0"
     inkscape:pageopacity="0"
     inkscape:pagecheckerboard="0"
     inkscape:blackoutopacity="0.0"
     inkscape:document-units="mm"
     showgrid="false"
     inkscape:zoom="0.94615211"
     inkscape:cx="778.94452"
     inkscape:cy="400.04138"
     inkscape:window-width="1894"
     inkscape:window-height="1024"
     inkscape:window-x="0"
     inkscape:window-y="0"
     inkscape:window-maximized="1"
     inkscape:current-layer="layer2"
     showguides="true"
     fit-margin-top="5"
     lock-margins="true"
     fit-margin-left="5"
     fit-margin-right="5"
     fit-margin-bottom="5" />
  <defs
     id="defs2" />
  <g
     inkscape:groupmode="layer"
     id="layer2"
     inkscape:label="Warstwa 2"
     style="display:inline;opacity:1"
     transform="translate(-18.491659,-31.105234)">
    <path
       style="display:inline;fill:#645655;fill-opacity:1;stroke:#000000;stroke-width:0.264583px;stroke-linecap:butt;stroke-linejoin:miter;stroke-opacity:1"
       d="M 74.712687,136.03505 C 46.154386,136.13723 24.189639,113.15015 24.23276,85.762511 27.48441,46.061514 59.457481,35.445926 75.148326,36.484451 108.07146,37.161605 125.06204,64.597796 124.22093,86.379665 121.37021,119.46266 93.535822,136.66621 74.712687,136.03505 Z"
       id="path14377"
       sodipodi:nodetypes="ccccc" />
    <path
       style="display:inline;fill:#b6b5ba;fill-opacity:1;stroke:#000000;stroke-width:0.264583px;stroke-linecap:butt;stroke-linejoin:miter;stroke-opacity:1"
       d="m 56.264171,123.69668 -2.739924,4.71084 c 3.605393,1.89239 7.432873,2.94882 11.259868,4.00707 l 3.878258,3.10068 C 48.252623,133.90788 26.652565,118.25691 23.624057,87.314531 24.08234,59.532537 44.364244,36.45554 73.124572,36.237532 c 30.853598,0.38712 49.531148,22.20522 50.804338,47.831342 1.83104,15.780878 -8.20777,43.602266 -41.802596,51.301146 3.104899,-2.58835 6.674678,-4.63542 10.660058,-6.1986 l -1.431452,-5.02979"
       id="path603"
       sodipodi:nodetypes="cccccccccc" />
    <path
       style="fill:#d1d1d0;fill-opacity:1;stroke:#000000;stroke-width:0.264583px;stroke-linecap:butt;stroke-linejoin:miter;stroke-opacity:1"
       d="m 92.768747,129.1442 -1.381735,-4.99907 c 5.831423,-2.23682 11.145478,-6.66772 15.703348,-11.69088 l 3.68091,3.72252 c -5.69784,6.14401 -11.74747,10.82895 -18.002523,12.96743 z"
       id="path60595"
       sodipodi:nodetypes="ccccc" />
    <path
       style="fill:#645655;fill-opacity:1;stroke:#000000;stroke-width:0.264583px;stroke-linecap:butt;stroke-linejoin:miter;stroke-opacity:1"
       d="m 107.04305,112.53438 c 8.8556,-12.720876 9.25133,-19.956158 9.59436,-27.157268 -1.71833,-12.825403 -7.15166,-23.864908 -17.923571,-33.298276 l 4.057511,-3.950932 c 12.80294,10.14784 18.1794,23.119996 19.04023,37.83083 0.24678,12.651523 -4.8243,21.818726 -11.13816,30.171656 z"
       id="path78006"
       sodipodi:nodetypes="ccccccc" />
    <path
       style="fill:#d1d1d0;fill-opacity:1;stroke:#000000;stroke-width:0.264583px;stroke-linecap:butt;stroke-linejoin:miter;stroke-opacity:1"
       d="M 98.80286,52.034062 C 92.046816,48.39433 87.072872,44.374572 74.665308,44.59842 c -11.30714,-0.0655 -17.86392,3.442066 -24.536825,7.440903 l -2.740889,-4.796557 c 6.802814,-3.837972 12.493074,-8.06989 26.779566,-8.64073 11.302651,-0.739716 20.196454,3.900542 28.65091,9.52205 z"
       id="path95802"
       sodipodi:nodetypes="ccccccc" />
    <path
       style="fill:#645655;fill-opacity:1;stroke:#000000;stroke-width:0.264583px;stroke-linecap:butt;stroke-linejoin:miter;stroke-opacity:1"
       d="m 47.413663,47.141873 c -11.19204,9.035486 -19.606904,20.710316 -20.343092,39.682729 0.03818,11.890532 5.879361,20.936568 11.894402,29.897388 l 3.449089,-3.79542 C 36.569765,104.1006 31.567183,95.126977 32.573878,85.099238 32.862505,71.14121 39.917841,60.975105 50.237971,52.165417 Z"
       id="path111105"
       sodipodi:nodetypes="ccccccc" />
    <path
       style="fill:none;stroke:#000000;stroke-width:0.264583px;stroke-linecap:butt;stroke-linejoin:miter;stroke-opacity:1"
       d="m 38.944502,116.65373 3.458842,-3.7932 c 3.559785,4.5936 8.180748,8.22554 13.865683,10.89327 l -2.711249,4.36063 c -6.397828,-3.32229 -10.58543,-7.36544 -14.613276,-11.4607 z"
       id="path122235"
       sodipodi:nodetypes="ccccc" />
  </g>
  <g
     inkscape:groupmode="layer"
     id="layer5"
     inkscape:label="Warstwa 3"
     style="display:inline"
     transform="translate(-18.491659,-31.105234)">
    <path
       style="display:inline;fill:#447546;fill-opacity:1;stroke:#000000;stroke-width:0.235253px;stroke-linecap:butt;stroke-linejoin:miter;stroke-opacity:1"
       d="M 32.784593,87.54593 C 31.101816,72.271426 44.18713,44.936461 74.793861,44.152789 101.47733,44.808945 116.70332,67.388247 116.37871,85.977313 116.682,106.32041 101.31545,126.47134 74.046295,128.28155 52.9844,127.48612 33.893969,112.58257 32.784593,87.54593 Z"
       id="path14023"
       sodipodi:nodetypes="ccccc" />
  </g>
  <g
     inkscape:groupmode="layer"
     id="layer6"
     inkscape:label="Warstwa 5"
     transform="translate(-18.491659,-31.105234)">
    <path
       style="fill:#f8f8f0;fill-opacity:1;stroke:#000000;stroke-width:0.264583px;stroke-linecap:butt;stroke-linejoin:miter;stroke-opacity:1"
       d="m 45.337142,73.269622 -1.959115,-0.02519 c 1.94476,13.260028 1.076458,25.716197 0.855247,38.357278 5.37264,-1.54124 13.271555,-2.03541 30.062492,1.15591 l 29.271314,-2.42315 z"
       id="path146603"
       sodipodi:nodetypes="cccccc" />
    <path
       style="fill:#f8f8f0;fill-opacity:1;stroke:#000000;stroke-width:0.264583px;stroke-linecap:butt;stroke-linejoin:miter;stroke-opacity:1"
       d="m 46.154694,108.03956 c 0.641119,-12.566756 1.61851,-25.145213 -1.422442,-37.583848 l 63.423168,-1.118018 c -3.5561,13.084568 -4.5995,26.871037 -4.54499,40.964196 l -29.409324,2.56224 c -8.594864,-4.20214 -17.114564,-5.39338 -28.046412,-4.82457 z"
       id="path135055"
       sodipodi:nodetypes="cccccc" />
    <path
       style="fill:#f8f8f0;fill-opacity:1;stroke:#000000;stroke-width:0.264583px;stroke-linecap:butt;stroke-linejoin:miter;stroke-opacity:1"
       d="m 45.157268,67.656341 63.618962,-1.358857 c -5.52933,11.890594 -7.1053,26.797176 -8.05196,42.096026 -10.107584,0.15447 -19.337002,1.20469 -26.53085,4.5265 -7.067631,-3.57019 -15.29694,-5.99847 -25.566499,-6.42122 0.723703,-16.226003 -0.118568,-29.721483 -3.469653,-38.842449 z"
       id="path133551"
       sodipodi:nodetypes="cccccc" />
  </g>
  <g
     inkscape:groupmode="layer"
     id="layer4"
     inkscape:label="Warstwa 4"
     style="display:inline"
     transform="translate(-18.491659,-31.105234)">
    <path
       style="display:inline;fill:#dcdcd4;fill-opacity:1;stroke:#000000;stroke-width:0.232948px;stroke-linecap:butt;stroke-linejoin:miter;stroke-opacity:1"
       d="m 74.897755,100.44503 c -2.288234,-1.183674 -3.810649,-3.320622 -5.11441,-5.72979 l 0.04059,-3.35347 c 2.208913,-2.282637 2.536116,-5.208567 2.472269,-8.268174 1.693482,0.74077 3.382422,1.00892 5.060551,0.15399 -3.78e-4,3.151857 1.098611,5.781057 2.322895,8.544494 l -0.06472,3.04949 c -0.944158,2.156338 -2.260235,3.958159 -4.717211,5.60346 z"
       id="path59738-3"
       sodipodi:nodetypes="cccccccc" />
    <path
       style="display:inline;fill:#dcdcd4;fill-opacity:1;stroke:#000000;stroke-width:0.232948px;stroke-linecap:butt;stroke-linejoin:miter;stroke-opacity:1"
       d="m 69.545161,80.949336 c -0.436085,4.767197 -2.276961,6.652077 -5.093248,6.535627 -2.545373,-0.13265 -4.118122,-1.39944 -5.411166,-2.992387 -0.283659,2.301437 -1.004979,4.945027 0.833309,6.783514 1.730153,1.84206 3.476982,2.21964 5.224938,2.49885 2.553355,0.0897 3.701393,-1.15714 4.704927,-2.54152 2.730006,-2.811487 2.430915,-5.486607 2.543812,-8.078594 -1.248291,-0.62179 -1.947813,-1.44166 -2.802572,-2.20549 z"
       id="path61451-6"
       sodipodi:nodetypes="cccccccc" />
    <path
       style="display:inline;fill:#dcdcd4;fill-opacity:1;stroke:#000000;stroke-width:0.232948px;stroke-linecap:butt;stroke-linejoin:miter;stroke-opacity:1"
       d="m 77.357263,83.349236 2.47514,-1.5529 c 1.0794,2.74183 2.127016,5.525907 5.162248,5.667977 2.59527,-0.0534 4.272988,-1.33905 5.690108,-2.974527 1.335433,7.465324 -2.431059,8.475204 -6.299332,9.356294 -1.700426,0.12787 -3.218335,-0.83239 -4.630221,-2.42471 -1.534407,-2.440447 -2.273889,-5.151527 -2.397943,-8.072134 z"
       id="path63689-7"
       sodipodi:nodetypes="ccccccc" />
    <path
       style="display:inline;fill:#dcdcd4;fill-opacity:1;stroke:#000000;stroke-width:0.232948px;stroke-linecap:butt;stroke-linejoin:miter;stroke-opacity:1"
       d="m 79.863595,81.847046 c -3.569232,2.77151 -6.76231,2.66546 -10.091044,-0.79142 -0.244584,-0.57799 -0.488085,-1.42428 -0.07377,-2.486347 0.611099,-1.64911 2.46454,-2.58577 4.915976,-2.60604 3.539044,-0.10917 5.351341,1.23655 5.968973,3.748317 0.01646,0.77888 -0.0876,1.51555 -0.720141,2.13549 z"
       id="path64488-5"
       sodipodi:nodetypes="cccccc" />
    <path
       style="display:inline;fill:#dcdcd4;fill-opacity:1;stroke:#000000;stroke-width:0.232948px;stroke-linecap:butt;stroke-linejoin:miter;stroke-opacity:1"
       d="m 69.711018,78.660749 c -0.854,-5.613277 -4.173853,-7.212737 -8.064989,-7.882267 -3.522825,-0.28397 -5.032393,3.718897 -7.189522,5.074887 -3.118179,-2.391877 -5.749409,-5.278157 -6.367481,-10.208429 -0.09096,-4.074981 4.405449,-7.447624 7.880776,-7.417493 5.094475,-0.290625 14.464728,4.986321 16.380062,18.072412 -1.111377,0.17592 -2.048323,0.82978 -2.638846,2.36089 z"
       id="path66152-3"
       sodipodi:nodetypes="ccccccc" />
    <path
       style="display:inline;fill:#dcdcd4;fill-opacity:1;stroke:#000000;stroke-width:0.232948px;stroke-linecap:butt;stroke-linejoin:miter;stroke-opacity:1"
       d="m 72.378178,76.258759 c -0.809556,-4.593077 -2.5785,-8.85121 -5.276776,-12.784882 -1.091083,-1.933983 -1.868909,-3.744134 -1.64454,-5.158108 0.711512,-4.676261 2.489049,-9.312682 9.206036,-13.764506 2.655759,0.454283 8.615803,6.620285 9.36337,10.753916 0.694088,2.477718 0.15293,4.648173 0.07141,6.932959 -2.80722,2.806469 -5.496375,6.037445 -6.864609,14.017651 -2.067806,-0.52547 -3.457418,-0.25665 -4.854883,0.003 z"
       id="path68489-5"
       sodipodi:nodetypes="cccccccc" />
    <path
       style="display:inline;fill:#dcdcd4;fill-opacity:1;stroke:#000000;stroke-width:0.232948px;stroke-linecap:butt;stroke-linejoin:miter;stroke-opacity:1"
       d="m 77.275172,76.272629 c 1.311808,-8.049348 4.065559,-11.079795 6.844819,-14.02143 2.42854,-1.999589 4.914149,-3.948798 9.47445,-4.066351 4.43052,0.524865 7.510469,2.403527 8.201129,6.677229 -0.21351,4.143995 -2.247187,7.830685 -6.613781,10.931242 -2.179284,-1.735667 -3.511006,-5.090577 -7.699679,-4.855877 -5.492105,1.03466 -6.246457,3.930597 -7.43365,6.969057 -0.894667,-0.66262 -1.740736,-1.51787 -2.773288,-1.63387 z"
       id="path71037-6"
       sodipodi:nodetypes="cccccccc" />
  </g>
</svg>
