<?xml version="1.0" encoding="UTF-8" standalone="no"?>
<!-- Created with Inkscape (http://www.inkscape.org/) -->

<svg
   width="206.70592mm"
   height="206.42262mm"
   viewBox="0 0 206.70592 206.42262"
   version="1.1"
   id="svg5"
   inkscape:version="1.2-dev (fd8ac3146e, 2021-05-04, custom)"
   sodipodi:docname="noz.svg"
   xmlns:inkscape="http://www.inkscape.org/namespaces/inkscape"
   xmlns:sodipodi="http://sodipodi.sourceforge.net/DTD/sodipodi-0.dtd"
   xmlns="http://www.w3.org/2000/svg"
   xmlns:svg="http://www.w3.org/2000/svg">
  <sodipodi:namedview
     id="namedview7"
     pagecolor="#505050"
     bordercolor="#eeeeee"
     borderopacity="1"
     objecttolerance="10.0"
     gridtolerance="10.0"
     guidetolerance="10.0"
     inkscape:pageshadow="0"
     inkscape:pageopacity="0"
     inkscape:pagecheckerboard="0"
     inkscape:document-units="mm"
     showgrid="false"
     inkscape:zoom="0.21354565"
     inkscape:cx="-728.18153"
     inkscape:cy="182.63074"
     inkscape:window-width="1920"
     inkscape:window-height="1046"
     inkscape:window-x="0"
     inkscape:window-y="34"
     inkscape:window-maximized="0"
     inkscape:current-layer="layer2"
     fit-margin-top="10"
     lock-margins="true"
     fit-margin-left="10"
     fit-margin-right="10"
     fit-margin-bottom="10" />
  <defs
     id="defs2" />
  <g
     inkscape:groupmode="layer"
     id="layer2"
     inkscape:label="Warstwa 2"
     transform="translate(-9.001779,-4.6242027)">
    <path
       style="fill:none;stroke:#000000;stroke-width:0.73;stroke-linecap:butt;stroke-linejoin:miter;stroke-miterlimit:4;stroke-dasharray:none;stroke-opacity:1"
       d="M 110.79447,130.89283 87.480727,116.26534 c -2.839569,-2.02594 0.671197,-5.46588 4.910474,-9.00638 L 117.8382,117.7862 c -0.91865,1.97073 -0.98888,3.79795 -0.78288,5.57846 0.41333,4.45787 -1.05373,7.45035 -6.26085,7.52817 z"
       id="path870"
       sodipodi:nodetypes="cccccc" />
    <path
       style="fill:none;stroke:#000000;stroke-width:0.73;stroke-linecap:butt;stroke-linejoin:miter;stroke-miterlimit:4;stroke-dasharray:none;stroke-opacity:1"
       d="m 92.391199,107.25896 0.565556,-0.63418 25.269945,10.4242 -0.3885,0.73722"
       id="path1498" />
    <path
       style="fill:none;stroke:#000000;stroke-width:0.73;stroke-linecap:butt;stroke-linejoin:miter;stroke-miterlimit:4;stroke-dasharray:none;stroke-opacity:1"
       d="m 92.956755,106.62478 c -0.366215,-0.82884 0.519806,-1.35181 1.010871,-1.97125 2.446706,-2.969 4.456015,-6.057384 6.384484,-9.16784 1.78647,-2.431249 4.0544,-6.391263 5.09632,-6.458316 l 1.81254,-2.602631 0.10983,-0.562456 5.00239,-5.966415 3.83642,-4.487533 4.92828,-5.465893 4.35369,-4.613986 4.05362,-4.297971 5.75736,-5.821898 c 11.07711,-11.80081 25.7248,-22.898584 39.64313,-33.964185 l 15.87097,28.711712 c 0.54253,0.857884 0.0807,1.470235 -0.81672,1.976056 -7.75674,5.5021 -13.53119,11.625934 -18.35236,18.048754 -5.99437,7.161926 -11.31207,14.951722 -18.70429,20.816613 -6.21065,5.789083 -14.30957,11.151849 -22.59257,16.473059 -7.81031,3.88002 -10.94775,10.56439 -12.12402,9.77838 z"
       id="path1502"
       sodipodi:nodetypes="cccccccccccccccccccc" />
    <path
       style="fill:none;stroke:#000000;stroke-width:0.73;stroke-linecap:butt;stroke-linejoin:miter;stroke-miterlimit:4;stroke-dasharray:none;stroke-opacity:1"
       d="m 174.94569,21.244406 0.25482,0.441359 1.4058,-0.811643 15.90521,28.983413 -1.45301,0.990121"
       id="path2645"
       sodipodi:nodetypes="ccccc" />
    <path
       style="fill:none;stroke:#000000;stroke-width:0.73;stroke-linecap:butt;stroke-linejoin:miter;stroke-miterlimit:4;stroke-dasharray:none;stroke-opacity:1"
       d="m 176.60631,20.874122 c 0.32646,-0.736115 0.81065,-1.323391 1.53053,-1.688255 l 5.3726,-3.430537 c 1.23975,-0.973954 2.56046,-1.092 4.00219,0.06965 5.69633,4.32546 10.49755,9.574915 15.11814,15.010822 1.70953,3.333823 1.9058,6.667644 2.59376,10.001467 0.40156,1.724301 -0.24902,2.456451 -1.28954,2.882485 l -10.62274,6.108105 -0.90366,-0.200093"
       id="path2941"
       sodipodi:nodetypes="ccccccccc" />
    <path
       style="fill:none;stroke:#000000;stroke-width:0.73;stroke-linecap:butt;stroke-linejoin:miter;stroke-miterlimit:4;stroke-dasharray:none;stroke-opacity:1"
       d="m 87.307547,116.11334 c -23.104923,28.01614 -48.77166,55.26741 -67.652296,84.54476 31.56037,1.22876 61.765078,-45.75622 87.155169,-72.22471"
       id="path3565"
       sodipodi:nodetypes="ccc" />
    <path
       style="fill:none;stroke:#000000;stroke-width:0.73;stroke-linecap:butt;stroke-linejoin:miter;stroke-miterlimit:4;stroke-dasharray:none;stroke-opacity:1"
       d="m 105.44843,89.027374 c 31.68626,1.472869 57.28381,-21.921554 83.3372,-42.726238 l -1.93227,-3.372975 c -24.91951,21.673751 -51.15098,43.698813 -79.59239,43.49658 z"
       id="path4011"
       sodipodi:nodetypes="ccccc" />
    <path
       style="fill:none;stroke:#000000;stroke-width:0.73;stroke-linecap:butt;stroke-linejoin:miter;stroke-miterlimit:4;stroke-dasharray:none;stroke-opacity:1"
       d="m 22.640389,196.17351 c 23.835002,-7.28875 52.152419,-42.246 77.290375,-72.12055"
       id="path4331"
       sodipodi:nodetypes="cc" />
  </g>
</svg>
