<?xml version="1.0" encoding="UTF-8" standalone="no"?>
<svg
   height="399.78665"
   width="399.78665"
   id="svg2514"
   sodipodi:version="0.32"
   inkscape:version="1.2-dev (b7a20b0417, 2021-04-06, custom)"
   version="1.0"
   sodipodi:docname="Wedro2.svg"
   inkscape:output_extension="org.inkscape.output.svg.inkscape"
   xmlns:inkscape="http://www.inkscape.org/namespaces/inkscape"
   xmlns:sodipodi="http://sodipodi.sourceforge.net/DTD/sodipodi-0.dtd"
   xmlns="http://www.w3.org/2000/svg"
   xmlns:svg="http://www.w3.org/2000/svg"
   xmlns:rdf="http://www.w3.org/1999/02/22-rdf-syntax-ns#"
   xmlns:cc="http://creativecommons.org/ns#"
   xmlns:dc="http://purl.org/dc/elements/1.1/">
  <defs
     id="defs2516" />
  <sodipodi:namedview
     id="base"
     pagecolor="#ffffff"
     bordercolor="#666666"
     borderopacity="1.0"
     inkscape:pageopacity="0.0"
     inkscape:pageshadow="2"
     inkscape:cx="86.279264"
     inkscape:cy="153.16677"
     inkscape:zoom="1.7791065"
     inkscape:document-units="px"
     inkscape:current-layer="layer1"
     width="460px"
     height="1000px"
     showborder="true"
     inkscape:window-width="1920"
     inkscape:window-height="1080"
     inkscape:window-x="0"
     inkscape:window-y="0"
     showgrid="false"
     inkscape:window-maximized="1"
     fit-margin-top="0"
     fit-margin-left="0"
     fit-margin-right="0"
     fit-margin-bottom="0"
     objecttolerance="10.0"
     gridtolerance="10.0"
     guidetolerance="10.0"
     inkscape:pagecheckerboard="0" />
  <metadata
     id="metadata2519">
    <rdf:RDF>
      <cc:Work
         rdf:about="">
        <dc:format>image/svg+xml</dc:format>
        <dc:type
           rdf:resource="http://purl.org/dc/dcmitype/StillImage" />
      </cc:Work>
    </rdf:RDF>
  </metadata>
  <g
     inkscape:groupmode="layer"
     inkscape:label="Warstwa 1"
     id="layer1"
     style="display:inline"
     transform="translate(-28.329915,-242.76703)">
    <g
       id="g4077"
       transform="matrix(0.68141239,0,0,0.68141239,409.91479,29.858185)">
      <path
         sodipodi:nodetypes="csssscssscssc"
         id="path3090"
         d="m -234.89325,323.53925 c 0,0 -36.96289,30.20624 -47.69406,62.79718 -10.73116,32.59094 4.37196,78.6952 14.30822,98.17027 9.93626,19.47508 37.7578,69.15639 43.71956,83.46461 5.96175,14.30821 18.54453,44.52497 17.48782,68.36148 -1.62028,36.54899 -16.29547,70.74619 -16.29547,70.74619 0,0 55.47964,-34.13706 61.60482,-79.88755 5.44076,-40.63843 -0.0837,-73.54181 -6.75665,-87.83656 -2.43368,-5.21345 -30.09982,-55.49138 -35.61734,-67.24134 -0.56788,-1.20935 -0.90114,-2.01057 -0.94811,-2.31249 0,0 -22.25723,-40.93741 -27.42408,-56.43798 -5.16686,-15.50057 -9.14136,-36.9629 -7.55156,-54.05327 1.5898,-17.09037 5.5643,-34.57819 5.16685,-35.77054 z"
         style="opacity:1;fill:none;fill-rule:evenodd;stroke:#000000;stroke-width:1.87992;stroke-linecap:butt;stroke-linejoin:miter;stroke-miterlimit:4;stroke-dasharray:none;stroke-opacity:1" />
      <path
         sodipodi:nodetypes="cscsc"
         id="path3092"
         d="m -213.03347,543.32937 c 0,0 44.96064,27.75767 48.09151,74.7207 3.57706,52.86091 -56.83542,88.23401 -56.83542,88.23401 0,0 30.89229,-91.85715 19.47508,-136.72297 -4.16259,-16.35759 -11.92352,-25.43683 -10.73117,-26.23174 z"
         style="fill:none;fill-rule:evenodd;stroke:#000000;stroke-width:2.17342687;stroke-linecap:butt;stroke-linejoin:miter;stroke-opacity:1;stroke-miterlimit:4;stroke-dasharray:none" />
      <path
         sodipodi:nodetypes="cssscscsc"
         id="path3094"
         d="m -304.84453,416.54266 c 0,0 -29.01389,20.66743 -31.79604,64.38699 -2.78216,43.71955 31.00113,100.55497 39.3476,114.86319 8.34646,14.30822 39.79456,73.41344 42.57671,81.7599 2.78216,8.34646 7.50205,29.52624 7.50205,29.52624 10.8649,2.02778 35.52791,-67.98659 5.40543,-103.2918 -32.48781,-38.07752 -53.09949,-99.8054 -53.09949,-99.8054 0,0 -19.47508,-39.3476 -16.69292,-62.00228 2.78215,-22.65468 8.34646,-26.62919 6.75666,-25.43684 z"
         style="fill:none;fill-rule:evenodd;stroke:#000000;stroke-width:1.87991886;stroke-linecap:butt;stroke-linejoin:miter;stroke-miterlimit:4;stroke-dasharray:none;stroke-opacity:1" />
      <path
         id="path3096"
         d="m -270.66379,588.63873 c 0,0 9.53881,13.11587 10.73116,23.05213 1.19235,9.93626 2.78216,53.25837 4.76941,63.59208 1.98725,10.33371 8.34646,32.98839 8.34646,32.98839 0,0 18.28272,-17.48782 19.87252,-53.25836 1.58981,-35.77055 -17.88527,-56.83543 -24.24448,-60.01503 -6.3592,-3.1796 -19.47507,-5.56431 -19.47507,-6.35921 z"
         style="fill:none;fill-rule:evenodd;stroke:#000000;stroke-width:1.73316485;stroke-linecap:butt;stroke-linejoin:miter;stroke-opacity:1;stroke-miterlimit:4;stroke-dasharray:none" />
      <path
         id="path3098"
         d="m -350.94879,532.20076 c 0,0 -19.07763,39.74505 -2.38471,88.23401 16.69293,48.48896 84.25951,98.96518 84.25951,98.96518 0,0 4.37196,-42.52721 -21.06488,-76.70795 -25.43683,-34.18074 -37.75779,-49.68131 -44.51445,-61.20738 -6.75666,-11.52606 -16.69292,-50.47621 -16.29547,-49.28386 z"
         style="fill:none;fill-rule:evenodd;stroke:#010000;stroke-width:2.02667286;stroke-linecap:butt;stroke-linejoin:miter;stroke-opacity:1;stroke-miterlimit:4;stroke-dasharray:none" />
      <path
         sodipodi:nodetypes="cscsc"
         id="path3100"
         d="m -269.07399,719.39995 c 0,0 -0.85062,-44.29835 -10.73843,-58.14128 -15.89802,-22.25724 -41.33485,-29.80879 -41.33485,-29.80879 0,0 17.09764,14.42172 16.30274,38.26875 -0.79491,23.84703 35.77054,50.87367 35.77054,49.68132 z"
         style="fill:none;fill-rule:evenodd;stroke:#000000;stroke-width:1.87991886;stroke-linecap:butt;stroke-linejoin:miter;stroke-opacity:1;stroke-miterlimit:4;stroke-dasharray:none" />
      <path
         id="path3102"
         d="m -304.84453,727.74641 c 0,0 -2.38471,7.15411 5.5643,13.11586 7.94901,5.96176 4.37196,13.11587 4.37196,13.11587 l -78.6952,67.56659 c 0,0 -9.53881,0.7949 -13.11587,-8.74392 -3.57705,-9.53881 -9.53881,-12.71841 -9.53881,-12.71841 0,0 -6.75666,-5.16686 -0.7949,-12.71842 5.96176,-7.55156 93.00342,-59.22012 92.20852,-59.61757 z"
         style="fill:none;fill-opacity:1;fill-rule:evenodd;stroke:#000000;stroke-width:2.02667286;stroke-linecap:butt;stroke-linejoin:miter;stroke-opacity:1;stroke-miterlimit:4;stroke-dasharray:none" />
      <path
         id="path3104"
         d="m -270.26634,751.59344 36.168,-0.7949 v 110.09378 c 0,0 -0.79491,13.11587 -9.53882,14.30822 -8.74391,1.19235 -26.62918,-18.28272 -26.62918,-18.28272 l 0.39745,-103.33713 z"
         style="fill:none;fill-opacity:1;fill-rule:evenodd;stroke:#010101;stroke-width:2.02667286;stroke-linecap:butt;stroke-linejoin:miter;stroke-opacity:1;stroke-miterlimit:4;stroke-dasharray:none" />
      <path
         id="path3106"
         d="m -189.58389,729.33621 79.4901,67.16913 c 0,0 5.16686,9.93627 -7.55156,27.42409 -12.71841,17.48782 -19.87252,2.3847 -19.87252,2.3847 0,0 -63.98953,-75.11814 -63.98953,-73.52834 0,1.5898 11.92351,-23.84703 11.92351,-23.44958 z"
         style="fill:none;fill-opacity:1;fill-rule:evenodd;stroke:#000000;stroke-width:2.02667286;stroke-linecap:butt;stroke-linejoin:miter;stroke-opacity:1;stroke-miterlimit:4;stroke-dasharray:none" />
    </g>
  </g>
</svg>
