<?xml version="1.0" encoding="UTF-8" standalone="no"?>
<svg
   width="314.45947mm"
   height="314.45947mm"
   viewBox="0 0 314.45947 314.45947"
   version="1.1"
   id="svg8"
   inkscape:version="1.3-dev (980431ed50, 2022-06-01, custom)"
   sodipodi:docname="osiolek.svg"
   xmlns:inkscape="http://www.inkscape.org/namespaces/inkscape"
   xmlns:sodipodi="http://sodipodi.sourceforge.net/DTD/sodipodi-0.dtd"
   xmlns="http://www.w3.org/2000/svg"
   xmlns:svg="http://www.w3.org/2000/svg"
   xmlns:rdf="http://www.w3.org/1999/02/22-rdf-syntax-ns#"
   xmlns:cc="http://creativecommons.org/ns#"
   xmlns:dc="http://purl.org/dc/elements/1.1/">
  <defs
     id="defs2" />
  <sodipodi:namedview
     id="base"
     pagecolor="#ffffff"
     bordercolor="#666666"
     borderopacity="1.0"
     inkscape:pageopacity="0.0"
     inkscape:pageshadow="2"
     inkscape:zoom="0.51070905"
     inkscape:cx="809.65866"
     inkscape:cy="442.52202"
     inkscape:document-units="mm"
     inkscape:current-layer="layer2"
     inkscape:document-rotation="0"
     showgrid="false"
     inkscape:pagecheckerboard="true"
     showborder="true"
     borderlayer="false"
     inkscape:showpageshadow="false"
     inkscape:window-width="1920"
     inkscape:window-height="1047"
     inkscape:window-x="0"
     inkscape:window-y="0"
     inkscape:window-maximized="1"
     inkscape:deskcolor="#d1d1d1" />
  <metadata
     id="metadata5">
    <rdf:RDF>
      <cc:Work
         rdf:about="">
        <dc:format>image/svg+xml</dc:format>
        <dc:type
           rdf:resource="http://purl.org/dc/dcmitype/StillImage" />
      </cc:Work>
    </rdf:RDF>
  </metadata>
  <g
     inkscape:groupmode="layer"
     id="layer2"
     inkscape:label="Warstwa 2"
     style="opacity:1"
     transform="translate(61.012709,10.766021)">
    <circle
       style="display:inline;fill:#f8f7fd;fill-opacity:1;fill-rule:evenodd;stroke:#000000;stroke-width:6.565;stroke-linecap:round;stroke-miterlimit:4;stroke-dasharray:none;stroke-opacity:1;paint-order:markers fill stroke"
       id="path895"
       cx="96.217026"
       cy="146.46371"
       r="153.94724" />
    <path
       style="display:inline;fill:#383838;fill-opacity:1;stroke:none;stroke-width:0.265;stroke-linecap:butt;stroke-linejoin:miter;stroke-miterlimit:4;stroke-dasharray:none;stroke-opacity:1"
       d="M 77.641796,101.69605 C 63.980699,85.77895 60.825578,65.205485 50.246671,47.573975 48.825377,45.205152 45.679889,33.086204 41.293142,35.279578 c -18.079176,9.039588 -5.901836,59.375986 6.414468,71.494592 11.103611,10.92538 33.968031,6.21665 29.934186,-5.07812 z"
       id="path862"
       sodipodi:nodetypes="csssc" />
    <path
       style="fill:#e6e6e6;stroke:none;stroke-width:0.265;stroke-linecap:butt;stroke-linejoin:miter;stroke-miterlimit:4;stroke-dasharray:none;stroke-opacity:1"
       d="M 65.213764,104.90329 C 59.984311,93.240285 61.965593,76.935393 55.725697,66.015573 54.082351,63.139721 49.559326,62.030212 48.242148,59.066564 47.578909,57.574277 40.022531,49.111855 39.55589,49.578498 c -7.665966,7.665965 -2.541992,38.648724 2.405425,47.306705 1.827496,3.198117 10.410942,12.063297 13.764382,14.298917 5.251746,3.50117 11.08271,-2.18032 9.488067,-6.28083 z"
       id="path854" />
    <path
       style="fill:#383838;fill-opacity:1;stroke:none;stroke-width:0.265;stroke-linecap:butt;stroke-linejoin:miter;stroke-miterlimit:4;stroke-dasharray:none;stroke-opacity:1"
       d="m 105.83873,101.96332 c 3.3562,-10.701473 5.39877,-18.441386 9.62171,-28.99874 1.9871,-4.967739 5.1297,-16.744418 6.28083,-21.782467 1.91697,-8.389781 4.2898,-15.308676 5.13803,-19.540327 4.26344,-21.269341 17.23108,4.455552 20.25257,28.627492 2.57906,20.632524 -19.81563,69.614812 -41.29314,41.694042 z"
       id="path864"
       sodipodi:nodetypes="cssssc" />
    <path
       style="fill:#e6e6e6;stroke:none;stroke-width:0.265;stroke-linecap:butt;stroke-linejoin:miter;stroke-miterlimit:4;stroke-dasharray:none;stroke-opacity:1"
       d="m 119.50977,110.26211 c 3.65256,-4.26472 16.73188,-12.283822 19.73765,-20.72682 2.56154,-7.195163 7.70815,-57.307977 -5.07812,-50.914844 -2.25302,1.126513 -2.82744,3.886689 -4.00904,6.013566 -2.55198,4.593558 -6.61954,7.139487 -8.55263,12.294396 -3.42825,9.142 1.05624,20.389548 -0.53454,29.934188 -0.75182,4.510934 -10.08164,14.121804 -8.95352,17.506154 1.21799,3.654 4.39283,4.18057 7.3902,5.89336 z"
       id="path856"
       sodipodi:nodetypes="cssssssc" />
    <path
       style="fill:#383838;fill-opacity:1;stroke:none;stroke-width:0.265;stroke-linecap:butt;stroke-linejoin:miter;stroke-miterlimit:4;stroke-dasharray:none;stroke-opacity:1"
       d="m 130.25472,155.84083 c 17.5605,23.89232 7.58077,41.31032 8.21066,62.37557 0.28601,9.56489 2.77677,20.6859 -1.6827,35.21333 -1.27174,4.14291 -6.70918,9.60058 -7.26195,13.82559 -0.45922,3.50995 -1.85156,11.79163 -4.26513,14.36443 -2.77689,2.9601 -4.65601,7.38745 -6.95103,9.99838 -1.03101,1.17293 -0.59227,7.18011 -1.71004,7.55985 -3.13707,1.06576 -12.26753,1.52939 -15.62707,0 -2.047717,-0.9322 7.75406,-18.5061 2.22004,-21.36548 -3.862955,-0.51511 -6.621404,1.08577 -6.589995,5.35971 0.02693,3.66443 2.031351,10.32629 1.707067,13.20725 -0.08199,0.72841 0.410337,2.16177 -0.129646,2.53513 -1.587921,1.09793 -5.88682,1.81315 -13.222098,0.14869 -1.895833,-1.3282 -0.991656,-9.64651 -2.574024,-11.13973 C 75.087387,281.0429 71.818533,269.17408 71.24851,258.91369 Z"
       id="path874"
       sodipodi:nodetypes="cssssssscssscscc" />
    <path
       style="fill:#4d4d4d;stroke:none;stroke-width:0.265;stroke-linecap:butt;stroke-linejoin:miter;stroke-miterlimit:4;stroke-dasharray:none;stroke-opacity:1"
       d="m 54.050593,190.31101 c -7.634826,-7.18972 -6.4949,-16.9516 -5.589544,-27.09801 1.141203,-12.78956 5.291329,-11.29927 1.715289,-17.59768 -4.577041,-8.06145 -4.549507,-7.11603 -2.740328,-16.72544 2.19278,-11.6469 11.457648,-21.60335 22.300597,-27.0253 28.365177,-14.183831 53.418053,4.57 65.028933,26.38005 1.1794,2.2154 0.98877,11.17172 0.21388,12.7215 -2.85121,5.7024 -2.99318,9.68209 -3.94541,15.66526 -2.10369,13.21818 -0.98747,27.08352 -2.90008,41.42813 -9.16141,28.01166 -24.16681,2.78759 -38.553573,-1.32291 -8.803278,-2.51523 -34.695663,2.75946 -36.096726,-7.74851"
       id="path872"
       sodipodi:nodetypes="cssssssscsc" />
    <path
       style="fill:#b3b3b3;stroke:none;stroke-width:0.265;stroke-linecap:butt;stroke-linejoin:miter;stroke-miterlimit:4;stroke-dasharray:none;stroke-opacity:1"
       d="m 41.694047,227.71364 c -0.993439,7.4982 7.100676,5.9738 9.888971,10.15624 4.34949,6.52423 -3.185432,8.93344 1.523761,15.05939 1.913884,2.48967 6.184847,6.70887 13.576967,10.33121 11.253609,5.51458 30.530998,-2.95027 33.542324,-8.55262 8.24522,-15.3396 -7.633909,-3.44105 -3.073598,-12.56167 2.615613,-5.23123 8.893588,-7.12636 11.626228,-11.22532 7.17621,-10.76432 2.8459,-25.68885 -3.47451,-36.74956 -8.757619,-15.32584 -23.291988,9.64147 -30.735993,13.36348 -8.893392,4.44669 -12.705707,-11.86269 -19.777945,-13.63075 -12.546925,-3.13673 -16.069794,25.48355 -13.096205,33.8096 z"
       id="path866"
       sodipodi:nodetypes="csssssssssc" />
    <path
       style="fill:#ececec;stroke:none;stroke-width:0.265;stroke-linecap:butt;stroke-linejoin:miter;stroke-miterlimit:4;stroke-dasharray:none;stroke-opacity:1"
       d="m 70.158249,152.87817 c -3.485624,0.80925 -8.242631,25.22917 -23.637273,42.81388 -1.18366,1.35205 -2.431424,2.70739 -3.01205,4.32492 -5.351282,14.90773 -4.796971,35.99322 3.263242,28.2312 2.095185,-2.01767 -6.913494,-4.08007 -5.612662,-6.68173 3.42745,-6.8549 3.155937,-18.12303 8.819896,-23.78699 8.838639,-8.83864 12.189878,17.49645 21.381561,14.43255 8.382773,-2.79425 18.764843,-25.22898 30.735997,-19.2434 2.81098,1.40549 3.36046,9.7945 4.40995,11.89349 16.25849,29.31911 -8.225897,18.16925 -13.229846,36.48229 -2.600587,9.51741 8.414046,8.89412 12.561666,2.67269 1.92181,-2.8827 4.51499,-5.77701 5.66556,-9.59299 3.56448,-11.82189 4.34422,-25.85682 1.53333,-40.264 -1.34046,-6.87052 -3.71666,-13.95884 -6.50132,-20.87554 -3.56279,-8.84947 -5.0308,-14.77003 -13.314127,-20.57587 -2.307149,-1.61709 -9.352527,-1.80953 -12.429417,-1.09909 -2.476624,0.57185 -7.984555,-0.3622 -10.634507,1.26859 z"
       id="path848"
       sodipodi:nodetypes="cssssssscsssssssc" />
    <path
       style="fill:#e6e6e6;stroke:none;stroke-width:0.265;stroke-linecap:butt;stroke-linejoin:miter;stroke-miterlimit:4;stroke-dasharray:none;stroke-opacity:1"
       d="m 131.34672,140.32366 c -0.51127,20.61443 -23.96078,-12.8507 -16.86464,-17.58146 5.53507,-3.69005 16.98975,0.55928 19.98295,5.8642 2.27287,4.02827 -1.00494,8.43957 -2.74033,10.86681 -1.34501,1.88123 2.90409,-9.7086 -1.5119,-12.94569 -2.04587,-1.4997 -13.00383,2.23682 -13.00383,4.15103 0,0 1.60551,4.88883 4.06882,7.66088 2.52585,2.84243 4.65461,4.2112 5.34423,4.44107 2.30603,0.76866 3.46388,-1.31064 4.7247,-2.45684 z"
       id="path852"
       sodipodi:nodetypes="csssssssc" />
    <path
       style="fill:#333333;stroke:none;stroke-width:0.265;stroke-linecap:butt;stroke-linejoin:miter;stroke-miterlimit:4;stroke-dasharray:none;stroke-opacity:1"
       d="m 135.90655,47.306706 c -5.99266,10.779672 -5.03153,21.6155 -6.5481,33.141422 -0.43556,3.310257 -0.81772,6.749814 -2.27179,9.755335 -1.46248,3.022894 -2.62987,11.004777 5.41221,-1.403164 0.26102,1.435608 -1.1033,-2.183896 -1.1693,-3.641547 -0.22226,-4.90837 1.14722,-2.291754 4.47676,-9.187389 0.56568,-1.171567 2.49014,-5.263066 1.57021,-4.343131 -1.75967,1.759667 -4.42481,7.70623 -5.21176,5.34539 -0.49634,-1.489003 5.02467,-12.90948 4.14268,-11.358954 -0.44082,0.77496 -4.44647,-0.971767 -3.0736,-4.543581 1.4204,-3.695473 1.43519,-10.051864 2.67269,-13.764381 z"
       id="path858"
       sodipodi:nodetypes="csscssssssc" />
    <path
       style="fill:#333333;stroke:none;stroke-width:0.265;stroke-linecap:butt;stroke-linejoin:miter;stroke-miterlimit:4;stroke-dasharray:none;stroke-opacity:1"
       d="m 47.252743,66.748597 c -0.470903,0.703212 -5.415475,-11.834295 -6.22687,-11.0229 -1.589699,1.589696 2.056204,10.414667 2.539058,12.828937 0.275992,1.379947 -1.182965,7.389402 -0.801806,8.151719 1.118473,2.236947 3.710294,3.596259 4.677216,6.013564 0.251984,0.629962 -2.27798,0.259019 -1.870887,0.801809 0.08951,0.119351 2.27693,3.105724 1.336347,3.34087 -0.433157,0.108289 -2.95651,-0.49254 -2.271789,0.534538 1.057521,1.586285 5.569807,11.358956 7.216275,11.358956 4.375832,0 -11.610301,-34.637276 -4.597544,-32.007493 z"
       id="path860"
       sodipodi:nodetypes="cssssssssc" />
    <path
       style="fill:#333333;stroke:none;stroke-width:0.265;stroke-linecap:butt;stroke-linejoin:miter;stroke-miterlimit:4;stroke-dasharray:none;stroke-opacity:1"
       d="m 102.49786,195.37402 c 1.44047,6.35706 -14.026544,23.92573 -8.552622,29.39965 0.617789,0.61779 3.104128,-5.34309 3.608139,-5.74629 5.625563,-4.50046 12.751583,0.56973 9.220793,-10.02261 -1.41295,-4.23885 -2.92325,-9.84218 -4.27631,-13.63075 z"
       id="path868"
       sodipodi:nodetypes="cscsc" />
    <path
       style="fill:#333333;stroke:none;stroke-width:0.265;stroke-linecap:butt;stroke-linejoin:miter;stroke-miterlimit:4;stroke-dasharray:none;stroke-opacity:1"
       d="m 49.850753,198.48893 c 0.515494,6.75456 -1.117077,10.8013 0.124812,14.48032 2.868443,8.49759 0.02916,11.93738 -0.364613,9.63971 -0.440171,-2.56839 -2.724879,-3.72742 -3.792242,-5.4916 -1.010179,-1.66966 0.514731,-4.89646 0.771158,-7.46653 0.272789,-2.73404 1.920482,-7.87334 3.260885,-11.1619 z"
       id="path870"
       sodipodi:nodetypes="cssssc" />
    <path
       style="fill:#e6e6e6;stroke:none;stroke-width:0.265;stroke-linecap:butt;stroke-linejoin:miter;stroke-miterlimit:4;stroke-dasharray:none;stroke-opacity:1"
       d="m 60.28903,142.14165 c -1.566951,3.90115 -5.878802,3.99647 -8.091956,3.91439 -0.70892,-0.0263 -5.701512,-10.07461 -5.800498,-10.1736 -0.911302,-0.91131 1.340064,-3.7694 1.700892,-4.34673 18.568641,-18.14688 19.685621,-0.19429 12.191562,10.60594 z"
       id="path850"
       sodipodi:nodetypes="csscc" />
    <path
       style="fill:#4d4d4d;fill-opacity:1;stroke:none;stroke-width:0.264583px;stroke-linecap:butt;stroke-linejoin:miter;stroke-opacity:1"
       d="m 48.375784,138.98015 c -2.264662,-3.79049 -0.386199,-6.7678 3.741774,-8.41899 16.856112,-6.74244 5.991016,15.42918 1.469983,14.29892 -2.599762,-0.64994 -3.910071,-4.3179 -5.211757,-5.87993 z"
       id="path897" />
    <path
       style="fill:#000000;stroke:#000000;stroke-width:0.264583px;stroke-linecap:butt;stroke-linejoin:miter;stroke-opacity:1"
       d="m 58.019343,135.50446 c -0.17586,-2.03701 -1.655585,-3.34321 -4.157736,-3.96875 -10.832354,-2.70809 -2.510817,20.32967 2.173361,10.96131 1.099109,-2.19821 2.269959,-4.8507 1.984375,-6.99256 z"
       id="path876" />
    <path
       style="opacity:1;fill:#000000;stroke:#000000;stroke-width:0.264583px;stroke-linecap:butt;stroke-linejoin:miter;stroke-opacity:1"
       d="m 121.01772,133.50024 c -0.46584,-1.99081 0.53472,-3.69216 2.71861,-5.06427 9.45454,-5.94015 8.70392,18.54296 1.34044,11.094 -1.72778,-1.74783 -3.66492,-3.90516 -4.05905,-6.02973 z"
       id="path876-3" />
    <circle
       style="display:inline;fill:none;fill-opacity:1;fill-rule:evenodd;stroke:#000000;stroke-width:6.565;stroke-linecap:round;stroke-miterlimit:4;stroke-dasharray:none;stroke-opacity:1;paint-order:markers fill stroke"
       id="circle929"
       cx="96.217026"
       cy="146.46371"
       r="153.94724"
       inkscape:export-xdpi="194"
       inkscape:export-ydpi="194"
       inkscape:export-filename="C:\Users\g_sal\circle929.png" />
    <ellipse
       style="display:inline;fill:#ffffff;fill-opacity:1;fill-rule:evenodd;stroke:none;stroke-width:6.565;stroke-linecap:round;stroke-miterlimit:4;stroke-dasharray:none;stroke-opacity:1;paint-order:markers fill stroke"
       id="path931"
       cx="-3.2061906"
       cy="182.93779"
       rx="0.60135639"
       ry="0.8018086"
       transform="rotate(-44.987955)" />
    <ellipse
       style="opacity:1;fill:#ffffff;fill-opacity:1;fill-rule:evenodd;stroke:none;stroke-width:6.565;stroke-linecap:round;stroke-miterlimit:4;stroke-dasharray:none;stroke-opacity:1;paint-order:markers fill stroke"
       id="path931-6"
       cx="-55.7234"
       cy="133.62631"
       rx="0.60135639"
       ry="0.8018086"
       transform="rotate(-44.987956)" />
  </g>
</svg>
