<?xml version="1.0" encoding="UTF-8" standalone="no"?>
<!-- Created with Inkscape (http://www.inkscape.org/) -->

<svg
   width="110.30242mm"
   height="110.07016mm"
   viewBox="0 0 110.30242 110.07016"
   version="1.1"
   id="svg5"
   inkscape:version="1.2-dev (2b1b049028, 2021-10-21, custom)"
   sodipodi:docname="pamieci.svg"
   xmlns:inkscape="http://www.inkscape.org/namespaces/inkscape"
   xmlns:sodipodi="http://sodipodi.sourceforge.net/DTD/sodipodi-0.dtd"
   xmlns="http://www.w3.org/2000/svg"
   xmlns:svg="http://www.w3.org/2000/svg">
  <sodipodi:namedview
     id="namedview7"
     pagecolor="#505050"
     bordercolor="#eeeeee"
     borderopacity="1"
     inkscape:pageshadow="0"
     inkscape:pageopacity="0"
     inkscape:pagecheckerboard="0"
     inkscape:blackoutopacity="0.0"
     inkscape:document-units="mm"
     showgrid="false"
     inkscape:zoom="3.7846084"
     inkscape:cx="118.10997"
     inkscape:cy="297.38876"
     inkscape:window-width="1894"
     inkscape:window-height="1024"
     inkscape:window-x="0"
     inkscape:window-y="0"
     inkscape:window-maximized="1"
     inkscape:current-layer="layer4"
     showguides="true"
     fit-margin-top="5"
     lock-margins="true"
     fit-margin-left="5"
     fit-margin-right="5"
     fit-margin-bottom="5" />
  <defs
     id="defs2" />
  <g
     inkscape:groupmode="layer"
     id="layer2"
     inkscape:label="Warstwa 2"
     style="display:inline;opacity:1"
     sodipodi:insensitive="true"
     transform="translate(-18.708769,-31.384208)">
    <path
       style="fill:#b6b5ba;fill-opacity:1;stroke:#000000;stroke-width:0.264583px;stroke-linecap:butt;stroke-linejoin:miter;stroke-opacity:1"
       d="M 23.841071,86.361139 C 24.308631,56.529651 47.164797,36.238062 73.664217,36.537992 107.55701,35.603529 124.28747,65.318225 123.87132,86.7451 122.66618,111.27688 105.67729,133.92041 74.294502,136.32192 43.460338,135.3852 24.09232,112.38639 23.841071,86.361139 Z"
       id="path4651"
       sodipodi:nodetypes="ccccc" />
  </g>
  <g
     inkscape:groupmode="layer"
     id="layer5"
     inkscape:label="Warstwa 3"
     style="display:inline"
     sodipodi:insensitive="true"
     transform="translate(-18.708769,-31.384208)">
    <path
       style="display:inline;fill:#447546;fill-opacity:1;stroke:#000000;stroke-width:0.266014px;stroke-linecap:butt;stroke-linejoin:miter;stroke-opacity:1"
       d="M 26.591266,87.508288 C 24.688457,70.236547 39.484757,39.327368 74.093506,38.441225 104.266,39.183178 121.48288,64.714862 121.11583,85.734564 121.45878,108.73764 104.08296,131.52344 73.248191,133.57035 49.432323,132.6709 27.8457,115.81863 26.591266,87.508288 Z"
       id="path14023"
       sodipodi:nodetypes="ccccc" />
  </g>
  <g
     inkscape:groupmode="layer"
     id="layer4"
     inkscape:label="Warstwa 4"
     style="display:inline"
     transform="translate(-18.708769,-31.384208)">
    <path
       style="display:inline;fill:#dcdcd4;fill-opacity:1;stroke:#000000;stroke-width:0.37858px;stroke-linecap:butt;stroke-linejoin:miter;stroke-opacity:1"
       d="m 64.199132,101.02731 c -0.708713,7.74751 -3.70045,10.81076 -8.277395,10.62151 -4.136665,-0.21558 -6.69265,-2.27433 -8.794067,-4.86314 -0.460993,3.74023 -1.633261,8.03651 1.35427,11.02436 2.811793,2.99366 5.650687,3.6073 8.491413,4.06107 4.149637,0.14577 6.015394,-1.88055 7.646307,-4.13041 4.436725,-4.56914 3.950651,-8.91667 4.134128,-13.12909 -2.028685,-1.01052 -3.165528,-2.34294 -4.554656,-3.5843 z"
       id="path61451-6"
       sodipodi:nodetypes="cccccccc" />
    <path
       style="display:inline;fill:#dcdcd4;fill-opacity:1;stroke:#000000;stroke-width:0.37858px;stroke-linecap:butt;stroke-linejoin:miter;stroke-opacity:1"
       d="m 76.895127,104.92756 4.022523,-2.52373 c 1.754209,4.45594 3.456763,8.98054 8.389533,9.21143 4.217757,-0.0868 6.944329,-2.17618 9.247396,-4.83411 2.170291,12.13241 -3.950883,13.77365 -10.237487,15.20557 -2.763484,0.2078 -5.230344,-1.35277 -7.524899,-3.94057 -2.493673,-3.96614 -3.695457,-8.37211 -3.897066,-13.11859 z"
       id="path63689-7"
       sodipodi:nodetypes="ccccccc" />
    <path
       style="display:inline;fill:#dcdcd4;fill-opacity:1;stroke:#000000;stroke-width:0.37858px;stroke-linecap:butt;stroke-linejoin:miter;stroke-opacity:1"
       d="m 80.968343,102.48624 c -5.80061,4.50418 -10.989905,4.33183 -16.399664,-1.28619 -0.397491,-0.93934 -0.793222,-2.314701 -0.119889,-4.04074 0.99314,-2.680085 4.005298,-4.202317 7.989298,-4.235259 5.751549,-0.17742 8.69684,2.009604 9.700598,6.091653 0.02675,1.265816 -0.142366,2.463036 -1.170353,3.470536 z"
       id="path64488-5"
       sodipodi:nodetypes="cccccc" />
    <path
       style="display:inline;fill:#dcdcd4;fill-opacity:1;stroke:#000000;stroke-width:0.37858px;stroke-linecap:butt;stroke-linejoin:miter;stroke-opacity:1"
       d="M 64.468677,97.307963 C 63.080782,88.185433 57.685455,85.586039 51.361697,84.497939 45.636507,84.036438 43.183202,90.541779 39.6775,92.745493 34.609928,88.858286 30.333732,84.16759 29.32926,76.155059 29.181435,69.532521 36.488865,64.051402 42.136863,64.10037 c 8.279388,-0.472315 23.507644,8.103621 26.620388,29.370746 -1.806177,0.2859 -3.328874,1.348533 -4.288574,3.836847 z"
       id="path66152-3"
       sodipodi:nodetypes="ccccccc" />
    <path
       style="display:inline;fill:#dcdcd4;fill-opacity:1;stroke:#000000;stroke-width:0.37858px;stroke-linecap:butt;stroke-linejoin:miter;stroke-opacity:1"
       d="M 68.803266,93.404322 C 67.4876,85.93979 64.612765,79.019598 60.227607,72.626712 58.454412,69.48366 57.190312,66.541857 57.55495,64.243908 c 1.156327,-7.59972 4.045127,-15.134694 14.961375,-22.369665 4.31606,0.738288 14.002147,10.75909 15.217067,17.476944 1.128015,4.026713 0.248539,7.554073 0.116058,11.267239 -4.562212,4.560989 -8.932546,9.811875 -11.156159,22.781069 -3.360537,-0.853978 -5.618893,-0.4171 -7.890012,0.0049 z"
       id="path68489-5"
       sodipodi:nodetypes="cccccccc" />
    <path
       style="display:inline;fill:#dcdcd4;fill-opacity:1;stroke:#000000;stroke-width:0.37858px;stroke-linecap:butt;stroke-linejoin:miter;stroke-opacity:1"
       d="m 76.761715,93.426863 c 2.131912,-13.081561 6.607226,-18.006554 11.123991,-22.787211 3.946798,-3.249673 7.986339,-6.417469 15.397594,-6.608512 7.20034,0.852994 12.20578,3.90614 13.32823,10.851634 -0.34699,6.734696 -3.65206,12.726196 -10.74852,17.765128 -3.54171,-2.820754 -5.70598,-8.273054 -12.513284,-7.891626 -8.925605,1.681498 -10.151555,6.387888 -12.080946,11.325904 -1.453986,-1.076871 -2.828992,-2.466798 -4.507065,-2.655317 z"
       id="path71037-6"
       sodipodi:nodetypes="cccccccc" />
  </g>
  <g
     inkscape:groupmode="layer"
     id="layer3"
     inkscape:label="Warstwa 5"
     transform="translate(-18.708769,-31.384208)">
    <path
       style="fill:#e96c3e;fill-opacity:1;stroke:#000000;stroke-width:0.264583px;stroke-linecap:butt;stroke-linejoin:miter;stroke-opacity:1"
       d="m 73.857812,103.7803 c -11.152246,-2.3211 -14.42825,-6.485007 -15.177619,-11.240071 0.392011,-7.077613 5.544394,-12.91281 14.017847,-17.881237 4.89538,-3.926259 9.276084,-7.977877 9.93548,-12.935897 0.98294,4.014209 1.554843,8.503472 0.218591,15.198084 -1.334338,4.721949 -0.0226,9.954843 0.573417,15.328238 0.6565,5.880111 -2.961156,9.777553 -9.567716,11.530883 z"
       id="path34948"
       sodipodi:nodetypes="ccccccc" />
    <path
       style="fill:#524a2e;fill-opacity:1;stroke:#000000;stroke-width:0.264583px;stroke-linecap:butt;stroke-linejoin:miter;stroke-opacity:1"
       d="m 32.509092,103.74168 h 82.228968 c -6.63706,14.48582 -16.82991,26.38231 -41.238068,27.92717 -21.241384,1.04435 -34.84356,-13.9287 -40.9909,-27.92717 z"
       id="path21673"
       sodipodi:nodetypes="cccc" />
    <path
       style="fill:#784740;fill-opacity:1;stroke:#000000;stroke-width:0.264583px;stroke-linecap:butt;stroke-linejoin:miter;stroke-opacity:1"
       d="m 69.726709,103.82371 v -5.254746 c -0.113089,-2.814341 0.756482,-4.880198 3.282055,-5.684692 -0.632447,1.762941 -1.239699,3.523549 -0.884896,5.195046 v 5.564152 z"
       id="path27991"
       sodipodi:nodetypes="cccccc" />
  </g>
</svg>
