<?xml version="1.0" encoding="UTF-8" standalone="no"?>
<!-- Created with Inkscape (http://www.inkscape.org/) -->

<svg
   width="44.629452mm"
   height="44.629452mm"
   viewBox="0 0 44.629452 44.629452"
   version="1.1"
   id="svg5"
   inkscape:version="1.2-dev (8a200a5ffd, 2021-09-02, custom)"
   sodipodi:docname="papryka.svg"
   xmlns:inkscape="http://www.inkscape.org/namespaces/inkscape"
   xmlns:sodipodi="http://sodipodi.sourceforge.net/DTD/sodipodi-0.dtd"
   xmlns="http://www.w3.org/2000/svg"
   xmlns:svg="http://www.w3.org/2000/svg">
  <sodipodi:namedview
     id="namedview7"
     pagecolor="#505050"
     bordercolor="#eeeeee"
     borderopacity="1"
     inkscape:pageshadow="0"
     inkscape:pageopacity="0"
     inkscape:pagecheckerboard="0"
     inkscape:document-units="mm"
     showgrid="false"
     inkscape:zoom="3.8601999"
     inkscape:cx="4.9220249"
     inkscape:cy="69.815038"
     inkscape:window-width="1920"
     inkscape:window-height="1080"
     inkscape:window-x="0"
     inkscape:window-y="0"
     inkscape:window-maximized="1"
     inkscape:current-layer="layer2"
     fit-margin-top="5"
     lock-margins="true"
     fit-margin-left="5"
     fit-margin-right="5"
     fit-margin-bottom="5"
     height="44.62945mm" />
  <defs
     id="defs2" />
  <g
     inkscape:groupmode="layer"
     id="layer2"
     inkscape:label="Warstwa 2"
     style="display:inline"
     transform="translate(-28.109235,-129.02365)">
    <path
       style="fill:none;stroke:#000000;stroke-width:0.264583px;stroke-linecap:butt;stroke-linejoin:miter;stroke-opacity:1"
       d="m 38.457533,145.26631 c -0.81893,1.4643 -1.254812,3.00451 -0.798978,4.72142 0.636888,1.84272 0.61751,3.66131 0.83443,5.48859 0.570461,5.20501 1.815448,9.48707 5.745876,10.09462 3.631982,4.41614 6.394158,3.04193 9.089374,1.22197 5.893822,0.56825 8.41317,-4.5186 9.996221,-11.17455 0.723832,-6.5979 1.367447,-13.11755 -4.709443,-13.08172 -0.761973,-2.09321 -2.262348,-2.4685 -3.932188,-2.44952"
       id="path900"
       sodipodi:nodetypes="cccccccc" />
    <path
       style="fill:none;stroke:#000000;stroke-width:0.264583px;stroke-linecap:butt;stroke-linejoin:miter;stroke-opacity:1"
       d="m 38.457533,145.26631 c 1.485368,-2.19609 2.992227,-4.36726 7.00636,-3.63042 0.763001,-0.9833 1.512397,-1.97261 5.162603,-1.68174"
       id="path2644"
       sodipodi:nodetypes="ccc" />
    <path
       style="fill:none;stroke:#000000;stroke-width:0.264583px;stroke-linecap:butt;stroke-linejoin:miter;stroke-opacity:1"
       d="m 50.626496,139.95415 -1.195237,3.09059 -2.291181,-0.0495 c -0.09501,0.57496 -0.963285,1.09735 -1.666009,1.631 1.353358,0.50126 2.63706,1.03215 3.387375,1.78997 1.692878,-0.685 3.41157,-1.11896 5.282904,-0.0686 l 1.812999,-1.41815 0.0052,-0.53373 -2.133753,-1.25323 0.896392,-3.07117 c 0.982416,-1.51803 1.517491,-3.90757 4.745485,-1.05075 l 1.666412,-0.98019 0.555829,-1.64171 c -0.613537,-3.73209 -3.801933,-1.8974 -6.58961,-0.92906 -2.024862,1.16553 -3.57599,2.62398 -4.476806,4.48453 z"
       id="path3068"
       sodipodi:nodetypes="ccccccccccccccc" />
    <path
       style="fill:none;stroke:#000000;stroke-width:0.264583px;stroke-linecap:butt;stroke-linejoin:miter;stroke-opacity:1"
       d="m 55.962546,144.39573 c 0.730396,-0.88583 1.702646,-1.35617 2.666778,-1.84045"
       id="path4149"
       sodipodi:nodetypes="cc" />
    <path
       style="fill:none;stroke:#000000;stroke-width:0.264583px;stroke-linecap:butt;stroke-linejoin:miter;stroke-opacity:1"
       d="m 55.957347,144.92946 c 9.047958,-0.91937 7.384884,7.52961 5.871461,15.84769"
       id="path4453"
       sodipodi:nodetypes="cc" />
    <path
       style="fill:none;stroke:#000000;stroke-width:0.264583px;stroke-linecap:butt;stroke-linejoin:miter;stroke-opacity:1"
       d="m 54.144348,146.34761 c 1.993401,4.37766 4.292186,8.42675 -0.816113,20.4453"
       id="path4661"
       sodipodi:nodetypes="cc" />
    <path
       style="fill:none;stroke:#000000;stroke-width:0.264583px;stroke-linecap:butt;stroke-linejoin:miter;stroke-opacity:1"
       d="m 44.238861,165.57094 c -6.076448,-12.06012 -2.180834,-21.4588 1.235208,-20.9447 -2.198248,-0.82051 -4.351734,-1.97017 -7.016536,0.64007"
       id="path4869"
       sodipodi:nodetypes="ccc" />
    <path
       style="fill:none;stroke:#000000;stroke-width:0.264583px;stroke-linecap:butt;stroke-linejoin:miter;stroke-opacity:1"
       d="m 45.463893,141.63589 c 0.82162,0.47883 1.506972,0.7438 1.69931,1.48306"
       id="path5379"
       sodipodi:nodetypes="cc" />
  </g>
</svg>
