<?xml version="1.0" encoding="UTF-8" standalone="no"?>
<svg
   width="446.66708"
   height="634.12671"
   viewBox="0 0 118.18067 167.77936"
   version="1.1"
   id="svg5"
   inkscape:version="1.2-dev (b7a20b0417, 2021-04-06, custom)"
   sodipodi:docname="plecak.svg"
   xmlns:inkscape="http://www.inkscape.org/namespaces/inkscape"
   xmlns:sodipodi="http://sodipodi.sourceforge.net/DTD/sodipodi-0.dtd"
   xmlns="http://www.w3.org/2000/svg"
   xmlns:svg="http://www.w3.org/2000/svg">
  <sodipodi:namedview
     id="namedview7"
     pagecolor="#505050"
     bordercolor="#eeeeee"
     borderopacity="1"
     objecttolerance="10.0"
     gridtolerance="10.0"
     guidetolerance="10.0"
     inkscape:pageshadow="0"
     inkscape:pageopacity="0"
     inkscape:pagecheckerboard="0"
     inkscape:document-units="px"
     showgrid="false"
     inkscape:zoom="0.5"
     inkscape:cx="-195"
     inkscape:cy="523"
     inkscape:window-width="1920"
     inkscape:window-height="1046"
     inkscape:window-x="0"
     inkscape:window-y="34"
     inkscape:window-maximized="0"
     inkscape:current-layer="layer2"
     showguides="false"
     fit-margin-top="0"
     fit-margin-left="0"
     fit-margin-right="0"
     fit-margin-bottom="0" />
  <defs
     id="defs2" />
  <g
     inkscape:groupmode="layer"
     id="layer2"
     inkscape:label="Warstwa 2"
     style="display:inline"
     transform="translate(-75.755298,-10.140314)">
    <path
       style="fill:none;stroke:#000000;stroke-width:1.13771;stroke-linecap:butt;stroke-linejoin:miter;stroke-miterlimit:4;stroke-dasharray:none;stroke-opacity:1"
       d="m 132.7279,177.34352 c 16.37353,-1.85765 32.60718,-3.27045 49.64452,-7.23921 0.60736,-2.53476 10.00208,-8.96931 9.36507,-22.51808 1.83906,-11.68081 1.60203,-23.08782 1.6296,-34.52973 l -0.67882,-30.734918 -3.20143,-24.465108 -2.6157,-3.585702 c -0.51775,-7.859606 -3.76403,-14.126335 -8.18054,-19.709905 -3.56286,-2.597062 -8.4051,-4.084732 -13.47181,-5.377765 l -2.17129,-0.905227 c -4.52485,-2.490222 -11.62231,-4.217994 -20.7825,-4.62232 -7.53684,0.664743 -11.20459,0.844102 -19.2586,1.731903 l -4.73898,0.674826 c -5.81487,0.91588 -10.64433,2.870148 -14.87172,5.458846 -1.99354,3.455259 -4.141491,6.863836 -4.886175,10.696665 -2.355633,6.734245 -5.185207,13.536745 -4.273079,19.800389 l -0.10727,43.230066 -0.489103,2.96286 -3.024328,0.84911 -1.065779,1.70574 -0.0035,5.67173 -0.458753,8.66473 0.149979,16.57671 3.033424,17.09425 4.995521,8.94293 8.580433,3.37874 9.61776,2.30965 z"
       id="path870"
       sodipodi:nodetypes="cccccccccccccccccccccccccccc" />
    <path
       style="fill:none;fill-opacity:1;stroke:#000000;stroke-width:0.423333;stroke-linecap:butt;stroke-linejoin:miter;stroke-miterlimit:4;stroke-dasharray:none;stroke-opacity:1"
       d="m 186.68953,66.478591 -51.65006,19.559357 -2.25809,0.763147 c 0.53244,1.642457 0.36427,1.071238 2.59622,-0.05821 l 35.90439,-12.416833 z"
       id="path2980"
       sodipodi:nodetypes="cccccc" />
    <path
       style="fill:none;stroke:#000000;stroke-width:0.529167;stroke-linecap:butt;stroke-linejoin:miter;stroke-miterlimit:4;stroke-dasharray:none;stroke-opacity:1"
       d="m 125.68833,74.60355 c 3.63991,-8.004633 7.69191,-10.866385 13.19781,-18.253442 2.32952,-1.774569 3.99795,-3.645123 8.50788,-5.103116 l 15.28355,0.07055 24.19357,2.953232 C 183.931,52.223264 176.75032,49.759509 167.07378,49.556068 L 150.62196,48.94514 c -2.3054,0.136487 -4.61018,0.274334 -6.60982,1.083781 -5.49109,2.986366 -8.80054,7.061904 -12.60259,10.891512 -4.34722,4.877532 -6.991,7.632385 -8.6482,11.21298 z"
       id="path4080"
       sodipodi:nodetypes="ccccccccccc" />
    <path
       style="fill:none;stroke:#000000;stroke-width:0.661458;stroke-linecap:butt;stroke-linejoin:miter;stroke-miterlimit:4;stroke-dasharray:none;stroke-opacity:1"
       d="m 122.79943,145.32095 -0.61217,-25.448 -0.17846,-25.104998 -1.58655,-24.412768 -0.0243,-7.68658 c -0.68335,-5.17502 0.13315,-10.203649 1.33421,-15.194743 1.86907,-5.416976 -0.1953,-10.984573 8.21715,-16.150989 0.64268,-1.794267 14.11506,-3.185668 15.0177,-2.522299 1.01078,0.742849 14.47456,-0.288757 27.32736,3.239397"
       id="path4952"
       sodipodi:nodetypes="cccccccsc" />
    <path
       style="fill:none;stroke:#000000;stroke-width:0.529167;stroke-linecap:butt;stroke-linejoin:miter;stroke-miterlimit:4;stroke-dasharray:none;stroke-opacity:1"
       d="m 94.333892,108.22629 13.592278,-5.6681 13.95736,-4.413697"
       id="path6439" />
    <path
       style="fill:none;stroke:#000000;stroke-width:0.47625;stroke-linecap:butt;stroke-linejoin:miter;stroke-miterlimit:4;stroke-dasharray:none;stroke-opacity:1"
       d="m 97.266637,167.71631 c 3.197433,-2.12939 7.450663,-4.26249 13.188683,-6.40081 4.90721,-1.77645 9.21692,-3.89353 12.15318,-6.7936 0.91609,-2.83527 0.88087,-5.92912 0.19093,-9.20095"
       id="path6554"
       sodipodi:nodetypes="cccc" />
    <path
       style="fill:none;stroke:#000000;stroke-width:0.423333;stroke-linecap:butt;stroke-linejoin:miter;stroke-miterlimit:4;stroke-dasharray:none;stroke-opacity:1"
       d="m 122.6085,154.5219 c 0.27458,3.45599 -0.29934,6.95843 3.72881,10.20898 l 2.43178,3.76258 c 3.27485,1.85063 15.47918,2.08414 30.95287,0.28898 8.72195,-0.37988 17.75848,-3.05002 26.72244,-5.19181"
       id="path6748"
       sodipodi:nodetypes="ccccc" />
    <path
       style="fill:none;stroke:#000000;stroke-width:0.661458;stroke-linecap:butt;stroke-linejoin:miter;stroke-miterlimit:4;stroke-dasharray:none;stroke-opacity:1"
       d="m 104.49778,103.54789 c 3.31608,-4.134274 2.22734,-10.138932 1.8849,-15.826692 0.41111,-9.404939 1.47065,-19.336758 0.92514,-27.964402 0.96192,-16.799599 6.1471,-25.23519 13.06576,-30.23766 3.13018,-2.494882 7.98668,-3.657448 13.29995,-4.467494"
       id="path7196"
       sodipodi:nodetypes="ccccc" />
    <path
       style="fill:none;stroke:#000000;stroke-width:0.529167;stroke-linecap:butt;stroke-linejoin:miter;stroke-miterlimit:4;stroke-dasharray:none;stroke-opacity:1"
       d="m 141.15371,23.258923 c -1.75992,-4.236986 -4.65279,-7.867386 -9.44261,-10.482152 -3.51798,-1.133408 -6.3286,-0.322396 -8.56094,2.078195 -1.30944,1.883835 -3.18213,3.536114 -2.23954,6.345767 l 1.69315,3.843802 -5.67368,0.636025 2.66227,-6.915743 c 1.04085,-1.916071 1.90799,-3.875294 3.96651,-5.53855 2.0491,-1.767979 4.30894,-3.209962 7.81203,-2.72884 3.18976,0.971901 5.72474,2.800953 7.85531,5.159414 2.35321,2.398034 3.60004,4.965194 4.52942,7.580881 z"
       id="path9256"
       sodipodi:nodetypes="cccccccccccc" />
    <path
       style="fill:none;stroke:#000000;stroke-width:0.820208;stroke-linecap:butt;stroke-linejoin:miter;stroke-miterlimit:4;stroke-dasharray:none;stroke-opacity:1"
       d="m 103.3957,31.52113 -8.994863,-6.170403 -2.207091,-1.17574 -0.925409,-0.889861 -1.686988,3.267499 -1.401681,4.065842 -0.04871,4.382317 0.01476,5.606135 -0.110429,7.909536 0.08579,3.820004 0.318876,10.20451 -0.202848,8.635032 -0.362318,10.608802 c -0.216558,6.924316 -1.640968,13.646193 -1.757418,16.929945 -1.629618,8.794602 -0.836814,17.457312 2.306863,25.992032 l 1.516771,24.62662 C 82.043319,140.50016 79.694385,98.214986 78.728025,95.674708 L 78.634045,89.899875 78.734505,77.669206 77.955236,64.72874 76.980847,51.396542 76.180344,37.109812 c -0.06269,-5.180155 0.01313,-10.322589 1.485501,-15.084707 1.308359,-2.367574 3.258876,-4.310102 8.075721,-4.355392 l 9.146653,0.354308 c 6.826421,0.674054 14.283641,3.119727 22.191501,6.831007"
       id="path10690"
       sodipodi:nodetypes="cccccccccccccccccccccccccc" />
    <path
       style="fill:none;stroke:#000000;stroke-width:0.582083;stroke-linecap:butt;stroke-linejoin:miter;stroke-miterlimit:4;stroke-dasharray:none;stroke-opacity:1"
       d="m 143.20375,21.462813 2.08597,-3.5353 c 0.59092,-1.332182 2.19485,-0.677372 3.51604,-0.577139 l 3.93517,0.992741 c 1.40059,0.245855 1.87459,0.950461 1.09005,2.278161 l -1.47105,3.643743"
       id="path14560"
       sodipodi:nodetypes="cccccc" />
    <path
       style="fill:none;stroke:#000000;stroke-width:0.582083;stroke-linecap:butt;stroke-linejoin:miter;stroke-miterlimit:4;stroke-dasharray:none;stroke-opacity:1"
       d="m 163.31175,27.847374 c -0.29387,-2.338893 -0.10601,-4.520231 0.38703,-6.601748 -2.37334,-1.323053 -5.03284,-2.23048 -8.23462,-2.350298 l -1.39711,0.515763"
       id="path14783"
       sodipodi:nodetypes="cccc" />
  </g>
</svg>
