<?xml version="1.0" encoding="UTF-8" standalone="no"?>
<svg
   width="405.22824"
   height="405.22824"
   viewBox="0 0 107.21664 107.21664"
   version="1.1"
   id="svg5"
   inkscape:version="1.2-dev (5f01de93b4, 2021-08-06, custom)"
   sodipodi:docname="plecak.svg"
   xmlns:inkscape="http://www.inkscape.org/namespaces/inkscape"
   xmlns:sodipodi="http://sodipodi.sourceforge.net/DTD/sodipodi-0.dtd"
   xmlns="http://www.w3.org/2000/svg"
   xmlns:svg="http://www.w3.org/2000/svg">
  <sodipodi:namedview
     id="namedview7"
     pagecolor="#505050"
     bordercolor="#eeeeee"
     borderopacity="1"
     objecttolerance="10.0"
     gridtolerance="10.0"
     guidetolerance="10.0"
     inkscape:pageshadow="0"
     inkscape:pageopacity="0"
     inkscape:pagecheckerboard="0"
     inkscape:document-units="px"
     showgrid="false"
     inkscape:zoom="1"
     inkscape:cx="147.5"
     inkscape:cy="256.5"
     inkscape:window-width="1920"
     inkscape:window-height="1080"
     inkscape:window-x="0"
     inkscape:window-y="0"
     inkscape:window-maximized="1"
     inkscape:current-layer="layer2"
     showguides="false"
     fit-margin-top="10"
     fit-margin-left="10"
     fit-margin-right="10"
     fit-margin-bottom="10"
     lock-margins="true"
     height="405.22824px" />
  <defs
     id="defs2" />
  <g
     inkscape:groupmode="layer"
     id="layer2"
     inkscape:label="Warstwa 2"
     style="display:inline"
     transform="translate(-73.10947,-7.4944807)">
    <path
       style="fill:none;stroke:#000000;stroke-width:0.691152;stroke-linecap:butt;stroke-linejoin:miter;stroke-miterlimit:4;stroke-dasharray:none;stroke-opacity:1"
       d="m 125.71166,111.71528 c 9.94682,-1.12851 19.80867,-1.98678 30.15875,-4.39778 0.36897,-1.53985 6.07621,-5.4488 5.68923,-13.679598 1.11722,-7.096023 0.97322,-14.025715 0.98997,-20.976608 l -0.41238,-18.671283 -1.94485,-14.862409 -1.58902,-2.178293 c -0.31453,-4.774665 -2.28663,-8.581666 -4.96963,-11.973652 -2.16442,-1.5777 -5.10605,-2.481451 -8.18405,-3.266961 l -1.31904,-0.54992 c -2.74882,-1.512795 -7.06049,-2.562407 -12.62525,-2.808032 -4.57858,0.403827 -6.80672,0.512787 -11.69948,1.052121 l -2.87891,0.409953 c -3.5325,0.556391 -6.46637,1.743598 -9.03449,3.316217 -1.21106,2.099049 -2.51593,4.16974 -2.96832,6.498161 -1.43104,4.091014 -3.14999,8.223493 -2.59588,12.02862 l -0.0652,26.262012 -0.29712,1.79992 -1.83726,0.515829 -0.647457,1.036227 -0.002,3.445543 -0.278687,5.263772 0.0911,10.070255 1.842784,10.384656 3.03475,5.43278 5.21256,2.05256 5.84274,1.4031 z"
       id="path870"
       sodipodi:nodetypes="cccccccccccccccccccccccccccc" />
    <path
       style="fill:none;fill-opacity:1;stroke:#000000;stroke-width:0.257172;stroke-linecap:butt;stroke-linejoin:miter;stroke-miterlimit:4;stroke-dasharray:none;stroke-opacity:1"
       d="m 158.49303,44.365487 -31.37711,11.882195 -1.37177,0.463607 c 0.32345,0.997783 0.22129,0.650771 1.57719,-0.03536 l 21.8117,-7.543153 z"
       id="path2980"
       sodipodi:nodetypes="cccccc" />
    <path
       style="fill:none;stroke:#000000;stroke-width:0.321466;stroke-linecap:butt;stroke-linejoin:miter;stroke-miterlimit:4;stroke-dasharray:none;stroke-opacity:1"
       d="m 121.43516,49.301352 c 2.21123,-4.862768 4.67279,-6.601265 8.01759,-11.088859 1.41517,-1.07804 2.42874,-2.214391 5.16849,-3.100113 l 9.28467,0.04286 14.69745,1.794071 c -1.78612,-1.24385 -6.14834,-2.740567 -12.02678,-2.864156 l -9.99438,-0.371136 c -1.40052,0.08291 -2.80066,0.166657 -4.01543,0.658391 -3.33581,1.8142 -5.34628,4.290065 -7.656,6.61653 -2.64091,2.963072 -4.24699,4.636629 -5.25373,6.811819 z"
       id="path4080"
       sodipodi:nodetypes="ccccccccccc" />
    <path
       style="fill:none;stroke:#000000;stroke-width:0.401832;stroke-linecap:butt;stroke-linejoin:miter;stroke-miterlimit:4;stroke-dasharray:none;stroke-opacity:1"
       d="m 119.68017,92.261758 -0.37189,-15.459511 -0.10841,-15.251139 -0.96382,-14.830613 -0.0148,-4.669553 c -0.41513,-3.143794 0.0809,-6.198657 0.81052,-9.230717 1.13545,-3.290781 -0.11864,-6.673064 4.99187,-9.811631 0.39043,-1.090007 8.57482,-1.935275 9.12317,-1.532282 0.61404,0.451276 8.79321,-0.175418 16.60121,1.967915"
       id="path4952"
       sodipodi:nodetypes="cccccccsc" />
    <path
       style="fill:none;stroke:#000000;stroke-width:0.321466;stroke-linecap:butt;stroke-linejoin:miter;stroke-miterlimit:4;stroke-dasharray:none;stroke-opacity:1"
       d="m 102.38751,69.726969 8.25724,-3.443337 8.47902,-2.681295"
       id="path6439" />
    <path
       style="fill:none;stroke:#000000;stroke-width:0.289319;stroke-linecap:butt;stroke-linejoin:miter;stroke-miterlimit:4;stroke-dasharray:none;stroke-opacity:1"
       d="m 104.16914,105.86681 c 1.94242,-1.29359 4.52623,-2.58944 8.01205,-3.88846 2.98111,-1.07918 5.59923,-2.365293 7.38299,-4.127069 0.55652,-1.72241 0.53513,-3.601906 0.11599,-5.589523"
       id="path6554"
       sodipodi:nodetypes="cccc" />
    <path
       style="fill:none;stroke:#000000;stroke-width:0.257172;stroke-linecap:butt;stroke-linejoin:miter;stroke-miterlimit:4;stroke-dasharray:none;stroke-opacity:1"
       d="m 119.56418,97.851281 c 0.16681,2.099494 -0.18184,4.227209 2.26523,6.201899 l 1.4773,2.28574 c 1.98945,1.12425 9.40351,1.2661 18.80368,0.17556 5.29854,-0.23078 10.78818,-1.85287 16.23373,-3.154"
       id="path6748"
       sodipodi:nodetypes="ccccc" />
    <path
       style="fill:none;stroke:#000000;stroke-width:0.401832;stroke-linecap:butt;stroke-linejoin:miter;stroke-miterlimit:4;stroke-dasharray:none;stroke-opacity:1"
       d="m 108.56202,66.884869 c 2.0145,-2.511547 1.3531,-6.159342 1.14507,-9.614623 0.24974,-5.713445 0.89341,-11.746967 0.56201,-16.98821 0.58436,-10.205658 3.73433,-15.33023 7.93738,-18.369201 1.90157,-1.515626 4.85186,-2.221878 8.07964,-2.713977"
       id="path7196"
       sodipodi:nodetypes="ccccc" />
    <path
       style="fill:none;stroke:#000000;stroke-width:0.321466;stroke-linecap:butt;stroke-linejoin:miter;stroke-miterlimit:4;stroke-dasharray:none;stroke-opacity:1"
       d="m 130.83029,18.109792 c -1.06914,-2.573944 -2.82654,-4.779391 -5.73633,-6.367846 -2.13715,-0.688538 -3.84459,-0.195853 -5.20072,1.262492 -0.79548,1.144418 -1.93313,2.148168 -1.36051,3.855016 l 1.02858,2.335087 -3.44673,0.386381 1.61732,-4.201273 c 0.63231,-1.164002 1.15909,-2.354218 2.40963,-3.364636 1.24481,-1.074037 2.61765,-1.950034 4.74576,-1.657755 1.93776,0.590424 3.47775,1.701563 4.77205,3.134314 1.42957,1.456792 2.18701,3.016326 2.7516,4.605341 z"
       id="path9256"
       sodipodi:nodetypes="cccccccccccc" />
    <path
       style="fill:none;stroke:#000000;stroke-width:0.498272;stroke-linecap:butt;stroke-linejoin:miter;stroke-miterlimit:4;stroke-dasharray:none;stroke-opacity:1"
       d="m 107.89251,23.129035 -5.46433,-3.748484 -1.34079,-0.714255 -0.56218,-0.540586 -1.024837,1.984987 -0.851509,2.469975 -0.02959,2.662232 0.009,3.405694 -0.06708,4.804997 0.05212,2.32063 0.193715,6.19918 -0.123229,5.245731 -0.220106,6.444785 c -0.131558,4.206481 -0.996879,8.289982 -1.067621,10.284842 -0.989984,5.34267 -0.50836,10.605215 1.401405,15.790007 l 0.921425,14.960528 C 94.921068,89.333156 93.494104,63.645161 92.907046,62.101957 l -0.05709,-3.508177 0.06103,-7.43006 -0.473401,-7.861257 -0.591936,-8.099232 -0.486301,-8.679105 c -0.03808,-3.146914 0.008,-6.270912 0.902433,-9.163871 0.794821,-1.438287 1.979748,-2.618362 4.905953,-2.645875 l 5.556536,0.21524 c 4.14701,0.409484 8.67723,1.895216 13.48121,4.149797"
       id="path10690"
       sodipodi:nodetypes="cccccccccccccccccccccccccc" />
    <path
       style="fill:none;stroke:#000000;stroke-width:0.353612;stroke-linecap:butt;stroke-linejoin:miter;stroke-miterlimit:4;stroke-dasharray:none;stroke-opacity:1"
       d="m 132.07568,17.018666 1.26721,-2.147674 c 0.35898,-0.809293 1.33336,-0.4115 2.13598,-0.350609 l 2.39059,0.603085 c 0.85085,0.149355 1.1388,0.577399 0.6622,1.383969 L 137.638,18.72099"
       id="path14560"
       sodipodi:nodetypes="cccccc" />
    <path
       style="fill:none;stroke:#000000;stroke-width:0.353612;stroke-linecap:butt;stroke-linejoin:miter;stroke-miterlimit:4;stroke-dasharray:none;stroke-opacity:1"
       d="m 144.29117,20.897249 c -0.17853,-1.420864 -0.0644,-2.746014 0.23512,-4.010523 -1.44179,-0.803747 -3.05742,-1.355003 -5.00249,-1.427792 l -0.84873,0.313323"
       id="path14783"
       sodipodi:nodetypes="cccc" />
  </g>
</svg>
