<?xml version="1.0" encoding="UTF-8" standalone="no"?>
<!-- Created with Inkscape (http://www.inkscape.org/) -->

<svg
   width="110.62177mm"
   height="109.88823mm"
   viewBox="0 0 110.62177 109.88823"
   version="1.1"
   id="svg5"
   inkscape:version="1.2-dev (2b1b049028, 2021-10-21, custom)"
   sodipodi:docname="przyjazni.svg"
   xmlns:inkscape="http://www.inkscape.org/namespaces/inkscape"
   xmlns:sodipodi="http://sodipodi.sourceforge.net/DTD/sodipodi-0.dtd"
   xmlns="http://www.w3.org/2000/svg"
   xmlns:svg="http://www.w3.org/2000/svg">
  <sodipodi:namedview
     id="namedview7"
     pagecolor="#505050"
     bordercolor="#eeeeee"
     borderopacity="1"
     inkscape:pageshadow="0"
     inkscape:pageopacity="0"
     inkscape:pagecheckerboard="0"
     inkscape:blackoutopacity="0.0"
     inkscape:document-units="mm"
     showgrid="false"
     inkscape:zoom="0.9461521"
     inkscape:cx="428.04957"
     inkscape:cy="391.58609"
     inkscape:window-width="1894"
     inkscape:window-height="1024"
     inkscape:window-x="0"
     inkscape:window-y="0"
     inkscape:window-maximized="1"
     inkscape:current-layer="layer3"
     showguides="true"
     fit-margin-top="5"
     lock-margins="true"
     fit-margin-left="5"
     fit-margin-right="5"
     fit-margin-bottom="5" />
  <defs
     id="defs2" />
  <g
     inkscape:groupmode="layer"
     id="layer2"
     inkscape:label="Warstwa 2"
     style="display:inline;opacity:1"
     sodipodi:insensitive="true"
     transform="translate(-19.483511,-30.538298)">
    <path
       style="fill:#b6b5ba;fill-opacity:1;stroke:#000000;stroke-width:0.264583px;stroke-linecap:butt;stroke-linejoin:miter;stroke-opacity:1"
       d="M 74.287403,35.711905 C 41.078804,36.504635 24.716477,63.122927 24.61582,85.414346 26.507694,117.42051 48.843713,134.41859 74.082859,135.29375 102.22001,135.41045 124.23241,114.42544 124.97296,84.932619 124.56902,59.251588 102.97186,34.521573 74.287403,35.711905 Z"
       id="path613"
       sodipodi:nodetypes="ccccc" />
  </g>
  <g
     inkscape:groupmode="layer"
     id="layer5"
     inkscape:label="Warstwa 3"
     style="display:inline"
     sodipodi:insensitive="true"
     transform="translate(-19.483511,-30.538298)">
    <path
       style="display:inline;fill:#447546;fill-opacity:1;stroke:#000000;stroke-width:0.265195px;stroke-linecap:butt;stroke-linejoin:miter;stroke-opacity:1"
       d="M 27.612716,86.794197 C 25.715754,69.575542 40.466577,38.76136 74.968961,37.877941 105.04872,38.617613 122.2127,64.070827 121.84676,85.025926 122.18866,107.9583 104.86624,130.67406 74.126243,132.71468 50.383572,131.818 28.863295,115.01752 27.612716,86.794197 Z"
       id="path14023"
       sodipodi:nodetypes="ccccc" />
  </g>
  <g
     inkscape:groupmode="layer"
     id="layer4"
     inkscape:label="Warstwa 4"
     style="display:inline"
     sodipodi:insensitive="true"
     transform="translate(-19.483511,-30.538298)">
    <path
       style="display:inline;fill:#dcdcd4;fill-opacity:1;stroke:#000000;stroke-width:0.303929px;stroke-linecap:butt;stroke-linejoin:miter;stroke-opacity:1"
       d="m 75.8325,126.98567 c -2.581667,-1.78592 -4.299296,-5.01012 -5.770251,-8.64506 l 0.04574,-5.05968 c 2.492169,-3.44402 2.861331,-7.85864 2.789294,-12.47494 1.910638,1.11768 3.816149,1.52225 5.709472,0.23233 -4.28e-4,4.7555 1.239484,8.72241 2.620765,12.89186 l -0.073,4.60105 c -1.065232,3.25345 -2.550076,5.97202 -5.322108,8.45444 z"
       id="path59738-3"
       sodipodi:nodetypes="cccccccc" />
    <path
       style="display:inline;fill:#dcdcd4;fill-opacity:1;stroke:#000000;stroke-width:0.303929px;stroke-linecap:butt;stroke-linejoin:miter;stroke-opacity:1"
       d="m 69.793529,97.570732 c -0.492003,7.192708 -2.568936,10.036608 -5.746368,9.860918 -2.871763,-0.20015 -4.646183,-2.11147 -6.105044,-4.51488 -0.320038,3.47237 -1.133843,7.46099 0.940165,10.23489 1.952013,2.77929 3.922847,3.34897 5.894942,3.77024 2.880776,0.13533 4.176027,-1.74589 5.30824,-3.83462 3.080081,-4.24195 2.742635,-8.27815 2.870009,-12.18891 -1.408359,-0.938156 -2.197582,-2.175177 -3.161944,-3.327638 z"
       id="path61451-6"
       sodipodi:nodetypes="cccccccc" />
    <path
       style="display:inline;fill:#dcdcd4;fill-opacity:1;stroke:#000000;stroke-width:0.303929px;stroke-linecap:butt;stroke-linejoin:miter;stroke-opacity:1"
       d="m 78.607393,101.19171 2.792532,-2.343023 c 1.217805,4.136863 2.399758,8.337443 5.8242,8.551793 2.928072,-0.0805 4.820925,-2.02035 6.419765,-4.48793 1.50667,11.26361 -2.742802,12.78731 -7.107106,14.11669 -1.91847,0.19292 -3.631024,-1.25591 -5.223964,-3.65838 -1.731164,-3.68213 -2.565469,-7.77257 -2.705427,-12.17915 z"
       id="path63689-7"
       sodipodi:nodetypes="ccccccc" />
    <path
       style="display:inline;fill:#dcdcd4;fill-opacity:1;stroke:#000000;stroke-width:0.303929px;stroke-linecap:butt;stroke-linejoin:miter;stroke-opacity:1"
       d="M 69.980658,94.11774 C 69.017141,85.648475 65.271576,83.235224 60.881477,82.225048 56.906919,81.79659 55.203774,87.836083 52.770033,89.88199 49.252006,86.273136 46.28337,81.918356 45.586042,74.479611 c -0.102623,-6.14831 4.970366,-11.236923 8.891335,-11.191453 5.747755,-0.438493 16.319571,7.523313 18.480508,27.267492 -1.253885,0.26542 -2.310983,1.251964 -2.977227,3.56209 z"
       id="path66152-3"
       sodipodi:nodetypes="ccccccc" />
    <path
       style="display:inline;fill:#dcdcd4;fill-opacity:1;stroke:#000000;stroke-width:0.303929px;stroke-linecap:butt;stroke-linejoin:miter;stroke-opacity:1"
       d="M 72.98982,90.493639 C 72.076461,83.563647 70.08068,77.139015 67.036409,71.20392 65.805415,68.285947 64.927844,65.55481 65.180984,63.421422 65.98373,56.365917 67.989201,49.370525 75.567528,42.653654 c 2.996307,0.685419 9.720613,9.988626 10.564035,16.225412 0.783103,3.738356 0.17255,7.013127 0.08062,10.460386 -3.167197,4.234371 -6.201194,9.109245 -7.744873,21.149697 -2.332966,-0.792816 -3.900769,-0.387228 -5.477428,0.0042 z"
       id="path68489-5"
       sodipodi:nodetypes="cccccccc" />
    <path
       style="display:inline;fill:#dcdcd4;fill-opacity:1;stroke:#000000;stroke-width:0.303929px;stroke-linecap:butt;stroke-linejoin:miter;stroke-opacity:1"
       d="m 78.514773,90.514567 c 1.48002,-12.144788 4.586888,-16.717106 7.722536,-21.155409 2.739962,-3.016964 5.544294,-5.957912 10.689372,-6.135277 4.998649,0.791906 8.473539,3.626429 9.252779,10.074538 -0.2409,6.252427 -2.53536,11.814871 -7.46188,16.492968 -2.458742,-2.618751 -3.961224,-7.680618 -8.687024,-7.326505 -6.196358,1.561089 -7.047445,5.930447 -8.38688,10.514849 -1.009393,-0.999744 -1.963949,-2.290149 -3.128903,-2.465164 z"
       id="path71037-6"
       sodipodi:nodetypes="cccccccc" />
    <path
       style="display:inline;fill:#dcdcd4;fill-opacity:1;stroke:#000000;stroke-width:0.396865px;stroke-linecap:butt;stroke-linejoin:miter;stroke-opacity:1"
       d="m 85.354433,98.905747 c -6.896594,4.163203 -13.066355,4.003893 -19.498223,-1.18882 -0.472601,-0.868215 -0.943101,-2.139459 -0.142538,-3.734825 1.180774,-2.477188 4.762048,-3.884179 9.498783,-3.914629 6.83826,-0.163981 10.340031,1.857468 11.53343,5.630482 0.03185,1.169981 -0.169261,2.276558 -1.391472,3.207792 z"
       id="path64488-5"
       sodipodi:nodetypes="cccccc" />
  </g>
  <g
     inkscape:groupmode="layer"
     id="layer3"
     inkscape:label="Warstwa 5"
     style="display:inline"
     transform="translate(-19.483511,-30.538298)">
    <path
       style="fill:#7d4433;fill-opacity:1;stroke:#000000;stroke-width:0.264583px;stroke-linecap:butt;stroke-linejoin:miter;stroke-opacity:1"
       d="m 34.293762,86.919741 4.218177,-4.423539 4.950731,0.946591 c 3.065277,0.457252 2.913623,1.09549 1.568101,3.06025 -1.564691,2.213697 -3.627655,2.945393 -6.231068,1.666891 z"
       id="path12784"
       sodipodi:nodetypes="cccccc" />
    <path
       style="fill:#7d4433;fill-opacity:1;stroke:#000000;stroke-width:0.264583px;stroke-linecap:butt;stroke-linejoin:miter;stroke-opacity:1"
       d="m 112.98634,83.488672 4.32106,-1.736426 c 1.62758,-0.943283 2.66692,-0.95653 2.19084,1.426197 l -0.3714,2.945249 c -0.0855,1.494594 -1.28848,2.221876 -3.05189,2.564288 -2.08099,0.550001 -5.11297,2.75236 -4.80988,-0.840017 0.45374,-1.557669 0.14422,-3.780352 1.72127,-4.359291 z"
       id="path14355"
       sodipodi:nodetypes="ccccccc" />
    <path
       style="fill:#7d4433;fill-opacity:1;stroke:#000000;stroke-width:0.264583px;stroke-linecap:butt;stroke-linejoin:miter;stroke-opacity:1"
       d="m 36.654771,110.73029 6.705523,-6.33166 0.511186,7.50884 -3.028027,1.92547 c -0.913893,0.46145 -1.837912,1.14467 -2.658094,-0.44602 z"
       id="path27686"
       sodipodi:nodetypes="cccccc" />
    <path
       style="fill:#7d4433;fill-opacity:1;stroke:#000000;stroke-width:0.264583px;stroke-linecap:butt;stroke-linejoin:miter;stroke-opacity:1"
       d="m 61.264685,85.771955 c -2.362931,-0.127836 -5.676064,-0.343539 -4.047683,-2.792011 l 2.128973,-2.182958 c 3.36624,-1.074564 6.397224,1.115021 9.499616,2.60935 -1.874792,1.710045 -4.641772,2.159456 -7.580906,2.365619 z"
       id="path30634"
       sodipodi:nodetypes="ccccc" />
    <path
       style="fill:#7d4433;fill-opacity:1;stroke:#000000;stroke-width:0.264583px;stroke-linecap:butt;stroke-linejoin:miter;stroke-opacity:1"
       d="m 50.53372,105.16102 c 3.384555,-1.04233 7.996762,-1.0025 12.592672,-0.97704 -0.745352,3.07133 -2.029036,5.33692 -4.558853,5.73736 -3.249681,-0.95557 -5.82159,-2.6594 -8.033819,-4.76032 z"
       id="path35044"
       sodipodi:nodetypes="cccc" />
    <path
       style="fill:#7d4433;fill-opacity:1;stroke:#000000;stroke-width:0.264583px;stroke-linecap:butt;stroke-linejoin:miter;stroke-opacity:1"
       d="m 101.88004,94.710068 c 1.03367,-0.960091 3.1364,-0.921864 5.01003,-1.212473 0.27639,1.946413 0.39982,3.817817 -0.6296,5.123936 -1.4886,-1.302239 -3.59777,-2.569995 -4.38043,-3.911463 z"
       id="path39669"
       sodipodi:nodetypes="cccc" />
    <path
       style="fill:#7d4433;fill-opacity:1;stroke:#000000;stroke-width:0.264583px;stroke-linecap:butt;stroke-linejoin:miter;stroke-opacity:1"
       d="m 46.507013,109.36714 c -1.046233,-1.51378 -1.207515,-3.31771 -1.125529,-5.20139 1.092665,0.39881 1.642157,1.3768 2.436587,2.09362 1.194779,0.8064 0.99301,1.53359 -0.125963,2.20877 z"
       id="path49480"
       sodipodi:nodetypes="ccccc" />
    <path
       style="fill:#7d4433;fill-opacity:1;stroke:#000000;stroke-width:0.264583px;stroke-linecap:butt;stroke-linejoin:miter;stroke-opacity:1"
       d="m 81.646354,92.571487 c 0.956054,-1.439815 2.865131,-2.012329 5.086594,-2.300555 1.718438,0.546193 0.756052,1.585291 -0.947,2.76057 -1.463078,-0.106048 -4.275266,0.554598 -4.139594,-0.460015 z"
       id="path60283"
       sodipodi:nodetypes="cccc" />
    <path
       style="fill:#7d4433;fill-opacity:1;stroke:#000000;stroke-width:0.264583px;stroke-linecap:butt;stroke-linejoin:miter;stroke-opacity:1"
       d="m 64.960856,108.59413 c -0.456813,-1.56543 -0.421907,-3.01668 0.552797,-4.24971 2.29466,-0.0242 4.635438,0.22147 7.152566,1.49904 -1.716705,1.72783 -4.518245,2.42281 -7.705363,2.75067 z"
       id="path67093"
       sodipodi:nodetypes="cccc" />
    <path
       style="fill:#7d4433;fill-opacity:1;stroke:#000000;stroke-width:0.264583px;stroke-linecap:butt;stroke-linejoin:miter;stroke-opacity:1"
       d="M 51.483381,92.441838 C 49.27634,91.440975 47.511986,90.067339 47.669444,87.0754 48.770245,84.198586 51.42897,82.188307 55.0073,80.689526 l 0.05571,3.574438 c -0.616898,2.937475 -2.128549,5.546559 -3.579629,8.177874 z"
       id="path93418"
       sodipodi:nodetypes="ccccc" />
    <path
       style="fill:#7d4433;fill-opacity:1;stroke:#000000;stroke-width:0.264583px;stroke-linecap:butt;stroke-linejoin:miter;stroke-opacity:1"
       d="m 103.65633,84.195136 c -2.16641,0.485074 -9.792507,4.053161 -9.690529,0.401555 0.59288,-1.746249 2.061674,-2.791058 4.437002,-3.109907 2.249177,0.353197 3.691997,1.596273 5.253527,2.708352 z"
       id="path109847"
       sodipodi:nodetypes="cccc" />
    <path
       style="fill:#7d4433;fill-opacity:1;stroke:#000000;stroke-width:0.264583px;stroke-linecap:butt;stroke-linejoin:miter;stroke-opacity:1"
       d="M 56.689217,101.67405 C 55.137362,100.1798 55.33565,98.29386 55.500095,96.415494 l 3.844467,-0.125902 c 1.741463,0.02765 1.509647,0.743305 0.742765,1.645517 -1.046354,1.29564 -1.988052,2.651061 -3.39811,3.738941 z"
       id="path121770"
       sodipodi:nodetypes="ccccc" />
    <path
       style="fill:#7d4433;fill-opacity:1;stroke:#000000;stroke-width:0.264583px;stroke-linecap:butt;stroke-linejoin:miter;stroke-opacity:1"
       d="m 61.21089,100.19542 2.021102,-3.455611 c 4.217893,-0.312293 7.25336,1.208332 10.574745,2.285746 l -4.552476,3.562825 c -2.84807,-0.73104 -10.051813,0.27599 -8.043371,-2.39296 z"
       id="path133161"
       sodipodi:nodetypes="ccccc" />
    <path
       style="fill:#7d4433;fill-opacity:1;stroke:#000000;stroke-width:0.264583px;stroke-linecap:butt;stroke-linejoin:miter;stroke-opacity:1"
       d="m 81.341766,99.514392 c 2.323997,-3.993467 5.983176,-3.130779 9.665136,-2.185237 -0.937151,1.071423 -3.414122,4.950015 -6.350928,3.383055 z"
       id="path143000"
       sodipodi:nodetypes="cccc" />
    <path
       style="fill:#7d4433;fill-opacity:1;stroke:#000000;stroke-width:0.264583px;stroke-linecap:butt;stroke-linejoin:miter;stroke-opacity:1"
       d="m 81.352869,90.968958 c -1.35776,-4.752827 1.177782,-8.937173 10.630065,-11.583606 l 4.592931,0.282317 c -4.010242,4.286261 -9.866425,7.50004 -15.222996,11.301289 z"
       id="path154017"
       sodipodi:nodetypes="cccc" />
    <path
       style="fill:#7d4433;fill-opacity:1;stroke:#000000;stroke-width:0.264583px;stroke-linecap:butt;stroke-linejoin:miter;stroke-opacity:1"
       d="m 46.007641,91.250211 c 3.801645,2.184573 6.264662,6.599375 8.76644,10.949599 -3.816746,1.43944 -7.430892,1.44194 -9.377367,-4.227046 0.120182,-2.298729 -0.607649,-4.836805 0.610927,-6.722553 z"
       id="path184631"
       sodipodi:nodetypes="cccc" />
    <path
       style="fill:#7d4433;fill-opacity:1;stroke:#000000;stroke-width:0.264583px;stroke-linecap:butt;stroke-linejoin:miter;stroke-opacity:1"
       d="m 82.821517,108.07848 c 5.750301,-4.33774 6.844869,-2.86393 12.101184,-0.74526 -2.250614,1.76747 -3.94472,5.04784 -7.678533,2.78317 z"
       id="path190677"
       sodipodi:nodetypes="cccc" />
    <path
       style="fill:#7d4433;fill-opacity:1;stroke:#000000;stroke-width:0.264583px;stroke-linecap:butt;stroke-linejoin:miter;stroke-opacity:1"
       d="m 88.08514,93.577745 3.30149,-5.248397 7.605413,-0.284146 c -1.529311,4.192574 -4.914799,6.315649 -10.906903,5.532543 z"
       id="path197625"
       sodipodi:nodetypes="cccc" />
    <path
       style="fill:#7d4433;fill-opacity:1;stroke:#000000;stroke-width:0.264583px;stroke-linecap:butt;stroke-linejoin:miter;stroke-opacity:1"
       d="m 72.115129,103.42268 c 5.527572,-6.435333 6.683515,-3.35275 13.66884,0.42629 -1.809764,1.12446 -3.328196,2.76974 -5.719746,2.8541 -2.720446,-0.46889 -5.328585,-1.92924 -7.949094,-3.28039 z"
       id="path201634"
       sodipodi:nodetypes="cccc" />
    <path
       style="fill:#7d4433;fill-opacity:1;stroke:#000000;stroke-width:0.264583px;stroke-linecap:butt;stroke-linejoin:miter;stroke-opacity:1"
       d="m 100.94394,92.863555 c -0.66208,-7.443942 2.57588,-6.965581 7.52041,-8.209825 0.28459,0.236011 1.1313,7.26341 -3.32818,7.259413 z"
       id="path210296"
       sodipodi:nodetypes="cccc" />
    <path
       style="fill:#7d4433;fill-opacity:1;stroke:#000000;stroke-width:0.264583px;stroke-linecap:butt;stroke-linejoin:miter;stroke-opacity:1"
       d="m 63.70834,93.031708 3.154569,-3.272202 c 1.25733,-1.410097 1.112962,-2.310819 -2.20163,-2.059488 -6.359128,-1.04905 -9.348409,0.490812 -10.038553,3.797006 2.827434,2.224687 6.035952,1.203069 9.085614,1.534684 z"
       id="path234302"
       sodipodi:nodetypes="ccccc" />
    <path
       style="fill:#7d4433;fill-opacity:1;stroke:#000000;stroke-width:0.264583px;stroke-linecap:butt;stroke-linejoin:miter;stroke-opacity:1"
       d="m 103.9791,109.51594 c 5.91459,4.32737 6.37158,4.64754 11.04836,0.8422 -1.97146,-1.99028 -4.50023,-2.94516 -6.89341,-4.15195 -1.65425,1.01946 -3.59604,1.94945 -4.15495,3.30975 z"
       id="path235086"
       sodipodi:nodetypes="cccc" />
    <path
       style="fill:#7d4433;fill-opacity:1;stroke:#000000;stroke-width:0.264583px;stroke-linecap:butt;stroke-linejoin:miter;stroke-opacity:1"
       d="m 89.987193,101.88042 7.236952,3.80629 c 3.935645,2.63526 6.701435,0.50726 9.435985,-1.7479 L 96.038809,98.67929 c -1.704547,-0.809101 -2.756949,-0.151964 -3.636431,0.893953 z"
       id="path268805"
       sodipodi:nodetypes="cccccc" />
    <path
       style="fill:#7d4433;fill-opacity:1;stroke:#000000;stroke-width:0.264583px;stroke-linecap:butt;stroke-linejoin:miter;stroke-opacity:1"
       d="m 66.306971,93.397509 c 2.787405,-3.239023 6.738841,-6.57343 11.476086,-8.227304 0.271537,3.260303 -0.84663,5.888258 -3.242503,7.934827 z"
       id="path275713"
       sodipodi:nodetypes="cccc" />
  </g>
</svg>
