<?xml version="1.0" encoding="UTF-8" standalone="no"?>
<svg
   width="202.77783mm"
   height="202.77783mm"
   viewBox="0 0 202.77783 202.77783"
   version="1.1"
   id="svg5"
   sodipodi:docname="sh.svg"
   inkscape:version="1.2-dev (b7a20b0417, 2021-04-06, custom)"
   xmlns:inkscape="http://www.inkscape.org/namespaces/inkscape"
   xmlns:sodipodi="http://sodipodi.sourceforge.net/DTD/sodipodi-0.dtd"
   xmlns="http://www.w3.org/2000/svg"
   xmlns:svg="http://www.w3.org/2000/svg">
  <sodipodi:namedview
     id="namedview7"
     pagecolor="#505050"
     bordercolor="#eeeeee"
     borderopacity="1"
     objecttolerance="10.0"
     gridtolerance="10.0"
     guidetolerance="10.0"
     inkscape:pageshadow="0"
     inkscape:pageopacity="0"
     inkscape:pagecheckerboard="true"
     inkscape:document-units="mm"
     showgrid="false"
     inkscape:zoom="0.29398148"
     inkscape:cx="517.03937"
     inkscape:cy="875.90551"
     inkscape:window-width="1131"
     inkscape:window-height="1032"
     inkscape:window-x="0"
     inkscape:window-y="0"
     inkscape:window-maximized="1"
     inkscape:current-layer="layer2"
     fit-margin-top="4.4"
     fit-margin-left="4.4"
     fit-margin-right="4.4"
     fit-margin-bottom="4.4"
     lock-margins="true" />
  <defs
     id="defs2">
    <rect
       x="139.50252"
       y="728.67078"
       width="517.61481"
       height="96.005539"
       id="rect147787" />
    <rect
       x="106.05179"
       y="550.36908"
       width="89.206635"
       height="105.77345"
       id="rect45213" />
    <rect
       x="71.85881"
       y="608.06171"
       width="102.61535"
       height="118.26491"
       id="rect40125" />
  </defs>
  <g
     inkscape:groupmode="layer"
     id="layer2"
     inkscape:label="Warstwa 2"
     style="display:inline"
     transform="translate(-1.4447211,-56.667332)">
    <circle
       style="fill:none;fill-opacity:1;fill-rule:evenodd;stroke:#016a32;stroke-width:1.867;stroke-miterlimit:4;stroke-dasharray:none;stroke-opacity:1"
       id="path143"
       cx="102.83363"
       cy="158.05624"
       r="96.055412" />
    <ellipse
       style="fill:#016a32;fill-opacity:1;stroke:none;stroke-width:3.37677;stroke-miterlimit:4;stroke-dasharray:none;stroke-opacity:1"
       id="path23139"
       cx="31.877623"
       cy="176.40318"
       rx="5.7949405"
       ry="5.7939005" />
    <ellipse
       style="display:inline;fill:#016a32;fill-opacity:1;stroke:none;stroke-width:3.37677;stroke-miterlimit:4;stroke-dasharray:none;stroke-opacity:1"
       id="path23139-3"
       cx="172.98029"
       cy="176.39505"
       rx="5.7949405"
       ry="5.7939005" />
    <path
       style="fill:none;stroke:#016a32;stroke-width:0.765;stroke-linecap:butt;stroke-linejoin:miter;stroke-miterlimit:4;stroke-dasharray:none;stroke-opacity:1"
       d="m 103.07559,203.13438 c -1.36456,-1.4296 -5.605429,-8.30777 -4.964604,-17.43446 0.275425,-4.49789 2.583174,-9.94418 4.817064,-12.75512 3.06368,4.33077 4.44166,11.31653 4.45406,13.24952 0.10423,8.41009 -2.12959,11.74173 -4.30652,16.94006 z"
       id="path23397"
       sodipodi:nodetypes="ccccc" />
    <path
       style="display:inline;fill:none;stroke:#016a32;stroke-width:0.765;stroke-linecap:butt;stroke-linejoin:miter;stroke-miterlimit:4;stroke-dasharray:none;stroke-opacity:1"
       d="m 103.29153,167.90934 c -2.55108,-1.53211 -9.376645,-17.24132 -8.73582,-26.36801 -0.110744,-12.00265 6.10984,-27.31604 8.34373,-30.12698 3.06368,4.33077 9.22067,18.67756 8.85756,30.59691 0.10423,8.41009 -5.38316,21.01857 -8.46547,25.89808 z"
       id="path23397-6"
       sodipodi:nodetypes="ccccc" />
    <path
       style="display:inline;fill:none;stroke:#016a32;stroke-width:0.765;stroke-linecap:butt;stroke-linejoin:miter;stroke-miterlimit:4;stroke-dasharray:none;stroke-opacity:1"
       d="m 98.701027,167.28966 3.573373,0.0236 c -2.839363,-5.40912 -7.930119,-16.23787 -7.809383,-24.61389 -8.95807,-5.83718 -16.274294,-7.56153 -21.566615,-3.24328 -11.010103,9.34748 0.852746,22.53678 9.543087,20.15539 -6.875353,0.39278 -8.753129,-9.68221 -0.629662,-9.90445 8.506256,0.52615 15.957305,11.17081 16.8892,17.58262 z"
       id="path27479"
       sodipodi:nodetypes="ccccccc" />
    <path
       style="display:inline;fill:none;stroke:#016a32;stroke-width:0.767907;stroke-linecap:butt;stroke-linejoin:miter;stroke-miterlimit:4;stroke-dasharray:none;stroke-opacity:1"
       d="m 107.75796,167.26974 -3.60058,0.0236 c 2.86098,-5.40912 7.99051,-16.73428 7.86885,-25.1103 9.02628,-5.83718 15.54261,-6.96761 20.87523,-2.64936 11.09394,9.34748 -1.10084,23.51466 -10.09003,19.93622 6.93874,1.24988 9.5592,-9.52668 1.37386,-9.74892 -8.57102,0.52615 -15.48833,11.13694 -16.42733,17.54875 z"
       id="path27479-7"
       sodipodi:nodetypes="cccccccc" />
    <path
       style="fill:#016a32;fill-opacity:1;stroke:none;stroke-width:0.264583px;stroke-linecap:butt;stroke-linejoin:miter;stroke-opacity:1"
       d="m 94.447814,173.6744 17.148776,0.23357 1.99347,-2.13651 v -2.51455 l -1.82422,-1.82423 H 94.344981 l -1.912361,1.91236 v 2.61066 z"
       id="path31445" />
    <path
       style="display:inline;fill:none;stroke:#016a32;stroke-width:0.765;stroke-linecap:butt;stroke-linejoin:miter;stroke-miterlimit:4;stroke-dasharray:none;stroke-opacity:1"
       d="m 103.6679,173.62285 1.72749,0.10656 c 1.25546,6.42127 5.85514,8.16005 8.13285,7.9095 1.23918,-0.0649 3.28466,-3.26723 -0.98037,-4.40805 2.72402,-0.34097 6.47253,1.74548 6.3118,5.03301 -0.5862,3.58576 -2.28762,5.64617 -6.09356,5.47531 -1.79138,-0.50301 -3.555,-1.13081 -5.16237,-2.46094 -1.06381,-3.97663 -2.07562,-7.97244 -3.93584,-11.65539 z"
       id="path31630"
       sodipodi:nodetypes="cccccccc" />
    <path
       style="display:inline;fill:none;stroke:#016a32;stroke-width:0.760745;stroke-linecap:butt;stroke-linejoin:miter;stroke-miterlimit:4;stroke-dasharray:none;stroke-opacity:1"
       d="m 102.0744,173.67545 -1.69973,0.1071 c -1.235284,6.45376 -5.761034,8.20134 -8.002134,7.94953 -1.219263,-0.0652 -3.231866,-3.28377 0.964613,-4.43036 -2.680238,-0.3427 -6.368499,1.75431 -6.210352,5.05848 0.576779,3.6039 2.250852,5.67474 5.995619,5.50302 1.762587,-0.50556 3.497861,-1.13654 5.079396,-2.4734 1.046711,-3.99675 2.042268,-8.01278 3.872588,-11.71437 z"
       id="path31630-5"
       sodipodi:nodetypes="cccccccc" />
    <path
       style="fill:#016a32;fill-opacity:1;stroke:none;stroke-width:0.264583px;stroke-linecap:butt;stroke-linejoin:miter;stroke-opacity:1"
       d="m 103.07559,203.13438 c -0.69147,-9.66391 -1.92087,-19.14614 -0.44758,-29.54117 -2.2447,3.30052 -3.479835,7.69303 -4.553608,12.26009 -0.668602,8.91161 3.163078,14.58288 5.001188,17.28108 z"
       id="path34006"
       sodipodi:nodetypes="cccc" />
    <path
       style="display:inline;fill:#016a32;fill-opacity:1;stroke:none;stroke-width:0.494138px;stroke-linecap:butt;stroke-linejoin:miter;stroke-opacity:1"
       d="m 102.57782,111.09475 c 1.25404,18.58597 3.48367,36.82252 0.81173,56.81459 4.07098,-6.34768 6.31101,-14.7955 8.25839,-23.57902 1.21257,-17.13911 -5.73654,-28.04629 -9.07012,-33.23557 z"
       id="path34006-3"
       sodipodi:nodetypes="cccc" />
    <text
       xml:space="preserve"
       transform="scale(0.26458333)"
       id="text40123"
       style="font-style:normal;font-weight:normal;font-size:40px;line-height:1.25;font-family:sans-serif;white-space:pre;shape-inside:url(#rect40125);fill:#000000;fill-opacity:1;stroke:none" />
    <text
       xml:space="preserve"
       transform="scale(0.26458333)"
       id="text45211"
       style="font-style:normal;font-weight:normal;font-size:40px;line-height:1.25;font-family:sans-serif;white-space:pre;shape-inside:url(#rect45213);fill:#000000;fill-opacity:1;stroke:none" />
    <path
       style="display:none;fill:none;stroke:#000000;stroke-width:0.264583px;stroke-linecap:butt;stroke-linejoin:miter;stroke-opacity:1"
       d="M 36.90103,153.49389 C 48.907156,66.712286 159.97344,71.570164 168.50894,153.16682"
       id="path66757"
       sodipodi:nodetypes="cc" />
    <g
       aria-label="STOWARZYSZENIE"
       transform="matrix(1.0116153,0,0,1.0546652,-1.1281448,-4.6814072)"
       id="text79409"
       style="font-size:19.7556px;line-height:1.65;letter-spacing:1.3335px;fill:#016a32;stroke-width:0.264583">
      <path
         d="m 25.16362,140.3141 1.861993,0.37973 q -0.741514,0.98094 -1.193322,1.89297 -0.451808,0.91203 -0.634926,1.80995 -0.318047,1.55954 0.113385,2.53356 0.433359,0.96457 1.548664,1.19202 0.935723,0.19083 1.531487,-0.26852 0.588241,-0.47073 1.201219,-1.97996 l 0.471455,-1.10493 q 0.842053,-2.05321 2.078541,-2.85444 1.228965,-0.81261 2.949182,-0.46179 2.051028,0.41828 2.828199,2.01412 0.7791,1.58638 0.237456,4.24232 -0.204321,1.00189 -0.662469,2.08984 -0.456221,1.07849 -1.14718,2.19772 l -1.965963,-0.40093 q 0.88926,-1.02956 1.447523,-2.07741 0.558262,-1.04784 0.778004,-2.12534 0.333467,-1.63515 -0.128061,-2.65468 -0.461528,-1.01954 -1.652448,-1.26241 -1.039691,-0.21204 -1.756773,0.31117 -0.715154,0.51376 -1.305002,1.90958 l -0.463931,1.1163 q -0.860956,2.04935 -1.963007,2.81893 -1.10205,0.76958 -2.718298,0.43997 -1.871445,-0.38165 -2.681013,-1.91519 -0.807641,-1.54298 -0.335389,-3.85866 0.202393,-0.99243 0.59208,-1.98605 0.389687,-0.99361 0.968594,-1.99787 z"
         id="path167651" />
      <path
         d="m 26.038382,134.8915 4.24796,-11.4187 1.536959,0.57178 -1.782596,4.79169 11.961157,4.44977 -0.682768,1.83531 -11.961157,-4.44977 -1.782596,4.7917 z"
         id="path167653" />
      <path
         d="m 37.195573,113.68071 q -1.123939,1.80012 -0.446178,3.70167 0.682869,1.89337 2.998475,3.33916 2.307424,1.44069 4.308367,1.22301 2.006052,-0.22586 3.129991,-2.02598 1.123939,-1.80012 0.435961,-3.68531 -0.68287,-1.89337 -2.990294,-3.33405 -2.315606,-1.44579 -4.316549,-1.22812 -1.995834,0.2095 -3.119773,2.00962 z m -1.341906,-0.83785 q 1.604167,-2.56926 4.291101,-3.02958 2.678751,-0.46543 5.575305,1.34309 2.888371,1.80341 3.654391,4.41965 0.757837,2.61113 -0.84633,5.18039 -1.609276,2.57745 -4.293136,3.05106 -2.678751,0.46543 -5.575305,-1.34309 -2.896553,-1.80852 -3.654391,-4.41965 -0.760911,-2.62443 0.848365,-5.20187 z"
         id="path167655" />
      <path
         d="m 43.944454,101.64024 1.45838,-1.32119 10.417985,6.98835 -5.935612,-11.049052 1.622805,-1.470144 10.417985,6.988346 -5.935612,-11.049052 1.465528,-1.327664 6.988429,13.101986 -1.815826,1.64501 -10.645331,-7.224931 6.120065,11.324501 -1.815826,1.645 z"
         id="path167657" />
      <path
         d="m 68.663548,85.648538 0.821826,7.594678 4.742753,-2.356254 z m -1.838922,-1.229863 1.978306,-0.982846 11.32334,10.455775 -1.814168,0.9013 -2.818688,-2.724998 -5.813975,2.88845 0.468909,3.892395 -1.840084,0.914175 z"
         id="path167659" />
      <path
         d="m 88.621276,84.805008 q 0.658582,0.06668 1.387376,0.612096 0.738196,0.543259 1.592838,1.594235 l 2.807259,3.394021 -2.04027,0.467941 -2.62172,-3.189157 q -1.019221,-1.250751 -1.783037,-1.560509 -0.754414,-0.311914 -1.882675,-0.05314 l -2.068477,0.474411 1.360695,5.932769 -1.899239,0.435594 -3.219519,-14.037439 4.287389,-0.983322 q 2.406956,-0.552041 3.822365,0.182283 1.415409,0.734325 1.881193,2.765193 0.304054,1.325706 -0.115943,2.342431 -0.410595,1.014568 -1.508235,1.622598 z m -6.109567,-4.804017 1.142897,4.983149 2.388151,-0.547728 q 1.372717,-0.314835 1.923998,-1.104355 0.558527,-0.801078 0.276037,-2.032762 -0.282489,-1.231685 -1.129975,-1.690497 -0.84024,-0.470371 -2.212957,-0.155535 z"
         id="path167661" />
      <path
         d="m 97.529117,75.747994 11.314953,0.05639 -0.007,1.48551 -9.162185,11.230988 9.327845,0.04649 -0.008,1.639849 -11.758682,-0.0586 0.0074,-1.485511 9.162192,-11.230988 -8.884129,-0.04428 z"
         id="path167663" />
      <path
         d="m 114.35564,76.383352 2.0426,0.457668 2.60197,6.652676 5.16367,-4.912695 2.0426,0.457668 -6.6193,6.247301 -1.49955,6.692574 -1.91082,-0.428141 1.49955,-6.692573 z"
         id="path167665" />
      <path
         d="m 139.75105,85.242823 -0.79237,1.727238 q -0.78707,-0.944778 -1.57277,-1.591772 -0.78571,-0.646994 -1.61864,-1.029104 -1.44667,-0.663665 -2.49319,-0.46453 -1.03775,0.203156 -1.51237,1.237745 -0.3982,0.868004 -0.086,1.552467 0.32495,0.679718 1.6557,1.619204 l 0.9691,0.709903 q 1.80855,1.286031 2.30827,2.672088 0.51252,1.381312 -0.21952,2.977035 -0.87282,1.902592 -2.6034,2.297332 -1.7218,0.398763 -4.18553,-0.731479 -0.92938,-0.426354 -1.88497,-1.119445 -0.94682,-0.689068 -1.88004,-1.615993 l 0.83662,-1.823684 q 0.80089,1.099704 1.6947,1.881195 0.89381,0.781491 1.89333,1.240023 1.51682,0.695843 2.61449,0.477727 1.09768,-0.218116 1.60448,-1.322848 0.44244,-0.964448 0.0956,-1.781556 -0.33806,-0.813086 -1.5636,-1.704306 l -0.98189,-0.705157 q -1.8005,-1.303566 -2.29991,-2.55151 -0.49941,-1.247943 0.18839,-2.747221 0.7964,-1.736006 2.47364,-2.176438 1.68602,-0.436409 3.8341,0.549033 0.92061,0.422333 1.79987,1.02734 0.87926,0.605008 1.72593,1.396713 z"
         id="path167667" />
      <path
         d="m 146.59925,88.638504 8.97541,6.890105 -0.90458,1.178356 -14.08979,3.399815 7.39916,5.68008 -0.99856,1.30079 -9.32738,-7.16031 0.90458,-1.178356 14.08978,-3.399819 -7.04718,-5.409878 z"
         id="path167669" />
      <path
         d="m 160.96535,100.94192 5.80876,7.01279 -1.2629,1.04607 -4.56578,-5.51218 -3.28353,2.71978 4.37502,5.28189 -1.2629,1.04607 -4.37502,-5.28189 -4.01899,3.32896 4.67654,5.6459 -1.2629,1.04606 -5.91951,-7.14651 z"
         id="path167671" />
      <path
         d="m 171.17348,114.59452 1.18253,2.3422 -7.8771,11.13058 10.75517,-5.43008 0.85212,1.68776 -12.85627,6.49088 -1.18253,-2.3422 7.87711,-11.13058 -10.75518,5.43008 -0.85212,-1.68776 z"
         id="path167673" />
      <path
         d="m 178.57776,131.45043 0.5876,1.85784 -13.73147,4.34302 -0.5876,-1.85784 z"
         id="path167675" />
      <path
         d="m 181.05066,140.13666 1.60034,8.96436 -1.61434,0.2882 -1.2579,-7.04614 -4.1973,0.74931 1.20535,6.75177 -1.61435,0.2882 -1.20535,-6.75177 -5.13741,0.91715 1.28841,7.21707 -1.61435,0.2882 -1.63086,-9.1353 z"
         id="path167677" />
    </g>
    <path
       style="display:none;fill:none;stroke:#000000;stroke-width:0.264583px;stroke-linecap:butt;stroke-linejoin:miter;stroke-opacity:1"
       d="m 34.804776,198.857 c 14.982056,32.86287 88.084384,73.31428 136.923354,0.596"
       id="path140462"
       sodipodi:nodetypes="cc" />
    <g
       aria-label="HARCERSKIE"
       id="text147785"
       style="font-size:19.7556px;line-height:1.25;letter-spacing:4.42912px;white-space:pre;fill:#016a32">
      <path
         d="m 47.465591,192.83321 1.06933,1.62892 -4.935144,3.23976 3.885588,5.91894 4.935144,-3.23975 1.069331,1.62892 -12.039493,7.90352 -1.069331,-1.62892 5.733476,-3.76383 -3.885588,-5.91895 -5.733476,3.76383 -1.06933,-1.62892 z"
         id="path167717" />
      <path
         d="m 59.016722,209.73006 -6.699708,3.66994 3.994106,3.47746 z m 0.431124,-2.16987 1.66603,1.45053 -5.317315,14.46608 -1.5278,-1.33018 1.436557,-3.64786 -4.896236,-4.26291 -3.415422,1.92497 -1.549626,-1.34918 z"
         id="path167719" />
      <path
         d="m 70.564386,224.54686 q 0.441256,0.49343 0.611455,1.38766 0.178595,0.89898 0.100721,2.25135 l -0.216582,4.39923 -1.821943,-1.03063 0.21539,-4.12283 q 0.09111,-1.61087 -0.263892,-2.35474 -0.346605,-0.73912 -1.354131,-1.30905 l -1.847132,-1.04488 -2.996898,5.29791 -1.696002,-0.95938 7.090917,-12.53531 3.8286,2.16575 q 2.149389,1.21585 2.699101,2.71266 0.549713,1.49681 -0.476167,3.31035 -0.669671,1.18385 -1.665509,1.65122 -0.987441,0.47212 -2.207928,0.18069 z m -1.270502,-7.66754 -2.517204,4.44991 2.132597,1.20636 q 1.225824,0.69342 2.165344,0.48234 0.952666,-0.21472 1.574843,-1.31461 0.622177,-1.09988 0.305936,-2.01023 -0.303095,-0.91399 -1.528918,-1.60741 z"
         id="path167721" />
      <path
         d="m 90.938712,225.48578 -0.628598,1.95614 q -0.656383,-1.17348 -1.582995,-1.94745 -0.917428,-0.77102 -2.111317,-1.15467 -2.351044,-0.7555 -4.063369,0.28499 -1.709373,1.03131 -2.582919,3.7497 -0.870594,2.70921 -0.08494,4.55242 0.78861,1.83403 3.139653,2.58953 1.19389,0.38365 2.388727,0.29139 1.204022,-0.0893 2.421126,-0.66074 l -0.622696,1.93778 q -1.185963,0.34841 -2.385072,0.32783 -1.189926,-0.0176 -2.402183,-0.40717 -3.113296,-1.00045 -4.293239,-3.47697 -1.176991,-2.4857 -0.117522,-5.78267 1.06242,-3.30615 3.464145,-4.63171 2.404676,-1.33475 5.517972,-0.3343 1.230624,0.39545 2.208066,1.07431 0.989578,0.67262 1.735156,1.63159 z"
         id="path167723" />
      <path
         d="m 95.462402,225.15022 9.071848,0.78907 -0.1421,1.6337 -7.130628,-0.62022 -0.369461,4.24762 6.832709,0.59431 -0.1421,1.6337 -6.83271,-0.59431 -0.452214,5.19901 7.303604,0.63527 -0.1421,1.63371 -9.244825,-0.80413 z"
         id="path167725" />
      <path
         d="m 116.77328,232.28152 q 0.65296,0.10871 1.34534,0.69966 0.70191,0.5894 1.48752,1.69294 l 2.58422,3.56677 -2.06605,0.33637 -2.41217,-3.35045 q -0.93706,-1.31344 -1.67948,-1.67146 -0.7329,-0.35957 -1.87541,-0.17356 l -2.09461,0.34102 0.9781,6.0077 -1.92323,0.31312 -2.31426,-14.21475 4.34155,-0.70684 q 2.43736,-0.39682 3.80285,0.42661 1.3655,0.82343 1.70031,2.87996 0.21856,1.34245 -0.26566,2.3302 -0.47471,0.9862 -1.60902,1.52271 z m -5.78949,-5.18528 0.82154,5.04609 2.41832,-0.39372 q 1.39005,-0.22631 1.99075,-0.97892 0.60866,-0.76368 0.4056,-2.01092 -0.20306,-1.24724 -1.01943,-1.75937 -0.80841,-0.52319 -2.19846,-0.29688 z"
         id="path167727" />
      <path
         d="m 131.08798,219.77572 0.76601,1.7391 q -1.22906,-0.0384 -2.23449,0.11989 -1.00543,0.15826 -1.84408,0.52765 -1.4566,0.64158 -2.00226,1.55652 -0.53682,0.91105 -0.078,1.95274 0.38495,0.87396 1.1041,1.09477 0.7241,0.20809 2.31006,-0.16371 l 1.17421,-0.25369 q 2.16231,-0.49917 3.53072,0.047 1.37336,0.53347 2.08104,2.14015 0.84377,1.91565 -0.01,3.47207 -0.84455,1.55254 -3.32518,2.64517 -0.93576,0.41216 -2.08842,0.6669 -1.14384,0.25085 -2.45656,0.33365 l -0.80878,-1.8362 q 1.35412,0.13085 2.53191,-0.019 1.17778,-0.14985 2.18416,-0.59313 1.52722,-0.67268 2.09263,-1.63849 0.56542,-0.9658 0.0755,-2.07811 -0.42772,-0.97107 -1.26909,-1.25399 -0.83255,-0.28681 -2.31258,0.0383 l -1.17915,0.2664 q -2.17008,0.48151 -3.43498,0.0268 -1.2649,-0.45475 -1.92981,-1.96432 -0.7699,-1.74792 0.0139,-3.29478 0.79263,-1.55075 2.95546,-2.5034 0.92693,-0.40828 1.96305,-0.66438 1.03612,-0.2561 2.19025,-0.36392 z"
         id="path167729" />
      <path
         d="m 135.31414,216.72939 1.5639,-1.16234 3.6309,4.88526 1.55631,-8.74057 2.01295,-1.49609 -1.73198,9.65236 10.73332,1.60163 -2.0594,1.53061 -9.68835,-1.44082 4.13726,5.56658 -1.5639,1.16234 z"
         id="path167731" />
      <path
         d="m 147.01143,207.06818 1.3692,-1.38643 10.24715,10.11982 -1.36919,1.38642 z"
         id="path167733" />
      <path
         d="m 152.81318,200.86391 5.55886,-7.2125 1.29886,1.00107 -4.36936,5.66914 3.37704,2.60277 4.18681,-5.43229 1.29886,1.00106 -4.18681,5.4323 4.13343,3.18574 4.47536,-5.80667 1.29886,1.00107 -5.66486,7.35002 z"
         id="path167735" />
    </g>
  </g>
</svg>
