<svg xmlns="http://www.w3.org/2000/svg" enable-background="new 0 0 24 24" height="24" viewBox="0 0 24 24" width="24"><g><rect fill="none" height="24" width="24" y="0"/></g><g><path d="M21.07,16.17c-0.34-0.93-2.4-1.06-3.36-3.19c-0.06-0.16-0.05-0.27,0.11-0.37c0.74-0.49,1.26-0.76,1.56-1.33 c0.22-0.41,0.25-0.89,0.08-1.33c-0.23-0.61-0.81-1-1.52-1c0,0,0,0,0,0c-0.25,0-0.45,0.05-0.55,0.07c0.01-0.42,0-0.86-0.04-1.3 c-0.13-1.53-0.67-2.34-1.23-2.98C15.79,4.37,14.48,3,12,3h0h0C9.52,3,8.21,4.37,7.88,4.74c-0.56,0.64-1.1,1.45-1.23,2.98 C6.62,8.16,6.61,8.6,6.61,9.02C6.5,8.99,6.31,8.95,6.06,8.95c0,0,0,0,0,0c-0.7,0-1.29,0.38-1.52,1c-0.17,0.43-0.14,0.92,0.08,1.33 c0.31,0.58,0.82,0.84,1.56,1.33c0.16,0.11,0.17,0.21,0.11,0.37c-0.97,2.13-3.02,2.26-3.36,3.19c-0.15,0.4-0.05,0.85,0.32,1.23 c0.57,0.59,1.63,0.77,1.84,0.91c0.17,0.14,0.15,0.56,0.63,0.9c0.38,0.26,0.8,0.28,1.25,0.29c1.31,0.05,1.6,0.27,2.1,0.58 C9.7,20.47,10.56,21,12,21c0,0,0,0,0,0s0,0,0,0c1.44,0,2.3-0.53,2.93-0.92c0.5-0.31,0.79-0.53,2.1-0.58 c0.45-0.02,0.87-0.03,1.25-0.29c0.49-0.34,0.47-0.76,0.63-0.9c0.21-0.14,1.27-0.32,1.84-0.91C21.12,17.02,21.22,16.57,21.07,16.17z M20.04,16.7c-0.37,0.39-1.26,0.5-1.73,0.82c-0.48,0.42-0.4,0.74-0.59,0.87c-0.13,0.09-0.36,0.1-0.72,0.12 c-1.4,0.05-1.91,0.31-2.52,0.69C13.05,20.08,12.25,20,12,20c0,0,0,0,0,0s0,0,0,0c-0.25,0-1.05,0.08-2.47-0.81 c-0.61-0.38-1.11-0.63-2.52-0.69c-0.36-0.01-0.59-0.03-0.72-0.12c-0.19-0.13-0.12-0.45-0.59-0.87c-0.48-0.32-1.36-0.43-1.73-0.82 c-0.06-0.06-0.11-0.14-0.12-0.15c0.07-0.1,0.41-0.3,0.66-0.44c0.78-0.46,1.98-1.14,2.71-2.75c0.26-0.7,0.03-1.26-0.48-1.59 C5.59,11.03,5.61,11,5.5,10.8c-0.08-0.15-0.09-0.33-0.03-0.5c0.12-0.32,0.45-0.35,0.58-0.35c0.19,0,0.18,0.01,1.57,0.37 c-0.02-1.4-0.04-1.85,0.02-2.51c0.11-1.31,0.57-1.93,0.98-2.4C8.9,5.11,9.99,3.98,12,4h0h0c2.01-0.02,3.1,1.11,3.37,1.41 c0.41,0.47,0.87,1.09,0.98,2.4c0.06,0.66,0.04,1.11,0.02,2.51c1.4-0.36,1.38-0.37,1.57-0.37c0.14,0,0.46,0.03,0.58,0.35 c0.07,0.17,0.06,0.35-0.03,0.5c-0.11,0.2-0.09,0.22-1.23,0.97c-0.51,0.33-0.74,0.89-0.48,1.59c0.73,1.61,1.93,2.29,2.71,2.75 c0.25,0.15,0.59,0.34,0.66,0.44C20.15,16.56,20.09,16.64,20.04,16.7z"/></g></svg>