<?xml version="1.0" encoding="UTF-8" standalone="no"?>
<svg
   width="160.79108mm"
   height="160.79108mm"
   viewBox="0 0 160.79108 160.79108"
   version="1.1"
   id="svg6"
   inkscape:version="1.1-dev (0df1fa2914, 2020-11-14, custom)"
   sodipodi:docname="spala.svg"
   xmlns:inkscape="http://www.inkscape.org/namespaces/inkscape"
   xmlns:sodipodi="http://sodipodi.sourceforge.net/DTD/sodipodi-0.dtd"
   xmlns="http://www.w3.org/2000/svg"
   xmlns:svg="http://www.w3.org/2000/svg">
  <defs
     id="defs2" />
  <sodipodi:namedview
     id="base"
     pagecolor="#ffffff"
     bordercolor="#666666"
     borderopacity="1.0"
     inkscape:pageopacity="0.0"
     inkscape:pageshadow="2"
     inkscape:zoom="1.4"
     inkscape:cx="467.5"
     inkscape:cy="190.71428"
     inkscape:document-units="mm"
     inkscape:current-layer="layer2"
     showgrid="false"
     inkscape:window-width="1920"
     inkscape:window-height="1044"
     inkscape:window-x="0"
     inkscape:window-y="36"
     inkscape:window-maximized="1"
     fit-margin-top="0"
     fit-margin-left="0"
     fit-margin-right="0"
     fit-margin-bottom="0" />
  <g
     inkscape:groupmode="layer"
     id="layer2"
     inkscape:label="Warstwa 2"
     style="display:inline;opacity:1"
     transform="translate(-33.617683,-128.4192)">
    <rect
       style="fill:#a06c45;fill-opacity:1;fill-rule:evenodd;stroke-width:0.687834;stroke-linecap:round;stroke-linejoin:round"
       id="rect43"
       width="160.79108"
       height="160.93326"
       x="34.609669"
       y="128.71153" />
    <path
       style="font-variation-settings:normal;opacity:1;vector-effect:none;fill:#ffffff;fill-opacity:1;stroke:none;stroke-width:0.264583px;stroke-linecap:butt;stroke-linejoin:miter;stroke-miterlimit:4;stroke-dasharray:none;stroke-dashoffset:0;stroke-opacity:1;stop-color:#000000;stop-opacity:1"
       d="m 64.540839,173.52041 -0.15411,2.90967 -10.669592,-0.50599 0.255349,-3.73217 4.23646,-6.1008 c 1.010454,-1.26534 1.075071,-2.28301 -2.140359,-1.81926 l -2.651324,0.0565 c -0.573395,0.0576 -0.339927,-3.67611 0.371264,-3.81328 3.59597,0.28072 7.286786,-0.0366 10.786128,0.85341 1.296198,0.37128 -6.911033,11.19687 -6.242926,11.44237 z"
       id="path12506"
       sodipodi:nodetypes="ccccccccccc" />
    <path
       style="font-variation-settings:normal;opacity:1;vector-effect:none;fill:#ffffff;fill-opacity:1;stroke:none;stroke-width:0.264583px;stroke-linecap:butt;stroke-linejoin:miter;stroke-miterlimit:4;stroke-dasharray:none;stroke-dashoffset:0;stroke-opacity:1;stop-color:#000000;stop-opacity:1"
       d="m 65.71734,168.72008 -0.167748,14.48364 c 0.0076,0.6349 0.316417,0.92264 0.904922,0.88814 l 3.191013,0.13171 c 0.34486,-0.0443 0.783482,0.14132 0.719539,-0.90504 l -0.0056,-4.52111 c -0.04904,-1.36412 2.162642,-0.81317 2.086964,-0.0445 l -0.219623,4.82496 c 0.02545,0.5844 0.401537,0.86153 0.954345,0.85618 l 3.044706,-0.0645 c 0.7414,-0.0215 0.880734,-0.53149 0.870833,-1.1625 l -0.102473,-13.5432 c 0.01687,-1.14695 -0.664771,-1.00742 -1.23939,-1.065 l -2.010233,0.0379 c -0.581049,0.0267 -0.877618,0.37154 -0.857544,1.07045 l -0.135329,4.41508 c -0.260099,1.67388 -2.67756,1.11715 -2.581412,-0.19072 l 0.181705,-4.58386 c -0.06163,-0.57182 -0.559502,-0.74248 -1.347404,-0.70513 z"
       id="path14508"
       sodipodi:nodetypes="cccccccccccccccccccc" />
    <path
       style="font-variation-settings:normal;opacity:1;vector-effect:none;fill:#ffffff;fill-opacity:1;stroke:none;stroke-width:0.264583px;stroke-linecap:butt;stroke-linejoin:miter;stroke-miterlimit:4;stroke-dasharray:none;stroke-dashoffset:0;stroke-opacity:1;stop-color:#000000;stop-opacity:1"
       d="M 79.651039,194.75235 C 79.261824,188.79616 78.077382,176.62846 78.59075,176.8643 l 9.356836,0.27471 c 5.728883,0.26547 2.229779,11.54654 -4.297583,9.21627 l 0.0033,6.42498 z"
       id="path15917"
       sodipodi:nodetypes="cccccc" />
    <path
       style="font-variation-settings:normal;display:inline;opacity:1;vector-effect:none;fill:#000000;fill-opacity:1;stroke:#000000;stroke-width:0.264583px;stroke-linecap:butt;stroke-linejoin:miter;stroke-miterlimit:4;stroke-dasharray:none;stroke-dashoffset:0;stroke-opacity:1;stop-color:#000000;stop-opacity:1"
       d="m 77.954732,195.42429 c -2.718169,1.20592 -5.530406,1.80286 -8.67079,0.27541 -3.752929,-0.80836 -7.472313,-2.91952 -11.312065,-0.35599 -2.479886,1.77512 -4.048051,3.94497 -3.002118,7.24657 l 10.137002,11.61897 c 2.42035,2.41649 0.06342,3.65628 -1.559258,5.07692 0,0 -3.912526,4.40011 -3.859567,4.63455 0.05296,0.23444 -2.292512,5.9781 -2.292512,5.9781 -1.348473,2.29524 -2.115617,4.37859 0.247171,5.3211 l 3.099459,0.0137 4.490109,0.0127 0.265449,-1.70073 c -1.117469,-1.15114 -2.673084,-2.02152 -2.171473,-4.21015 0.403624,-2.94663 2.422273,-5.42605 4.598289,-7.85995 2.246967,-2.77981 3.854526,-2.24153 5.127175,0.0347 1.995441,2.15395 0.845605,3.74574 -1.697334,5.08853 -0.502019,0.36429 -0.09888,1.19407 0.984946,1.15417 1.620359,0.0399 0.898247,0.82298 0.596826,0.91404 l -1.587132,0.73083 c -0.731463,0.35175 -1.095641,1.16973 0.274659,1.36162 l 1.661633,0.11244 c 1.979545,0.008 0.137549,1.31261 -0.272145,1.66687 l -1.438585,1.1836 0.266259,1.10035 c 2.226996,-0.10808 4.474484,0.31801 6.552382,-3.67657 0.946325,-2.22242 0.863704,-5.25913 0.28674,-8.68705 l -3.634436,-3.69594 c -1.392446,-1.14958 -0.800672,-1.86547 -0.263888,-2.16064 l 10.846319,-4.47684 c 2.450423,-0.84771 1.944964,0.33208 1.774835,0.80716 l -4.805523,7.8256 c -0.68395,0.84494 -0.05769,1.10021 0.498533,1.387 l 6.080127,1.91528 c 1.560005,0.25037 1.867499,1.15564 1.522995,2.3335 -0.09532,0.73254 -0.565065,3.15387 1.493628,1.38846 l 1.481701,-0.56968 c 0.50087,0.13713 0.386237,0.46369 0.08178,0.84868 l -1.832907,1.65945 c -0.553633,0.53055 -0.743972,1.12685 -0.198471,1.85634 1.094306,1.31688 2.236938,2.55278 2.8987,4.59447 0.394858,1.54006 0.962136,1.60322 1.705169,0.16091 l 1.953826,-5.88854 c 0.384732,-1.21307 1.096517,-2.84872 -1.110557,-6.09494 l -4.790697,-3.89229 -2.222058,-0.98681 c -0.927935,-0.25665 -0.684024,-0.77421 -0.357499,-0.95557 1.613565,-0.56931 3.335591,-0.72212 4.43145,-3.27944 0.370345,-0.73612 0.993232,-2.25362 1.23957,-2.20837 4.534491,3.50161 11.685381,7.32682 15.068061,7.33648 l -0.19859,4.5135 c 0.12239,1.38441 0.70926,0.94257 1.29701,0.49729 l 1.65841,-1.38094 c 0.87537,-0.44909 0.78323,0.14753 0.75701,0.6729 l -0.48082,2.44618 c 10e-4,1.41585 0.79697,1.14349 1.59673,0.86303 l 6.6073,-4.30175 c 0.2887,-0.20665 2.54553,5.23862 4.9196,7.43429 4.42107,1.59469 -0.31412,1.40709 -0.0216,1.83638 0.005,1.07153 -0.24932,3.20018 0.0203,3.21458 l 10.27644,0.047 c 0.30931,-0.0147 -1.40482,-2.1619 -2.06954,-3.14343 l -5.34203,-7.7868 c -0.24754,-0.95664 1.04406,-1.41058 1.46885,-0.60767 l 6.26666,9.83347 c 0.85524,1.46992 1.6327,1.5711 2.95679,1.57347 l 3.62896,-0.37147 c 2.06477,0.0441 2.51685,-0.88313 0.87833,-2.17202 -0.14308,-0.11255 -3.57558,-3.19642 -3.57558,-3.19642 l -0.57095,-3.50207 c 1.04836,-0.88522 1.36388,-0.27351 1.76058,0.17236 0.563,1.72716 0.855,0.48194 1.2122,-0.0481 0.46907,-1.39062 0.86023,-2.89141 2.46112,-2.68147 0.7953,0.5382 1.48722,2.57886 3.53203,-0.007 l 7.74478,-8.47829 c 0.52637,-0.94969 1.18553,-1.88595 -0.27225,-3.03637 -0.95669,-0.91055 -0.008,-1.36595 1.01586,-1.80332 l 10.58405,-1.56845 c 1.06939,-0.48214 1.59964,-1.26228 1.25259,-2.52734 l -13.0804,-0.15208 0.11836,-3.80895 -2.53452,-3.20004 c -6.11997,-8.97656 -11.96405,-20.51284 -19.76592,-23.5176 l -4.51442,-3.3941 -0.94386,1.09764 -3.73752,-2.9395 -0.82806,1.55012 c -1.33319,-0.58119 -2.68742,-1.52827 -3.92376,-0.42588 l -0.0202,1.12846 -3.33678,-0.55116 0.12578,1.87485 -2.28256,-0.92359 c -1.88111,0.70176 -0.9492,1.41933 -0.75842,2.20817 -0.83385,-0.20348 -1.47181,-0.91433 -2.54555,-0.49646 -0.57848,0.71992 -0.6276,1.51353 -0.6092,2.31654 -8.64399,2.35447 -14.450652,7.05189 -19.675022,12.23013 -0.909359,1.21587 -2.454546,1.96116 -5.206018,1.81369 l -2.733429,1.11529 -4.002262,1.97209 z"
       id="path54"
       sodipodi:nodetypes="ccccccscccccccccccccccccccccccccccccccccccccccccccccccccccccccccccscccccccccccccccccccccccccccccccc" />
    <path
       style="font-variation-settings:normal;opacity:1;vector-effect:none;fill:#9e6b44;fill-opacity:1;stroke:#000000;stroke-width:0.264583px;stroke-linecap:butt;stroke-linejoin:miter;stroke-miterlimit:4;stroke-dasharray:none;stroke-dashoffset:0;stroke-opacity:1;stop-color:#000000;stop-opacity:1"
       d="m 68.086525,212.68345 c -5.819039,-5.67704 -14.675694,-11.92713 -7.07843,-15.07313 1.637222,-0.51445 11.528365,1.74462 11.049233,2.33294 -0.505735,0.6885 -1.920218,1.70602 -1.875076,2.48605 l -0.05606,6.31173 c -1.070306,0.47538 -1.799872,2.50781 -2.039664,3.94241 z"
       id="path52280"
       sodipodi:nodetypes="cccccc" />
    <path
       style="font-variation-settings:normal;opacity:1;vector-effect:none;fill:#ffffff;fill-opacity:1;stroke:none;stroke-width:0.264583px;stroke-linecap:butt;stroke-linejoin:miter;stroke-miterlimit:4;stroke-dasharray:none;stroke-dashoffset:0;stroke-opacity:1;stop-color:#000000;stop-opacity:1"
       d="m 162.95222,201.29143 4.59334,-14.33735 c 5.51473,-7.77493 12.80083,-2.89248 14.59846,0.0551 2.933,12.1909 -2.31859,12.92761 -6.95501,14.36606 -0.34954,-0.13167 3.74087,-7.37027 -1.38861,-7.6161 -2.65313,0.47501 -6.8675,2.01649 -7.42973,7.08296 z"
       id="path12860"
       sodipodi:nodetypes="ccccccc" />
    <path
       style="font-variation-settings:normal;opacity:1;vector-effect:none;fill:#fffffe;fill-opacity:1;stroke:none;stroke-width:0.264583px;stroke-linecap:butt;stroke-linejoin:miter;stroke-miterlimit:4;stroke-dasharray:none;stroke-dashoffset:0;stroke-opacity:1;stop-color:#000000;stop-opacity:1"
       d="m 161.78246,201.25414 4.89973,-19.30312 c 2.83538,-7.33208 -0.79555,-14.55563 -7.14042,-21.73363 -3.35178,5.09903 -7.17288,9.90077 -7.66854,16.80897 3.29012,8.49213 5.54473,16.43915 7.37167,24.16104 z"
       id="path14269"
       sodipodi:nodetypes="cccccc" />
    <path
       style="font-variation-settings:normal;opacity:1;vector-effect:none;fill:#ffffff;fill-opacity:1;stroke:none;stroke-width:0.264583px;stroke-linecap:butt;stroke-linejoin:miter;stroke-miterlimit:4;stroke-dasharray:none;stroke-dashoffset:0;stroke-opacity:1;stop-color:#000000;stop-opacity:1"
       d="m 158.48957,201.25795 -4.04745,-12.45712 c -2.30822,-5.22366 -6.36292,-6.0922 -11.00597,-5.49359 l 12.92252,18.59692 z"
       id="path14790"
       sodipodi:nodetypes="ccccc" />
    <path
       style="font-variation-settings:normal;opacity:1;vector-effect:none;fill:#ffffff;fill-opacity:1;stroke:none;stroke-width:0.264583px;stroke-linecap:butt;stroke-linejoin:miter;stroke-miterlimit:4;stroke-dasharray:none;stroke-dashoffset:0;stroke-opacity:1;stop-color:#000000;stop-opacity:1"
       d="m 156.94271,202.8938 9.96479,0.10694 c 2.58041,0.12691 3.0248,2.88555 3.10921,3.71782 l -13.19236,-0.0158 z"
       id="path15183"
       sodipodi:nodetypes="ccccc" />
    <path
       style="font-variation-settings:normal;opacity:1;vector-effect:none;fill:#ffffff;fill-opacity:1;stroke:none;stroke-width:0.264583px;stroke-linecap:butt;stroke-linejoin:miter;stroke-miterlimit:4;stroke-dasharray:none;stroke-dashoffset:0;stroke-opacity:1;stop-color:#000000;stop-opacity:1"
       d="m 166.94024,209.71282 c 0.61104,3.04195 1.20968,6.64695 6.54218,1.51472 5.12723,3.8198 -2.56584,10.46627 -7.31192,5.74881 -1.3029,3.35872 -1.6914,7.20139 -5.13821,9.42542 l -4.97632,-9.18663 0.58437,-5.27953 c 2.33465,-2.07253 6.85871,-1.49142 10.2999,-2.22279 z"
       id="path16155"
       sodipodi:nodetypes="ccccccc" />
    <path
       style="font-variation-settings:normal;opacity:1;vector-effect:none;fill:#000000;fill-opacity:1;stroke:none;stroke-width:0.264583px;stroke-linecap:butt;stroke-linejoin:miter;stroke-miterlimit:4;stroke-dasharray:none;stroke-dashoffset:0;stroke-opacity:1;stop-color:#000000;stop-opacity:1"
       d="m 54.299135,251.82528 c 2.88137,-0.0632 5.471248,-2.84359 6.434246,-7.26172 3.200356,-6.66218 7.015719,-7.91259 11.035747,-7.36206 l 0.275521,1.80809 c 0.157664,1.80864 -2.380841,0.92079 -2.514893,1.27859 -3.837847,6.79529 -7.751335,14.43137 -11.006958,14.75485 -0.473715,0.13464 -6.746317,2.17105 -4.223663,-3.21775 z"
       id="path17872"
       sodipodi:nodetypes="ccccccc" />
    <path
       style="font-variation-settings:normal;opacity:1;vector-effect:none;fill:#050302;fill-opacity:1;stroke:#000000;stroke-width:0.264583px;stroke-linecap:butt;stroke-linejoin:miter;stroke-miterlimit:4;stroke-dasharray:none;stroke-dashoffset:0;stroke-opacity:1;stop-color:#000000;stop-opacity:1"
       d="m 66.190365,254.95741 9.02023,-17.76336 6.063239,0.21184 c 3.381229,0.11581 4.118448,1.93525 4.175216,2.29712 0.733316,5.86741 -1.777228,8.49617 -5.348685,10.06572 l -3.954521,-0.35293 c -0.65248,-0.0759 -2.746289,3.95659 -4.009223,5.97557 z"
       id="path20635"
       sodipodi:nodetypes="cccccccc" />
    <path
       style="font-variation-settings:normal;opacity:1;vector-effect:none;fill:#9c6b46;fill-opacity:1;stroke:#000000;stroke-width:0.264583px;stroke-linecap:butt;stroke-linejoin:miter;stroke-miterlimit:4;stroke-dasharray:none;stroke-dashoffset:0;stroke-opacity:1;stop-color:#000000;stop-opacity:1"
       d="m 79.21876,239.9331 -2.57575,6.61932 c 0.08501,0.81841 3.623525,-3.27949 4.005228,-6.42791 -0.02224,-0.26064 -1.394223,-0.44055 -1.429478,-0.19141 z"
       id="path21208"
       sodipodi:nodetypes="cccc" />
    <path
       style="font-variation-settings:normal;opacity:1;vector-effect:none;fill:#000000;fill-opacity:1;stroke:#000000;stroke-width:0.264583px;stroke-linecap:butt;stroke-linejoin:miter;stroke-miterlimit:4;stroke-dasharray:none;stroke-dashoffset:0;stroke-opacity:1;stop-color:#000000;stop-opacity:1"
       d="m 80.88199,254.48659 10.461161,-16.80014 c 0.334387,-0.46602 1.435939,-1.2922 2.322502,0.24984 1.397682,5.70382 2.69842,16.83223 2.01771,16.98326 l -2.119532,0.1353 c -0.288067,-0.0511 -0.57096,-0.19008 -0.591617,-1.63026 0.172953,-2.29239 -0.02964,-7.44623 -0.43628,-6.93129 l -4.322259,6.8623 c -0.929491,1.28359 -1.964936,2.12115 -3.475222,1.94433 -1.314027,-0.15957 -4.110774,-0.44325 -3.856463,-0.81334 z"
       id="path28165"
       sodipodi:nodetypes="cccccccccc" />
    <path
       style="font-variation-settings:normal;opacity:1;vector-effect:none;fill:#000000;fill-opacity:1;stroke:none;stroke-width:0.264583px;stroke-linecap:butt;stroke-linejoin:miter;stroke-miterlimit:4;stroke-dasharray:none;stroke-dashoffset:0;stroke-opacity:1;stop-color:#000000;stop-opacity:1"
       d="m 107.94458,255.11586 11.35911,-17.11724 c 0.63422,-0.94323 2.18541,-1.44337 2.65474,0.41209 l 2.4558,16.21815 c 0.14286,0.72495 -3.72593,1.08048 -3.69428,0.74142 l -0.0459,-10.00142 -5.41783,8.82865 c -0.5722,0.94391 -1.36438,1.73199 -3.63063,1.47589 -1.37959,0.004 -3.66771,-0.19207 -3.68101,-0.55754 z"
       id="path30236"
       sodipodi:nodetypes="ccccccccc" />
    <path
       style="font-variation-settings:normal;opacity:1;vector-effect:none;fill:#000000;fill-opacity:1;stroke:none;stroke-width:0.264583px;stroke-linecap:butt;stroke-linejoin:miter;stroke-miterlimit:4;stroke-dasharray:none;stroke-dashoffset:0;stroke-opacity:1;stop-color:#000000;stop-opacity:1"
       d="m 104.25192,238.39535 -6.897184,12.49359 c -2.650675,4.5062 -0.697232,4.22757 0.845245,4.37603 l 6.584069,-0.0479 c 3.53799,0.4035 4.37589,-2.94556 3.65275,-3.21415 l -5.55494,-0.36931 c -0.38954,-0.0458 1.0505,-2.60679 1.67762,-3.87991 3.80268,-0.9719 7.46754,-3.34975 7.55351,-4.89522 -1.2779,-0.22495 -3.5801,0.23124 -3.79934,-0.69769 l 1.69514,-4.28204 c 0.0245,-0.42948 -4.22052,-1.84999 -5.75687,0.5166 z"
       id="path32031"
       sodipodi:nodetypes="ccccccccccc" />
    <path
       style="font-variation-settings:normal;opacity:1;vector-effect:none;fill:#000000;fill-opacity:1;stroke:none;stroke-width:0.264583px;stroke-linecap:butt;stroke-linejoin:miter;stroke-miterlimit:4;stroke-dasharray:none;stroke-dashoffset:0;stroke-opacity:1;stop-color:#000000;stop-opacity:1"
       d="m 133.0006,252.42954 c 2.55468,-3.85849 7.27002,-13.38975 13.03339,-15.51492 l 1.99951,0.13634 -8.1775,15.88036 c -1.1264,3.64906 -3.96222,2.26729 -6.31473,2.3079 -1.94466,-0.0179 -1.63339,-1.14373 -0.54067,-2.80968 z"
       id="path33766"
       sodipodi:nodetypes="cccccc" />
    <path
       style="font-variation-settings:normal;opacity:1;vector-effect:none;fill:#000000;fill-opacity:1;stroke:none;stroke-width:0.264583px;stroke-linecap:butt;stroke-linejoin:miter;stroke-miterlimit:4;stroke-dasharray:none;stroke-dashoffset:0;stroke-opacity:1;stop-color:#000000;stop-opacity:1"
       d="m 151.21064,237.66773 c -1.43628,0.11541 -7.21099,7.23553 -4.48974,10.91787 1.14235,1.1869 2.66088,1.77374 4.15392,2.24378 0.57793,0.34078 -1.59656,1.98949 -3.11701,2.08026 -0.82509,0.18506 0.39913,2.7046 1.53073,2.65341 3.16965,-0.79809 7.18159,-1.75186 9.35032,-10.18139 0.75328,-6.74191 -0.20075,-8.80689 -7.42822,-7.71393 z"
       id="path34457"
       sodipodi:nodetypes="ccccccc" />
    <path
       style="font-variation-settings:normal;opacity:1;vector-effect:none;fill:#9c6842;fill-opacity:1;stroke:none;stroke-width:0.264583px;stroke-linecap:butt;stroke-linejoin:miter;stroke-miterlimit:4;stroke-dasharray:none;stroke-dashoffset:0;stroke-opacity:1;stop-color:#000000;stop-opacity:1"
       d="m 154.07016,240.33454 -3.63935,7.30711 c -0.19922,0.57514 1.8506,0.46207 3.23693,-1.69956 0.58177,-0.77664 0.90591,-6.14027 0.40242,-5.60755 z"
       id="path36710"
       sodipodi:nodetypes="cccc" />
    <path
       style="font-variation-settings:normal;opacity:1;vector-effect:none;fill:#000000;fill-opacity:1;stroke:none;stroke-width:0.264583px;stroke-linecap:butt;stroke-linejoin:miter;stroke-miterlimit:4;stroke-dasharray:none;stroke-dashoffset:0;stroke-opacity:1;stop-color:#000000;stop-opacity:1"
       d="m 161.54724,241.65087 2.24477,-3.15027 c 0.76293,-1.26939 1.74437,-1.14047 2.94045,-1.09308 l 4.86624,0.41427 c 1.88754,0.32407 0.89794,0.931 0.62553,1.46742 l -5.68605,4.30816 c 4.91186,2.00634 3.3308,6.43388 3.19611,6.72584 -1.1672,2.20072 -1.97641,4.62288 -6.03656,5.03419 -2.82602,0.4976 -5.28856,0.0232 -6.80994,-2.96782 l 1.81572,-2.17646 c 3.23289,2.91297 5.9213,1.58508 7.52921,-3.0649 -6e-4,-0.93656 -2.29885,-1.63026 -4.51267,0.22862 -1.53987,-1.35988 -0.70145,-2.36561 0.008,-2.89818 l 2.73935,-1.90526 c 0.28041,-0.11007 -2.9624,-0.73581 -2.92016,-0.92253 z"
       id="path45451"
       sodipodi:nodetypes="ccccccccccccccc" />
    <path
       style="font-variation-settings:normal;opacity:1;vector-effect:none;fill:#000000;fill-opacity:1;stroke:none;stroke-width:0.264583px;stroke-linecap:butt;stroke-linejoin:miter;stroke-miterlimit:4;stroke-dasharray:none;stroke-dashoffset:0;stroke-opacity:1;stop-color:#000000;stop-opacity:1"
       d="m 172.88147,244.03364 2.50347,-4.96155 c 0.60535,-1.05449 1.43142,-1.24813 2.82281,-1.26154 l 5.78146,-0.0754 -1.91266,3.18391 c -0.90411,1.47136 -2.26545,1.3996 -3.6661,1.19514 -1.70884,-0.44517 -2.64507,0.20928 -2.83783,1.92187 5.20126,-0.89574 6.75608,2.75897 6.85523,3.31487 0.62853,4.40887 -1.17726,5.22113 -2.67476,6.48889 -1.87681,2.35712 -4.22556,1.48039 -6.48167,1.2385 l -3.80845,-2.35792 1.62303,-2.30646 c 1.77958,1.14607 3.61792,2.83062 5.02488,0.56176 0.61726,-1.49268 1.87244,-2.7532 1.16911,-4.72647 -1.82456,-0.0147 -3.17007,0.9934 -4.68517,1.63943 -2.32002,-0.95059 -1.39339,-2.35066 0.28665,-3.85503 z"
       id="path48812"
       sodipodi:nodetypes="cccccccccccccccc" />
  </g>
  <g
     inkscape:groupmode="layer"
     id="layer3"
     inkscape:label="Warstwa 3"
     transform="translate(-33.617683,-128.4192)"
     style="display:inline">
    <path
       style="font-variation-settings:normal;display:inline;vector-effect:none;fill:#a46f48;fill-opacity:1;stroke:none;stroke-width:0.264583px;stroke-linecap:butt;stroke-linejoin:miter;stroke-miterlimit:4;stroke-dasharray:none;stroke-dashoffset:0;stroke-opacity:1;stop-color:#000000"
       d="m 83.975477,179.5142 -0.01206,3.83864 1.930706,0.003 c 1.809936,-2.39175 0.228295,-3.35449 -1.918646,-3.84195 z"
       id="path16447"
       sodipodi:nodetypes="cccc" />
  </g>
</svg>
