<?xml version="1.0" encoding="UTF-8" standalone="no"?>
<!-- Created with Inkscape (http://www.inkscape.org/) -->

<svg
   width="57.207088mm"
   height="57.207088mm"
   viewBox="0 0 57.207089 57.207088"
   version="1.1"
   id="svg5"
   inkscape:version="1.2-dev (8a200a5ffd, 2021-09-02, custom)"
   sodipodi:docname="szampon.svg"
   xmlns:inkscape="http://www.inkscape.org/namespaces/inkscape"
   xmlns:sodipodi="http://sodipodi.sourceforge.net/DTD/sodipodi-0.dtd"
   xmlns="http://www.w3.org/2000/svg"
   xmlns:svg="http://www.w3.org/2000/svg">
  <sodipodi:namedview
     id="namedview7"
     pagecolor="#505050"
     bordercolor="#eeeeee"
     borderopacity="1"
     inkscape:pageshadow="0"
     inkscape:pageopacity="0"
     inkscape:pagecheckerboard="0"
     inkscape:document-units="mm"
     showgrid="false"
     inkscape:zoom="2.7295735"
     inkscape:cx="204.42754"
     inkscape:cy="126.21019"
     inkscape:window-width="1920"
     inkscape:window-height="1080"
     inkscape:window-x="0"
     inkscape:window-y="0"
     inkscape:window-maximized="1"
     inkscape:current-layer="layer2"
     showguides="false"
     fit-margin-top="5"
     lock-margins="true"
     fit-margin-left="5"
     fit-margin-right="5"
     fit-margin-bottom="5"
     height="57.20709mm" />
  <defs
     id="defs2" />
  <g
     inkscape:groupmode="layer"
     id="layer2"
     inkscape:label="Warstwa 2"
     style="display:inline"
     transform="translate(-31.372463,-202.48035)">
    <path
       style="fill:none;stroke:#000000;stroke-width:0.6;stroke-linecap:butt;stroke-linejoin:miter;stroke-miterlimit:4;stroke-dasharray:none;stroke-opacity:1"
       d="m 51.489618,252.93333 0.150508,-22.61548 c 0.09872,-2.25883 1.31727,-4.14947 2.724322,-5.97813 0.656714,-0.81857 1.491672,-1.36537 2.301049,-1.93391 l -0.0123,-0.51135 c 0.430424,-0.41455 6.34395,-0.43682 7.146851,0.14152 -0.217515,0.25535 -0.04202,0.42724 0.110966,0.6039 4.029566,3.06765 4.491854,5.61672 4.692568,8.12777 l -0.152781,21.93055 c -0.154562,0.80346 -0.926271,1.05562 -1.81956,1.19917 -3.317667,0.44641 -6.708302,0.68018 -10.31049,0.2975 -2.727817,-0.12823 -4.446447,-0.52043 -4.831133,-1.26154 z"
       id="path900"
       sodipodi:nodetypes="cccccccccccc" />
    <path
       style="fill:none;stroke:#000000;stroke-width:0.6;stroke-linecap:butt;stroke-linejoin:miter;stroke-miterlimit:4;stroke-dasharray:none;stroke-opacity:1"
       d="m 56.657156,222.05012 c -0.03459,0.17426 -0.316469,0.2461 -0.504818,0.0429 l 0.0986,-4.45432 c 0.02684,-0.69038 0.592695,-0.85802 1.321099,-0.86802 l 5.14741,0.0297 c 0.655745,-0.004 1.250008,0.037 1.293344,0.48418 l 0.06058,4.71446 c -0.0065,0.27334 -0.139398,0.18121 -0.262918,0.0438"
       id="path3243"
       sodipodi:nodetypes="cccccccc" />
    <path
       style="fill:none;stroke:#000000;stroke-width:0.6;stroke-linecap:butt;stroke-linejoin:miter;stroke-miterlimit:4;stroke-dasharray:none;stroke-opacity:1"
       d="m 57.59437,216.73818 c 0.02592,-0.41989 -0.12448,-0.92116 0.550775,-1.04138 1.369114,-0.16794 2.758134,-0.22953 4.202576,0.005 0.48806,0.008 0.401016,0.58154 0.381696,1.0887"
       id="path10911"
       sodipodi:nodetypes="cccc" />
    <path
       style="fill:none;stroke:#000000;stroke-width:0.6;stroke-linecap:butt;stroke-linejoin:miter;stroke-miterlimit:4;stroke-dasharray:none;stroke-opacity:1"
       d="m 59.060747,215.62195 0.05393,-2.22877 c 0.661952,-0.15698 1.349317,-0.0944 2.045206,0.0418 l -0.01953,2.16046"
       id="path11722"
       sodipodi:nodetypes="cccc" />
    <path
       style="fill:none;stroke:#000000;stroke-width:0.6;stroke-linecap:butt;stroke-linejoin:miter;stroke-miterlimit:4;stroke-dasharray:none;stroke-opacity:1"
       d="m 59.114677,213.39318 -0.146802,-1.13068 c -0.242851,-0.21199 -0.09369,-0.39419 -0.0585,-0.58506 -0.140856,-0.41991 -0.325811,-0.50033 -0.346618,-0.94172 l -0.0339,-0.78672 c -1.864439,-0.013 -3.74628,-0.68522 -5.588563,0.14096 l -0.911789,-1.17675 c 0.791622,-0.55035 2.053212,-0.63481 3.270676,-0.76302 l 5.540269,-0.28468 1.475447,-0.0845 c 0.2591,-0.001 0.487243,0.0125 0.498464,0.38289 0.01861,0.5844 -0.318276,0.55413 -0.613526,0.60995 -0.403443,-0.0713 -0.622842,0.0648 -0.618644,0.47052 l -0.0013,1.84617 c -0.27752,0.12535 -0.288694,0.0864 -0.10196,0.30144 0.10165,0.12385 -0.07809,0.2242 -0.180723,0.30055 0.07904,0.0778 0.189912,0.0973 0.197442,0.30586 -0.0626,0.0862 -0.08692,0.19758 -0.229872,0.23104 l 0.05178,1.0895 -0.156556,0.11608"
       id="path12506"
       sodipodi:nodetypes="cccccccccccccccccccc" />
  </g>
</svg>
