<?xml version="1.0" encoding="UTF-8" standalone="no"?>
<!-- Created with Inkscape (http://www.inkscape.org/) -->

<svg
   width="196.57445mm"
   height="69.487801mm"
   viewBox="0 0 196.57445 69.487801"
   version="1.1"
   id="svg5"
   inkscape:version="1.2-dev (0853165845, 2021-06-13, custom)"
   sodipodi:docname="szlify.svg"
   xmlns:inkscape="http://www.inkscape.org/namespaces/inkscape"
   xmlns:sodipodi="http://sodipodi.sourceforge.net/DTD/sodipodi-0.dtd"
   xmlns="http://www.w3.org/2000/svg"
   xmlns:svg="http://www.w3.org/2000/svg">
  <sodipodi:namedview
     id="namedview7"
     pagecolor="#505050"
     bordercolor="#eeeeee"
     borderopacity="1"
     inkscape:pageshadow="0"
     inkscape:pageopacity="0"
     inkscape:pagecheckerboard="0"
     inkscape:document-units="mm"
     showgrid="false"
     inkscape:zoom="0.75277076"
     inkscape:cx="367.3097"
     inkscape:cy="37.860131"
     inkscape:window-width="1890"
     inkscape:window-height="1029"
     inkscape:window-x="0"
     inkscape:window-y="0"
     inkscape:window-maximized="1"
     inkscape:current-layer="layer2"
     showguides="true"
     inkscape:guide-bbox="true"
     fit-margin-top="5"
     lock-margins="true"
     fit-margin-left="5"
     fit-margin-right="5"
     fit-margin-bottom="5">
    <sodipodi:guide
       position="30.359186,184.85686"
       orientation="0,-1"
       id="guide18841" />
  </sodipodi:namedview>
  <defs
     id="defs2" />
  <g
     inkscape:groupmode="layer"
     id="layer2"
     inkscape:label="Warstwa 2"
     transform="translate(-7.728696,-138.54374)">
    <path
       style="fill:#000000;fill-opacity:1;stroke:#000000;stroke-width:0.264583px;stroke-linecap:butt;stroke-linejoin:miter;stroke-opacity:1"
       d="m 24.899723,143.94563 v 16.30226 c 4.701936,6.71966 1.146335,29.97399 4.210497,29.20887 1.732822,-0.051 -0.576088,-19.00079 3.633912,-29.84771 v -15.92847 z"
       id="path870"
       sodipodi:nodetypes="cccccc" />
    <path
       style="fill:#000000;fill-opacity:1;stroke:#000000;stroke-width:0.264583px;stroke-linecap:butt;stroke-linejoin:miter;stroke-opacity:1"
       d="m 59.276408,144.1015 v 19.13319 c 1.293738,8.8654 1.936451,27.00424 3.881215,26.5962 1.620653,0.28484 2.390664,-16.65351 3.585996,-24.98026 v -20.74071 z"
       id="path1477"
       sodipodi:nodetypes="cccccc" />
    <path
       style="fill:#000000;fill-opacity:1;stroke:#000000;stroke-width:0.264583px;stroke-linecap:butt;stroke-linejoin:miter;stroke-opacity:1"
       d="m 92.746964,143.70049 3.246398,45.08744 3.176354,-44.93751 z"
       id="path1688" />
    <path
       style="fill:#000000;fill-opacity:1;stroke:#000000;stroke-width:0.264583px;stroke-linecap:butt;stroke-linejoin:miter;stroke-opacity:1"
       d="m 123.79202,143.85408 c 0.43681,14.99316 0.52381,30.04173 3.73554,44.59532 3.39692,-14.73742 2.99794,-29.55133 3.78956,-44.34125 z"
       id="path1723"
       sodipodi:nodetypes="cccc" />
    <path
       style="fill:#000000;fill-opacity:1;stroke:#000000;stroke-width:0.264583px;stroke-linecap:butt;stroke-linejoin:miter;stroke-opacity:1"
       d="m 156.3171,143.90901 v 16.32171 l 3.78498,27.71626 3.63849,-27.92524 v -16.12898 z"
       id="path1958" />
    <path
       style="fill:#000000;fill-opacity:1;stroke:#000000;stroke-width:0.264583px;stroke-linecap:butt;stroke-linejoin:miter;stroke-opacity:1"
       d="m 186.30719,143.91611 v 8.43839 l 7.42256,37.15033 v -45.57499 z"
       id="path1993" />
    <g
       aria-label="Hollow Grind"
       id="text4836"
       style="font-size:4.93889px;line-height:1.25;letter-spacing:0px;stroke-width:0.264583">
      <path
         d="m 12.728696,193.57893 h 0.487137 v 1.47588 h 1.77009 v -1.47588 h 0.487137 v 3.60047 h -0.487137 v -1.71463 h -1.77009 v 1.71463 h -0.487137 z"
         id="path34839" />
      <path
         d="m 17.469837,194.78953 q -0.356912,0 -0.564306,0.27975 -0.207395,0.27733 -0.207395,0.76205 0,0.48473 0.204983,0.76447 0.207395,0.27733 0.566718,0.27733 0.354501,0 0.561896,-0.27974 0.207394,-0.27975 0.207394,-0.76206 0,-0.4799 -0.207394,-0.75964 -0.207395,-0.28216 -0.561896,-0.28216 z m 0,-0.3762 q 0.578777,0 0.909161,0.3762 0.330385,0.37621 0.330385,1.0418 0,0.66318 -0.330385,1.0418 -0.330384,0.3762 -0.909161,0.3762 -0.581187,0 -0.911572,-0.3762 -0.327973,-0.37862 -0.327973,-1.0418 0,-0.66559 0.327973,-1.0418 0.330385,-0.3762 0.911572,-0.3762 z"
         id="path34841" />
      <path
         d="m 19.444911,193.427 h 0.443729 v 3.7524 h -0.443729 z"
         id="path34843" />
      <path
         d="m 20.817093,193.427 h 0.443729 v 3.7524 h -0.443729 z"
         id="path34845" />
      <path
         d="m 23.235895,194.78953 q -0.356912,0 -0.564306,0.27975 -0.207395,0.27733 -0.207395,0.76205 0,0.48473 0.204983,0.76447 0.207395,0.27733 0.566718,0.27733 0.354501,0 0.561896,-0.27974 0.207394,-0.27975 0.207394,-0.76206 0,-0.4799 -0.207394,-0.75964 -0.207395,-0.28216 -0.561896,-0.28216 z m 0,-0.3762 q 0.578777,0 0.909161,0.3762 0.330385,0.37621 0.330385,1.0418 0,0.66318 -0.330385,1.0418 -0.330384,0.3762 -0.909161,0.3762 -0.581187,0 -0.911572,-0.3762 -0.327973,-0.37862 -0.327973,-1.0418 0,-0.66559 0.327973,-1.0418 0.330385,-0.3762 0.911572,-0.3762 z"
         id="path34847" />
      <path
         d="m 24.952932,194.47844 h 0.443728 l 0.55466,2.10771 0.552249,-2.10771 h 0.523311 l 0.55466,2.10771 0.552249,-2.10771 h 0.443728 l -0.706589,2.70096 h -0.52331 l -0.581188,-2.21382 -0.583599,2.21382 h -0.52331 z"
         id="path34849" />
      <path
         d="m 33.294542,196.66573 v -0.96703 h -0.795817 v -0.40032 h 1.27813 v 1.54581 q -0.282153,0.20016 -0.622184,0.30386 -0.340031,0.10128 -0.725882,0.10128 -0.844048,0 -1.321539,-0.49196 -0.475079,-0.49437 -0.475079,-1.37459 0,-0.88263 0.475079,-1.37459 0.477491,-0.49437 1.321539,-0.49437 0.352089,0 0.668004,0.0868 0.318327,0.0868 0.586011,0.25563 v 0.51848 q -0.270095,-0.22909 -0.573953,-0.34485 -0.303857,-0.11575 -0.639065,-0.11575 -0.66077,0 -0.993566,0.36897 -0.330385,0.36896 -0.330385,1.09967 0,0.72829 0.330385,1.09726 0.332796,0.36897 0.993566,0.36897 0.258038,0 0.460609,-0.0434 0.202572,-0.0458 0.364147,-0.13987 z"
         id="path34851" />
      <path
         d="m 36.212539,194.89323 q -0.07476,-0.0434 -0.163987,-0.0627 -0.08682,-0.0217 -0.192925,-0.0217 -0.376205,0 -0.578776,0.24598 -0.20016,0.24357 -0.20016,0.70176 v 1.42283 h -0.44614 v -2.70096 h 0.44614 v 0.41961 q 0.139871,-0.24598 0.364146,-0.36414 0.224276,-0.12058 0.545015,-0.12058 0.04582,0 0.101285,0.007 0.05547,0.005 0.12299,0.0169 z"
         id="path34853" />
      <path
         d="m 36.677972,194.47844 h 0.443729 v 2.70096 h -0.443729 z m 0,-1.05144 h 0.443729 v 0.56189 h -0.443729 z"
         id="path34855" />
      <path
         d="m 40.295322,195.54918 v 1.63022 h -0.443728 v -1.61575 q 0,-0.38344 -0.149517,-0.57396 -0.149517,-0.19051 -0.448552,-0.19051 -0.359323,0 -0.566718,0.2291 -0.207395,0.2291 -0.207395,0.6246 v 1.52652 h -0.44614 v -2.70096 h 0.44614 v 0.41961 q 0.159164,-0.24356 0.373793,-0.36414 0.217041,-0.12058 0.499194,-0.12058 0.465433,0 0.704178,0.28939 0.238745,0.28697 0.238745,0.84646 z"
         id="path34857" />
      <path
         d="M 42.957693,194.88841 V 193.427 h 0.443728 v 3.7524 h -0.443728 v -0.40515 q -0.139871,0.24116 -0.3545,0.35933 -0.212218,0.11575 -0.511253,0.11575 -0.489548,0 -0.798229,-0.39067 -0.306269,-0.39067 -0.306269,-1.02733 0,-0.63665 0.306269,-1.02733 0.308681,-0.39067 0.798229,-0.39067 0.299035,0 0.511253,0.11817 0.214629,0.11575 0.3545,0.35691 z m -1.512053,0.94292 q 0,0.48955 0.20016,0.76929 0.202572,0.27733 0.554661,0.27733 0.352089,0 0.55466,-0.27733 0.202572,-0.27974 0.202572,-0.76929 0,-0.48955 -0.202572,-0.76688 -0.202571,-0.27974 -0.55466,-0.27974 -0.352089,0 -0.554661,0.27974 -0.20016,0.27733 -0.20016,0.76688 z"
         id="path34859" />
    </g>
    <g
       aria-label="Flat Grind"
       id="text4836-3"
       style="font-size:4.93889px;line-height:1.25;letter-spacing:0px;stroke-width:0.264583">
      <path
         d="m 51.162696,193.71949 h 2.069125 v 0.40997 h -1.581988 v 1.06109 h 1.427647 v 0.40996 h -1.427647 v 1.71945 h -0.487137 z"
         id="path34820" />
      <path
         d="m 53.98423,193.56756 h 0.443728 v 3.7524 H 53.98423 Z"
         id="path34822" />
      <path
         d="m 56.583899,195.96225 q -0.537779,0 -0.745174,0.12299 -0.207395,0.12299 -0.207395,0.41961 0,0.23634 0.15434,0.37621 0.156752,0.13746 0.424436,0.13746 0.36897,0 0.590834,-0.26045 0.224276,-0.26286 0.224276,-0.69695 v -0.0989 z m 0.885045,-0.18328 v 1.54099 H 57.025216 V 196.91 q -0.151929,0.24597 -0.378616,0.36414 -0.226687,0.11576 -0.554661,0.11576 -0.414789,0 -0.660769,-0.23151 -0.243568,-0.23393 -0.243568,-0.6246 0,-0.45579 0.303857,-0.6873 0.306269,-0.23151 0.911573,-0.23151 h 0.622184 v -0.0434 q 0,-0.30627 -0.202572,-0.47267 -0.20016,-0.16881 -0.564306,-0.16881 -0.231511,0 -0.450964,0.0555 -0.219452,0.0555 -0.422024,0.1664 v -0.41 q 0.243568,-0.0941 0.472667,-0.13987 0.229099,-0.0482 0.44614,-0.0482 0.586011,0 0.875399,0.30386 0.289388,0.30386 0.289388,0.92122 z"
         id="path34824" />
      <path
         d="m 58.821834,193.85213 v 0.76688 h 0.913984 v 0.34485 h -0.913984 v 1.46623 q 0,0.33039 0.08923,0.42444 0.09164,0.094 0.36897,0.094 h 0.455786 v 0.37138 h -0.455786 q -0.513664,0 -0.709001,-0.19051 -0.195337,-0.19293 -0.195337,-0.69936 v -1.46623 h -0.325562 v -0.34485 h 0.325562 v -0.76688 z"
         id="path34826" />
      <path
         d="m 64.363616,196.8063 v -0.96704 h -0.795818 v -0.40032 h 1.278131 v 1.54581 q -0.282153,0.20016 -0.622184,0.30386 -0.340031,0.10129 -0.725882,0.10129 -0.844049,0 -1.321539,-0.49196 -0.475079,-0.49437 -0.475079,-1.3746 0,-0.88263 0.475079,-1.37459 0.47749,-0.49437 1.321539,-0.49437 0.352089,0 0.668004,0.0868 0.318327,0.0868 0.586011,0.25562 v 0.51849 q -0.270096,-0.2291 -0.573953,-0.34486 -0.303858,-0.11575 -0.639066,-0.11575 -0.660769,0 -0.993565,0.36897 -0.330385,0.36897 -0.330385,1.09967 0,0.7283 0.330385,1.09727 0.332796,0.36897 0.993565,0.36897 0.258038,0 0.46061,-0.0434 0.202572,-0.0458 0.364147,-0.13987 z"
         id="path34828" />
      <path
         d="m 67.281613,195.0338 q -0.07476,-0.0434 -0.163987,-0.0627 -0.08682,-0.0217 -0.192925,-0.0217 -0.376205,0 -0.578777,0.24598 -0.20016,0.24357 -0.20016,0.70177 v 1.42282 h -0.44614 v -2.70095 h 0.44614 v 0.41961 q 0.139871,-0.24598 0.364147,-0.36415 0.224276,-0.12058 0.545014,-0.12058 0.04582,0 0.101286,0.007 0.05547,0.005 0.12299,0.0169 z"
         id="path34830" />
      <path
         d="m 67.747045,194.61901 h 0.443728 v 2.70095 h -0.443728 z m 0,-1.05145 h 0.443728 v 0.5619 h -0.443728 z"
         id="path34832" />
      <path
         d="m 71.364395,195.68974 v 1.63022 h -0.443728 v -1.61575 q 0,-0.38344 -0.149518,-0.57395 -0.149517,-0.19052 -0.448551,-0.19052 -0.359324,0 -0.566718,0.2291 -0.207395,0.2291 -0.207395,0.6246 v 1.52652 h -0.44614 v -2.70095 h 0.44614 v 0.41961 q 0.159163,-0.24357 0.373793,-0.36415 0.217041,-0.12058 0.499194,-0.12058 0.465433,0 0.704178,0.28939 0.238745,0.28698 0.238745,0.84646 z"
         id="path34834" />
      <path
         d="m 74.026766,195.02897 v -1.46141 h 0.443728 v 3.7524 h -0.443728 v -0.40514 q -0.139871,0.24115 -0.354501,0.35932 -0.212218,0.11576 -0.511252,0.11576 -0.489548,0 -0.798229,-0.39068 -0.306269,-0.39067 -0.306269,-1.02732 0,-0.63666 0.306269,-1.02733 0.308681,-0.39068 0.798229,-0.39068 0.299034,0 0.511252,0.11817 0.21463,0.11576 0.354501,0.35691 z m -1.512053,0.94293 q 0,0.48954 0.20016,0.76929 0.202572,0.27733 0.554661,0.27733 0.352088,0 0.55466,-0.27733 0.202572,-0.27975 0.202572,-0.76929 0,-0.48955 -0.202572,-0.76688 -0.202572,-0.27974 -0.55466,-0.27974 -0.352089,0 -0.554661,0.27974 -0.20016,0.27733 -0.20016,0.76688 z"
         id="path34836" />
    </g>
    <g
       aria-label="Full Flat
 Grind"
       id="text4836-3-7"
       style="font-size:4.93889px;line-height:1.25;letter-spacing:0px;stroke-width:0.264583">
      <path
         d="m 87.016143,193.18752 h 2.069125 v 0.40997 h -1.581989 v 1.06109 h 1.427648 v 0.40997 h -1.427648 v 1.71944 h -0.487136 z"
         id="path34793" />
      <path
         d="m 89.521761,195.72208 v -1.63504 h 0.443729 v 1.61816 q 0,0.38344 0.149517,0.57637 0.149517,0.19051 0.448552,0.19051 0.359323,0 0.566718,-0.2291 0.209806,-0.2291 0.209806,-0.6246 v -1.53134 h 0.443729 v 2.70095 h -0.443729 v -0.41479 q -0.161575,0.24598 -0.376204,0.36656 -0.212218,0.11817 -0.494372,0.11817 -0.465432,0 -0.706589,-0.28939 -0.241157,-0.28939 -0.241157,-0.84646 z m 1.116556,-1.70015 z"
         id="path34795" />
      <path
         d="m 92.697796,193.0356 h 0.443728 v 3.75239 h -0.443728 z"
         id="path34797" />
      <path
         d="m 94.069978,193.0356 h 0.443728 v 3.75239 h -0.443728 z"
         id="path34799" />
      <path
         d="m 97.031383,193.18752 h 2.069124 v 0.40997 h -1.581988 v 1.06109 h 1.427648 v 0.40997 h -1.427648 v 1.71944 h -0.487136 z"
         id="path34801" />
      <path
         d="m 99.852916,193.0356 h 0.443724 v 3.75239 h -0.443724 z"
         id="path34803" />
      <path
         d="m 102.45259,195.43028 q -0.53778,0 -0.74518,0.12299 -0.20739,0.12299 -0.20739,0.41961 0,0.23634 0.15434,0.37621 0.15675,0.13746 0.42443,0.13746 0.36897,0 0.59084,-0.26045 0.22427,-0.26286 0.22427,-0.69694 v -0.0989 z m 0.88504,-0.18328 v 1.54099 h -0.44373 v -0.40996 q -0.15193,0.24598 -0.37861,0.36414 -0.22669,0.11576 -0.55466,0.11576 -0.41479,0 -0.66077,-0.23151 -0.24357,-0.23392 -0.24357,-0.6246 0,-0.45578 0.30386,-0.68729 0.30626,-0.23151 0.91157,-0.23151 h 0.62218 v -0.0434 q 0,-0.30627 -0.20257,-0.47267 -0.20016,-0.16881 -0.56431,-0.16881 -0.23151,0 -0.45096,0.0555 -0.21945,0.0555 -0.42202,0.1664 v -0.40997 q 0.24357,-0.094 0.47266,-0.13987 0.2291,-0.0482 0.44614,-0.0482 0.58601,0 0.8754,0.30385 0.28939,0.30386 0.28939,0.92122 z"
         id="path34805" />
      <path
         d="m 104.69052,193.32016 v 0.76688 h 0.91398 v 0.34485 h -0.91398 v 1.46624 q 0,0.33038 0.0892,0.42443 0.0916,0.094 0.36897,0.094 h 0.45578 v 0.37138 h -0.45578 q -0.51367,0 -0.709,-0.19051 -0.19534,-0.19292 -0.19534,-0.69935 v -1.46624 h -0.32556 v -0.34485 h 0.32556 v -0.76688 z"
         id="path34807" />
      <path
         d="m 91.041049,202.44794 v -0.96704 h -0.795817 v -0.40032 h 1.27813 v 1.54582 q -0.282153,0.20016 -0.622184,0.30386 -0.340031,0.10128 -0.725882,0.10128 -0.844048,0 -1.321539,-0.49196 -0.475079,-0.49437 -0.475079,-1.37459 0,-0.88263 0.475079,-1.37459 0.477491,-0.49438 1.321539,-0.49438 0.352089,0 0.668004,0.0868 0.318327,0.0868 0.586011,0.25563 v 0.51848 q -0.270095,-0.22909 -0.573953,-0.34485 -0.303857,-0.11576 -0.639065,-0.11576 -0.66077,0 -0.993566,0.36897 -0.330385,0.36897 -0.330385,1.09968 0,0.72829 0.330385,1.09726 0.332796,0.36897 0.993566,0.36897 0.258037,0 0.460609,-0.0434 0.202572,-0.0458 0.364147,-0.13987 z"
         id="path34809" />
      <path
         d="m 93.959046,200.67544 q -0.07476,-0.0434 -0.163987,-0.0627 -0.08682,-0.0217 -0.192925,-0.0217 -0.376205,0 -0.578777,0.24598 -0.20016,0.24356 -0.20016,0.70176 v 1.42283 h -0.44614 v -2.70096 h 0.44614 v 0.41961 q 0.139871,-0.24598 0.364147,-0.36414 0.224276,-0.12058 0.545014,-0.12058 0.04582,0 0.101286,0.007 0.05547,0.005 0.12299,0.0169 z"
         id="path34811" />
      <path
         d="m 94.424478,200.26065 h 0.443728 v 2.70096 h -0.443728 z m 0,-1.05144 h 0.443728 v 0.56189 h -0.443728 z"
         id="path34813" />
      <path
         d="m 98.041829,201.33139 v 1.63022 h -0.443728 v -1.61575 q 0,-0.38344 -0.149518,-0.57396 -0.149517,-0.19051 -0.448551,-0.19051 -0.359324,0 -0.566718,0.2291 -0.207395,0.2291 -0.207395,0.62459 v 1.52653 h -0.44614 v -2.70096 h 0.44614 v 0.41961 q 0.159163,-0.24356 0.373793,-0.36414 0.217041,-0.12058 0.499194,-0.12058 0.465433,0 0.704178,0.28939 0.238745,0.28697 0.238745,0.84646 z"
         id="path34815" />
      <path
         d="m 100.7042,200.67062 v -1.46141 h 0.44373 v 3.7524 h -0.44373 v -0.40515 q -0.13987,0.24116 -0.3545,0.35933 -0.21222,0.11575 -0.511253,0.11575 -0.489548,0 -0.798229,-0.39067 -0.306269,-0.39068 -0.306269,-1.02733 0,-0.63665 0.306269,-1.02733 0.308681,-0.39067 0.798229,-0.39067 0.299033,0 0.511253,0.11817 0.21463,0.11575 0.3545,0.35691 z m -1.512053,0.94292 q 0,0.48955 0.20016,0.76929 0.202572,0.27733 0.55466,0.27733 0.352093,0 0.554663,-0.27733 0.20257,-0.27974 0.20257,-0.76929 0,-0.48955 -0.20257,-0.76688 -0.20257,-0.27974 -0.554663,-0.27974 -0.352088,0 -0.55466,0.27974 -0.20016,0.27733 -0.20016,0.76688 z"
         id="path34817" />
    </g>
    <g
       aria-label="Convex"
       id="text4836-3-7-3"
       style="font-size:4.93889px;line-height:1.25;letter-spacing:0px;stroke-width:0.264583">
      <path
         d="m 121.6196,193.55923 v 0.51366 q -0.24598,-0.22909 -0.52572,-0.34244 -0.27733,-0.11334 -0.59083,-0.11334 -0.61737,0 -0.94534,0.37861 -0.32797,0.37621 -0.32797,1.09003 0,0.71141 0.32797,1.09003 0.32797,0.37621 0.94534,0.37621 0.3135,0 0.59083,-0.11335 0.27974,-0.11334 0.52572,-0.34244 v 0.50884 q -0.25563,0.17363 -0.5426,0.26045 -0.28457,0.0868 -0.60289,0.0868 -0.81752,0 -1.28778,-0.4992 -0.47026,-0.50161 -0.47026,-1.36736 0,-0.86816 0.47026,-1.36736 0.47026,-0.5016 1.28778,-0.5016 0.32315,0 0.60771,0.0868 0.28698,0.0844 0.53778,0.25563 z"
         id="path34780" />
      <path
         d="m 123.39934,194.49251 q -0.35691,0 -0.56431,0.27974 -0.20739,0.27733 -0.20739,0.76205 0,0.48473 0.20498,0.76447 0.20739,0.27733 0.56672,0.27733 0.3545,0 0.56189,-0.27974 0.2074,-0.27974 0.2074,-0.76206 0,-0.4799 -0.2074,-0.75964 -0.20739,-0.28215 -0.56189,-0.28215 z m 0,-0.37621 q 0.57877,0 0.90916,0.37621 0.33038,0.3762 0.33038,1.04179 0,0.66318 -0.33038,1.0418 -0.33039,0.37621 -0.90916,0.37621 -0.58119,0 -0.91157,-0.37621 -0.32798,-0.37862 -0.32798,-1.0418 0,-0.66559 0.32798,-1.04179 0.33038,-0.37621 0.91157,-0.37621 z"
         id="path34782" />
      <path
         d="m 127.61958,195.25215 v 1.63022 h -0.44373 v -1.61575 q 0,-0.38344 -0.14951,-0.57395 -0.14952,-0.19052 -0.44856,-0.19052 -0.35932,0 -0.56671,0.2291 -0.2074,0.2291 -0.2074,0.6246 v 1.52652 h -0.44614 v -2.70096 h 0.44614 v 0.41962 q 0.15916,-0.24357 0.37379,-0.36415 0.21704,-0.12058 0.4992,-0.12058 0.46543,0 0.70418,0.28939 0.23874,0.28698 0.23874,0.84646 z"
         id="path34784" />
      <path
         d="m 128.1863,194.18141 h 0.47025 l 0.84405,2.26688 0.84405,-2.26688 h 0.47026 l -1.01286,2.70096 h -0.60289 z"
         id="path34786" />
      <path
         d="m 133.73773,195.42096 v 0.21704 h -2.04019 q 0.0289,0.4582 0.27492,0.69936 0.24839,0.23874 0.68971,0.23874 0.25562,0 0.49437,-0.0627 0.24116,-0.0627 0.47749,-0.1881 v 0.41961 q -0.23875,0.10129 -0.48955,0.15434 -0.2508,0.0531 -0.50884,0.0531 -0.6463,0 -1.02492,-0.37621 -0.3762,-0.3762 -0.3762,-1.01768 0,-0.66318 0.35691,-1.05144 0.35933,-0.39068 0.96704,-0.39068 0.54502,0 0.86093,0.35209 0.31833,0.34968 0.31833,0.95257 z m -0.44373,-0.13022 q -0.005,-0.36415 -0.20498,-0.58119 -0.19775,-0.21704 -0.52573,-0.21704 -0.37138,0 -0.59565,0.2098 -0.22187,0.20981 -0.25563,0.59084 z"
         id="path34788" />
      <path
         d="m 136.62437,194.18141 -0.97668,1.31431 1.02733,1.38665 h -0.52331 l -0.78617,-1.06109 -0.78618,1.06109 h -0.52331 l 1.04904,-1.41318 -0.95981,-1.28778 h 0.52331 l 0.71624,0.96222 0.71623,-0.96222 z"
         id="path34790" />
    </g>
    <g
       aria-label="Zero Grind"
       id="text4836-3-7-3-2"
       style="font-size:4.93889px;line-height:1.25;letter-spacing:0px;stroke-width:0.264583">
      <path
         d="m 146.53627,193.45908 h 2.82877 v 0.37139 l -2.27652,2.81912 h 2.33199 v 0.40997 h -2.9397 v -0.37139 l 2.27652,-2.81912 h -2.22106 z"
         id="path34748" />
      <path
         d="m 152.41808,195.59815 v 0.21704 h -2.04018 q 0.0289,0.45819 0.27492,0.69935 0.24839,0.23875 0.68971,0.23875 0.25562,0 0.49437,-0.0627 0.24115,-0.0627 0.47749,-0.18811 v 0.41962 q -0.23875,0.10128 -0.48955,0.15434 -0.2508,0.0531 -0.50884,0.0531 -0.6463,0 -1.02492,-0.3762 -0.3762,-0.37621 -0.3762,-1.01769 0,-0.66318 0.35691,-1.05144 0.35932,-0.39067 0.96704,-0.39067 0.54501,0 0.86093,0.35209 0.31832,0.34967 0.31832,0.95257 z m -0.44372,-0.13023 q -0.005,-0.36415 -0.20499,-0.58119 -0.19775,-0.21704 -0.52572,-0.21704 -0.37138,0 -0.59566,0.20981 -0.22186,0.2098 -0.25562,0.59083 z"
         id="path34750" />
      <path
         d="m 154.71149,194.77339 q -0.0748,-0.0434 -0.16399,-0.0627 -0.0868,-0.0217 -0.19293,-0.0217 -0.3762,0 -0.57877,0.24598 -0.20016,0.24357 -0.20016,0.70177 v 1.42283 h -0.44614 v -2.70096 h 0.44614 v 0.41961 q 0.13987,-0.24598 0.36414,-0.36414 0.22428,-0.12058 0.54502,-0.12058 0.0458,0 0.10128,0.007 0.0555,0.005 0.12299,0.0169 z"
         id="path34752" />
      <path
         d="m 156.11502,194.66969 q -0.35691,0 -0.56431,0.27974 -0.20739,0.27733 -0.20739,0.76206 0,0.48472 0.20498,0.76447 0.20739,0.27733 0.56672,0.27733 0.3545,0 0.56189,-0.27975 0.2074,-0.27974 0.2074,-0.76205 0,-0.4799 -0.2074,-0.75964 -0.20739,-0.28216 -0.56189,-0.28216 z m 0,-0.3762 q 0.57877,0 0.90916,0.3762 0.33038,0.37621 0.33038,1.0418 0,0.66318 -0.33038,1.0418 -0.33039,0.3762 -0.90916,0.3762 -0.58119,0 -0.91158,-0.3762 -0.32797,-0.37862 -0.32797,-1.0418 0,-0.66559 0.32797,-1.0418 0.33039,-0.3762 0.91158,-0.3762 z"
         id="path34754" />
      <path
         d="m 162.13429,196.54589 v -0.96704 h -0.79582 v -0.40032 h 1.27813 v 1.54582 q -0.28215,0.20016 -0.62218,0.30385 -0.34003,0.10129 -0.72588,0.10129 -0.84405,0 -1.32154,-0.49196 -0.47508,-0.49437 -0.47508,-1.37459 0,-0.88264 0.47508,-1.3746 0.47749,-0.49437 1.32154,-0.49437 0.35209,0 0.668,0.0868 0.31833,0.0868 0.58601,0.25563 v 0.51848 q -0.27009,-0.2291 -0.57395,-0.34485 -0.30386,-0.11576 -0.63907,-0.11576 -0.66077,0 -0.99356,0.36897 -0.33039,0.36897 -0.33039,1.09968 0,0.72829 0.33039,1.09726 0.33279,0.36897 0.99356,0.36897 0.25804,0 0.46061,-0.0434 0.20258,-0.0458 0.36415,-0.13987 z"
         id="path34756" />
      <path
         d="m 165.05229,194.77339 q -0.0748,-0.0434 -0.16399,-0.0627 -0.0868,-0.0217 -0.19292,-0.0217 -0.37621,0 -0.57878,0.24598 -0.20016,0.24357 -0.20016,0.70177 v 1.42283 h -0.44614 v -2.70096 h 0.44614 v 0.41961 q 0.13987,-0.24598 0.36415,-0.36414 0.22427,-0.12058 0.54501,-0.12058 0.0458,0 0.10129,0.007 0.0555,0.005 0.12299,0.0169 z"
         id="path34758" />
      <path
         d="m 165.51772,194.3586 h 0.44373 v 2.70096 h -0.44373 z m 0,-1.05144 h 0.44373 v 0.56189 h -0.44373 z"
         id="path34760" />
      <path
         d="m 169.13507,195.42934 v 1.63022 h -0.44373 v -1.61576 q 0,-0.38343 -0.14951,-0.57395 -0.14952,-0.19051 -0.44856,-0.19051 -0.35932,0 -0.56671,0.2291 -0.2074,0.2291 -0.2074,0.62459 v 1.52653 h -0.44614 v -2.70096 h 0.44614 v 0.41961 q 0.15916,-0.24357 0.37379,-0.36414 0.21704,-0.12058 0.4992,-0.12058 0.46543,0 0.70418,0.28939 0.23874,0.28697 0.23874,0.84646 z"
         id="path34762" />
      <path
         d="m 171.79744,194.76857 v -1.46141 h 0.44373 v 3.7524 h -0.44373 v -0.40515 q -0.13987,0.24116 -0.3545,0.35933 -0.21222,0.11575 -0.51125,0.11575 -0.48955,0 -0.79823,-0.39067 -0.30627,-0.39068 -0.30627,-1.02733 0,-0.63665 0.30627,-1.02733 0.30868,-0.39067 0.79823,-0.39067 0.29903,0 0.51125,0.11816 0.21463,0.11576 0.3545,0.35692 z m -1.51205,0.94292 q 0,0.48955 0.20016,0.76929 0.20257,0.27733 0.55466,0.27733 0.35209,0 0.55466,-0.27733 0.20257,-0.27974 0.20257,-0.76929 0,-0.48955 -0.20257,-0.76688 -0.20257,-0.27974 -0.55466,-0.27974 -0.35209,0 -0.55466,0.27974 -0.20016,0.27733 -0.20016,0.76688 z"
         id="path34764" />
    </g>
    <g
       aria-label="Chisel"
       id="text4836-3-7-3-2-7"
       style="font-size:4.93889px;line-height:1.25;letter-spacing:0px;stroke-width:0.264583">
      <path
         d="m 188.01219,193.89747 v 0.51367 q -0.24598,-0.2291 -0.52572,-0.34245 -0.27734,-0.11334 -0.59084,-0.11334 -0.61736,0 -0.94533,0.37862 -0.32798,0.3762 -0.32798,1.09002 0,0.71142 0.32798,1.09003 0.32797,0.37621 0.94533,0.37621 0.3135,0 0.59084,-0.11335 0.27974,-0.11334 0.52572,-0.34244 v 0.50884 q -0.25563,0.17363 -0.54261,0.26045 -0.28456,0.0868 -0.60289,0.0868 -0.81752,0 -1.28777,-0.4992 -0.47026,-0.5016 -0.47026,-1.36736 0,-0.86816 0.47026,-1.36735 0.47025,-0.50161 1.28777,-0.50161 0.32315,0 0.60772,0.0868 0.28697,0.0844 0.53778,0.25562 z"
         id="path34767" />
      <path
         d="m 190.99047,195.59039 v 1.63022 h -0.44373 v -1.61575 q 0,-0.38344 -0.14951,-0.57395 -0.14952,-0.19052 -0.44855,-0.19052 -0.35933,0 -0.56672,0.2291 -0.2074,0.2291 -0.2074,0.6246 v 1.52652 h -0.44614 v -3.7524 h 0.44614 v 1.47106 q 0.15917,-0.24357 0.3738,-0.36415 0.21704,-0.12058 0.49919,-0.12058 0.46543,0 0.70418,0.28939 0.23874,0.28698 0.23874,0.84646 z"
         id="path34769" />
      <path
         d="m 191.87552,194.51966 h 0.44373 v 2.70095 h -0.44373 z m 0,-1.05145 h 0.44373 v 0.5619 h -0.44373 z"
         id="path34771" />
      <path
         d="m 194.96956,194.59924 v 0.41961 q -0.1881,-0.0965 -0.39068,-0.14469 -0.20257,-0.0482 -0.41961,-0.0482 -0.33038,0 -0.49678,0.10128 -0.16399,0.10129 -0.16399,0.30386 0,0.15434 0.11817,0.24357 0.11817,0.0868 0.47508,0.16639 l 0.15193,0.0338 q 0.47266,0.10128 0.67041,0.28697 0.20016,0.18328 0.20016,0.51367 0,0.3762 -0.29903,0.59565 -0.29662,0.21946 -0.81752,0.21946 -0.21704,0 -0.45338,-0.0434 -0.23392,-0.041 -0.49437,-0.1254 v -0.4582 q 0.24598,0.12781 0.48473,0.19292 0.23874,0.0627 0.47266,0.0627 0.31351,0 0.48232,-0.10611 0.16881,-0.10852 0.16881,-0.30386 0,-0.18087 -0.12299,-0.27733 -0.12058,-0.0965 -0.53296,-0.18569 l -0.15434,-0.0362 q -0.41238,-0.0868 -0.59566,-0.26527 -0.18328,-0.18087 -0.18328,-0.49437 0,-0.38103 0.2701,-0.58842 0.27009,-0.2074 0.76688,-0.2074 0.24598,0 0.46302,0.0362 0.21704,0.0362 0.40032,0.10852 z"
         id="path34773" />
      <path
         d="m 198.13112,195.7592 v 0.21704 h -2.04018 q 0.0289,0.4582 0.27492,0.69936 0.24839,0.23874 0.6897,0.23874 0.25563,0 0.49438,-0.0627 0.24115,-0.0627 0.47749,-0.1881 v 0.41961 q -0.23875,0.10129 -0.48955,0.15434 -0.2508,0.0531 -0.50884,0.0531 -0.6463,0 -1.02492,-0.37621 -0.3762,-0.3762 -0.3762,-1.01768 0,-0.66318 0.35691,-1.05144 0.35932,-0.39068 0.96704,-0.39068 0.54501,0 0.86093,0.35209 0.31832,0.34968 0.31832,0.95257 z m -0.44372,-0.13022 q -0.005,-0.36415 -0.20499,-0.58119 -0.19775,-0.21704 -0.52572,-0.21704 -0.37138,0 -0.59566,0.2098 -0.22186,0.20981 -0.25562,0.59084 z"
         id="path34775" />
      <path
         d="m 198.85942,193.46821 h 0.44372 v 3.7524 h -0.44372 z"
         id="path34777" />
    </g>
  </g>
</svg>
