<?xml version="1.0" encoding="UTF-8" standalone="no"?>
<!-- Created with Inkscape (http://www.inkscape.org/) -->

<svg
   width="207.45879mm"
   height="207.45879mm"
   viewBox="0 0 207.45879 207.45879"
   version="1.1"
   id="svg5"
   inkscape:version="1.2-dev (fd8ac3146e, 2021-05-04, custom)"
   sodipodi:docname="tellonym.svg"
   xmlns:inkscape="http://www.inkscape.org/namespaces/inkscape"
   xmlns:sodipodi="http://sodipodi.sourceforge.net/DTD/sodipodi-0.dtd"
   xmlns="http://www.w3.org/2000/svg"
   xmlns:svg="http://www.w3.org/2000/svg">
  <sodipodi:namedview
     id="namedview7"
     pagecolor="#505050"
     bordercolor="#eeeeee"
     borderopacity="1"
     objecttolerance="10.0"
     gridtolerance="10.0"
     guidetolerance="10.0"
     inkscape:pageshadow="0"
     inkscape:pageopacity="0"
     inkscape:pagecheckerboard="0"
     inkscape:document-units="mm"
     showgrid="false"
     inkscape:zoom="0.8315052"
     inkscape:cx="315.09123"
     inkscape:cy="464.8197"
     inkscape:window-width="1131"
     inkscape:window-height="1049"
     inkscape:window-x="0"
     inkscape:window-y="0"
     inkscape:window-maximized="1"
     inkscape:current-layer="layer3"
     fit-margin-top="0"
     fit-margin-left="0"
     fit-margin-right="0"
     fit-margin-bottom="0" />
  <defs
     id="defs2" />
  <g
     inkscape:groupmode="layer"
     id="layer3"
     inkscape:label="Warstwa 3"
     transform="translate(-1.720897,-18.260162)"
     style="display:none">
    <rect
       style="fill:#ffffff;fill-opacity:1;stroke:none;stroke-width:0.264999;stroke-miterlimit:4;stroke-dasharray:none;stroke-dashoffset:6.93921;stroke-opacity:1"
       id="rect89865"
       width="207.45879"
       height="207.45879"
       x="1.720897"
       y="18.260162" />
  </g>
  <g
     inkscape:groupmode="layer"
     id="layer2"
     inkscape:label="Warstwa 2"
     transform="translate(-1.720897,-18.260162)">
    <path
       style="fill:#fd1376;fill-opacity:1;stroke:none;stroke-width:0.264583px;stroke-linecap:butt;stroke-linejoin:miter;stroke-opacity:1"
       d="m 33.220089,207.71121 c 10.075818,-14.98335 21.327066,-26.90724 35.801735,-30.4411 l 11.434572,7.96993 12.323143,-7.72559 12.338311,7.57595 12.09133,-7.71987 12.31501,7.83479 12.12913,-8.2125 c 20.59549,8.29247 26.60275,19.86073 35.68139,30.73931 l 3.21109,-3.78523 c -2.56353,-3.53929 -15.23257,-26.61751 -40.41189,-33.5907 l -10.05804,6.92102 c -16.72149,-8.43801 -12.09661,-4.81855 -25.36935,0.67712 l -10.533473,-7.47114 -12.970899,7.09519 -13.793555,-6.90908 c -21.914222,8.69792 -36.989847,29.35858 -37.955566,34.19165 0.05128,0.48174 1.892576,1.94463 3.767062,2.85025 z"
       id="path870"
       sodipodi:nodetypes="cccccccccccccccccc" />
    <path
       style="fill:#fd1376;fill-opacity:1;stroke:none;stroke-width:0.264583px;stroke-linecap:butt;stroke-linejoin:miter;stroke-opacity:1"
       d="m 48.873154,181.79747 c -1.758648,-2.03783 -4.882003,-4.17855 -7.67482,-5.97627 L 37.531521,138.80147 C 37.213636,106.08462 36.317732,67.779233 38.104527,32.839654 h 8.52112 l -1.224005,12.554217 -1.037563,30.368338 c 0.721833,31.087321 -0.14149,62.366411 3.796469,92.991671 0.931362,3.76541 5.291059,5.20614 8.247515,7.53654 z"
       id="path35705"
       sodipodi:nodetypes="cccccccccc" />
    <path
       style="fill:#fd1376;fill-opacity:1;stroke:none;stroke-width:0.264583px;stroke-linecap:butt;stroke-linejoin:miter;stroke-opacity:1"
       d="m 145.95766,172.25965 c 5.31245,2.61369 10.68963,2.42333 16.16393,-1.97506 1.40446,-11.96921 3.21375,-23.66228 3.3445,-36.50033 0.79529,-16.42274 2.44333,-32.74019 0.65691,-49.481664 -0.82033,-14.361863 -0.69384,-32.069165 -2.61364,-42.546248 -37.98385,-1.202204 -77.273169,-1.354035 -116.323447,-1.698196 -0.856121,-0.06311 -1.144197,0.524903 -1.449761,1.092872 l 0.889495,-8.31137 125.396913,-0.185512 c 1.69428,34.327891 0.70295,68.221068 0.99204,102.321498 l -3.96225,37.5483 c -0.18651,1.85575 0.0972,3.78359 -3.05209,5.18501 -1.87526,1.07561 -3.58096,2.18825 -4.75122,3.41783 z"
       id="path51062"
       sodipodi:nodetypes="cccccccccccccc" />
    <path
       style="fill:#fd1376;fill-opacity:1;stroke:none;stroke-width:0.264583px;stroke-linecap:butt;stroke-linejoin:miter;stroke-opacity:1"
       d="m 62.908592,115.00268 c 1.425663,-6.62508 9.671852,-9.79013 14.895264,-3.45146 1.650083,2.49163 1.899549,6.28916 1.06562,8.15521 -2.043759,3.20122 -4.098346,6.18619 -10.517156,4.5529 -4.11191,-1.56197 -5.7739,-4.74872 -5.443728,-9.25665 z"
       id="path61117"
       sodipodi:nodetypes="ccccc" />
    <path
       style="fill:#fd1376;fill-opacity:1;stroke:none;stroke-width:0.264583px;stroke-linecap:butt;stroke-linejoin:miter;stroke-opacity:1"
       d="m 130.26467,117.00505 c -0.0224,-3.51084 2.9907,-8.53552 7.83325,-8.79148 5.83463,0.2063 8.74125,3.1149 9.25269,8.23404 -0.38679,5.97035 -4.27885,7.41676 -8.52781,8.40256 -4.83902,-0.59569 -7.57641,-3.39963 -8.55813,-7.84512 z"
       id="path67757"
       sodipodi:nodetypes="ccccc" />
    <path
       style="fill:#fd1376;fill-opacity:1;stroke:none;stroke-width:0.265;stroke-linecap:butt;stroke-linejoin:miter;stroke-miterlimit:4;stroke-dasharray:none;stroke-opacity:1"
       d="m 82.258545,149.81597 c 23.323395,6.99558 23.838555,6.11603 45.809645,0.11404 -3.00751,2.40964 -5.62177,4.85834 -9.26037,7.20529 -18.62019,9.70267 -31.226484,-1.56017 -36.549275,-7.31933 z"
       id="path76100"
       sodipodi:nodetypes="cccc" />
  </g>
</svg>
