<?xml version="1.0" encoding="UTF-8" standalone="no"?>
<!-- Created with Inkscape (http://www.inkscape.org/) -->

<svg
   width="279.81839mm"
   height="278.81839mm"
   viewBox="0 0 279.81839 278.81839"
   version="1.1"
   id="svg5"
   inkscape:version="1.1 (c68e22c387, 2021-05-23)"
   sodipodi:docname="trabka.svg"
   xmlns:inkscape="http://www.inkscape.org/namespaces/inkscape"
   xmlns:sodipodi="http://sodipodi.sourceforge.net/DTD/sodipodi-0.dtd"
   xmlns="http://www.w3.org/2000/svg"
   xmlns:svg="http://www.w3.org/2000/svg">
  <sodipodi:namedview
     id="namedview7"
     pagecolor="#505050"
     bordercolor="#eeeeee"
     borderopacity="1"
     inkscape:pageshadow="0"
     inkscape:pageopacity="0"
     inkscape:pagecheckerboard="0"
     inkscape:document-units="mm"
     showgrid="false"
     lock-margins="true"
     fit-margin-top="10"
     fit-margin-left="10"
     fit-margin-right="10"
     fit-margin-bottom="10"
     inkscape:zoom="0.41071317"
     inkscape:cx="275.13118"
     inkscape:cy="342.08788"
     inkscape:window-width="1600"
     inkscape:window-height="837"
     inkscape:window-x="-8"
     inkscape:window-y="-8"
     inkscape:window-maximized="1"
     inkscape:current-layer="layer2"
     width="279.81839mm" />
  <defs
     id="defs2" />
  <g
     inkscape:groupmode="layer"
     id="layer2"
     inkscape:label="Warstwa 2"
     style="display:inline"
     transform="translate(5.2963081,-123.43172)">
    <path
       style="fill:none;stroke:#000000;stroke-width:0.765;stroke-linecap:butt;stroke-linejoin:miter;stroke-opacity:1;stroke-miterlimit:4;stroke-dasharray:none"
       d="m 44.889262,358.45728 c -4.800792,-0.78592 -8.162713,-3.74589 -10.083577,-8.88319 2.660712,-2.03317 5.269022,-4.17497 9.108372,-3.76518 l 4.032882,3.6904 c 0.405177,3.65952 -0.816778,6.54965 -3.057677,8.95797 z"
       id="path870"
       sodipodi:nodetypes="ccccc" />
    <path
       style="fill:none;stroke:#000000;stroke-width:0.765;stroke-linecap:butt;stroke-linejoin:miter;stroke-opacity:1;stroke-miterlimit:4;stroke-dasharray:none"
       d="m 43.914057,345.80891 1.559433,-1.47353 c 0.125997,-2.11006 0.883898,-3.61601 3.40432,-3.43696 l 1.635931,-1.88596 2.801051,2.72634 c -0.745032,2.32342 -2.167879,4.185 -4.255603,5.59354 l -1.112272,2.16695"
       id="path1320"
       sodipodi:nodetypes="ccccccc" />
    <path
       style="fill:none;stroke:#000000;stroke-width:0.765;stroke-linecap:butt;stroke-linejoin:miter;stroke-opacity:1;stroke-miterlimit:4;stroke-dasharray:none"
       d="m 45.47349,344.33538 3.585729,2.99699"
       id="path1488" />
    <path
       style="fill:none;stroke:#000000;stroke-width:0.765;stroke-linecap:butt;stroke-linejoin:miter;stroke-opacity:1;stroke-miterlimit:4;stroke-dasharray:none"
       d="m 48.87781,340.89842 3.475127,3.06007"
       id="path1490" />
    <path
       style="fill:none;stroke:#000000;stroke-width:0.765;stroke-linecap:butt;stroke-linejoin:miter;stroke-opacity:1;stroke-miterlimit:4;stroke-dasharray:none"
       d="m 50.513764,339.01248 c 1.763722,-2.26641 3.447707,-4.53837 6.045764,-6.74659 l 3.328328,2.98258 c -1.642091,1.75617 -3.282478,3.51659 -4.863483,5.42726 -0.381893,0.94438 -0.987572,1.18626 -1.709559,1.06309 z"
       id="path1492"
       sodipodi:nodetypes="cccccc" />
    <path
       style="fill:none;stroke:#000000;stroke-width:0.765;stroke-linecap:butt;stroke-linejoin:miter;stroke-opacity:1;stroke-miterlimit:4;stroke-dasharray:none"
       d="M 56.559528,332.26589 C 68.70751,317.62069 81.113991,303.08751 94.139615,288.82264"
       id="path2008"
       sodipodi:nodetypes="cc" />
    <path
       style="fill:none;stroke:#000000;stroke-width:0.765;stroke-linecap:butt;stroke-linejoin:miter;stroke-opacity:1;stroke-miterlimit:4;stroke-dasharray:none"
       d="m 94.139615,288.82264 c 23.918275,-27.59928 47.794785,-54.03618 71.755045,-82.8032 32.4433,-37.31644 23.15339,-46.26126 19.89906,-51.89738 -0.0324,-3.08455 2.50872,-3.66548 5.77377,-3.54216 23.73013,11.72825 37.33777,28.80023 34.77318,35.59552 -2.47672,2.25048 -8.75982,-0.93475 -13.66662,-2.15455 -11.78456,2.14341 -19.98902,11.22869 -28.78957,19.15814 l -10.81127,10.95534"
       id="path2226"
       sodipodi:nodetypes="cccccccc" />
    <path
       style="fill:none;stroke:#000000;stroke-width:0.765;stroke-linecap:butt;stroke-linejoin:miter;stroke-opacity:1;stroke-miterlimit:4;stroke-dasharray:none"
       d="m 59.887856,335.24847 40.690994,-43.65833 26.25009,-28.81038 13.90856,-14.67622 18.38768,-19.31257 5.4877,-6.00322 c 6.03852,-4.25641 9.82779,-1.68571 13.57118,1.0243 4.3665,3.98005 6.72203,8.50087 2.97034,14.66393 -13.46326,16.70803 -26.38299,30.08489 -41.36977,45.32074 -2.82487,2.56326 -7.72713,4.73243 -4.44099,8.45498 2.66461,2.78638 5.2462,-0.0563 7.82888,-2.82397 l 25.47514,-27.34229 10.60628,-12.49941 6.4975,-6.82837 c 3.52173,-5.44212 6.10272,-11.0699 1.89157,-18.03818 -6.7017,-9.49176 -14.49245,-12.34327 -23.1313,-10.02381"
       id="path3093"
       sodipodi:nodetypes="cccccccccccccccc" />
    <path
       style="fill:none;stroke:#000000;stroke-width:0.765;stroke-linecap:butt;stroke-linejoin:miter;stroke-opacity:1;stroke-miterlimit:4;stroke-dasharray:none"
       d="m 59.887856,335.24847 40.690994,-43.65833 26.25009,-28.81038 13.90856,-14.67622 18.38768,-19.31257 5.4877,-6.00322 c 6.03852,-4.25641 9.82779,-1.68571 13.57118,1.0243 4.3665,3.98005 6.72203,8.50087 2.97034,14.66393 -13.46326,16.70803 -26.38299,30.08489 -41.36977,45.32074 -2.82487,2.56326 -7.72713,4.73243 -4.44099,8.45498 2.66461,2.78638 5.2462,-0.0563 7.82888,-2.82397 l 25.47514,-27.34229 10.60628,-12.49941 6.4975,-6.82837 c 3.52173,-5.44212 6.10272,-11.0699 1.89157,-18.03818 -6.7017,-9.49176 -14.49245,-12.34327 -23.1313,-10.02381"
       id="path3968"
       sodipodi:nodetypes="cccccccccccccccc" />
    <path
       style="fill:none;stroke:#000000;stroke-width:0.765;stroke-linecap:butt;stroke-linejoin:miter;stroke-opacity:1;stroke-miterlimit:4;stroke-dasharray:none"
       d="m 123.86277,316.14631 -21.17481,23.45877 -2.66053,0.75061 -11.071214,12.09864 c -8.485273,3.9003 -15.968795,4.55682 -21.990218,0.47891 -6.003245,-4.81473 -7.865054,-10.35811 -8.583915,-16.10256"
       id="path4117"
       sodipodi:nodetypes="cccccc" />
    <path
       style="fill:none;stroke:#000000;stroke-width:0.765;stroke-linecap:butt;stroke-linejoin:miter;stroke-opacity:1;stroke-miterlimit:4;stroke-dasharray:none"
       d="m 68.838135,326.01575 c -4.179403,5.75095 -6.438036,11.8064 -2.109431,18.90617 4.949018,6.23372 11.302384,5.79322 18.116979,3.16075 l 9.544058,-9.79719 c -4.559706,-5.06861 -2.223725,-8.99651 0.912101,-12.7921 l 17.594008,-19.63351"
       id="path4320"
       sodipodi:nodetypes="cccccc" />
    <path
       style="fill:none;stroke:#000000;stroke-width:0.765;stroke-linecap:butt;stroke-linejoin:miter;stroke-opacity:1;stroke-miterlimit:4;stroke-dasharray:none"
       d="m 117.15838,310.0619 -18.953196,21.3209 c -0.140148,0.44466 -0.414593,0.89084 0.03248,1.32889 0.221107,0.37483 0.723834,0.162 1.353676,-0.3161 l 19.491243,-21.06812 z"
       id="path4560"
       sodipodi:nodetypes="cccccc" />
    <path
       style="fill:none;stroke:#000000;stroke-width:0.765;stroke-linecap:butt;stroke-linejoin:miter;stroke-opacity:1;stroke-miterlimit:4;stroke-dasharray:none"
       d="m 129.68824,320.90788 -23.30955,-20.6588 -7.670897,-6.7976 6.553607,-6.97202 6.06392,5.434 26.02347,23.09081 c 2.6384,1.85848 0.81647,4.30688 -0.5844,6.6996 -2.05476,2.13731 -3.28276,2.35775 -4.4232,2.59692 -1.41416,-0.97478 -2.059,-1.9171 -2.65295,-3.39291 z"
       id="path4860"
       sodipodi:nodetypes="ccccccccc" />
    <path
       style="fill:none;stroke:#000000;stroke-width:0.765;stroke-linecap:butt;stroke-linejoin:miter;stroke-opacity:1;stroke-miterlimit:4;stroke-dasharray:none"
       d="m 113.14239,293.73888 -6.03894,7.13113"
       id="path5866" />
    <path
       style="fill:none;stroke:#000000;stroke-width:0.765;stroke-linecap:butt;stroke-linejoin:miter;stroke-opacity:1;stroke-miterlimit:4;stroke-dasharray:none"
       d="m 105.41241,299.4087 6.13143,-7.2645"
       id="path5868" />
    <path
       style="fill:none;stroke:#000000;stroke-width:0.765;stroke-linecap:butt;stroke-linejoin:miter;stroke-opacity:1;stroke-miterlimit:4;stroke-dasharray:none"
       d="m 106.514,284.90664 c 1.3938,2.96943 4.06567,4.51266 6.90781,5.86586 0.7496,0.5109 1.49905,1.02197 1.79403,2.04017 l 23.67055,21.42792 1.50859,1.51408 c 1.58666,-0.5212 3.10598,-1.42252 4.47327,-3.18188 1.3229,-1.64797 2.86002,-3.27442 0.62311,-5.28051 l -14.71013,-12.96579 -9.08347,-8.62646 -2.75236,-2.35836 -6.08384,-5.39774"
       id="path5870"
       sodipodi:nodetypes="ccccccccccc" />
    <path
       style="fill:none;stroke:#000000;stroke-width:0.765;stroke-linecap:butt;stroke-linejoin:miter;stroke-opacity:1;stroke-miterlimit:4;stroke-dasharray:none"
       d="m 115.21584,292.81267 6.43757,-7.24135"
       id="path6290" />
    <path
       style="fill:none;stroke:#000000;stroke-width:0.765;stroke-linecap:butt;stroke-linejoin:miter;stroke-opacity:1;stroke-miterlimit:4;stroke-dasharray:none"
       d="m 113.42181,290.7725 6.02697,-6.98565"
       id="path6292" />
    <path
       style="fill:none;stroke:#000000;stroke-width:0.765;stroke-linecap:butt;stroke-linejoin:miter;stroke-opacity:1;stroke-miterlimit:4;stroke-dasharray:none"
       d="m 130.0842,321.5112 6.73053,-6.87083"
       id="path6294" />
    <path
       style="fill:none;stroke:#000000;stroke-width:0.765;stroke-linecap:butt;stroke-linejoin:miter;stroke-opacity:1;stroke-miterlimit:4;stroke-dasharray:none"
       d="m 137.6389,313.12342 6.46702,-6.89673"
       id="path6296" />
    <path
       style="fill:none;stroke:#000000;stroke-width:0.765;stroke-linecap:butt;stroke-linejoin:miter;stroke-opacity:1;stroke-miterlimit:4;stroke-dasharray:none"
       d="m 104.72536,337.41682 -5.134023,-5.02123"
       id="path6328" />
    <path
       style="fill:none;stroke:#000000;stroke-width:0.765;stroke-linecap:butt;stroke-linejoin:miter;stroke-opacity:1;stroke-miterlimit:4;stroke-dasharray:none"
       d="m 101.56953,330.23073 5.14643,4.87942"
       id="path6330" />
    <path
       style="fill:none;stroke:#000000;stroke-width:0.765;stroke-linecap:butt;stroke-linejoin:miter;stroke-opacity:1;stroke-miterlimit:4;stroke-dasharray:none"
       d="m 98.205184,331.3828 -4.379422,-3.9436"
       id="path6360" />
    <path
       style="fill:none;stroke:#000000;stroke-width:0.765;stroke-linecap:butt;stroke-linejoin:miter;stroke-opacity:1;stroke-miterlimit:4;stroke-dasharray:none"
       d="m 95.522552,325.28976 4.641838,3.94939"
       id="path6362" />
    <path
       style="fill:none;stroke:#000000;stroke-width:0.765;stroke-linecap:butt;stroke-linejoin:miter;stroke-opacity:1;stroke-miterlimit:4;stroke-dasharray:none"
       d="m 95.522552,325.28976 4.641838,3.94939"
       id="path6394" />
    <path
       style="fill:none;stroke:#000000;stroke-width:0.765;stroke-linecap:butt;stroke-linejoin:miter;stroke-opacity:1;stroke-miterlimit:4;stroke-dasharray:none"
       d="m 120.66682,269.58685 17.40725,15.59901"
       id="path6427" />
    <path
       style="fill:none;stroke:#000000;stroke-width:0.765;stroke-linecap:butt;stroke-linejoin:miter;stroke-opacity:1;stroke-miterlimit:4;stroke-dasharray:none"
       d="m 114.47502,276.53907 c 1.33175,2.33108 3.84438,4.77817 7.98536,7.38522 l 12.05624,11.03322 10.9069,9.92682 2.15551,2.54325 c 2.92336,-1.50501 5.23429,-3.82791 6.30635,-7.80527 l -10.95813,-10.12565"
       id="path6429"
       sodipodi:nodetypes="ccccccc" />
    <path
       style="fill:none;stroke:#000000;stroke-width:0.765;stroke-linecap:butt;stroke-linejoin:miter;stroke-opacity:1;stroke-miterlimit:4;stroke-dasharray:none"
       d="m 145.42352,304.88433 6.46881,-7.04804"
       id="path6592" />
    <path
       style="fill:none;stroke:#000000;stroke-width:0.765;stroke-linecap:butt;stroke-linejoin:miter;stroke-opacity:1;stroke-miterlimit:4;stroke-dasharray:none"
       d="m 122.46038,283.92429 6.29479,-7.28045"
       id="path6594" />
    <path
       style="fill:none;stroke:#000000;stroke-width:0.765;stroke-linecap:butt;stroke-linejoin:miter;stroke-opacity:1;stroke-miterlimit:4;stroke-dasharray:none"
       d="m 127.19058,275.31825 -6.56078,7.57727"
       id="path6596" />
    <path
       style="fill:none;stroke:#000000;stroke-width:0.765;stroke-linecap:butt;stroke-linejoin:miter;stroke-opacity:1;stroke-miterlimit:4;stroke-dasharray:none"
       d="m 94.139615,288.82264 -2.016999,-1.11936 c -1.128853,-0.96002 -1.037299,-1.55477 -0.821378,-2.11229 l 1.085223,-1.16832 -1.062324,-0.9902 c -0.409313,-0.56668 0.08669,-1.00332 0.15972,-1.50071 l -2.735121,-2.451 -1.903027,1.69702 c -1.297034,-0.85063 -1.383586,-1.95594 -1.318666,-3.09312 l 2.94722,-3.24616 c 1.983369,-1.03979 2.613944,-0.0942 3.345051,0.70386 l -1.619363,1.72182 2.961734,2.5394 0.842593,-0.8123 c 1.215908,-0.3275 1.6696,0.42735 2.158806,1.13175 l 1.142224,-1.23193 3.194972,2.74841"
       id="path6598"
       sodipodi:nodetypes="ccccccccccccccccc" />
    <path
       style="fill:none;stroke:#000000;stroke-width:0.765;stroke-linecap:butt;stroke-linejoin:miter;stroke-opacity:1;stroke-miterlimit:4;stroke-dasharray:none"
       d="m 101.56203,280.46783 -2.016999,-1.11936 c -1.128861,-0.96003 -1.037295,-1.55477 -0.821376,-2.11229 l 1.085222,-1.16832 -1.062311,-0.99023 c -0.409313,-0.56668 0.08669,-1.00331 0.159728,-1.50071 l -2.73512,-2.451 -1.903026,1.69703 c -1.297041,-0.85063 -1.383592,-1.95594 -1.318671,-3.09313 l 2.94723,-3.24617 c 1.98337,-1.0398 2.613952,-0.0942 3.345056,0.70386 l -1.619377,1.72184 2.961734,2.53939 0.8426,-0.81231 c 1.21592,-0.3275 1.6696,0.42736 2.15881,1.13175 l 1.14222,-1.23192 3.19496,2.7484"
       id="path6598-2"
       sodipodi:nodetypes="ccccccccccccccccc" />
    <path
       style="fill:none;stroke:#000000;stroke-width:0.765;stroke-linecap:butt;stroke-linejoin:miter;stroke-opacity:1;stroke-miterlimit:4;stroke-dasharray:none"
       d="m 109.08162,271.99123 -2.01699,-1.11935 c -1.12886,-0.96004 -1.0373,-1.55477 -0.82138,-2.11229 l 1.08523,-1.16833 -1.06232,-0.99023 c -0.40931,-0.56668 0.0867,-1.00331 0.15973,-1.5007 l -2.73512,-2.451 -1.90303,1.69703 c -1.29703,-0.85063 -1.38359,-1.95595 -1.31867,-3.09314 l 2.94722,-3.24616 c 1.98339,-1.03981 2.61397,-0.0942 3.34507,0.70385 l -1.61938,1.72183 2.96174,2.53941 0.8426,-0.81231 c 1.21591,-0.32751 1.6696,0.42735 2.15881,1.13174 l 1.14222,-1.23192 3.19496,2.7484"
       id="path6598-9"
       sodipodi:nodetypes="ccccccccccccccccc" />
    <path
       style="fill:none;stroke:#000000;stroke-width:0.765;stroke-linecap:butt;stroke-linejoin:miter;stroke-opacity:1;stroke-miterlimit:4;stroke-dasharray:none"
       d="m 144.69981,291.28295 34.94276,-37.72641 c 2.43032,-2.60011 2.67402,-4.71838 2.20026,-6.67848"
       id="path7210"
       sodipodi:nodetypes="ccc" />
    <path
       style="fill:none;stroke:#000000;stroke-width:0.765;stroke-linecap:butt;stroke-linejoin:miter;stroke-opacity:1;stroke-miterlimit:4;stroke-dasharray:none"
       d="m 178.07682,242.15167 c -2.90125,-1.26561 -5.85338,-2.38811 -10.65642,1.69581 l -33.51826,37.70537"
       id="path7212"
       sodipodi:nodetypes="ccc" />
  </g>
</svg>
