<?xml version="1.0" encoding="UTF-8" standalone="no"?>
<svg
   viewBox="0 0 22 22"
   version="1.1"
   id="svg6"
   sodipodi:docname="transform-browse.svg"
   inkscape:version="1.1.2 (0a00cf5339, 2022-02-04, custom)"
   xmlns:inkscape="http://www.inkscape.org/namespaces/inkscape"
   xmlns:sodipodi="http://sodipodi.sourceforge.net/DTD/sodipodi-0.dtd"
   xmlns="http://www.w3.org/2000/svg"
   xmlns:svg="http://www.w3.org/2000/svg">
  <sodipodi:namedview
     id="namedview8"
     pagecolor="#505050"
     bordercolor="#eeeeee"
     borderopacity="1"
     inkscape:pageshadow="0"
     inkscape:pageopacity="0"
     inkscape:pagecheckerboard="0"
     showgrid="false"
     inkscape:zoom="128"
     inkscape:cx="11.003906"
     inkscape:cy="4.4023437"
     inkscape:window-width="1920"
     inkscape:window-height="1080"
     inkscape:window-x="0"
     inkscape:window-y="0"
     inkscape:window-maximized="1"
     inkscape:current-layer="svg6" />
  <defs
     id="defs3051">
    <style
       type="text/css"
       id="current-color-scheme">
      .ColorScheme-Text {
        color:#232629;
      }
      </style>
  </defs>
  <path
     style="fill:currentColor;fill-opacity:1;stroke:none"
     d="M 14.128112,3.1647838 C 13.506699,3.2024608 12.851408,3.6021149 12.650687,4.1580586 12.245267,3.0055021 10.255462,2.669614 9.8060726,4.5393041 9.4426046,4.1479616 8.8391861,3.9191024 8.254558,3.9606181 H 8.231121 C 7.32835,4.1230146 6.7644107,4.6816229 6.9474946,5.7119805 L 8.3311732,12.312732 C 8.0311226,11.748554 6.4696004,10.785746 6.1617216,10.651388 5.4482342,10.339948 5.1572535,10.313823 4.631199,10.464602 3.6397974,10.78738 3.4247136,11.23762 3.4247136,11.23762 l -0.2283024,0.476562 0.3473522,0.391645 c 1.0044804,0.660697 2.3626422,2.344909 3.4218483,3.776816 0.5354356,0.719535 0.9164077,1.029001 1.4613834,1.598917 0.6104967,0.42973 0.8136671,0.54223 1.4389135,0.748191 l 0.1006772,-8.85e-4 c 2.5238382,-0.0042 4.7360842,0.01233 6.9186532,0.0162 0.03907,-1.111592 0.04439,-1.774358 0.113505,-2.674908 -0.02211,-1.51112 0.239767,-3.720801 0.454675,-4.510416 l 0.951893,-3.8442413 c 0.192005,-1.1503044 -0.115855,-1.8295532 -1.269317,-1.9568726 -0.382441,0.021326 -1.132216,0.1952907 -1.3939,0.4822456 l 0.09121,-0.9384621 c -0.0353,-1.0609023 -0.717927,-1.5843577 -1.70519,-1.6376278 z m -3.01423,0.2604049 0.162262,-0.017266 c 0.84686,-0.027823 1.309848,0.7546369 1.33298,1.3209285 l 0.08231,4.9158907 c 0.01547,0.2776719 0.102367,0.2791351 0.115137,0.028334 l -0.01541,-5.0043436 c 0.02138,-0.52179 0.470588,-1.3654429 1.376902,-1.2849851 0.618961,-0.039099 1.621075,0.5159691 1.441653,1.4238535 l -0.547181,5.4364113 c -0.0082,0.162152 0.03913,0.241965 0.08984,0.04504 l 0.490484,-3.9324572 c 0.10664,-0.4444456 0.525729,-0.9445959 1.472568,-0.8802312 1.203778,0.061657 1.292197,1.0491834 1.117038,1.7027716 l -1.032784,4.2795678 c -0.439844,1.722894 -0.458454,6.054863 -0.484222,6.568067 L 10,18 v 0 C 7.8834892,17.97856 5.7924003,13.268738 3.4119229,11.705894 c 0,0 1.3442094,-3.008753 4.9252494,0.793882 0,0 0.092738,0.0029 0.1354977,-0.166171 C 8.445963,12.247095 8.429444,12.155517 8.425795,12.065306 L 7.1410242,5.6778461 c -0.1028524,-0.578874 0.2228,-1.5282846 1.0941256,-1.5256475 0.9225445,-0.107355 1.5842684,0.4588312 1.6626755,0.9864505 l 0.4616597,4.8605597 c 0.03291,0.1925072 0.178785,0.1421962 0.163972,-0.1096702 L 10.035056,4.879838 C 9.998136,4.3212952 10.309668,3.4152138 11.113882,3.4251887 Z"
     class="ColorScheme-Text"
     id="path4"
     sodipodi:nodetypes="ccccccccccccccccccccccccccccccccccccccccscccccccccccc" />
</svg>
