<?xml version="1.0" encoding="UTF-8" standalone="no"?>
<!-- Created with Inkscape (http://www.inkscape.org/) -->

<svg
   width="153.9864mm"
   height="90mm"
   viewBox="0 0 153.98641 90.000001"
   version="1.1"
   id="svg5"
   inkscape:version="1.2-dev (2933c477aa, 2021-06-11, custom)"
   sodipodi:docname="traper.svg"
   xmlns:inkscape="http://www.inkscape.org/namespaces/inkscape"
   xmlns:sodipodi="http://sodipodi.sourceforge.net/DTD/sodipodi-0.dtd"
   xmlns="http://www.w3.org/2000/svg"
   xmlns:svg="http://www.w3.org/2000/svg">
  <sodipodi:namedview
     id="namedview7"
     pagecolor="#505050"
     bordercolor="#eeeeee"
     borderopacity="1"
     objecttolerance="10.0"
     gridtolerance="10.0"
     guidetolerance="10.0"
     inkscape:pageshadow="0"
     inkscape:pageopacity="0"
     inkscape:pagecheckerboard="0"
     inkscape:document-units="mm"
     showgrid="false"
     fit-margin-top="0"
     fit-margin-left="0"
     fit-margin-right="0"
     fit-margin-bottom="0"
     inkscape:zoom="1.7083652"
     inkscape:cx="327.21341"
     inkscape:cy="194.92319"
     inkscape:window-width="1920"
     inkscape:window-height="1080"
     inkscape:window-x="0"
     inkscape:window-y="0"
     inkscape:window-maximized="1"
     inkscape:current-layer="layer2"
     showguides="true"
     inkscape:guide-bbox="true"
     inkscape:lockguides="true">
    <sodipodi:guide
       position="110.18906,45.00471"
       orientation="0,-1"
       id="guide973"
       inkscape:locked="true" />
    <sodipodi:guide
       position="58.010354,65.350593"
       orientation="0,-1"
       id="guide888"
       inkscape:locked="true" />
  </sodipodi:namedview>
  <defs
     id="defs2" />
  <g
     inkscape:label="Warstwa 1"
     inkscape:groupmode="layer"
     id="layer1"
     transform="translate(-55.376537,-27.555788)" />
  <g
     inkscape:groupmode="layer"
     id="layer2"
     inkscape:label="Warstwa 2">
    <path
       style="fill:#000080;fill-opacity:1;stroke:#ffcc00;stroke-width:2.119;stroke-linecap:butt;stroke-linejoin:miter;stroke-miterlimit:4;stroke-dasharray:none;stroke-opacity:1"
       d="M 12.777082,64.480061 25.835872,56.921413 39.543614,64.798997 35.239937,51.139156 47.671795,40.166492 32.006082,39.633058 25.064515,24.674491 20.351667,39.869224 4.346941,40.000407 16.306385,47.646491 Z"
       id="path870-7" />
    <path
       style="fill:#000080;fill-opacity:1;stroke:#ffcc00;stroke-width:2.119;stroke-linecap:butt;stroke-linejoin:miter;stroke-miterlimit:4;stroke-dasharray:none;stroke-opacity:1"
       d="M 63.636158,64.454979 76.694948,56.896331 90.40269,64.773915 86.099013,51.114074 98.530873,40.14141 82.865158,39.607976 75.923591,24.649409 71.210743,39.844142 55.206018,39.975325 67.165461,47.621409 Z"
       id="path870-7-6" />
    <path
       style="fill:#000080;fill-opacity:1;stroke:#ffcc00;stroke-width:2.119;stroke-linecap:butt;stroke-linejoin:miter;stroke-miterlimit:4;stroke-dasharray:none;stroke-opacity:1"
       d="m 114.89694,64.454979 13.05879,-7.558648 13.70775,7.877584 -4.30368,-13.659841 12.43186,-10.972664 -15.66572,-0.533434 -6.94156,-14.958567 -4.71285,15.194733 -16.00473,0.131183 11.95945,7.646084 z"
       id="path870-7-6-3" />
    <path
       d="m 11.049633,83.282712 4.462568,-5.614558 4.262747,5.614558 4.26275,-5.614558 4.173948,5.614558 4.173948,-5.614558 4.262749,5.614558 4.26275,-5.614558 4.072596,5.614558 4.072578,-5.614558 4.262767,5.614558 4.262749,-5.614558 4.173949,5.614558 4.17393,-5.614558 4.262767,5.614558 4.262749,-5.614558 4.072578,5.614558 4.072596,-5.614558 4.262746,5.614558 4.26275,-5.614558 4.17395,5.614558 4.17395,-5.614558 4.262752,5.614558 4.26275,-5.614558 4.07259,5.614558 4.07258,-5.614558 4.26275,5.614558 4.26275,-5.614558 4.17395,5.614558 4.17395,-5.614558 4.26275,5.614558 4.26275,-5.614558 4.46257,5.614558"
       id="path4018"
       style="display:inline;fill:none;stroke:#217821;stroke-width:2.87521;stroke-linejoin:round;stroke-miterlimit:4;stroke-dasharray:none" />
  </g>
</svg>
