<?xml version="1.0" encoding="UTF-8" standalone="no"?>
<!-- Created with Inkscape (http://www.inkscape.org/) -->

<svg
   xmlns:svg="http://www.w3.org/2000/svg"
   xmlns="http://www.w3.org/2000/svg"
   version="1.1"
   width="474.98001"
   height="472.51999"
   id="svg4366">
  <defs
     id="defs4368" />
  <g
     transform="translate(-112.36274,-19.955284)"
     id="layer1">
    <path
       d="m 349.85275,35.637156 c -121.82672,0 -220.59375,98.767024 -220.59375,220.593744 0,121.82672 98.76703,220.5625 220.59375,220.5625 121.82672,0 220.59375,-98.73578 220.59375,-220.5625 0,-121.82672 -98.76703,-220.593744 -220.59375,-220.593744 z m 0,82.843744 c 76.07959,0 137.75,61.67041 137.75,137.75 0,76.07959 -61.67041,137.75 -137.75,137.75 -76.07959,0 -137.75,-61.67041 -137.75,-137.75 0,-76.07959 61.67041,-137.75 137.75,-137.75 z"
       id="path4448"
       style="fill:#f2e6db;fill-opacity:1;stroke:none" />
    <path
       d="m 342.59538,29.957496 c -19.58461,0.0654 -23.33719,0.45662 -32.59375,2.34375 -17.47196,3.562 -36.19584,9.00368 -35.40625,10.28125 0.29089,0.47067 -0.0986,0.59844 -0.84375,0.3125 -0.74514,-0.28593 -3.11032,0.23036 -5.28125,1.125 -10.42441,4.29593 -11.26524,4.6762 -20.96875,10.0625 -2.2,1.22119 -5.6341,3.14152 -7.65625,4.25 -7.30623,4.00504 -8.38107,4.66743 -11.96875,7.375 -2.00415,1.5125 -4.05786,2.75 -4.5625,2.75 -0.50465,0 -1.80879,0.78257 -2.875,1.75 -1.06621,0.96744 -3.9625,3.32994 -6.4375,5.25 -8.36806,6.49181 -10.44811,8.41259 -22,19.968746 -11.33001,11.334188 -19.29691,20.635218 -26.0625,30.499998 -1.881,2.74266 -4,5.60962 -4.6875,6.34375 -0.6875,0.73413 -1.25,1.69355 -1.25,2.15625 0,0.46271 -1.57797,3.25199 -3.53125,6.1875 -6.77192,10.17727 -17.12621,34.25866 -22.0625,51.34375 -8.739,30.24677 -11.77409,68.81995 -7.375,93.5 3.7384,20.97338 6.05949,32.54141 6.9375,34.5 0.49312,1.1 2.11061,5.825 3.59375,10.5 1.48314,4.675 3.08079,8.915 3.5625,9.4375 0.4817,0.5225 0.875,1.57615 0.875,2.34375 0,0.7676 0.82995,2.6026 1.8125,4.0625 0.98255,1.4599 2.35944,4.41354 3.09375,6.5625 0.7343,2.14895 2.62378,5.97395 4.1875,8.5 1.56373,2.52604 3.49295,5.9984 4.28125,7.71875 0.7883,1.72036 1.9537,3.44818 2.59375,3.84375 0.64004,0.39557 1.59957,1.69093 2.125,2.875 2.9981,6.75638 7.355,12.87383 20.03125,28.09375 9.66718,11.60703 15.55867,17.43397 25.8125,25.5625 4.50973,3.575 8.94501,7.21421 9.875,8.09375 0.93,0.87953 5.0625,3.72999 9.1875,6.34375 4.125,2.61375 8.625,5.50857 10,6.4375 1.375,0.92894 9.18067,4.96293 17.34375,8.96875 16.61262,8.15224 35.22451,14.89207 50.0625,18.09375 5.44855,1.17567 10.39855,2.45197 11,2.84375 0.60145,0.39177 10.09375,1.16875 21.09375,1.71875 26.07036,1.30352 41.19831,0.26084 63,-4.34375 10.28419,-2.17206 28.08865,-6.96545 30.4375,-8.1875 0.8693,-0.45228 4.4875,-1.8352 8.0625,-3.09375 6.95679,-2.44908 17.86078,-7.81348 24.75,-12.1875 2.32657,-1.47716 4.52292,-2.6875 4.875,-2.6875 1.75555,0 26.91631,-17.67556 33.375,-23.4375 10.69987,-9.54559 28.0195,-28.40796 32.21875,-35.09375 1.38686,-2.20807 3.25645,-4.62823 4.15625,-5.375 0.89981,-0.74678 1.625,-1.80274 1.625,-2.34375 0,-0.54101 1.2375,-2.61869 2.75,-4.625 4.32241,-5.73364 4.42375,-5.86816 14.375,-25.1875 4.23635,-8.22444 5.77153,-11.78701 11.25,-25.96875 3.79169,-9.8153 9.4167,-34.28035 10.8125,-47.09375 2.71909,-24.96116 0.4906,-60.12956 -5.21875,-82.875 -2.93148,-11.67869 -8.4703,-27.15469 -11.875,-33.1875 -1.70263,-3.01688 -3.09375,-6.22988 -3.09375,-7.15625 0,-2.53504 -12.69918,-24.94911 -17.9375,-31.65625 -1.50344,-1.925 -3.89145,-5.3 -5.3125,-7.5 -1.42105,-2.2 -3.6253,-5.18495 -4.90625,-6.625 -1.28096,-1.44005 -3.91875,-4.51402 -5.84375,-6.84375 -10.58086,-12.805438 -33.37122,-33.095154 -46.34375,-41.249994 -10.37296,-6.52069 -37.9731,-20.78125 -40.21875,-20.78125 -0.34965,0 -2.04813,-0.63314 -3.78125,-1.40625 -7.89022,-3.51968 -14.27842,-5.34312 -34.65625,-9.875 l -14.5,-3.21875 -30.5,0 c -3.50714,0 -6.60845,-0.009 -9.40625,0 z m 2.71875,13 c 11.4477,-0.074 26.69541,0.20846 27.9375,0.71875 1.57668,0.64776 1.32242,1.84888 -2.625,13 -2.4945,7.04674 -4.92272,12.36416 -5.71875,12.5 -1.27986,0.21841 -11.90625,-17.40287 -11.90625,-19.75 0,-3.08443 -2.10569,0.22466 -5.59375,8.71875 -2.18695,5.32565 -4.48358,9.82786 -5.09375,10.03125 -0.61017,0.20339 -2.12069,-2.24596 -3.34375,-5.4375 -4.68702,-12.23063 -6.82088,-18.74101 -6.3125,-19.25 0.30105,-0.3014 5.78763,-0.48687 12.65625,-0.53125 z m -30.8125,3.28125 1.6875,4.34375 c 0.92595,2.39612 2.99159,7.75 4.59375,11.875 1.60217,4.125 5.1915,13.35 7.96875,20.5 2.77724,7.149996 5.75885,14.618426 6.625,16.624996 l 1.59375,3.656248 -3.75,-0.0937 c -2.04652,-0.0607 -5.29375,0.20663 -7.21875,0.625 -3.46182,0.75237 -3.53273,0.71323 -6.5,-4.874998 -2.79602,-5.2657 -6.63737,-9.467226 -11,-11.999996 -1.75056,-1.0163 -1.7597,-1.27384 -0.15625,-5.28125 4.50292,-11.25391 -1.34294,-26.01453 -11.53125,-29.15625 l -4.3125,-1.3125 6,-1.84375 c 3.3,-1.01433 8.25,-2.13348 11,-2.46875 l 5,-0.59375 z m 76.0625,0.375 c 2.71824,-0.12058 9.73553,1.26139 19.4375,3.84375 9.20224,2.44935 12.15604,4 7.59375,4 -6.30016,0 -16.15838,4.34588 -21.1875,9.375 -6.96986,6.96986 -10.8627,19.94278 -8.375,27.843746 2.03156,6.45227 3.90467,9.944298 7.1875,13.406248 1.63622,1.7255 2.541,3.40371 2.03125,3.71875 -0.50976,0.31505 -1.31195,0.21658 -1.8125,-0.21875 -1.25156,-1.08849 -7.52731,-2.72388 -16.21875,-4.21875 -4.01221,-0.69008 -7.54049,-1.66555 -7.84375,-2.15625 -0.30327,-0.4907 -0.0883,-2.08319 0.46875,-3.562498 0.5571,-1.4793 2.66633,-8.0875 4.6875,-14.687496 2.02117,-6.6 4.02163,-12.9 4.46875,-14 0.44712,-1.1 2.27387,-6.65597 4.0625,-12.34375 1.78864,-5.68778 3.86232,-10.56307 4.59375,-10.84375 0.20701,-0.0794 0.51793,-0.13902 0.90625,-0.15625 z m 46.90625,14.15625 c 2.23044,-0.068 24.77088,12.12578 30.375,16.5 l 2.375,1.84375 -3.9375,6.40625 c -2.1661,3.53301 -5.7775,9.137496 -8,12.437496 -4.33757,6.440478 -13.43712,20.629578 -17.15625,26.749998 -1.2533,2.0625 -2.36099,3.75 -2.46875,3.75 -0.10777,0 -1.07138,-0.626 -2.15625,-1.375 -1.08488,-0.74901 -6.5,-3.705 -12,-6.59375 -12.16185,-6.38774 -12.91772,-7.03125 -8.375,-7.03125 4.78479,0 12.48792,-2.7126 17.59375,-6.1875 8.09983,-5.51252 12.28125,-13.833118 12.28125,-24.406244 0,-6.86013 -0.95856,-9.56147 -6.21875,-17.25 -1.62567,-2.37615 -2.74111,-4.54014 -2.46875,-4.8125 0.0284,-0.0284 0.0843,-0.0291 0.15625,-0.0312 z m -175.03125,1.6875 c 1.08219,0 3.25842,3.47758 6.53125,10.46875 2.69979,5.76709 5.20614,11.50459 5.59375,12.75 0.38761,1.24541 2.22108,5.557656 4.0625,9.562496 4.40592,9.582288 8.68492,20.270988 8.25,20.656248 -0.19065,0.16888 -2.24691,1.26989 -4.5625,2.4375 -2.31559,1.16761 -4.79059,2.09975 -5.5,2.09375 -0.70941,-0.006 -2.83595,-2.66701 -4.71875,-5.9375 -3.85271,-6.69233 -2.49082,-6.73939 -11.53125,0.40625 -3.99042,3.15407 -5.55022,2.9411 -8.25,-1.125 -1.27696,-1.9232 -1.02477,-2.38517 3.59375,-6.0625 l 5,-3.96875 -3.5,-5.187498 -3.5,-5.1875 -4.59375,4.03125 c -2.5235,2.22128 -4.95511,4.062498 -5.40625,4.062498 -0.98567,0 -4.69713,-3.855488 -5.96875,-6.187498 -0.7284,-1.33582 0.35046,-2.64559 5.34375,-6.593746 3.4333,-2.71468 7.25823,-5.48856 8.53125,-6.15625 1.54251,-0.80904 2.03221,-1.58843 1.4375,-2.375 -0.4908,-0.64914 -2.07434,-3.29265 -3.53125,-5.84375 l -2.65625,-4.625 6.875,-3.625 c 3.78013,-1.9864 7.6073,-3.59375 8.5,-3.59375 z m 24.4375,5 c 6.50292,0 10.86508,9.22372 6.3125,13.34375 -2.7555,2.4937 -3.7045,2.05829 -5.625,-2.59375 -0.96499,-2.3375 -2.16271,-5.04496 -2.65625,-6 -1.67487,-3.24102 -1.03737,-4.75 1.96875,-4.75 z m 128.71875,4.4375 c 3.17436,0.0685 6.41223,1.59392 9.5,4.53125 3.47462,3.30532 3.90625,4.24579 3.90625,8.46875 0,5.474236 -2.07429,9.568806 -6.03125,11.906246 -2.78595,1.6457 -7.91151,1.9514 -13.46875,0.78125 -2.31372,-0.48718 -3.53703,-1.70191 -5.34375,-5.34375 -3.09054,-6.229626 -2.31846,-11.556526 2.34375,-16.218746 2.81,-2.81 5.91939,-4.19353 9.09375,-4.125 z m -63.40625,8.28125 c 1.08653,-0.18583 2.12246,1.89232 5.875,9.75 2.81323,5.890796 4.84001,10.972474 4.53125,11.281244 -0.89297,0.89296 -19.4933,1.18293 -20.03125,0.3125 -0.55727,-0.90167 2.01431,-8.010918 4.65625,-12.843744 0.98631,-1.80423 1.78125,-3.87072 1.78125,-4.59375 0,-0.72303 0.89107,-2.11847 1.96875,-3.09375 0.47916,-0.43364 0.85657,-0.75056 1.21875,-0.8125 z m 125.53125,4.34375 c 1.11324,-0.13122 10.75242,7.818576 19.78125,16.343744 5.80804,5.48405 8.63011,8.77205 7.90625,9.28125 -1.64965,1.16044 -13.1359,11.15775 -18.46875,16.0625 -2.54152,2.3375 -4.8885,4.25 -5.1875,4.25 -1.19727,0 -2.98338,-14.37698 -3.6875,-29.5 -0.4099,-8.799998 -0.61738,-16.191064 -0.4375,-16.406244 0.0178,-0.0213 0.0578,-0.027 0.0937,-0.0312 z m -263.40625,8.499996 5.4375,5.96875 c 2.98657,3.284308 6.40215,7.244518 7.59375,8.812498 2.29471,3.01952 21.1915,25.2265 23.375,27.46875 1.86191,1.91202 1.68567,2.34275 -2.71875,6 -4.40067,3.65416 -4.6308,3.60294 -9.84375,-1.9375 -2.00532,-2.13129 -3.9307,-3.87409 -4.28125,-3.875 -0.35055,-9e-4 -3.23305,3.2625 -6.40625,7.25 -3.1732,3.9875 -6.0525,7.5875 -6.40625,8 -0.67546,0.78764 -3.0625,-1.11265 -3.0625,-2.4375 0,-0.76745 -2.47726,-6.45937 -8.21875,-18.8125 -1.66159,-3.575 -3.14989,-8.00072 -3.28125,-9.8125 -0.13136,-1.81178 -0.9335,-3.83678 -1.8125,-4.5 -0.879,-0.66322 -2.34121,-2.9348 -3.21875,-5.0625 -1.54494,-3.74586 -1.52085,-3.94061 0.71875,-6.34375 1.27212,-1.36501 4.52192,-4.358398 7.21875,-6.624998 l 4.90625,-4.09375 z m 81.84375,3.46875 c 3.14207,-0.0458 12.84375,6.858648 12.84375,9.562498 0,0.79576 -1.15169,1.90111 -2.5625,2.4375 -3.47782,1.32227 -5.97889,1.21938 -7.15625,-0.28125 -1.21782,-1.5522 -4.39267,-10.951078 -3.875,-11.468748 0.16604,-0.16604 0.42496,-0.24526 0.75,-0.25 z m 21.84375,7.968748 c 0.55,0 1,0.45 1,1 0,0.55 -0.45,1 -1,1 -0.55,0 -1,-0.45 -1,-1 0,-0.55 0.45,-1 1,-1 z m 36.375,12.28125 c 1.553,0.0272 3.0537,0.0966 4.46875,0.1875 11.17587,0.71787 11.08621,0.7136 22.15625,3.0625 43.05139,9.13487 79.46599,39.09241 97.21875,79.96875 8.18366,18.84314 12.26784,39.80412 11.46875,59 -1.49922,36.01427 -13.92076,66.5729 -37.0625,91.15625 -17.88708,19.00136 -39.42714,32.49467 -61.125,38.34375 -4.4,1.1861 -10.25662,2.79833 -13.03125,3.5625 -2.77463,0.76417 -10.19963,1.84863 -16.5,2.40625 -13.70646,1.2131 -14.81065,1.18476 -26.96875,-0.5 -26.11588,-3.61891 -46.59238,-11.90678 -66.5625,-26.9375 -11.3771,-8.5631 -26.90134,-24.96282 -33.15625,-35.0625 -3.95212,-6.3814 -9.35908,-16.71599 -11.25,-21.46875 -1.20352,-3.025 -2.82077,-6.98618 -3.59375,-8.78125 -0.77299,-1.79507 -1.67695,-5.17007 -2,-7.5 -0.32306,-2.32993 -0.95364,-5.11875 -1.40625,-6.21875 -3.51615,-8.5453 -4.74918,-41.79592 -2.125,-57 1.85653,-10.75644 7.01531,-25.65383 13.53125,-39 12.54686,-25.6989 36.76232,-49.4374 62.375,-61.15625 13.74379,-6.28835 14.55544,-6.59207 30.71875,-10.78125 8.30238,-2.1518 21.97277,-3.47195 32.84375,-3.28125 z m 108.8125,5 c 0.0551,-0.0121 0.1163,-0.0133 0.15625,0 1.67033,0.55678 2.5589,6.72059 2.625,18.40625 0.0317,5.60504 -0.29131,10.39208 -0.71875,10.65625 -0.84708,0.52352 -14.25,-12.05427 -14.25,-13.375 0,-0.44563 0.39318,-0.97291 0.875,-1.15625 0.48182,-0.18333 3.00426,-3.6071 5.59375,-7.625 2.42766,-3.76677 4.89236,-6.72509 5.71875,-6.90625 z m 53.53125,0.71875 c 1.01907,0 12.85846,15.87688 12.1875,16.34375 -0.20762,0.14447 -5.58125,3.35756 -11.90625,7.15625 -6.325,3.79869 -16.26245,9.92433 -22.09375,13.59375 -5.83131,3.66942 -11.75089,7.42292 -13.15625,8.34375 -2.52143,1.6521 -2.57576,1.59792 -5.375,-2.15625 -1.5602,-2.09245 -3.29062,-4.1222 -3.84375,-4.53125 -0.5934,-0.43883 0.40884,-1.87369 2.46875,-3.5 1.92012,-1.51595 7.82136,-6.575 13.09375,-11.25 5.27239,-4.675 11.52986,-10.075 13.9375,-12 2.40763,-1.925 6.47435,-5.4125 9.03125,-7.75 2.55689,-2.3375 5.11419,-4.25 5.65625,-4.25 z m -321.4375,11.25 c 0.55615,0.18539 1.85558,2.55603 2.90625,5.28125 1.05066,2.72522 2.73964,6.76875 3.75,8.96875 4.45174,9.69347 6.1424,13.5424 9.59375,22 2.01997,4.95 3.8664,9.68789 4.125,10.53125 0.51747,1.68755 -4.57757,13.19807 -6.15625,13.90625 -0.54352,0.24382 -1.225,-0.858 -1.5,-2.4375 -0.51729,-2.97115 -1.3926,-3.43719 -9.25,-4.90625 l -3.75,-0.6875 0,4.90625 c 0,6.04116 -2.53408,9.66768 -7.78125,11.125 -6.81792,1.89357 -11.72521,0.45138 -16.59375,-4.9375 -3.11207,-3.44469 -3.625,-4.69419 -3.625,-8.875 0,-3.92789 0.50948,-5.38449 2.65625,-7.53125 1.46114,-1.46115 3.71114,-2.89526 5,-3.21875 1.28886,-0.32348 2.34375,-0.94638 2.34375,-1.375 0,-0.42863 -1.36625,-3.75019 -3.0625,-7.375 l -3.09375,-6.59375 -3.65625,1.53125 c -2.01625,0.84093 -5.15,2.95748 -6.9375,4.6875 -1.7875,1.73002 -3.25,2.61096 -3.25,1.96875 0,-3.63073 12.25007,-26.21875 14.21875,-26.21875 0.54463,0 3.06333,1.38599 5.59375,3.09375 l 4.625,3.09375 1.78125,-2.1875 c 0.98684,-1.21869 1.78125,-2.86094 1.78125,-3.625 0,-0.76407 0.44909,-1.375 1,-1.375 0.55092,0 2.63272,-2.28939 4.625,-5.0625 1.99227,-2.7731 4.10009,-4.87288 4.65625,-4.6875 z m 184.96875,0.90625 c -0.11479,0.10355 -0.24063,0.26968 -0.40625,0.46875 0.16568,-0.19924 0.32268,-0.36511 0.4375,-0.46875 -0.009,0.008 -0.0215,-0.009 -0.0312,0 z m -0.40625,0.46875 c -0.66249,0.79627 -1.70177,2.31069 -3,4.34375 1.29871,-2.03454 2.33728,-3.54679 3,-4.34375 z m -64.21875,3.40625 c 0.34835,-0.008 1.56764,1.06318 3.3125,2.8125 -1.75301,-1.75815 -2.9632,-2.82034 -3.3125,-2.8125 z m -0.4375,0.15625 c -0.62146,0.31315 -1.79329,1.08082 -3.3125,2.125 1.52833,-1.05352 2.68904,-1.81006 3.3125,-2.125 z m -3.34375,2.125 c -2.04246,1.40469 -4.67688,3.34439 -7.46875,5.46875 2.78352,-2.11801 5.43337,-4.06511 7.46875,-5.46875 z m 9,2.5 c 7.89832,8.29078 21.93847,24.73829 23.09375,27.53125 -1.15497,-2.79154 -15.19058,-19.23433 -23.09375,-27.53125 z m 192.03125,11.625 c 0.15731,0.0234 0.37127,0.10213 0.59375,0.1875 0.85357,0.32755 1.53125,0.75259 1.53125,0.96875 0,0.80991 -1.88149,0.35646 -2.46875,-0.59375 -0.26275,-0.42514 -0.12815,-0.63285 0.34375,-0.5625 z m 12.25,8.5625 c 0.30009,0 1.63724,2.34026 2.96875,5.21875 1.33152,2.87848 3.86875,7.41696 5.65625,10.09375 1.7875,2.67678 3.25,5.51152 3.25,6.28125 0,2.00906 1.11574,1.76782 7.625,-1.65625 l 5.78125,-3.0625 1.34375,4.3125 c 5.57149,17.97775 12.52354,52.85146 10.875,54.5 -0.29779,0.29778 -1.27386,-1.31035 -2.1875,-3.59375 -2.13722,-5.34145 -10.34196,-12.54867 -17.21875,-15.125 -10.15923,-3.80608 -24.45406,-1.55173 -30.40625,4.78125 -3.12574,3.32572 -6.8125,10.04552 -6.8125,12.46875 0,0.97065 -0.45,1.78125 -1,1.78125 -0.55,0 -1,-0.2023 -1,-0.4375 0,-5.88706 -4.93408,-28.64466 -7.125,-32.8125 -0.73514,-1.39847 -0.3783,-2.00113 1.84375,-2.96875 1.53313,-0.66762 4.45281,-2.29648 6.46875,-3.59375 l 3.65625,-2.34375 -4.125,-7.84375 c -2.27475,-4.31522 -4.40673,-7.69284 -4.71875,-7.5 -0.31202,0.19284 -0.64414,-0.68958 -0.75,-1.96875 -0.12807,-1.54744 0.69796,-2.93348 2.46875,-4.09375 2.62216,-1.7181 2.69436,-1.69277 5,1.15625 1.28711,1.59045 2.60859,3.92605 2.9375,5.1875 0.3289,1.26146 0.89633,2.16146 1.25,2 6.65729,-3.03911 12.02925,-6.21844 11.3125,-6.6875 -1.20385,-0.78784 -6.21875,-8.79941 -6.21875,-9.9375 0,-0.74939 7.48177,-4.15625 9.125,-4.15625 z m -166.5625,7.4375 c -0.24649,0.53223 -0.42755,1.01289 -0.5,1.375 0.0751,-0.36572 0.25629,-0.84399 0.5,-1.375 z m -14.5625,0.1875 c 0,0.14198 -0.13294,0.3645 -0.3125,0.625 0.18878,-0.27059 0.3125,-0.47944 0.3125,-0.625 z m -0.6875,1.09375 c -0.0942,0.11109 -0.16908,0.22222 -0.28125,0.34375 0.11235,-0.12153 0.18657,-0.2325 0.28125,-0.34375 z m 14.75,0.59375 c 0.0752,0.17524 0.25478,0.38768 0.53125,0.65625 -0.27647,-0.26779 -0.45604,-0.48125 -0.53125,-0.65625 z m 2.09375,1.9375 c 0.65703,0.47395 1.44636,0.96739 2.3125,1.5 -0.86614,-0.53158 -1.65547,-1.02743 -2.3125,-1.5 z m 11.9375,6.96875 c 6.08179,3.52462 13.29251,7.8995 16.96875,10.28125 -3.66777,-2.37738 -10.87986,-6.75268 -16.96875,-10.28125 z m -115.5,1 c -3.11372,2.43685 -5.42443,4.30666 -6.53125,5.25 1.10136,-0.93969 3.40468,-2.80313 6.53125,-5.25 z m -7.21875,5.875 c -0.0792,0.0965 -0.19037,0.36227 -0.3125,0.78125 0.1221,-0.41903 0.2333,-0.6847 0.3125,-0.78125 z m -0.3125,0.78125 c -0.24427,0.83796 -0.55998,2.27229 -0.9375,4.1875 0.37737,-1.91543 0.6933,-3.34943 0.9375,-4.1875 z m -0.9375,4.1875 c -0.94381,4.78801 -2.22175,12.51563 -3.4375,20.9375 1.21575,-8.42187 2.49407,-16.14892 3.4375,-20.9375 z m -3.4375,20.9375 c -1.55886,10.79866 -2.68716,18.82036 -3.40625,24.65625 0.72116,-5.83182 1.84981,-13.87435 3.40625,-24.65625 z m -94.1875,-25.59375 c 0.60287,0.0646 1.0682,1.62769 1.125,4.5 0.26989,13.64833 14.69546,26.71125 29.21875,26.4375 6.54182,-0.1233 13.70721,-2.28802 18.3125,-5.5 4.31608,-3.01027 4.8113,-2.25178 2.78125,4.40625 -1.0481,3.4375 -2.55853,9.88468 -3.34375,14.34375 -0.78522,4.45907 -2.24285,9.85907 -3.25,12 -2.06277,4.38487 -2.36435,4.4504 -15.34375,3.3125 -4.125,-0.36163 -14.43825,-1.18107 -22.9375,-1.8125 -9.96892,-0.7406 -15.75143,-1.58137 -16.28125,-2.375 -0.4517,-0.67664 -0.5256,-3.91875 -0.15625,-7.21875 0.36935,-3.3 0.6543,-6.675 0.625,-7.5 -0.10594,-2.98724 3.80595,-24.94761 5.375,-30.15625 0.88438,-2.93584 1.9298,-6.44063 2.3125,-7.78125 0.5249,-1.83875 1.0936,-2.70652 1.5625,-2.65625 z m 374.625,6.5 c -3.57023,-0.15946 -7.11535,2.13476 -7.09375,6.5 0.0178,3.59987 0.60218,4.60238 3.96875,6.90625 3.00942,2.05947 3.37905,2.05889 6.9375,0.21875 3.35136,-1.73306 4.31728,-4.57732 2.90625,-8.625 -1.14114,-3.27348 -3.9419,-4.87597 -6.71875,-5 z m -99.6875,19.0625 c 1.03421,0.61032 2.40424,1.44899 3.84375,2.375 -1.43951,-0.92601 -2.80634,-1.77056 -3.84375,-2.375 z m -256.21875,12.46875 c -3.32216,0.32077 -6.21875,3.15906 -6.21875,7.46875 0,3.98432 1.9467,6.56168 5.5,7.28125 7.33142,1.48466 11.88411,-6.95985 6.65625,-12.375 -1.77513,-1.83872 -3.9442,-2.56746 -5.9375,-2.375 z m 363.125,5.6875 c 4.30728,-0.22602 8.24536,1.43286 11.75,4.9375 3.39443,3.39443 3.90625,4.52685 3.90625,8.375 0,5.385 -1.28838,8.44695 -4.65625,10.9375 -3.32996,2.4625 -13.71327,3.18019 -17.84375,1.25 -1.65,-0.77106 -4.28422,-2.77747 -5.875,-4.46875 -2.62706,-2.79304 -2.83864,-3.51819 -2.25,-7.875 0.83347,-6.16891 3.24938,-9.34467 8.875,-11.6875 2.10584,-0.87699 4.1359,-1.36601 6.09375,-1.46875 z m -168.8125,5.1875 c -3.38868,5.18111 -5.78347,8.90625 -6.40625,9.9375 0.62278,-1.03125 3.01974,-4.75431 6.40625,-9.9375 z m -6.40625,9.9375 c -0.62278,1.03125 -1.23358,1.94531 -1.71875,2.625 0.48572,-0.67816 1.10155,-1.60299 1.71875,-2.625 z m -233.46875,0.0312 c -0.15636,0.0717 -0.38944,0.40327 -0.71875,0.96875 -0.56304,0.96686 -0.74347,2.20436 -0.40625,2.75 1.03395,1.67296 1.4693,1.12574 1.4375,-1.75 -0.0163,-1.47435 -0.0519,-2.08824 -0.3125,-1.96875 z m 228.625,1.28125 c 0.73454,0.9555 1.38701,1.7175 1.78125,2.125 -0.39175,-0.40478 -1.0492,-1.17221 -1.78125,-2.125 z m 2.28125,2.34375 c -0.0571,0.0502 -0.0967,0.0937 -0.125,0.0937 0.0304,0 0.0615,-0.0364 0.125,-0.0937 z m -114.28125,0.0312 c 0.0386,0.47503 0.11019,0.79162 0.21875,0.9375 -0.10839,-0.14573 -0.18058,-0.46287 -0.21875,-0.9375 z m 185.625,0.125 c 3.15652,0.0763 5.11009,0.25018 6.59375,0.59375 -1.48216,-0.34276 -3.43842,-0.5181 -6.59375,-0.59375 z m 10.40625,2.25 c 0.52306,0.31664 1.0712,0.69986 1.625,1.125 -0.55318,-0.42466 -1.10194,-0.80836 -1.625,-1.125 z m 1.625,1.125 c 0.5538,0.42514 1.10368,0.89904 1.625,1.375 -0.52544,-0.48072 -1.0658,-0.94572 -1.625,-1.375 z m 67.59375,-0.9375 2.34375,4.5 c 4.03072,7.6973 6.64399,10.36309 13.53125,13.875 5.61858,2.86499 7.74301,3.40725 13.40625,3.40625 11.02814,-0.003 20.87247,-6.267 25.40625,-16.15625 1.40639,-3.06768 2.28502,-4.02748 3.03125,-3.28125 1.08263,1.08263 0.2376,10.75487 -2.84375,32.5625 -0.77139,5.45937 -1.40625,10.29687 -1.40625,10.75 0,1.97985 -4.57562,0.39917 -16.125,-5.5625 -16.80252,-8.67331 -19.04162,-9.89595 -20.625,-11.34375 -0.75188,-0.6875 -1.73777,-1.25 -2.1875,-1.25 -0.98135,0 -14.04778,-7.58143 -15.03125,-8.71875 -0.37951,-0.4389 -0.42365,-4.83125 -0.0937,-9.78125 l 0.59375,-9 z m -98.1875,5 c 0.25107,1.81438 0.40194,4.33317 0.53125,7.8125 -0.12967,-3.49572 -0.27858,-5.99631 -0.53125,-7.8125 z m 0.53125,7.8125 c 0.13273,3.57133 0.22913,8.15638 0.3125,14.03125 -0.0834,-5.87487 -0.18003,-10.45998 -0.3125,-14.03125 z m 15,-6.21875 c -0.28641,-8.4e-4 -0.5275,0.0278 -0.75,0.0625 0.2228,-0.0341 0.46359,-0.0633 0.75,-0.0625 z m -116.40625,1.9375 c 0.069,1.7777 0.0739,3.44039 0,4.625 0.0727,-1.18456 0.0717,-2.84742 0,-4.625 z m 0,4.625 c -0.037,0.59231 -0.10589,1.06292 -0.1875,1.375 0.0816,-0.31208 0.15113,-0.78272 0.1875,-1.375 z m -165.96875,-4.15625 10,0 10,0 1.25,8.5 c 0.68788,4.675 1.13788,10.075 1,12 l -0.25,3.5 -8.5,1.6875 c -4.675,0.93614 -9.2587,1.7236 -10.1875,1.75 -2.03137,0.0576 -2.72042,-4.03471 -3.0625,-17.9375 l -0.25,-9.5 z m 43.125,1 c 0.63255,-0.01 1.32079,0.0152 2.125,0.0625 1.7875,0.10516 4.84264,0.2437 6.78125,0.3125 4.12614,0.14633 4.99515,1.68591 6.03125,10.84375 l 0.65625,5.9375 -8.65625,0.9375 c -4.76264,0.52334 -9.06268,0.71516 -9.5625,0.40625 -0.49981,-0.3089 -1.22179,-4.2274 -1.59375,-8.6875 -0.66498,-7.97374 -0.20912,-9.74419 4.21875,-9.8125 z m 113.875,1.59375 c -0.55698,0.0174 -1.19852,0.0596 -1.90625,0.0937 1.41546,-0.0683 2.48511,-0.10656 3.34375,-0.0937 -0.42217,-0.006 -0.89237,-0.017 -1.4375,0 z m 2.59375,0.0625 c 0.62992,0.0755 1.08234,0.23322 1.4375,0.46875 -0.36039,-0.23976 -0.79079,-0.39432 -1.4375,-0.46875 z m 1.4375,0.46875 c 0.18077,0.11988 0.357,0.26576 0.5,0.4375 -0.14661,-0.1798 -0.31347,-0.3134 -0.5,-0.4375 z m -41.96875,-0.25 c 0.0412,1.09449 0.093,1.92357 0.1875,2.59375 -0.0924,-0.66617 -0.14683,-1.51435 -0.1875,-2.59375 z m 0.25,2.90625 c 0.0469,0.27177 0.0966,0.51935 0.15625,0.71875 -0.0568,-0.19788 -0.11133,-0.45279 -0.15625,-0.71875 z m 46.1875,0.625 c -0.10771,0.24448 -0.25001,0.43998 -0.375,0.59375 0.13136,-0.15654 0.26254,-0.33903 0.375,-0.59375 z m -45.8125,0.65625 c 0.0494,0.084 0.10049,0.12947 0.15625,0.1875 -0.0491,-0.0541 -0.11223,-0.11262 -0.15625,-0.1875 z m 44.15625,0.0937 c 0.086,0.0625 0.1352,0.11887 0.21875,0.15625 -0.0783,-0.0354 -0.13829,-0.0986 -0.21875,-0.15625 z m 1.09375,0.0312 c -0.19895,0.16292 -0.3976,0.22665 -0.625,0.1875 0.22842,0.0386 0.42517,-0.0241 0.625,-0.1875 z m 137.53125,3.09375 c -0.23011,0.75022 -0.53657,1.465 -0.84375,2.15625 0.31108,-0.69785 0.61142,-1.39803 0.84375,-2.15625 z m 60.03125,16.4375 c 3.56264,-0.27054 21.9876,10.20784 20.40625,11.75 -0.48722,0.47515 -4.05625,1.12377 -7.90625,1.40625 -3.85,0.28248 -7.12878,0.5304 -7.3125,0.5625 -0.18372,0.0321 0.9769,1.75 2.59375,3.8125 4.76261,6.07531 8.35822,12.24656 7.71875,13.28125 -0.58971,0.95416 -2.76055,1.31883 -3.5625,0.59375 -0.22917,-0.20719 -2.9125,-0.64846 -5.9375,-0.96875 -16.44613,-1.74131 -17.10269,-1.89334 -16.4375,-3.5625 1.53582,-3.85384 5.36907,-15.06796 7,-20.4375 0.97651,-3.21499 2.38527,-6.09114 3.125,-6.375 0.0828,-0.0318 0.19758,-0.0538 0.3125,-0.0625 z m -55.53125,1.90625 c 0.57022,1.34105 0.99258,2.74561 1.25,4.15625 -0.25936,-1.41089 -0.67665,-2.8148 -1.25,-4.15625 z m -245.09375,5.03125 c 0.0915,0.004 0.16447,0.0395 0.1875,0.0625 0.25427,0.25426 1.61797,3.76738 3.03125,7.8125 1.41328,4.04512 3.23749,8.65461 4.0625,10.25 0.82501,1.5954 1.26649,3.13975 0.96875,3.4375 -0.29775,0.29774 -2.03844,0.63777 -3.84375,0.75 -4.8519,0.30162 -57.88511,-1.26012 -58.34375,-1.71875 -0.216,-0.21601 -0.69435,-1.78422 -1.03125,-3.46875 -0.58858,-2.94287 -0.41216,-3.13145 4.25,-4.59375 13.04048,-4.09016 47.88345,-12.66878 50.71875,-12.53125 z m 217.0625,3.90625 c 0.26481,1.10326 0.69256,1.9207 1.34375,2.8125 -0.65119,-0.89082 -1.07894,-1.71147 -1.34375,-2.8125 z m 29.65625,0.8125 c 0.0683,0.64227 0.19384,1.15349 0.375,1.5625 -0.1805,-0.40819 -0.30724,-0.92085 -0.375,-1.5625 z m -172.1875,1.2189 c -0.0759,0.94165 -0.17508,1.73831 -0.3125,2.40625 0.13689,-0.66953 0.2371,-1.46311 0.3125,-2.40625 z m 146.84375,4.96875 c 0.0909,0.27823 0.0879,0.5127 0.0312,0.71875 0.0658,-0.21151 0.0635,-0.42903 -0.0312,-0.71875 z m -148.4375,0.21875 c -0.2967,0.29661 -0.6368,0.51977 -1.03125,0.71875 0.39422,-0.19968 0.73494,-0.42095 1.03125,-0.71875 z m 279.375,0.15625 c 0.47249,0.0372 0.71162,0.40473 1,1.15625 0.35531,0.92591 -0.8246,6.19476 -2.625,11.6875 -1.80039,5.49274 -4.07713,11.76788 -5.0625,13.96875 l -1.78125,4 -2.59375,-4.09375 c -1.42943,-2.26436 -2.625,-4.39442 -2.625,-4.71875 0,-0.32434 -1.2506,-2.48216 -2.8125,-4.78125 -2.39832,-3.53032 -2.73064,-4.67213 -2,-7.40625 0.92802,-3.47269 3.87728,-5.49364 9.8125,-6.75 1.925,-0.40748 4.75886,-1.37826 6.28125,-2.15625 1.23564,-0.63146 1.93377,-0.94347 2.40625,-0.90625 z m -260.15625,2.0625 c -0.67906,0.17871 -2.0436,0.35271 -3.75,0.5 1.72347,-0.14805 3.06622,-0.32001 3.75,-0.5 z m -7.625,0.75 c -2.77716,0.15366 -5.88239,0.27968 -8.59375,0.3125 2.71758,-0.0324 5.80734,-0.15828 8.59375,-0.3125 z m -13.78125,0.25 c 1.30585,0.0671 3.13189,0.0862 5.15625,0.0625 -2.03887,0.0243 -3.8426,0.005 -5.15625,-0.0625 z m 74.09375,0.875 c -0.70868,1.14871 -1.21875,1.98111 -1.21875,2.0625 0,-0.0809 0.51973,-0.92941 1.21875,-2.0625 z m 59.90625,5.28125 c 3.49434,3.97983 7.33247,8.26924 11.625,13 -4.30391,-4.74329 -8.12191,-9.0093 -11.625,-13 z m -34.21875,15.34375 c -0.64784,0.0451 -1.26335,0.0979 -1.90625,0.15625 0.63134,-0.058 1.27033,-0.11108 1.90625,-0.15625 z m -4.71875,0.4375 c -1.65635,0.20786 -3.12253,0.45199 -4.21875,0.71875 1.096,-0.2675 2.56907,-0.50893 4.21875,-0.71875 z m -179.40625,0.15625 c 3.64367,0.029 10.21875,0.85143 10.21875,1.53125 0,0.5334 -1.4142,2.76975 -3.15625,4.9375 -3.46822,4.31573 -4.05241,4.56392 -5.6875,2.59375 -1.41224,-1.70164 -4.17813,-8.2864 -3.6875,-8.78125 0.20418,-0.20593 1.09794,-0.29093 2.3125,-0.28125 z m -25.84375,0.40625 c 7.34873,0 7.99649,0.16561 8.65625,2.25 0.3917,1.2375 2.70133,6.41424 5.125,11.5 2.72815,5.72467 4.08993,9.74523 3.59375,10.5625 -0.4408,0.72605 -2.33801,3.42431 -4.21875,6 -1.88074,2.57569 -3.68074,4.6895 -4,4.6875 -1.64345,-0.009 -17.09375,-30.14583 -17.09375,-33.34375 0,-1.41273 1.20461,-1.65625 7.9375,-1.65625 z m 55.1875,0 c 0.3994,0 2.16779,2.3625 3.9375,5.25 1.76971,2.8875 4.96628,7.32367 7.09375,9.875 2.12747,2.55133 3.84375,5.03785 3.84375,5.53125 0,0.83557 -5.4619,5.6241 -20.46875,17.84375 -13.40008,10.9113 -19.38757,16.64534 -18.84375,18.0625 0.30165,0.78609 0.0163,1.4375 -0.625,1.4375 -0.64127,0 -0.90242,-0.45 -0.5625,-1 0.33992,-0.55 0.175,-1 -0.375,-1 -0.55,0 -1.28508,0.45 -1.625,1 -1.04762,1.69509 -2.15588,1.13718 -4.90625,-2.46875 l -2.625,-3.46875 4.65625,-7.28125 c 2.57425,-4.00403 5.96803,-9.08125 7.53125,-11.28125 1.56322,-2.2 4.91945,-7.15 7.46875,-11 2.5493,-3.85 5.39014,-8.096 6.28125,-9.40625 0.89112,-1.31025 2.04375,-3.11025 2.59375,-4 2.17623,-3.52055 5.93791,-8.09375 6.625,-8.09375 z m 124.46875,0.0625 c -2.05122,0.0695 -3.71267,0.18575 -4.84375,0.34375 1.13616,-0.158 2.78846,-0.27427 4.84375,-0.34375 z m 143.78125,0.0937 c 3.59877,-0.21199 10.90832,1.32937 28.625,4.84375 5.225,1.03646 13.6625,2.67967 18.75,3.65625 5.0875,0.97658 9.25,2.16224 9.25,2.65625 0,3.63915 -16.17583,31.19046 -23.75,40.4375 -1.91463,2.3375 -3.74751,4.22475 -4.09375,4.21875 -0.34625,-0.006 -2.45625,-1.6807 -4.65625,-3.75 -2.2,-2.06931 -8.25312,-7.36273 -13.46875,-11.75 -15.62636,-13.14455 -14.88105,-12.27573 -12.53125,-14.3125 2.452,-2.12535 6.5,-7.75426 6.5,-9.03125 0,-0.51494 -2.19852,-2.3562 -4.90625,-4.09375 -7.19657,-4.61803 -7.41026,-5.06092 -4.5,-9.34375 1.45269,-2.13782 1.98221,-3.36637 4.78125,-3.53125 z m -121.5,3.25 c 0.52954,0.27383 0.95686,0.51552 1.3125,0.78125 -0.35405,-0.2663 -0.78296,-0.50742 -1.3125,-0.78125 z m -24.84375,0.43755 c 0.0821,0.0962 0.17661,0.19815 0.25,0.3125 -0.078,-0.12145 -0.16213,-0.21133 -0.25,-0.3125 z m 0.25,0.3125 c 0.22017,0.34304 0.40855,0.78247 0.5625,1.375 -0.15415,-0.59253 -0.3422,-1.03196 -0.5625,-1.375 z m 0.5625,1.375 c 0.20527,0.79004 0.34232,1.87273 0.46875,3.375 -0.12669,-1.50227 -0.26322,-2.58496 -0.46875,-3.375 z m 84.4375,-1.28125 c 0.8383,1.04579 1.53029,1.94809 2,2.625 -0.46967,-0.67481 -1.16176,-1.582 -2,-2.625 z m -58.78125,0.21875 c 0.20517,0.20113 0.37982,0.431 0.53125,0.71875 -0.15387,-0.29618 -0.32012,-0.51335 -0.53125,-0.71875 z m 12.15625,3.125 c -0.13715,2.3498 -0.15625,5.91898 -0.15625,11.59375 0,-5.67477 0.0217,-9.24499 0.15625,-11.59375 z m 49.15625,0.125 c 0.12374,0.22237 0.18754,0.37837 0.1875,0.46875 4e-5,-0.0904 -0.0638,-0.24699 -0.1875,-0.46875 z m -139.75,4.90625 c -0.93775,1.20199 -1.71828,2.14408 -2.25,2.6875 0.5298,-0.54355 1.31663,-1.48522 2.25,-2.6875 z m -2.6875,3.09375 c -0.18609,0.13767 -0.32981,0.25597 -0.46875,0.375 0.13487,-0.11432 0.29075,-0.24332 0.46875,-0.375 z m -1.125,1.34375 c -0.004,0.29496 0.15301,0.63129 0.46875,1.0625 -0.32509,-0.44363 -0.48311,-0.76158 -0.46875,-1.0625 z m 68.1875,6.71875 c 0.12479,2.10324 0.28513,3.89675 0.5,5.40625 -0.215,-1.51058 -0.37515,-3.30246 -0.5,-5.40625 z m 0.5,5.40625 c 0.14325,1.00633 0.3012,1.89833 0.5,2.6875 -0.1989,-0.78999 -0.35666,-1.68045 -0.5,-2.6875 z m 0.5,2.6875 c 0.1988,0.78917 0.42074,1.45312 0.6875,2.0625 -0.26047,-0.6017 -0.49235,-1.28739 -0.6875,-2.0625 z m 59.21875,-7.25 c -1.18805,0.85205 -2.35818,1.47896 -4.03125,2.34375 1.67307,-0.86479 2.84598,-1.48783 4.03125,-2.34375 z m -34.1875,0.3125 c -0.0469,2.56595 -0.14455,4.70008 -0.3125,6.5 0.16786,-1.79995 0.26564,-3.93403 0.3125,-6.5 z m -0.75,9.6875 c -0.37657,1.88028 -0.9288,3.30301 -1.71875,4.53125 0.78984,-1.22828 1.34231,-2.65092 1.71875,-4.53125 z m -1.71875,4.53125 c -0.39498,0.61412 -0.84965,1.17085 -1.375,1.71875 0.52531,-0.54791 0.98008,-1.10461 1.375,-1.71875 z m -20.9375,-3.59375 c 0.17836,0.23993 0.36044,0.44645 0.5625,0.65625 -0.19602,-0.2052 -0.38889,-0.42241 -0.5625,-0.65625 z m 98.25,2.125 5.09375,5.71875 5.09375,5.71875 4.46875,-4.5625 c 2.45201,-2.51094 4.89113,-4.5625 5.40625,-4.5625 0.88231,0 28.80557,28.45806 29.40625,29.96875 0.39636,0.99682 -12.95078,13.81188 -21.28125,20.4375 -6.13052,4.8759 -9.5,6.67928 -9.5,5.09375 0,-0.26387 0.73272,-2.30123 1.625,-4.53125 2.95211,-7.37805 -0.11637,-17.15255 -6.9375,-22.09375 -4.7026,-3.40655 -9.34435,-3.71894 -17.375,-1.1875 -4.87758,1.53752 -5.47485,1.55639 -6.90625,0.125 -1.25054,-1.25055 -1.36902,-2.03656 -0.46875,-3.71875 0.86549,-1.61718 2.08195,-2.09375 5.15625,-2.09375 2.37255,0 3.79454,-0.4223 3.4375,-1 -0.33305,-0.53888 0.10324,-3.04446 0.96875,-5.59375 1.85826,-5.47338 1.05329,-7.03441 -4.09375,-8 -1.86974,-0.35076 -3.36515,-1.15496 -3.34375,-1.78125 0.0215,-0.62629 2.11658,-2.66139 4.65625,-4.53125 l 4.59375,-3.40625 z m -219.6875,4.3125 c 0.67724,0 2.22812,1.64886 3.46875,3.65625 l 2.28125,3.625 -2.3125,1.875 c -3.07138,2.48705 -5.07584,2.29741 -7.9375,-0.71875 l -2.40625,-2.53125 2.84375,-2.96875 c 1.55827,-1.62647 3.38526,-2.9375 4.0625,-2.9375 z m 20.78125,0 c 0.34356,0 4.6516,2.88436 9.5625,6.4375 4.91091,3.55314 10.50909,7.14995 12.46875,7.96875 4.45656,1.86206 4.53202,2.5684 0.21875,2.40625 -4.76801,-0.17925 -11.97118,3.61775 -16.40625,8.65625 -10.8673,12.34592 -13.18045,28.34814 -5.6875,39.375 1.35074,1.98781 2.4375,3.95268 2.4375,4.375 0,1.54872 -2.64709,0.62514 -10,-3.5 -9.91627,-5.56327 -19.06613,-11.74342 -19.65625,-13.28125 -0.26049,-0.6788 0.66931,-3.42218 2.0625,-6.09375 3.49578,-6.70347 4.37288,-14.94711 2.09375,-19.75 -1.88834,-3.97939 -1.43921,-5.65468 0.96875,-3.65625 3.62559,3.00897 13.46542,0.32834 17.84375,-4.875 2.8126,-3.34259 4.82845,-11.0856 4,-15.3125 -0.29641,-1.5125 -0.24981,-2.75 0.0937,-2.75 z m -41.59375,16.84375 c 1.01979,-0.0251 2.67084,1.22252 3.3125,2.90625 2.22248,5.83181 2.09981,7.98368 -0.65625,14.125 -1.50717,3.35843 -3.24383,6.125 -3.875,6.125 -1.39987,0 -11.605,-10.1759 -11.5625,-11.53125 0.0167,-0.5327 2.68737,-2.99375 5.9375,-5.46875 3.25013,-2.475 5.93555,-4.8375 5.96875,-5.25 0.0484,-0.60175 0.41146,-0.89483 0.875,-0.90625 z m 207.78125,1.40625 c 0.97473,-0.0334 1.27406,1.2366 1.59375,5.65625 0.92143,12.73865 8.97826,18.64305 23.875,17.53125 9.68256,-0.72265 12.9375,0.44333 12.9375,4.53125 0,2.53351 -0.59503,3.23937 -3.75,4.5625 -2.25279,0.94473 -5.00356,1.35387 -6.90625,1 l -3.15625,-0.59375 -0.71875,6.6875 c -0.62452,5.8316 -0.49616,6.86867 1.09375,8.03125 1.00393,0.73409 2.77387,1.3575 3.90625,1.375 1.91507,0.0296 1.92582,0.11867 0.3125,1.34375 -0.9539,0.72439 -1.40395,1.67871 -1,2.125 0.40395,0.4463 0.21375,0.49823 -0.4375,0.125 -0.65126,-0.37324 -4.02626,0.71305 -7.5,2.40625 -3.47375,1.6932 -7.03203,3.47112 -7.90625,3.9375 -2.18993,1.16831 -2.96527,0.38167 -6.5,-6.5 -3.33317,-6.48928 -8.602,-10.95526 -14.1875,-12.0625 -1.7875,-0.35435 -3.25,-0.8268 -3.25,-1.0625 0,-0.2357 0.9,-2.18757 2,-4.34375 4.6103,-9.03693 1.19928,-20.62742 -7.09375,-24.0625 -1.59567,-0.66095 -2.90625,-1.46123 -2.90625,-1.8125 0,-0.57446 15.12707,-7.52141 19.125,-8.78125 0.16838,-0.0531 0.3295,-0.089 0.46875,-0.0937 z m -117.78125,7.96875 c 0.40173,-0.0468 1.00298,0.17852 1.84375,0.625 1.01606,0.53957 4.99375,1.85418 8.84375,2.9375 5.79432,1.63042 6.96126,2.29702 6.65625,3.84375 -1.35453,6.86886 -4.41318,20.41475 -8.15625,36.125 -5.06531,21.25985 -3.39862,19.88929 -19,15.15625 -11.04791,-3.35165 -10.28578,-3.17768 -9.5,-1.90625 0.706,1.14233 -0.56477,1.27823 -3,0.34375 -1.13176,-0.4343 -1.27585,-0.86424 -0.5,-1.34375 0.6455,-0.39893 -1.51285,-1.65756 -4.9375,-2.90625 -3.3319,-1.21487 -6.0625,-2.47335 -6.0625,-2.78125 0,-0.30791 2.04088,-0.24845 4.53125,0.125 2.61738,0.3925 6.88544,0.15549 10.09375,-0.5625 5.45784,-1.22141 5.54218,-1.29027 5,-4.3125 -0.30324,-1.69036 -0.85871,-4.975 -1.21875,-7.3125 -0.53394,-3.46652 -1.05028,-4.2625 -2.78125,-4.25 -1.74266,0.0126 -1.85674,0.19256 -0.625,1 1.062,0.69616 0.47799,0.80094 -2,0.375 -11.90875,-2.04699 -14.01923,-3.41885 -14.71875,-9.625 -0.63148,-5.60243 2.41786,-12.7278 6.84375,-16 1.72577,-1.27595 2.45086,-2.41797 1.8125,-2.8125 -1.92048,-1.18692 7.51936,-0.37006 9.75,0.84375 2.95016,1.60536 6.3125,6.06548 6.3125,8.34375 0,1.02583 0.3375,1.86175 0.75,1.84375 1.22336,-0.0532 10.6509,-3.43715 12.09375,-4.34375 1.48845,-0.93525 0.97906,-4.09778 -1.53125,-9.40625 -1.2119,-2.56277 -1.38382,-3.89707 -0.5,-4 z m 61.71875,7.625 c 3.45655,-0.0164 6.88136,0.20605 7.28125,0.65625 0.9998,1.12559 3.23212,14.06142 6.1875,35.9375 2.60196,19.26006 2.57113,20.20879 -0.25,20.875 -1.2375,0.29224 -5.7375,0.83674 -10,1.21875 l -7.75,0.6875 -0.0937,-4.875 c -0.0651,-2.67712 -0.0529,-5.24929 0.0312,-5.71875 0.0841,-0.46946 -0.1377,-1.70696 -0.46875,-2.75 -0.55135,-1.73717 -1.70795,-1.875 -13.9375,-1.875 -7.34295,0 -14.06752,-0.29115 -14.9375,-0.625 -1.71755,-0.65908 -2.10601,-4.99133 -0.65625,-7.28125 0.6832,-1.07911 2.4015,-1.27985 7.40625,-0.8125 l 6.5,0.625 0.34375,-5.96875 c 0.42474,-7.5377 0.26469,-7.9375 -3.125,-7.9375 -5.95958,0 -9.04725,-1.15267 -9.03125,-3.375 0.0328,-4.55438 1.04736,-4.90073 13.09375,-4.5 l 11.34375,0.375 0.125,-6.78125 c 0.0723,-3.72251 0.31209,-6.94463 0.53125,-7.15625 0.47053,-0.45432 3.9497,-0.70231 7.40625,-0.71875 z m 28.6875,8.25 c 1.68758,-0.0386 2.78518,0.5552 3.875,2 1.91295,2.53607 1.58012,4.33856 -1.40625,7.65625 -1.11391,1.2375 -2.37772,2.25 -2.8125,2.25 -1.36017,0 -2.89409,-3.82848 -3.125,-7.75 -0.20489,-3.47945 -0.0242,-3.78487 2.6875,-4.09375 0.26635,-0.0303 0.54017,-0.057 0.78125,-0.0625 z m -73.25,20.90625 c 0.51754,0 1.19133,0.45 1.53125,1 0.33992,0.55 -0.08,1 -0.9375,1 -0.85746,0 -1.5625,-0.45 -1.5625,-1 0,-0.55 0.45121,-1 0.96875,-1 z m 77.28125,6 c 1.2375,0.0121 4.11676,0.88071 6.375,1.90625 3.10532,1.41023 4.64718,2.99535 6.34375,6.5 1.23378,2.54865 2.02945,5.20927 1.75,5.9375 -0.27945,0.72823 -2.71243,1.89945 -5.375,2.59375 -2.66257,0.69431 -5.56975,1.45439 -6.46875,1.6875 -1.3008,0.33728 -1.96441,-1.02597 -3.25,-6.71875 -2.24975,-9.96216 -2.15514,-11.93335 0.625,-11.90625 z"
       id="path4436"
       style="fill:#ff0000" />
    <path
       d="m 378.14354,132.76054 c -0.95209,0.0119 -9.26844,13.66199 -15.84375,26 -1.61212,3.025 -3.78293,6.69635 -4.8125,8.15625 -1.02958,1.4599 -1.84775,3.2599 -1.84375,4 0.004,0.7401 3.26618,3.08246 7.25,5.21875 7.05455,3.78294 24.36136,14.18761 26.09375,15.6875 0.47553,0.4117 -6.52518,11.93428 -15.5625,25.59375 -9.03733,13.65948 -17.44194,26.53125 -18.6875,28.59375 -1.24556,2.0625 -2.4608,3.75 -2.6875,3.75 -0.22669,0 -1.72461,-1.80797 -3.3125,-4 -1.5879,-2.19203 -5.83765,-7.25453 -9.46875,-11.25 -3.6311,-3.99547 -9.42805,-10.59522 -12.875,-14.6875 -3.44696,-4.09229 -8.86875,-10.50928 -12.03125,-14.25 -3.1625,-3.74073 -5.75,-7.17394 -5.75,-7.625 0,-0.45106 1.2375,-1.75201 2.75,-2.875 1.5125,-1.12299 6.42408,-5.19028 10.90625,-9.0625 4.48216,-3.87221 10.66966,-8.91193 13.75,-11.1875 3.08033,-2.27558 5.59375,-4.71543 5.59375,-5.4375 0,-2.17549 -26.51715,-32.63545 -28.375,-32.59375 -0.61409,0.0138 -5.66627,3.50128 -11.25,7.75 -5.58372,4.24872 -19.98372,15.18488 -32,24.3125 -12.01627,9.12763 -22.36637,17.22763 -23,18 -0.63362,0.77238 -2.7423,12.43125 -4.6875,25.90625 -4.15695,28.79643 -5.13558,37.99705 -4,37.96875 0.66499,-0.0166 27.21676,-19.32992 33.34375,-24.25 9.67894,-7.77237 17.23767,-12.86711 17.96875,-12.125 0.48588,0.49319 2.14018,2.56935 3.6875,4.59375 11.47904,15.01832 24.51254,31.41142 30.03125,37.8125 6.39838,7.42139 12.28125,14.84702 12.28125,15.5 0,0.43872 -2.15626,4.00703 -4.8125,7.90625 -14.92471,21.90865 -19.30158,28.19268 -27.09375,38.96875 -4.72334,6.53209 -10.95573,15.30709 -13.84375,19.5 -2.88801,4.19292 -5.96891,8.17344 -6.875,8.84375 -1.42403,1.05347 -1.45875,1.44261 -0.25,2.90625 2.59865,3.14665 15.79291,10.99784 24,14.28125 3.86039,1.54442 4.38478,1.30825 6.6875,-3.15625 1.20564,-2.3375 4.61561,-8.075 7.59375,-12.75 2.97814,-4.675 7.51716,-11.875 10.0625,-16 2.54533,-4.125 6.41327,-10.35102 8.59375,-13.84375 2.18048,-3.49272 3.9375,-6.5179 3.9375,-6.71875 0,-0.20086 2.5649,-4.30326 5.6875,-9.09375 l 5.6875,-8.71875 1.5625,2.40625 c 0.8649,1.32106 2.72438,3.7745 4.125,5.4375 1.40062,1.663 4.97839,6.40625 7.96875,10.53125 2.99036,4.125 11.30972,15.38426 18.46875,25.03125 7.15902,9.647 13.73628,18.65207 14.625,20 1.53385,2.32642 1.7622,2.35263 4.5,0.9375 4.46151,-2.3061 5.32022,-2.98707 12.59375,-10.46875 3.7429,-3.85 6.78098,-7.58948 6.78125,-8.3125 2.6e-4,-0.72302 -4.1625,-5.92436 -9.25,-11.53125 -17.21563,-18.97318 -26.95658,-30.64144 -37.6875,-45.15625 -2.43972,-3.3 -5.75903,-7.4367 -7.375,-9.1875 l -2.9375,-3.1875 5.78125,-9.3125 c 5.60394,-9.01213 7.93859,-12.64524 19.65625,-30.8125 3.01532,-4.675 7.66828,-12.2125 10.34375,-16.75 2.67548,-4.5375 5.20409,-8.25 5.625,-8.25 0.4209,0 3.04534,1.35 5.84375,3 2.79841,1.65 5.30324,3 5.5625,3 0.25926,0 2.83973,1.49173 5.71875,3.34375 9.28646,5.97376 32.79106,19.65625 33.78125,19.65625 0.93802,0 1.24005,-1.45267 1.15625,-5.5 -0.0228,-1.1 -1.21255,-6.5 -2.65625,-12 -1.4437,-5.5 -3.93272,-16.55543 -5.53125,-24.5625 -1.59852,-8.00708 -3.35864,-15.74718 -3.90625,-17.1875 -0.96862,-2.54768 -3.15447,-4.03522 -15.625,-10.75 -13.19018,-7.10228 -26.08041,-14.1448 -27.5,-15.03125 -17.01685,-10.62595 -27.65837,-16.97885 -28.46875,-16.96875 z m 37.21875,117 c -12.44672,-0.004 -14.75,0.23423 -14.75,1.5 0,0.825 0.64859,1.5 1.40625,1.5 3.04197,0 3.44779,2.84426 3.78125,26.34375 l 0.3125,23.84375 -2.75,2.1875 c -1.5125,1.2062 -2.75,2.57067 -2.75,3.03125 0,0.46059 1.40625,0.5625 3.125,0.21875 1.71875,-0.34375 6.44375,-0.625 10.5,-0.625 8.19657,0 8.74505,-0.5882 4.875,-5.1875 -2.17532,-2.58522 -2.5,-3.94704 -2.5,-10.40625 l 0,-7.40625 4.5,0 c 3.72594,0 5.16751,0.5992 8.34375,3.46875 5.58741,5.04789 7.73884,13.10534 4.46875,16.71875 -1.64171,1.81407 -1.39874,1.87531 7.6875,1.59375 9.6569,-0.29925 12.14653,-1.49088 7.53125,-3.59375 -2.16381,-0.98589 -2.53125,-1.81134 -2.53125,-5.71875 0,-5.65794 -2.85017,-11.49593 -7.4375,-15.15625 -3.39267,-2.70708 -3.44352,-2.79759 -1.65625,-4.78125 4.30077,-4.77337 5.4109,-15.03142 2.15625,-19.96875 -1.06667,-1.61813 -3.65779,-3.98346 -5.75,-5.25 -3.51353,-2.12696 -4.93888,-2.3075 -18.5625,-2.3125 z m -119.65625,0.65625 c -4.19813,-0.0284 -9.90625,0.0174 -16.09375,0.125 l -22.5,0.40625 0,8.90625 c -0.0131,6.85357 0.29674,8.90625 1.34375,8.90625 0.74838,0 1.5939,-0.89381 1.875,-1.96875 0.53466,-2.04453 6.53674,-3.57187 11.28125,-2.875 2.68201,0.39394 2.58685,-0.54959 3,23.5625 0.2899,16.91954 -0.0282,18.53208 -4.0625,19.8125 -1.05033,0.33336 -1.9375,1.04108 -1.9375,1.59375 0,0.95579 22.86744,0.18063 23.96875,-0.8125 0.25351,-0.22861 -0.7485,-1.41184 -2.25,-2.625 l -2.75,-2.1875 -0.21875,-19.5 -0.25,-19.5 6.09375,-0.3125 c 5.66182,-0.27334 6.13796,-0.12208 7.21875,2.25 1.38412,3.03779 2.76647,3.27929 3.46875,0.59375 0.65289,-2.49663 -0.2174,-15.36809 -1.09375,-16.09375 -0.18208,-0.15077 -2.89562,-0.25283 -7.09375,-0.28125 z m 124.78125,8.4375 c 0.57282,0.002 1.27656,0.0823 2.1875,0.1875 4.22977,0.48859 6.77544,2.73735 7.03125,6.21875 0.24744,3.36744 -0.22211,5.91392 -1.34375,7.28125 -1.70313,2.07619 -3.97352,2.75837 -8,2.40625 l -3.75,-0.3125 0,-5.375 c 0,-2.95599 0.47561,-6.56982 1.03125,-8.03125 0.68377,-1.79846 1.12531,-2.38006 2.84375,-2.375 z m -44,71.6875 c -6.04142,-0.11561 -16.875,1.09603 -16.875,2.3125 0,0.47343 1.30918,1.50278 2.875,2.3125 2.8242,1.46045 2.82448,1.57828 3.5,13.53125 0.74231,13.13488 0.24322,15.30408 -4.75,19.96875 -2.20955,2.06416 -2.96246,2.23809 -5.0625,1.28125 -4.81888,-2.19563 -5.87442,-5.36041 -6.34375,-19.0625 l -0.4375,-12.6875 3.3125,-3.21875 3.3125,-3.21875 -11.1875,0 c -6.79323,0 -11.21875,0.39291 -11.21875,1 0,0.55 0.36762,1 0.8125,1 0.44488,0 1.66416,0.59547 2.6875,1.34375 1.62738,1.18997 1.91531,3.16423 2.28125,15.75 0.45677,15.70987 1.43009,19.39416 6.4375,24 1.56287,1.43754 4.7401,3.09734 7.0625,3.65625 2.3224,0.55891 4.44375,1.062 4.71875,1.125 1.65699,0.3795 8.99768,-2.45415 11.75,-4.53125 6.0376,-4.55644 6.75,-7.10219 6.75,-24.15625 0,-15.13272 0.0432,-15.33371 2.5,-17.1875 1.36678,-1.0313 2.15664,-2.21836 1.75,-2.625 -0.37492,-0.37492 -1.86119,-0.55521 -3.875,-0.59375 z"
       id="path4438"
       style="fill:#832d2e;fill-opacity:1" />
  </g>
</svg>
