<?xml version="1.0" encoding="UTF-8" standalone="no"?>
<!-- Created with Inkscape (http://www.inkscape.org/) -->

<svg
   width="110.63612mm"
   height="110.15539mm"
   viewBox="0 0 110.63612 110.15539"
   version="1.1"
   id="svg5"
   inkscape:version="1.2-dev (85311d94fe, 2021-11-04, custom)"
   sodipodi:docname="turystyce.svg"
   xmlns:inkscape="http://www.inkscape.org/namespaces/inkscape"
   xmlns:sodipodi="http://sodipodi.sourceforge.net/DTD/sodipodi-0.dtd"
   xmlns="http://www.w3.org/2000/svg"
   xmlns:svg="http://www.w3.org/2000/svg">
  <sodipodi:namedview
     id="namedview7"
     pagecolor="#505050"
     bordercolor="#eeeeee"
     borderopacity="1"
     inkscape:pageshadow="0"
     inkscape:pageopacity="0"
     inkscape:pagecheckerboard="0"
     inkscape:blackoutopacity="0.0"
     inkscape:document-units="mm"
     showgrid="false"
     inkscape:zoom="1.3380611"
     inkscape:cx="-7.0998251"
     inkscape:cy="343.40733"
     inkscape:window-width="1894"
     inkscape:window-height="1024"
     inkscape:window-x="0"
     inkscape:window-y="0"
     inkscape:window-maximized="1"
     inkscape:current-layer="layer2"
     showguides="false"
     fit-margin-top="5"
     lock-margins="true"
     fit-margin-left="5"
     fit-margin-right="5"
     fit-margin-bottom="5" />
  <defs
     id="defs2" />
  <g
     inkscape:groupmode="layer"
     id="layer2"
     inkscape:label="Warstwa 2"
     style="display:inline;opacity:1"
     sodipodi:insensitive="true"
     transform="translate(-19.469152,-30.538298)">
    <path
       style="fill:#b6b5ba;fill-opacity:1;stroke:#000000;stroke-width:0.264583px;stroke-linecap:butt;stroke-linejoin:miter;stroke-opacity:1"
       d="M 74.287403,35.711905 C 41.078804,36.504635 24.716477,63.122927 24.61582,85.414346 26.507694,117.42051 48.843713,134.41859 74.082859,135.29375 102.22001,135.41045 124.23241,114.42544 124.97296,84.932619 124.56902,59.251588 102.97186,34.521573 74.287403,35.711905 Z"
       id="path613"
       sodipodi:nodetypes="ccccc" />
  </g>
  <g
     inkscape:groupmode="layer"
     id="layer5"
     inkscape:label="Warstwa 3"
     style="display:inline"
     sodipodi:insensitive="true"
     transform="translate(-19.469152,-30.538298)">
    <path
       style="display:inline;fill:#447546;fill-opacity:1;stroke:#000000;stroke-width:0.265195px;stroke-linecap:butt;stroke-linejoin:miter;stroke-opacity:1"
       d="M 27.612716,86.794197 C 25.715754,69.575542 40.466577,38.76136 74.968961,37.877941 105.04872,38.617613 122.2127,64.070827 121.84676,85.025926 122.18866,107.9583 104.86624,130.67406 74.126243,132.71468 50.383572,131.818 28.863295,115.01752 27.612716,86.794197 Z"
       id="path14023"
       sodipodi:nodetypes="ccccc" />
  </g>
  <g
     inkscape:groupmode="layer"
     id="layer6"
     inkscape:label="Warstwa 5"
     style="display:inline"
     transform="translate(-19.469152,-30.538298)">
    <path
       style="fill:#fefefe;fill-opacity:1;stroke:#000000;stroke-width:0.264583px;stroke-linecap:butt;stroke-linejoin:miter;stroke-opacity:1"
       d="M 62.523888,90.205818 24.488412,84.608567 66.509124,84.910384 Z"
       id="path100274"
       sodipodi:nodetypes="cccc" />
    <path
       style="fill:#1f1b20;fill-opacity:1;stroke:#000000;stroke-width:0.264583px;stroke-linecap:butt;stroke-linejoin:miter;stroke-opacity:1"
       d="m 66.474945,84.899184 c -0.705697,-1.842628 -1.347074,-3.748477 -3.16494,-4.497922 l -38.810587,4.261374 z"
       id="path106167"
       sodipodi:nodetypes="cccc" />
    <path
       style="fill:#1f1b20;fill-opacity:1;stroke:#000000;stroke-width:0.269116px;stroke-linecap:butt;stroke-linejoin:miter;stroke-opacity:1"
       d="m 124.04076,85.519865 -40.858087,4.432042 -1.767522,-3.697004 0.938121,-0.868997 z"
       id="path120008" />
    <path
       style="fill:#fefefe;fill-opacity:1;stroke:#000000;stroke-width:0.269116px;stroke-linecap:butt;stroke-linejoin:miter;stroke-opacity:1"
       d="m 82.248149,85.413122 3.280629,-5.041229 38.621292,5.061881 z"
       id="path123969" />
    <path
       style="fill:#1f1b20;fill-opacity:1;stroke:#000000;stroke-width:0.264583px;stroke-linecap:butt;stroke-linejoin:miter;stroke-opacity:1"
       d="M 66.472244,84.918398 38.69241,120.56578 68.790623,90.505319 Z"
       id="path133874" />
    <path
       style="fill:#f7f7f7;fill-opacity:1;stroke:#000000;stroke-width:0.264583px;stroke-linecap:butt;stroke-linejoin:miter;stroke-opacity:1"
       d="M 38.73972,120.65548 71.777137,95.023325 67.066223,92.340754 Z"
       id="path138759" />
    <path
       style="fill:#fefefe;fill-opacity:1;stroke:#000000;stroke-width:0.264583px;stroke-linecap:butt;stroke-linejoin:miter;stroke-opacity:1"
       d="m 39.327306,50.474324 7.322019,8.657005 2.432253,0.09203 z"
       id="path146406" />
    <path
       style="fill:#1f1b20;fill-opacity:1;stroke:#000000;stroke-width:0.264583px;stroke-linecap:butt;stroke-linejoin:miter;stroke-opacity:1"
       d="M 39.410462,50.495488 52.076389,59.692113 48.73585,59.148532 Z"
       id="path161433" />
    <path
       style="fill:#1f1b20;fill-opacity:1;stroke:#000000;stroke-width:0.264583px;stroke-linecap:butt;stroke-linejoin:miter;stroke-opacity:1"
       d="m 74.232923,135.68003 -1.895433,-18.25944 1.851054,1.17906 z"
       id="path175050" />
    <path
       style="fill:#f7f7f7;fill-opacity:1;stroke:#000000;stroke-width:0.264583px;stroke-linecap:butt;stroke-linejoin:miter;stroke-opacity:1"
       d="m 74.248557,118.54004 -0.0081,17.02495 2.396204,-17.78631 z"
       id="path175052" />
    <path
       style="fill:#1f1b20;fill-opacity:1;stroke:#000000;stroke-width:0.264583px;stroke-linecap:butt;stroke-linejoin:miter;stroke-opacity:1"
       d="M 110.318,120.6773 82.213489,92.76613 78.245257,95.285633 Z"
       id="path611" />
    <path
       style="fill:#fefefe;fill-opacity:1;stroke:#000000;stroke-width:0.264583px;stroke-linecap:butt;stroke-linejoin:miter;stroke-opacity:1"
       d="M 80.040122,90.476156 110.56214,120.75348 85.914915,89.678743 Z"
       id="path614"
       sodipodi:nodetypes="cccc" />
    <path
       style="fill:#f9f9f9;fill-opacity:1;stroke:#000000;stroke-width:0.264583px;stroke-linecap:butt;stroke-linejoin:miter;stroke-opacity:1"
       d="m 109.70137,50.032332 -12.566662,9.909791 4.283372,-0.895178 z"
       id="path23952" />
    <path
       style="fill:#000000;fill-opacity:1;stroke:#000000;stroke-width:0.264583px;stroke-linecap:butt;stroke-linejoin:miter;stroke-opacity:1"
       d="m 109.59514,50.099851 -6.59813,9.142828 -1.43911,-0.188497 z"
       id="path28916" />
  </g>
  <g
     inkscape:groupmode="layer"
     id="layer4"
     inkscape:label="Warstwa 4"
     style="display:inline"
     sodipodi:insensitive="true"
     transform="translate(-19.469152,-30.538298)">
    <path
       style="display:inline;fill:#dcdcd4;fill-opacity:1;stroke:#000000;stroke-width:0.334935px;stroke-linecap:butt;stroke-linejoin:miter;stroke-opacity:1"
       d="m 74.854039,118.99417 c -3.335648,-1.67863 -5.554915,-4.70913 -7.455467,-8.12571 l 0.05907,-4.75572 c 3.220012,-3.23714 3.69699,-7.386551 3.603915,-11.725537 2.468645,1.050538 4.930666,1.430802 7.37694,0.218383 -5.49e-4,4.469822 1.60148,8.198434 3.386168,12.117394 l -0.09431,4.32465 c -1.376342,3.05801 -3.294833,5.61326 -6.876449,7.94655 z"
       id="path59738-3"
       sodipodi:nodetypes="cccccccc" />
    <path
       style="display:inline;fill:#dcdcd4;fill-opacity:1;stroke:#000000;stroke-width:0.334935px;stroke-linecap:butt;stroke-linejoin:miter;stroke-opacity:1"
       d="m 67.051372,91.346299 c -0.635696,6.760618 -2.537138,8.528795 -6.642547,8.363645 -3.710468,-0.18811 -4.997241,-2.354203 -6.88217,-4.613234 -0.870189,3.160844 -3.252911,8.28725 -0.573187,10.89451 2.522104,2.61233 5.068525,3.14779 7.616576,3.54375 3.722112,0.12722 5.395644,-1.64101 6.858526,-3.60426 3.979622,-3.98713 3.543624,-7.780849 3.7082,-11.456677 -1.819675,-0.881799 -2.839391,-2.044505 -4.085398,-3.127734 z"
       id="path61451-6"
       sodipodi:nodetypes="cccccccc" />
    <path
       style="display:inline;fill:#dcdcd4;fill-opacity:1;stroke:#000000;stroke-width:0.334935px;stroke-linecap:butt;stroke-linejoin:miter;stroke-opacity:1"
       d="m 78.439344,94.749752 3.608106,-2.20227 c 1.573459,3.888348 3.100605,7.836588 7.525166,8.038048 3.783225,-0.0757 4.141408,-2.709495 6.207193,-5.028838 1.946701,10.586958 -1.456367,12.829648 -7.095269,14.079168 -2.478765,0.18133 -4.69148,-1.18047 -6.749642,-3.43861 -2.23675,-3.46093 -3.314713,-7.305637 -3.495554,-11.447498 z"
       id="path63689-7"
       sodipodi:nodetypes="ccccccc" />
    <path
       style="display:inline;fill:#dcdcd4;fill-opacity:1;stroke:#000000;stroke-width:0.334935px;stroke-linecap:butt;stroke-linejoin:miter;stroke-opacity:1"
       d="M 67.293152,88.100738 C 66.048237,80.140251 61.20877,77.87197 55.536535,76.922482 50.401195,76.519764 49.508329,82.615475 46.363807,84.538475 41.818332,81.146419 36.675011,76.634214 35.774028,69.642338 35.64143,63.86338 42.196002,59.080457 47.262098,59.123196 c 7.426404,-0.412151 21.085745,7.071361 23.877789,25.62944 -1.620086,0.249478 -2.985911,1.176754 -3.846735,3.348102 z"
       id="path66152-3"
       sodipodi:nodetypes="ccccccc" />
    <path
       style="display:inline;fill:#dcdcd4;fill-opacity:1;stroke:#000000;stroke-width:0.334935px;stroke-linecap:butt;stroke-linejoin:miter;stroke-opacity:1"
       d="M 71.181148,84.694353 C 70.001038,78.180667 67.422386,72.141984 63.489029,66.56343 61.898518,63.820748 60.764653,61.253682 61.09172,59.248453 c 1.037192,-6.631657 3.628366,-13.206811 13.419962,-19.520178 3.871392,0.644244 12.559537,9.388575 13.649289,15.250695 1.011805,3.513779 0.222936,6.591825 0.104165,9.831994 -4.092188,3.980001 -8.01227,8.562027 -10.006785,19.879164 -3.014317,-0.745187 -5.04,-0.363965 -7.077129,0.004 z"
       id="path68489-5"
       sodipodi:nodetypes="cccccccc" />
    <path
       style="display:inline;fill:#dcdcd4;fill-opacity:1;stroke:#000000;stroke-width:0.334935px;stroke-linecap:butt;stroke-linejoin:miter;stroke-opacity:1"
       d="m 78.319676,84.714021 c 1.91226,-11.41521 5.926502,-15.712851 9.977924,-19.884532 3.54017,-2.835724 7.163513,-5.600002 13.81123,-5.766709 6.45853,0.744334 10.94826,3.408576 11.95509,9.469325 -0.31124,5.876824 -5.92711,12.252135 -12.29244,16.649207 -3.176839,-2.461436 -2.466841,-8.366243 -8.572811,-8.033404 -8.006016,1.46731 -9.105664,5.574183 -10.836284,9.883184 -1.30419,-0.939685 -2.537526,-2.152568 -4.042709,-2.317071 z"
       id="path71037-6"
       sodipodi:nodetypes="cccccccc" />
    <path
       style="display:inline;fill:#dcdcd4;fill-opacity:1;stroke:#000000;stroke-width:0.365667px;stroke-linecap:butt;stroke-linejoin:miter;stroke-opacity:1"
       d="m 82.638107,92.773183 c -5.810949,4.194711 -11.009475,4.034196 -16.428852,-1.197817 -0.398206,-0.874786 -0.794643,-2.155651 -0.120106,-3.763091 0.994899,-2.495935 4.012419,-3.913578 8.003505,-3.944257 5.761794,-0.165208 8.712323,1.87153 9.717863,5.673097 0.02682,1.178833 -0.142618,2.29379 -1.172432,3.232068 z"
       id="path64488-5"
       sodipodi:nodetypes="cccccc" />
  </g>
</svg>
