<?xml version="1.0" encoding="UTF-8" standalone="no"?>
<svg
   version="1.1"
   height="824.45294"
   width="874.45294"
   enable-background="new 0 0 398.389 398.389"
   y="0"
   x="0"
   viewBox="0 0 1102.4437 1039.4082"
   id="svg6"
   sodipodi:docname="wagggs.svg"
   inkscape:version="1.2-dev (0853165845, 2021-06-13, custom)"
   xmlns:inkscape="http://www.inkscape.org/namespaces/inkscape"
   xmlns:sodipodi="http://sodipodi.sourceforge.net/DTD/sodipodi-0.dtd"
   xmlns="http://www.w3.org/2000/svg"
   xmlns:svg="http://www.w3.org/2000/svg">
  <defs
     id="defs10">
    <marker
       style="overflow:visible"
       id="Arrow1Mend"
       refX="0"
       refY="0"
       orient="auto"
       inkscape:stockid="Arrow1Mend"
       inkscape:isstock="true">
      <path
         transform="matrix(-0.4,0,0,-0.4,-4,0)"
         style="fill:context-stroke;fill-rule:evenodd;stroke:context-stroke;stroke-width:1pt"
         d="M 0,0 5,-5 -12.5,0 5,5 Z"
         id="path1184" />
    </marker>
    <marker
       style="overflow:visible"
       id="Arrow1Lstart"
       refX="0"
       refY="0"
       orient="auto"
       inkscape:stockid="Arrow1Lstart"
       inkscape:isstock="true">
      <path
         transform="matrix(0.8,0,0,0.8,10,0)"
         style="fill:context-stroke;fill-rule:evenodd;stroke:context-stroke;stroke-width:1pt"
         d="M 0,0 5,-5 -12.5,0 5,5 Z"
         id="path1175" />
    </marker>
    <marker
       style="overflow:visible"
       id="Arrow1Mend-3"
       refX="0"
       refY="0"
       orient="auto"
       inkscape:stockid="Arrow1Mend"
       inkscape:isstock="true">
      <path
         transform="matrix(-0.4,0,0,-0.4,-4,0)"
         style="fill:context-stroke;fill-rule:evenodd;stroke:context-stroke;stroke-width:1pt"
         d="M 0,0 5,-5 -12.5,0 5,5 Z"
         id="path1184-6" />
    </marker>
    <marker
       style="overflow:visible"
       id="Arrow1Mend-3-6"
       refX="0"
       refY="0"
       orient="auto"
       inkscape:stockid="Arrow1Mend"
       inkscape:isstock="true">
      <path
         transform="matrix(-0.4,0,0,-0.4,-4,0)"
         style="fill:context-stroke;fill-rule:evenodd;stroke:context-stroke;stroke-width:1pt"
         d="M 0,0 5,-5 -12.5,0 5,5 Z"
         id="path1184-6-2" />
    </marker>
    <marker
       style="overflow:visible"
       id="Arrow1Mend-3-6-9"
       refX="0"
       refY="0"
       orient="auto"
       inkscape:stockid="Arrow1Mend"
       inkscape:isstock="true">
      <path
         transform="matrix(-0.4,0,0,-0.4,-4,0)"
         style="fill:context-stroke;fill-rule:evenodd;stroke:context-stroke;stroke-width:1pt"
         d="M 0,0 5,-5 -12.5,0 5,5 Z"
         id="path1184-6-2-3" />
    </marker>
    <marker
       style="overflow:visible"
       id="Arrow1Mend-3-6-9-1"
       refX="0"
       refY="0"
       orient="auto"
       inkscape:stockid="Arrow1Mend"
       inkscape:isstock="true">
      <path
         transform="matrix(-0.4,0,0,-0.4,-4,0)"
         style="fill:context-stroke;fill-rule:evenodd;stroke:context-stroke;stroke-width:1pt"
         d="M 0,0 5,-5 -12.5,0 5,5 Z"
         id="path1184-6-2-3-8" />
    </marker>
    <marker
       style="overflow:visible"
       id="Arrow1Mend-3-6-9-1-9"
       refX="0"
       refY="0"
       orient="auto"
       inkscape:stockid="Arrow1Mend"
       inkscape:isstock="true">
      <path
         transform="matrix(-0.4,0,0,-0.4,-4,0)"
         style="fill:context-stroke;fill-rule:evenodd;stroke:context-stroke;stroke-width:1pt"
         d="M 0,0 5,-5 -12.5,0 5,5 Z"
         id="path1184-6-2-3-8-2" />
    </marker>
    <marker
       style="overflow:visible"
       id="Arrow1Mend-3-6-9-1-9-6"
       refX="0"
       refY="0"
       orient="auto"
       inkscape:stockid="Arrow1Mend"
       inkscape:isstock="true">
      <path
         transform="matrix(-0.4,0,0,-0.4,-4,0)"
         style="fill:context-stroke;fill-rule:evenodd;stroke:context-stroke;stroke-width:1pt"
         d="M 0,0 5,-5 -12.5,0 5,5 Z"
         id="path1184-6-2-3-8-2-1" />
    </marker>
    <marker
       style="overflow:visible"
       id="Arrow1Mend-3-6-9-1-9-6-9"
       refX="0"
       refY="0"
       orient="auto"
       inkscape:stockid="Arrow1Mend"
       inkscape:isstock="true">
      <path
         transform="matrix(-0.4,0,0,-0.4,-4,0)"
         style="fill:context-stroke;fill-rule:evenodd;stroke:context-stroke;stroke-width:1pt"
         d="M 0,0 5,-5 -12.5,0 5,5 Z"
         id="path1184-6-2-3-8-2-1-4" />
    </marker>
    <marker
       style="overflow:visible"
       id="Arrow1Mend-3-6-9-1-9-6-9-3"
       refX="0"
       refY="0"
       orient="auto"
       inkscape:stockid="Arrow1Mend"
       inkscape:isstock="true">
      <path
         transform="matrix(-0.4,0,0,-0.4,-4,0)"
         style="fill:context-stroke;fill-rule:evenodd;stroke:context-stroke;stroke-width:1pt"
         d="M 0,0 5,-5 -12.5,0 5,5 Z"
         id="path1184-6-2-3-8-2-1-4-6" />
    </marker>
  </defs>
  <sodipodi:namedview
     id="namedview8"
     pagecolor="#505050"
     bordercolor="#eeeeee"
     borderopacity="1"
     objecttolerance="10.0"
     gridtolerance="10.0"
     guidetolerance="10.0"
     inkscape:pageshadow="0"
     inkscape:pageopacity="0"
     inkscape:pagecheckerboard="0"
     showgrid="false"
     inkscape:zoom="0.36921715"
     inkscape:cx="58.231315"
     inkscape:cy="322.30355"
     inkscape:window-width="1920"
     inkscape:window-height="1042"
     inkscape:window-x="0"
     inkscape:window-y="38"
     inkscape:window-maximized="1"
     inkscape:current-layer="layer1"
     fit-margin-top="10"
     lock-margins="true"
     fit-margin-left="60"
     fit-margin-right="60"
     fit-margin-bottom="60"
     width="828.72284px" />
  <g
     inkscape:groupmode="layer"
     id="layer1"
     inkscape:label="Layer 1"
     transform="translate(-385.32073,-111.20232)">
    <path
       d="m 460.96419,599.40007 c 0,-262.67302 212.91747,-475.59051 475.59051,-475.59051 262.6492,0 475.5666,212.91749 475.5666,475.59051 0,262.64916 -212.9174,475.56663 -475.5666,475.56663 -262.67304,0 -475.59051,-212.91747 -475.59051,-475.56663"
       fill="#0079c2"
       id="path2"
       style="stroke-width:2.38751" />
    <path
       d="m 937.50971,624.2301 c -8.71916,0 -14.69031,-4.07547 -19.09525,-11.30244 -8.35626,-13.12411 -5.22624,-24.3382 -3.05839,-39.52272 l 22.59294,-169.41002 19.56796,170.26475 c 1.65932,15.25614 4.58879,26.36041 -3.49768,39.55853 -4.09218,6.33643 -8.95552,10.21135 -16.50958,10.4119 m 12.63228,205.01723 C 894.47497,719.10945 979.217,714.99578 940.9692,659.45531 l -7.375,4.33093 c 4.81083,22.59293 -8.70005,29.10605 -19.53216,45.11187 -19.13344,28.21549 -40.79525,70.56263 30.82267,126.00999 l 5.25728,-5.66077 M 1078.9191,570.80018 h -0.2364 l -9.9057,31.05664 h -33.1099 v 0.21726 l 26.9931,19.84253 -10.5193,31.60337 0.2745,0.23637 26.3604,-19.62528 26.4679,19.62528 0.2196,-0.23637 -10.3975,-31.60337 26.7257,-19.84253 v -0.21726 h -33.1887 l -9.6837,-31.05664 m -282.94293,-0.18145 h -0.25547 l -9.95827,30.99934 h -33.05735 v 0.27456 l 26.95967,19.82342 -10.45009,31.62248 0.21964,0.18145 26.35803,-19.61095 26.43205,19.61095 0.27455,-0.18145 -10.4119,-31.62248 26.81404,-19.82342 v -0.27456 h -33.25791 l -9.66699,-30.99934 m 376.07943,88.34237 c 40.3034,41.05072 60.9481,117.36485 12.341,149.73222 -72.1432,48.59045 -148.7271,-8.75736 -195.96862,-116.76081 l 17.04442,-9.80786 c 32.692,55.21099 92.5658,101.24682 144.8115,78.36738 34.5162,-14.98158 45.747,-46.34858 9.4283,-94.62867 l 12.3434,-6.90226 m 3.5287,-12.95937 c 54.3634,-18.64162 107.0795,-77.93285 78.1191,-128.45002 -42.8366,-75.67666 -137.0283,-58.63706 -227.5696,16.78176 l 10.8512,16.40452 c 53.9385,-34.78829 128.068,-49.20642 164.5992,-5.30025 24.1568,28.6381 20.1386,61.89601 -33.9336,88.80077 l 7.9337,11.76322 m -480.07902,-6.42238 c -53.50394,-21.17237 -103.30962,-82.68637 -72.03334,-131.94772 46.31038,-73.58044 139.62594,-52.1526 226.4976,27.45389 l -11.56029,15.8005 c -52.26482,-37.24743 -125.6447,-55.03194 -164.18378,-12.98085 -25.43167,27.66876 -23.01075,60.89086 29.74591,90.34787 l -8.4661,11.32631 m 2.05804,13.27452 c -42.21583,39.08102 -66.41078,114.61445 -19.42474,149.01836 69.83208,51.93772 149.02076,-1.82405 201.28558,-107.48059 l -16.6027,-10.59574 c -35.22521,53.64957 -97.15703,96.82994 -148.32837,71.46989 -33.71392,-16.32814 -43.56237,-48.38752 -5.00659,-94.91994 L 697.54899,652.8491 M 944.51226,350.66289 c 30.59823,-48.67879 100.21784,-86.08618 142.93974,-46.52765 63.7869,59.09069 25.575,146.81709 -68.6884,217.63041 l -13.487,-14.32741 c 46.2769,-44.47439 77.367,-113.37294 43.0156,-158.97662 -22.4807,-29.93213 -55.53807,-33.87866 -94.20367,12.57736 l -9.57627,-10.37609 m -13.47268,-0.47272 c -30.60779,-48.67163 -100.22736,-86.06469 -142.9159,-46.50855 -63.7893,59.09068 -25.57733,146.8911 68.64786,217.61369 l 13.48938,-14.31068 C 823.98635,462.49352 792.8939,393.6451 827.2453,348.008 c 22.48311,-29.90825 55.57627,-33.89538 94.20606,12.63466 l 9.5739,-10.46682 m 18.2811,433.0691 16.4666,21.73582 c 32.09281,42.36145 44.11624,95.82718 9.54046,136.38607 -58.59886,67.99367 -150.45803,61.54747 -229.31961,19.07853 -135.48362,-72.96207 -215.4196,-245.00549 -214.56487,-358.77 0.85472,-106.81687 34.11503,-204.56122 121.64086,-290.98881 85.54662,-85.15028 181.52422,-117.24787 286.64358,-117.24787 112.91932,0 231.92672,52.08337 302.71142,135.85846 72.8857,86.34403 105.5491,169.02802 103.8015,270.62341 -1.7835,105.96691 -29.8772,178.26049 -90.5676,256.7759 -70.1973,90.82059 -199.5379,155.04445 -324.4138,151.55145 l -10.26626,-0.6374 13.50611,-7.1936 c 24.08512,-13.01185 48.64298,-21.69997 54.75976,-34.33463 18.60579,-3.51202 30.83699,-5.00421 46.01909,-8.88391 71.7254,-18.36705 146.7455,-64.71563 204.5612,-142.90158 51.699,-70.38117 72.5491,-126.37766 68.1919,-213.48569 -6.0882,-114.81501 -35.4306,-190.47495 -117.9665,-270.14591 -75.7794,-73.19606 -145.6854,-99.70212 -250.59229,-99.02884 -109.46699,0.42497 -181.9277,28.86014 -259.47378,105.97408 -79.30806,78.16922 -111.85689,151.7998 -110.3647,263.19828 1.34656,117.93068 53.50394,239.44263 172.85042,311.87945 77.6583,47.03858 148.78199,45.11425 169.40764,35.15598 39.55853,-19.07615 79.51816,-57.34781 45.22167,-127.68124 l -14.80251,-29.09411 6.97867,-7.82624"
       fill="#fcb134"
       id="path4"
       style="stroke-width:2.38751" />
  </g>
</svg>
