<?xml version="1.0" encoding="UTF-8" standalone="no"?>
<svg
   version="1.1"
   height="194.07112"
   width="194.07135"
   enable-background="new 0 0 398.389 398.389"
   y="0"
   x="0"
   viewBox="0 0 244.67038 244.67025"
   id="svg6"
   sodipodi:docname="wagggs.svg"
   inkscape:version="1.1 (c68e22c387, 2021-05-23)"
   xmlns:inkscape="http://www.inkscape.org/namespaces/inkscape"
   xmlns:sodipodi="http://sodipodi.sourceforge.net/DTD/sodipodi-0.dtd"
   xmlns="http://www.w3.org/2000/svg"
   xmlns:svg="http://www.w3.org/2000/svg">
  <defs
     id="defs10">
    <marker
       style="overflow:visible"
       id="Arrow1Mend"
       refX="0"
       refY="0"
       orient="auto"
       inkscape:stockid="Arrow1Mend"
       inkscape:isstock="true">
      <path
         transform="matrix(-0.4,0,0,-0.4,-4,0)"
         style="fill:context-stroke;fill-rule:evenodd;stroke:context-stroke;stroke-width:1pt"
         d="M 0,0 5,-5 -12.5,0 5,5 Z"
         id="path1184" />
    </marker>
    <marker
       style="overflow:visible"
       id="Arrow1Lstart"
       refX="0"
       refY="0"
       orient="auto"
       inkscape:stockid="Arrow1Lstart"
       inkscape:isstock="true">
      <path
         transform="matrix(0.8,0,0,0.8,10,0)"
         style="fill:context-stroke;fill-rule:evenodd;stroke:context-stroke;stroke-width:1pt"
         d="M 0,0 5,-5 -12.5,0 5,5 Z"
         id="path1175" />
    </marker>
    <marker
       style="overflow:visible"
       id="Arrow1Mend-3"
       refX="0"
       refY="0"
       orient="auto"
       inkscape:stockid="Arrow1Mend"
       inkscape:isstock="true">
      <path
         transform="matrix(-0.4,0,0,-0.4,-4,0)"
         style="fill:context-stroke;fill-rule:evenodd;stroke:context-stroke;stroke-width:1pt"
         d="M 0,0 5,-5 -12.5,0 5,5 Z"
         id="path1184-6" />
    </marker>
    <marker
       style="overflow:visible"
       id="Arrow1Mend-3-6"
       refX="0"
       refY="0"
       orient="auto"
       inkscape:stockid="Arrow1Mend"
       inkscape:isstock="true">
      <path
         transform="matrix(-0.4,0,0,-0.4,-4,0)"
         style="fill:context-stroke;fill-rule:evenodd;stroke:context-stroke;stroke-width:1pt"
         d="M 0,0 5,-5 -12.5,0 5,5 Z"
         id="path1184-6-2" />
    </marker>
    <marker
       style="overflow:visible"
       id="Arrow1Mend-3-6-9"
       refX="0"
       refY="0"
       orient="auto"
       inkscape:stockid="Arrow1Mend"
       inkscape:isstock="true">
      <path
         transform="matrix(-0.4,0,0,-0.4,-4,0)"
         style="fill:context-stroke;fill-rule:evenodd;stroke:context-stroke;stroke-width:1pt"
         d="M 0,0 5,-5 -12.5,0 5,5 Z"
         id="path1184-6-2-3" />
    </marker>
    <marker
       style="overflow:visible"
       id="Arrow1Mend-3-6-9-1"
       refX="0"
       refY="0"
       orient="auto"
       inkscape:stockid="Arrow1Mend"
       inkscape:isstock="true">
      <path
         transform="matrix(-0.4,0,0,-0.4,-4,0)"
         style="fill:context-stroke;fill-rule:evenodd;stroke:context-stroke;stroke-width:1pt"
         d="M 0,0 5,-5 -12.5,0 5,5 Z"
         id="path1184-6-2-3-8" />
    </marker>
    <marker
       style="overflow:visible"
       id="Arrow1Mend-3-6-9-1-9"
       refX="0"
       refY="0"
       orient="auto"
       inkscape:stockid="Arrow1Mend"
       inkscape:isstock="true">
      <path
         transform="matrix(-0.4,0,0,-0.4,-4,0)"
         style="fill:context-stroke;fill-rule:evenodd;stroke:context-stroke;stroke-width:1pt"
         d="M 0,0 5,-5 -12.5,0 5,5 Z"
         id="path1184-6-2-3-8-2" />
    </marker>
    <marker
       style="overflow:visible"
       id="Arrow1Mend-3-6-9-1-9-6"
       refX="0"
       refY="0"
       orient="auto"
       inkscape:stockid="Arrow1Mend"
       inkscape:isstock="true">
      <path
         transform="matrix(-0.4,0,0,-0.4,-4,0)"
         style="fill:context-stroke;fill-rule:evenodd;stroke:context-stroke;stroke-width:1pt"
         d="M 0,0 5,-5 -12.5,0 5,5 Z"
         id="path1184-6-2-3-8-2-1" />
    </marker>
    <marker
       style="overflow:visible"
       id="Arrow1Mend-3-6-9-1-9-6-9"
       refX="0"
       refY="0"
       orient="auto"
       inkscape:stockid="Arrow1Mend"
       inkscape:isstock="true">
      <path
         transform="matrix(-0.4,0,0,-0.4,-4,0)"
         style="fill:context-stroke;fill-rule:evenodd;stroke:context-stroke;stroke-width:1pt"
         d="M 0,0 5,-5 -12.5,0 5,5 Z"
         id="path1184-6-2-3-8-2-1-4" />
    </marker>
    <marker
       style="overflow:visible"
       id="Arrow1Mend-3-6-9-1-9-6-9-3"
       refX="0"
       refY="0"
       orient="auto"
       inkscape:stockid="Arrow1Mend"
       inkscape:isstock="true">
      <path
         transform="matrix(-0.4,0,0,-0.4,-4,0)"
         style="fill:context-stroke;fill-rule:evenodd;stroke:context-stroke;stroke-width:1pt"
         d="M 0,0 5,-5 -12.5,0 5,5 Z"
         id="path1184-6-2-3-8-2-1-4-6" />
    </marker>
  </defs>
  <sodipodi:namedview
     id="namedview8"
     pagecolor="#505050"
     bordercolor="#eeeeee"
     borderopacity="1"
     objecttolerance="10.0"
     gridtolerance="10.0"
     guidetolerance="10.0"
     inkscape:pageshadow="0"
     inkscape:pageopacity="0"
     inkscape:pagecheckerboard="0"
     showgrid="false"
     inkscape:zoom="1.9233304"
     inkscape:cx="85.008793"
     inkscape:cy="91.247971"
     inkscape:window-width="1600"
     inkscape:window-height="837"
     inkscape:window-x="-8"
     inkscape:window-y="-8"
     inkscape:window-maximized="1"
     inkscape:current-layer="layer1"
     fit-margin-top="10"
     lock-margins="true"
     fit-margin-left="10"
     fit-margin-right="10"
     fit-margin-bottom="10"
     width="828.72284px" />
  <g
     inkscape:groupmode="layer"
     id="layer1"
     inkscape:label="Layer 1"
     transform="translate(-448.35695,-176.76002)">
    <path
       d="m 460.96419,299.098 c 0,-60.6053 49.12544,-109.73074 109.73074,-109.73074 60.59981,0 109.72523,49.12544 109.72523,109.73074 0,60.5998 -49.12542,109.72494 -109.72523,109.72494 -60.6053,0 -109.73074,-49.12514 -109.73074,-109.72494"
       fill="#0079c2"
       id="path2"
       style="stroke-width:0.550857" />
    <path
       d="m 570.91528,304.82692 c -2.01173,0 -3.38943,-0.94031 -4.40576,-2.60776 -1.928,-3.02806 -1.20582,-5.61544 -0.70564,-9.11889 l 5.21276,-39.08717 4.51482,39.28438 c 0.38284,3.51998 1.05875,6.08201 -0.807,9.12715 -0.94417,1.46198 -2.06627,2.35602 -3.80918,2.40229 m 2.91459,47.30265 c -12.84379,-25.41159 6.70833,-26.36072 -2.1164,-39.17531 l -1.7016,0.99926 c 1.10998,5.21276 -2.00732,6.7155 -4.50656,10.40844 -4.41457,6.51003 -9.4125,16.28059 7.11156,29.0737 l 1.213,-1.30609 M 603.542,292.49929 h -0.0546 l -2.28549,7.16555 h -7.63929 v 0.0501 l 6.22799,4.57817 -2.42707,7.29169 0.0633,0.0545 6.08201,-4.52805 6.10682,4.52805 0.0507,-0.0545 -2.39897,-7.29169 6.16629,-4.57817 v -0.0501 h -7.65747 l -2.23427,-7.16555 m -65.28209,-0.0419 h -0.0589 l -2.29762,7.15233 h -7.62717 v 0.0634 l 6.22028,4.57376 -2.4111,7.29611 0.0507,0.0419 6.08147,-4.52474 6.09854,4.52474 0.0633,-0.0419 -2.40229,-7.29611 6.18667,-4.57376 v -0.0634 h -7.67344 l -2.23042,-7.15233 m 86.77103,20.38282 c 9.29901,9.47143 14.06227,27.07903 2.84738,34.547 -16.64526,11.21105 -34.3151,-2.02054 -45.21491,-26.93967 l 3.93258,-2.26292 c 7.54287,12.73857 21.35726,23.3602 33.41167,18.08133 7.96376,-3.45662 10.55498,-10.69378 2.17534,-21.83322 l 2.84794,-1.59252 m 0.81416,-2.99006 c 12.54301,-4.30109 24.70594,-17.98107 18.02405,-29.63666 -9.88349,-17.46052 -31.61589,-13.52905 -52.50606,3.87197 l 2.50365,3.78494 c 12.44497,-8.02654 29.54852,-11.35316 37.97719,-1.2229 5.57359,6.60753 4.64649,14.28097 -7.82934,20.48858 l 1.83051,2.71407 m -110.76636,-1.4818 c -12.3447,-4.885 -23.83613,-19.07784 -16.61991,-30.44367 10.68498,-16.97687 32.21524,-12.03293 52.25872,6.3343 l -2.66725,3.64558 c -12.05881,-8.59393 -28.98941,-12.69726 -37.88135,-2.99501 -5.86773,6.38388 -5.30916,14.04906 6.86314,20.84553 l -1.95335,2.61327 m 0.47485,3.06276 c -9.74026,9.01698 -15.32265,26.44445 -4.48178,34.3823 16.11202,11.98335 34.38285,-0.42085 46.44167,-24.79849 l -3.83067,-2.4447 c -8.12734,12.37831 -22.41658,22.34112 -34.2231,16.48991 -7.77865,-3.76731 -10.05094,-11.16422 -1.15515,-21.90043 l -2.75428,-1.72968 m 56.98066,-69.722 c 7.05979,-11.23143 23.12279,-19.86225 32.97981,-10.7351 14.71725,13.63371 5.9008,33.87441 -15.84815,50.21283 l -3.11179,-3.3057 c 10.67725,-10.26136 17.85052,-26.15799 9.92479,-36.67991 -5.18687,-6.9061 -12.81404,-7.81667 -21.73517,2.90191 l -2.20949,-2.39403 m -3.10849,-0.10907 c -7.06199,-11.22977 -23.12498,-19.85729 -32.9743,-10.73069 -14.71781,13.63371 -5.90134,33.89148 15.83879,50.20897 l 3.11234,-3.30183 c -10.67671,-10.26523 -17.85052,-26.15029 -9.92479,-36.67993 5.18742,-6.90059 12.82285,-7.82052 21.73572,2.91514 l 2.20894,-2.41496 m 4.21791,99.91998 3.79926,5.015 c 7.40463,9.77386 10.17873,22.10975 2.20123,31.46768 -13.52024,15.68759 -34.71447,14.20029 -52.90983,4.40182 -31.25949,-16.83409 -49.70274,-56.52885 -49.50553,-82.7772 0.1972,-24.64535 7.8712,-47.19744 28.06562,-67.13847 19.73776,-19.64632 41.88222,-27.05205 66.13591,-27.05205 26.05334,0 53.51135,12.01696 69.84317,31.34598 16.81657,19.92175 24.35284,38.99904 23.94963,62.43966 -0.4115,24.44924 -6.89343,41.1292 -20.89624,59.24469 -16.19628,20.95455 -46.03843,35.77237 -74.85045,34.96644 l -2.36869,-0.14706 3.1162,-1.65974 c 5.55705,-3.00211 11.22317,-5.00663 12.63446,-7.9217 4.29283,-0.81031 7.11488,-1.15458 10.61777,-2.04972 16.54886,-4.23764 33.85789,-14.93142 47.19744,-32.9709 11.92826,-16.23871 16.7389,-29.15852 15.73359,-49.25654 -1.4047,-26.49072 -8.17474,-43.94738 -27.21785,-62.32948 -17.48423,-16.88818 -33.6133,-23.0038 -57.81797,-22.84846 -25.2568,0.0981 -41.97532,6.65876 -59.86716,24.4509 -18.29837,18.03561 -25.80821,35.02404 -25.46392,60.72649 0.31068,27.20959 12.34471,55.24546 39.88096,71.95846 17.91773,10.85287 34.32776,10.40889 39.08662,8.11133 9.12715,-4.4013 18.34685,-13.23154 10.43378,-29.45924 l -3.41531,-6.71274 1.61015,-1.80572"
       fill="#fcb134"
       id="path4"
       style="stroke-width:0.550857" />
  </g>
</svg>
