<?xml version="1.0" encoding="UTF-8" standalone="no"?>
<svg
   width="120.50653mm"
   height="133.00552mm"
   viewBox="0 0 120.50653 133.00553"
   version="1.1"
   id="svg48957"
   inkscape:version="1.2-dev (0853165845, 2021-06-13, custom)"
   sodipodi:docname="watra.svg"
   xmlns:inkscape="http://www.inkscape.org/namespaces/inkscape"
   xmlns:sodipodi="http://sodipodi.sourceforge.net/DTD/sodipodi-0.dtd"
   xmlns="http://www.w3.org/2000/svg"
   xmlns:svg="http://www.w3.org/2000/svg">
  <sodipodi:namedview
     id="namedview48959"
     pagecolor="#ffffff"
     bordercolor="#666666"
     borderopacity="1.0"
     objecttolerance="10.0"
     gridtolerance="10.0"
     guidetolerance="10.0"
     inkscape:pageshadow="2"
     inkscape:pageopacity="0.0"
     inkscape:pagecheckerboard="false"
     showgrid="false"
     inkscape:zoom="0.56315579"
     inkscape:cx="73.691865"
     inkscape:cy="378.22572"
     inkscape:window-width="1920"
     inkscape:window-height="1042"
     inkscape:window-x="0"
     inkscape:window-y="38"
     inkscape:window-maximized="1"
     inkscape:current-layer="layer7"
     fit-margin-top="0"
     fit-margin-left="0"
     fit-margin-right="0"
     fit-margin-bottom="0"
     lock-margins="true"
     inkscape:document-units="mm" />
  <defs
     id="defs48954">
    <rect
       x="97.769028"
       y="19.156399"
       width="58.577812"
       height="18.548388"
       id="rect198031" />
    <rect
       x="149.61488"
       y="24.215979"
       width="66.253494"
       height="30.423012"
       id="rect179635" />
    <marker
       style="overflow:visible"
       id="Arrow1Send"
       refX="0"
       refY="0"
       orient="auto"
       inkscape:stockid="Arrow1Send"
       inkscape:isstock="true">
      <path
         transform="matrix(-0.2,0,0,-0.2,-1.2,0)"
         style="fill:context-stroke;fill-rule:evenodd;stroke:context-stroke;stroke-width:1pt"
         d="M 0,0 5,-5 -12.5,0 5,5 Z"
         id="path176182" />
    </marker>
    <marker
       style="overflow:visible"
       id="Arrow1Mend"
       refX="0"
       refY="0"
       orient="auto"
       inkscape:stockid="Arrow1Mend"
       inkscape:isstock="true">
      <path
         transform="matrix(-0.4,0,0,-0.4,-4,0)"
         style="fill:context-stroke;fill-rule:evenodd;stroke:context-stroke;stroke-width:1pt"
         d="M 0,0 5,-5 -12.5,0 5,5 Z"
         id="path176176" />
    </marker>
    <marker
       style="overflow:visible"
       id="Arrow2Lstart"
       refX="0"
       refY="0"
       orient="auto"
       inkscape:stockid="Arrow2Lstart"
       inkscape:isstock="true">
      <path
         transform="matrix(1.1,0,0,1.1,1.1,0)"
         d="M 8.7185878,4.0337352 -2.2072895,0.01601326 8.7185884,-4.0017078 c -1.7454984,2.3720609 -1.7354408,5.6174519 -6e-7,8.035443 z"
         style="fill:context-stroke;fill-rule:evenodd;stroke-width:0.625;stroke-linejoin:round"
         id="path176185" />
    </marker>
    <marker
       style="overflow:visible"
       id="marker176455"
       refX="0"
       refY="0"
       orient="auto"
       inkscape:stockid="Arrow1Lstart"
       inkscape:isstock="true">
      <path
         transform="matrix(0.8,0,0,0.8,10,0)"
         style="fill:context-stroke;fill-rule:evenodd;stroke:context-stroke;stroke-width:1pt"
         d="M 0,0 5,-5 -12.5,0 5,5 Z"
         id="path176453" />
    </marker>
    <marker
       style="overflow:visible"
       id="marker176445"
       refX="0"
       refY="0"
       orient="auto"
       inkscape:stockid="Arrow1Lstart"
       inkscape:isstock="true">
      <path
         transform="matrix(0.8,0,0,0.8,10,0)"
         style="fill:context-stroke;fill-rule:evenodd;stroke:context-stroke;stroke-width:1pt"
         d="M 0,0 5,-5 -12.5,0 5,5 Z"
         id="path176443" />
    </marker>
    <marker
       style="overflow:visible"
       id="Arrow1Lend"
       refX="0"
       refY="0"
       orient="auto"
       inkscape:stockid="Arrow1Lend"
       inkscape:isstock="true">
      <path
         transform="matrix(-0.8,0,0,-0.8,-10,0)"
         style="fill:context-stroke;fill-rule:evenodd;stroke:context-stroke;stroke-width:1pt"
         d="M 0,0 5,-5 -12.5,0 5,5 Z"
         id="path176170" />
    </marker>
    <marker
       style="overflow:visible"
       id="Arrow1Lstart"
       refX="0"
       refY="0"
       orient="auto"
       inkscape:stockid="Arrow1Lstart"
       inkscape:isstock="true">
      <path
         transform="matrix(0.8,0,0,0.8,10,0)"
         style="fill:context-stroke;fill-rule:evenodd;stroke:context-stroke;stroke-width:1pt"
         d="M 0,0 5,-5 -12.5,0 5,5 Z"
         id="path176167" />
    </marker>
    <marker
       style="overflow:visible"
       id="Arrow1Send-3"
       refX="0"
       refY="0"
       orient="auto"
       inkscape:stockid="Arrow1Send"
       inkscape:isstock="true">
      <path
         transform="matrix(-0.2,0,0,-0.2,-1.2,0)"
         style="fill:context-stroke;fill-rule:evenodd;stroke:context-stroke;stroke-width:1pt"
         d="M 0,0 5,-5 -12.5,0 5,5 Z"
         id="path176182-6" />
    </marker>
    <rect
       x="149.61488"
       y="24.215979"
       width="71.074059"
       height="30.75399"
       id="rect179635-6" />
    <marker
       style="overflow:visible"
       id="Arrow1Send-3-9"
       refX="0"
       refY="0"
       orient="auto"
       inkscape:stockid="Arrow1Send"
       inkscape:isstock="true">
      <path
         transform="matrix(-0.2,0,0,-0.2,-1.2,0)"
         style="fill:context-stroke;fill-rule:evenodd;stroke:context-stroke;stroke-width:1pt"
         d="M 0,0 5,-5 -12.5,0 5,5 Z"
         id="path176182-6-1" />
    </marker>
    <rect
       x="149.61488"
       y="24.215979"
       width="71.074059"
       height="30.75399"
       id="rect179635-6-7" />
    <marker
       style="overflow:visible"
       id="Arrow1Send-9"
       refX="0"
       refY="0"
       orient="auto"
       inkscape:stockid="Arrow1Send"
       inkscape:isstock="true">
      <path
         transform="matrix(-0.2,0,0,-0.2,-1.2,0)"
         style="fill:context-stroke;fill-rule:evenodd;stroke:context-stroke;stroke-width:1pt"
         d="M 0,0 5,-5 -12.5,0 5,5 Z"
         id="path176182-3" />
    </marker>
    <marker
       style="overflow:visible"
       id="Arrow1Send-0"
       refX="0"
       refY="0"
       orient="auto"
       inkscape:stockid="Arrow1Send"
       inkscape:isstock="true">
      <path
         transform="matrix(-0.2,0,0,-0.2,-1.2,0)"
         style="fill:context-stroke;fill-rule:evenodd;stroke:context-stroke;stroke-width:1pt"
         d="M 0,0 5,-5 -12.5,0 5,5 Z"
         id="path176182-62" />
    </marker>
    <marker
       style="overflow:visible"
       id="Arrow1Send-8"
       refX="0"
       refY="0"
       orient="auto"
       inkscape:stockid="Arrow1Send"
       inkscape:isstock="true">
      <path
         transform="matrix(-0.2,0,0,-0.2,-1.2,0)"
         style="fill:context-stroke;fill-rule:evenodd;stroke:context-stroke;stroke-width:1pt"
         d="M 0,0 5,-5 -12.5,0 5,5 Z"
         id="path176182-7" />
    </marker>
    <rect
       x="149.61488"
       y="24.215979"
       width="71.074059"
       height="30.75399"
       id="rect179635-6-7-2" />
    <rect
       x="149.61488"
       y="24.215979"
       width="107.84095"
       height="53.459076"
       id="rect179635-6-7-23" />
    <rect
       x="149.61488"
       y="24.215979"
       width="71.074059"
       height="30.75399"
       id="rect179635-6-7-5" />
  </defs>
  <g
     inkscape:groupmode="layer"
     id="layer7"
     inkscape:label="Warstwa 4"
     transform="translate(-46.523884,-70.80587)">
    <rect
       style="fill:#47483c;fill-opacity:1;fill-rule:evenodd;stroke:none;stroke-width:1.44545;stroke-linecap:round;stroke-linejoin:round;stroke-miterlimit:4;stroke-dasharray:none;stroke-opacity:1"
       id="rect161878"
       width="120.50653"
       height="133.00552"
       x="46.523884"
       y="70.80587" />
  </g>
  <g
     inkscape:groupmode="layer"
     id="layer5"
     inkscape:label="Warstwa 2"
     style="display:inline;opacity:1"
     transform="translate(-46.523884,-70.80587)">
    <path
       style="font-variation-settings:normal;opacity:1;vector-effect:none;fill:#6b4234;fill-opacity:1;stroke:#39241b;stroke-width:0.264583px;stroke-linecap:butt;stroke-linejoin:miter;stroke-miterlimit:4;stroke-dasharray:none;stroke-dashoffset:0;stroke-opacity:1;stop-color:#000000;stop-opacity:1"
       d="m 93.035705,162.55332 c -4.134927,-0.71243 -18.025349,7.37715 -29.688991,16.46696 -1.345971,1.86587 6.663936,6.71077 8.567124,5.57351 9.072437,-7.78639 28.315452,-20.4129 21.121867,-22.04047 z"
       id="path49014"
       sodipodi:nodetypes="cccc" />
    <path
       style="font-variation-settings:normal;opacity:1;vector-effect:none;fill:#663e2f;fill-opacity:1;stroke:#39241b;stroke-width:0.264583px;stroke-linecap:butt;stroke-linejoin:miter;stroke-miterlimit:4;stroke-dasharray:none;stroke-dashoffset:0;stroke-opacity:1;stop-color:#000000;stop-opacity:1"
       d="m 96.722097,191.56116 c 0.139498,2.81306 5.775893,6.57652 7.054093,6.55751 1.27134,0.10553 4.87061,-3.25861 5.22933,-6.16365 0.10911,-8.29283 -0.84151,-25.03985 -1.52882,-24.87849 l -7.981825,-0.12681 c -0.68699,0.38152 -3.274613,16.82859 -2.772778,24.61144 z"
       id="path64825"
       sodipodi:nodetypes="cccccc" />
    <path
       style="font-variation-settings:normal;opacity:1;vector-effect:none;fill:#683c2c;fill-opacity:1;stroke:#39241b;stroke-width:0.264583px;stroke-linecap:butt;stroke-linejoin:miter;stroke-miterlimit:4;stroke-dasharray:none;stroke-dashoffset:0;stroke-opacity:1;stop-color:#000000;stop-opacity:1"
       d="m 114.26722,167.77458 c 4.84071,7.0765 10.87958,13.28922 16.37532,19.89349 7.21558,2.45129 9.9236,-0.56087 9.9756,-6.79231 -7.0197,-5.91899 -13.33059,-12.31467 -21.90002,-17.19142 -1.14779,-0.32604 -4.47407,3.17055 -4.4509,4.09024 z"
       id="path93385"
       sodipodi:nodetypes="ccccc" />
    <path
       style="font-variation-settings:normal;opacity:1;vector-effect:none;fill:#f6db4a;fill-opacity:1;stroke:none;stroke-width:0.264583px;stroke-linecap:butt;stroke-linejoin:miter;stroke-miterlimit:4;stroke-dasharray:none;stroke-dashoffset:0;stroke-opacity:1;stop-color:#000000;stop-opacity:1"
       d="m 99.682655,166.44818 c -17.549528,-12.99444 -27.905671,-44.35292 -17.492312,-48.8819 1.308078,12.61795 9.706264,20.39582 15.918222,29.72329 2.158295,3.49978 5.197355,18.98893 3.642605,19.12279 z"
       id="path104536"
       sodipodi:nodetypes="ccccc" />
    <path
       style="font-variation-settings:normal;opacity:1;vector-effect:none;fill:#f7da42;fill-opacity:1;stroke:none;stroke-width:0.264583px;stroke-linecap:butt;stroke-linejoin:miter;stroke-miterlimit:4;stroke-dasharray:none;stroke-dashoffset:0;stroke-opacity:1;stop-color:#000000;stop-opacity:1"
       d="m 102.14498,152.1857 c -0.57232,-6.43849 -6.552505,-13.95847 -11.978364,-20.43424 -4.639519,-6.87441 -6.649132,-14.87005 -6.25244,-23.89158 0.872952,-7.36314 4.540026,-11.803865 9.817344,-14.105125 -2.961623,12.474005 1.343949,18.821785 5.364085,25.651475 8.479595,10.85014 13.211395,21.89175 11.601945,32.36438 z"
       id="path115877"
       sodipodi:nodetypes="ccccccc" />
    <path
       style="font-variation-settings:normal;opacity:1;vector-effect:none;fill:#f8dc48;fill-opacity:1;stroke:none;stroke-width:0.264583px;stroke-linecap:butt;stroke-linejoin:miter;stroke-miterlimit:4;stroke-dasharray:none;stroke-dashoffset:0;stroke-opacity:1;stop-color:#000000;stop-opacity:1"
       d="m 116.05932,146.69911 c 0.30228,-10.09438 -10.6967,-24.9988 -18.194735,-37.06783 -7.204158,-15.922575 -0.16664,-25.816207 13.344865,-32.235072 -5.80676,13.303947 2.01038,26.705502 10.79815,39.985332 10.4834,17.79788 4.93463,26.34421 2.54442,32.35428 z"
       id="path124300"
       sodipodi:nodetypes="cccccc" />
  </g>
  <g
     inkscape:groupmode="layer"
     id="layer6"
     inkscape:label="Warstwa 3"
     style="opacity:1"
     transform="translate(-46.523884,-70.80587)">
    <path
       style="font-variation-settings:normal;opacity:1;vector-effect:none;fill:#fb3d35;fill-opacity:1;stroke:none;stroke-width:0.264583px;stroke-linecap:butt;stroke-linejoin:miter;stroke-miterlimit:4;stroke-dasharray:none;stroke-dashoffset:0;stroke-opacity:1;stop-color:#000000;stop-opacity:1"
       d="m 100.56287,166.4738 c -1.067995,0.47592 -6.112917,-4.38616 -10.088456,-9.19701 -0.610769,-4.44901 -0.272126,-9.27057 -4.074337,-12.27353 4.846953,-2.90226 9.066655,0.1999 12.968178,6.34783 1.417455,2.84856 4.314935,15.87026 1.194615,15.12271 z"
       id="path132068"
       sodipodi:nodetypes="ccccc" />
    <path
       style="font-variation-settings:normal;opacity:1;vector-effect:none;fill:#f9493f;fill-opacity:1;stroke:none;stroke-width:0.264583px;stroke-linecap:butt;stroke-linejoin:miter;stroke-miterlimit:4;stroke-dasharray:none;stroke-dashoffset:0;stroke-opacity:1;stop-color:#000000;stop-opacity:1"
       d="m 106.2306,164.53291 c -2.74443,-5.15928 -5.80569,-10.12401 -2.93977,-18.72819 -0.0107,-3.79521 -1.53443,-7.59043 -3.779735,-11.38564 6.258965,1.48013 11.656705,4.3766 11.097065,13.54984 0.80092,7.39913 -1.93355,11.8609 -4.37756,16.56399 z"
       id="path139935"
       sodipodi:nodetypes="ccccc" />
    <path
       style="font-variation-settings:normal;opacity:1;vector-effect:none;fill:#fd5249;fill-opacity:1;stroke:none;stroke-width:0.264583px;stroke-linecap:butt;stroke-linejoin:miter;stroke-miterlimit:4;stroke-dasharray:none;stroke-dashoffset:0;stroke-opacity:1;stop-color:#000000;stop-opacity:1"
       d="m 109.19981,165.56179 c 15.52851,-6.84041 17.62583,-17.41679 15.15517,-29.26379 -2.67563,-5.55887 -6.04483,-8.72527 -10.14187,-9.38109 8.65444,10.78895 -0.93856,25.27611 -5.0133,38.64488 z"
       id="path146914"
       sodipodi:nodetypes="cccc" />
  </g>
  <g
     inkscape:groupmode="layer"
     id="layer8"
     inkscape:label="Warstwa 5"
     style="display:inline"
     transform="translate(-46.523884,-70.80587)">
    <text
       xml:space="preserve"
       id="text198029"
       style="font-size:1.41111px;line-height:1.25;font-family:sans-serif;letter-spacing:0px;word-spacing:0px;white-space:pre;shape-inside:url(#rect198031)" />
  </g>
</svg>
