<?xml version="1.0" encoding="UTF-8" standalone="no"?>
<svg
   width="88.165581mm"
   height="88.165581mm"
   viewBox="0 0 88.165582 88.165579"
   version="1.1"
   id="svg48957"
   inkscape:version="1.2-dev (0853165845, 2021-06-13, custom)"
   sodipodi:docname="watra_duch.svg"
   xmlns:inkscape="http://www.inkscape.org/namespaces/inkscape"
   xmlns:sodipodi="http://sodipodi.sourceforge.net/DTD/sodipodi-0.dtd"
   xmlns="http://www.w3.org/2000/svg"
   xmlns:svg="http://www.w3.org/2000/svg">
  <sodipodi:namedview
     id="namedview48959"
     pagecolor="#ffffff"
     bordercolor="#666666"
     borderopacity="1.0"
     objecttolerance="10.0"
     gridtolerance="10.0"
     guidetolerance="10.0"
     inkscape:pageshadow="2"
     inkscape:pageopacity="0.0"
     inkscape:pagecheckerboard="false"
     showgrid="false"
     inkscape:zoom="1.1263116"
     inkscape:cx="-103.43497"
     inkscape:cy="285.00107"
     inkscape:window-width="1920"
     inkscape:window-height="1042"
     inkscape:window-x="0"
     inkscape:window-y="38"
     inkscape:window-maximized="1"
     inkscape:current-layer="layer5"
     fit-margin-top="0"
     fit-margin-left="0"
     fit-margin-right="0"
     fit-margin-bottom="0"
     lock-margins="true"
     inkscape:document-units="mm" />
  <defs
     id="defs48954">
    <rect
       x="97.769028"
       y="19.156399"
       width="58.577812"
       height="18.548388"
       id="rect198031" />
    <rect
       x="149.61488"
       y="24.215979"
       width="66.253494"
       height="30.423012"
       id="rect179635" />
    <marker
       style="overflow:visible"
       id="Arrow1Send"
       refX="0"
       refY="0"
       orient="auto"
       inkscape:stockid="Arrow1Send"
       inkscape:isstock="true">
      <path
         transform="matrix(-0.2,0,0,-0.2,-1.2,0)"
         style="fill:context-stroke;fill-rule:evenodd;stroke:context-stroke;stroke-width:1pt"
         d="M 0,0 5,-5 -12.5,0 5,5 Z"
         id="path176182" />
    </marker>
    <marker
       style="overflow:visible"
       id="Arrow1Mend"
       refX="0"
       refY="0"
       orient="auto"
       inkscape:stockid="Arrow1Mend"
       inkscape:isstock="true">
      <path
         transform="matrix(-0.4,0,0,-0.4,-4,0)"
         style="fill:context-stroke;fill-rule:evenodd;stroke:context-stroke;stroke-width:1pt"
         d="M 0,0 5,-5 -12.5,0 5,5 Z"
         id="path176176" />
    </marker>
    <marker
       style="overflow:visible"
       id="Arrow2Lstart"
       refX="0"
       refY="0"
       orient="auto"
       inkscape:stockid="Arrow2Lstart"
       inkscape:isstock="true">
      <path
         transform="matrix(1.1,0,0,1.1,1.1,0)"
         d="M 8.7185878,4.0337352 -2.2072895,0.01601326 8.7185884,-4.0017078 c -1.7454984,2.3720609 -1.7354408,5.6174519 -6e-7,8.035443 z"
         style="fill:context-stroke;fill-rule:evenodd;stroke-width:0.625;stroke-linejoin:round"
         id="path176185" />
    </marker>
    <marker
       style="overflow:visible"
       id="marker176455"
       refX="0"
       refY="0"
       orient="auto"
       inkscape:stockid="Arrow1Lstart"
       inkscape:isstock="true">
      <path
         transform="matrix(0.8,0,0,0.8,10,0)"
         style="fill:context-stroke;fill-rule:evenodd;stroke:context-stroke;stroke-width:1pt"
         d="M 0,0 5,-5 -12.5,0 5,5 Z"
         id="path176453" />
    </marker>
    <marker
       style="overflow:visible"
       id="marker176445"
       refX="0"
       refY="0"
       orient="auto"
       inkscape:stockid="Arrow1Lstart"
       inkscape:isstock="true">
      <path
         transform="matrix(0.8,0,0,0.8,10,0)"
         style="fill:context-stroke;fill-rule:evenodd;stroke:context-stroke;stroke-width:1pt"
         d="M 0,0 5,-5 -12.5,0 5,5 Z"
         id="path176443" />
    </marker>
    <marker
       style="overflow:visible"
       id="Arrow1Lend"
       refX="0"
       refY="0"
       orient="auto"
       inkscape:stockid="Arrow1Lend"
       inkscape:isstock="true">
      <path
         transform="matrix(-0.8,0,0,-0.8,-10,0)"
         style="fill:context-stroke;fill-rule:evenodd;stroke:context-stroke;stroke-width:1pt"
         d="M 0,0 5,-5 -12.5,0 5,5 Z"
         id="path176170" />
    </marker>
    <marker
       style="overflow:visible"
       id="Arrow1Lstart"
       refX="0"
       refY="0"
       orient="auto"
       inkscape:stockid="Arrow1Lstart"
       inkscape:isstock="true">
      <path
         transform="matrix(0.8,0,0,0.8,10,0)"
         style="fill:context-stroke;fill-rule:evenodd;stroke:context-stroke;stroke-width:1pt"
         d="M 0,0 5,-5 -12.5,0 5,5 Z"
         id="path176167" />
    </marker>
    <marker
       style="overflow:visible"
       id="Arrow1Send-3"
       refX="0"
       refY="0"
       orient="auto"
       inkscape:stockid="Arrow1Send"
       inkscape:isstock="true">
      <path
         transform="matrix(-0.2,0,0,-0.2,-1.2,0)"
         style="fill:context-stroke;fill-rule:evenodd;stroke:context-stroke;stroke-width:1pt"
         d="M 0,0 5,-5 -12.5,0 5,5 Z"
         id="path176182-6" />
    </marker>
    <rect
       x="149.61488"
       y="24.215979"
       width="71.074059"
       height="30.75399"
       id="rect179635-6" />
    <marker
       style="overflow:visible"
       id="Arrow1Send-3-9"
       refX="0"
       refY="0"
       orient="auto"
       inkscape:stockid="Arrow1Send"
       inkscape:isstock="true">
      <path
         transform="matrix(-0.2,0,0,-0.2,-1.2,0)"
         style="fill:context-stroke;fill-rule:evenodd;stroke:context-stroke;stroke-width:1pt"
         d="M 0,0 5,-5 -12.5,0 5,5 Z"
         id="path176182-6-1" />
    </marker>
    <rect
       x="149.61488"
       y="24.215979"
       width="71.074059"
       height="30.75399"
       id="rect179635-6-7" />
    <marker
       style="overflow:visible"
       id="Arrow1Send-9"
       refX="0"
       refY="0"
       orient="auto"
       inkscape:stockid="Arrow1Send"
       inkscape:isstock="true">
      <path
         transform="matrix(-0.2,0,0,-0.2,-1.2,0)"
         style="fill:context-stroke;fill-rule:evenodd;stroke:context-stroke;stroke-width:1pt"
         d="M 0,0 5,-5 -12.5,0 5,5 Z"
         id="path176182-3" />
    </marker>
    <marker
       style="overflow:visible"
       id="Arrow1Send-0"
       refX="0"
       refY="0"
       orient="auto"
       inkscape:stockid="Arrow1Send"
       inkscape:isstock="true">
      <path
         transform="matrix(-0.2,0,0,-0.2,-1.2,0)"
         style="fill:context-stroke;fill-rule:evenodd;stroke:context-stroke;stroke-width:1pt"
         d="M 0,0 5,-5 -12.5,0 5,5 Z"
         id="path176182-62" />
    </marker>
    <marker
       style="overflow:visible"
       id="Arrow1Send-8"
       refX="0"
       refY="0"
       orient="auto"
       inkscape:stockid="Arrow1Send"
       inkscape:isstock="true">
      <path
         transform="matrix(-0.2,0,0,-0.2,-1.2,0)"
         style="fill:context-stroke;fill-rule:evenodd;stroke:context-stroke;stroke-width:1pt"
         d="M 0,0 5,-5 -12.5,0 5,5 Z"
         id="path176182-7" />
    </marker>
    <rect
       x="149.61488"
       y="24.215979"
       width="71.074059"
       height="30.75399"
       id="rect179635-6-7-2" />
    <rect
       x="149.61488"
       y="24.215979"
       width="107.84095"
       height="53.459076"
       id="rect179635-6-7-23" />
    <rect
       x="149.61488"
       y="24.215979"
       width="71.074059"
       height="30.75399"
       id="rect179635-6-7-5" />
  </defs>
  <g
     inkscape:groupmode="layer"
     id="layer7"
     inkscape:label="Warstwa 4"
     transform="translate(-100.28226,-77.396208)" />
  <g
     inkscape:groupmode="layer"
     id="layer5"
     inkscape:label="Warstwa 2"
     style="display:inline;opacity:1"
     transform="translate(-100.28226,-77.396208)">
    <path
       style="font-variation-settings:normal;opacity:1;vector-effect:none;fill:#f8dc48;fill-opacity:1;stroke:none;stroke-width:0.264583px;stroke-linecap:butt;stroke-linejoin:miter;stroke-miterlimit:4;stroke-dasharray:none;stroke-dashoffset:0;stroke-opacity:1;stop-color:#000000;stop-opacity:1"
       d="m 147.80937,146.69911 c 0.30228,-10.09438 -10.6967,-24.9988 -18.19475,-37.06783 -7.20418,-15.922575 -0.16664,-25.816207 13.34488,-32.235072 -5.80676,13.303947 2.01038,26.705502 10.79815,39.985332 10.4834,17.79788 4.93463,26.34421 2.54442,32.35428 z"
       id="path124300"
       sodipodi:nodetypes="cccccc" />
  </g>
  <g
     inkscape:groupmode="layer"
     id="layer6"
     inkscape:label="Warstwa 3"
     style="opacity:1"
     transform="translate(-100.28226,-77.396208)">
    <path
       style="font-variation-settings:normal;opacity:1;vector-effect:none;fill:#fd5249;fill-opacity:1;stroke:none;stroke-width:0.264583px;stroke-linecap:butt;stroke-linejoin:miter;stroke-miterlimit:4;stroke-dasharray:none;stroke-dashoffset:0;stroke-opacity:1;stop-color:#000000;stop-opacity:1"
       d="m 140.94986,165.56179 c 15.52851,-6.84041 17.62583,-17.41679 15.15517,-29.26379 -2.67563,-5.55887 -6.04483,-8.72527 -10.14187,-9.38109 8.65444,10.78895 -0.93856,25.27611 -5.0133,38.64488 z"
       id="path146914"
       sodipodi:nodetypes="cccc" />
  </g>
  <g
     inkscape:groupmode="layer"
     id="layer8"
     inkscape:label="Warstwa 5"
     style="display:inline"
     transform="translate(-100.28226,-77.396208)">
    <text
       xml:space="preserve"
       id="text198029"
       style="font-size:1.41111px;line-height:1.25;font-family:sans-serif;letter-spacing:0px;word-spacing:0px;white-space:pre;shape-inside:url(#rect198031)" />
  </g>
</svg>
