<?xml version="1.0" encoding="UTF-8" standalone="no"?>
<svg
   width="272.46701mm"
   height="300.72742mm"
   viewBox="0 0 272.46701 300.72742"
   version="1.1"
   id="svg48957"
   inkscape:version="1.2-dev (b7a20b0417, 2021-04-06, custom)"
   sodipodi:docname="watra_symbolika.svg"
   xmlns:inkscape="http://www.inkscape.org/namespaces/inkscape"
   xmlns:sodipodi="http://sodipodi.sourceforge.net/DTD/sodipodi-0.dtd"
   xmlns="http://www.w3.org/2000/svg"
   xmlns:svg="http://www.w3.org/2000/svg">
  <sodipodi:namedview
     id="namedview48959"
     pagecolor="#ffffff"
     bordercolor="#666666"
     borderopacity="1.0"
     objecttolerance="10.0"
     gridtolerance="10.0"
     guidetolerance="10.0"
     inkscape:pageshadow="2"
     inkscape:pageopacity="0.0"
     inkscape:pagecheckerboard="false"
     showgrid="false"
     inkscape:zoom="1.5928451"
     inkscape:cx="479.95877"
     inkscape:cy="390.18231"
     inkscape:window-width="1920"
     inkscape:window-height="1080"
     inkscape:window-x="0"
     inkscape:window-y="0"
     inkscape:window-maximized="1"
     inkscape:current-layer="layer8"
     fit-margin-top="0"
     fit-margin-left="0"
     fit-margin-right="0"
     fit-margin-bottom="0"
     lock-margins="true"
     inkscape:document-units="mm" />
  <defs
     id="defs48954">
    <rect
       x="97.769028"
       y="19.156399"
       width="58.577812"
       height="18.548388"
       id="rect198031" />
    <rect
       x="149.61488"
       y="24.215979"
       width="66.253494"
       height="30.423012"
       id="rect179635" />
    <marker
       style="overflow:visible"
       id="Arrow1Send"
       refX="0"
       refY="0"
       orient="auto"
       inkscape:stockid="Arrow1Send"
       inkscape:isstock="true">
      <path
         transform="matrix(-0.2,0,0,-0.2,-1.2,0)"
         style="fill:context-stroke;fill-rule:evenodd;stroke:context-stroke;stroke-width:1pt"
         d="M 0,0 5,-5 -12.5,0 5,5 Z"
         id="path176182" />
    </marker>
    <marker
       style="overflow:visible"
       id="Arrow1Mend"
       refX="0"
       refY="0"
       orient="auto"
       inkscape:stockid="Arrow1Mend"
       inkscape:isstock="true">
      <path
         transform="matrix(-0.4,0,0,-0.4,-4,0)"
         style="fill:context-stroke;fill-rule:evenodd;stroke:context-stroke;stroke-width:1pt"
         d="M 0,0 5,-5 -12.5,0 5,5 Z"
         id="path176176" />
    </marker>
    <marker
       style="overflow:visible"
       id="Arrow2Lstart"
       refX="0"
       refY="0"
       orient="auto"
       inkscape:stockid="Arrow2Lstart"
       inkscape:isstock="true">
      <path
         transform="matrix(1.1,0,0,1.1,1.1,0)"
         d="M 8.7185878,4.0337352 -2.2072895,0.01601326 8.7185884,-4.0017078 c -1.7454984,2.3720609 -1.7354408,5.6174519 -6e-7,8.035443 z"
         style="fill:context-stroke;fill-rule:evenodd;stroke-width:0.625;stroke-linejoin:round"
         id="path176185" />
    </marker>
    <marker
       style="overflow:visible"
       id="marker176455"
       refX="0"
       refY="0"
       orient="auto"
       inkscape:stockid="Arrow1Lstart"
       inkscape:isstock="true">
      <path
         transform="matrix(0.8,0,0,0.8,10,0)"
         style="fill:context-stroke;fill-rule:evenodd;stroke:context-stroke;stroke-width:1pt"
         d="M 0,0 5,-5 -12.5,0 5,5 Z"
         id="path176453" />
    </marker>
    <marker
       style="overflow:visible"
       id="marker176445"
       refX="0"
       refY="0"
       orient="auto"
       inkscape:stockid="Arrow1Lstart"
       inkscape:isstock="true">
      <path
         transform="matrix(0.8,0,0,0.8,10,0)"
         style="fill:context-stroke;fill-rule:evenodd;stroke:context-stroke;stroke-width:1pt"
         d="M 0,0 5,-5 -12.5,0 5,5 Z"
         id="path176443" />
    </marker>
    <marker
       style="overflow:visible"
       id="Arrow1Lend"
       refX="0"
       refY="0"
       orient="auto"
       inkscape:stockid="Arrow1Lend"
       inkscape:isstock="true">
      <path
         transform="matrix(-0.8,0,0,-0.8,-10,0)"
         style="fill:context-stroke;fill-rule:evenodd;stroke:context-stroke;stroke-width:1pt"
         d="M 0,0 5,-5 -12.5,0 5,5 Z"
         id="path176170" />
    </marker>
    <marker
       style="overflow:visible"
       id="Arrow1Lstart"
       refX="0"
       refY="0"
       orient="auto"
       inkscape:stockid="Arrow1Lstart"
       inkscape:isstock="true">
      <path
         transform="matrix(0.8,0,0,0.8,10,0)"
         style="fill:context-stroke;fill-rule:evenodd;stroke:context-stroke;stroke-width:1pt"
         d="M 0,0 5,-5 -12.5,0 5,5 Z"
         id="path176167" />
    </marker>
    <marker
       style="overflow:visible"
       id="Arrow1Send-3"
       refX="0"
       refY="0"
       orient="auto"
       inkscape:stockid="Arrow1Send"
       inkscape:isstock="true">
      <path
         transform="matrix(-0.2,0,0,-0.2,-1.2,0)"
         style="fill:context-stroke;fill-rule:evenodd;stroke:context-stroke;stroke-width:1pt"
         d="M 0,0 5,-5 -12.5,0 5,5 Z"
         id="path176182-6" />
    </marker>
    <rect
       x="149.61488"
       y="24.215979"
       width="71.074059"
       height="30.75399"
       id="rect179635-6" />
    <marker
       style="overflow:visible"
       id="Arrow1Send-3-9"
       refX="0"
       refY="0"
       orient="auto"
       inkscape:stockid="Arrow1Send"
       inkscape:isstock="true">
      <path
         transform="matrix(-0.2,0,0,-0.2,-1.2,0)"
         style="fill:context-stroke;fill-rule:evenodd;stroke:context-stroke;stroke-width:1pt"
         d="M 0,0 5,-5 -12.5,0 5,5 Z"
         id="path176182-6-1" />
    </marker>
    <rect
       x="149.61488"
       y="24.215979"
       width="71.074059"
       height="30.75399"
       id="rect179635-6-7" />
    <marker
       style="overflow:visible"
       id="Arrow1Send-9"
       refX="0"
       refY="0"
       orient="auto"
       inkscape:stockid="Arrow1Send"
       inkscape:isstock="true">
      <path
         transform="matrix(-0.2,0,0,-0.2,-1.2,0)"
         style="fill:context-stroke;fill-rule:evenodd;stroke:context-stroke;stroke-width:1pt"
         d="M 0,0 5,-5 -12.5,0 5,5 Z"
         id="path176182-3" />
    </marker>
    <marker
       style="overflow:visible"
       id="Arrow1Send-0"
       refX="0"
       refY="0"
       orient="auto"
       inkscape:stockid="Arrow1Send"
       inkscape:isstock="true">
      <path
         transform="matrix(-0.2,0,0,-0.2,-1.2,0)"
         style="fill:context-stroke;fill-rule:evenodd;stroke:context-stroke;stroke-width:1pt"
         d="M 0,0 5,-5 -12.5,0 5,5 Z"
         id="path176182-62" />
    </marker>
    <marker
       style="overflow:visible"
       id="Arrow1Send-8"
       refX="0"
       refY="0"
       orient="auto"
       inkscape:stockid="Arrow1Send"
       inkscape:isstock="true">
      <path
         transform="matrix(-0.2,0,0,-0.2,-1.2,0)"
         style="fill:context-stroke;fill-rule:evenodd;stroke:context-stroke;stroke-width:1pt"
         d="M 0,0 5,-5 -12.5,0 5,5 Z"
         id="path176182-7" />
    </marker>
    <rect
       x="149.61488"
       y="24.215979"
       width="71.074059"
       height="30.75399"
       id="rect179635-6-7-2" />
    <rect
       x="149.61488"
       y="24.215979"
       width="107.84095"
       height="53.459076"
       id="rect179635-6-7-23" />
    <rect
       x="149.61488"
       y="24.215979"
       width="71.074059"
       height="30.75399"
       id="rect179635-6-7-5" />
  </defs>
  <g
     inkscape:groupmode="layer"
     id="layer7"
     inkscape:label="Warstwa 4"
     transform="translate(21.358253,7.037303)">
    <rect
       style="fill:#47483c;fill-opacity:1;fill-rule:evenodd;stroke:none;stroke-width:3.26819;stroke-linecap:round;stroke-linejoin:round;stroke-miterlimit:4;stroke-dasharray:none;stroke-opacity:1"
       id="rect161878"
       width="272.46701"
       height="300.72742"
       x="-21.358253"
       y="-7.037303" />
    <g
       id="path175802-61">
      <path
         style="color:#000000;fill:#ffffff;-inkscape-stroke:none"
         d="m 106.22656,205.39844 -2.83398,0.36133 3.70312,29.16601 2.83399,-0.35937 z"
         id="path1348" />
      <g
         id="g1336">
        <g
           id="path1338">
          <path
             style="color:#000000;fill:#ffffff;fill-rule:evenodd;stroke-width:0.5715pt;-inkscape-stroke:none"
             d="m 105.24098,208.98072 3.19472,2.47475 -4.09468,-9.56158 -1.57479,10.28155 z"
             id="path1342" />
          <path
             style="color:#000000;fill:#ffffff;fill-rule:evenodd;-inkscape-stroke:none"
             d="m 104.16602,200.51758 -1.99805,13.05273 3.14258,-4.05469 4.05468,3.14063 z m 0.34961,2.75 2.99023,6.98437 -2.33203,-1.80664 -0.23438,0.30274 -1.57422,2.03125 z"
             id="path1344" />
        </g>
      </g>
    </g>
    <g
       id="path175802-9">
      <path
         style="color:#000000;fill:#ffffff;-inkscape-stroke:none"
         d="m 147.57227,189.6875 -1.25977,2.56445 47.42578,23.29102 1.25977,-2.56445 z"
         id="path1330" />
      <g
         id="g1318">
        <g
           id="path1320">
          <path
             style="color:#000000;fill:#ffffff;fill-rule:evenodd;stroke-width:0.5715pt;-inkscape-stroke:none"
             d="m 150.0202,192.48085 3.82452,-1.30525 -10.23673,-1.84384 7.71746,6.97361 z"
             id="path1324" />
          <path
             style="color:#000000;fill:#ffffff;fill-rule:evenodd;-inkscape-stroke:none"
             d="m 142.36328,188.7207 9.79688,8.85352 -1.65625,-4.85547 4.85546,-1.6582 z m 2.49024,1.22266 7.47656,1.3457 -2.79297,0.95508 0.12305,0.35938 0.83007,2.43554 z"
             id="path1326" />
        </g>
      </g>
    </g>
  </g>
  <g
     inkscape:groupmode="layer"
     id="layer5"
     inkscape:label="Warstwa 2"
     style="display:inline;opacity:1"
     transform="translate(21.358253,7.037303)">
    <path
       style="font-variation-settings:normal;opacity:1;vector-effect:none;fill:#6b4234;fill-opacity:1;stroke:#39241b;stroke-width:0.264583px;stroke-linecap:butt;stroke-linejoin:miter;stroke-miterlimit:4;stroke-dasharray:none;stroke-dashoffset:0;stroke-opacity:1;stop-color:#000000;stop-opacity:1"
       d="m 93.035705,162.55332 c -4.134927,-0.71243 -18.025349,7.37715 -29.688991,16.46696 -1.345971,1.86587 6.663936,6.71077 8.567124,5.57351 9.072437,-7.78639 28.315452,-20.4129 21.121867,-22.04047 z"
       id="path49014"
       sodipodi:nodetypes="cccc" />
    <path
       style="font-variation-settings:normal;opacity:1;vector-effect:none;fill:#663e2f;fill-opacity:1;stroke:#39241b;stroke-width:0.264583px;stroke-linecap:butt;stroke-linejoin:miter;stroke-miterlimit:4;stroke-dasharray:none;stroke-dashoffset:0;stroke-opacity:1;stop-color:#000000;stop-opacity:1"
       d="m 96.722097,191.56116 c 0.139498,2.81306 5.775893,6.57652 7.054093,6.55751 1.27134,0.10553 4.87061,-3.25861 5.22933,-6.16365 0.10911,-8.29283 -0.84151,-25.03985 -1.52882,-24.87849 l -7.981825,-0.12681 c -0.68699,0.38152 -3.274613,16.82859 -2.772778,24.61144 z"
       id="path64825"
       sodipodi:nodetypes="cccccc" />
    <path
       style="font-variation-settings:normal;opacity:1;vector-effect:none;fill:#683c2c;fill-opacity:1;stroke:#39241b;stroke-width:0.264583px;stroke-linecap:butt;stroke-linejoin:miter;stroke-miterlimit:4;stroke-dasharray:none;stroke-dashoffset:0;stroke-opacity:1;stop-color:#000000;stop-opacity:1"
       d="m 114.26722,167.77458 c 4.84071,7.0765 10.87958,13.28922 16.37532,19.89349 7.21558,2.45129 9.9236,-0.56087 9.9756,-6.79231 -7.0197,-5.91899 -13.33059,-12.31467 -21.90002,-17.19142 -1.14779,-0.32604 -4.47407,3.17055 -4.4509,4.09024 z"
       id="path93385"
       sodipodi:nodetypes="ccccc" />
    <path
       style="font-variation-settings:normal;opacity:1;vector-effect:none;fill:#f6db4a;fill-opacity:1;stroke:none;stroke-width:0.264583px;stroke-linecap:butt;stroke-linejoin:miter;stroke-miterlimit:4;stroke-dasharray:none;stroke-dashoffset:0;stroke-opacity:1;stop-color:#000000;stop-opacity:1"
       d="m 99.682655,166.44818 c -17.549528,-12.99444 -27.905671,-44.35292 -17.492312,-48.8819 1.308078,12.61795 9.706264,20.39582 15.918222,29.72329 2.158295,3.49978 5.197355,18.98893 3.642605,19.12279 z"
       id="path104536"
       sodipodi:nodetypes="ccccc" />
    <path
       style="font-variation-settings:normal;opacity:1;vector-effect:none;fill:#f7da42;fill-opacity:1;stroke:none;stroke-width:0.264583px;stroke-linecap:butt;stroke-linejoin:miter;stroke-miterlimit:4;stroke-dasharray:none;stroke-dashoffset:0;stroke-opacity:1;stop-color:#000000;stop-opacity:1"
       d="m 102.14498,152.1857 c -0.57232,-6.43849 -6.552505,-13.95847 -11.978364,-20.43424 -4.639519,-6.87441 -6.649132,-14.87005 -6.25244,-23.89158 0.872952,-7.36314 4.540026,-11.803865 9.817344,-14.105125 -2.961623,12.474005 1.343949,18.821785 5.364085,25.651475 8.479595,10.85014 13.211395,21.89175 11.601945,32.36438 z"
       id="path115877"
       sodipodi:nodetypes="ccccccc" />
    <path
       style="font-variation-settings:normal;opacity:1;vector-effect:none;fill:#f8dc48;fill-opacity:1;stroke:none;stroke-width:0.264583px;stroke-linecap:butt;stroke-linejoin:miter;stroke-miterlimit:4;stroke-dasharray:none;stroke-dashoffset:0;stroke-opacity:1;stop-color:#000000;stop-opacity:1"
       d="m 116.05932,146.69911 c 0.30228,-10.09438 -10.6967,-24.9988 -18.194735,-37.06783 -7.204158,-15.922575 -0.16664,-25.816207 13.344865,-32.235072 -5.80676,13.303947 2.01038,26.705502 10.79815,39.985332 10.4834,17.79788 4.93463,26.34421 2.54442,32.35428 z"
       id="path124300"
       sodipodi:nodetypes="cccccc" />
  </g>
  <g
     inkscape:groupmode="layer"
     id="layer6"
     inkscape:label="Warstwa 3"
     style="opacity:1"
     transform="translate(21.358253,7.037303)">
    <path
       style="font-variation-settings:normal;opacity:1;vector-effect:none;fill:#fb3d35;fill-opacity:1;stroke:none;stroke-width:0.264583px;stroke-linecap:butt;stroke-linejoin:miter;stroke-miterlimit:4;stroke-dasharray:none;stroke-dashoffset:0;stroke-opacity:1;stop-color:#000000;stop-opacity:1"
       d="m 100.56287,166.4738 c -1.067995,0.47592 -6.112917,-4.38616 -10.088456,-9.19701 -0.610769,-4.44901 -0.272126,-9.27057 -4.074337,-12.27353 4.846953,-2.90226 9.066655,0.1999 12.968178,6.34783 1.417455,2.84856 4.314935,15.87026 1.194615,15.12271 z"
       id="path132068"
       sodipodi:nodetypes="ccccc" />
    <path
       style="font-variation-settings:normal;opacity:1;vector-effect:none;fill:#f9493f;fill-opacity:1;stroke:none;stroke-width:0.264583px;stroke-linecap:butt;stroke-linejoin:miter;stroke-miterlimit:4;stroke-dasharray:none;stroke-dashoffset:0;stroke-opacity:1;stop-color:#000000;stop-opacity:1"
       d="m 106.2306,164.53291 c -2.74443,-5.15928 -5.80569,-10.12401 -2.93977,-18.72819 -0.0107,-3.79521 -1.53443,-7.59043 -3.779735,-11.38564 6.258965,1.48013 11.656705,4.3766 11.097065,13.54984 0.80092,7.39913 -1.93355,11.8609 -4.37756,16.56399 z"
       id="path139935"
       sodipodi:nodetypes="ccccc" />
    <path
       style="font-variation-settings:normal;opacity:1;vector-effect:none;fill:#fd5249;fill-opacity:1;stroke:none;stroke-width:0.264583px;stroke-linecap:butt;stroke-linejoin:miter;stroke-miterlimit:4;stroke-dasharray:none;stroke-dashoffset:0;stroke-opacity:1;stop-color:#000000;stop-opacity:1"
       d="m 109.19981,165.56179 c 15.52851,-6.84041 17.62583,-17.41679 15.15517,-29.26379 -2.67563,-5.55887 -6.04483,-8.72527 -10.14187,-9.38109 8.65444,10.78895 -0.93856,25.27611 -5.0133,38.64488 z"
       id="path146914"
       sodipodi:nodetypes="cccc" />
  </g>
  <g
     inkscape:groupmode="layer"
     id="layer8"
     inkscape:label="Warstwa 5"
     style="display:inline"
     transform="translate(21.358253,7.037303)">
    <g
       id="path175802">
      <path
         style="color:#000000;fill:#ffffff;-inkscape-stroke:none"
         d="m 153.14062,45.740234 -38.18359,27.119141 1.65625,2.330078 38.18164,-27.119141 z"
         id="path1648" />
      <g
         id="g1636">
        <g
           id="path1638">
          <path
             style="color:#000000;fill:#ffffff;fill-rule:evenodd;stroke-width:0.5715pt;-inkscape-stroke:none"
             d="m 118.58093,72.039357 0.67501,-3.984341 -6.4992,8.121007 9.80853,-3.461657 z"
             id="path1642" />
          <path
             style="color:#000000;fill:#ffffff;fill-rule:evenodd;-inkscape-stroke:none"
             d="m 119.87695,66.669922 -8.25,10.308594 12.45118,-4.394532 -5.05665,-0.855468 z m -1.24023,2.769531 -0.49414,2.912109 0.375,0.0625 2.53515,0.429688 -7.16406,2.529297 z"
             id="path1644" />
        </g>
      </g>
    </g>
    <g
       aria-label="Siła ducha"
       transform="translate(5.2002087,11.484086)"
       id="text179633"
       style="font-size:11.2889px;line-height:1.25;letter-spacing:0px;word-spacing:0px;white-space:pre;shape-inside:url(#rect179635);fill:#ffffff">
      <path
         d="m 155.65656,26.245271 v 1.085895 q -0.6339,-0.303168 -1.19614,-0.451997 -0.56224,-0.148828 -1.08589,-0.148828 -0.90951,0 -1.4056,0.352778 -0.49059,0.352778 -0.49059,1.003213 0,0.545704 0.32522,0.826824 0.33073,0.275608 1.24575,0.446485 l 0.67248,0.137804 q 1.24575,0.237022 1.83555,0.837848 0.59531,0.595313 0.59531,1.598526 0,1.196138 -0.80477,1.8135 -0.79926,0.617361 -2.34818,0.617361 -0.58429,0 -1.24575,-0.132291 -0.65595,-0.132292 -1.3615,-0.391364 v -1.146529 q 0.67799,0.380339 1.32843,0.573265 0.65043,0.192925 1.27882,0.192925 0.9536,0 1.47175,-0.374826 0.51814,-0.374827 0.51814,-1.069359 0,-0.606337 -0.37483,-0.948091 -0.36931,-0.341754 -1.21818,-0.512631 l -0.678,-0.132292 q -1.24575,-0.248047 -1.80248,-0.777214 -0.55672,-0.529167 -0.55672,-1.471746 0,-1.091408 0.76619,-1.719794 0.7717,-0.628386 2.12218,-0.628386 0.57877,0 1.1796,0.104731 0.60082,0.104731 1.22921,0.314193 z"
         id="path23983" />
      <path
         d="m 157.84489,28.03121 h 1.01423 v 6.173618 h -1.01423 z m 0,-2.403301 h 1.01423 v 1.284333 h -1.01423 z"
         id="path23985" />
      <path
         d="m 161.01438,25.627909 h 1.01424 v 3.31832 l 0.68901,-0.496094 0.41893,0.584288 -1.10794,0.777215 v 4.39319 h -1.01424 V 30.53373 l -0.678,0.48507 -0.4079,-0.584288 1.0859,-0.777215 z"
         id="path23987" />
      <path
         d="m 166.99507,31.101483 q -1.22921,0 -1.70326,0.28112 -0.47404,0.28112 -0.47404,0.959115 0,0.540192 0.35277,0.859897 0.3583,0.314193 0.97014,0.314193 0.84336,0 1.35048,-0.595313 0.51263,-0.600825 0.51263,-1.593014 v -0.225998 z m 2.02296,-0.418924 v 3.522269 h -1.01424 v -0.937067 q -0.34726,0.56224 -0.8654,0.832336 -0.51815,0.264583 -1.2678,0.264583 -0.94809,0 -1.51033,-0.529167 -0.55673,-0.534679 -0.55673,-1.427649 0,-1.041798 0.69453,-1.570965 0.70005,-0.529167 2.0836,-0.529167 h 1.42213 v -0.09922 q 0,-0.700044 -0.46302,-1.080383 -0.45751,-0.385851 -1.28984,-0.385851 -0.52917,0 -1.03078,0.12678 -0.5016,0.126779 -0.96462,0.380338 V 28.31233 q 0.55672,-0.214975 1.08038,-0.319706 0.52365,-0.110243 1.01975,-0.110243 1.33945,0 2.00091,0.694532 0.66146,0.694532 0.66146,2.105645 z"
         id="path23989" />
      <path
         d="m 178.75802,28.968277 v -3.340368 h 1.01423 v 8.576919 h -1.01423 v -0.926043 q -0.31971,0.551216 -0.81029,0.821312 -0.48507,0.264583 -1.16858,0.264583 -1.11897,0 -1.82452,-0.892969 -0.70005,-0.89297 -0.70005,-2.34818 0,-1.455209 0.70005,-2.348179 0.70555,-0.89297 1.82452,-0.89297 0.68351,0 1.16858,0.270096 0.49058,0.264584 0.81029,0.815799 z m -3.45613,2.155254 q 0,1.118968 0.45751,1.758379 0.46302,0.633898 1.2678,0.633898 0.80477,0 1.26779,-0.633898 0.46303,-0.639411 0.46303,-1.758379 0,-1.118968 -0.46303,-1.752866 -0.46302,-0.63941 -1.26779,-0.63941 -0.80478,0 -1.2678,0.63941 -0.45751,0.633898 -0.45751,1.752866 z"
         id="path23991" />
      <path
         d="M 181.75663,31.768454 V 28.03121 h 1.01424 v 3.698659 q 0,0.876433 0.34175,1.317406 0.34175,0.43546 1.02526,0.43546 0.82131,0 1.29536,-0.523655 0.47956,-0.523655 0.47956,-1.427649 V 28.03121 h 1.01423 v 6.173618 h -1.01423 v -0.948091 q -0.36932,0.56224 -0.8599,0.837848 -0.48507,0.270095 -1.12999,0.270095 -1.06385,0 -1.61506,-0.661459 -0.55122,-0.661459 -0.55122,-1.934767 z m 2.55213,-3.886072 z"
         id="path23993" />
      <path
         d="m 193.45894,28.268233 v 0.948092 q -0.42994,-0.237023 -0.86541,-0.352779 -0.42994,-0.121267 -0.87092,-0.121267 -0.98667,0 -1.53238,0.628386 -0.5457,0.622874 -0.5457,1.752866 0,1.129993 0.5457,1.758379 0.54571,0.622874 1.53238,0.622874 0.44098,0 0.87092,-0.115756 0.43547,-0.121267 0.86541,-0.35829 v 0.937067 q -0.42443,0.198438 -0.88194,0.297657 -0.452,0.09922 -0.96463,0.09922 -1.39458,0 -2.21589,-0.876433 -0.82131,-0.876433 -0.82131,-2.364716 0,-1.510331 0.82682,-2.37574 0.83234,-0.865409 2.27653,-0.865409 0.46853,0 0.91501,0.09922 0.44649,0.09371 0.86541,0.286632 z"
         id="path23995" />
      <path
         d="m 200.35465,30.478609 v 3.726219 h -1.01424 v -3.693146 q 0,-0.876433 -0.34175,-1.311894 -0.34175,-0.43546 -1.02526,-0.43546 -0.82131,0 -1.29536,0.523655 -0.47404,0.523655 -0.47404,1.427649 v 3.489196 h -1.01975 v -8.576919 h 1.01975 v 3.362417 q 0.3638,-0.556728 0.85438,-0.832336 0.49609,-0.275608 1.14102,-0.275608 1.06384,0 1.60955,0.661459 0.5457,0.655947 0.5457,1.934768 z"
         id="path23997" />
      <path
         d="m 205.1833,31.101483 q -1.22921,0 -1.70326,0.28112 -0.47404,0.28112 -0.47404,0.959115 0,0.540192 0.35278,0.859897 0.35829,0.314193 0.97014,0.314193 0.84336,0 1.35048,-0.595313 0.51263,-0.600825 0.51263,-1.593014 v -0.225998 z m 2.02296,-0.418924 v 3.522269 h -1.01423 v -0.937067 q -0.34727,0.56224 -0.86541,0.832336 -0.51815,0.264583 -1.2678,0.264583 -0.94809,0 -1.51033,-0.529167 -0.55673,-0.534679 -0.55673,-1.427649 0,-1.041798 0.69453,-1.570965 0.70005,-0.529167 2.0836,-0.529167 h 1.42214 v -0.09922 q 0,-0.700044 -0.46302,-1.080383 -0.45751,-0.385851 -1.28985,-0.385851 -0.52917,0 -1.03077,0.12678 -0.50161,0.126779 -0.96463,0.380338 V 28.31233 q 0.55673,-0.214975 1.08038,-0.319706 0.52366,-0.110243 1.01975,-0.110243 1.33946,0 2.00091,0.694532 0.66146,0.694532 0.66146,2.105645 z"
         id="path23999" />
    </g>
    <g
       id="path175802-7">
      <path
         style="color:#000000;fill:#ffffff;-inkscape-stroke:none"
         d="M 113.11914,35.193359 94.199219,85.767578 96.876953,86.769531 115.79492,36.195312 Z"
         id="path1592" />
      <g
         id="g1580">
        <g
           id="path1582">
          <path
             style="color:#000000;fill:#ffffff;fill-rule:evenodd;stroke-width:0.5715pt;-inkscape-stroke:none"
             d="m 96.739771,83.057398 -1.675182,-3.677551 -0.82778,10.368466 6.180511,-8.366097 z"
             id="path1586" />
          <path
             style="color:#000000;fill:#ffffff;fill-rule:evenodd;-inkscape-stroke:none"
             d="M 94.802734,77.884766 93.75,91.046875 l 7.84766,-10.621094 -4.669926,2.126953 z m 0.525391,2.992187 1.222656,2.685547 0.347656,-0.158203 2.339844,-1.066406 -4.515625,6.109375 z"
             id="path1588" />
        </g>
      </g>
    </g>
    <text
       xml:space="preserve"
       id="text198029"
       style="font-size:1.41111px;line-height:1.25;font-family:sans-serif;letter-spacing:0px;word-spacing:0px;white-space:pre;shape-inside:url(#rect198031)" />
    <g
       aria-label="Siła rozumu"
       transform="translate(-38.244769,-1.6221622)"
       id="text179633-2"
       style="font-size:11.2889px;line-height:1.25;letter-spacing:0px;word-spacing:0px;white-space:pre;shape-inside:url(#rect179635-6);display:inline;fill:#ffffff">
      <path
         d="m 155.65656,26.245271 v 1.085895 q -0.6339,-0.303168 -1.19614,-0.451997 -0.56224,-0.148828 -1.08589,-0.148828 -0.90951,0 -1.4056,0.352778 -0.49059,0.352778 -0.49059,1.003213 0,0.545704 0.32522,0.826824 0.33073,0.275608 1.24575,0.446485 l 0.67248,0.137804 q 1.24575,0.237022 1.83555,0.837848 0.59531,0.595313 0.59531,1.598526 0,1.196138 -0.80477,1.8135 -0.79926,0.617361 -2.34818,0.617361 -0.58429,0 -1.24575,-0.132291 -0.65595,-0.132292 -1.3615,-0.391364 v -1.146529 q 0.67799,0.380339 1.32843,0.573265 0.65043,0.192925 1.27882,0.192925 0.9536,0 1.47175,-0.374826 0.51814,-0.374827 0.51814,-1.069359 0,-0.606337 -0.37483,-0.948091 -0.36931,-0.341754 -1.21818,-0.512631 l -0.678,-0.132292 q -1.24575,-0.248047 -1.80248,-0.777214 -0.55672,-0.529167 -0.55672,-1.471746 0,-1.091408 0.76619,-1.719794 0.7717,-0.628386 2.12218,-0.628386 0.57877,0 1.1796,0.104731 0.60082,0.104731 1.22921,0.314193 z"
         id="path22614" />
      <path
         d="m 157.84489,28.03121 h 1.01423 v 6.173618 h -1.01423 z m 0,-2.403301 h 1.01423 v 1.284333 h -1.01423 z"
         id="path22616" />
      <path
         d="m 161.01438,25.627909 h 1.01424 v 3.31832 l 0.68901,-0.496094 0.41893,0.584288 -1.10794,0.777215 v 4.39319 h -1.01424 V 30.53373 l -0.678,0.48507 -0.4079,-0.584288 1.0859,-0.777215 z"
         id="path22618" />
      <path
         d="m 166.99507,31.101483 q -1.22921,0 -1.70326,0.28112 -0.47404,0.28112 -0.47404,0.959115 0,0.540192 0.35277,0.859897 0.3583,0.314193 0.97014,0.314193 0.84336,0 1.35048,-0.595313 0.51263,-0.600825 0.51263,-1.593014 v -0.225998 z m 2.02296,-0.418924 v 3.522269 h -1.01424 v -0.937067 q -0.34726,0.56224 -0.8654,0.832336 -0.51815,0.264583 -1.2678,0.264583 -0.94809,0 -1.51033,-0.529167 -0.55673,-0.534679 -0.55673,-1.427649 0,-1.041798 0.69453,-1.570965 0.70005,-0.529167 2.0836,-0.529167 h 1.42213 v -0.09922 q 0,-0.700044 -0.46302,-1.080383 -0.45751,-0.385851 -1.28984,-0.385851 -0.52917,0 -1.03078,0.12678 -0.5016,0.126779 -0.96462,0.380338 V 28.31233 q 0.55672,-0.214975 1.08038,-0.319706 0.52365,-0.110243 1.01975,-0.110243 1.33945,0 2.00091,0.694532 0.66146,0.694532 0.66146,2.105645 z"
         id="path22620" />
      <path
         d="m 178.27295,28.979302 q -0.17088,-0.09922 -0.37483,-0.143316 -0.19844,-0.04961 -0.44097,-0.04961 -0.8599,0 -1.32292,0.56224 -0.45751,0.556728 -0.45751,1.604038 v 3.252174 h -1.01975 V 28.03121 h 1.01975 v 0.959116 q 0.3197,-0.56224 0.83233,-0.832336 0.51264,-0.275608 1.24575,-0.275608 0.10473,0 0.23151,0.01654 0.12678,0.01102 0.28112,0.03859 z"
         id="path22622" />
      <path
         d="m 181.48102,28.742279 q -0.8158,0 -1.28984,0.63941 -0.47405,0.633898 -0.47405,1.741842 0,1.107944 0.46853,1.747355 0.47405,0.633898 1.29536,0.633898 0.81029,0 1.28433,-0.639411 0.47405,-0.63941 0.47405,-1.741842 0,-1.096919 -0.47405,-1.73633 -0.47404,-0.644922 -1.28433,-0.644922 z m 0,-0.859897 q 1.32292,0 2.07809,0.859897 0.75516,0.859897 0.75516,2.381252 0,1.515844 -0.75516,2.381253 -0.75517,0.859896 -2.07809,0.859896 -1.32843,0 -2.08359,-0.859896 -0.74966,-0.865409 -0.74966,-2.381253 0,-1.521355 0.74966,-2.381252 0.75516,-0.859897 2.08359,-0.859897 z"
         id="path22624" />
      <path
         d="m 185.55451,28.03121 h 4.81762 v 0.926043 l -3.81441,4.437288 h 3.81441 v 0.810287 h -4.95543 v -0.926043 l 3.81442,-4.437287 h -3.67661 z"
         id="path22626" />
      <path
         d="M 191.81632,31.768454 V 28.03121 h 1.01424 v 3.698659 q 0,0.876433 0.34175,1.317406 0.34175,0.43546 1.02526,0.43546 0.82131,0 1.29536,-0.523655 0.47956,-0.523655 0.47956,-1.427649 V 28.03121 h 1.01423 v 6.173618 h -1.01423 v -0.948091 q -0.36932,0.56224 -0.8599,0.837848 -0.48507,0.270095 -1.12999,0.270095 -1.06385,0 -1.61506,-0.661459 -0.55122,-0.661459 -0.55122,-1.934767 z m 2.55213,-3.886072 z"
         id="path22628" />
      <path
         d="m 203.88243,29.216325 q 0.38034,-0.683508 0.90951,-1.008725 0.52917,-0.325218 1.24575,-0.325218 0.96463,0 1.48828,0.677996 0.52366,0.672483 0.52366,1.918231 v 3.726219 h -1.01975 v -3.693146 q 0,-0.887458 -0.3142,-1.317406 -0.31419,-0.429948 -0.95911,-0.429948 -0.78824,0 -1.24575,0.523655 -0.45751,0.523655 -0.45751,1.427649 v 3.489196 h -1.01975 v -3.693146 q 0,-0.89297 -0.31419,-1.317406 -0.31419,-0.429948 -0.97014,-0.429948 -0.77722,0 -1.23472,0.529167 -0.45751,0.523655 -0.45751,1.422137 v 3.489196 h -1.01975 V 28.03121 h 1.01975 v 0.959116 q 0.34726,-0.567752 0.83233,-0.837848 0.48507,-0.270096 1.15204,-0.270096 0.67249,0 1.14102,0.341754 0.47405,0.341754 0.70004,0.992189 z"
         id="path22630" />
      <path
         d="M 209.96786,31.768454 V 28.03121 h 1.01424 v 3.698659 q 0,0.876433 0.34175,1.317406 0.34175,0.43546 1.02526,0.43546 0.82131,0 1.29536,-0.523655 0.47956,-0.523655 0.47956,-1.427649 V 28.03121 h 1.01423 v 6.173618 h -1.01423 v -0.948091 q -0.36932,0.56224 -0.8599,0.837848 -0.48507,0.270095 -1.12999,0.270095 -1.06385,0 -1.61507,-0.661459 -0.55121,-0.661459 -0.55121,-1.934767 z m 2.55213,-3.886072 z"
         id="path22632" />
    </g>
    <g
       id="path175802-7-2">
      <path
         style="color:#000000;fill:#ffffff;-inkscape-stroke:none"
         d="m 65.226562,26.734375 -2.810546,0.521484 15.46289,83.396481 2.808594,-0.52148 z"
         id="path1574" />
      <g
         id="g1562">
        <g
           id="path1564">
          <path
             style="color:#000000;fill:#ffffff;fill-rule:evenodd;stroke-width:0.5715pt;-inkscape-stroke:none"
             d="m 78.657921,107.02058 -3.330534,-2.2887 4.632822,9.31274 0.986414,-10.35458 z"
             id="path1568" />
          <path
             style="color:#000000;fill:#ffffff;fill-rule:evenodd;-inkscape-stroke:none"
             d="m 81.464844,102.26172 -2.90625,4.23047 -4.226563,-2.90625 5.88086,11.82226 z m -1.03711,2.85742 -0.720703,7.56055 -3.384765,-6.80274 2.433593,1.67383 0.216797,-0.31445 z"
             id="path1570" />
        </g>
      </g>
    </g>
    <g
       aria-label="Siła ciała"
       transform="translate(-89.103375,-12.448779)"
       id="text179633-2-0"
       style="font-size:11.2889px;line-height:1.25;letter-spacing:0px;word-spacing:0px;white-space:pre;shape-inside:url(#rect179635-6-7);display:inline;fill:#ffffff">
      <path
         d="m 155.65656,26.245271 v 1.085895 q -0.6339,-0.303168 -1.19614,-0.451997 -0.56224,-0.148828 -1.08589,-0.148828 -0.90951,0 -1.4056,0.352778 -0.49059,0.352778 -0.49059,1.003213 0,0.545704 0.32522,0.826824 0.33073,0.275608 1.24575,0.446485 l 0.67248,0.137804 q 1.24575,0.237022 1.83555,0.837848 0.59531,0.595313 0.59531,1.598526 0,1.196138 -0.80477,1.8135 -0.79926,0.617361 -2.34818,0.617361 -0.58429,0 -1.24575,-0.132291 -0.65595,-0.132292 -1.3615,-0.391364 v -1.146529 q 0.67799,0.380339 1.32843,0.573265 0.65043,0.192925 1.27882,0.192925 0.9536,0 1.47175,-0.374826 0.51814,-0.374827 0.51814,-1.069359 0,-0.606337 -0.37483,-0.948091 -0.36931,-0.341754 -1.21818,-0.512631 l -0.678,-0.132292 q -1.24575,-0.248047 -1.80248,-0.777214 -0.55672,-0.529167 -0.55672,-1.471746 0,-1.091408 0.76619,-1.719794 0.7717,-0.628386 2.12218,-0.628386 0.57877,0 1.1796,0.104731 0.60082,0.104731 1.22921,0.314193 z"
         id="path34189" />
      <path
         d="m 157.84489,28.03121 h 1.01423 v 6.173618 h -1.01423 z m 0,-2.403301 h 1.01423 v 1.284333 h -1.01423 z"
         id="path34191" />
      <path
         d="m 161.01438,25.627909 h 1.01424 v 3.31832 l 0.68901,-0.496094 0.41893,0.584288 -1.10794,0.777215 v 4.39319 h -1.01424 V 30.53373 l -0.678,0.48507 -0.4079,-0.584288 1.0859,-0.777215 z"
         id="path34193" />
      <path
         d="m 166.99507,31.101483 q -1.22921,0 -1.70326,0.28112 -0.47404,0.28112 -0.47404,0.959115 0,0.540192 0.35277,0.859897 0.3583,0.314193 0.97014,0.314193 0.84336,0 1.35048,-0.595313 0.51263,-0.600825 0.51263,-1.593014 v -0.225998 z m 2.02296,-0.418924 v 3.522269 h -1.01424 v -0.937067 q -0.34726,0.56224 -0.8654,0.832336 -0.51815,0.264583 -1.2678,0.264583 -0.94809,0 -1.51033,-0.529167 -0.55673,-0.534679 -0.55673,-1.427649 0,-1.041798 0.69453,-1.570965 0.70005,-0.529167 2.0836,-0.529167 h 1.42213 v -0.09922 q 0,-0.700044 -0.46302,-1.080383 -0.45751,-0.385851 -1.28984,-0.385851 -0.52917,0 -1.03078,0.12678 -0.5016,0.126779 -0.96462,0.380338 V 28.31233 q 0.55672,-0.214975 1.08038,-0.319706 0.52365,-0.110243 1.01975,-0.110243 1.33945,0 2.00091,0.694532 0.66146,0.694532 0.66146,2.105645 z"
         id="path34195" />
      <path
         d="m 179.13835,28.268233 v 0.948092 q -0.42994,-0.237023 -0.8654,-0.352779 -0.42995,-0.121267 -0.87093,-0.121267 -0.98667,0 -1.53238,0.628386 -0.5457,0.622874 -0.5457,1.752866 0,1.129993 0.5457,1.758379 0.54571,0.622874 1.53238,0.622874 0.44098,0 0.87093,-0.115756 0.43546,-0.121267 0.8654,-0.35829 v 0.937067 q -0.42443,0.198438 -0.88194,0.297657 -0.452,0.09922 -0.96463,0.09922 -1.39457,0 -2.21589,-0.876433 -0.82131,-0.876433 -0.82131,-2.364716 0,-1.510331 0.82683,-2.37574 0.83233,-0.865409 2.27652,-0.865409 0.46853,0 0.91502,0.09922 0.44648,0.09371 0.8654,0.286632 z"
         id="path34197" />
      <path
         d="m 180.90224,28.03121 h 1.01424 v 6.173618 h -1.01424 z m 0,-2.403301 h 1.01424 v 1.284333 h -1.01424 z"
         id="path34199" />
      <path
         d="m 186.84435,31.101483 q -1.22921,0 -1.70326,0.28112 -0.47404,0.28112 -0.47404,0.959115 0,0.540192 0.35278,0.859897 0.35829,0.314193 0.97014,0.314193 0.84336,0 1.35047,-0.595313 0.51264,-0.600825 0.51264,-1.593014 v -0.225998 z m 2.02296,-0.418924 v 3.522269 h -1.01423 v -0.937067 q -0.34727,0.56224 -0.86541,0.832336 -0.51815,0.264583 -1.2678,0.264583 -0.94809,0 -1.51033,-0.529167 -0.55673,-0.534679 -0.55673,-1.427649 0,-1.041798 0.69453,-1.570965 0.70005,-0.529167 2.0836,-0.529167 h 1.42214 v -0.09922 q 0,-0.700044 -0.46303,-1.080383 -0.4575,-0.385851 -1.28984,-0.385851 -0.52917,0 -1.03077,0.12678 -0.50161,0.126779 -0.96463,0.380338 V 28.31233 q 0.55673,-0.214975 1.08038,-0.319706 0.52366,-0.110243 1.01975,-0.110243 1.33945,0 2.00091,0.694532 0.66146,0.694532 0.66146,2.105645 z"
         id="path34201" />
      <path
         d="m 190.98949,25.627909 h 1.01424 v 3.31832 l 0.68902,-0.496094 0.41892,0.584288 -1.10794,0.777215 v 4.39319 h -1.01424 V 30.53373 l -0.67799,0.48507 -0.4079,-0.584288 1.08589,-0.777215 z"
         id="path34203" />
      <path
         d="m 196.97019,31.101483 q -1.22922,0 -1.70326,0.28112 -0.47405,0.28112 -0.47405,0.959115 0,0.540192 0.35278,0.859897 0.35829,0.314193 0.97014,0.314193 0.84336,0 1.35048,-0.595313 0.51263,-0.600825 0.51263,-1.593014 v -0.225998 z m 2.02296,-0.418924 v 3.522269 h -1.01424 v -0.937067 q -0.34727,0.56224 -0.86541,0.832336 -0.51814,0.264583 -1.26779,0.264583 -0.9481,0 -1.51034,-0.529167 -0.55672,-0.534679 -0.55672,-1.427649 0,-1.041798 0.69453,-1.570965 0.70004,-0.529167 2.08359,-0.529167 h 1.42214 v -0.09922 q 0,-0.700044 -0.46302,-1.080383 -0.45751,-0.385851 -1.28985,-0.385851 -0.52916,0 -1.03077,0.12678 -0.50161,0.126779 -0.96463,0.380338 V 28.31233 q 0.55673,-0.214975 1.08039,-0.319706 0.52365,-0.110243 1.01975,-0.110243 1.33945,0 2.00091,0.694532 0.66146,0.694532 0.66146,2.105645 z"
         id="path34205" />
    </g>
    <g
       id="path175802-6">
      <path
         style="color:#000000;fill:#ffffff;-inkscape-stroke:none"
         d="m 61.496094,188.32031 -20.519532,33.02735 2.425782,1.50781 20.521484,-33.02735 z"
         id="path1556" />
      <g
         id="g1544">
        <g
           id="path1546">
          <path
             style="color:#000000;fill:#ffffff;fill-rule:evenodd;stroke-width:0.5715pt;-inkscape-stroke:none"
             d="m 60.90075,191.98598 0.919132,3.9352 2.850955,-10.00312 -7.705288,6.98705 z"
             id="path1550" />
          <path
             style="color:#000000;fill:#ffffff;fill-rule:evenodd;-inkscape-stroke:none"
             d="m 65.402344,184.74023 -9.78125,8.8711 4.996093,-1.16602 1.166016,4.99414 z m -1.462891,2.35743 -2.082031,7.30273 -0.671875,-2.87305 -0.371094,0.0879 -2.503906,0.58399 z"
             id="path1552" />
        </g>
      </g>
    </g>
    <g
       aria-label="Służba"
       transform="translate(-137.32536,202.09608)"
       id="text179633-2-0-0"
       style="font-size:11.2889px;line-height:1.25;letter-spacing:0px;word-spacing:0px;white-space:pre;shape-inside:url(#rect179635-6-7-2);display:inline;fill:#ffffff">
      <path
         d="m 155.65656,26.245271 v 1.085895 q -0.6339,-0.303168 -1.19614,-0.451997 -0.56224,-0.148828 -1.08589,-0.148828 -0.90951,0 -1.4056,0.352778 -0.49059,0.352778 -0.49059,1.003213 0,0.545704 0.32522,0.826824 0.33073,0.275608 1.24575,0.446485 l 0.67248,0.137804 q 1.24575,0.237022 1.83555,0.837848 0.59531,0.595313 0.59531,1.598526 0,1.196138 -0.80477,1.8135 -0.79926,0.617361 -2.34818,0.617361 -0.58429,0 -1.24575,-0.132291 -0.65595,-0.132292 -1.3615,-0.391364 v -1.146529 q 0.67799,0.380339 1.32843,0.573265 0.65043,0.192925 1.27882,0.192925 0.9536,0 1.47175,-0.374826 0.51814,-0.374827 0.51814,-1.069359 0,-0.606337 -0.37483,-0.948091 -0.36931,-0.341754 -1.21818,-0.512631 l -0.678,-0.132292 q -1.24575,-0.248047 -1.80248,-0.777214 -0.55672,-0.529167 -0.55672,-1.471746 0,-1.091408 0.76619,-1.719794 0.7717,-0.628386 2.12218,-0.628386 0.57877,0 1.1796,0.104731 0.60082,0.104731 1.22921,0.314193 z"
         id="path28083" />
      <path
         d="m 157.87796,25.627909 h 1.01424 v 3.31832 l 0.68902,-0.496094 0.41892,0.584288 -1.10794,0.777215 v 4.39319 h -1.01424 V 30.53373 l -0.678,0.48507 -0.4079,-0.584288 1.0859,-0.777215 z"
         id="path28085" />
      <path
         d="M 160.94823,31.768454 V 28.03121 h 1.01424 v 3.698659 q 0,0.876433 0.34175,1.317406 0.34176,0.43546 1.02526,0.43546 0.82132,0 1.29536,-0.523655 0.47956,-0.523655 0.47956,-1.427649 V 28.03121 h 1.01424 v 6.173618 h -1.01424 v -0.948091 q -0.36931,0.56224 -0.8599,0.837848 -0.48507,0.270095 -1.12999,0.270095 -1.06385,0 -1.61506,-0.661459 -0.55122,-0.661459 -0.55122,-1.934767 z m 2.55213,-3.886072 z"
         id="path28087" />
      <path
         d="m 169.57476,25.627909 h 1.01424 v 1.284333 h -1.01424 z m 0.51814,2.254473 z m -2.32613,0.148828 h 4.81763 v 0.926043 l -3.81442,4.437288 h 3.81442 v 0.810287 h -4.95543 v -0.926043 l 3.81441,-4.437287 h -3.67661 z"
         id="path28089" />
      <path
         d="m 178.56509,31.123531 q 0,-1.118968 -0.46302,-1.752866 -0.45751,-0.63941 -1.26228,-0.63941 -0.80478,0 -1.2678,0.63941 -0.45751,0.633898 -0.45751,1.752866 0,1.118968 0.45751,1.758379 0.46302,0.633898 1.2678,0.633898 0.80477,0 1.26228,-0.633898 0.46302,-0.639411 0.46302,-1.758379 z m -3.45061,-2.155254 q 0.31971,-0.551215 0.80478,-0.815799 0.49058,-0.270096 1.16857,-0.270096 1.12448,0 1.82453,0.89297 0.70555,0.89297 0.70555,2.348179 0,1.45521 -0.70555,2.34818 -0.70005,0.892969 -1.82453,0.892969 -0.67799,0 -1.16857,-0.264583 -0.48507,-0.270096 -0.80478,-0.821312 v 0.926043 h -1.01975 v -8.576919 h 1.01975 z"
         id="path28091" />
      <path
         d="m 184.10481,31.101483 q -1.22921,0 -1.70326,0.28112 -0.47404,0.28112 -0.47404,0.959115 0,0.540192 0.35278,0.859897 0.35829,0.314193 0.97014,0.314193 0.84336,0 1.35047,-0.595313 0.51264,-0.600825 0.51264,-1.593014 v -0.225998 z m 2.02296,-0.418924 v 3.522269 h -1.01423 v -0.937067 q -0.34727,0.56224 -0.86541,0.832336 -0.51815,0.264583 -1.2678,0.264583 -0.94809,0 -1.51033,-0.529167 -0.55673,-0.534679 -0.55673,-1.427649 0,-1.041798 0.69453,-1.570965 0.70005,-0.529167 2.0836,-0.529167 h 1.42214 v -0.09922 q 0,-0.700044 -0.46303,-1.080383 -0.45751,-0.385851 -1.28984,-0.385851 -0.52917,0 -1.03077,0.12678 -0.50161,0.126779 -0.96463,0.380338 V 28.31233 q 0.55673,-0.214975 1.08038,-0.319706 0.52366,-0.110243 1.01975,-0.110243 1.33945,0 2.00091,0.694532 0.66146,0.694532 0.66146,2.105645 z"
         id="path28093" />
    </g>
    <g
       aria-label="Szukanie swego miejsca w społeczeństwie"
       transform="translate(-59.099895,212.902)"
       id="text179633-2-0-7"
       style="font-size:11.2889px;line-height:1.25;letter-spacing:0px;word-spacing:0px;white-space:pre;shape-inside:url(#rect179635-6-7-23);display:inline;fill:#ffffff">
      <path
         d="m 155.65656,26.245271 v 1.085895 q -0.6339,-0.303168 -1.19614,-0.451997 -0.56224,-0.148828 -1.08589,-0.148828 -0.90951,0 -1.4056,0.352778 -0.49059,0.352778 -0.49059,1.003213 0,0.545704 0.32522,0.826824 0.33073,0.275608 1.24575,0.446485 l 0.67248,0.137804 q 1.24575,0.237022 1.83555,0.837848 0.59531,0.595313 0.59531,1.598526 0,1.196138 -0.80477,1.8135 -0.79926,0.617361 -2.34818,0.617361 -0.58429,0 -1.24575,-0.132291 -0.65595,-0.132292 -1.3615,-0.391364 v -1.146529 q 0.67799,0.380339 1.32843,0.573265 0.65043,0.192925 1.27882,0.192925 0.9536,0 1.47175,-0.374826 0.51814,-0.374827 0.51814,-1.069359 0,-0.606337 -0.37483,-0.948091 -0.36931,-0.341754 -1.21818,-0.512631 l -0.678,-0.132292 q -1.24575,-0.248047 -1.80248,-0.777214 -0.55672,-0.529167 -0.55672,-1.471746 0,-1.091408 0.76619,-1.719794 0.7717,-0.628386 2.12218,-0.628386 0.57877,0 1.1796,0.104731 0.60082,0.104731 1.22921,0.314193 z"
         id="path26260" />
      <path
         d="m 157.40391,28.03121 h 4.81763 v 0.926043 l -3.81441,4.437288 h 3.81441 v 0.810287 h -4.95543 v -0.926043 l 3.81441,-4.437287 h -3.67661 z"
         id="path26262" />
      <path
         d="M 163.66573,31.768454 V 28.03121 h 1.01423 v 3.698659 q 0,0.876433 0.34176,1.317406 0.34175,0.43546 1.02526,0.43546 0.82131,0 1.29536,-0.523655 0.47955,-0.523655 0.47955,-1.427649 V 28.03121 h 1.01424 v 6.173618 h -1.01424 v -0.948091 q -0.36931,0.56224 -0.85989,0.837848 -0.48507,0.270095 -1.13,0.270095 -1.06384,0 -1.61506,-0.661459 -0.55121,-0.661459 -0.55121,-1.934767 z m 2.55213,-3.886072 z"
         id="path26264" />
      <path
         d="m 170.88665,25.627909 h 1.01975 v 5.065674 l 3.02618,-2.662373 h 1.29536 l -3.27423,2.888371 3.41203,3.285247 h -1.32292 l -3.13642,-3.015151 v 3.015151 h -1.01975 z"
         id="path26266" />
      <path
         d="m 180.06991,31.101483 q -1.22921,0 -1.70326,0.28112 -0.47404,0.28112 -0.47404,0.959115 0,0.540192 0.35278,0.859897 0.35829,0.314193 0.97014,0.314193 0.84336,0 1.35047,-0.595313 0.51263,-0.600825 0.51263,-1.593014 v -0.225998 z m 2.02296,-0.418924 v 3.522269 h -1.01424 v -0.937067 q -0.34726,0.56224 -0.8654,0.832336 -0.51815,0.264583 -1.2678,0.264583 -0.94809,0 -1.51033,-0.529167 -0.55673,-0.534679 -0.55673,-1.427649 0,-1.041798 0.69453,-1.570965 0.70005,-0.529167 2.0836,-0.529167 h 1.42213 v -0.09922 q 0,-0.700044 -0.46302,-1.080383 -0.45751,-0.385851 -1.28984,-0.385851 -0.52917,0 -1.03078,0.12678 -0.5016,0.126779 -0.96462,0.380338 V 28.31233 q 0.55673,-0.214975 1.08038,-0.319706 0.52366,-0.110243 1.01975,-0.110243 1.33945,0 2.00091,0.694532 0.66146,0.694532 0.66146,2.105645 z"
         id="path26268" />
      <path
         d="m 189.3138,30.478609 v 3.726219 h -1.01424 v -3.693146 q 0,-0.876433 -0.34175,-1.311894 -0.34176,-0.43546 -1.02526,-0.43546 -0.82131,0 -1.29536,0.523655 -0.47405,0.523655 -0.47405,1.427649 v 3.489196 H 184.1434 V 28.03121 h 1.01974 v 0.959116 q 0.36381,-0.556728 0.85439,-0.832336 0.49609,-0.275608 1.14102,-0.275608 1.06384,0 1.60955,0.661459 0.5457,0.655947 0.5457,1.934768 z"
         id="path26270" />
      <path
         d="m 191.33676,28.03121 h 1.01424 v 6.173618 h -1.01424 z m 0,-2.403301 h 1.01424 v 1.284333 h -1.01424 z"
         id="path26272" />
      <path
         d="m 199.75383,30.86446 v 0.496094 h -4.66329 q 0.0661,1.04731 0.62839,1.598526 0.56775,0.545704 1.57647,0.545704 0.58429,0 1.13,-0.143316 0.55121,-0.143316 1.0914,-0.429949 v 0.959116 q -0.5457,0.23151 -1.11896,0.352778 -0.57327,0.121267 -1.16307,0.121267 -1.47726,0 -2.34267,-0.859896 -0.85989,-0.859897 -0.85989,-2.326131 0,-1.515844 0.8158,-2.403301 0.82131,-0.89297 2.21037,-0.89297 1.24575,0 1.96784,0.804775 0.72761,0.799263 0.72761,2.177303 z m -1.01424,-0.297657 q -0.011,-0.832336 -0.46853,-1.32843 -0.452,-0.496094 -1.20165,-0.496094 -0.84888,0 -1.36151,0.479558 -0.50712,0.479557 -0.58429,1.350478 z"
         id="path26274" />
      <path
         d="m 208.9426,28.213112 v 0.959115 q -0.42995,-0.220486 -0.89297,-0.330729 -0.46302,-0.110243 -0.95912,-0.110243 -0.75516,0 -1.1355,0.23151 -0.37483,0.231511 -0.37483,0.694532 0,0.352778 0.2701,0.556728 0.27009,0.198438 1.08589,0.380339 l 0.34727,0.07717 q 1.08038,0.231511 1.53238,0.655947 0.45751,0.418924 0.45751,1.17409 0,0.859897 -0.68351,1.361503 -0.678,0.501606 -1.86862,0.501606 -0.4961,0 -1.03629,-0.09922 -0.53468,-0.09371 -1.12999,-0.286633 v -1.04731 q 0.56224,0.292145 1.10794,0.440973 0.54571,0.143316 1.08039,0.143316 0.71658,0 1.10243,-0.242535 0.38585,-0.248047 0.38585,-0.694532 0,-0.413412 -0.28112,-0.633898 -0.27561,-0.220486 -1.21819,-0.424436 l -0.35278,-0.08268 q -0.94258,-0.198437 -1.3615,-0.606337 -0.41892,-0.413412 -0.41892,-1.129993 0,-0.870921 0.61736,-1.344966 0.61736,-0.474046 1.75286,-0.474046 0.56224,0 1.05834,0.08268 0.49609,0.08268 0.91502,0.248047 z"
         id="path26276" />
      <path
         d="m 210.29859,28.03121 h 1.01424 l 1.26779,4.817627 1.26229,-4.817627 h 1.19613 l 1.2678,4.817627 1.26229,-4.817627 h 1.01423 l -1.61506,6.173618 h -1.19614 l -1.32843,-5.060162 -1.33394,5.060162 h -1.19614 z"
         id="path26278" />
      <path
         d="m 225.4019,30.86446 v 0.496094 h -4.66329 q 0.0661,1.04731 0.62839,1.598526 0.56775,0.545704 1.57648,0.545704 0.58428,0 1.12999,-0.143316 0.55121,-0.143316 1.09141,-0.429949 v 0.959116 q -0.54571,0.23151 -1.11897,0.352778 -0.57327,0.121267 -1.16307,0.121267 -1.47726,0 -2.34267,-0.859896 -0.85989,-0.859897 -0.85989,-2.326131 0,-1.515844 0.8158,-2.403301 0.82131,-0.89297 2.21037,-0.89297 1.24575,0 1.96784,0.804775 0.72761,0.799263 0.72761,2.177303 z m -1.01424,-0.297657 q -0.011,-0.832336 -0.46853,-1.32843 -0.452,-0.496094 -1.20165,-0.496094 -0.84888,0 -1.36151,0.479558 -0.50711,0.479557 -0.58429,1.350478 z"
         id="path26280" />
      <path
         d="m 231.12903,31.046361 q 0,-1.102432 -0.45751,-1.708769 -0.452,-0.606337 -1.27331,-0.606337 -0.8158,0 -1.27331,0.606337 -0.45199,0.606337 -0.45199,1.708769 0,1.09692 0.45199,1.703257 0.45751,0.606337 1.27331,0.606337 0.82131,0 1.27331,-0.606337 0.45751,-0.606337 0.45751,-1.703257 z m 1.01424,2.392277 q 0,1.576477 -0.70005,2.342667 -0.70004,0.771702 -2.14423,0.771702 -0.53467,0 -1.00872,-0.08268 -0.47405,-0.07717 -0.92053,-0.242535 v -0.986676 q 0.44648,0.242535 0.88194,0.35829 0.43546,0.115755 0.88746,0.115755 0.9977,0 1.4938,-0.523655 0.49609,-0.518143 0.49609,-1.570965 v -0.501606 q -0.31419,0.545703 -0.80477,0.815799 -0.49059,0.270096 -1.17409,0.270096 -1.13551,0 -1.83004,-0.865409 -0.69453,-0.865409 -0.69453,-2.293058 0,-1.433161 0.69453,-2.29857 0.69453,-0.865409 1.83004,-0.865409 0.6835,0 1.17409,0.270096 0.49058,0.270096 0.80477,0.815799 V 28.03121 h 1.01424 z"
         id="path26282" />
      <path
         d="m 236.62466,28.742279 q -0.8158,0 -1.28985,0.63941 -0.47404,0.633898 -0.47404,1.741842 0,1.107944 0.46853,1.747355 0.47405,0.633898 1.29536,0.633898 0.81028,0 1.28433,-0.639411 0.47405,-0.63941 0.47405,-1.741842 0,-1.096919 -0.47405,-1.73633 -0.47405,-0.644922 -1.28433,-0.644922 z m 0,-0.859897 q 1.32291,0 2.07808,0.859897 0.75517,0.859897 0.75517,2.381252 0,1.515844 -0.75517,2.381253 -0.75517,0.859896 -2.07808,0.859896 -1.32843,0 -2.0836,-0.859896 -0.74965,-0.865409 -0.74965,-2.381253 0,-1.521355 0.74965,-2.381252 0.75517,-0.859897 2.0836,-0.859897 z"
         id="path26284" />
      <path
         d="m 155.48568,43.32745 q 0.38034,-0.683507 0.90951,-1.008725 0.52917,-0.325217 1.24575,-0.325217 0.96462,0 1.48828,0.677996 0.52365,0.672483 0.52365,1.918231 v 3.726219 h -1.01974 v -3.693146 q 0,-0.887458 -0.3142,-1.317406 -0.31419,-0.429949 -0.95911,-0.429949 -0.78824,0 -1.24575,0.523656 -0.45751,0.523655 -0.45751,1.427649 v 3.489196 h -1.01975 v -3.693146 q 0,-0.89297 -0.31419,-1.317406 -0.3142,-0.429949 -0.97014,-0.429949 -0.77722,0 -1.23473,0.529168 -0.4575,0.523655 -0.4575,1.422137 v 3.489196 h -1.01975 v -6.173618 h 1.01975 v 0.959116 q 0.34726,-0.567752 0.83233,-0.837848 0.48507,-0.270096 1.15204,-0.270096 0.67249,0 1.14102,0.341754 0.47404,0.341754 0.70004,0.992188 z"
         id="path26286" />
      <path
         d="m 161.67584,42.142336 h 1.01423 v 6.173618 h -1.01423 z m 0,-2.403301 h 1.01423 v 1.284333 h -1.01423 z"
         id="path26288" />
      <path
         d="m 170.0929,44.975586 v 0.496094 h -4.66328 q 0.0661,1.04731 0.62838,1.598526 0.56775,0.545704 1.57648,0.545704 0.58429,0 1.12999,-0.143316 0.55122,-0.143317 1.09141,-0.429949 v 0.959116 q -0.5457,0.23151 -1.11897,0.352778 -0.57326,0.121267 -1.16306,0.121267 -1.47726,0 -2.34267,-0.859896 -0.8599,-0.859897 -0.8599,-2.326131 0,-1.515844 0.8158,-2.403301 0.82131,-0.89297 2.21038,-0.89297 1.24574,0 1.96784,0.804775 0.7276,0.799263 0.7276,2.177303 z m -1.01423,-0.297657 q -0.011,-0.832336 -0.46854,-1.32843 -0.45199,-0.496094 -1.20165,-0.496094 -0.84887,0 -1.3615,0.479558 -0.50712,0.479557 -0.58429,1.350478 z"
         id="path26290" />
      <path
         d="m 171.75757,42.142336 h 1.01424 v 6.283861 q 0,1.179602 -0.452,1.708769 -0.44648,0.529167 -1.44418,0.529167 h -0.38585 v -0.859896 h 0.27009 q 0.57878,0 0.78824,-0.270096 0.20946,-0.264584 0.20946,-1.107944 z m 0,-2.403301 h 1.01424 v 1.284333 h -1.01424 z"
         id="path26292" />
      <path
         d="m 178.82967,42.324238 v 0.959115 q -0.42994,-0.220486 -0.89297,-0.330729 -0.46302,-0.110243 -0.95911,-0.110243 -0.75517,0 -1.13551,0.23151 -0.37482,0.231511 -0.37482,0.694532 0,0.352778 0.27009,0.556728 0.2701,0.198438 1.0859,0.380339 l 0.34726,0.07717 q 1.08039,0.231511 1.53238,0.655947 0.45751,0.418924 0.45751,1.17409 0,0.859897 -0.6835,1.361503 -0.678,0.501606 -1.86863,0.501606 -0.49609,0 -1.03628,-0.09922 -0.53468,-0.09371 -1.12999,-0.286633 v -1.04731 q 0.56224,0.292145 1.10794,0.440973 0.5457,0.143316 1.08038,0.143316 0.71658,0 1.10243,-0.242535 0.38586,-0.248047 0.38586,-0.694532 0,-0.413412 -0.28112,-0.633898 -0.27561,-0.220486 -1.21819,-0.424436 l -0.35278,-0.08268 q -0.94258,-0.198437 -1.3615,-0.606337 -0.41893,-0.413412 -0.41893,-1.129993 0,-0.870921 0.61737,-1.344966 0.61736,-0.474046 1.75286,-0.474046 0.56224,0 1.05834,0.08268 0.49609,0.08268 0.91501,0.248047 z"
         id="path26294" />
      <path
         d="m 185.21826,42.379359 v 0.948091 q -0.42994,-0.237022 -0.8654,-0.352778 -0.42995,-0.121267 -0.87093,-0.121267 -0.98667,0 -1.53238,0.628386 -0.5457,0.622874 -0.5457,1.752866 0,1.129993 0.5457,1.758379 0.54571,0.622874 1.53238,0.622874 0.44098,0 0.87093,-0.115756 0.43546,-0.121267 0.8654,-0.35829 v 0.937067 q -0.42443,0.198438 -0.88194,0.297657 -0.452,0.09922 -0.96463,0.09922 -1.39457,0 -2.21589,-0.876433 -0.82131,-0.876433 -0.82131,-2.364716 0,-1.510331 0.82683,-2.37574 0.83233,-0.865409 2.27652,-0.865409 0.46853,0 0.91502,0.09922 0.44648,0.09371 0.8654,0.286632 z"
         id="path26296" />
      <path
         d="m 189.78784,45.212609 q -1.22921,0 -1.70325,0.28112 -0.47405,0.28112 -0.47405,0.959115 0,0.540192 0.35278,0.859897 0.35829,0.314193 0.97014,0.314193 0.84336,0 1.35048,-0.595313 0.51263,-0.600825 0.51263,-1.593014 v -0.225998 z m 2.02297,-0.418924 v 3.522269 h -1.01424 v -0.937067 q -0.34727,0.56224 -0.86541,0.832336 -0.51814,0.264583 -1.2678,0.264583 -0.94809,0 -1.51033,-0.529167 -0.55673,-0.534679 -0.55673,-1.427649 0,-1.041798 0.69454,-1.570965 0.70004,-0.529167 2.08359,-0.529167 h 1.42214 v -0.09922 q 0,-0.700044 -0.46302,-1.080383 -0.45751,-0.385851 -1.28985,-0.385851 -0.52917,0 -1.03077,0.126779 -0.50161,0.12678 -0.96463,0.380339 v -0.937066 q 0.55673,-0.214975 1.08038,-0.319706 0.52366,-0.110243 1.01975,-0.110243 1.33946,0 2.00092,0.694532 0.66146,0.694532 0.66146,2.105646 z"
         id="path26298" />
      <path
         d="m 196.89853,42.142336 h 1.01424 l 1.26779,4.817627 1.26229,-4.817627 h 1.19614 l 1.26779,4.817627 1.26229,-4.817627 h 1.01423 l -1.61506,6.173618 h -1.19614 l -1.32843,-5.060162 -1.33394,5.060162 h -1.19614 z"
         id="path26300" />
      <path
         d="m 154.61476,56.435364 v 0.959115 q -0.42995,-0.220486 -0.89297,-0.330729 -0.46302,-0.110244 -0.95911,-0.110244 -0.75517,0 -1.13551,0.231511 -0.37482,0.231511 -0.37482,0.694532 0,0.352778 0.27009,0.556728 0.2701,0.198438 1.0859,0.380339 l 0.34726,0.07717 q 1.08039,0.231511 1.53238,0.655947 0.45751,0.418924 0.45751,1.17409 0,0.859897 -0.68351,1.361503 -0.67799,0.501606 -1.86862,0.501606 -0.49609,0 -1.03628,-0.09922 -0.53468,-0.09371 -1.13,-0.286633 v -1.04731 q 0.56224,0.292145 1.10795,0.440973 0.5457,0.143316 1.08038,0.143316 0.71658,0 1.10243,-0.242535 0.38585,-0.248047 0.38585,-0.694532 0,-0.413412 -0.28112,-0.633898 -0.2756,-0.220487 -1.21818,-0.424436 l -0.35278,-0.08268 q -0.94258,-0.198437 -1.3615,-0.606337 -0.41893,-0.413412 -0.41893,-1.129993 0,-0.870921 0.61736,-1.344966 0.61736,-0.474046 1.75287,-0.474046 0.56224,0 1.05833,0.08268 0.4961,0.08268 0.91502,0.248048 z"
         id="path26302" />
      <path
         d="m 157.54172,61.501037 v 3.274222 h -1.01975 v -8.521797 h 1.01975 v 0.937067 q 0.3197,-0.551216 0.80477,-0.815799 0.49059,-0.270096 1.16858,-0.270096 1.12448,0 1.82453,0.89297 0.70555,0.892969 0.70555,2.348179 0,1.45521 -0.70555,2.34818 -0.70005,0.892969 -1.82453,0.892969 -0.67799,0 -1.16858,-0.264583 -0.48507,-0.270096 -0.80477,-0.821312 z m 3.45061,-2.155254 q 0,-1.118968 -0.46302,-1.752866 -0.45751,-0.639411 -1.26229,-0.639411 -0.80477,0 -1.26779,0.639411 -0.45751,0.633898 -0.45751,1.752866 0,1.118968 0.45751,1.758379 0.46302,0.633898 1.26779,0.633898 0.80478,0 1.26229,-0.633898 0.46302,-0.639411 0.46302,-1.758379 z"
         id="path26304" />
      <path
         d="m 166.11864,56.964531 q -0.8158,0 -1.28985,0.63941 -0.47404,0.633898 -0.47404,1.741842 0,1.107944 0.46853,1.747354 0.47405,0.633899 1.29536,0.633899 0.81028,0 1.28433,-0.639411 0.47405,-0.63941 0.47405,-1.741842 0,-1.096919 -0.47405,-1.73633 -0.47405,-0.644922 -1.28433,-0.644922 z m 0,-0.859897 q 1.32292,0 2.07808,0.859897 0.75517,0.859897 0.75517,2.381252 0,1.515844 -0.75517,2.381253 -0.75516,0.859896 -2.07808,0.859896 -1.32843,0 -2.0836,-0.859896 -0.74965,-0.865409 -0.74965,-2.381253 0,-1.521355 0.74965,-2.381252 0.75517,-0.859897 2.0836,-0.859897 z"
         id="path26306" />
      <path
         d="m 170.66617,53.850161 h 1.01423 v 3.31832 l 0.68902,-0.496095 0.41893,0.584289 -1.10795,0.777215 v 4.39319 h -1.01423 v -3.671098 l -0.678,0.48507 -0.4079,-0.584289 1.0859,-0.777214 z"
         id="path26308" />
      <path
         d="m 179.12182,59.086712 v 0.496094 h -4.66329 q 0.0661,1.04731 0.62839,1.598526 0.56775,0.545704 1.57648,0.545704 0.58429,0 1.12999,-0.143316 0.55121,-0.143317 1.09141,-0.429949 v 0.959116 q -0.54571,0.23151 -1.11897,0.352778 -0.57327,0.121267 -1.16307,0.121267 -1.47726,0 -2.34266,-0.859896 -0.8599,-0.859897 -0.8599,-2.326131 0,-1.515844 0.8158,-2.403301 0.82131,-0.89297 2.21037,-0.89297 1.24575,0 1.96784,0.804775 0.72761,0.799263 0.72761,2.177303 z m -1.01424,-0.297657 q -0.011,-0.832336 -0.46853,-1.32843 -0.452,-0.496094 -1.20165,-0.496094 -0.84887,0 -1.36151,0.479558 -0.50711,0.479557 -0.58428,1.350478 z"
         id="path26310" />
      <path
         d="m 185.22929,56.490485 v 0.948091 q -0.42995,-0.237022 -0.86541,-0.352778 -0.42995,-0.121267 -0.87092,-0.121267 -0.98668,0 -1.53238,0.628386 -0.5457,0.622874 -0.5457,1.752866 0,1.129993 0.5457,1.758379 0.5457,0.622874 1.53238,0.622874 0.44097,0 0.87092,-0.115756 0.43546,-0.121267 0.86541,-0.35829 v 0.937067 q -0.42444,0.198438 -0.88195,0.297657 -0.45199,0.09922 -0.96462,0.09922 -1.39458,0 -2.21589,-0.876433 -0.82131,-0.876433 -0.82131,-2.364716 0,-1.510331 0.82682,-2.37574 0.83234,-0.865409 2.27652,-0.865409 0.46854,0 0.91502,0.09922 0.44649,0.09371 0.86541,0.286632 z"
         id="path26312" />
      <path
         d="m 186.55221,56.253462 h 4.81762 v 0.926043 l -3.81441,4.437287 h 3.81441 v 0.810288 h -4.95543 v -0.926043 l 3.81442,-4.437287 h -3.67661 z"
         id="path26314" />
      <path
         d="m 198.1994,59.086712 v 0.496094 h -4.66329 q 0.0661,1.04731 0.62839,1.598526 0.56775,0.545704 1.57648,0.545704 0.58428,0 1.12999,-0.143316 0.55121,-0.143317 1.09141,-0.429949 v 0.959116 q -0.54571,0.23151 -1.11897,0.352778 -0.57327,0.121267 -1.16307,0.121267 -1.47726,0 -2.34267,-0.859896 -0.85989,-0.859897 -0.85989,-2.326131 0,-1.515844 0.8158,-2.403301 0.82131,-0.89297 2.21037,-0.89297 1.24575,0 1.96784,0.804775 0.72761,0.799263 0.72761,2.177303 z m -1.01424,-0.297657 q -0.011,-0.832336 -0.46853,-1.32843 -0.452,-0.496094 -1.20165,-0.496094 -0.84888,0 -1.36151,0.479558 -0.50711,0.479557 -0.58428,1.350478 z"
         id="path26316" />
      <path
         d="m 202.75244,53.359579 h 1.09692 l -1.79696,2.072572 h -0.84336 z m 2.24345,5.341282 v 3.726219 h -1.01424 v -3.693146 q 0,-0.876434 -0.34175,-1.311894 -0.34175,-0.435461 -1.02526,-0.435461 -0.82131,0 -1.29536,0.523655 -0.47404,0.523656 -0.47404,1.42765 v 3.489196 h -1.01975 v -6.173618 h 1.01975 v 0.959116 q 0.3638,-0.556728 0.85438,-0.832336 0.49609,-0.275608 1.14102,-0.275608 1.06384,0 1.60955,0.661459 0.5457,0.655947 0.5457,1.934768 z"
         id="path26318" />
      <path
         d="m 210.95453,56.435364 v 0.959115 q -0.42995,-0.220486 -0.89297,-0.330729 -0.46302,-0.110244 -0.95911,-0.110244 -0.75517,0 -1.13551,0.231511 -0.37482,0.231511 -0.37482,0.694532 0,0.352778 0.27009,0.556728 0.2701,0.198438 1.0859,0.380339 l 0.34726,0.07717 q 1.08039,0.231511 1.53238,0.655947 0.45751,0.418924 0.45751,1.17409 0,0.859897 -0.6835,1.361503 -0.678,0.501606 -1.86863,0.501606 -0.49609,0 -1.03628,-0.09922 -0.53468,-0.09371 -1.12999,-0.286633 v -1.04731 q 0.56224,0.292145 1.10794,0.440973 0.5457,0.143316 1.08038,0.143316 0.71658,0 1.10243,-0.242535 0.38585,-0.248047 0.38585,-0.694532 0,-0.413412 -0.28112,-0.633898 -0.2756,-0.220487 -1.21818,-0.424436 l -0.35278,-0.08268 q -0.94258,-0.198437 -1.3615,-0.606337 -0.41893,-0.413412 -0.41893,-1.129993 0,-0.870921 0.61736,-1.344966 0.61737,-0.474046 1.75287,-0.474046 0.56224,0 1.05834,0.08268 0.49609,0.08268 0.91501,0.248048 z"
         id="path26320" />
      <path
         d="m 213.90354,54.500596 v 1.752866 h 2.08911 v 0.788239 h -2.08911 v 3.351392 q 0,0.755166 0.20395,0.97014 0.20946,0.214974 0.84336,0.214974 h 1.0418 v 0.848873 h -1.0418 q -1.17409,0 -1.62058,-0.435461 -0.44648,-0.440972 -0.44648,-1.598526 v -3.351392 h -0.74414 v -0.788239 h 0.74414 v -1.752866 z"
         id="path26322" />
      <path
         d="m 216.73679,56.253462 h 1.01423 l 1.2678,4.817627 1.26228,-4.817627 h 1.19614 l 1.2678,4.817627 1.26228,-4.817627 h 1.01424 l -1.61506,6.173618 h -1.19614 l -1.32843,-5.060162 -1.33394,5.060162 h -1.19614 z"
         id="path26324" />
      <path
         d="m 226.55945,56.253462 h 1.01424 v 6.173618 h -1.01424 z m 0,-2.403301 h 1.01424 v 1.284333 h -1.01424 z"
         id="path26326" />
      <path
         d="m 234.97652,59.086712 v 0.496094 h -4.66329 q 0.0661,1.04731 0.62839,1.598526 0.56775,0.545704 1.57648,0.545704 0.58429,0 1.12999,-0.143316 0.55122,-0.143317 1.09141,-0.429949 v 0.959116 q -0.54571,0.23151 -1.11897,0.352778 -0.57326,0.121267 -1.16307,0.121267 -1.47725,0 -2.34266,-0.859896 -0.8599,-0.859897 -0.8599,-2.326131 0,-1.515844 0.8158,-2.403301 0.82131,-0.89297 2.21038,-0.89297 1.24574,0 1.96784,0.804775 0.7276,0.799263 0.7276,2.177303 z m -1.01424,-0.297657 q -0.011,-0.832336 -0.46853,-1.32843 -0.452,-0.496094 -1.20165,-0.496094 -0.84887,0 -1.3615,0.479558 -0.50712,0.479557 -0.58429,1.350478 z"
         id="path26328" />
    </g>
    <g
       aria-label="Praca nad sobą"
       transform="translate(40.171683,192.36964)"
       id="text179633-2-0-9"
       style="font-size:11.2889px;line-height:1.25;letter-spacing:0px;word-spacing:0px;white-space:pre;shape-inside:url(#rect179635-6-7-5);display:inline;fill:#ffffff">
      <path
         d="m 151.83663,26.890194 v 3.092321 h 1.40009 q 0.77722,0 1.20165,-0.402388 0.42444,-0.402388 0.42444,-1.146529 0,-0.738629 -0.42444,-1.141017 -0.42443,-0.402387 -1.20165,-0.402387 z m -1.11345,-0.915019 h 2.51354 q 1.38355,0 2.08911,0.628386 0.71107,0.622874 0.71107,1.830037 0,1.218187 -0.71107,1.841061 -0.70556,0.622874 -2.08911,0.622874 h -1.40009 v 3.307295 h -1.11345 z"
         id="path30874" />
      <path
         d="m 160.86555,28.979302 q -0.17088,-0.09922 -0.37483,-0.143316 -0.19843,-0.04961 -0.44097,-0.04961 -0.8599,0 -1.32292,0.56224 -0.45751,0.556728 -0.45751,1.604038 v 3.252174 h -1.01975 V 28.03121 h 1.01975 v 0.959116 q 0.31971,-0.56224 0.83234,-0.832336 0.51263,-0.275608 1.24575,-0.275608 0.10473,0 0.23151,0.01654 0.12678,0.01102 0.28112,0.03859 z"
         id="path30876" />
      <path
         d="m 164.73508,31.101483 q -1.22921,0 -1.70325,0.28112 -0.47405,0.28112 -0.47405,0.959115 0,0.540192 0.35278,0.859897 0.35829,0.314193 0.97014,0.314193 0.84336,0 1.35048,-0.595313 0.51263,-0.600825 0.51263,-1.593014 v -0.225998 z m 2.02297,-0.418924 v 3.522269 h -1.01424 v -0.937067 q -0.34727,0.56224 -0.86541,0.832336 -0.51814,0.264583 -1.2678,0.264583 -0.94809,0 -1.51033,-0.529167 -0.55673,-0.534679 -0.55673,-1.427649 0,-1.041798 0.69454,-1.570965 0.70004,-0.529167 2.08359,-0.529167 h 1.42214 v -0.09922 q 0,-0.700044 -0.46302,-1.080383 -0.45751,-0.385851 -1.28985,-0.385851 -0.52916,0 -1.03077,0.12678 -0.50161,0.126779 -0.96463,0.380338 V 28.31233 q 0.55673,-0.214975 1.08038,-0.319706 0.52366,-0.110243 1.01975,-0.110243 1.33946,0 2.00092,0.694532 0.66146,0.694532 0.66146,2.105645 z"
         id="path30878" />
      <path
         d="m 173.28995,28.268233 v 0.948092 q -0.42994,-0.237023 -0.8654,-0.352779 -0.42995,-0.121267 -0.87093,-0.121267 -0.98667,0 -1.53238,0.628386 -0.5457,0.622874 -0.5457,1.752866 0,1.129993 0.5457,1.758379 0.54571,0.622874 1.53238,0.622874 0.44098,0 0.87093,-0.115756 0.43546,-0.121267 0.8654,-0.35829 v 0.937067 q -0.42443,0.198438 -0.88194,0.297657 -0.452,0.09922 -0.96463,0.09922 -1.39457,0 -2.21589,-0.876433 -0.82131,-0.876433 -0.82131,-2.364716 0,-1.510331 0.82683,-2.37574 0.83233,-0.865409 2.27652,-0.865409 0.46853,0 0.91502,0.09922 0.44648,0.09371 0.8654,0.286632 z"
         id="path30880" />
      <path
         d="m 177.85953,31.101483 q -1.22921,0 -1.70325,0.28112 -0.47405,0.28112 -0.47405,0.959115 0,0.540192 0.35278,0.859897 0.35829,0.314193 0.97014,0.314193 0.84336,0 1.35048,-0.595313 0.51263,-0.600825 0.51263,-1.593014 v -0.225998 z m 2.02297,-0.418924 v 3.522269 h -1.01424 v -0.937067 q -0.34727,0.56224 -0.86541,0.832336 -0.51814,0.264583 -1.2678,0.264583 -0.94809,0 -1.51033,-0.529167 -0.55673,-0.534679 -0.55673,-1.427649 0,-1.041798 0.69454,-1.570965 0.70004,-0.529167 2.08359,-0.529167 h 1.42214 v -0.09922 q 0,-0.700044 -0.46302,-1.080383 -0.45751,-0.385851 -1.28985,-0.385851 -0.52917,0 -1.03077,0.12678 -0.50161,0.126779 -0.96463,0.380338 V 28.31233 q 0.55673,-0.214975 1.08038,-0.319706 0.52366,-0.110243 1.01975,-0.110243 1.33946,0 2.00092,0.694532 0.66146,0.694532 0.66146,2.105645 z"
         id="path30882" />
      <path
         d="m 190.69184,30.478609 v 3.726219 h -1.01424 v -3.693146 q 0,-0.876433 -0.34175,-1.311894 -0.34175,-0.43546 -1.02526,-0.43546 -0.82131,0 -1.29536,0.523655 -0.47405,0.523655 -0.47405,1.427649 v 3.489196 h -1.01974 V 28.03121 h 1.01974 v 0.959116 q 0.36381,-0.556728 0.85439,-0.832336 0.49609,-0.275608 1.14102,-0.275608 1.06384,0 1.60955,0.661459 0.5457,0.655947 0.5457,1.934768 z"
         id="path30884" />
      <path
         d="m 195.52049,31.101483 q -1.22921,0 -1.70326,0.28112 -0.47404,0.28112 -0.47404,0.959115 0,0.540192 0.35278,0.859897 0.35829,0.314193 0.97014,0.314193 0.84336,0 1.35047,-0.595313 0.51264,-0.600825 0.51264,-1.593014 v -0.225998 z m 2.02296,-0.418924 v 3.522269 h -1.01423 v -0.937067 q -0.34727,0.56224 -0.86541,0.832336 -0.51815,0.264583 -1.2678,0.264583 -0.94809,0 -1.51033,-0.529167 -0.55673,-0.534679 -0.55673,-1.427649 0,-1.041798 0.69453,-1.570965 0.70005,-0.529167 2.0836,-0.529167 h 1.42214 v -0.09922 q 0,-0.700044 -0.46303,-1.080383 -0.45751,-0.385851 -1.28984,-0.385851 -0.52917,0 -1.03077,0.12678 -0.50161,0.126779 -0.96463,0.380338 V 28.31233 q 0.55673,-0.214975 1.08038,-0.319706 0.52366,-0.110243 1.01975,-0.110243 1.33945,0 2.00091,0.694532 0.66146,0.694532 0.66146,2.105645 z"
         id="path30886" />
      <path
         d="m 203.69502,28.968277 v -3.340368 h 1.01424 v 8.576919 h -1.01424 v -0.926043 q -0.3197,0.551216 -0.81029,0.821312 -0.48507,0.264583 -1.16857,0.264583 -1.11897,0 -1.82453,-0.892969 -0.70004,-0.89297 -0.70004,-2.34818 0,-1.455209 0.70004,-2.348179 0.70556,-0.89297 1.82453,-0.89297 0.6835,0 1.16857,0.270096 0.49059,0.264584 0.81029,0.815799 z m -3.45612,2.155254 q 0,1.118968 0.45751,1.758379 0.46302,0.633898 1.26779,0.633898 0.80478,0 1.2678,-0.633898 0.46302,-0.639411 0.46302,-1.758379 0,-1.118968 -0.46302,-1.752866 -0.46302,-0.63941 -1.2678,-0.63941 -0.80477,0 -1.26779,0.63941 -0.45751,0.633898 -0.45751,1.752866 z"
         id="path30888" />
      <path
         d="m 154.61476,42.324238 v 0.959115 q -0.42995,-0.220486 -0.89297,-0.330729 -0.46302,-0.110243 -0.95911,-0.110243 -0.75517,0 -1.13551,0.23151 -0.37482,0.231511 -0.37482,0.694532 0,0.352778 0.27009,0.556728 0.2701,0.198438 1.0859,0.380339 l 0.34726,0.07717 q 1.08039,0.231511 1.53238,0.655947 0.45751,0.418924 0.45751,1.17409 0,0.859897 -0.68351,1.361503 -0.67799,0.501606 -1.86862,0.501606 -0.49609,0 -1.03628,-0.09922 -0.53468,-0.09371 -1.13,-0.286633 v -1.04731 q 0.56224,0.292145 1.10795,0.440973 0.5457,0.143316 1.08038,0.143316 0.71658,0 1.10243,-0.242535 0.38585,-0.248047 0.38585,-0.694532 0,-0.413412 -0.28112,-0.633898 -0.2756,-0.220486 -1.21818,-0.424436 l -0.35278,-0.08268 q -0.94258,-0.198437 -1.3615,-0.606337 -0.41893,-0.413412 -0.41893,-1.129993 0,-0.870921 0.61736,-1.344966 0.61736,-0.474046 1.75287,-0.474046 0.56224,0 1.05833,0.08268 0.4961,0.08268 0.91502,0.248047 z"
         id="path30890" />
      <path
         d="m 158.95283,42.853405 q -0.8158,0 -1.28984,0.63941 -0.47405,0.633898 -0.47405,1.741842 0,1.107944 0.46853,1.747354 0.47405,0.633899 1.29536,0.633899 0.81029,0 1.28433,-0.639411 0.47405,-0.63941 0.47405,-1.741842 0,-1.096919 -0.47405,-1.73633 -0.47404,-0.644922 -1.28433,-0.644922 z m 0,-0.859897 q 1.32292,0 2.07808,0.859897 0.75517,0.859897 0.75517,2.381252 0,1.515844 -0.75517,2.381253 -0.75516,0.859896 -2.07808,0.859896 -1.32843,0 -2.0836,-0.859896 -0.74965,-0.865409 -0.74965,-2.381253 0,-1.521355 0.74965,-2.381252 0.75517,-0.859897 2.0836,-0.859897 z"
         id="path30892" />
      <path
         d="m 167.89906,45.234657 q 0,-1.118968 -0.46302,-1.752866 -0.45751,-0.63941 -1.26228,-0.63941 -0.80478,0 -1.2678,0.63941 -0.45751,0.633898 -0.45751,1.752866 0,1.118968 0.45751,1.758379 0.46302,0.633898 1.2678,0.633898 0.80477,0 1.26228,-0.633898 0.46302,-0.639411 0.46302,-1.758379 z m -3.45061,-2.155254 q 0.31971,-0.551215 0.80478,-0.815799 0.49058,-0.270096 1.16858,-0.270096 1.12448,0 1.82452,0.89297 0.70556,0.892969 0.70556,2.348179 0,1.45521 -0.70556,2.34818 -0.70004,0.892969 -1.82452,0.892969 -0.678,0 -1.16858,-0.264583 -0.48507,-0.270096 -0.80478,-0.821312 v 0.926043 h -1.01975 v -8.576919 h 1.01975 z"
         id="path30894" />
      <path
         d="m 173.43878,45.212609 q -1.22921,0 -1.70325,0.28112 -0.47405,0.28112 -0.47405,0.959115 0,0.540192 0.35278,0.859897 0.35829,0.314193 0.97014,0.314193 0.84336,0 1.35048,-0.595313 0.51263,-0.600825 0.51263,-1.593014 v -0.225998 z m 2.02297,-0.418924 v 3.522269 h -1.01424 v -0.937067 q -0.34727,0.56224 -0.86541,0.832336 -0.51814,0.264583 -1.2678,0.264583 -0.94809,0 -1.51033,-0.529167 -0.55673,-0.534679 -0.55673,-1.427649 0,-1.041798 0.69454,-1.570965 0.70004,-0.529167 2.08359,-0.529167 h 1.42214 v -0.09922 q 0,-0.700044 -0.46302,-1.080383 -0.45751,-0.385851 -1.28985,-0.385851 -0.52917,0 -1.03077,0.126779 -0.50161,0.12678 -0.96463,0.380339 v -0.937066 q 0.55673,-0.214975 1.08038,-0.319706 0.52366,-0.110243 1.01975,-0.110243 1.33946,0 2.00092,0.694532 0.66146,0.694532 0.66146,2.105646 z m -1.00322,3.522269 h 0.65595 q -0.24805,0.336241 -0.36932,0.578776 -0.11575,0.242535 -0.11575,0.413412 0,0.25356 0.14883,0.380339 0.15434,0.12678 0.45199,0.12678 0.17639,0 0.34727,-0.0441 0.17088,-0.03858 0.34175,-0.121268 v 0.733117 q -0.20946,0.05512 -0.39687,0.08268 -0.18741,0.02756 -0.35278,0.02756 -0.67248,0 -0.99219,-0.242535 -0.31419,-0.237022 -0.31419,-0.749653 0,-0.264584 0.14332,-0.556728 0.14882,-0.286632 0.45199,-0.628386 z"
         id="path30896" />
    </g>
  </g>
</svg>
