<?xml version="1.0" encoding="UTF-8" standalone="no"?>
<!-- Created with Inkscape (http://www.inkscape.org/) -->

<svg
   width="198.28323mm"
   height="198.28323mm"
   viewBox="0 0 198.28323 198.28324"
   version="1.1"
   id="svg5"
   inkscape:version="1.1.1 (3bf5ae0d25, 2021-09-20, custom)"
   sodipodi:docname="wiedzmin.svg"
   xmlns:inkscape="http://www.inkscape.org/namespaces/inkscape"
   xmlns:sodipodi="http://sodipodi.sourceforge.net/DTD/sodipodi-0.dtd"
   xmlns="http://www.w3.org/2000/svg"
   xmlns:svg="http://www.w3.org/2000/svg">
  <sodipodi:namedview
     id="namedview7"
     pagecolor="#505050"
     bordercolor="#eeeeee"
     borderopacity="1"
     inkscape:pageshadow="0"
     inkscape:pageopacity="0"
     inkscape:pagecheckerboard="0"
     inkscape:document-units="mm"
     showgrid="false"
     inkscape:zoom="0.64"
     inkscape:cx="-77.34375"
     inkscape:cy="480.46875"
     inkscape:window-width="1920"
     inkscape:window-height="1042"
     inkscape:window-x="0"
     inkscape:window-y="38"
     inkscape:window-maximized="1"
     inkscape:current-layer="layer2"
     fit-margin-top="0"
     fit-margin-left="0"
     fit-margin-right="0"
     fit-margin-bottom="0" />
  <defs
     id="defs2" />
  <g
     inkscape:groupmode="layer"
     id="layer2"
     inkscape:label="Warstwa 2"
     style="display:inline"
     transform="translate(-7.0441383,-37.03109)">
    <path
       style="fill:none;stroke:#000000;stroke-width:0.901;stroke-linecap:round;stroke-linejoin:round;stroke-opacity:1;stroke-miterlimit:4;stroke-dasharray:none"
       d="m 80.790996,109.03716 6.213402,3.29844 c -0.867027,0.96988 -1.856135,1.72103 -3.150263,1.81756 -2.422166,-0.43505 -3.103199,-2.44864 -3.063139,-5.116 z"
       id="path870"
       sodipodi:nodetypes="cccc" />
    <path
       style="fill:none;stroke:#000000;stroke-width:0.901;stroke-linecap:round;stroke-linejoin:round;stroke-opacity:1;stroke-miterlimit:4;stroke-dasharray:none"
       d="m 123.57444,112.59985 6.58772,-3.72883 c -0.52447,3.63472 -1.45203,5.41114 -2.6713,5.91799 -1.77533,0.35139 -2.9427,-0.68603 -3.91642,-2.18916 z"
       id="path857"
       sodipodi:nodetypes="cccc" />
    <path
       style="fill:none;stroke:#000000;stroke-width:0.901;stroke-linecap:butt;stroke-linejoin:miter;stroke-opacity:1;stroke-miterlimit:4;stroke-dasharray:none"
       d="M 70.702995,98.867792 60.764567,114.49475"
       id="path1731" />
    <path
       style="fill:none;stroke:#000000;stroke-width:0.901;stroke-linecap:butt;stroke-linejoin:miter;stroke-opacity:1;stroke-miterlimit:4;stroke-dasharray:none"
       d="m 68.38861,102.66069 c 1.68569,5.29354 3.483415,10.55552 8.22561,14.98813 3.806025,3.24056 7.221088,2.96995 10.637271,2.70939 L 98.788879,115.3676 69.240681,101.14051 Z"
       id="path1733"
       sodipodi:nodetypes="cccccc" />
    <path
       style="fill:none;stroke:#000000;stroke-width:0.901;stroke-linecap:butt;stroke-linejoin:miter;stroke-opacity:1;stroke-miterlimit:4;stroke-dasharray:none"
       d="M 98.788879,115.3676 104.33368,112.23216 70.702995,98.867792"
       id="path1977" />
    <path
       style="fill:none;stroke:#000000;stroke-width:0.901;stroke-linecap:butt;stroke-linejoin:miter;stroke-opacity:1;stroke-miterlimit:4;stroke-dasharray:none"
       d="M 70.702995,98.867792 C 67.30363,94.492717 63.597488,90.515294 60.034869,86.351835 L 55.276913,81.439954 52.133831,78.740387 C 48.779369,74.81204 46.435593,69.631858 44.573211,63.855421"
       id="path1979"
       sodipodi:nodetypes="ccccc" />
    <path
       style="fill:none;stroke:#000000;stroke-width:0.901;stroke-linecap:butt;stroke-linejoin:miter;stroke-opacity:1;stroke-miterlimit:4;stroke-dasharray:none"
       d="M 60.764567,114.49475 C 56.182813,110.67266 52.936025,105.36648 50.315632,99.363941 48.098132,94.039644 46.679631,88.600822 45.073275,83.188926 44.317371,76.78863 43.034534,70.427866 44.573211,63.855421"
       id="path2109"
       sodipodi:nodetypes="cccc" />
    <path
       style="fill:none;stroke:#000000;stroke-width:0.901;stroke-linecap:butt;stroke-linejoin:miter;stroke-opacity:1;stroke-miterlimit:4;stroke-dasharray:none"
       d="m 111.0329,115.32013 -4.65356,-3.12396 32.73198,-13.384563 1.75765,2.619593 z"
       id="path2315" />
    <path
       style="fill:none;stroke:#000000;stroke-width:0.901;stroke-linecap:butt;stroke-linejoin:miter;stroke-opacity:1;stroke-miterlimit:4;stroke-dasharray:none"
       d="m 111.95668,114.90679 11.62849,6.20425 c 4.66019,-0.4174 8.66586,-1.86209 11.45521,-5.21584 2.27818,-3.29009 3.23304,-7.54399 2.52583,-13.00841"
       id="path2317"
       sodipodi:nodetypes="cccc" />
    <path
       style="fill:none;stroke:#000000;stroke-width:0.901;stroke-linecap:butt;stroke-linejoin:miter;stroke-opacity:1;stroke-miterlimit:4;stroke-dasharray:none"
       d="m 123.58517,121.11104 -6.13694,5.18161 0.15187,9.29162 c 1.4701,2.60728 0.48015,3.62878 -0.11567,5.04357 -6.19903,4.14615 -10.33182,5.48489 -13.69364,5.34843 -3.915813,-0.36281 -7.238234,-1.48396 -9.4899,-4.05624 -1.984573,-2.02916 -1.824684,-4.41779 -0.755043,-6.86693 l 0.327848,-5.54754 -6.622204,-9.14735"
       id="path2523"
       sodipodi:nodetypes="ccccccccc" />
    <path
       style="fill:none;stroke:#000000;stroke-width:0.901;stroke-linecap:butt;stroke-linejoin:miter;stroke-opacity:1;stroke-miterlimit:4;stroke-dasharray:none"
       d="m 94.793857,119.41934 3.394797,3.98532 -0.697821,9.04383 c -1.391543,0.91441 -0.872372,1.46992 -0.758844,2.10164"
       id="path3527"
       sodipodi:nodetypes="cccc" />
    <path
       style="fill:none;stroke:#000000;stroke-width:0.901;stroke-linecap:butt;stroke-linejoin:miter;stroke-opacity:1;stroke-miterlimit:4;stroke-dasharray:none"
       d="m 115.46655,119.83749 -2.56711,3.65061 0.85565,9.77813 c 1.17139,0.72306 1.38375,1.38643 0.61822,1.98895"
       id="path3619"
       sodipodi:nodetypes="cccc" />
    <path
       style="fill:none;stroke:#000000;stroke-width:0.901;stroke-linecap:butt;stroke-linejoin:miter;stroke-opacity:1;stroke-miterlimit:4;stroke-dasharray:none"
       d="m 115.80563,138.08948 c 0,0 -5.36235,4.27899 -5.34428,4.34698 0.0218,0.0819 4.01003,-1.81922 4.07789,-1.99113 1.29087,-1.00057 1.60954,-1.76022 1.26639,-2.35585 z"
       id="path3867"
       sodipodi:nodetypes="cscc" />
    <path
       style="fill:none;stroke:#000000;stroke-width:0.901;stroke-linecap:round;stroke-linejoin:round;stroke-opacity:1;stroke-miterlimit:4;stroke-dasharray:none"
       d="m 94.556895,137.45141 5.238643,5.49861 c -1.501451,-0.4151 -2.632037,-1.45689 -3.716449,-2.57028 -0.995874,-0.94952 -1.200346,-1.90514 -1.522194,-2.92833 z"
       id="path3997"
       sodipodi:nodetypes="cccc" />
    <path
       style="fill:none;stroke:#000000;stroke-width:0.901;stroke-linecap:butt;stroke-linejoin:miter;stroke-opacity:1;stroke-miterlimit:4;stroke-dasharray:none"
       d="m 140.86897,101.4312 8.94802,12.15804 c 4.65645,-5.59985 8.30773,-12.07406 11.33165,-19.093992 2.8272,-8.718841 5.75716,-17.356562 3.97433,-29.714802 l -4.55288,11.307587 c -1.6168,1.96993 -1.94663,2.09073 -2.30415,2.251296 -7.68331,6.931008 -13.03582,13.670095 -19.15462,20.472278"
       id="path4450"
       sodipodi:nodetypes="ccccccc" />
    <path
       style="fill:none;stroke:#000000;stroke-width:0.901;stroke-linecap:butt;stroke-linejoin:miter;stroke-opacity:1;stroke-miterlimit:4;stroke-dasharray:none"
       d="m 108.47692,100.82354 c -0.58388,1.56605 -0.94292,3.13212 -1.07079,4.69819 -0.0195,1.07771 0.4041,1.81797 0.77276,2.60009 1.02289,1.28717 0.72728,2.08206 0.84554,3.03148"
       id="path5112"
       sodipodi:nodetypes="cccc" />
    <path
       style="fill:none;stroke:#000000;stroke-width:0.901;stroke-linecap:butt;stroke-linejoin:miter;stroke-opacity:1;stroke-miterlimit:4;stroke-dasharray:none"
       d="m 102.11113,100.50788 c 0.76169,1.76423 1.16272,3.52847 1.46539,5.29271 0.0918,1.14453 -0.10893,2.08831 -0.3511,3.00373 -0.34477,0.91121 -0.63243,1.83577 -0.34544,2.89462"
       id="path5318"
       sodipodi:nodetypes="cccc" />
    <path
       style="fill:none;stroke:#000000;stroke-width:0.901;stroke-linecap:butt;stroke-linejoin:miter;stroke-opacity:1;stroke-miterlimit:4;stroke-dasharray:none"
       d="m 90.785418,93.629623 c 0.04816,2.671992 1.383667,4.903761 3.147507,6.989047 2.061745,2.72058 2.743046,5.64509 2.726756,8.67263"
       id="path5547"
       sodipodi:nodetypes="ccc" />
    <path
       style="fill:none;stroke:#000000;stroke-width:0.901;stroke-linecap:butt;stroke-linejoin:miter;stroke-opacity:1;stroke-miterlimit:4;stroke-dasharray:none"
       d="m 119.88464,93.837855 c -0.72521,3.721581 -2.94759,5.937042 -4.86845,8.455805 -1.2658,2.38869 -1.77665,4.73433 -1.38376,7.02841"
       id="path5701"
       sodipodi:nodetypes="ccc" />
    <path
       style="fill:none;stroke:#000000;stroke-width:0.901;stroke-linecap:butt;stroke-linejoin:miter;stroke-opacity:1;stroke-miterlimit:4;stroke-dasharray:none"
       d="M 86.741568,105.23527 C 86.231686,99.976244 82.623639,95.788781 78.424316,91.805826 L 52.894447,74.28982 C 48.709094,71.284306 47.273483,67.521662 46.703806,63.520587"
       id="path5856"
       sodipodi:nodetypes="cccc" />
    <path
       style="fill:none;stroke:#000000;stroke-width:0.901;stroke-linecap:butt;stroke-linejoin:miter;stroke-opacity:1;stroke-miterlimit:4;stroke-dasharray:none"
       d="m 60.764567,114.49475 c 6.294961,2.31231 12.43733,6.53458 18.422354,12.72629 2.829125,2.65499 5.005044,6.00337 6.944349,9.60293 l 4.021604,31.61352 3.516742,29.21723 0.07757,8.69182 c -0.03119,0.97771 0.229941,1.80965 1.739886,2.01882 l 18.273208,0.51373 c 1.59156,-0.0442 2.75211,-0.91091 3.33875,-2.87271 0.1485,-9.04216 1.48536,-18.08432 2.37513,-27.12647 l 2.93672,-25.06749 c 0.099,-6.25744 0.27385,-12.51487 2.82571,-18.7723 2.79898,-4.65335 6.17088,-8.75933 9.97861,-12.44892 3.79886,-2.75358 7.0392,-5.58825 15.41162,-7.67784 7.49036,-7.21915 12.80335,-15.180823 14.38217,-26.688264 1.57881,-11.507439 1.91975,-26.227466 -0.16405,-27.21519 -3.5868,8.077226 -12.4444,13.068898 -20.97993,18.249112"
       id="path6180"
       sodipodi:nodetypes="ccccccccccccccscc" />
    <path
       style="fill:none;stroke:#000000;stroke-width:0.901;stroke-linecap:butt;stroke-linejoin:miter;stroke-opacity:1;stroke-miterlimit:4;stroke-dasharray:none"
       d="m 124.69266,136.78566 -4.00435,6.82993 c 0.49131,14.90174 -4.03906,17.88965 -6.71024,20.20134 1.27862,-1.64017 1.76184,-5.6658 1.78806,-11.06198 l -1.95361,0.0818 -0.72942,7.02015 -2.79009,0.032 -0.69031,-6.78134 -0.60559,6.71974 -3.0658,-0.0409 -0.82007,-6.60361 c -0.67891,1.69956 -1.00164,3.76013 -0.50755,6.64867 l -3.08189,-0.18463 -0.70599,-5.67597 c -0.44893,2.0251 -0.24252,4.05019 -0.0126,6.07529 l -3.876673,-0.37973 -0.204214,-6.20747 -1.283907,0.36072"
       id="path7184"
       sodipodi:nodetypes="cccccccccccccccccc" />
    <path
       d="m 86.13127,136.82397 5.207997,7.69061 c -2.415881,16.49893 4.772387,19.41331 6.710245,20.20133 -1.653441,-4.71124 -1.852322,-7.6479 -2.611043,-10.89621"
       style="fill:none;stroke:#000000;stroke-width:0.901;stroke-linecap:butt;stroke-linejoin:miter;stroke-miterlimit:4;stroke-dasharray:none;stroke-opacity:1"
       id="path8289"
       sodipodi:nodetypes="cccc" />
    <path
       style="fill:none;stroke:#000000;stroke-width:0.901;stroke-linecap:round;stroke-linejoin:round;stroke-opacity:1;stroke-miterlimit:4;stroke-dasharray:none"
       d="m 96.360762,163.76068 c -0.621956,6.68936 0.255671,12.10917 1.869166,16.906 0.903217,1.89065 2.755102,3.00842 4.573402,3.2905 1.07646,-1.2353 1.29403,-1.45566 2.41747,-1.47135 0.96379,0.24163 1.60105,1.03871 2.29954,1.73159 2.42516,-0.2349 4.34844,-1.32816 5.62782,-3.52271 1.60269,-5.71807 1.33032,-11.75578 1.80976,-17.66534"
       id="path9468"
       sodipodi:nodetypes="ccccccc" />
    <path
       style="fill:none;stroke:#000000;stroke-width:0.901;stroke-linecap:butt;stroke-linejoin:miter;stroke-opacity:1;stroke-miterlimit:4;stroke-dasharray:none"
       d="m 89.477535,162.75299 4.214476,9.57709 1.00227,18.95386 c 0.442558,3.62129 0.571358,7.53987 3.791705,8.52909 l 12.824344,0.33528 c 2.04146,-0.36749 3.81891,-1.17969 4.26614,-4.23256 0.81413,-9.24269 1.35786,-18.48538 1.80351,-27.72807 l 4.11971,-6.38703"
       id="path10358"
       sodipodi:nodetypes="cccccccc" />
    <path
       style="fill:none;stroke:#000000;stroke-width:0.901;stroke-linecap:butt;stroke-linejoin:miter;stroke-opacity:1;stroke-miterlimit:4;stroke-dasharray:none"
       d="m 98.229928,180.66668 c -0.248599,3.54902 -0.479826,7.09802 -0.267945,10.64704 0.02363,1.42328 -0.153496,2.84658 0.274748,4.26987 l 13.520369,0.0737 0.77643,-14.31892"
       id="path10602"
       sodipodi:nodetypes="ccccc" />
    <path
       style="fill:none;stroke:#000000;stroke-width:0.901;stroke-linecap:butt;stroke-linejoin:miter;stroke-opacity:1;stroke-miterlimit:4;stroke-dasharray:none"
       d="m 100.14082,195.59674 c 0.014,-2.61436 0.11927,-5.22873 0.38925,-7.8431 -2.387087,3.27201 -2.56341,5.64205 -2.293339,7.82995 z"
       id="path10850"
       sodipodi:nodetypes="cccc" />
    <path
       style="fill:none;stroke:#000000;stroke-width:0.901;stroke-linecap:butt;stroke-linejoin:miter;stroke-opacity:1;stroke-miterlimit:4;stroke-dasharray:none"
       d="m 101.53818,195.65548 -0.32069,-4.28805 6.73089,-0.0329 0.11318,4.39723"
       id="path11078" />
    <path
       style="fill:none;stroke:#000000;stroke-width:0.901;stroke-linecap:butt;stroke-linejoin:miter;stroke-opacity:1;stroke-miterlimit:4;stroke-dasharray:none"
       d="m 109.2532,195.76835 c 0.4127,-2.41933 0.69274,-5.06435 0.61504,-8.31795 2.06709,1.62848 1.98627,4.91128 1.88886,8.20688"
       id="path11080"
       sodipodi:nodetypes="ccc" />
    <path
       style="fill:none;stroke:#000000;stroke-width:0.901;stroke-linecap:butt;stroke-linejoin:miter;stroke-opacity:1;stroke-miterlimit:4;stroke-dasharray:none"
       d="m 105.24574,160.76606 0.0607,16.87921 1.42957,-16.59284"
       id="path11324" />
    <path
       style="fill:none;stroke:#000000;stroke-width:0.901;stroke-linecap:butt;stroke-linejoin:miter;stroke-opacity:1;stroke-miterlimit:4;stroke-dasharray:none"
       d="m 124.03039,105.11635 c 1.97288,-4.67513 4.10191,-9.385494 10.91701,-15.152597 4.99783,-2.463929 10.04326,-4.72396 14.69245,-8.681664 10.3269,-9.002268 14.93641,-14.839418 13.80699,-17.499528"
       id="path11439"
       sodipodi:nodetypes="cccc" />
    <path
       style="fill:none;stroke:#000000;stroke-width:0.901;stroke-linecap:round;stroke-linejoin:round;stroke-opacity:1;stroke-miterlimit:4;stroke-dasharray:none"
       d="m 44.573211,63.855421 c 0.0096,-1.190073 0.325555,-2.058082 0.928105,-2.624728 1.841604,4.324016 3.102942,4.918801 4.918795,6.867 l 18.128865,11.796055 c 0.767758,-2.84103 0.834815,-7.295567 2.556908,-7.779912 1.881039,0.308452 7.817884,4.211212 11.746717,6.09681 l 2.926909,-0.412659 0.02562,-2.725602 39.15978,-0.09274 1.73656,2.583906 0.077,3.853508 1.48764,-0.0066 0.0532,-3.523855 1.30367,0.205141 8.14841,-5.362807 c 1.44216,-1.085866 2.23116,-0.572247 2.8192,0.433429 l 3.27452,6.096741"
       id="path11682"
       sodipodi:nodetypes="ccccccccccccccccc" />
    <path
       style="fill:none;stroke:#000000;stroke-width:0.901;stroke-linecap:butt;stroke-linejoin:miter;stroke-opacity:1;stroke-miterlimit:4;stroke-dasharray:none"
       d="m 139.20734,72.072853 -10.4718,24.326858"
       id="path12762" />
    <path
       style="fill:none;stroke:#000000;stroke-width:0.901;stroke-linecap:butt;stroke-linejoin:miter;stroke-opacity:1;stroke-miterlimit:4;stroke-dasharray:none"
       d="m 130.49641,92.377892 -2.54982,-2.594421 -44.205429,-0.585163 -3.349595,2.352076"
       id="path12764" />
    <path
       style="fill:none;stroke:#000000;stroke-width:0.901;stroke-linecap:butt;stroke-linejoin:miter;stroke-opacity:1;stroke-miterlimit:4;stroke-dasharray:none"
       d="M 83.156787,96.846775 70.430517,72.498719"
       id="path12766" />
    <path
       style="fill:none;stroke:#000000;stroke-width:0.901;stroke-linecap:butt;stroke-linejoin:miter;stroke-opacity:1;stroke-miterlimit:4;stroke-dasharray:none"
       d="m 85.805127,75.072385 8.574759,9.886725"
       id="path12768" />
    <path
       style="fill:none;stroke:#000000;stroke-width:0.901;stroke-linecap:butt;stroke-linejoin:miter;stroke-opacity:1;stroke-miterlimit:4;stroke-dasharray:none"
       d="m 124.96491,74.979641 -8.70522,9.645245"
       id="path12770" />
    <path
       style="fill:none;stroke:#000000;stroke-width:0.901;stroke-linecap:butt;stroke-linejoin:miter;stroke-opacity:1;stroke-miterlimit:4;stroke-dasharray:none"
       d="M 50.402432,99.559358 27.395029,111.03083 57.57872,111.42889"
       id="path12772" />
    <path
       style="fill:none;stroke:#000000;stroke-width:0.901;stroke-linecap:butt;stroke-linejoin:miter;stroke-opacity:1;stroke-miterlimit:4;stroke-dasharray:none"
       d="m 27.395029,111.03083 19.777965,8.88864"
       id="path12774" />
    <path
       style="fill:none;stroke:#000000;stroke-width:0.901;stroke-linecap:butt;stroke-linejoin:miter;stroke-opacity:1;stroke-miterlimit:4;stroke-dasharray:none"
       d="m 60.764567,114.49475 c -1.15946,-0.0708 -2.417962,-0.44166 -3.364373,0.13306 l -33.96799,17.63506 55.687376,-5.13382"
       id="path12776"
       sodipodi:nodetypes="cccc" />
    <path
       style="fill:none;stroke:#000000;stroke-width:0.901;stroke-linecap:butt;stroke-linejoin:miter;stroke-opacity:1;stroke-miterlimit:4;stroke-dasharray:none"
       d="m 23.432204,132.26287 22.611001,5.83488 -33.62922,27.36379 72.756098,-30.54264"
       id="path12906" />
    <path
       style="fill:none;stroke:#000000;stroke-width:0.901;stroke-linecap:butt;stroke-linejoin:miter;stroke-opacity:1;stroke-miterlimit:4;stroke-dasharray:none"
       d="m 88.107065,151.74004 -42.488192,22.01831 7.583367,-7.03226 -40.788255,-1.26455"
       id="path12908" />
    <path
       style="fill:none;stroke:#000000;stroke-width:0.901;stroke-linecap:butt;stroke-linejoin:miter;stroke-opacity:1;stroke-miterlimit:4;stroke-dasharray:none"
       d="m 45.618873,173.75835 17.952239,-1.88357 -7.545031,13.54663 33.910695,-19.62867"
       id="path12910" />
    <path
       style="fill:none;stroke:#000000;stroke-width:0.901;stroke-linecap:butt;stroke-linejoin:miter;stroke-opacity:1;stroke-miterlimit:4;stroke-dasharray:none"
       d="m 91.539667,178.80881 -35.513586,6.6126"
       id="path12912" />
    <path
       style="fill:none;stroke:#000000;stroke-width:0.901;stroke-linecap:butt;stroke-linejoin:miter;stroke-opacity:1;stroke-miterlimit:4;stroke-dasharray:none"
       d="m 161.98731,99.171976 20.12294,11.600184 -27.96602,0.46087 14.56889,5.98809 13.70222,-6.33308"
       id="path13934"
       sodipodi:nodetypes="ccc" />
    <path
       style="fill:none;stroke:#000000;stroke-width:0.901;stroke-linecap:butt;stroke-linejoin:miter;stroke-opacity:1;stroke-miterlimit:4;stroke-dasharray:none"
       d="m 168.71312,117.22112 19.05915,15.14975 -56.97493,-5.04959"
       id="path14102" />
    <path
       style="fill:none;stroke:#000000;stroke-width:0.901;stroke-linecap:butt;stroke-linejoin:miter;stroke-opacity:1;stroke-miterlimit:4;stroke-dasharray:none"
       d="m 125.84841,134.05925 72.06674,31.19137 -31.74014,-27.11546 21.59726,-5.76429"
       id="path14104" />
    <path
       style="fill:none;stroke:#000000;stroke-width:0.901;stroke-linecap:butt;stroke-linejoin:miter;stroke-opacity:1;stroke-miterlimit:4;stroke-dasharray:none"
       d="m 197.91515,165.25062 -40.57823,1.27398 7.66737,7.39032 -42.58142,-22.9739"
       id="path14106" />
    <path
       style="fill:none;stroke:#000000;stroke-width:0.901;stroke-linecap:butt;stroke-linejoin:miter;stroke-opacity:1;stroke-miterlimit:4;stroke-dasharray:none"
       d="m 120.75159,167.16889 32.93512,18.75824 -5.20323,-14.31157 16.52081,2.29936"
       id="path14108" />
    <path
       style="fill:none;stroke:#000000;stroke-width:0.901;stroke-linecap:butt;stroke-linejoin:miter;stroke-opacity:1;stroke-miterlimit:4;stroke-dasharray:none"
       d="m 153.68671,185.92713 -34.22637,-7.39518"
       id="path14110" />
  </g>
</svg>
