<?xml version="1.0" encoding="UTF-8" standalone="no"?>
<!-- Generator: Adobe Illustrator 12.0.0, SVG Export Plug-In . SVG Version: 6.00 Build 51448)  -->

<svg
   version="1.1"
   id="Layer_1"
   width="139.61578"
   height="139.61578"
   viewBox="0 0 216.29187 216.29184"
   overflow="visible"
   enable-background="new 0 0 600 400"
   xml:space="preserve"
   sodipodi:docname="wosm_igla.svg"
   inkscape:version="1.2-dev (0853165845, 2021-06-13, custom)"
   xmlns:inkscape="http://www.inkscape.org/namespaces/inkscape"
   xmlns:sodipodi="http://sodipodi.sourceforge.net/DTD/sodipodi-0.dtd"
   xmlns="http://www.w3.org/2000/svg"
   xmlns:svg="http://www.w3.org/2000/svg"><defs
   id="defs165"><marker
     style="overflow:visible"
     id="Arrow1Mend"
     refX="0"
     refY="0"
     orient="auto"
     inkscape:stockid="Arrow1Mend"
     inkscape:isstock="true"><path
       transform="matrix(-0.4,0,0,-0.4,-4,0)"
       style="fill:context-stroke;fill-rule:evenodd;stroke:context-stroke;stroke-width:1pt"
       d="M 0,0 5,-5 -12.5,0 5,5 Z"
       id="path11424" /></marker><marker
     style="overflow:visible"
     id="Arrow1Lend"
     refX="0"
     refY="0"
     orient="auto"
     inkscape:stockid="Arrow1Lend"
     inkscape:isstock="true"><path
       transform="matrix(-0.8,0,0,-0.8,-10,0)"
       style="fill:context-stroke;fill-rule:evenodd;stroke:context-stroke;stroke-width:1pt"
       d="M 0,0 5,-5 -12.5,0 5,5 Z"
       id="path11418" /></marker><marker
     style="overflow:visible"
     id="Arrow1Mend-4"
     refX="0"
     refY="0"
     orient="auto"
     inkscape:stockid="Arrow1Mend"
     inkscape:isstock="true"><path
       transform="matrix(-0.4,0,0,-0.4,-4,0)"
       style="fill:context-stroke;fill-rule:evenodd;stroke:context-stroke;stroke-width:1pt"
       d="M 0,0 5,-5 -12.5,0 5,5 Z"
       id="path11424-8" /></marker><marker
     style="overflow:visible"
     id="Arrow1Mend-44"
     refX="0"
     refY="0"
     orient="auto"
     inkscape:stockid="Arrow1Mend"
     inkscape:isstock="true"><path
       transform="matrix(-0.4,0,0,-0.4,-4,0)"
       style="fill:context-stroke;fill-rule:evenodd;stroke:context-stroke;stroke-width:1pt"
       d="M 0,0 5,-5 -12.5,0 5,5 Z"
       id="path11424-4" /></marker><marker
     style="overflow:visible"
     id="Arrow1Mend-44-1"
     refX="0"
     refY="0"
     orient="auto"
     inkscape:stockid="Arrow1Mend"
     inkscape:isstock="true"><path
       transform="matrix(-0.4,0,0,-0.4,-4,0)"
       style="fill:context-stroke;fill-rule:evenodd;stroke:context-stroke;stroke-width:1pt"
       d="M 0,0 5,-5 -12.5,0 5,5 Z"
       id="path11424-4-7" /></marker><marker
     style="overflow:visible"
     id="Arrow1Mend-44-1-7"
     refX="0"
     refY="0"
     orient="auto"
     inkscape:stockid="Arrow1Mend"
     inkscape:isstock="true"><path
       transform="matrix(-0.4,0,0,-0.4,-4,0)"
       style="fill:context-stroke;fill-rule:evenodd;stroke:context-stroke;stroke-width:1pt"
       d="M 0,0 5,-5 -12.5,0 5,5 Z"
       id="path11424-4-7-8" /></marker><marker
     style="overflow:visible"
     id="Arrow1Mend-44-1-7-9"
     refX="0"
     refY="0"
     orient="auto"
     inkscape:stockid="Arrow1Mend"
     inkscape:isstock="true"><path
       transform="matrix(-0.4,0,0,-0.4,-4,0)"
       style="fill:context-stroke;fill-rule:evenodd;stroke:context-stroke;stroke-width:1pt"
       d="M 0,0 5,-5 -12.5,0 5,5 Z"
       id="path11424-4-7-8-7" /></marker><marker
     style="overflow:visible"
     id="Arrow1Mend-44-1-7-9-3"
     refX="0"
     refY="0"
     orient="auto"
     inkscape:stockid="Arrow1Mend"
     inkscape:isstock="true"><path
       transform="matrix(-0.4,0,0,-0.4,-4,0)"
       style="fill:context-stroke;fill-rule:evenodd;stroke:context-stroke;stroke-width:1pt"
       d="M 0,0 5,-5 -12.5,0 5,5 Z"
       id="path11424-4-7-8-7-1" /></marker><marker
     style="overflow:visible"
     id="Arrow1Mend-44-1-7-9-3-3"
     refX="0"
     refY="0"
     orient="auto"
     inkscape:stockid="Arrow1Mend"
     inkscape:isstock="true"><path
       transform="matrix(-0.4,0,0,-0.4,-4,0)"
       style="fill:context-stroke;fill-rule:evenodd;stroke:context-stroke;stroke-width:1pt"
       d="M 0,0 5,-5 -12.5,0 5,5 Z"
       id="path11424-4-7-8-7-1-3" /></marker><marker
     style="overflow:visible"
     id="Arrow1Mend-44-8"
     refX="0"
     refY="0"
     orient="auto"
     inkscape:stockid="Arrow1Mend"
     inkscape:isstock="true"><path
       transform="matrix(-0.4,0,0,-0.4,-4,0)"
       style="fill:context-stroke;fill-rule:evenodd;stroke:context-stroke;stroke-width:1pt"
       d="M 0,0 5,-5 -12.5,0 5,5 Z"
       id="path11424-4-8" /></marker><marker
     style="overflow:visible"
     id="Arrow1Mend-44-8-3"
     refX="0"
     refY="0"
     orient="auto"
     inkscape:stockid="Arrow1Mend"
     inkscape:isstock="true"><path
       transform="matrix(-0.4,0,0,-0.4,-4,0)"
       style="fill:context-stroke;fill-rule:evenodd;stroke:context-stroke;stroke-width:1pt"
       d="M 0,0 5,-5 -12.5,0 5,5 Z"
       id="path11424-4-8-0" /></marker></defs><sodipodi:namedview
   id="namedview163"
   pagecolor="#505050"
   bordercolor="#eeeeee"
   borderopacity="1"
   objecttolerance="10.0"
   gridtolerance="10.0"
   guidetolerance="10.0"
   inkscape:pageshadow="0"
   inkscape:pageopacity="0"
   inkscape:pagecheckerboard="0"
   showgrid="false"
   inkscape:zoom="3.6149689"
   inkscape:cx="14.522947"
   inkscape:cy="115.35369"
   inkscape:window-width="1920"
   inkscape:window-height="1042"
   inkscape:window-x="0"
   inkscape:window-y="38"
   inkscape:window-maximized="1"
   inkscape:current-layer="fleur_de_lis-6"
   fit-margin-top="10"
   fit-margin-left="10"
   fit-margin-right="10"
   fit-margin-bottom="10"
   lock-margins="true"
   showguides="false" />







<g
   inkscape:groupmode="layer"
   id="layer1"
   inkscape:label="Layer 1"
   style="display:inline"
   transform="translate(17.742682,-104.78396)"><g
     id="fleur_de_lis-6"
     transform="matrix(1.4113757,0,0,1.4113757,-368.85595,24.835844)"><path
       fill="#ffffff"
       d="m 324.07726,99.037 c -0.002,-0.029 -0.003,-0.058 -0.006,-0.087 l 0.013,-0.007 c -0.002,0.031 -0.004,0.061 -0.007,0.094 3.678,52.35 3.089,95.054 3.02,99.266 4.61,0.065 9.066,0.276 13.297,0.615 0.835,-15.102 11.881,-37.872 11.881,-37.872 13.109,-25.011 11.957,-38.121 11.957,-38.121 -0.634,-27.944 -25.757,-42.606 -25.757,-42.606 -7.485,-5.419 -14.366,-12.663 -14.4,-12.697 -0.102,0.107 -6.946,7.298 -14.394,12.69 0,0 -25.123,14.661 -25.757,42.605 0,0 -1.152,13.11 11.957,38.121 0,0 11.046,22.768 11.881,37.87 4.231,-0.337 8.688,-0.545 13.298,-0.608 -0.07,-4.184 -0.661,-46.897 3.017,-99.263 z"
       id="path22-6" /></g></g></svg>
