<?xml version="1.0" encoding="UTF-8" standalone="no"?>
<!-- Created with Inkscape (http://www.inkscape.org/) -->

<svg
   width="110.62177mm"
   height="109.88823mm"
   viewBox="0 0 110.62177 109.88823"
   version="1.1"
   id="svg5"
   inkscape:version="1.2-dev (85311d94fe, 2021-11-04, custom)"
   sodipodi:docname="wspolnocie.svg"
   xmlns:inkscape="http://www.inkscape.org/namespaces/inkscape"
   xmlns:sodipodi="http://sodipodi.sourceforge.net/DTD/sodipodi-0.dtd"
   xmlns="http://www.w3.org/2000/svg"
   xmlns:svg="http://www.w3.org/2000/svg">
  <sodipodi:namedview
     id="namedview7"
     pagecolor="#505050"
     bordercolor="#eeeeee"
     borderopacity="1"
     inkscape:pageshadow="0"
     inkscape:pageopacity="0"
     inkscape:pagecheckerboard="0"
     inkscape:blackoutopacity="0.0"
     inkscape:document-units="mm"
     showgrid="false"
     inkscape:zoom="0.66903055"
     inkscape:cx="-303.42411"
     inkscape:cy="422.25277"
     inkscape:window-width="1894"
     inkscape:window-height="1024"
     inkscape:window-x="0"
     inkscape:window-y="0"
     inkscape:window-maximized="1"
     inkscape:current-layer="layer2"
     showguides="true"
     fit-margin-top="5"
     lock-margins="true"
     fit-margin-left="5"
     fit-margin-right="5"
     fit-margin-bottom="5" />
  <defs
     id="defs2" />
  <g
     inkscape:groupmode="layer"
     id="layer2"
     inkscape:label="Warstwa 2"
     style="display:inline;opacity:1"
     transform="translate(-19.483511,-30.538298)">
    <path
       style="fill:#b6b5ba;fill-opacity:1;stroke:#000000;stroke-width:0.264583px;stroke-linecap:butt;stroke-linejoin:miter;stroke-opacity:1"
       d="M 74.287403,35.711905 C 41.078804,36.504635 24.716477,63.122927 24.61582,85.414346 26.507694,117.42051 48.843713,134.41859 74.082859,135.29375 102.22001,135.41045 124.23241,114.42544 124.97296,84.932619 124.56902,59.251588 102.97186,34.521573 74.287403,35.711905 Z"
       id="path613"
       sodipodi:nodetypes="ccccc" />
  </g>
  <g
     inkscape:groupmode="layer"
     id="layer5"
     inkscape:label="Warstwa 3"
     style="display:inline"
     transform="translate(-19.483511,-30.538298)">
    <path
       style="display:inline;fill:#447546;fill-opacity:1;stroke:#000000;stroke-width:0.265195px;stroke-linecap:butt;stroke-linejoin:miter;stroke-opacity:1"
       d="M 27.612716,86.794197 C 25.715754,69.575542 40.466577,38.76136 74.968961,37.877941 105.04872,38.617613 122.2127,64.070827 121.84676,85.025926 122.18866,107.9583 104.86624,130.67406 74.126243,132.71468 50.383572,131.818 28.863295,115.01752 27.612716,86.794197 Z"
       id="path14023"
       sodipodi:nodetypes="ccccc" />
  </g>
  <g
     inkscape:groupmode="layer"
     id="layer4"
     inkscape:label="Warstwa 4"
     style="display:inline"
     transform="translate(-19.483511,-30.538298)">
    <path
       style="display:inline;fill:#dcdcd4;fill-opacity:1;stroke:#000000;stroke-width:0.189451px;stroke-linecap:butt;stroke-linejoin:miter;stroke-opacity:1"
       d="m 76.007874,84.95471 c -1.886764,-0.949496 -3.142063,-2.663657 -4.217085,-4.5962 l 0.03341,-2.690009 c 1.821357,-1.831045 2.091153,-4.178103 2.038506,-6.632393 1.396356,0.594223 2.788965,0.809314 4.172668,0.123525 -3.11e-4,2.528295 0.905855,4.637335 1.915339,6.854042 l -0.05334,2.44618 c -0.778508,1.729723 -1.863677,3.175066 -3.88957,4.49486 z"
       id="path59738-3"
       sodipodi:nodetypes="cccccccc" />
    <path
       style="display:inline;fill:#dcdcd4;fill-opacity:1;stroke:#000000;stroke-width:0.189451px;stroke-linecap:butt;stroke-linejoin:miter;stroke-opacity:1"
       d="m 71.594399,69.316062 c -0.359571,3.824053 -1.435097,4.824198 -3.757267,4.730783 -2.098776,-0.106401 -2.826622,-1.331623 -3.892807,-2.609414 -0.492211,1.787889 -1.839966,4.687573 -0.324216,6.162334 1.426595,1.47763 2.866944,1.780505 4.308215,2.004474 2.105362,0.07196 3.051973,-0.928214 3.879433,-2.038701 2.25102,-2.255266 2.004403,-4.401133 2.097494,-6.480316 -1.029275,-0.498778 -1.606064,-1.156447 -2.310852,-1.76916 z"
       id="path61451-6"
       sodipodi:nodetypes="cccccccc" />
    <path
       style="display:inline;fill:#dcdcd4;fill-opacity:1;stroke:#000000;stroke-width:0.189451px;stroke-linecap:butt;stroke-linejoin:miter;stroke-opacity:1"
       d="m 78.035854,71.241179 2.040876,-1.245685 c 0.890007,2.199393 1.753817,4.432661 4.25651,4.546615 2.13993,-0.04282 2.342532,-1.532589 3.511016,-2.844495 1.101124,5.988371 -0.823775,7.256919 -4.013344,7.963693 -1.40208,0.102568 -2.653673,-0.667718 -3.817845,-1.945005 -1.265188,-1.957628 -1.874923,-4.132335 -1.977213,-6.475123 z"
       id="path63689-7"
       sodipodi:nodetypes="ccccccc" />
    <path
       style="display:inline;fill:#dcdcd4;fill-opacity:1;stroke:#000000;stroke-width:0.189451px;stroke-linecap:butt;stroke-linejoin:miter;stroke-opacity:1"
       d="m 71.731159,67.480253 c -0.704168,-4.502743 -3.441549,-5.785765 -6.649973,-6.322831 -2.904735,-0.227791 -3.409773,3.220166 -5.18843,4.307885 -2.571087,-1.918671 -5.480338,-4.470939 -5.989966,-8.4258 -0.075,-3.26879 3.632503,-5.974186 6.498072,-5.950012 4.200646,-0.233127 11.926869,3.999821 13.506152,14.49695 -0.91638,0.141113 -1.68894,0.665615 -2.175855,1.893808 z"
       id="path66152-3"
       sodipodi:nodetypes="ccccccc" />
    <path
       style="display:inline;fill:#dcdcd4;fill-opacity:1;stroke:#000000;stroke-width:0.189451px;stroke-linecap:butt;stroke-linejoin:miter;stroke-opacity:1"
       d="m 73.930352,65.553478 c -0.667513,-3.68438 -2.126092,-7.10008 -4.350944,-10.255514 -0.899651,-1.551362 -1.541006,-3.003388 -1.356005,-4.137619 0.586674,-3.751108 2.052336,-7.470255 7.590821,-11.041327 2.189801,0.364407 7.104134,5.310522 7.720538,8.626351 0.572314,1.987522 0.126101,3.728578 0.05892,5.561336 -2.314691,2.251234 -4.532033,4.842996 -5.660204,11.244383 -1.705008,-0.421506 -2.850809,-0.205873 -4.003083,0.0023 z"
       id="path68489-5"
       sodipodi:nodetypes="cccccccc" />
    <path
       style="display:inline;fill:#dcdcd4;fill-opacity:1;stroke:#000000;stroke-width:0.189451px;stroke-linecap:butt;stroke-linejoin:miter;stroke-opacity:1"
       d="m 77.968165,65.564602 c 1.081644,-6.45686 3.352246,-8.887763 5.643879,-11.247419 2.00245,-1.603989 4.051946,-3.167566 7.812137,-3.261861 3.653182,0.421023 6.192735,1.928015 6.762241,5.356196 -0.176049,3.324148 -3.352595,6.930256 -6.953058,9.417401 -1.796937,-1.392278 -1.395335,-4.732253 -4.849096,-4.543987 -4.528496,0.829964 -5.150496,3.152962 -6.129399,5.590291 -0.737697,-0.531521 -1.435317,-1.217571 -2.286704,-1.310621 z"
       id="path71037-6"
       sodipodi:nodetypes="cccccccc" />
    <path
       style="display:inline;fill:#dcdcd4;fill-opacity:1;stroke:#000000;stroke-width:0.206835px;stroke-linecap:butt;stroke-linejoin:miter;stroke-opacity:1"
       d="m 80.410827,70.123159 c -3.286885,2.372683 -6.227361,2.281889 -9.292759,-0.677528 -0.22524,-0.494811 -0.44948,-1.219316 -0.06793,-2.128543 0.562751,-1.411791 2.269571,-2.213663 4.527075,-2.231016 3.259082,-0.09345 4.928009,1.058606 5.496779,3.208911 0.01517,0.666792 -0.08066,1.297453 -0.66317,1.828176 z"
       id="path64488-5"
       sodipodi:nodetypes="cccccc" />
    <path
       style="fill:#e8e8e6;fill-opacity:1;stroke:#000000;stroke-width:0.264583px;stroke-linecap:butt;stroke-linejoin:miter;stroke-opacity:1"
       d="m 60.275554,93.415271 c 4.634838,1.905519 8.645777,4.363104 15.786518,4.449068 4.415058,-0.195614 8.37963,-1.756908 12.376094,-3.221519 2.811128,-0.821206 3.048458,0.37822 2.528959,2.171816 -3.307497,2.674732 -7.982407,4.689424 -9.760045,7.722244 -1.016064,5.63348 0.765696,12.19779 1.604483,18.44838 l 0.0027,3.4768 c -1.04126,2.80543 -3.227742,1.83722 -3.653874,-0.0763 l -2.916997,-13.50168 -4.643716,12.53308 c -0.815942,2.03656 -4.308349,1.73393 -4.060492,-0.96229 l 4.21087,-16.91281 c -0.238099,-1.63385 -1.191409,-3.35006 -3.10503,-4.44342 l -9.653357,-6.921355 c -1.820761,-1.41128 -1.991371,-3.743546 1.283887,-2.762014 z"
       id="path44264"
       sodipodi:nodetypes="ccccccccccccccc" />
    <circle
       style="fill:#010101;fill-opacity:1;stroke-width:0.762;stroke-linecap:round;stroke-dashoffset:6.93921"
       id="path76890"
       cx="75.283974"
       cy="92.08094"
       r="4.2263255" />
    <path
       style="fill:#e8e8e6;fill-opacity:1;stroke:#000000;stroke-width:0.264583px;stroke-linecap:butt;stroke-linejoin:miter;stroke-opacity:1"
       d="m 49.395493,112.95248 c -1.920824,-1.30412 -2.949193,-2.5992 -4.054393,-3.89505 l 0.191844,-5.61563 2.953986,1.16991 -0.219152,4.44859 c 0.64496,0.83618 0.942293,1.52572 2.025352,2.56599 0.38174,0.68737 0.289868,1.75486 -0.897637,1.32619 z"
       id="path82772"
       sodipodi:nodetypes="ccccccc" />
    <path
       style="fill:#e8e8e6;fill-opacity:1;stroke:#000000;stroke-width:0.264583px;stroke-linecap:butt;stroke-linejoin:miter;stroke-opacity:1"
       d="m 43.663047,102.66862 11.410971,4.14146 c 1.30431,0.32061 1.756207,-0.64357 0.873979,-2.61364 l -6.743507,-16.005059 4.534615,4.401952 c 2.472261,1.908855 3.811326,0.441262 3.046761,-1.421423 l -7.0432,-6.284503 -3.7427,0.01487 c -0.351919,3.543545 -0.399968,7.159855 -1.907268,10.426732 -0.676979,2.518392 -2.538346,5.196231 -0.429651,7.339611 z"
       id="path89249"
       sodipodi:nodetypes="cccccccccc" />
    <path
       style="fill:#e8e8e6;fill-opacity:1;stroke:#000000;stroke-width:0.264583px;stroke-linecap:butt;stroke-linejoin:miter;stroke-opacity:1"
       d="m 46.97822,76.789292 4.462005,7.988628 -6.522403,-0.045 c -1.046564,-0.09041 -1.95605,-0.246356 -2.412036,-0.619082 -0.702122,-0.70911 -0.685168,-1.382159 0.560575,-1.993586 0.836786,-2.009099 2.456785,-3.629058 3.911859,-5.33096 z"
       id="path93691"
       sodipodi:nodetypes="cccccc" />
    <path
       style="fill:#000000;fill-opacity:1;stroke:#000000;stroke-width:0.264583px;stroke-linecap:butt;stroke-linejoin:miter;stroke-opacity:1"
       d="m 47.983266,78.611258 2.99733,5.161613 c 0.725791,-1.069097 0.767039,-2.474278 0.653407,-3.955499 -0.301656,-0.831712 -0.287106,-1.444556 -2.306987,-2.024818 -1.054277,-0.03423 -1.141857,0.36498 -1.34375,0.818704 z"
       id="path102286"
       sodipodi:nodetypes="ccccc" />
    <path
       style="display:inline;fill:#e8e8e6;fill-opacity:1;stroke:#000000;stroke-width:0.264583px;stroke-linecap:butt;stroke-linejoin:miter;stroke-opacity:1"
       d="m 94.438384,109.04835 c 4.164287,-1.51781 8.285496,-3.15895 12.202706,-5.38412 l -0.9102,-18.672622 -4.86581,-1.747895 c -1.099467,4.017633 -4.88324,7.047051 -8.586408,10.106144 -0.762785,1.371743 -0.08803,1.860616 0.701424,2.279049 3.600325,-1.190206 6.395855,-5.27062 9.398234,-8.60819 -2.394315,4.714553 -4.910214,9.427361 -5.27516,14.171054 l -3.993563,6.52705 c -0.134504,0.92179 0.411089,1.27987 1.328777,1.32953 z"
       id="path120271"
       sodipodi:nodetypes="cccccccccc" />
    <path
       style="fill:#e8e8e6;fill-opacity:1;stroke:#000000;stroke-width:0.264583px;stroke-linecap:butt;stroke-linejoin:miter;stroke-opacity:1"
       d="m 48.95787,77.693691 2.626828,-3.136887 c 0.882746,-1.296825 1.724049,-0.983303 2.559375,-0.437554 0.378666,0.830618 0.04223,1.486834 -0.463841,2.10168 l -2.375654,2.606823 C 50.634173,78.051476 49.823662,77.774151 48.95787,77.693691 Z"
       id="path109404"
       sodipodi:nodetypes="cccccc" />
    <path
       style="fill:#e8e8e6;fill-opacity:1;stroke:#000000;stroke-width:0.264583px;stroke-linecap:butt;stroke-linejoin:miter;stroke-opacity:1"
       d="m 95.606035,119.99909 5.712105,-4.80334 c 1.01664,-0.84418 1.65935,-2.18311 1.48539,-4.60261 l 0.13804,-6.29467 c -1.91514,-0.51887 -2.85137,0.30762 -3.628169,1.35322 0.624243,1.74393 0.573973,3.90631 0.271928,6.22489 l -4.202131,5.77668 c -0.274758,0.57306 -0.526049,1.16016 0.222837,2.34583 z"
       id="path114925"
       sodipodi:nodetypes="cccccccc" />
    <path
       style="fill:#e8e8e6;fill-opacity:1;stroke:#000000;stroke-width:0.264583px;stroke-linecap:butt;stroke-linejoin:miter;stroke-opacity:1"
       d="m 99.180569,81.780011 c 0.837631,1.605325 4.393601,2.413767 7.272121,3.420801 2.6062,0.444598 3.65494,-0.416216 3.6783,-2.136479 l 0.0625,-4.314478 c -0.50217,-3.722939 -3.51003,-5.666557 -5.40536,-6.087584 0.6995,3.697188 -2.22474,6.466196 -5.607581,9.11774 z"
       id="path137735"
       sodipodi:nodetypes="cccccc" />
    <path
       style="fill:#000000;fill-opacity:1;stroke:#000000;stroke-width:0.264583px;stroke-linecap:butt;stroke-linejoin:miter;stroke-opacity:1"
       d="m 100.99901,80.243692 c -0.62232,-1.944605 -1.263405,-3.891156 0.0937,-5.630513 0.55811,-0.590999 1.25435,-1.200257 3.66043,-2.035535 0.45951,3.217367 -1.33932,5.56088 -3.75413,7.666048 z"
       id="path143883"
       sodipodi:nodetypes="cccc" />
    <path
       style="fill:#e8e8e6;fill-opacity:1;stroke:#000000;stroke-width:0.264583px;stroke-linecap:butt;stroke-linejoin:miter;stroke-opacity:1"
       d="m 100.69391,75.124997 -3.566883,-5.206029 c -0.396624,-1.763197 0.495853,-2.216539 2.304672,-1.738786 l 3.473131,5.025091 z"
       id="path150478"
       sodipodi:nodetypes="ccccc" />
  </g>
</svg>
