<?xml version="1.0" encoding="UTF-8" standalone="no"?>
<svg
   width="210mm"
   height="148mm"
   viewBox="0 0 210 148"
   version="1.1"
   id="svg184242"
   inkscape:version="1.1-dev (0df1fa2914, 2020-11-14, custom)"
   sodipodi:docname="zarowka.svg"
   xmlns:inkscape="http://www.inkscape.org/namespaces/inkscape"
   xmlns:sodipodi="http://sodipodi.sourceforge.net/DTD/sodipodi-0.dtd"
   xmlns:xlink="http://www.w3.org/1999/xlink"
   xmlns="http://www.w3.org/2000/svg"
   xmlns:svg="http://www.w3.org/2000/svg">
  <defs
     id="defs184238">
    <linearGradient
       id="linearGradient246187"
       inkscape:swatch="solid">
      <stop
         style="stop-color:#005500;stop-opacity:1;"
         offset="0"
         id="stop246185" />
    </linearGradient>
    <linearGradient
       inkscape:collect="always"
       id="linearGradient199130">
      <stop
         style="stop-color:#ffd42a;stop-opacity:1"
         offset="0"
         id="stop199126" />
      <stop
         style="stop-color:#5e5621;stop-opacity:1"
         offset="1"
         id="stop199128" />
    </linearGradient>
    <linearGradient
       inkscape:collect="always"
       id="linearGradient198816">
      <stop
         style="stop-color:#ffff00;stop-opacity:1"
         offset="0"
         id="stop198812" />
      <stop
         style="stop-color:#6f99d7;stop-opacity:1"
         offset="1"
         id="stop198814" />
    </linearGradient>
    <radialGradient
       inkscape:collect="always"
       xlink:href="#linearGradient198816"
       id="radialGradient198818"
       cx="122.15909"
       cy="144.16077"
       fx="122.15909"
       fy="144.16077"
       r="36.410637"
       gradientTransform="matrix(1.0003393,0,0,1.1650665,-13.878485,-108.15862)"
       gradientUnits="userSpaceOnUse" />
    <linearGradient
       inkscape:collect="always"
       xlink:href="#linearGradient199130"
       id="linearGradient198906"
       x1="106.75356"
       y1="206.57494"
       x2="138.97758"
       y2="206.57494"
       gradientUnits="userSpaceOnUse"
       gradientTransform="matrix(1.0003393,0,0,0.85245273,-13.878485,-63.091985)" />
  </defs>
  <sodipodi:namedview
     id="base"
     pagecolor="#ffffff"
     bordercolor="#666666"
     borderopacity="1.0"
     inkscape:pageopacity="0.0"
     inkscape:pageshadow="2"
     inkscape:zoom="1.2347852"
     inkscape:cx="381.44286"
     inkscape:cy="298.8374"
     inkscape:document-units="mm"
     inkscape:current-layer="layer839"
     showgrid="false"
     inkscape:window-width="1920"
     inkscape:window-height="1044"
     inkscape:window-x="0"
     inkscape:window-y="36"
     inkscape:window-maximized="1"
     units="mm" />
  <g
     inkscape:groupmode="layer"
     id="layer843"
     inkscape:label="Layer 3"
     style="display:inline">
    <rect
       style="fill:#000000;fill-opacity:1;fill-rule:evenodd;stroke:#5e5621;stroke-width:0.337057;stroke-linecap:round;stroke-linejoin:round;stroke-miterlimit:4;stroke-dasharray:none;stroke-opacity:1"
       id="rect246005"
       width="211.16852"
       height="149.36961"
       x="-0.37189201"
       y="-0.08208093" />
  </g>
  <g
     inkscape:groupmode="layer"
     id="layer838"
     inkscape:label="Warstwa 2"
     style="display:inline">
    <path
       style="font-variation-settings:normal;opacity:1;vector-effect:none;fill:url(#radialGradient198818);fill-opacity:1;stroke:#000000;stroke-width:0.337056;stroke-linecap:butt;stroke-linejoin:miter;stroke-miterlimit:4;stroke-dasharray:none;stroke-dashoffset:0;stroke-opacity:1;stop-color:#000000;stop-opacity:1"
       d="m 83.885108,72.364073 c 0,0 -19.618661,-17.872848 -8.37616,-36.505171 11.242499,-18.632324 31.879492,-20.732612 43.748602,-16.56857 11.86913,4.164044 19.8348,9.219217 24.17445,21.919058 4.33966,12.699832 -4.68889,24.975918 -4.68889,24.975918 0,0 -8.7261,7.627619 -9.79123,20.436259 -1.06514,12.808639 -1.76784,12.041755 -4.21576,14.342503 -2.44793,2.30074 -30.740536,0.41414 -30.740536,0.41414 0,0 -3.307852,0.33409 -4.362079,-5.789787 -1.054228,-6.123867 0.159534,-18.101254 -5.748397,-23.22435 z"
       id="path186014" />
  </g>
  <g
     inkscape:groupmode="layer"
     id="layer839"
     inkscape:label="Warstwa 3"
     style="display:inline">
    <path
       style="font-variation-settings:normal;opacity:1;vector-effect:none;fill:url(#linearGradient198906);fill-opacity:1;stroke:#000000;stroke-width:0.244327px;stroke-linecap:butt;stroke-linejoin:miter;stroke-miterlimit:4;stroke-dasharray:none;stroke-dashoffset:0;stroke-opacity:1;stop-color:#000000;stop-opacity:1"
       d="m 93.319875,101.38409 -0.129454,3.9429 c 0,0 -0.588119,0.97003 0.753486,1.7193 1.341605,0.74927 0.0127,2.04172 -0.354561,1.87934 -0.367314,-0.1624 -1.026678,1.36993 0.109808,1.55802 1.136485,0.1881 0.836353,2.12363 -0.244513,2.43035 -1.080867,0.30671 0.256387,1.58463 0.755696,1.77426 0.499309,0.18963 0.398125,1.96725 -0.687493,2.06921 -1.085608,0.10196 0.05862,1.41276 0.615278,1.51703 0.556639,0.10427 0.722285,1.68961 0.04362,2.03829 -0.67867,0.34868 -0.957835,1.3381 0.224036,1.42273 1.181871,0.0847 0.716353,3.00695 4.903904,3.31987 4.187548,0.31291 20.009588,-0.087 20.009588,-0.087 0,0 1.93125,0.0634 2.56046,-1.28044 0.62922,-1.34391 1.63283,-3.27021 1.63283,-3.27021 0,0 1.49461,-0.6563 1.37558,-1.32873 -0.11903,-0.67243 -0.2663,-0.61583 -1.17393,-1.11441 -0.90764,-0.49857 -0.0402,-1.65186 0.31893,-1.79396 0.35917,-0.14209 2.07855,-1.38601 -0.10425,-1.82951 -2.18282,-0.4435 -0.032,-2.00792 -0.032,-2.00792 0,0 2.08446,-0.92046 0.39442,-1.76988 -1.69003,-0.84943 0.0584,-2.44636 0.0584,-2.44636 0,0 1.2888,-0.8688 0.18552,-1.44262 -1.10327,-0.57382 -0.54607,-0.86543 -0.0675,-1.61431 0.47856,-0.74888 -0.0395,-4.23647 -0.0395,-4.23647 z"
       id="path198437" />
  </g>
  <g
     inkscape:groupmode="layer"
     id="layer840"
     inkscape:label="Warstwa 4"
     style="display:none">
    <path
       style="font-variation-settings:normal;opacity:1;vector-effect:none;fill:none;fill-opacity:1;stroke:#000000;stroke-width:0.637433px;stroke-linecap:butt;stroke-linejoin:miter;stroke-miterlimit:4;stroke-dasharray:none;stroke-dashoffset:0;stroke-opacity:1;stop-color:#000000;stop-opacity:1"
       d="m 122.35517,192.46879 -17.17254,-49.22946 h 39.19813 z"
       id="path198473" />
  </g>
  <g
     inkscape:groupmode="layer"
     id="layer841"
     inkscape:label="Layer 1"
     style="display:inline">
    <path
       style="font-variation-settings:normal;opacity:1;vector-effect:none;fill:none;fill-opacity:1;stroke:#000000;stroke-width:0.244327px;stroke-linecap:butt;stroke-linejoin:miter;stroke-miterlimit:4;stroke-dasharray:none;stroke-dashoffset:0;stroke-opacity:1;stop-color:#000000;stop-opacity:1"
       d="M 124.79762,106.92687 93.435774,108.8904"
       id="path241169"
       sodipodi:nodetypes="cc" />
    <path
       style="font-variation-settings:normal;opacity:1;vector-effect:none;fill:none;fill-opacity:1;stroke:#000000;stroke-width:0.244327px;stroke-linecap:butt;stroke-linejoin:miter;stroke-miterlimit:4;stroke-dasharray:none;stroke-dashoffset:0;stroke-opacity:1;stop-color:#000000;stop-opacity:1"
       d="m 93.614595,112.84632 30.933455,-2.13468"
       id="path241171"
       sodipodi:nodetypes="cc" />
    <path
       style="font-variation-settings:normal;opacity:1;vector-effect:none;fill:none;fill-opacity:1;stroke:#000000;stroke-width:0.244327px;stroke-linecap:butt;stroke-linejoin:miter;stroke-miterlimit:4;stroke-dasharray:none;stroke-dashoffset:0;stroke-opacity:1;stop-color:#000000;stop-opacity:1"
       d="m 93.051554,116.9533 30.702636,-2.59235"
       id="path241173"
       sodipodi:nodetypes="cc" />
    <path
       style="font-variation-settings:normal;opacity:1;vector-effect:none;fill:none;fill-opacity:1;stroke:#000000;stroke-width:0.244327px;stroke-linecap:butt;stroke-linejoin:miter;stroke-miterlimit:4;stroke-dasharray:none;stroke-dashoffset:0;stroke-opacity:1;stop-color:#000000;stop-opacity:1"
       d="m 94.237816,120.35173 30.241944,-1.91052"
       id="path241175" />
  </g>
  <g
     inkscape:groupmode="layer"
     id="layer842"
     inkscape:label="Layer 2">
    <path
       style="font-variation-settings:normal;opacity:1;vector-effect:none;fill:#2d3130;fill-opacity:1;stroke:#000000;stroke-width:0.244327px;stroke-linecap:butt;stroke-linejoin:miter;stroke-miterlimit:4;stroke-dasharray:none;stroke-dashoffset:0;stroke-opacity:1;stop-color:#000000;stop-opacity:1"
       d="m 99.300033,125.29113 3.935377,4.04977 11.7819,0.21005 4.30195,-4.58259 -20.319899,0.049 z"
       id="path241725" />
  </g>
</svg>
