<?xml version="1.0" encoding="UTF-8" standalone="no"?>
<!-- Created with Inkscape (http://www.inkscape.org/) -->

<svg
   width="110.62177mm"
   height="109.88823mm"
   viewBox="0 0 110.62177 109.88823"
   version="1.1"
   id="svg5"
   inkscape:version="1.2-dev (85311d94fe, 2021-11-04, custom)"
   sodipodi:docname="zdrowiu.svg"
   xmlns:inkscape="http://www.inkscape.org/namespaces/inkscape"
   xmlns:sodipodi="http://sodipodi.sourceforge.net/DTD/sodipodi-0.dtd"
   xmlns="http://www.w3.org/2000/svg"
   xmlns:svg="http://www.w3.org/2000/svg">
  <sodipodi:namedview
     id="namedview7"
     pagecolor="#505050"
     bordercolor="#eeeeee"
     borderopacity="1"
     inkscape:pageshadow="0"
     inkscape:pageopacity="0"
     inkscape:pagecheckerboard="0"
     inkscape:blackoutopacity="0.0"
     inkscape:document-units="mm"
     showgrid="false"
     inkscape:zoom="0.47307604"
     inkscape:cx="-518.94406"
     inkscape:cy="491.46433"
     inkscape:window-width="1894"
     inkscape:window-height="1024"
     inkscape:window-x="0"
     inkscape:window-y="0"
     inkscape:window-maximized="1"
     inkscape:current-layer="layer2"
     showguides="true"
     fit-margin-top="5"
     lock-margins="true"
     fit-margin-left="5"
     fit-margin-right="5"
     fit-margin-bottom="5" />
  <defs
     id="defs2" />
  <g
     inkscape:groupmode="layer"
     id="layer2"
     inkscape:label="Warstwa 2"
     style="display:inline;opacity:1"
     transform="translate(-19.483511,-30.538298)">
    <path
       style="fill:#b6b5ba;fill-opacity:1;stroke:#000000;stroke-width:0.264583px;stroke-linecap:butt;stroke-linejoin:miter;stroke-opacity:1"
       d="M 74.287403,35.711905 C 41.078804,36.504635 24.716477,63.122927 24.61582,85.414346 26.507694,117.42051 48.843713,134.41859 74.082859,135.29375 102.22001,135.41045 124.23241,114.42544 124.97296,84.932619 124.56902,59.251588 102.97186,34.521573 74.287403,35.711905 Z"
       id="path613"
       sodipodi:nodetypes="ccccc" />
  </g>
  <g
     inkscape:groupmode="layer"
     id="layer5"
     inkscape:label="Warstwa 3"
     style="display:inline"
     transform="translate(-19.483511,-30.538298)">
    <path
       style="display:inline;fill:#447546;fill-opacity:1;stroke:#000000;stroke-width:0.265195px;stroke-linecap:butt;stroke-linejoin:miter;stroke-opacity:1"
       d="M 27.612716,86.794197 C 25.715754,69.575542 40.466577,38.76136 74.968961,37.877941 105.04872,38.617613 122.2127,64.070827 121.84676,85.025926 122.18866,107.9583 104.86624,130.67406 74.126243,132.71468 50.383572,131.818 28.863295,115.01752 27.612716,86.794197 Z"
       id="path14023"
       sodipodi:nodetypes="ccccc" />
  </g>
  <g
     inkscape:groupmode="layer"
     id="layer3"
     inkscape:label="Warstwa 5"
     transform="translate(-19.483511,-30.538298)">
    <path
       style="fill:#254c87;fill-opacity:1;stroke:#000000;stroke-width:0.264583px;stroke-linecap:butt;stroke-linejoin:miter;stroke-opacity:1"
       d="m 54.063103,86.650615 h 14.782763 v 11.509538 h 9.887399 V 113.09749 H 68.582611 v 12.51559 H 54.052178 V 113.35309 H 41.673674 V 98.392823 h 12.485007 z"
       id="path158679" />
  </g>
  <g
     inkscape:groupmode="layer"
     id="layer4"
     inkscape:label="Warstwa 4"
     style="display:inline"
     transform="translate(-19.483511,-30.538298)">
    <path
       style="display:inline;fill:#dcdcd4;fill-opacity:1;stroke:#000000;stroke-width:0.313956px;stroke-linecap:butt;stroke-linejoin:miter;stroke-opacity:1"
       d="m 84.90663,120.73906 c -2.978566,-1.65177 -4.960261,-4.63376 -6.657358,-7.99564 l 0.05275,-4.67959 c 2.875312,-3.18532 3.301229,-7.26829 3.218117,-11.537814 2.204377,1.033721 4.402838,1.407898 6.58724,0.214885 -4.92e-4,4.398269 1.43004,8.067179 3.023677,11.923419 l -0.08421,4.25541 c -1.229003,3.00905 -2.94212,5.52339 -6.140323,7.81934 z"
       id="path59738-3"
       sodipodi:nodetypes="cccccccc" />
    <path
       style="display:inline;fill:#dcdcd4;fill-opacity:1;stroke:#000000;stroke-width:0.313956px;stroke-linecap:butt;stroke-linejoin:miter;stroke-opacity:1"
       d="m 77.939237,93.533794 c -0.567642,6.652386 -2.265536,8.392256 -5.931461,8.229746 -3.313263,-0.18509 -4.462287,-2.316506 -6.145434,-4.539375 -0.777035,3.110235 -2.904688,8.154565 -0.511828,10.720095 2.252114,2.57051 4.52594,3.0974 6.801223,3.48701 3.323659,0.1252 4.818039,-1.61472 6.124321,-3.54655 3.553603,-3.9233 3.164278,-7.6563 3.311237,-11.273264 -1.624878,-0.867683 -2.535434,-2.011776 -3.648058,-3.077662 z"
       id="path61451-6"
       sodipodi:nodetypes="cccccccc" />
    <path
       style="display:inline;fill:#dcdcd4;fill-opacity:1;stroke:#000000;stroke-width:0.313956px;stroke-linecap:butt;stroke-linejoin:miter;stroke-opacity:1"
       d="m 88.108129,96.882762 3.221857,-2.167016 c 1.405025,3.826102 2.768687,7.711134 6.719599,7.909364 3.378225,-0.0745 3.698065,-2.666106 5.542715,-4.948327 1.7383,10.417467 -1.30046,12.624257 -6.335725,13.853777 -2.213406,0.17842 -4.189253,-1.16158 -6.027091,-3.38358 -1.997308,-3.40552 -2.959874,-7.18866 -3.121355,-11.264218 z"
       id="path63689-7"
       sodipodi:nodetypes="ccccccc" />
    <path
       style="display:inline;fill:#dcdcd4;fill-opacity:1;stroke:#000000;stroke-width:0.313956px;stroke-linecap:butt;stroke-linejoin:miter;stroke-opacity:1"
       d="M 78.155136,90.340189 C 77.043491,82.507137 72.722087,80.27517 67.657062,79.340881 c -4.585599,-0.39627 -5.382884,5.601856 -8.190786,7.494071 -4.058881,-3.337752 -8.651612,-7.777723 -9.456143,-14.657669 -0.1184,-5.686445 5.734502,-10.392799 10.258272,-10.350745 6.631408,-0.405553 18.828516,6.958159 21.321674,25.219149 -1.446656,0.245482 -2.666268,1.157915 -3.434943,3.294502 z"
       id="path66152-3"
       sodipodi:nodetypes="ccccccc" />
    <path
       style="display:inline;fill:#dcdcd4;fill-opacity:1;stroke:#000000;stroke-width:0.313956px;stroke-linecap:butt;stroke-linejoin:miter;stroke-opacity:1"
       d="M 81.626922,86.988336 C 80.573143,80.578925 78.270537,74.636912 74.758244,69.147664 73.337996,66.448888 72.325513,63.922918 72.617567,61.94979 c 0.926161,-6.525493 3.239949,-12.995387 11.983355,-19.207687 3.456959,0.633929 11.215043,9.238279 12.18813,15.006552 0.903498,3.457529 0.199076,6.4863 0.09302,9.674598 -3.65412,3.916286 -7.154555,8.42496 -8.935557,19.560926 -2.691634,-0.733259 -4.500468,-0.358141 -6.319522,0.004 z"
       id="path68489-5"
       sodipodi:nodetypes="cccccccc" />
    <path
       style="display:inline;fill:#dcdcd4;fill-opacity:1;stroke:#000000;stroke-width:0.313956px;stroke-linecap:butt;stroke-linejoin:miter;stroke-opacity:1"
       d="m 88.001272,87.007687 c 1.707551,-11.232466 5.292064,-15.461308 8.909787,-19.566207 3.161201,-2.790327 6.396661,-5.510353 12.332741,-5.67439 5.76714,0.732419 9.77625,3.354008 10.67531,9.317732 -0.27792,5.782746 -5.29262,12.055996 -10.97654,16.382677 -2.83676,-2.422031 -2.20278,-8.232311 -7.6551,-7.9048 -7.14897,1.44382 -8.130907,5.484948 -9.676262,9.724967 -1.164575,-0.924641 -2.265884,-2.118107 -3.609936,-2.279979 z"
       id="path71037-6"
       sodipodi:nodetypes="cccccccc" />
    <path
       style="display:inline;fill:#dcdcd4;fill-opacity:1;stroke:#000000;stroke-width:0.342764px;stroke-linecap:butt;stroke-linejoin:miter;stroke-opacity:1"
       d="m 91.857418,94.937835 c -5.188891,4.12756 -9.830915,3.969613 -14.670148,-1.17864 -0.355578,-0.860782 -0.709577,-2.121144 -0.107238,-3.702851 0.888395,-2.455977 3.582889,-3.850927 7.146729,-3.881115 5.144995,-0.162568 7.779666,1.84157 8.677564,5.582278 0.02396,1.159963 -0.127335,2.257072 -1.046917,3.180328 z"
       id="path64488-5"
       sodipodi:nodetypes="cccccc" />
  </g>
</svg>
