<?xml version="1.0" encoding="UTF-8" standalone="no"?>
<svg
   width="2500"
   height="2500"
   viewBox="0 0 192.756 192.756"
   version="1.1"
   id="svg14"
   sodipodi:docname="zhp.svg"
   inkscape:version="1.1-dev (fdf98dce70, 2020-12-15, custom)"
   xmlns:inkscape="http://www.inkscape.org/namespaces/inkscape"
   xmlns:sodipodi="http://sodipodi.sourceforge.net/DTD/sodipodi-0.dtd"
   xmlns="http://www.w3.org/2000/svg"
   xmlns:svg="http://www.w3.org/2000/svg">
  <defs
     id="defs18" />
  <sodipodi:namedview
     id="namedview16"
     pagecolor="#ffffff"
     bordercolor="#666666"
     borderopacity="1.0"
     objecttolerance="10.0"
     gridtolerance="10.0"
     guidetolerance="10.0"
     inkscape:pageshadow="2"
     inkscape:pageopacity="0.0"
     inkscape:pagecheckerboard="false"
     showgrid="false"
     inkscape:zoom="0.26"
     inkscape:cx="1248.0769"
     inkscape:cy="1250"
     inkscape:window-width="1920"
     inkscape:window-height="1044"
     inkscape:window-x="0"
     inkscape:window-y="36"
     inkscape:window-maximized="1"
     inkscape:current-layer="svg14" />
  <g
     fill-rule="evenodd"
     clip-rule="evenodd"
     id="g12">
    <path
       fill="#ffffff"
       d="M 0,0 H 192.756 V 192.756 H 0 Z"
       id="path2"
       style="display:none" />
    <path
       d="m 93.244,183.42 -1.078,-0.488 -1.045,-0.561 -0.99,-0.561 -0.946,-0.572 -0.913,-0.572 -0.858,-0.582 -0.825,-0.584 -0.781,-0.594 -0.748,-0.604 -0.704,-0.617 -0.671,-0.627 -0.638,-0.637 -0.594,-0.66 -0.572,-0.672 -0.528,-0.682 -0.506,-0.703 -0.462,-0.727 -0.44,-0.736 -0.407,-0.76 -0.385,-0.781 -0.352,-0.803 -0.33,-0.824 -0.308,-0.857 -0.275,-0.881 -0.264,-0.902 -0.231,-0.934 -0.209,-0.969 -0.198,-0.99 -0.176,-1.021 -0.154,-1.057 -0.132,-1.09 -0.121,-1.121 -0.693,-0.1 -0.66,-0.109 -0.649,-0.143 -0.627,-0.143 -0.616,-0.176 -0.594,-0.188 -0.583,-0.209 -0.561,-0.221 -0.55,-0.242 -0.528,-0.252 -0.517,-0.275 -0.506,-0.297 -0.484,-0.297 -0.473,-0.33 -0.462,-0.33 -0.44,-0.352 -0.439,-0.375 -0.418,-0.373 -0.407,-0.396 -0.385,-0.406 -0.385,-0.43 -0.374,-0.428 -0.363,-0.451 -0.341,-0.463 -0.341,-0.473 -0.33,-0.484 -0.319,-0.494 -0.308,-0.506 -0.297,-0.518 -0.297,-0.539 -0.275,-0.539 -0.274,-0.549 -0.209,-1.111 -0.209,-1.111 -0.198,-1.078 -0.176,-1.066 -0.066,-0.518 -0.065,-0.516 -0.044,-0.518 -0.033,-0.494 -0.022,-0.506 -0.011,-0.484 0.011,-0.484 0.044,-0.473 0.044,-0.463 0.077,-0.449 0.11,-0.441 0.121,-0.439 0.153,-0.43 0.176,-0.406 0.22,-0.406 0.242,-0.396 0.275,-0.385 0.308,-0.363 0.341,-0.363 0.385,-0.34 0.429,-0.33 0.462,-0.32 0.506,-0.307 0.539,-0.297 1.012,0.033 0.902,0.064 0.803,0.121 0.715,0.166 0.627,0.209 0.55,0.242 0.473,0.273 0.396,0.32 0.341,0.352 0.286,0.373 0.242,0.408 0.187,0.439 0.154,0.451 0.121,0.484 0.099,0.494 0.077,0.518 0.121,1.066 0.109,1.121 0.077,0.562 0.088,0.57 0.11,0.572 0.143,0.572 0.176,0.572 0.22,0.561 0.264,0.561 0.319,0.551 0.385,0.527 0.44,0.527 0.517,0.506 0.594,0.484 0.583,-0.021 0.604,-0.043 0.627,-0.066 0.627,-0.1 0.649,-0.109 0.66,-0.133 0.671,-0.131 0.671,-0.145 0.671,-0.143 0.671,-0.131 0.67,-0.133 0.66,-0.121 0.66,-0.109 0.638,-0.088 0.638,-0.055 0.616,-0.033 0.605,-0.012 0.572,0.033 0.561,0.076 0.527,0.121 0.506,0.166 0.473,0.209 0.44,0.273 0.407,0.342 0.363,0.396 0.319,0.473 0.286,0.539 0.242,0.615 0.187,0.705 0.132,0.791 0.087,0.869 0.022,0.969 -0.462,0.867 -0.439,0.848 -0.407,0.814 -0.374,0.781 -0.341,0.758 -0.308,0.736 -0.275,0.715 -0.242,0.693 -0.198,0.672 -0.165,0.66 -0.132,0.637 -0.088,0.617 -0.043,0.604 v 0.594 l 0.033,0.572 0.088,0.572 0.121,0.551 0.176,0.549 0.22,0.551 0.264,0.527 0.319,0.539 0.363,0.527 0.418,0.518 0.473,0.527 0.517,0.529 0.583,0.527 0.627,0.527 0.693,0.539 0.737,0.539 0.803,0.551 0.869,0.561 0.924,0.572 0.384,-0.166 0.375,-0.176 0.363,-0.176 0.352,-0.197 0.352,-0.209 0.33,-0.221 0.33,-0.23 0.33,-0.232 0.307,-0.252 0.309,-0.264 0.297,-0.264 0.297,-0.275 0.275,-0.275 0.275,-0.297 0.275,-0.297 0.264,-0.297 0.252,-0.318 0.242,-0.309 0.242,-0.318 0.23,-0.33 0.23,-0.33 0.221,-0.33 0.221,-0.342 0.209,-0.34 0.406,-0.693 0.385,-0.693 0.363,-0.693 0.342,-0.703 -0.033,-0.648 -0.078,-0.66 -0.121,-0.682 -0.164,-0.693 -0.188,-0.705 -0.219,-0.715 -0.242,-0.715 -0.266,-0.725 -0.527,-1.441 -0.518,-1.418 -0.24,-0.705 -0.209,-0.682 -0.188,-0.67 -0.154,-0.66 -0.121,-0.639 -0.066,-0.605 -0.01,-0.594 0.033,-0.549 0.109,-0.539 0.176,-0.496 0.254,-0.461 0.34,-0.418 0.418,-0.385 0.518,-0.342 0.627,-0.297 0.727,-0.242 0.834,-0.197 0.957,-0.143 1.078,-0.088 1.221,-0.033 0.814,0.34 0.791,0.33 0.396,0.154 0.396,0.143 0.385,0.133 0.385,0.121 0.375,0.121 0.373,0.098 0.373,0.09 0.363,0.076 0.363,0.055 0.363,0.033 0.352,0.021 h 0.342 l 0.34,-0.01 0.342,-0.045 0.33,-0.066 0.318,-0.076 0.318,-0.121 0.32,-0.133 0.307,-0.164 0.299,-0.199 0.295,-0.219 0.287,-0.264 0.285,-0.287 0.275,-0.318 0.264,-0.352 0.266,-0.396 0.252,-0.418 0.242,-0.473 0.012,-0.672 0.021,-0.66 0.043,-0.658 0.055,-0.66 0.078,-0.639 0.1,-0.627 0.109,-0.615 0.131,-0.594 0.154,-0.572 0.176,-0.551 0.188,-0.527 0.221,-0.494 0.23,-0.473 0.254,-0.441 0.273,-0.395 0.309,-0.375 0.318,-0.318 0.354,-0.287 0.361,-0.242 0.396,-0.197 0.418,-0.154 0.439,-0.088 0.463,-0.043 0.494,0.01 0.518,0.066 0.549,0.133 0.572,0.197 0.594,0.252 0.627,0.332 0.66,0.395 0.682,0.473 0.705,0.539 0.406,1.002 0.33,1.012 0.264,0.99 0.199,0.988 0.131,0.98 0.066,0.967 v 0.969 l -0.045,0.934 -0.121,0.936 -0.164,0.914 -0.221,0.9 -0.273,0.881 -0.33,0.857 -0.385,0.836 -0.418,0.814 -0.475,0.791 -0.516,0.77 -0.561,0.748 -0.596,0.715 -0.637,0.682 -0.682,0.66 -0.705,0.617 -0.748,0.594 -0.779,0.561 -0.803,0.518 -0.836,0.482 -0.869,0.451 -0.881,0.408 -0.912,0.363 -0.936,0.328 -0.957,0.275 -0.979,0.242 -0.088,1.232 -0.109,1.176 -0.145,1.133 -0.154,1.078 -0.186,1.045 -0.209,0.99 -0.242,0.957 -0.264,0.912 -0.287,0.881 -0.318,0.848 -0.352,0.812 -0.375,0.77 -0.395,0.76 -0.43,0.727 -0.463,0.691 -0.494,0.682 -0.516,0.662 -0.551,0.637 -0.594,0.627 -0.617,0.605 -0.648,0.605 -0.67,0.582 -0.715,0.582 -0.76,0.584 -0.781,0.572 -0.812,0.572 -0.859,0.57 -0.891,0.572 -0.924,0.584 -0.957,0.582 -1,0.605 -1.035,0.605 c -1.609,0.686 -2.498,0.758 -3.38,0.758 -1.022,0.008 -1.731,-0.264 -3.487,-0.824 z m -66.729,-96.825 0.407,-1.133 0.539,-1.583 0.715,-2.112 0.924,-1.474 0.913,-1.408 0.902,-1.331 0.891,-1.276 0.901,-1.21 0.891,-1.155 0.891,-1.088 0.902,-1.023 0.902,-0.979 0.924,-0.913 0.924,-0.869 0.935,-0.803 0.968,-0.759 0.968,-0.715 1.001,-0.66 1.023,-0.616 1.056,-0.572 1.078,-0.528 1.111,-0.483 1.155,-0.451 1.177,-0.407 1.221,-0.374 1.265,-0.33 1.309,-0.297 1.363,-0.274 1.408,-0.231 1.452,-0.209 1.518,-0.187 1.562,-0.154 1.628,-0.121 1.693,-0.11 1.76,-0.088 -0.022,-1.914 -0.011,-1.848 0.011,-1.793 0.033,-1.738 0.055,-1.694 0.077,-1.628 0.099,-1.595 0.132,-1.551 0.154,-1.507 0.198,-1.474 0.22,-1.43 0.262,-1.396 0.308,-1.375 0.341,-1.342 0.385,-1.319 0.429,-1.309 0.484,-1.276 0.517,-1.265 0.583,-1.254 0.627,-1.243 0.693,-1.231 0.748,-1.232 0.803,-1.221 0.869,-1.232 0.924,-1.232 1.001,-1.232 1.067,-1.243 1.133,-1.265 1.21,-1.265 1.287,-1.298 1.353,-1.309 1.44,-1.331 1.21,-0.737 1.056,-0.659 0.946,-0.572 0.836,-0.506 0.748,-0.451 0.682,-0.407 0.627,-0.374 0.605,-0.341 0.583,-0.33 0.594,-0.318 0.627,-0.33 0.659,-0.352 0.725,-0.374 0.814,-0.407 0.902,-0.451 1.023,-0.517 h 3.144 l 1.957,0.945 1.902,1.001 1.859,1.045 1.805,1.078 1.748,1.133 1.705,1.177 1.639,1.21 1.584,1.254 1.529,1.309 1.463,1.342 1.406,1.386 1.332,1.43 1.275,1.474 1.199,1.518 1.133,1.551 1.057,1.605 0.979,1.639 0.912,1.694 0.826,1.727 0.746,1.771 0.672,1.804 0.582,1.859 0.506,1.903 0.408,1.936 0.318,1.979 0.242,2.024 0.133,2.057 0.055,2.112 -0.055,2.145 -0.154,2.188 -0.242,2.222 -0.352,2.277 0.781,0.131 0.779,0.132 0.781,0.143 0.793,0.132 0.779,0.143 0.781,0.143 0.781,0.132 0.781,0.143 0.781,0.143 0.779,0.144 0.793,0.143 0.781,0.132 0.781,0.143 0.779,0.143 0.781,0.143 0.781,0.143 1.375,0.506 1.32,0.517 1.275,0.55 1.232,0.561 1.199,0.594 1.143,0.605 1.111,0.638 1.078,0.66 1.033,0.682 0.99,0.715 0.969,0.737 0.924,0.759 0.891,0.792 0.857,0.825 0.824,0.847 0.793,0.869 0.77,0.913 0.736,0.935 0.705,0.957 0.682,1.001 0.66,1.022 0.627,1.067 0.604,1.089 0.584,1.133 0.572,1.155 0.539,1.199 0.516,1.232 0.506,1.265 0.496,1.297 0.461,1.342 0.463,1.375 0.439,1.419 c 0.945,4.317 0.736,8.507 0,12.638 l -0.33,1.111 -0.285,0.99 -0.264,0.867 -0.232,0.771 -0.209,0.682 -0.197,0.615 -0.188,0.561 -0.188,0.539 -0.186,0.506 -0.199,0.518 -0.219,0.518 -0.232,0.561 -0.264,0.594 -0.285,0.67 -0.33,0.738 -0.375,0.836 -0.57,0.748 -0.617,0.779 -0.637,0.793 -0.672,0.814 -0.715,0.824 -0.736,0.824 -0.76,0.836 -0.791,0.826 -0.814,0.836 -0.836,0.812 -0.869,0.803 -0.879,0.793 -0.902,0.77 -0.924,0.748 -0.936,0.715 -0.957,0.682 -0.967,0.65 -0.979,0.604 -0.99,0.572 -1.002,0.518 -1.012,0.461 -1.021,0.408 -1.023,0.34 -1.023,0.287 -1.033,0.219 -1.035,0.143 -1.033,0.066 -1.023,-0.012 -1.033,-0.098 -1.023,-0.176 -1.012,-0.275 -1.012,-0.373 -0.373,-0.75 -0.32,-0.713 -0.264,-0.672 -0.219,-0.627 -0.176,-0.605 -0.121,-0.572 -0.078,-0.527 -0.033,-0.506 v -0.484 l 0.055,-0.451 0.088,-0.416 0.133,-0.396 0.176,-0.385 0.197,-0.354 0.254,-0.34 0.275,-0.318 0.318,-0.297 0.352,-0.287 0.375,-0.275 0.418,-0.264 0.439,-0.252 0.473,-0.242 0.494,-0.232 0.529,-0.23 0.549,-0.219 0.584,-0.232 0.594,-0.219 0.627,-0.221 1.309,-0.439 1.387,-0.463 1.088,-0.66 1.045,-0.67 0.99,-0.682 0.936,-0.715 0.891,-0.727 0.836,-0.736 0.791,-0.76 0.748,-0.781 0.693,-0.803 0.639,-0.812 0.604,-0.836 0.551,-0.848 0.506,-0.869 0.461,-0.891 0.418,-0.902 0.375,-0.924 0.33,-0.945 0.275,-0.957 0.24,-0.979 0.199,-0.99 0.164,-1.012 0.111,-1.033 0.076,-1.045 0.021,-1.068 v -1.078 l -0.055,-1.1 -0.088,-1.121 -0.121,-1.133 -0.164,-1.144 -0.209,-1.177 -0.232,-1.188 -0.273,-1.199 -0.451,-1.001 -0.451,-0.957 -0.463,-0.913 -0.461,-0.869 -0.463,-0.836 -0.473,-0.792 -0.473,-0.748 -0.494,-0.715 -0.496,-0.682 -0.506,-0.638 -0.518,-0.616 -0.537,-0.583 -0.551,-0.55 -0.561,-0.528 -0.572,-0.495 -0.605,-0.473 -0.605,-0.451 -0.637,-0.418 -0.648,-0.407 -0.684,-0.385 -0.691,-0.363 -0.727,-0.341 -0.748,-0.33 -0.77,-0.319 -0.793,-0.309 -0.824,-0.285 -0.857,-0.286 -0.881,-0.264 -0.924,-0.264 -0.945,-0.264 -0.979,-0.253 -1.012,-0.253 -0.826,0.022 -0.836,0.033 -0.857,0.077 -0.857,0.077 -0.869,0.11 -0.869,0.11 -0.869,0.121 -0.869,0.121 -0.869,0.121 -0.857,0.121 -0.846,0.11 -0.836,0.088 -0.814,0.077 -0.803,0.055 -0.781,0.033 h -0.758 l -0.738,-0.033 -0.703,-0.066 -0.672,-0.11 -0.648,-0.165 -0.605,-0.208 -0.561,-0.264 -0.527,-0.319 -0.484,-0.385 -0.43,-0.44 -0.385,-0.528 -0.33,-0.594 -0.285,-0.671 -0.221,-0.759 -0.154,-0.836 -0.098,-0.935 -0.033,-1.034 0.703,-1.276 0.639,-1.275 0.582,-1.254 0.506,-1.232 0.451,-1.221 0.385,-1.221 0.33,-1.199 0.275,-1.188 0.209,-1.177 0.154,-1.166 0.1,-1.166 0.043,-1.154 -0.01,-1.144 -0.054,-1.137 -0.098,-1.132 -0.154,-1.133 -0.209,-1.122 -0.242,-1.122 -0.285,-1.111 -0.342,-1.111 -0.373,-1.122 -0.408,-1.111 -0.461,-1.111 -0.484,-1.111 -0.529,-1.122 -0.561,-1.111 -0.594,-1.122 -0.615,-1.122 -0.66,-1.133 -0.682,-1.133 -0.715,-1.144 -0.736,-1.155 -0.66,-0.583 -0.715,-0.649 -0.738,-0.704 -0.781,-0.726 -0.812,-0.748 -0.836,-0.759 -0.43,-0.374 -0.428,-0.374 -0.43,-0.363 -0.439,-0.363 -0.441,-0.352 -0.439,-0.341 -0.451,-0.33 L 101.141,23 100.69,22.703 100.251,22.417 99.8,22.153 99.361,21.911 98.91,21.691 98.471,21.493 98.03,21.317 97.6,21.175 l -0.43,-0.11 -0.429,-0.088 -0.429,-0.056 -0.407,-0.011 -1.496,1.078 -1.463,1.1 -1.419,1.122 -1.386,1.144 -1.331,1.166 -1.287,1.177 -1.243,1.21 -1.177,1.232 -1.132,1.243 -1.067,1.276 -1.012,1.298 -0.946,1.32 -0.869,1.342 -0.803,1.364 -0.726,1.385 -0.66,1.419 -0.571,1.44 -0.484,1.463 -0.407,1.496 -0.308,1.507 -0.231,1.551 -0.121,1.562 -0.033,1.595 0.065,1.628 0.176,1.65 0.286,1.671 0.385,1.705 0.506,1.738 0.616,1.76 0.737,1.793 0.858,1.814 0.979,1.848 v 0.561 l -0.022,0.517 -0.033,0.506 -0.044,0.473 -0.055,0.44 -0.066,0.417 -0.088,0.396 -0.099,0.363 -0.11,0.352 -0.121,0.319 -0.144,0.308 -0.154,0.275 -0.176,0.264 -0.187,0.23 -0.198,0.22 -0.22,0.198 -0.242,0.187 -0.242,0.165 -0.275,0.154 -0.286,0.132 -0.297,0.121 -0.33,0.11 -0.33,0.088 -0.363,0.077 -0.374,0.065 -0.396,0.055 -0.407,0.044 -0.439,0.044 -0.451,0.022 -0.473,0.022 -0.484,0.011 H 72.72 L 71.994,73.956 71.29,73.791 70.586,73.637 69.893,73.494 69.211,73.373 68.54,73.252 67.869,73.153 67.198,73.065 66.55,72.99 l -0.66,-0.066 -0.638,-0.055 -0.649,-0.044 -0.638,-0.022 -0.638,-0.021 -0.638,-0.011 -0.627,0.011 -0.638,0.011 -0.627,0.022 -0.638,0.033 -0.638,0.044 -0.627,0.055 -0.638,0.065 -0.649,0.077 -0.638,0.088 -0.649,0.088 -0.648,0.099 -0.66,0.11 -0.66,0.121 -0.671,0.121 -0.681,0.132 -0.682,0.143 -0.693,0.154 -1.353,0.726 -1.287,0.781 -1.232,0.825 -1.166,0.88 -1.111,0.902 -1.045,0.957 -0.979,0.99 -0.913,1.023 -0.847,1.067 -0.781,1.089 -0.715,1.122 -0.649,1.155 -0.572,1.177 -0.506,1.199 -0.44,1.221 -0.373,1.241 -0.286,1.265 -0.231,1.276 -0.143,1.298 -0.077,1.298 v 1.319 l 0.077,1.32 0.166,1.33 0.231,1.342 0.308,1.332 0.385,1.342 0.473,1.33 0.55,1.342 0.638,1.332 0.715,1.318 0.792,1.309 0.891,1.299 0.913,0.66 0.957,0.66 0.968,0.67 0.957,0.684 0.462,0.352 0.451,0.352 0.44,0.363 0.429,0.373 0.396,0.375 0.374,0.385 0.352,0.385 0.33,0.396 0.286,0.406 0.253,0.418 0.22,0.43 0.176,0.439 0.121,0.461 0.088,0.463 0.033,0.473 -0.011,0.494 -0.077,0.496 -0.132,0.516 -0.198,0.539 -0.253,0.551 -0.33,0.561 -0.396,0.584 -0.461,0.604 -0.55,0.617 -0.814,0.297 -0.814,0.209 -0.803,0.131 -0.792,0.057 -0.781,-0.023 -0.77,-0.088 -0.759,-0.154 -0.748,-0.219 -0.726,-0.287 -0.726,-0.33 -0.715,-0.385 -0.693,-0.428 -0.682,-0.475 -0.671,-0.516 -0.649,-0.551 -0.649,-0.582 -0.627,-0.617 -0.605,-0.627 -0.594,-0.658 -0.583,-0.672 -0.561,-0.693 -0.55,-0.693 -0.528,-0.703 -0.506,-0.703 -0.495,-0.705 -0.473,-0.691 -0.462,-0.693 -0.44,-0.672 -0.813,-1.297 -0.737,-1.199 -0.715,-1.936 -0.539,-1.463 -0.407,-1.057 -0.286,-0.715 c -1.875,-3.924 -1.285,-15.242 0.285,-19.526 z"
       fill="#65a752"
       id="path4"
       style="display:inline" />
    <path
       fill="#65a752"
       d="m 105.387,132.35 -1.155,-0.573 -0.968,-0.494 -0.418,-0.232 -0.385,-0.231 -0.188,-0.109 -0.175,-0.121 -0.164,-0.121 -0.155,-0.133 -0.154,-0.131 -0.143,-0.143 -0.144,-0.144 -0.131,-0.154 -0.133,-0.153 -0.131,-0.175 -0.121,-0.176 -0.109,-0.188 -0.121,-0.199 -0.112,-0.219 -0.109,-0.22 -0.109,-0.243 -0.1,-0.252 -0.109,-0.275 -0.1,-0.287 -0.109,-0.307 -0.033,-1.033 -0.045,-1.023 -0.043,-1.035 -0.045,-1.034 -0.043,-1.033 -0.045,-1.023 -0.043,-1.034 -0.045,-1.035 -0.033,-1.021 -0.043,-1.035 -0.045,-1.022 -0.045,-1.035 -0.043,-1.023 -0.045,-1.034 -0.043,-1.021 -0.045,-1.024 -0.603,0.088 -0.618,0.088 -0.603,0.076 -0.617,0.088 -0.605,0.088 -0.605,0.088 -0.604,0.078 -0.594,0.088 -0.044,0.693 -0.033,0.737 -0.023,0.781 -0.022,0.824 -0.043,1.75 -0.055,1.824 -0.045,0.936 -0.054,0.945 -0.077,0.948 -0.088,0.933 -0.111,0.924 -0.142,0.902 -0.165,0.891 -0.187,0.857 -0.231,0.827 -0.264,0.781 -0.297,0.736 -0.342,0.694 -0.384,0.626 -0.44,0.573 -0.473,0.506 -0.539,0.427 -0.583,0.352 -0.649,0.264 -0.715,0.177 -0.77,0.076 -0.835,-0.021 -0.903,-0.121 -0.978,-0.242 -1.056,-0.364 -0.352,-0.373 -0.319,-0.386 -0.275,-0.407 -0.264,-0.418 -0.22,-0.427 -0.198,-0.451 -0.165,-0.452 -0.154,-0.463 -0.121,-0.472 -0.099,-0.485 -0.088,-0.494 -0.055,-0.494 -0.055,-0.508 -0.022,-0.505 -0.022,-0.516 v -1.033 l 0.022,-0.518 0.022,-0.529 0.033,-0.516 0.077,-1.045 0.088,-1.035 0.077,-1.021 0.077,-0.991 0.022,-0.496 0.011,-0.472 0.011,-0.473 -0.011,-0.461 -1.375,0.022 h -1.221 l -0.561,-0.012 -0.527,-0.01 -0.495,-0.021 -0.462,-0.034 -0.43,-0.045 -0.406,-0.066 -0.374,-0.066 -0.341,-0.088 -0.319,-0.11 -0.297,-0.121 -0.264,-0.142 -0.242,-0.164 -0.231,-0.188 -0.198,-0.221 -0.176,-0.23 -0.165,-0.264 -0.132,-0.287 -0.132,-0.33 -0.099,-0.34 -0.099,-0.385 -0.077,-0.418 -0.055,-0.451 -0.055,-0.484 -0.044,-0.527 -0.022,-0.563 -0.022,-0.603 -0.011,-0.639 v -0.693 l 0.198,-0.286 0.209,-0.275 0.209,-0.252 0.209,-0.242 0.22,-0.231 0.231,-0.211 0.22,-0.207 0.242,-0.187 0.231,-0.176 0.242,-0.166 0.253,-0.164 0.252,-0.143 0.253,-0.144 0.265,-0.121 0.275,-0.131 0.264,-0.109 0.286,-0.112 0.275,-0.109 0.285,-0.1 0.298,-0.097 0.593,-0.188 0.627,-0.187 0.638,-0.176 0.671,-0.188 0.682,-0.209 0.704,-0.209 0.011,-0.736 -0.011,-0.736 -0.022,-0.727 -0.033,-0.726 -0.055,-0.725 -0.055,-0.715 -0.076,-0.705 -0.078,-0.715 -0.088,-0.703 -0.099,-0.704 -0.11,-0.693 -0.11,-0.704 -0.22,-1.386 L 80.595,91.632 80.353,90.257 80.111,88.894 79.892,87.53 79.693,86.166 79.605,85.484 79.528,84.802 79.451,84.12 79.396,83.438 79.352,82.756 79.308,82.075 79.286,81.393 V 80.71 l 0.187,-0.374 0.176,-0.34 0.177,-0.308 0.175,-0.297 0.165,-0.265 0.176,-0.241 0.165,-0.22 0.176,-0.209 0.165,-0.176 0.176,-0.165 0.165,-0.143 0.187,-0.132 0.176,-0.11 0.187,-0.099 0.198,-0.088 0.198,-0.066 0.209,-0.055 0.209,-0.055 0.231,-0.033 0.231,-0.033 0.253,-0.022 0.253,-0.011 0.275,-0.011 h 0.286 l 1.287,0.011 1.584,0.022 0.505,0.385 0.484,0.429 0.451,0.473 0.429,0.506 0.407,0.55 0.374,0.582 0.363,0.617 0.33,0.648 0.308,0.671 0.286,0.693 0.275,0.726 0.253,0.737 0.231,0.759 0.22,0.781 0.198,0.78 0.198,0.804 0.165,0.803 0.165,0.803 0.154,0.814 0.143,0.814 0.132,0.813 0.121,0.803 0.121,0.803 0.109,0.781 0.199,1.54 0.197,1.474 0.187,1.375 0.199,1.275 0.759,-0.23 0.748,-0.231 0.758,-0.22 0.76,-0.231 0.757,-0.232 0.76,-0.231 0.758,-0.22 0.772,-0.231 0.13,-0.627 0.121,-0.692 0.133,-0.748 0.143,-0.792 0.297,-1.727 0.33,-1.837 0.187,-0.946 0.209,-0.968 0.219,-0.956 0.232,-0.968 0.264,-0.946 0.285,-0.935 0.309,-0.924 0.33,-0.88 0.363,-0.847 0.395,-0.814 0.418,-0.759 0.463,-0.704 0.494,-0.637 0.529,-0.583 0.561,-0.496 0.615,-0.417 0.648,-0.331 0.694,-0.23 0.748,-0.132 0.793,-0.033 0.836,0.088 0.89,0.22 0.946,0.33 1,0.473 0.32,0.517 0.275,0.516 0.252,0.496 0.209,0.495 0.176,0.494 0.154,0.473 0.121,0.484 0.1,0.473 0.064,0.473 0.045,0.462 0.022,0.473 -0.012,0.462 -0.021,0.462 -0.043,0.473 -0.067,0.462 -0.076,0.473 -0.1,0.462 -0.109,0.484 -0.121,0.473 -0.145,0.483 -0.142,0.495 -0.164,0.495 -0.166,0.495 -0.164,0.518 -0.364,1.044 -0.375,1.089 -0.185,0.561 -0.188,0.572 -0.175,0.594 -0.188,0.594 1.42,-0.209 1.406,-0.221 1.399,-0.219 1.385,-0.198 0.671,-0.088 0.659,-0.066 0.65,-0.055 0.637,-0.033 h 0.617 l 0.603,0.011 0.584,0.033 0.573,0.077 0.539,0.099 0.515,0.143 0.496,0.176 0.461,0.209 0.442,0.264 0.406,0.297 0.385,0.352 0.342,0.407 0.306,0.462 0.276,0.506 0.23,0.572 0.199,0.627 0.153,0.703 0.111,0.76 0.076,0.824 0.022,0.903 -0.307,0.56 -0.342,0.518 -0.351,0.472 -0.385,0.428 -0.397,0.397 -0.427,0.363 -0.442,0.318 -0.461,0.297 -0.472,0.266 -0.496,0.24 -0.506,0.209 -0.528,0.187 -0.539,0.166 -0.539,0.153 -0.56,0.133 -0.573,0.109 -0.572,0.1 -0.582,0.087 -0.594,0.088 -0.593,0.067 -1.2,0.131 -1.199,0.132 -0.605,0.067 -0.594,0.066 -0.605,0.076 -0.594,0.088 -0.582,0.1 -0.584,0.109 -0.582,0.121 -0.561,0.143 -0.012,1.221 v 1.22 l -0.011,1.221 -0.01,1.233 v 1.22 l -0.012,1.221 -0.01,1.232 v 1.221 l -0.011,1.232 -0.012,1.221 v 1.233 l -0.01,1.22 v 1.231 l -0.011,1.232 -0.012,1.221 v 1.232 l -0.143,0.364 -0.131,0.33 -0.132,0.306 -0.133,0.297 -0.131,0.276 -0.133,0.253 -0.131,0.231 -0.133,0.23 -0.13,0.2 -0.133,0.197 -0.143,0.176 -0.142,0.164 -0.145,0.166 -0.154,0.142 -0.153,0.133 -0.154,0.131 -0.166,0.121 -0.176,0.111 -0.185,0.11 -0.188,0.099 -0.197,0.098 -0.211,0.1 -0.209,0.099 -0.23,0.088 -1.022,0.395 z"
       id="path6"
       style="display:inline" />
    <path
       fill="#65a752"
       d="m 119.619,131.326 -0.56,-0.517 -0.518,-0.516 -0.463,-0.529 -0.418,-0.528 -0.373,-0.527 -0.33,-0.539 -0.297,-0.539 -0.254,-0.539 -0.209,-0.549 -0.185,-0.563 -0.155,-0.56 -0.121,-0.561 -0.088,-0.572 -0.066,-0.572 -0.045,-0.582 -0.01,-0.584 v -0.594 l 0.022,-0.594 0.033,-0.605 0.055,-0.604 0.066,-0.617 0.067,-0.627 0.087,-0.627 0.088,-0.627 0.198,-1.285 0.199,-1.308 0.097,-0.672 0.088,-0.672 0.088,-0.682 0.078,-0.681 0.407,-0.561 0.429,-0.494 0.451,-0.442 0.483,-0.394 0.496,-0.354 0.527,-0.306 0.539,-0.266 0.551,-0.24 0.572,-0.199 0.582,-0.188 0.606,-0.152 0.603,-0.145 1.245,-0.252 1.275,-0.242 0.639,-0.121 0.648,-0.131 0.637,-0.144 0.65,-0.153 0.637,-0.177 0.639,-0.209 0.638,-0.231 0.615,-0.264 0.616,-0.308 0.617,-0.34 0.594,-0.396 0.582,-0.44 0.56,-0.496 0.551,-0.549 0.539,-0.617 0.516,-0.682 0.396,-1.111 0.319,-1.033 0.242,-0.957 0.154,-0.891 0.078,-0.824 v -0.76 l -0.055,-0.692 -0.132,-0.638 -0.198,-0.594 -0.253,-0.528 -0.309,-0.484 -0.363,-0.451 -0.416,-0.397 -0.452,-0.362 -0.505,-0.33 -0.539,-0.286 -0.584,-0.264 -0.616,-0.242 -0.638,-0.209 -0.67,-0.198 -0.694,-0.176 -0.703,-0.165 -0.738,-0.165 -0.736,-0.143 -1.518,-0.286 -1.518,-0.297 -0.759,-0.154 -0.758,-0.176 -0.738,-0.187 -0.737,-0.197 -0.56,-1.222 -0.451,-1.121 -0.331,-1.045 -0.209,-0.946 -0.109,-0.869 -0.012,-0.781 0.088,-0.704 0.188,-0.638 0.263,-0.561 0.352,-0.494 0.418,-0.419 0.496,-0.373 0.549,-0.309 0.615,-0.242 0.672,-0.197 0.727,-0.154 0.757,-0.099 0.793,-0.055 0.836,-0.022 0.858,0.022 0.869,0.055 0.902,0.088 0.901,0.121 0.914,0.143 0.912,0.154 0.902,0.186 0.891,0.198 0.881,0.209 0.857,0.22 0.836,0.232 0.791,0.23 0.76,0.231 1.351,0.957 1.256,0.99 1.143,1.023 1.045,1.034 0.945,1.067 0.836,1.077 0.748,1.1 0.66,1.111 0.551,1.133 0.473,1.144 0.363,1.166 0.285,1.154 0.187,1.178 0.11,1.176 0.021,1.188 -0.064,1.178 -0.154,1.187 -0.231,1.178 -0.32,1.176 -0.385,1.177 -0.473,1.166 -0.55,1.155 -0.616,1.144 -0.703,1.121 -0.769,1.122 -0.836,1.099 -0.914,1.078 -0.979,1.057 -1.045,1.033 -1.111,1.012 -1.176,0.99 -1.244,0.957 -0.539,0.197 -0.539,0.2 -0.537,0.197 -0.539,0.209 -0.539,0.199 -0.53,0.209 -0.539,0.197 -0.539,0.209 -0.527,0.198 -0.539,0.209 -0.539,0.208 -0.528,0.2 -0.539,0.209 -0.527,0.209 -0.539,0.209 -0.527,0.197 -0.2,1.408 -0.164,1.287 -0.154,1.176 -0.143,1.066 -0.087,0.497 -0.079,0.472 -0.099,0.451 -0.098,0.428 -0.121,0.408 -0.121,0.373 -0.154,0.364 -0.155,0.341 -0.185,0.307 -0.211,0.297 -0.219,0.287 -0.263,0.252 -0.276,0.242 -0.318,0.221 -0.342,0.209 -0.385,0.187 -0.406,0.164 -0.463,0.165 -0.494,0.132 -0.529,0.133 -0.582,0.109 -0.627,0.1 -0.672,0.088 z m -60.108,-0.539 -0.716,-0.363 -0.648,-0.33 -0.583,-0.307 -0.517,-0.287 -0.231,-0.143 -0.22,-0.13 -0.209,-0.145 -0.209,-0.131 -0.187,-0.142 -0.176,-0.133 -0.165,-0.143 -0.165,-0.154 -0.143,-0.154 -0.154,-0.155 -0.132,-0.164 -0.132,-0.176 -0.132,-0.175 -0.121,-0.188 -0.121,-0.209 -0.121,-0.209 -0.11,-0.22 -0.121,-0.243 -0.11,-0.252 -0.121,-0.275 -0.231,-0.582 -0.253,-0.66 0.474,-2.09 0.483,-2.09 0.474,-2.09 0.472,-2.09 0.484,-2.101 0.473,-2.09 0.473,-2.088 0.484,-2.09 0.473,-2.09 0.473,-2.089 0.484,-2.09 0.473,-2.102 0.472,-2.09 0.485,-2.089 0.472,-2.09 0.474,-2.09 -0.319,0.121 -0.33,0.132 -0.331,0.132 -0.33,0.132 -0.318,0.132 -0.33,0.132 -0.33,0.132 -0.33,0.143 -0.231,0.66 -0.231,0.649 -0.242,0.66 -0.231,0.66 -0.231,0.66 -0.242,0.66 -0.231,0.659 -0.231,0.65 -0.231,0.66 -0.231,0.67 -0.231,0.66 -0.231,0.661 -0.231,0.66 -0.231,0.66 -0.231,0.658 -0.231,0.66 -1.034,0.243 -0.956,0.166 -0.903,0.076 -0.835,0.021 -0.77,-0.055 -0.704,-0.121 -0.649,-0.175 -0.594,-0.231 -0.528,-0.297 -0.473,-0.342 -0.429,-0.396 -0.374,-0.439 -0.319,-0.483 -0.264,-0.529 -0.23,-0.561 -0.177,-0.593 -0.132,-0.627 -0.088,-0.649 -0.044,-0.672 -0.011,-0.703 0.022,-0.715 0.066,-0.737 0.111,-0.737 0.131,-0.759 0.165,-0.759 0.199,-0.759 0.219,-0.759 0.253,-0.759 0.286,-0.748 0.297,-0.747 0.33,-0.726 0.341,-0.715 0.528,-0.638 0.583,-0.638 0.638,-0.616 0.671,-0.605 0.715,-0.594 0.748,-0.572 0.792,-0.55 0.814,-0.528 0.846,-0.505 0.88,-0.474 0.891,-0.439 0.913,-0.408 0.935,-0.362 0.935,-0.342 0.957,-0.285 0.957,-0.242 0.956,-0.198 0.957,-0.155 0.957,-0.098 0.946,-0.044 0.946,0.011 0.924,0.065 0.913,0.143 0.891,0.188 0.858,0.274 0.846,0.33 0.814,0.408 0.781,0.472 0.748,0.561 0.704,0.638 0.671,0.715 0.616,0.803 -0.011,1.056 -0.033,1.067 -0.066,1.056 -0.077,1.067 -0.099,1.077 -0.121,1.067 -0.143,1.078 -0.154,1.078 -0.176,1.089 -0.187,1.078 -0.198,1.089 -0.22,1.079 -0.23,1.087 -0.243,1.09 -0.242,1.088 -0.264,1.09 -0.264,1.076 -0.275,1.09 -0.286,1.088 -0.286,1.078 -0.572,2.168 -0.593,2.145 -0.583,2.144 -0.572,2.123 -0.55,2.111 -0.539,2.079 1.265,0.023 1.166,0.01 0.56,0.011 0.528,0.022 0.517,0.021 0.484,0.034 0.473,0.033 0.451,0.055 0.418,0.066 0.407,0.078 0.385,0.098 0.374,0.121 0.341,0.133 0.319,0.164 0.308,0.187 0.286,0.197 0.264,0.243 0.242,0.263 0.22,0.297 0.209,0.33 0.176,0.364 0.165,0.396 0.143,0.428 0.131,0.474 0.1,0.516 0.087,0.561 0.067,0.605 0.055,0.648 0.022,0.694 0.011,0.748 -0.308,0.527 -0.33,0.485 -0.374,0.439 -0.396,0.408 -0.44,0.373 -0.451,0.342 -0.484,0.309 -0.506,0.285 -0.528,0.242 -0.55,0.231 -0.572,0.187 -0.583,0.176 -0.593,0.142 -0.605,0.133 -0.628,0.11 -0.627,0.087 -0.638,0.077 -0.637,0.056 -0.638,0.043 -0.649,0.033 -0.638,0.034 -0.649,0.011 -0.638,0.01 h -0.627 l -1.232,-0.01 -1.188,-0.011 h -1.122 z"
       id="path8"
       style="display:inline" />
    <path
       fill="#ffffff"
       d="m 97.984,8.504 h 69.061 v 83.282 l -0.44,-1.419 -0.462,-1.374 -0.461,-1.343 -0.496,-1.297 -0.506,-1.265 -0.516,-1.232 -0.539,-1.199 -0.572,-1.155 -0.584,-1.132 -0.604,-1.089 -0.627,-1.068 -0.66,-1.022 -0.682,-1.001 -0.705,-0.957 -0.736,-0.935 -0.769,-0.913 -0.793,-0.868 -0.825,-0.848 -0.857,-0.824 -0.891,-0.792 -0.924,-0.759 -0.968,-0.737 -0.99,-0.715 -1.034,-0.682 -1.078,-0.66 -1.111,-0.638 -1.143,-0.605 -1.199,-0.593 -1.232,-0.561 -1.276,-0.55 -1.32,-0.517 -1.375,-0.506 -0.781,-0.143 -0.782,-0.143 -0.779,-0.143 -0.781,-0.143 -0.781,-0.132 -0.793,-0.143 -0.78,-0.143 -0.781,-0.144 -0.781,-0.143 -0.781,-0.131 -0.782,-0.143 -0.779,-0.143 -0.793,-0.132 -0.781,-0.143 -0.779,-0.132 -0.782,-0.132 0.352,-2.277 0.242,-2.222 0.154,-2.188 0.055,-2.145 -0.055,-2.112 -0.132,-2.057 -0.243,-2.024 -0.318,-1.979 -0.408,-1.936 -0.506,-1.902 -0.582,-1.859 -0.672,-1.804 -0.746,-1.771 -0.826,-1.727 -0.912,-1.694 -0.979,-1.639 -1.057,-1.605 -1.132,-1.551 -1.2,-1.517 -1.275,-1.475 -1.332,-1.43 -1.406,-1.385 -1.463,-1.342 -1.529,-1.309 -1.584,-1.254 -1.639,-1.21 -1.705,-1.176 -1.748,-1.133 -1.805,-1.078 -1.859,-1.045 L 99.941,9.45 Z M 25.558,88.366 V 8.504 h 69.28 l -1.023,0.517 -0.901,0.451 -0.814,0.407 -0.726,0.374 -0.66,0.352 -0.627,0.33 -0.594,0.318 -0.583,0.33 -0.605,0.342 -0.627,0.373 -0.681,0.408 -0.748,0.451 -0.836,0.506 -0.946,0.572 -1.056,0.659 -1.21,0.737 -1.441,1.331 -1.353,1.309 -1.286,1.298 -1.21,1.264 -1.133,1.266 -1.067,1.242 -1.001,1.232 -0.924,1.232 -0.869,1.232 -0.803,1.221 -0.748,1.232 -0.693,1.231 -0.627,1.243 -0.583,1.254 -0.516,1.265 -0.485,1.276 -0.428,1.309 -0.385,1.319 -0.341,1.342 -0.308,1.375 -0.264,1.397 -0.22,1.43 -0.198,1.474 -0.154,1.507 -0.132,1.55 -0.099,1.595 -0.077,1.628 -0.055,1.694 -0.033,1.738 -0.011,1.793 0.011,1.847 0.022,1.914 -1.76,0.088 -1.694,0.11 -1.628,0.121 -1.561,0.154 -1.518,0.187 -1.452,0.209 -1.408,0.231 -1.363,0.274 -1.309,0.297 -1.265,0.33 -1.221,0.374 -1.177,0.408 -1.155,0.451 -1.111,0.483 -1.077,0.529 -1.056,0.571 -1.023,0.616 -1.001,0.66 -0.968,0.715 -0.968,0.759 -0.935,0.803 -0.924,0.869 -0.924,0.913 -0.901,0.979 -0.902,1.023 -0.891,1.088 -0.891,1.155 -0.902,1.21 -0.891,1.276 -0.902,1.331 -0.913,1.407 -0.924,1.474 -0.715,2.112 -0.539,1.584 -0.406,1.133 -0.286,0.78 -0.121,0.275 -0.088,0.21 -0.088,0.165 -0.078,0.11 -0.076,0.088 -0.067,0.066 -0.076,0.044 z"
       id="path10"
       style="display:none" />
  </g>
</svg>
