<?xml version="1.0" encoding="UTF-8" standalone="no"?>
<!-- Created with Inkscape (http://www.inkscape.org/) -->

<svg
   width="128.58264mm"
   height="128.58264mm"
   viewBox="0 0 128.58264 128.58264"
   version="1.1"
   id="svg5"
   inkscape:version="1.1 (c68e22c387, 2021-05-23)"
   sodipodi:docname="zhp_zhr.svg"
   xmlns:inkscape="http://www.inkscape.org/namespaces/inkscape"
   xmlns:sodipodi="http://sodipodi.sourceforge.net/DTD/sodipodi-0.dtd"
   xmlns="http://www.w3.org/2000/svg"
   xmlns:svg="http://www.w3.org/2000/svg">
  <sodipodi:namedview
     id="namedview7"
     pagecolor="#505050"
     bordercolor="#eeeeee"
     borderopacity="1"
     inkscape:pageshadow="0"
     inkscape:pageopacity="0"
     inkscape:pagecheckerboard="0"
     inkscape:document-units="mm"
     showgrid="false"
     fit-margin-top="0"
     fit-margin-left="0"
     fit-margin-right="0"
     fit-margin-bottom="0"
     inkscape:zoom="0.58083614"
     inkscape:cx="222.95445"
     inkscape:cy="233.28438"
     inkscape:window-width="1600"
     inkscape:window-height="837"
     inkscape:window-x="-8"
     inkscape:window-y="-8"
     inkscape:window-maximized="1"
     inkscape:current-layer="layer1" />
  <defs
     id="defs2" />
  <g
     inkscape:label="Warstwa 1"
     inkscape:groupmode="layer"
     id="layer1"
     transform="translate(-19.512292,-147.77878)">
    <g
       fill-rule="evenodd"
       clip-rule="evenodd"
       id="g12"
       transform="matrix(0.39796717,0,0,0.39796717,13.974963,176.7365)">
      <path
         fill="#ffffff"
         d="M 0,0 H 192.756 V 192.756 H 0 Z"
         id="path2"
         style="display:none" />
      <path
         d="m 93.244,183.42 -1.078,-0.488 -1.045,-0.561 -0.99,-0.561 -0.946,-0.572 -0.913,-0.572 -0.858,-0.582 -0.825,-0.584 -0.781,-0.594 -0.748,-0.604 -0.704,-0.617 -0.671,-0.627 -0.638,-0.637 -0.594,-0.66 -0.572,-0.672 -0.528,-0.682 -0.506,-0.703 -0.462,-0.727 -0.44,-0.736 -0.407,-0.76 -0.385,-0.781 -0.352,-0.803 -0.33,-0.824 -0.308,-0.857 -0.275,-0.881 -0.264,-0.902 -0.231,-0.934 -0.209,-0.969 -0.198,-0.99 -0.176,-1.021 -0.154,-1.057 -0.132,-1.09 -0.121,-1.121 -0.693,-0.1 -0.66,-0.109 -0.649,-0.143 -0.627,-0.143 -0.616,-0.176 -0.594,-0.188 -0.583,-0.209 -0.561,-0.221 -0.55,-0.242 -0.528,-0.252 -0.517,-0.275 -0.506,-0.297 -0.484,-0.297 -0.473,-0.33 -0.462,-0.33 -0.44,-0.352 -0.439,-0.375 -0.418,-0.373 -0.407,-0.396 -0.385,-0.406 -0.385,-0.43 -0.374,-0.428 -0.363,-0.451 -0.341,-0.463 -0.341,-0.473 -0.33,-0.484 -0.319,-0.494 -0.308,-0.506 -0.297,-0.518 -0.297,-0.539 -0.275,-0.539 -0.274,-0.549 -0.209,-1.111 -0.209,-1.111 -0.198,-1.078 -0.176,-1.066 -0.066,-0.518 -0.065,-0.516 -0.044,-0.518 -0.033,-0.494 -0.022,-0.506 -0.011,-0.484 0.011,-0.484 0.044,-0.473 0.044,-0.463 0.077,-0.449 0.11,-0.441 0.121,-0.439 0.153,-0.43 0.176,-0.406 0.22,-0.406 0.242,-0.396 0.275,-0.385 0.308,-0.363 0.341,-0.363 0.385,-0.34 0.429,-0.33 0.462,-0.32 0.506,-0.307 0.539,-0.297 1.012,0.033 0.902,0.064 0.803,0.121 0.715,0.166 0.627,0.209 0.55,0.242 0.473,0.273 0.396,0.32 0.341,0.352 0.286,0.373 0.242,0.408 0.187,0.439 0.154,0.451 0.121,0.484 0.099,0.494 0.077,0.518 0.121,1.066 0.109,1.121 0.077,0.562 0.088,0.57 0.11,0.572 0.143,0.572 0.176,0.572 0.22,0.561 0.264,0.561 0.319,0.551 0.385,0.527 0.44,0.527 0.517,0.506 0.594,0.484 0.583,-0.021 0.604,-0.043 0.627,-0.066 0.627,-0.1 0.649,-0.109 0.66,-0.133 0.671,-0.131 0.671,-0.145 0.671,-0.143 0.671,-0.131 0.67,-0.133 0.66,-0.121 0.66,-0.109 0.638,-0.088 0.638,-0.055 0.616,-0.033 0.605,-0.012 0.572,0.033 0.561,0.076 0.527,0.121 0.506,0.166 0.473,0.209 0.44,0.273 0.407,0.342 0.363,0.396 0.319,0.473 0.286,0.539 0.242,0.615 0.187,0.705 0.132,0.791 0.087,0.869 0.022,0.969 -0.462,0.867 -0.439,0.848 -0.407,0.814 -0.374,0.781 -0.341,0.758 -0.308,0.736 -0.275,0.715 -0.242,0.693 -0.198,0.672 -0.165,0.66 -0.132,0.637 -0.088,0.617 -0.043,0.604 v 0.594 l 0.033,0.572 0.088,0.572 0.121,0.551 0.176,0.549 0.22,0.551 0.264,0.527 0.319,0.539 0.363,0.527 0.418,0.518 0.473,0.527 0.517,0.529 0.583,0.527 0.627,0.527 0.693,0.539 0.737,0.539 0.803,0.551 0.869,0.561 0.924,0.572 0.384,-0.166 0.375,-0.176 0.363,-0.176 0.352,-0.197 0.352,-0.209 0.33,-0.221 0.33,-0.23 0.33,-0.232 0.307,-0.252 0.309,-0.264 0.297,-0.264 0.297,-0.275 0.275,-0.275 0.275,-0.297 0.275,-0.297 0.264,-0.297 0.252,-0.318 0.242,-0.309 0.242,-0.318 0.23,-0.33 0.23,-0.33 0.221,-0.33 0.221,-0.342 0.209,-0.34 0.406,-0.693 0.385,-0.693 0.363,-0.693 0.342,-0.703 -0.033,-0.648 -0.078,-0.66 -0.121,-0.682 -0.164,-0.693 -0.188,-0.705 -0.219,-0.715 -0.242,-0.715 -0.266,-0.725 -0.527,-1.441 -0.518,-1.418 -0.24,-0.705 -0.209,-0.682 -0.188,-0.67 -0.154,-0.66 -0.121,-0.639 -0.066,-0.605 -0.01,-0.594 0.033,-0.549 0.109,-0.539 0.176,-0.496 0.254,-0.461 0.34,-0.418 0.418,-0.385 0.518,-0.342 0.627,-0.297 0.727,-0.242 0.834,-0.197 0.957,-0.143 1.078,-0.088 1.221,-0.033 0.814,0.34 0.791,0.33 0.396,0.154 0.396,0.143 0.385,0.133 0.385,0.121 0.375,0.121 0.373,0.098 0.373,0.09 0.363,0.076 0.363,0.055 0.363,0.033 0.352,0.021 h 0.342 l 0.34,-0.01 0.342,-0.045 0.33,-0.066 0.318,-0.076 0.318,-0.121 0.32,-0.133 0.307,-0.164 0.299,-0.199 0.295,-0.219 0.287,-0.264 0.285,-0.287 0.275,-0.318 0.264,-0.352 0.266,-0.396 0.252,-0.418 0.242,-0.473 0.012,-0.672 0.021,-0.66 0.043,-0.658 0.055,-0.66 0.078,-0.639 0.1,-0.627 0.109,-0.615 0.131,-0.594 0.154,-0.572 0.176,-0.551 0.188,-0.527 0.221,-0.494 0.23,-0.473 0.254,-0.441 0.273,-0.395 0.309,-0.375 0.318,-0.318 0.354,-0.287 0.361,-0.242 0.396,-0.197 0.418,-0.154 0.439,-0.088 0.463,-0.043 0.494,0.01 0.518,0.066 0.549,0.133 0.572,0.197 0.594,0.252 0.627,0.332 0.66,0.395 0.682,0.473 0.705,0.539 0.406,1.002 0.33,1.012 0.264,0.99 0.199,0.988 0.131,0.98 0.066,0.967 v 0.969 l -0.045,0.934 -0.121,0.936 -0.164,0.914 -0.221,0.9 -0.273,0.881 -0.33,0.857 -0.385,0.836 -0.418,0.814 -0.475,0.791 -0.516,0.77 -0.561,0.748 -0.596,0.715 -0.637,0.682 -0.682,0.66 -0.705,0.617 -0.748,0.594 -0.779,0.561 -0.803,0.518 -0.836,0.482 -0.869,0.451 -0.881,0.408 -0.912,0.363 -0.936,0.328 -0.957,0.275 -0.979,0.242 -0.088,1.232 -0.109,1.176 -0.145,1.133 -0.154,1.078 -0.186,1.045 -0.209,0.99 -0.242,0.957 -0.264,0.912 -0.287,0.881 -0.318,0.848 -0.352,0.812 -0.375,0.77 -0.395,0.76 -0.43,0.727 -0.463,0.691 -0.494,0.682 -0.516,0.662 -0.551,0.637 -0.594,0.627 -0.617,0.605 -0.648,0.605 -0.67,0.582 -0.715,0.582 -0.76,0.584 -0.781,0.572 -0.812,0.572 -0.859,0.57 -0.891,0.572 -0.924,0.584 -0.957,0.582 -1,0.605 -1.035,0.605 c -1.609,0.686 -2.498,0.758 -3.38,0.758 -1.022,0.008 -1.731,-0.264 -3.487,-0.824 z m -66.729,-96.825 0.407,-1.133 0.539,-1.583 0.715,-2.112 0.924,-1.474 0.913,-1.408 0.902,-1.331 0.891,-1.276 0.901,-1.21 0.891,-1.155 0.891,-1.088 0.902,-1.023 0.902,-0.979 0.924,-0.913 0.924,-0.869 0.935,-0.803 0.968,-0.759 0.968,-0.715 1.001,-0.66 1.023,-0.616 1.056,-0.572 1.078,-0.528 1.111,-0.483 1.155,-0.451 1.177,-0.407 1.221,-0.374 1.265,-0.33 1.309,-0.297 1.363,-0.274 1.408,-0.231 1.452,-0.209 1.518,-0.187 1.562,-0.154 1.628,-0.121 1.693,-0.11 1.76,-0.088 -0.022,-1.914 -0.011,-1.848 0.011,-1.793 0.033,-1.738 0.055,-1.694 0.077,-1.628 0.099,-1.595 0.132,-1.551 0.154,-1.507 0.198,-1.474 0.22,-1.43 0.262,-1.396 0.308,-1.375 0.341,-1.342 0.385,-1.319 0.429,-1.309 0.484,-1.276 0.517,-1.265 0.583,-1.254 0.627,-1.243 0.693,-1.231 0.748,-1.232 0.803,-1.221 0.869,-1.232 0.924,-1.232 1.001,-1.232 1.067,-1.243 1.133,-1.265 1.21,-1.265 1.287,-1.298 1.353,-1.309 1.44,-1.331 1.21,-0.737 1.056,-0.659 0.946,-0.572 0.836,-0.506 0.748,-0.451 0.682,-0.407 0.627,-0.374 0.605,-0.341 0.583,-0.33 0.594,-0.318 0.627,-0.33 0.659,-0.352 0.725,-0.374 0.814,-0.407 0.902,-0.451 1.023,-0.517 h 3.144 l 1.957,0.945 1.902,1.001 1.859,1.045 1.805,1.078 1.748,1.133 1.705,1.177 1.639,1.21 1.584,1.254 1.529,1.309 1.463,1.342 1.406,1.386 1.332,1.43 1.275,1.474 1.199,1.518 1.133,1.551 1.057,1.605 0.979,1.639 0.912,1.694 0.826,1.727 0.746,1.771 0.672,1.804 0.582,1.859 0.506,1.903 0.408,1.936 0.318,1.979 0.242,2.024 0.133,2.057 0.055,2.112 -0.055,2.145 -0.154,2.188 -0.242,2.222 -0.352,2.277 0.781,0.131 0.779,0.132 0.781,0.143 0.793,0.132 0.779,0.143 0.781,0.143 0.781,0.132 0.781,0.143 0.781,0.143 0.779,0.144 0.793,0.143 0.781,0.132 0.781,0.143 0.779,0.143 0.781,0.143 0.781,0.143 1.375,0.506 1.32,0.517 1.275,0.55 1.232,0.561 1.199,0.594 1.143,0.605 1.111,0.638 1.078,0.66 1.033,0.682 0.99,0.715 0.969,0.737 0.924,0.759 0.891,0.792 0.857,0.825 0.824,0.847 0.793,0.869 0.77,0.913 0.736,0.935 0.705,0.957 0.682,1.001 0.66,1.022 0.627,1.067 0.604,1.089 0.584,1.133 0.572,1.155 0.539,1.199 0.516,1.232 0.506,1.265 0.496,1.297 0.461,1.342 0.463,1.375 0.439,1.419 c 0.945,4.317 0.736,8.507 0,12.638 l -0.33,1.111 -0.285,0.99 -0.264,0.867 -0.232,0.771 -0.209,0.682 -0.197,0.615 -0.188,0.561 -0.188,0.539 -0.186,0.506 -0.199,0.518 -0.219,0.518 -0.232,0.561 -0.264,0.594 -0.285,0.67 -0.33,0.738 -0.375,0.836 -0.57,0.748 -0.617,0.779 -0.637,0.793 -0.672,0.814 -0.715,0.824 -0.736,0.824 -0.76,0.836 -0.791,0.826 -0.814,0.836 -0.836,0.812 -0.869,0.803 -0.879,0.793 -0.902,0.77 -0.924,0.748 -0.936,0.715 -0.957,0.682 -0.967,0.65 -0.979,0.604 -0.99,0.572 -1.002,0.518 -1.012,0.461 -1.021,0.408 -1.023,0.34 -1.023,0.287 -1.033,0.219 -1.035,0.143 -1.033,0.066 -1.023,-0.012 -1.033,-0.098 -1.023,-0.176 -1.012,-0.275 -1.012,-0.373 -0.373,-0.75 -0.32,-0.713 -0.264,-0.672 -0.219,-0.627 -0.176,-0.605 -0.121,-0.572 -0.078,-0.527 -0.033,-0.506 v -0.484 l 0.055,-0.451 0.088,-0.416 0.133,-0.396 0.176,-0.385 0.197,-0.354 0.254,-0.34 0.275,-0.318 0.318,-0.297 0.352,-0.287 0.375,-0.275 0.418,-0.264 0.439,-0.252 0.473,-0.242 0.494,-0.232 0.529,-0.23 0.549,-0.219 0.584,-0.232 0.594,-0.219 0.627,-0.221 1.309,-0.439 1.387,-0.463 1.088,-0.66 1.045,-0.67 0.99,-0.682 0.936,-0.715 0.891,-0.727 0.836,-0.736 0.791,-0.76 0.748,-0.781 0.693,-0.803 0.639,-0.812 0.604,-0.836 0.551,-0.848 0.506,-0.869 0.461,-0.891 0.418,-0.902 0.375,-0.924 0.33,-0.945 0.275,-0.957 0.24,-0.979 0.199,-0.99 0.164,-1.012 0.111,-1.033 0.076,-1.045 0.021,-1.068 v -1.078 l -0.055,-1.1 -0.088,-1.121 -0.121,-1.133 -0.164,-1.144 -0.209,-1.177 -0.232,-1.188 -0.273,-1.199 -0.451,-1.001 -0.451,-0.957 -0.463,-0.913 -0.461,-0.869 -0.463,-0.836 -0.473,-0.792 -0.473,-0.748 -0.494,-0.715 -0.496,-0.682 -0.506,-0.638 -0.518,-0.616 -0.537,-0.583 -0.551,-0.55 -0.561,-0.528 -0.572,-0.495 -0.605,-0.473 -0.605,-0.451 -0.637,-0.418 -0.648,-0.407 -0.684,-0.385 -0.691,-0.363 -0.727,-0.341 -0.748,-0.33 -0.77,-0.319 -0.793,-0.309 -0.824,-0.285 -0.857,-0.286 -0.881,-0.264 -0.924,-0.264 -0.945,-0.264 -0.979,-0.253 -1.012,-0.253 -0.826,0.022 -0.836,0.033 -0.857,0.077 -0.857,0.077 -0.869,0.11 -0.869,0.11 -0.869,0.121 -0.869,0.121 -0.869,0.121 -0.857,0.121 -0.846,0.11 -0.836,0.088 -0.814,0.077 -0.803,0.055 -0.781,0.033 h -0.758 l -0.738,-0.033 -0.703,-0.066 -0.672,-0.11 -0.648,-0.165 -0.605,-0.208 -0.561,-0.264 -0.527,-0.319 -0.484,-0.385 -0.43,-0.44 -0.385,-0.528 -0.33,-0.594 -0.285,-0.671 -0.221,-0.759 -0.154,-0.836 -0.098,-0.935 -0.033,-1.034 0.703,-1.276 0.639,-1.275 0.582,-1.254 0.506,-1.232 0.451,-1.221 0.385,-1.221 0.33,-1.199 0.275,-1.188 0.209,-1.177 0.154,-1.166 0.1,-1.166 0.043,-1.154 -0.01,-1.144 -0.054,-1.137 -0.098,-1.132 -0.154,-1.133 -0.209,-1.122 -0.242,-1.122 -0.285,-1.111 -0.342,-1.111 -0.373,-1.122 -0.408,-1.111 -0.461,-1.111 -0.484,-1.111 -0.529,-1.122 -0.561,-1.111 -0.594,-1.122 -0.615,-1.122 -0.66,-1.133 -0.682,-1.133 -0.715,-1.144 -0.736,-1.155 -0.66,-0.583 -0.715,-0.649 -0.738,-0.704 -0.781,-0.726 -0.812,-0.748 -0.836,-0.759 -0.43,-0.374 -0.428,-0.374 -0.43,-0.363 -0.439,-0.363 -0.441,-0.352 -0.439,-0.341 -0.451,-0.33 L 101.141,23 100.69,22.703 100.251,22.417 99.8,22.153 99.361,21.911 98.91,21.691 98.471,21.493 98.03,21.317 97.6,21.175 l -0.43,-0.11 -0.429,-0.088 -0.429,-0.056 -0.407,-0.011 -1.496,1.078 -1.463,1.1 -1.419,1.122 -1.386,1.144 -1.331,1.166 -1.287,1.177 -1.243,1.21 -1.177,1.232 -1.132,1.243 -1.067,1.276 -1.012,1.298 -0.946,1.32 -0.869,1.342 -0.803,1.364 -0.726,1.385 -0.66,1.419 -0.571,1.44 -0.484,1.463 -0.407,1.496 -0.308,1.507 -0.231,1.551 -0.121,1.562 -0.033,1.595 0.065,1.628 0.176,1.65 0.286,1.671 0.385,1.705 0.506,1.738 0.616,1.76 0.737,1.793 0.858,1.814 0.979,1.848 v 0.561 l -0.022,0.517 -0.033,0.506 -0.044,0.473 -0.055,0.44 -0.066,0.417 -0.088,0.396 -0.099,0.363 -0.11,0.352 -0.121,0.319 -0.144,0.308 -0.154,0.275 -0.176,0.264 -0.187,0.23 -0.198,0.22 -0.22,0.198 -0.242,0.187 -0.242,0.165 -0.275,0.154 -0.286,0.132 -0.297,0.121 -0.33,0.11 -0.33,0.088 -0.363,0.077 -0.374,0.065 -0.396,0.055 -0.407,0.044 -0.439,0.044 -0.451,0.022 -0.473,0.022 -0.484,0.011 H 72.72 L 71.994,73.956 71.29,73.791 70.586,73.637 69.893,73.494 69.211,73.373 68.54,73.252 67.869,73.153 67.198,73.065 66.55,72.99 l -0.66,-0.066 -0.638,-0.055 -0.649,-0.044 -0.638,-0.022 -0.638,-0.021 -0.638,-0.011 -0.627,0.011 -0.638,0.011 -0.627,0.022 -0.638,0.033 -0.638,0.044 -0.627,0.055 -0.638,0.065 -0.649,0.077 -0.638,0.088 -0.649,0.088 -0.648,0.099 -0.66,0.11 -0.66,0.121 -0.671,0.121 -0.681,0.132 -0.682,0.143 -0.693,0.154 -1.353,0.726 -1.287,0.781 -1.232,0.825 -1.166,0.88 -1.111,0.902 -1.045,0.957 -0.979,0.99 -0.913,1.023 -0.847,1.067 -0.781,1.089 -0.715,1.122 -0.649,1.155 -0.572,1.177 -0.506,1.199 -0.44,1.221 -0.373,1.241 -0.286,1.265 -0.231,1.276 -0.143,1.298 -0.077,1.298 v 1.319 l 0.077,1.32 0.166,1.33 0.231,1.342 0.308,1.332 0.385,1.342 0.473,1.33 0.55,1.342 0.638,1.332 0.715,1.318 0.792,1.309 0.891,1.299 0.913,0.66 0.957,0.66 0.968,0.67 0.957,0.684 0.462,0.352 0.451,0.352 0.44,0.363 0.429,0.373 0.396,0.375 0.374,0.385 0.352,0.385 0.33,0.396 0.286,0.406 0.253,0.418 0.22,0.43 0.176,0.439 0.121,0.461 0.088,0.463 0.033,0.473 -0.011,0.494 -0.077,0.496 -0.132,0.516 -0.198,0.539 -0.253,0.551 -0.33,0.561 -0.396,0.584 -0.461,0.604 -0.55,0.617 -0.814,0.297 -0.814,0.209 -0.803,0.131 -0.792,0.057 -0.781,-0.023 -0.77,-0.088 -0.759,-0.154 -0.748,-0.219 -0.726,-0.287 -0.726,-0.33 -0.715,-0.385 -0.693,-0.428 -0.682,-0.475 -0.671,-0.516 -0.649,-0.551 -0.649,-0.582 -0.627,-0.617 -0.605,-0.627 -0.594,-0.658 -0.583,-0.672 -0.561,-0.693 -0.55,-0.693 -0.528,-0.703 -0.506,-0.703 -0.495,-0.705 -0.473,-0.691 -0.462,-0.693 -0.44,-0.672 -0.813,-1.297 -0.737,-1.199 -0.715,-1.936 -0.539,-1.463 -0.407,-1.057 -0.286,-0.715 c -1.875,-3.924 -1.285,-15.242 0.285,-19.526 z"
         fill="#65a752"
         id="path4"
         style="display:inline" />
      <path
         fill="#65a752"
         d="m 105.387,132.35 -1.155,-0.573 -0.968,-0.494 -0.418,-0.232 -0.385,-0.231 -0.188,-0.109 -0.175,-0.121 -0.164,-0.121 -0.155,-0.133 -0.154,-0.131 -0.143,-0.143 -0.144,-0.144 -0.131,-0.154 -0.133,-0.153 -0.131,-0.175 -0.121,-0.176 -0.109,-0.188 -0.121,-0.199 -0.112,-0.219 -0.109,-0.22 -0.109,-0.243 -0.1,-0.252 -0.109,-0.275 -0.1,-0.287 -0.109,-0.307 -0.033,-1.033 -0.045,-1.023 -0.043,-1.035 -0.045,-1.034 -0.043,-1.033 -0.045,-1.023 -0.043,-1.034 -0.045,-1.035 -0.033,-1.021 -0.043,-1.035 -0.045,-1.022 -0.045,-1.035 -0.043,-1.023 -0.045,-1.034 -0.043,-1.021 -0.045,-1.024 -0.603,0.088 -0.618,0.088 -0.603,0.076 -0.617,0.088 -0.605,0.088 -0.605,0.088 -0.604,0.078 -0.594,0.088 -0.044,0.693 -0.033,0.737 -0.023,0.781 -0.022,0.824 -0.043,1.75 -0.055,1.824 -0.045,0.936 -0.054,0.945 -0.077,0.948 -0.088,0.933 -0.111,0.924 -0.142,0.902 -0.165,0.891 -0.187,0.857 -0.231,0.827 -0.264,0.781 -0.297,0.736 -0.342,0.694 -0.384,0.626 -0.44,0.573 -0.473,0.506 -0.539,0.427 -0.583,0.352 -0.649,0.264 -0.715,0.177 -0.77,0.076 -0.835,-0.021 -0.903,-0.121 -0.978,-0.242 -1.056,-0.364 -0.352,-0.373 -0.319,-0.386 -0.275,-0.407 -0.264,-0.418 -0.22,-0.427 -0.198,-0.451 -0.165,-0.452 -0.154,-0.463 -0.121,-0.472 -0.099,-0.485 -0.088,-0.494 -0.055,-0.494 -0.055,-0.508 -0.022,-0.505 -0.022,-0.516 v -1.033 l 0.022,-0.518 0.022,-0.529 0.033,-0.516 0.077,-1.045 0.088,-1.035 0.077,-1.021 0.077,-0.991 0.022,-0.496 0.011,-0.472 0.011,-0.473 -0.011,-0.461 -1.375,0.022 h -1.221 l -0.561,-0.012 -0.527,-0.01 -0.495,-0.021 -0.462,-0.034 -0.43,-0.045 -0.406,-0.066 -0.374,-0.066 -0.341,-0.088 -0.319,-0.11 -0.297,-0.121 -0.264,-0.142 -0.242,-0.164 -0.231,-0.188 -0.198,-0.221 -0.176,-0.23 -0.165,-0.264 -0.132,-0.287 -0.132,-0.33 -0.099,-0.34 -0.099,-0.385 -0.077,-0.418 -0.055,-0.451 -0.055,-0.484 -0.044,-0.527 -0.022,-0.563 -0.022,-0.603 -0.011,-0.639 v -0.693 l 0.198,-0.286 0.209,-0.275 0.209,-0.252 0.209,-0.242 0.22,-0.231 0.231,-0.211 0.22,-0.207 0.242,-0.187 0.231,-0.176 0.242,-0.166 0.253,-0.164 0.252,-0.143 0.253,-0.144 0.265,-0.121 0.275,-0.131 0.264,-0.109 0.286,-0.112 0.275,-0.109 0.285,-0.1 0.298,-0.097 0.593,-0.188 0.627,-0.187 0.638,-0.176 0.671,-0.188 0.682,-0.209 0.704,-0.209 0.011,-0.736 -0.011,-0.736 -0.022,-0.727 -0.033,-0.726 -0.055,-0.725 -0.055,-0.715 -0.076,-0.705 -0.078,-0.715 -0.088,-0.703 -0.099,-0.704 -0.11,-0.693 -0.11,-0.704 -0.22,-1.386 L 80.595,91.632 80.353,90.257 80.111,88.894 79.892,87.53 79.693,86.166 79.605,85.484 79.528,84.802 79.451,84.12 79.396,83.438 79.352,82.756 79.308,82.075 79.286,81.393 V 80.71 l 0.187,-0.374 0.176,-0.34 0.177,-0.308 0.175,-0.297 0.165,-0.265 0.176,-0.241 0.165,-0.22 0.176,-0.209 0.165,-0.176 0.176,-0.165 0.165,-0.143 0.187,-0.132 0.176,-0.11 0.187,-0.099 0.198,-0.088 0.198,-0.066 0.209,-0.055 0.209,-0.055 0.231,-0.033 0.231,-0.033 0.253,-0.022 0.253,-0.011 0.275,-0.011 h 0.286 l 1.287,0.011 1.584,0.022 0.505,0.385 0.484,0.429 0.451,0.473 0.429,0.506 0.407,0.55 0.374,0.582 0.363,0.617 0.33,0.648 0.308,0.671 0.286,0.693 0.275,0.726 0.253,0.737 0.231,0.759 0.22,0.781 0.198,0.78 0.198,0.804 0.165,0.803 0.165,0.803 0.154,0.814 0.143,0.814 0.132,0.813 0.121,0.803 0.121,0.803 0.109,0.781 0.199,1.54 0.197,1.474 0.187,1.375 0.199,1.275 0.759,-0.23 0.748,-0.231 0.758,-0.22 0.76,-0.231 0.757,-0.232 0.76,-0.231 0.758,-0.22 0.772,-0.231 0.13,-0.627 0.121,-0.692 0.133,-0.748 0.143,-0.792 0.297,-1.727 0.33,-1.837 0.187,-0.946 0.209,-0.968 0.219,-0.956 0.232,-0.968 0.264,-0.946 0.285,-0.935 0.309,-0.924 0.33,-0.88 0.363,-0.847 0.395,-0.814 0.418,-0.759 0.463,-0.704 0.494,-0.637 0.529,-0.583 0.561,-0.496 0.615,-0.417 0.648,-0.331 0.694,-0.23 0.748,-0.132 0.793,-0.033 0.836,0.088 0.89,0.22 0.946,0.33 1,0.473 0.32,0.517 0.275,0.516 0.252,0.496 0.209,0.495 0.176,0.494 0.154,0.473 0.121,0.484 0.1,0.473 0.064,0.473 0.045,0.462 0.022,0.473 -0.012,0.462 -0.021,0.462 -0.043,0.473 -0.067,0.462 -0.076,0.473 -0.1,0.462 -0.109,0.484 -0.121,0.473 -0.145,0.483 -0.142,0.495 -0.164,0.495 -0.166,0.495 -0.164,0.518 -0.364,1.044 -0.375,1.089 -0.185,0.561 -0.188,0.572 -0.175,0.594 -0.188,0.594 1.42,-0.209 1.406,-0.221 1.399,-0.219 1.385,-0.198 0.671,-0.088 0.659,-0.066 0.65,-0.055 0.637,-0.033 h 0.617 l 0.603,0.011 0.584,0.033 0.573,0.077 0.539,0.099 0.515,0.143 0.496,0.176 0.461,0.209 0.442,0.264 0.406,0.297 0.385,0.352 0.342,0.407 0.306,0.462 0.276,0.506 0.23,0.572 0.199,0.627 0.153,0.703 0.111,0.76 0.076,0.824 0.022,0.903 -0.307,0.56 -0.342,0.518 -0.351,0.472 -0.385,0.428 -0.397,0.397 -0.427,0.363 -0.442,0.318 -0.461,0.297 -0.472,0.266 -0.496,0.24 -0.506,0.209 -0.528,0.187 -0.539,0.166 -0.539,0.153 -0.56,0.133 -0.573,0.109 -0.572,0.1 -0.582,0.087 -0.594,0.088 -0.593,0.067 -1.2,0.131 -1.199,0.132 -0.605,0.067 -0.594,0.066 -0.605,0.076 -0.594,0.088 -0.582,0.1 -0.584,0.109 -0.582,0.121 -0.561,0.143 -0.012,1.221 v 1.22 l -0.011,1.221 -0.01,1.233 v 1.22 l -0.012,1.221 -0.01,1.232 v 1.221 l -0.011,1.232 -0.012,1.221 v 1.233 l -0.01,1.22 v 1.231 l -0.011,1.232 -0.012,1.221 v 1.232 l -0.143,0.364 -0.131,0.33 -0.132,0.306 -0.133,0.297 -0.131,0.276 -0.133,0.253 -0.131,0.231 -0.133,0.23 -0.13,0.2 -0.133,0.197 -0.143,0.176 -0.142,0.164 -0.145,0.166 -0.154,0.142 -0.153,0.133 -0.154,0.131 -0.166,0.121 -0.176,0.111 -0.185,0.11 -0.188,0.099 -0.197,0.098 -0.211,0.1 -0.209,0.099 -0.23,0.088 -1.022,0.395 z"
         id="path6"
         style="display:inline" />
      <path
         fill="#65a752"
         d="m 119.619,131.326 -0.56,-0.517 -0.518,-0.516 -0.463,-0.529 -0.418,-0.528 -0.373,-0.527 -0.33,-0.539 -0.297,-0.539 -0.254,-0.539 -0.209,-0.549 -0.185,-0.563 -0.155,-0.56 -0.121,-0.561 -0.088,-0.572 -0.066,-0.572 -0.045,-0.582 -0.01,-0.584 v -0.594 l 0.022,-0.594 0.033,-0.605 0.055,-0.604 0.066,-0.617 0.067,-0.627 0.087,-0.627 0.088,-0.627 0.198,-1.285 0.199,-1.308 0.097,-0.672 0.088,-0.672 0.088,-0.682 0.078,-0.681 0.407,-0.561 0.429,-0.494 0.451,-0.442 0.483,-0.394 0.496,-0.354 0.527,-0.306 0.539,-0.266 0.551,-0.24 0.572,-0.199 0.582,-0.188 0.606,-0.152 0.603,-0.145 1.245,-0.252 1.275,-0.242 0.639,-0.121 0.648,-0.131 0.637,-0.144 0.65,-0.153 0.637,-0.177 0.639,-0.209 0.638,-0.231 0.615,-0.264 0.616,-0.308 0.617,-0.34 0.594,-0.396 0.582,-0.44 0.56,-0.496 0.551,-0.549 0.539,-0.617 0.516,-0.682 0.396,-1.111 0.319,-1.033 0.242,-0.957 0.154,-0.891 0.078,-0.824 v -0.76 l -0.055,-0.692 -0.132,-0.638 -0.198,-0.594 -0.253,-0.528 -0.309,-0.484 -0.363,-0.451 -0.416,-0.397 -0.452,-0.362 -0.505,-0.33 -0.539,-0.286 -0.584,-0.264 -0.616,-0.242 -0.638,-0.209 -0.67,-0.198 -0.694,-0.176 -0.703,-0.165 -0.738,-0.165 -0.736,-0.143 -1.518,-0.286 -1.518,-0.297 -0.759,-0.154 -0.758,-0.176 -0.738,-0.187 -0.737,-0.197 -0.56,-1.222 -0.451,-1.121 -0.331,-1.045 -0.209,-0.946 -0.109,-0.869 -0.012,-0.781 0.088,-0.704 0.188,-0.638 0.263,-0.561 0.352,-0.494 0.418,-0.419 0.496,-0.373 0.549,-0.309 0.615,-0.242 0.672,-0.197 0.727,-0.154 0.757,-0.099 0.793,-0.055 0.836,-0.022 0.858,0.022 0.869,0.055 0.902,0.088 0.901,0.121 0.914,0.143 0.912,0.154 0.902,0.186 0.891,0.198 0.881,0.209 0.857,0.22 0.836,0.232 0.791,0.23 0.76,0.231 1.351,0.957 1.256,0.99 1.143,1.023 1.045,1.034 0.945,1.067 0.836,1.077 0.748,1.1 0.66,1.111 0.551,1.133 0.473,1.144 0.363,1.166 0.285,1.154 0.187,1.178 0.11,1.176 0.021,1.188 -0.064,1.178 -0.154,1.187 -0.231,1.178 -0.32,1.176 -0.385,1.177 -0.473,1.166 -0.55,1.155 -0.616,1.144 -0.703,1.121 -0.769,1.122 -0.836,1.099 -0.914,1.078 -0.979,1.057 -1.045,1.033 -1.111,1.012 -1.176,0.99 -1.244,0.957 -0.539,0.197 -0.539,0.2 -0.537,0.197 -0.539,0.209 -0.539,0.199 -0.53,0.209 -0.539,0.197 -0.539,0.209 -0.527,0.198 -0.539,0.209 -0.539,0.208 -0.528,0.2 -0.539,0.209 -0.527,0.209 -0.539,0.209 -0.527,0.197 -0.2,1.408 -0.164,1.287 -0.154,1.176 -0.143,1.066 -0.087,0.497 -0.079,0.472 -0.099,0.451 -0.098,0.428 -0.121,0.408 -0.121,0.373 -0.154,0.364 -0.155,0.341 -0.185,0.307 -0.211,0.297 -0.219,0.287 -0.263,0.252 -0.276,0.242 -0.318,0.221 -0.342,0.209 -0.385,0.187 -0.406,0.164 -0.463,0.165 -0.494,0.132 -0.529,0.133 -0.582,0.109 -0.627,0.1 -0.672,0.088 z m -60.108,-0.539 -0.716,-0.363 -0.648,-0.33 -0.583,-0.307 -0.517,-0.287 -0.231,-0.143 -0.22,-0.13 -0.209,-0.145 -0.209,-0.131 -0.187,-0.142 -0.176,-0.133 -0.165,-0.143 -0.165,-0.154 -0.143,-0.154 -0.154,-0.155 -0.132,-0.164 -0.132,-0.176 -0.132,-0.175 -0.121,-0.188 -0.121,-0.209 -0.121,-0.209 -0.11,-0.22 -0.121,-0.243 -0.11,-0.252 -0.121,-0.275 -0.231,-0.582 -0.253,-0.66 0.474,-2.09 0.483,-2.09 0.474,-2.09 0.472,-2.09 0.484,-2.101 0.473,-2.09 0.473,-2.088 0.484,-2.09 0.473,-2.09 0.473,-2.089 0.484,-2.09 0.473,-2.102 0.472,-2.09 0.485,-2.089 0.472,-2.09 0.474,-2.09 -0.319,0.121 -0.33,0.132 -0.331,0.132 -0.33,0.132 -0.318,0.132 -0.33,0.132 -0.33,0.132 -0.33,0.143 -0.231,0.66 -0.231,0.649 -0.242,0.66 -0.231,0.66 -0.231,0.66 -0.242,0.66 -0.231,0.659 -0.231,0.65 -0.231,0.66 -0.231,0.67 -0.231,0.66 -0.231,0.661 -0.231,0.66 -0.231,0.66 -0.231,0.658 -0.231,0.66 -1.034,0.243 -0.956,0.166 -0.903,0.076 -0.835,0.021 -0.77,-0.055 -0.704,-0.121 -0.649,-0.175 -0.594,-0.231 -0.528,-0.297 -0.473,-0.342 -0.429,-0.396 -0.374,-0.439 -0.319,-0.483 -0.264,-0.529 -0.23,-0.561 -0.177,-0.593 -0.132,-0.627 -0.088,-0.649 -0.044,-0.672 -0.011,-0.703 0.022,-0.715 0.066,-0.737 0.111,-0.737 0.131,-0.759 0.165,-0.759 0.199,-0.759 0.219,-0.759 0.253,-0.759 0.286,-0.748 0.297,-0.747 0.33,-0.726 0.341,-0.715 0.528,-0.638 0.583,-0.638 0.638,-0.616 0.671,-0.605 0.715,-0.594 0.748,-0.572 0.792,-0.55 0.814,-0.528 0.846,-0.505 0.88,-0.474 0.891,-0.439 0.913,-0.408 0.935,-0.362 0.935,-0.342 0.957,-0.285 0.957,-0.242 0.956,-0.198 0.957,-0.155 0.957,-0.098 0.946,-0.044 0.946,0.011 0.924,0.065 0.913,0.143 0.891,0.188 0.858,0.274 0.846,0.33 0.814,0.408 0.781,0.472 0.748,0.561 0.704,0.638 0.671,0.715 0.616,0.803 -0.011,1.056 -0.033,1.067 -0.066,1.056 -0.077,1.067 -0.099,1.077 -0.121,1.067 -0.143,1.078 -0.154,1.078 -0.176,1.089 -0.187,1.078 -0.198,1.089 -0.22,1.079 -0.23,1.087 -0.243,1.09 -0.242,1.088 -0.264,1.09 -0.264,1.076 -0.275,1.09 -0.286,1.088 -0.286,1.078 -0.572,2.168 -0.593,2.145 -0.583,2.144 -0.572,2.123 -0.55,2.111 -0.539,2.079 1.265,0.023 1.166,0.01 0.56,0.011 0.528,0.022 0.517,0.021 0.484,0.034 0.473,0.033 0.451,0.055 0.418,0.066 0.407,0.078 0.385,0.098 0.374,0.121 0.341,0.133 0.319,0.164 0.308,0.187 0.286,0.197 0.264,0.243 0.242,0.263 0.22,0.297 0.209,0.33 0.176,0.364 0.165,0.396 0.143,0.428 0.131,0.474 0.1,0.516 0.087,0.561 0.067,0.605 0.055,0.648 0.022,0.694 0.011,0.748 -0.308,0.527 -0.33,0.485 -0.374,0.439 -0.396,0.408 -0.44,0.373 -0.451,0.342 -0.484,0.309 -0.506,0.285 -0.528,0.242 -0.55,0.231 -0.572,0.187 -0.583,0.176 -0.593,0.142 -0.605,0.133 -0.628,0.11 -0.627,0.087 -0.638,0.077 -0.637,0.056 -0.638,0.043 -0.649,0.033 -0.638,0.034 -0.649,0.011 -0.638,0.01 h -0.627 l -1.232,-0.01 -1.188,-0.011 h -1.122 z"
         id="path8"
         style="display:inline" />
      <path
         fill="#ffffff"
         d="m 97.984,8.504 h 69.061 v 83.282 l -0.44,-1.419 -0.462,-1.374 -0.461,-1.343 -0.496,-1.297 -0.506,-1.265 -0.516,-1.232 -0.539,-1.199 -0.572,-1.155 -0.584,-1.132 -0.604,-1.089 -0.627,-1.068 -0.66,-1.022 -0.682,-1.001 -0.705,-0.957 -0.736,-0.935 -0.769,-0.913 -0.793,-0.868 -0.825,-0.848 -0.857,-0.824 -0.891,-0.792 -0.924,-0.759 -0.968,-0.737 -0.99,-0.715 -1.034,-0.682 -1.078,-0.66 -1.111,-0.638 -1.143,-0.605 -1.199,-0.593 -1.232,-0.561 -1.276,-0.55 -1.32,-0.517 -1.375,-0.506 -0.781,-0.143 -0.782,-0.143 -0.779,-0.143 -0.781,-0.143 -0.781,-0.132 -0.793,-0.143 -0.78,-0.143 -0.781,-0.144 -0.781,-0.143 -0.781,-0.131 -0.782,-0.143 -0.779,-0.143 -0.793,-0.132 -0.781,-0.143 -0.779,-0.132 -0.782,-0.132 0.352,-2.277 0.242,-2.222 0.154,-2.188 0.055,-2.145 -0.055,-2.112 -0.132,-2.057 -0.243,-2.024 -0.318,-1.979 -0.408,-1.936 -0.506,-1.902 -0.582,-1.859 -0.672,-1.804 -0.746,-1.771 -0.826,-1.727 -0.912,-1.694 -0.979,-1.639 -1.057,-1.605 -1.132,-1.551 -1.2,-1.517 -1.275,-1.475 -1.332,-1.43 -1.406,-1.385 -1.463,-1.342 -1.529,-1.309 -1.584,-1.254 -1.639,-1.21 -1.705,-1.176 -1.748,-1.133 -1.805,-1.078 -1.859,-1.045 L 99.941,9.45 Z M 25.558,88.366 V 8.504 h 69.28 l -1.023,0.517 -0.901,0.451 -0.814,0.407 -0.726,0.374 -0.66,0.352 -0.627,0.33 -0.594,0.318 -0.583,0.33 -0.605,0.342 -0.627,0.373 -0.681,0.408 -0.748,0.451 -0.836,0.506 -0.946,0.572 -1.056,0.659 -1.21,0.737 -1.441,1.331 -1.353,1.309 -1.286,1.298 -1.21,1.264 -1.133,1.266 -1.067,1.242 -1.001,1.232 -0.924,1.232 -0.869,1.232 -0.803,1.221 -0.748,1.232 -0.693,1.231 -0.627,1.243 -0.583,1.254 -0.516,1.265 -0.485,1.276 -0.428,1.309 -0.385,1.319 -0.341,1.342 -0.308,1.375 -0.264,1.397 -0.22,1.43 -0.198,1.474 -0.154,1.507 -0.132,1.55 -0.099,1.595 -0.077,1.628 -0.055,1.694 -0.033,1.738 -0.011,1.793 0.011,1.847 0.022,1.914 -1.76,0.088 -1.694,0.11 -1.628,0.121 -1.561,0.154 -1.518,0.187 -1.452,0.209 -1.408,0.231 -1.363,0.274 -1.309,0.297 -1.265,0.33 -1.221,0.374 -1.177,0.408 -1.155,0.451 -1.111,0.483 -1.077,0.529 -1.056,0.571 -1.023,0.616 -1.001,0.66 -0.968,0.715 -0.968,0.759 -0.935,0.803 -0.924,0.869 -0.924,0.913 -0.901,0.979 -0.902,1.023 -0.891,1.088 -0.891,1.155 -0.902,1.21 -0.891,1.276 -0.902,1.331 -0.913,1.407 -0.924,1.474 -0.715,2.112 -0.539,1.584 -0.406,1.133 -0.286,0.78 -0.121,0.275 -0.088,0.21 -0.088,0.165 -0.078,0.11 -0.076,0.088 -0.067,0.066 -0.076,0.044 z"
         id="path10"
         style="display:none" />
    </g>
    <g
       id="g61"
       transform="matrix(0.26458333,0,0,0.26458333,84.777499,177.66413)">
      <g
         id="Layer1003"
         transform="translate(-178.98287,-278.94886)">
        <path
           d="m 293.0098,289.5454 c 1.0667,1.2563 2.0992,2.4841 3.0988,3.6878 -8.6578,10.3091 -14.9481,18.7689 -19.3678,27.6783 -4.7296,9.5342 -7.2851,19.5101 -8.2549,32.693 -0.3304,4.4909 0.1594,10.4694 1.1539,17.247 0.9855,6.7168 2.4664,14.2291 4.1321,21.8541 l 0.006,-10e-4 c 0.054,0.2508 0.1684,0.4929 0.345,0.7029 6.0671,7.2191 11.0238,16.37 14.4327,26.8194 3.2888,10.0805 5.1288,21.3641 5.1288,33.2845 l 0.001,1.0134 c -0.003,0.3157 -0.008,0.6512 -0.0151,1.0037 h 5e-4 l -5e-4,0.0318 2e-4,0.0745 h -0.006 c 0,4.9019 -0.3796,9.6914 -1.091,14.3248 -0.7392,4.8127 -1.8388,9.4658 -3.2447,13.91 -1.2717,4.0196 -2.6033,7.6939 -4.0044,11.0221 -1.405,3.3369 -2.8986,6.3797 -4.4905,9.1287 l 0.002,9e-4 c -0.1737,0.2994 -0.2538,0.6565 -0.2058,1.0265 1.4832,11.4076 2.6703,19.1167 5.0335,26.0383 1.9702,5.7713 4.7366,10.9465 9.1349,17.1724 -0.5595,0.7662 -1.1435,1.549 -1.753,2.352 -0.5427,0.7153 -1.5631,0.8556 -2.2784,0.3129 -0.1307,-0.0992 -0.2421,-0.2142 -0.3337,-0.3405 -6.1655,-8.1227 -9.7026,-14.219 -12.0802,-21.1838 -2.3632,-6.9216 -3.5503,-14.6307 -5.0335,-26.0383 -0.0481,-0.37 0.0321,-0.7271 0.2058,-1.0265 l -0.002,-9e-4 c 1.5919,-2.749 3.0855,-5.7918 4.4905,-9.1287 1.4011,-3.3282 2.7327,-7.0025 4.0044,-11.0221 1.4059,-4.4442 2.5055,-9.0973 3.2447,-13.91 0.7114,-4.6334 1.091,-9.4229 1.091,-14.3248 h 0.006 l -3e-4,-0.0745 6e-4,-0.0318 h -6e-4 c 0.007,-0.3526 0.0121,-0.688 0.0152,-1.0037 l -10e-4,-1.0134 c 0,-11.9204 -1.84,-23.2041 -5.1288,-33.2845 -3.4089,-10.4494 -8.3656,-19.6004 -14.4327,-26.8194 -0.1766,-0.21 -0.291,-0.4521 -0.345,-0.7029 l -0.006,10e-4 c -1.6657,-7.625 -3.1466,-15.1373 -4.1321,-21.8542 -0.9945,-6.7776 -1.4843,-12.7561 -1.1539,-17.2469 0.9698,-13.1829 3.5253,-23.1588 8.2549,-32.693 4.705,-9.4847 11.5299,-18.4593 21.0742,-29.6985 0.5814,-0.6872 1.6102,-0.7729 2.2974,-0.1915 0.0768,0.065 0.1462,0.1358 0.2078,0.2109 z"
           style="fill:#c4c6c8;fill-rule:evenodd"
           id="path294" />
        <path
           d="m 350.0028,371.2541 c 7.0996,0 13.2785,0.9413 18.5893,2.6033 -3.4505,-0.5966 -7.2061,-0.9163 -11.2789,-0.9163 -15.5821,0 -29.6496,9.1155 -39.7967,23.8533 -10.0341,14.5733 -16.2406,34.6735 -16.2406,56.8457 0,5.2182 0.3928,10.3243 1.1294,15.2703 0.7665,5.1463 1.9047,10.1154 3.3592,14.8559 2.0081,6.5448 4.1096,12.1462 6.3946,16.8927 2.307,4.7919 4.806,8.7095 7.5885,11.8414 3.3465,3.7671 7.8365,6.5889 12.7094,8.2982 -0.4988,-0.0577 -0.9973,-0.1271 -1.495,-0.2075 -7.0224,-1.136 -13.8765,-4.5454 -18.5248,-9.7777 -2.7825,-3.132 -5.2815,-7.0495 -7.5885,-11.8415 -2.2851,-4.7464 -4.3865,-10.3478 -6.3946,-16.8926 -1.4545,-4.7405 -2.5927,-9.7096 -3.3592,-14.8559 -0.7366,-4.946 -1.1294,-10.0521 -1.1294,-15.2703 0,-22.1722 6.2065,-42.2724 16.2406,-56.8457 10.1471,-14.7378 24.2146,-23.8533 39.7967,-23.8533 z m 6.7149,69.6937 c -1.2835,-0.0843 -2.5954,-0.2252 -3.9347,-0.4262 -0.8915,-0.1308 -1.5118,-0.9821 -1.385,-1.9016 0.0489,-0.354 0.2016,-0.6666 0.4218,-0.9095 2.4163,-3.152 3.5118,-6.3337 3.5188,-9.2424 0.006,-2.4863 -0.7853,-4.7947 -2.2232,-6.7213 -1.3682,-1.833 -3.3257,-3.3347 -5.748,-4.3385 3.3229,0.004 6.269,0.8795 8.6542,2.3422 2.0027,1.2284 3.6059,2.8671 4.6946,4.7405 1.0744,1.8487 1.6502,3.9285 1.6156,6.0648 -0.0568,3.5028 -1.7651,7.2084 -5.6141,10.392 z M 334.006,493.461 c 0.965,0.0228 1.9111,-0.0315 2.8255,-0.1569 2.8029,-0.3846 5.2876,-1.4373 7.061,-2.9697 1.4831,-1.2816 2.4492,-2.8986 2.6351,-4.7205 0.0914,-0.9228 0.8919,-1.5945 1.7871,-1.5004 0.2013,0.0214 0.426,0.0526 0.6709,0.0923 2.0165,0.3261 3.7477,1.1069 5.1904,2.2302 -0.1836,0.2412 -0.3057,0.5373 -0.338,0.8649 -0.1859,1.822 -1.152,3.439 -2.6351,4.7205 -1.7734,1.5324 -4.2581,2.5851 -7.061,2.9697 -2.8649,0.3934 -6.0427,0.0892 -9.1293,-1.1064 -0.3369,-0.1304 -0.6726,-0.2718 -1.0066,-0.4237 z"
           style="fill:#c4c6c8;fill-rule:evenodd"
           id="path296" />
        <path
           d="m 192.2932,392.2189 c 5.7016,-11.734 18.9261,-20.9648 41.1705,-20.9648 4.3525,0 8.5872,0.7122 12.651,2.0584 -1.7804,-0.2446 -3.5852,-0.3714 -5.4109,-0.3714 -22.1792,0 -35.3452,9.4425 -41.0164,21.4805 -2.596,5.5098 -3.6094,11.5541 -3.189,17.4834 0.4192,5.9189 2.2698,11.7346 5.4015,16.7979 2.5289,4.0888 5.8877,7.6849 9.9976,10.4477 -7.6608,-2.5733 -13.5951,-7.5708 -17.5068,-13.7377 -3.1002,-4.8878 -4.9238,-10.5132 -5.3239,-16.2493 -0.4007,-5.7378 0.6267,-11.5946 3.2264,-16.9447 z m 52.2953,128.6736 c -1.2124,-0.1102 -2.4066,-0.2955 -3.5714,-0.5587 -3.7208,-0.8404 -7.1637,-2.4723 -9.9796,-4.9742 -3.3833,-3.0057 -5.8314,-7.237 -6.7346,-12.8202 -0.0627,-0.3872 -0.1158,-0.7791 -0.1588,-1.1722 l -0.006,-0.0492 c -0.4252,-3.9628 0.2117,-7.866 1.8816,-10.949 1.7398,-3.2121 4.5695,-5.534 8.4612,-6.1632 0.2446,-0.0394 0.4695,-0.0709 0.6709,-0.0923 0.8952,-0.0941 1.6957,0.5776 1.7871,1.5004 0.0666,0.6545 0.2339,1.2824 0.4901,1.8782 -1.759,1.1092 -3.1508,2.684 -4.1692,4.5639 -1.6699,3.083 -2.3067,6.9862 -1.8816,10.949 l 0.006,0.0492 c 0.043,0.3931 0.0961,0.7851 0.1588,1.1722 0.9032,5.5832 3.3513,9.8145 6.7346,12.8202 1.863,1.6553 4.0002,2.9295 6.3109,3.8459 z m 4.3707,-27.4261 c 2.2103,0.009 4.5325,-0.3883 6.8052,-1.2687 4.1779,-1.6178 8.1936,-4.88 11.0573,-10.2686 l 0.003,0.002 c 1.8073,-3.5031 3.25,-7.5038 4.2366,-11.8569 l 0.0127,-0.0619 c 0.9548,-4.2321 1.4747,-8.7969 1.4747,-13.561 0,-8.4877 -2.0798,-18.1594 -6.3477,-25.905 -3.067,-5.5666 -7.2634,-10.1216 -12.6191,-12.4629 6.4846,0.3341 11.7188,3.4784 15.7415,8.1514 4.3635,5.0689 7.3377,11.9393 8.9719,19.0287 0.9998,4.3374 1.4935,8.7483 1.4935,12.8748 0,4.7641 -0.5198,9.3289 -1.4747,13.5611 l -0.0127,0.0618 c -0.9866,4.3531 -2.4293,8.3538 -4.2366,11.8569 l -0.003,-0.002 c -2.8637,5.3886 -6.8794,8.6507 -11.0573,10.2685 -3.0867,1.1956 -6.2644,1.4998 -9.1293,1.1064 -1.8059,-0.2477 -3.4795,-0.7729 -4.916,-1.5247 z"
           style="fill:#c4c6c8;fill-rule:evenodd"
           id="path298" />
        <path
           d="m 303.558,292.266 c 18.931,22.2929 27.0388,35.5338 28.9462,61.4535 0.6426,8.7312 -1.9344,23.4436 -5.2541,38.6414 -12.1784,14.4905 -19.9509,36.5012 -19.9509,61.1503 0,0.6852 0.007,1.3681 0.0206,2.0491 l -4e-4,0.0744 c 0,10.1584 1.6059,19.8553 4.4123,28.7263 2.5506,8.0611 5.4001,14.8797 8.6419,20.4762 -2.9385,22.5977 -4.6923,30.5112 -16.8156,46.4775 -12.1232,-15.9663 -13.8771,-23.8798 -16.8156,-46.4775 3.2418,-5.5965 6.0914,-12.4151 8.6419,-20.4762 2.8065,-8.871 4.4123,-18.5679 4.4123,-28.7263 l -4e-4,-0.0744 c 0.0136,-0.681 0.0207,-1.3639 0.0207,-2.0491 0,-24.6491 -7.7726,-46.6598 -19.9509,-61.1503 -3.3198,-15.1978 -5.8967,-29.9102 -5.2541,-38.6414 1.9074,-25.9197 10.0151,-39.1606 28.9461,-61.4535 z"
           style="fill:#ffffff;fill-rule:evenodd"
           id="path300" />
        <path
           d="m 304.8189,291.2324 c 9.5356,11.2302 16.3556,20.2001 21.0576,29.6791 4.7296,9.5342 7.2851,19.5101 8.2552,32.693 0.3301,4.4909 -0.1597,10.4696 -1.1542,17.247 -0.9858,6.7165 -2.4667,14.2291 -4.1321,21.8541 -0.0686,0.3172 -0.2252,0.593 -0.4386,0.807 -6.0269,7.2027 -10.9527,16.3154 -14.345,26.7142 -3.2889,10.0805 -5.1288,21.3641 -5.1288,33.2845 l -10e-4,1.0134 c 0.003,0.3169 0.008,0.6514 0.0154,1.0037 l -3e-4,0.0664 -2e-4,0.0399 h 0.006 c 0,4.9017 0.3796,9.6908 1.091,14.3242 0.7394,4.8128 1.8388,9.4661 3.2447,13.9106 1.2714,4.0196 2.6033,7.6939 4.0044,11.0221 1.405,3.3369 2.8983,6.3797 4.4908,9.1287 0.1996,0.345 0.259,0.7328 0.1951,1.0969 -1.4792,11.3694 -2.6663,19.0616 -5.0245,25.9688 -2.3806,6.9727 -5.9225,13.0747 -12.1009,21.2114 -0.5427,0.7153 -1.5631,0.8556 -2.2783,0.313 -0.1308,-0.0993 -0.2421,-0.2143 -0.3338,-0.3405 -6.1655,-8.1227 -9.7026,-14.2191 -12.0802,-21.1839 -2.3632,-6.9216 -3.5503,-14.6307 -5.0335,-26.0383 -0.048,-0.37 0.0321,-0.7271 0.2059,-1.0265 l -0.002,-9e-4 c 1.592,-2.749 3.0855,-5.7918 4.4905,-9.1287 1.4011,-3.3282 2.7327,-7.0025 4.0044,-11.0221 1.4059,-4.4442 2.5055,-9.0973 3.2447,-13.91 0.7114,-4.6334 1.091,-9.4229 1.091,-14.3248 h 0.006 l -2e-4,-0.0745 5e-4,-0.0318 h -5e-4 c 0.007,-0.3525 0.0121,-0.688 0.0151,-1.0037 l -0.001,-1.0134 c 0,-11.9204 -1.8399,-23.204 -5.1288,-33.2845 -3.4089,-10.4494 -8.3656,-19.6003 -14.4327,-26.8194 -0.1766,-0.21 -0.291,-0.4521 -0.345,-0.7029 l -0.006,10e-4 c -1.6656,-7.625 -3.1466,-15.1373 -4.1321,-21.8541 -0.9945,-6.7776 -1.4843,-12.7561 -1.1539,-17.247 0.9698,-13.1829 3.5253,-23.1588 8.2549,-32.693 4.7051,-9.4847 11.5299,-18.4593 21.0742,-29.6985 0.5814,-0.6872 1.6102,-0.7729 2.2974,-0.1915 0.0768,0.065 0.1462,0.1358 0.2078,0.2109 z m 18.1346,31.1215 c -4.3539,-8.7769 -10.6583,-17.1938 -19.3954,-27.5638 -8.737,10.3698 -15.0417,18.7866 -19.3956,27.5638 -4.5333,9.1389 -6.9862,18.7442 -7.9231,31.4806 -0.3121,4.2395 0.1654,9.9838 1.1281,16.5446 0.9551,6.5096 2.3905,13.8155 4.0109,21.2564 6.2203,7.496 11.2923,16.9011 14.7771,27.583 3.3954,10.4072 5.2953,22.0344 5.2953,34.2928 l -0.0118,1.0387 c -0.003,0.3644 -0.009,0.7108 -0.0152,1.0367 l 3e-4,0.048 h 0.006 c 0,5.0594 -0.393,10.0114 -1.1297,14.8095 -0.7665,4.9913 -1.9052,9.8109 -3.3594,14.4083 -1.2788,4.0412 -2.6478,7.8075 -4.1192,11.3027 -1.3856,3.2911 -2.8474,6.2971 -4.3938,9.0185 1.4216,10.89 2.5806,18.3002 4.8221,24.8658 2.0916,6.1275 5.1555,11.583 10.3076,18.5625 5.1519,-6.9795 8.2158,-12.435 10.3077,-18.5625 2.2412,-6.5656 3.4002,-13.9758 4.8221,-24.8655 -1.5467,-2.7215 -3.0085,-5.7277 -4.3941,-9.0188 -1.4714,-3.4952 -2.841,-7.2618 -4.1192,-11.3027 -1.4545,-4.598 -2.5926,-9.4175 -3.3594,-14.4089 -0.7367,-4.7981 -1.1297,-9.7498 -1.1297,-14.8089 h 0.006 v -0.006 l 3e-4,-0.0476 c -0.007,-0.3247 -0.0118,-0.6703 -0.0152,-1.0307 l -0.0118,-1.0387 c 0,-12.2584 1.8999,-23.8856 5.2953,-34.2928 3.4848,-10.6819 8.5568,-20.087 14.7771,-27.583 1.6201,-7.4412 3.0555,-14.7468 4.0109,-21.2564 0.9627,-6.5608 1.4402,-12.3051 1.1283,-16.5446 -0.9371,-12.7364 -3.39,-22.3417 -7.9233,-31.4806 z m -14.0062,133.2128 -3e-4,0.0281"
           style="fill:#1b1918;fill-rule:evenodd"
           id="path302" />
        <path
           d="m 303.558,532.942 h -0.0458 c -0.7279,-9.8924 -1.1532,-21.4574 -1.1343,-35.476 V 355.9767 c -0.0231,-28.0856 1.0128,-42.6653 1.1121,-45.0643 h 0.068 0.068 c 0.0993,2.399 1.1352,16.9787 1.1122,45.0643 V 497.466 c 0.0189,14.0186 -0.4064,25.5836 -1.1344,35.476 z"
           style="fill:#1b1918;fill-rule:evenodd"
           id="path304" />
        <path
           d="m 361.812,374.6255 c 61.9916,0 51.13,73.1441 3.01,65.9184 10.7632,-13.8762 -1.823,-29.0098 -21.2225,-23.2527 -15.2374,4.523 -22.5064,24.7705 -22.5064,40.8468 0,9.9593 2.2223,19.106 5.9312,26.2872 9.6732,18.2032 31.8302,13.8537 32.9337,3.0467 7.4587,0.8005 10.6776,8.6205 9.4065,16.4782 -3.4982,21.6214 -31.7724,21.0904 -43.918,7.4187 -5.3454,-6.0172 -9.6513,-15.1552 -13.6259,-28.1093 -2.8065,-9.146 -4.4121,-19.1451 -4.4121,-29.6193 0,-43.6387 24.3573,-79.0147 54.4035,-79.0147 z"
           style="fill:#ffffff;fill-rule:evenodd"
           id="path306" />
        <path
           d="m 361.812,372.9411 c 22.2444,0 35.4689,9.2308 41.1705,20.9648 2.5997,5.3501 3.6271,11.2069 3.2264,16.9447 -0.4001,5.7362 -2.2238,11.3615 -5.3239,16.2494 -6.6843,10.5376 -19.2717,17.6642 -36.2928,15.1086 -0.8916,-0.1307 -1.5119,-0.9821 -1.3851,-1.9015 0.0489,-0.354 0.2016,-0.6667 0.4218,-0.9096 2.4163,-3.1519 3.5118,-6.3336 3.5188,-9.2423 0.006,-2.4864 -0.7853,-4.7948 -2.2232,-6.7214 -1.4708,-1.9704 -3.6226,-3.5585 -6.3004,-4.5561 -3.9046,-1.4547 -8.9128,-1.6488 -14.5778,0.0321 -6.4934,1.9277 -11.4687,6.966 -14.9715,13.3232 -4.2678,7.7457 -6.3477,17.4173 -6.3477,25.905 0,4.7641 0.5199,9.3289 1.4748,13.5611 l 0.0126,0.0618 c 0.9867,4.3531 2.4293,8.3538 4.2367,11.8569 l 0.003,-0.002 c 2.8637,5.3886 6.8794,8.6507 11.0573,10.2685 3.0867,1.1956 6.2644,1.4998 9.1293,1.1064 2.8029,-0.3846 5.2876,-1.4373 7.061,-2.9697 1.4831,-1.2815 2.4492,-2.8985 2.6351,-4.7205 0.0914,-0.9228 0.8919,-1.5945 1.7871,-1.5003 0.2013,0.0213 0.426,0.0525 0.6709,0.0922 3.8917,0.6292 6.7211,2.9509 8.4612,6.1632 1.6699,3.083 2.3067,6.9862 1.8816,10.949 l -0.006,0.0492 c -0.043,0.3931 -0.0962,0.7851 -0.1589,1.1722 -0.9031,5.5832 -3.3512,9.8145 -6.7345,12.8202 -2.8159,2.5019 -6.2589,4.1338 -9.9796,4.9742 -3.6552,0.8255 -7.5991,0.8865 -11.4874,0.2573 -7.0225,-1.1359 -13.8766,-4.5454 -18.5249,-9.7777 -2.7824,-3.1319 -5.2815,-7.0495 -7.5885,-11.8414 -2.285,-4.7465 -4.3865,-10.3479 -6.3946,-16.8927 -1.4545,-4.7405 -2.5927,-9.7096 -3.3591,-14.8559 -0.7367,-4.946 -1.1295,-10.0521 -1.1295,-15.2703 0,-22.1722 6.2065,-42.2724 16.2406,-56.8457 10.1472,-14.7378 24.2146,-23.8533 39.7968,-23.8533 z m 38.2598,22.4652 c -5.1935,-10.6881 -17.4533,-19.0962 -38.2598,-19.0962 -14.464,0 -27.5988,8.5726 -37.1414,22.4322 -9.6559,14.0239 -15.6282,33.4314 -15.6282,54.8978 0,5.0532 0.3795,9.9917 1.0912,14.7704 0.7392,4.9626 1.8385,9.7602 3.2444,14.3425 1.9662,6.4087 4.0055,11.8546 6.2029,16.4191 2.1757,4.5193 4.5029,8.1804 7.0655,11.0649 4.1377,4.6576 10.2902,7.7007 16.6224,8.725 3.4848,0.5637 7.0214,0.5092 10.3004,-0.2314 3.2126,-0.7257 6.1607,-2.1127 8.5371,-4.224 2.8292,-2.5134 4.882,-6.0857 5.6499,-10.8329 0.0537,-0.3324 0.0989,-0.6622 0.1341,-0.9864 l 0.005,-0.0506 c 0.3528,-3.2894 -0.1493,-6.4815 -1.4857,-8.9488 -1.1205,-2.0691 -2.8517,-3.629 -5.1755,-4.2743 -0.5854,2.0058 -1.7902,3.7629 -3.4387,5.1873 -2.2348,1.9313 -5.3082,3.2497 -8.7334,3.7199 -3.3645,0.4622 -7.0892,0.1074 -10.6994,-1.2909 -4.8487,-1.8776 -9.4906,-5.6284 -12.7679,-11.7953 l 0.003,-0.002 -0.01,-0.018 c -1.9465,-3.7691 -3.4957,-8.0496 -4.5473,-12.6839 l -0.0172,-0.0688 c -1.013,-4.4892 -1.5641,-9.3112 -1.5641,-14.3242 0,-9.0011 2.2221,-19.288 6.7818,-27.5633 3.8984,-7.0754 9.5072,-12.7044 16.9115,-14.9023 6.3578,-1.8864 12.065,-1.6364 16.582,0.0467 3.2708,1.2186 5.9251,3.1924 7.7681,5.6616 1.876,2.5137 2.9082,5.5264 2.9003,8.7745 -0.007,2.9084 -0.8505,5.9897 -2.6734,9.0432 14.2261,1.2611 24.7303,-4.9654 30.4234,-13.9407 2.796,-4.4081 4.44,-9.4773 4.8004,-14.6438 0.3605,-5.1657 -0.5567,-10.4227 -2.8817,-15.2076 z"
           style="fill:#1b1918;fill-rule:evenodd"
           id="path308" />
        <path
           d="m 311.2699,437.4888 c -3.337,11.8365 -2.9025,24.7125 0.0456,36.3592 13.5519,53.5386 57.884,43.0169 49.99,14.8418 5.1589,26.6482 -34.7565,34.6 -47.4132,-15.3972 -2.8594,-11.2971 -3.288,-23.7627 -0.0661,-35.1908 4.086,-18.8794 23.0052,-45.145 46.3192,-42.7489 23.7361,2.777 28.2701,27.3759 13.4474,41.4242 18.7362,-12.8083 11.8682,-45.3381 -17.839,-44.1128 -20.6587,0.8561 -39.3381,22.2335 -44.4839,44.8245 z"
           style="fill:#1b1918;fill-rule:evenodd"
           id="path310" />
        <path
           d="m 245.2728,374.6255 c -61.9916,0 -51.1301,73.1441 -3.01,65.9184 -10.7632,-13.8762 1.823,-29.0098 21.2225,-23.2527 15.2374,4.523 22.5063,24.7705 22.5063,40.8468 0,9.9593 -2.2222,19.106 -5.9312,26.2872 -9.6731,18.2032 -31.8301,13.8537 -32.9336,3.0467 -7.4587,0.8005 -10.6776,8.6205 -9.4065,16.4782 3.4982,21.6214 31.7723,21.0904 43.918,7.4187 5.3454,-6.0172 9.6513,-15.1552 13.6259,-28.1093 2.8065,-9.146 4.4121,-19.1451 4.4121,-29.6193 0,-43.6387 -24.3573,-79.0147 -54.4035,-79.0147 z"
           style="fill:#ffffff;fill-rule:evenodd"
           id="path312" />
        <path
           d="m 245.2728,376.3101 c -20.8065,0 -33.0663,8.4081 -38.2598,19.0962 -2.325,4.7849 -3.2422,10.0419 -2.8817,15.2076 0.3604,5.1665 2.0044,10.2357 4.8004,14.6438 5.6931,8.9755 16.1973,15.2018 30.4234,13.9407 -1.8229,-3.0535 -2.6664,-6.1348 -2.6734,-9.0432 -0.008,-3.2481 1.0243,-6.2608 2.9003,-8.7745 1.843,-2.4692 4.4973,-4.443 7.7681,-5.6616 4.517,-1.6831 10.2242,-1.9331 16.582,-0.0467 7.4043,2.1979 13.0131,7.8269 16.9115,14.9023 4.5597,8.2753 6.7818,18.5622 6.7818,27.5633 0,5.013 -0.5511,9.835 -1.5642,14.3242 l -0.0171,0.0688 c -1.0516,4.6343 -2.6008,8.9148 -4.5474,12.6839 l -0.01,0.018 0.003,0.002 c -3.2773,6.1669 -7.9192,9.9177 -12.7679,11.7953 -3.6102,1.3983 -7.3352,1.7528 -10.6994,1.2909 -3.4252,-0.4702 -6.4986,-1.7886 -8.7334,-3.7199 -1.6485,-1.4244 -2.8533,-3.1815 -3.4387,-5.1873 -2.3238,0.6453 -4.055,2.2052 -5.1755,4.2743 -1.3364,2.4673 -1.8385,5.6594 -1.4857,8.9488 l 0.005,0.0506 c 0.0352,0.3242 0.0804,0.654 0.1341,0.9864 0.7679,4.7472 2.8207,8.3195 5.6499,10.8329 2.3764,2.1113 5.3245,3.4983 8.5371,4.224 3.279,0.7406 6.8155,0.7951 10.3004,0.2314 6.3322,-1.0243 12.4847,-4.0674 16.6224,-8.725 2.5623,-2.8845 4.8898,-6.5456 7.0655,-11.0649 2.1971,-4.5645 4.2367,-10.0104 6.2029,-16.4191 1.4059,-4.5823 2.5052,-9.3799 3.2444,-14.3425 0.7117,-4.7787 1.0912,-9.7172 1.0912,-14.7704 0,-21.4664 -5.9723,-40.8739 -15.6282,-54.8978 -9.5426,-13.8596 -22.6772,-22.4322 -37.1414,-22.4322 z m -41.1705,17.5958 c 5.7016,-11.734 18.9261,-20.9648 41.1705,-20.9648 15.5819,0 29.6496,9.1155 39.7968,23.8533 10.0341,14.5733 16.2406,34.6735 16.2406,56.8457 0,5.2182 -0.3928,10.3243 -1.1295,15.2703 -0.7664,5.1463 -1.9046,10.1154 -3.3591,14.8559 -2.0081,6.5448 -4.1099,12.146 -6.3946,16.8927 -2.307,4.7922 -4.8063,8.7095 -7.5885,11.8414 -4.6483,5.2323 -11.5024,8.6418 -18.5249,9.7777 -3.8883,0.6292 -7.8322,0.5682 -11.4874,-0.2573 -3.7207,-0.8404 -7.1637,-2.4723 -9.9796,-4.9742 -3.3833,-3.0057 -5.8314,-7.237 -6.7345,-12.8202 -0.0627,-0.3871 -0.1159,-0.7791 -0.1589,-1.1722 l -0.006,-0.0492 c -0.4251,-3.9628 0.2117,-7.866 1.8816,-10.949 1.7399,-3.2121 4.5695,-5.534 8.4612,-6.1632 0.2446,-0.0394 0.4696,-0.0709 0.6709,-0.0922 0.8952,-0.0942 1.6957,0.5775 1.7871,1.5003 0.1858,1.822 1.1519,3.439 2.6351,4.7205 1.7733,1.5324 4.258,2.5851 7.061,2.9697 2.8649,0.3934 6.0426,0.0892 9.1293,-1.1064 4.1779,-1.6178 8.1936,-4.8799 11.0573,-10.2685 l 0.003,0.002 c 1.8073,-3.5031 3.25,-7.5038 4.2367,-11.8569 l 0.0126,-0.0618 c 0.9549,-4.2322 1.4747,-8.797 1.4747,-13.5611 0,-8.4877 -2.0798,-18.1593 -6.3476,-25.905 -3.5029,-6.3572 -8.4781,-11.3955 -14.9715,-13.3232 -5.665,-1.6809 -10.6732,-1.4868 -14.5778,-0.0321 -2.6775,0.9976 -4.8296,2.5857 -6.3004,4.5561 -1.4379,1.9266 -2.2291,4.235 -2.2232,6.7214 0.007,2.9087 1.1024,6.0904 3.5188,9.2423 0.2202,0.2429 0.3728,0.5556 0.4218,0.9096 0.1268,0.9194 -0.4935,1.7708 -1.3851,1.9015 -17.0211,2.5556 -29.6085,-4.571 -36.2928,-15.1086 -3.1001,-4.8879 -4.9238,-10.5132 -5.3239,-16.2494 -0.4007,-5.7378 0.6267,-11.5946 3.2264,-16.9447 z"
           style="fill:#1b1918;fill-rule:evenodd"
           id="path314" />
        <path
           d="m 295.8149,437.4888 c 3.337,11.8365 2.9025,24.7125 -0.0456,36.3592 -13.5519,53.5386 -57.884,43.0169 -49.9901,14.8418 -5.1588,26.6482 34.7566,34.6 47.4133,-15.3972 2.8594,-11.2971 3.288,-23.7627 0.0661,-35.1908 -4.086,-18.8794 -23.0052,-45.145 -46.3192,-42.7489 -23.7361,2.777 -28.2701,27.3759 -13.4474,41.4242 -18.7362,-12.8083 -11.8682,-45.3381 17.8389,-44.1128 20.6588,0.8561 39.3382,22.2335 44.484,44.8245 z"
           style="fill:#1b1918;fill-rule:evenodd"
           id="path316" />
        <path
           d="m 265.5871,486.0045 c 4.3567,-4.8685 7.1568,-6.7435 13.6893,-7.6383 7.4555,-0.8071 14.9601,0.191 22.3797,0.8987 11.178,1.0195 19.523,1.4618 30.6687,-0.9823 6.4867,-1.6505 11.1708,-3.6761 16.7739,-7.31 6.195,-4.2626 10.2379,-9.5213 14.7102,-15.49 -7.7473,-5.4454 -15.4946,-10.8915 -23.2419,-16.3369 -2.2933,3.0602 -4.3626,5.3173 -7.5408,7.5029 -2.5284,1.64 -4.578,2.5024 -7.5045,3.2467 -7.117,1.5605 -13.8929,0.9434 -21.0747,0.2881 -10.2276,-0.9757 -18.3974,-0.7913 -28.7811,0.3316 -6.1739,0.8463 -10.7842,2.1326 -16.4094,4.8273 -6.2545,3.219 -10.3949,6.5599 -15.0493,11.7619 z"
           style="fill:#1b1918;fill-rule:evenodd"
           id="path318" />
        <path
           d="m 255.5139,474.5683 c 3.111,-3.2308 5.8113,-5.3288 9.8279,-7.389 4.1298,-1.9765 7.4979,-2.8831 12.0302,-3.5038 9.0079,-0.9744 16.8362,-0.009 25.7561,0.8433 9.1251,0.8315 16.5345,0.249 25.6082,-1.741 4.6087,-1.1724 7.9037,-2.5848 11.8847,-5.1665 4.147,-2.8472 6.9155,-5.618 10.0159,-9.5335 l -9.6322,-6.9247 c -2.233,2.8199 -4.1081,4.7203 -7.0953,6.7699 -2.6973,1.749 -4.8915,2.676 -8.0137,3.4703 -7.3537,1.6123 -14.1845,1.0021 -21.6018,0.3267 -10.0775,-0.9626 -18.2035,-0.7808 -28.4295,0.3256 -5.9861,0.82 -10.4459,2.0602 -15.9006,4.6732 -5.3884,2.7636 -9.0579,5.5798 -13.2315,9.9142 2.9275,2.6453 5.8547,5.2903 8.7816,7.9353 z"
           style="fill:#ffffff;fill-rule:evenodd"
           id="path320" />
        <path
           d="m 265.4511,483.5469 c 1.8994,-1.9742 3.5226,-3.2733 5.9763,-4.5313 2.6137,-1.2527 4.7815,-1.7868 7.6504,-2.18 7.577,-0.8196 15.1906,0.1732 22.7318,0.8934 10.9708,0.9998 19.2038,1.4539 30.1411,-0.9444 6.2911,-1.6011 10.8303,-3.5618 16.2648,-7.0871 5.4474,-3.7376 9.4643,-8.6282 13.5362,-13.77 l -9.8634,-6.9181 c -3.2131,4.0574 -6.0869,6.9257 -10.3844,9.8766 -4.1539,2.6931 -7.5856,4.1651 -12.3938,5.3895 -9.2976,2.0384 -16.7884,2.6315 -26.1351,1.7789 -8.7652,-0.8358 -16.5589,-1.8059 -25.4048,-0.8486 -4.3399,0.5954 -7.5661,1.4562 -11.5208,3.3497 -3.8357,1.9683 -6.4086,3.9701 -9.3799,7.0567 2.9268,2.6447 5.8544,5.2894 8.7816,7.9347 z"
           style="fill:#e30016;fill-rule:evenodd"
           id="path322" />
      </g>
      <path
         d="m -178.98287,-278.94886 v 841.8898 h 595.2756 v -841.8898 z"
         style="display:none;fill:none"
         id="path325" />
    </g>
  </g>
</svg>
