<?xml version="1.0" encoding="UTF-8" standalone="no"?>
<!-- Created with Inkscape (http://www.inkscape.org/) -->

<svg
   id="svg2"
   sodipodi:docname="znaczek_orzel.svg"
   viewBox="0 0 726.70483 726.70486"
   version="1.1"
   inkscape:version="1.1.1 (3bf5ae0d25, 2021-09-20, custom)"
   width="726.70483"
   height="726.70483"
   xmlns:inkscape="http://www.inkscape.org/namespaces/inkscape"
   xmlns:sodipodi="http://sodipodi.sourceforge.net/DTD/sodipodi-0.dtd"
   xmlns="http://www.w3.org/2000/svg"
   xmlns:svg="http://www.w3.org/2000/svg"
   xmlns:rdf="http://www.w3.org/1999/02/22-rdf-syntax-ns#"
   xmlns:cc="http://creativecommons.org/ns#"
   xmlns:dc="http://purl.org/dc/elements/1.1/">
  <defs
     id="defs114" />
  <sodipodi:namedview
     id="base"
     bordercolor="#666666"
     inkscape:pageshadow="2"
     inkscape:window-y="0"
     fit-margin-left="5"
     pagecolor="#ffffff"
     fit-margin-top="5"
     inkscape:window-maximized="1"
     inkscape:zoom="1.9564005"
     inkscape:window-x="0"
     inkscape:window-height="1025"
     showgrid="false"
     borderopacity="1.0"
     inkscape:current-layer="layer1"
     inkscape:cx="318.18639"
     inkscape:cy="556.12336"
     fit-margin-right="5"
     fit-margin-bottom="5"
     inkscape:window-width="1890"
     inkscape:pageopacity="0.0"
     inkscape:document-units="px"
     inkscape:pagecheckerboard="0"
     lock-margins="true" />
  <g
     id="layer1"
     inkscape:label="Layer 1"
     inkscape:groupmode="layer"
     transform="translate(-37.241265,-268.97764)"
     style="display:inline">
    <path
       style="fill:#000000;fill-opacity:1;stroke:#000000;stroke-width:1px;stroke-linecap:butt;stroke-linejoin:miter;stroke-opacity:1"
       d="m 203.05565,989.9456 c 20.02988,-52.78862 36.53195,-108.43824 47.125,-168.88 -11.72378,2.57476 -19.9384,8.99487 -29.844,13.562 21.29652,-64.97272 47.33265,-131.02219 49.812,-191.72 -17.20735,8.50996 -33.62676,17.85858 -48.156,29.219 18.55,-57.2354 39.13073,-115.3669 53.687,-170.84 -13.6905,5.35568 -22.89407,13.59348 -33.781,20.75 22.27868,-75.41574 40.08125,-147.44989 90.98906,-202.60907 45.90303,-49.73646 125.98381,-60.85406 169.45794,-19.85593 22.30079,2.18027 45.43486,7.13292 69.987,16.8035 15.2404,20.46343 27.85482,40.87066 24.29664,60.93182 -6.45884,-2.85481 -12.24415,-5.13806 -15.95923,-5.6645 -25.25148,15.33389 -50.51213,30.71635 -74.93041,41.63768 -49.6886,54.71254 -43.91293,150.78496 -0.149,237.536 19.25136,52.29031 34.64373,106.49538 44.14,163.626 l -32.73107,14.51367 -86.83604,41.52235 -100.41759,56.12388 c -38.76283,28.47423 -80.38248,50.88453 -126.6903,63.3436 z"
       id="path16797"
       sodipodi:nodetypes="cccccccsccccccccccc" />
    <path
       style="fill:#ffffff;fill-opacity:1;stroke:#000000;stroke-width:1px;stroke-linecap:butt;stroke-linejoin:miter;stroke-opacity:1"
       d="m 449.64815,814.4397 79.531,0.006 c -10.24918,-70.13897 -30.83611,-150.31165 -60.188,-202.09 l -1.1562,49.719 -13,-15.625 c 4.37337,-52.27818 2.53949,-95.89494 0.51641,-149.42611 1.57446,-29.09411 8.43561,-56.63682 28.07788,-80.42889 -21.79006,-1.46856 -49.52144,-2.62452 -48.844,-5.2752 41.7669,-5.00439 82.55988,-12.31901 116.86182,-35.03087 3.57254,-4.69974 17.76528,-12.42872 1.52344,-11.47675 l -62.86657,15.95724 -18.6667,-3.24656 49.5529,-17.07936 c 16.3397,-5.70122 33.13164,-10.62712 54.25901,-8.12038 -15.8247,-41.17057 -67.98998,-50.17408 -98.13249,-4.37982 -0.77876,-10.64564 -4.56135,-19.01006 -18.219,-19.875 0.30946,14.60699 -1.17511,28.12165 -20.41604,30.82503 -14.75822,2.6187 -25.88956,-1.22376 -32.30196,-22.63703 -13.92028,4.78933 -26.38188,7.06964 -40.125,1.3438 18.18045,-0.80811 33.41174,-7.38107 46.31166,-18.51124 23.11248,-10.21029 45.62077,-4.3974 67.93834,6.47354 6.18694,-4.24826 10.12107,-9.15161 14.031,-14.062 -19.72512,-22.6175 -51.9308,-31.15485 -108.27323,-12.46192 -55.0354,23.69837 -102.70333,113.76609 -124.69147,198.02152 l 32.625,-14.156 -48.406,161.506 41.531,-27.725 c -6.84024,62.19139 -17.45913,125.23737 -45.219,192.16 l 27.531,-18.156 c -10.29045,56.02907 -20.15002,111.84074 -42.531,173.97 38.58158,-11.28585 70.32558,-35.72812 102.84,-58.688 v -91.531 c 19.98437,0 81.11733,-0.17519 89.594,0 13.04783,-28.04733 27.93088,-55.50977 30,-87.056 9.44632,11.55304 7.92373,25.20032 9.5312,38.25 12.24381,-8.38065 24.76141,-15.94897 39.781,-16.094 -20.50722,20.30525 -44.14412,39.61467 -49,64.9 z"
       id="path19219"
       sodipodi:nodetypes="ccccccccccccccccccccccccccccccccccccc" />
    <path
       style="fill:#000000;fill-opacity:1;stroke:#000000;stroke-width:1px;stroke-linecap:butt;stroke-linejoin:miter;stroke-opacity:1"
       d="m 352.23065,587.9701 c 16.27003,30.88649 25.58877,63.93024 32.813,97.624 20.90295,-40.02933 27.40509,-81.45126 18.439,-124.369 -5.71953,25.65787 -11.71817,49.44174 -19.389,61.998 -9.20009,-11.93458 -16.41534,-24.1256 -31.863,-35.253 z"
       id="path22939"
       sodipodi:nodetypes="ccccc" />
  </g>
  <metadata
     id="metadata111">
    <rdf:RDF>
      <cc:Work>
        <dc:format>image/svg+xml</dc:format>
        <dc:type
           rdf:resource="http://purl.org/dc/dcmitype/StillImage" />
        <cc:license
           rdf:resource="http://creativecommons.org/publicdomain/zero/1.0/" />
        <dc:publisher>
          <cc:Agent
             rdf:about="http://openclipart.org/">
            <dc:title>Openclipart</dc:title>
          </cc:Agent>
        </dc:publisher>
      </cc:Work>
      <cc:License
         rdf:about="http://creativecommons.org/publicdomain/zero/1.0/">
        <cc:permits
           rdf:resource="http://creativecommons.org/ns#Reproduction" />
        <cc:permits
           rdf:resource="http://creativecommons.org/ns#Distribution" />
        <cc:permits
           rdf:resource="http://creativecommons.org/ns#DerivativeWorks" />
      </cc:License>
    </rdf:RDF>
  </metadata>
</svg>
