<?xml version="1.0" encoding="UTF-8" standalone="no"?>
<!-- Created with Inkscape (http://www.inkscape.org/) -->

<svg
   id="svg2"
   sodipodi:docname="znaczek-zucha.svg"
   viewBox="0 0 771.62922 771.62924"
   version="1.1"
   inkscape:version="1.1.1 (3bf5ae0d25, 2021-09-20, custom)"
   width="771.62921"
   height="771.62921"
   xmlns:inkscape="http://www.inkscape.org/namespaces/inkscape"
   xmlns:sodipodi="http://sodipodi.sourceforge.net/DTD/sodipodi-0.dtd"
   xmlns="http://www.w3.org/2000/svg"
   xmlns:svg="http://www.w3.org/2000/svg"
   xmlns:rdf="http://www.w3.org/1999/02/22-rdf-syntax-ns#"
   xmlns:cc="http://creativecommons.org/ns#"
   xmlns:dc="http://purl.org/dc/elements/1.1/">
  <defs
     id="defs17" />
  <sodipodi:namedview
     id="base"
     bordercolor="#666666"
     inkscape:pageshadow="2"
     inkscape:window-y="0"
     fit-margin-left="5"
     pagecolor="#ffffff"
     fit-margin-top="5"
     inkscape:window-maximized="1"
     inkscape:zoom="0.97820023"
     inkscape:window-x="0"
     inkscape:window-height="1025"
     showgrid="false"
     borderopacity="1.0"
     inkscape:current-layer="layer1"
     inkscape:cx="420.67052"
     inkscape:cy="385.40167"
     fit-margin-right="5"
     fit-margin-bottom="5"
     inkscape:window-width="1890"
     inkscape:pageopacity="0.0"
     inkscape:document-units="px"
     inkscape:pagecheckerboard="0"
     lock-margins="true" />
  <g
     id="layer1"
     inkscape:label="Layer 1"
     inkscape:groupmode="layer"
     transform="translate(-39.443,-272.65731)">
    <g
       id="g3110"
       transform="translate(237.81,-526.66)">
      <path
         id="path3104"
         d="m 211.91,845.75 h 42.125 l -41.5,329.31 c -22.509,-1.0674 -46.536,-0.5211 -67.375,5.125 -5.5057,-14.909 -11.41,-29.337 -18.031,-44.75 -20.023,-46.567 -29.702,-140.41 18.188,-192.78 10.248,-4.1303 37.576,-18.621 55.719,-29.531 10.238,-6.1566 19.632,-11.188 20.875,-11.188 1.2432,0 4.9416,1.2168 8.2188,2.6875 6.5262,2.9288 7.7189,2.4788 7.75,-2.7812 -0.8039,-19.068 -12.171,-37.413 -25.969,-56.094 z"
         style="fill:#0093dd"
         inkscape:connector-curvature="0" />
      <path
         id="path3090"
         d="m 463.07,1183.6 v 160.19 h -63.812 c -3.0482,-22.294 -14.967,-58.87 -34.688,-83.844 l 98.5,-76.344 z"
         style="fill:#0093dd"
         inkscape:connector-curvature="0" />
      <path
         id="path3100"
         d="m 463.07,873.28 c 0.65392,4.9492 0.69133,287.87 0,289.84 l -109.47,84.406 c -22.088,-22.59 -30.841,-29.172 -51.688,-43.219 l 161.16,-331.02 z"
         style="fill:#0093dd"
         inkscape:connector-curvature="0" />
      <path
         id="path3102"
         d="m 270.16,845.75 h 187.03 l -169.72,349.19 c -20.392,-9.8131 -58.844,-18.531 -58.844,-18.531 l 41.53,-330.65 z"
         style="fill:#0093dd"
         inkscape:connector-curvature="0" />
      <path
         id="path3084"
         d="m -13.587,1363.3 h 509 v 187.78 h -510.06 l 1.0625,-187.78 z"
         style="fill:#da2337"
         inkscape:connector-curvature="0" />
      <path
         id="path3032"
         d="m 74.538,804.35 c -8.249,0.089 -16.644,0.82872 -25.125,1.9375 -28.495,4.9626 -51.123,16.164 -69,34.125 -29.265,29.402 -54.659,72.575 -73.812,125.53 -8.5979,23.772 -26.01,84.036 -25.125,85.469 9.7423,-4.3394 21.107,-17.574 33.781,-20.75 -17.105,66.235 -37.954,118.68 -53.687,170.84 10.142,-7.3316 25.969,-16.981 48.156,-29.219 -1.8893,58.232 -31.212,130.16 -49.812,191.72 14.323,-6.2195 24.974,-13.897 29.844,-13.562 -10.829,65.002 -27.054,112.21 -47.125,168.88 45.256,-13.789 89.228,-34.19 126.69,-63.344 v 109.97 h 541.94 v -222.12 h -30.75 v -514.88 h -338.59 c -19.35,-19.27 -42.645,-24.89 -67.392,-24.62 z m 4.25,13.906 c 21.841,0.26936 42.683,6.6902 55.125,22.625 -4.0114,5.1076 -12.108,14.062 -14.031,14.062 -18.931,-10.738 -43.362,-15.697 -61.094,-9.9688 -10.06,3.2503 -21.63,15.505 -31.812,17.938 -10.342,3.0718 -18.744,3.1042 -21.344,4.0625 -0.54068,1.0919 17.092,6.7963 28.531,2.0312 5.0953,-2.1224 6.9964,-2.9847 11.594,-3.375 4.145,4.3409 6.0511,28.617 30.156,23.031 25.844,-5.2241 19.867,-13.047 22.562,-31.219 10.024,-0.61056 19.043,7.3158 18.219,19.875 5.5536,-8.4683 16.449,-22.307 30.219,-27.281 4.6409,-2.179 7.1965,-2.6474 16.438,-2.9375 18.173,-0.5706 28.863,3.7616 40.562,16.469 5.7105,6.2024 11.689,15.999 10.5,17.188 -0.37563,0.3749 -6.1516,0.53435 -12.844,0.34375 -16.03,-0.4566 -23.531,1.3521 -51.469,12.438 -11.928,4.733 -25.512,9.5278 -30.188,10.656 -12.155,2.9341 -11.853,2.8056 -9.1562,3.8438 4.46,1.7171 15.681,2.1554 23.188,0.90625 4.0994,-0.6823 15.569,-3.675 25.469,-6.6562 17.656,-5.3166 36.125,-9.0842 39.031,-7.9688 2.6773,1.0274 1.53,3.4386 -3.7812,7.9062 -31.673,26.221 -77.668,32.468 -120.5,38.469 -0.88189,3.8835 41.202,3.2579 48.844,5.2812 -13.958,20.631 -23.856,34.578 -28.313,79.969 -1.0988,28.764 3.8862,76.287 1.5625,117.38 l -1.8438,32.5 c 3.2162,4.7608 9.7837,10.864 13,15.625 l 1.1562,-49.719 c 12.527,10.284 54.748,141.49 60.188,202.09 h -79.531 c 3.9357,-25.959 32.967,-47.601 49,-64.906 -9.2793,-5.4599 -39.781,16.094 -39.781,16.094 0,0 -3.0191,-38.387 -9.5312,-38.25 -0.97153,26.488 -16.715,64.044 -30,87.062 h -89.594 v 91.531 c -50.743,35.944 -64.595,44.226 -102.84,58.688 16.753,-36.976 29.353,-101.39 42.531,-173.97 -4.3197,-0.021 -15.024,10.363 -27.531,18.156 11.506,-28.336 40.35,-111.89 45.219,-192.16 -24.753,14.829 -41.531,27.719 -41.531,27.719 16.705,-60.466 33.989,-106.46 48.406,-161.5 -8.6194,0.091 -32.625,14.156 -32.625,14.156 0,0 29.338,-122.56 104.28,-186 15.744,-12.734 45.481,-22.534 73.563,-22.188 z m 133.13,27.5 h 42.125 l -41.5,329.31 c -22.509,-1.0674 -46.536,-0.5211 -67.375,5.125 -5.5057,-14.909 -11.41,-29.337 -18.031,-44.75 -20.023,-46.567 -29.702,-140.41 18.188,-192.78 10.248,-4.1303 37.576,-18.621 55.719,-29.531 10.238,-6.1566 19.632,-11.188 20.875,-11.188 1.2432,0 4.9416,1.2168 8.2188,2.6875 6.5262,2.9288 7.7189,2.4788 7.75,-2.7812 -0.80391,-19.068 -12.171,-37.413 -25.969,-56.094 z m 58.25,0 h 187.03 l -169.72,349.19 c -20.392,-9.8131 -58.844,-18.531 -58.844,-18.531 l 41.52,-330.75 z m 192.91,25.938 c 0.65392,4.9492 0.69133,287.87 0,289.84 l -109.47,84.406 c -22.088,-22.59 -30.841,-29.172 -51.688,-43.219 l 161.15,-331.01 z m -113.09,15.031 -89.531,280.72 14.469,6.1875 89,-280.91 -13.938,-6 z m -160.56,76.719 -14.688,0.28125 0.40625,194.41005 14.281,0.3125 V 963.44775 Z m 244.75,116.5 -98.25,123.28 10,9.1563 101,-121.41 -12.75,-11.031 z m -392.19,23.344 c -7.4717,20.473 -6.9637,37.227 -17.875,57.156 -9.1105,-10.815 -20.641,-28.768 -29.375,-32.5 14.159,27.634 24.609,58.482 30.25,90 18.987,-33.144 24.426,-76.714 17,-114.66 z m 421.09,80.344 v 160.19 h -63.812 c -3.0482,-22.294 -14.967,-58.87 -34.688,-83.844 l 98.5,-76.344 z m -271.12,8.625 c 83.77,-1.2071 176.34,54.386 187.97,151.56 h -190.62 c -12.078,-62.17 -31.481,-135.63 -37.375,-146.34 12.843,-3.3063 26.323,-5.0212 40.031,-5.2187 z m 258.03,63.75 -51.219,31 5.4688,13.344 49.25,-31.062 -3.5,-13.281 z m -463.56,107.25 h 509 v 187.78 h -510.06 l 1.0625,-187.78 z m 311.97,21.062 c -16.378,10e-5 -29.606,6.4805 -39.656,19.438 -10.05,12.957 -15.063,31.144 -15.062,54.562 -1e-5,22.139 5.003,39.61 15,52.375 9.997,12.765 22.754,19.125 38.281,19.125 12.549,0 22.9,-3.7331 31.062,-11.188 8.1623,-7.4544 13.99,-18.831 17.5,-34.188 l -22.875,-8.75 c -1.9676,10.302 -5.1989,17.857 -9.7188,22.656 -4.52,4.799 -9.9441,7.1876 -16.219,7.1875 -8.5081,10e-5 -15.401,-3.7621 -20.719,-11.312 -5.3176,-7.5503 -7.9688,-20.212 -7.9688,-38 -3e-5,-16.764 2.6964,-28.888 8.0938,-36.375 5.3973,-7.4862 12.426,-11.25 21.094,-11.25 6.2746,2e-4 11.582,2.1208 15.969,6.3438 4.3869,4.2232 7.2736,9.9869 8.6562,17.281 l 23.375,-6.7187 c -2.6589,-11.261 -6.6513,-19.923 -11.969,-25.938 -8.9336,-10.174 -20.54,-15.25 -34.844,-15.25 z m -271.69,2.4062 v 23.812 h 54.5 l -61.438,91.25 v 25.625 h 95 v -23.688 h -66.5 l 64.031,-94.938 v -22.062 H 26.707 Z m 102.91,0 v 75.062 c -1e-5,15.741 0.7704,27.625 2.3125,35.688 1.0635,5.4389 3.2749,10.635 6.625,15.594 3.35,4.9589 7.9179,8.9904 13.688,12.094 5.7695,3.1034 14.239,4.6563 25.406,4.6563 9.2525,0 16.726,-1.4026 22.469,-4.25 5.7429,-2.8474 10.351,-6.6698 13.781,-11.469 3.4297,-4.7989 5.7862,-10.713 7.0625,-17.688 1.2761,-6.9744 1.9062,-18.889 1.9062,-35.781 v -73.906 h -23.625 v 77.844 c -8e-5,11.134 -0.34005,19.076 -1.0312,23.875 -0.69136,4.799 -2.7218,8.861 -6.125,12.156 -3.4033,3.2953 -8.4562,4.9376 -15.156,4.9375 -6.5938,10e-5 -11.792,-1.7315 -15.594,-5.2187 -3.8021,-3.4872 -6.2084,-8.1162 -7.2188,-13.875 -0.58497,-3.5832 -0.87504,-11.407 -0.875,-23.5 v -76.219 h -23.625 z m 236.34,0 v 140.69 h 23.594 v -61.5 h 46.281 v 61.5 h 23.594 v -140.69 h -23.594 v 55.375 h -46.281 v -55.375 z"
         style="fill:#000000"
         inkscape:connector-curvature="0" />
      <path
         id="path3106"
         d="m 78.788,818.25 c 21.841,0.26936 42.683,6.6902 55.125,22.625 -4.0114,5.1076 -12.108,14.062 -14.031,14.062 -18.931,-10.738 -43.362,-15.697 -61.094,-9.9688 -10.06,3.2503 -21.63,15.505 -31.812,17.938 -10.342,3.0718 -18.744,3.1042 -21.344,4.0625 -0.54068,1.0919 17.092,6.7963 28.531,2.0312 5.0953,-2.1224 6.9964,-2.9847 11.594,-3.375 4.145,4.3409 6.0511,28.617 30.156,23.031 25.844,-5.2241 19.867,-13.047 22.562,-31.219 10.024,-0.61056 19.043,7.3158 18.219,19.875 5.5536,-8.4683 16.449,-22.307 30.219,-27.281 4.6409,-2.179 7.1965,-2.6474 16.438,-2.9375 18.173,-0.5706 28.863,3.7616 40.562,16.469 5.7105,6.2024 11.689,15.999 10.5,17.188 -0.37563,0.3749 -6.1516,0.53435 -12.844,0.34375 -16.03,-0.4566 -23.531,1.3521 -51.469,12.438 -11.928,4.733 -25.512,9.5278 -30.188,10.656 -12.155,2.9341 -11.853,2.8056 -9.1562,3.8438 4.46,1.7171 15.681,2.1554 23.188,0.90625 4.0994,-0.6823 15.569,-3.675 25.469,-6.6562 17.656,-5.3166 36.125,-9.0842 39.031,-7.9688 2.6773,1.0274 1.53,3.4386 -3.7812,7.9062 -31.673,26.221 -77.668,32.468 -120.5,38.469 -0.88189,3.8835 41.202,3.2579 48.844,5.2812 -13.958,20.631 -23.856,34.578 -28.313,79.969 -1.0988,28.764 3.8861,76.287 1.5625,117.38 l -1.8438,32.5 c 3.2162,4.7608 9.7838,10.864 13,15.625 l 1.1562,-49.719 c 12.527,10.284 54.748,141.49 60.188,202.09 h -79.531 c 3.9357,-25.959 32.967,-47.601 49,-64.906 -9.2793,-5.4599 -39.781,16.094 -39.781,16.094 0,0 -3.0191,-38.387 -9.5312,-38.25 -0.97153,26.488 -16.715,64.044 -30,87.062 h -89.594 v 91.531 c -50.743,35.944 -64.595,44.226 -102.84,58.688 16.753,-36.976 29.353,-101.39 42.531,-173.97 -4.3197,-0.021 -15.024,10.363 -27.531,18.156 11.506,-28.336 40.35,-111.89 45.219,-192.16 -24.753,14.829 -41.531,27.719 -41.531,27.719 16.705,-60.466 33.989,-106.46 48.406,-161.5 -8.6194,0.091 -32.625,14.156 -32.625,14.156 0,0 29.338,-122.56 104.28,-186 15.727,-12.69 45.464,-22.49 73.546,-22.15 z"
         style="fill:#ffffff"
         inkscape:connector-curvature="0" />
      <path
         id="path3092"
         d="m 43.06,1090.6 c -8.1046,22.207 -7.5537,40.38 -19.389,61.998 -9.8823,-11.731 -22.39,-31.205 -31.863,-35.253 15.358,29.975 26.694,63.436 32.813,97.624 20.595,-35.952 26.495,-83.213 18.44,-124.37 z"
         style="fill:#000000"
         inkscape:connector-curvature="0" />
      <path
         id="path3088"
         d="m 191.94,1192.3 c 83.77,-1.2071 176.34,54.386 187.97,151.56 H 189.29 c -12.078,-62.17 -31.481,-135.63 -37.375,-146.34 12.843,-3.3063 26.323,-5.0212 40.031,-5.2187 z"
         style="fill:#f8c301"
         inkscape:connector-curvature="0" />
    </g>
  </g>
  <metadata
     id="metadata14">
    <rdf:RDF>
      <cc:Work>
        <dc:format>image/svg+xml</dc:format>
        <dc:type
           rdf:resource="http://purl.org/dc/dcmitype/StillImage" />
        <cc:license
           rdf:resource="http://creativecommons.org/publicdomain/zero/1.0/" />
        <dc:publisher>
          <cc:Agent
             rdf:about="http://openclipart.org/">
            <dc:title>Openclipart</dc:title>
          </cc:Agent>
        </dc:publisher>
      </cc:Work>
      <cc:License
         rdf:about="http://creativecommons.org/publicdomain/zero/1.0/">
        <cc:permits
           rdf:resource="http://creativecommons.org/ns#Reproduction" />
        <cc:permits
           rdf:resource="http://creativecommons.org/ns#Distribution" />
        <cc:permits
           rdf:resource="http://creativecommons.org/ns#DerivativeWorks" />
      </cc:License>
    </rdf:RDF>
  </metadata>
</svg>
