<?xml version="1.0" encoding="UTF-8" standalone="no"?>
<!-- Created with Inkscape (http://www.inkscape.org/) -->

<svg
   id="svg2"
   sodipodi:docname="znaczek-napis.svg"
   viewBox="0 0 551.94373 551.94375"
   version="1.1"
   inkscape:version="1.1.1 (3bf5ae0d25, 2021-09-20, custom)"
   width="551.94373"
   height="551.94373"
   xmlns:inkscape="http://www.inkscape.org/namespaces/inkscape"
   xmlns:sodipodi="http://sodipodi.sourceforge.net/DTD/sodipodi-0.dtd"
   xmlns="http://www.w3.org/2000/svg"
   xmlns:svg="http://www.w3.org/2000/svg"
   xmlns:rdf="http://www.w3.org/1999/02/22-rdf-syntax-ns#"
   xmlns:cc="http://creativecommons.org/ns#"
   xmlns:dc="http://purl.org/dc/elements/1.1/">
  <defs
     id="defs17" />
  <sodipodi:namedview
     id="base"
     bordercolor="#666666"
     inkscape:pageshadow="2"
     inkscape:window-y="0"
     fit-margin-left="5"
     pagecolor="#ffffff"
     fit-margin-top="5"
     inkscape:window-maximized="1"
     inkscape:zoom="0.69169202"
     inkscape:window-x="0"
     inkscape:window-height="1025"
     showgrid="false"
     borderopacity="1.0"
     inkscape:current-layer="g3110"
     inkscape:cx="57.106341"
     inkscape:cy="248.66559"
     fit-margin-right="5"
     fit-margin-bottom="5"
     inkscape:window-width="1890"
     inkscape:pageopacity="0.0"
     inkscape:document-units="px"
     inkscape:pagecheckerboard="0"
     lock-margins="true" />
  <g
     id="layer1"
     inkscape:label="Layer 1"
     inkscape:groupmode="layer"
     transform="translate(-211.17812,-822.43537)">
    <g
       id="g3110"
       transform="translate(246.85882,-516.38523)"
       style="mix-blend-mode:normal">
      <path
         id="path3084"
         d="m -13.587,1521.3 h 509 v 187.78 h -510.06 l 1.0625,-187.78 z"
         style="fill:#da2337"
         inkscape:connector-curvature="0" />
      <path
         id="path3032"
         d="m -30.6807,1501.8206 0.0037,222.1259 h 541.94 v -222.12 z m 0,0 v 91.531 z m 17.1087,19.4364 h 509 v 187.78 h -510.06 l 1.0625,-187.78 z m 311.97,21.062 c -16.378,10e-5 -29.606,6.4805 -39.656,19.438 -10.05,12.957 -15.063,31.144 -15.062,54.562 -1e-5,22.139 5.003,39.61 15,52.375 9.997,12.765 22.754,19.125 38.281,19.125 12.549,0 22.9,-3.7331 31.062,-11.188 8.1623,-7.4544 13.99,-18.831 17.5,-34.188 l -22.875,-8.75 c -1.9676,10.302 -5.1989,17.857 -9.7188,22.656 -4.52,4.799 -9.9441,7.1876 -16.219,7.1875 -8.5081,10e-5 -15.401,-3.7621 -20.719,-11.312 -5.3176,-7.5503 -7.9688,-20.212 -7.9688,-38 -3e-5,-16.764 2.6964,-28.888 8.0938,-36.375 5.3973,-7.4862 12.426,-11.25 21.094,-11.25 6.2746,2e-4 11.582,2.1208 15.969,6.3438 4.3869,4.2232 7.2736,9.9869 8.6562,17.281 l 23.375,-6.7187 c -2.6589,-11.261 -6.6513,-19.923 -11.969,-25.938 -8.9336,-10.174 -20.54,-15.25 -34.844,-15.25 z m -271.69,2.4062 v 23.812 h 54.5 l -61.438,91.25 v 25.625 h 95 v -23.688 h -66.5 l 64.031,-94.938 v -22.062 H 26.707 Z m 102.91,0 v 75.062 c -1e-5,15.741 0.7704,27.625 2.3125,35.688 1.0635,5.4389 3.2749,10.635 6.625,15.594 3.35,4.9589 7.9179,8.9904 13.688,12.094 5.7695,3.1034 14.239,4.6563 25.406,4.6563 9.2525,0 16.726,-1.4026 22.469,-4.25 5.7429,-2.8474 10.351,-6.6698 13.781,-11.469 3.4297,-4.7989 5.7862,-10.713 7.0625,-17.688 1.2761,-6.9744 1.9062,-18.889 1.9062,-35.781 v -73.906 h -23.625 v 77.844 c -8e-5,11.134 -0.34005,19.076 -1.0312,23.875 -0.69136,4.799 -2.7218,8.861 -6.125,12.156 -3.4033,3.2953 -8.4562,4.9376 -15.156,4.9375 -6.5938,10e-5 -11.792,-1.7315 -15.594,-5.2187 -3.8021,-3.4872 -6.2084,-8.1162 -7.2188,-13.875 -0.58497,-3.5832 -0.87504,-11.407 -0.875,-23.5 v -76.219 h -23.625 z m 236.34,0 v 140.69 h 23.594 v -61.5 h 46.281 v 61.5 h 23.594 v -140.69 h -23.594 v 55.375 h -46.281 v -55.375 z"
         style="fill:#000000"
         inkscape:connector-curvature="0"
         sodipodi:nodetypes="cccccccccccccccccsscccsccscccccccccccccccccccccscsssssssccccscscccccccccccccccccc" />
    </g>
  </g>
  <metadata
     id="metadata14">
    <rdf:RDF>
      <cc:Work>
        <dc:format>image/svg+xml</dc:format>
        <dc:type
           rdf:resource="http://purl.org/dc/dcmitype/StillImage" />
        <cc:license
           rdf:resource="http://creativecommons.org/publicdomain/zero/1.0/" />
        <dc:publisher>
          <cc:Agent
             rdf:about="http://openclipart.org/">
            <dc:title>Openclipart</dc:title>
          </cc:Agent>
        </dc:publisher>
      </cc:Work>
      <cc:License
         rdf:about="http://creativecommons.org/publicdomain/zero/1.0/">
        <cc:permits
           rdf:resource="http://creativecommons.org/ns#Reproduction" />
        <cc:permits
           rdf:resource="http://creativecommons.org/ns#Distribution" />
        <cc:permits
           rdf:resource="http://creativecommons.org/ns#DerivativeWorks" />
      </cc:License>
    </rdf:RDF>
  </metadata>
</svg>
