<?xml version="1.0" encoding="UTF-8" standalone="no"?>
<svg
   width="47.787956mm"
   height="16.14954mm"
   viewBox="0 0 47.787956 16.14954"
   version="1.1"
   id="svg5"
   sodipodi:docname="alfa-liczbowy.svg"
   inkscape:version="1.1-dev (2afca83fab, 2021-01-02, custom)"
   xmlns:inkscape="http://www.inkscape.org/namespaces/inkscape"
   xmlns:sodipodi="http://sodipodi.sourceforge.net/DTD/sodipodi-0.dtd"
   xmlns="http://www.w3.org/2000/svg"
   xmlns:svg="http://www.w3.org/2000/svg">
  <sodipodi:namedview
     id="namedview7"
     pagecolor="#ffffff"
     bordercolor="#666666"
     borderopacity="1.0"
     objecttolerance="10.0"
     gridtolerance="10.0"
     guidetolerance="10.0"
     inkscape:pageshadow="2"
     inkscape:pageopacity="0.0"
     inkscape:pagecheckerboard="false"
     inkscape:document-units="mm"
     showgrid="false"
     inkscape:zoom="4"
     inkscape:cx="60.375"
     inkscape:cy="-11.75"
     inkscape:window-width="1920"
     inkscape:window-height="1050"
     inkscape:window-x="0"
     inkscape:window-y="30"
     inkscape:window-maximized="1"
     inkscape:current-layer="layer1"
     showguides="true"
     inkscape:guide-bbox="true"
     fit-margin-top="0"
     lock-margins="false"
     fit-margin-left="0"
     fit-margin-right="0"
     fit-margin-bottom="0">
    <sodipodi:guide
       position="9.958297,14.964942"
       orientation="0,-1"
       id="guide114625" />
    <sodipodi:guide
       position="3.2850785,6.977152"
       orientation="0,-1"
       id="guide62049" />
    <sodipodi:guide
       position="18.958184,11.028165"
       orientation="0,-1"
       id="guide79602" />
  </sodipodi:namedview>
  <defs
     id="defs2">
    <rect
       x="130.76352"
       y="41.435909"
       width="3.6933601"
       height="3.6933589"
       id="rect223456" />
    <rect
       x="126.80454"
       y="41.435909"
       width="3.6933601"
       height="3.6933589"
       id="rect219132" />
    <rect
       x="122.8436"
       y="41.435909"
       width="3.6953101"
       height="3.6933589"
       id="rect211112" />
    <rect
       x="122.71079"
       y="41.435909"
       width="3.82812"
       height="3.6933589"
       id="rect207344" />
    <rect
       x="118.88461"
       y="41.435909"
       width="3.6953199"
       height="3.6933589"
       id="rect202148" />
    <rect
       x="114.92563"
       y="41.435909"
       width="3.6933601"
       height="3.6933589"
       id="rect196900" />
    <rect
       x="110.96665"
       y="41.435909"
       width="3.6933601"
       height="3.6933589"
       id="rect192170" />
    <rect
       x="107.00766"
       y="41.435909"
       width="3.6933601"
       height="3.6933589"
       id="rect187616" />
    <rect
       x="103.04868"
       y="41.435909"
       width="3.6933601"
       height="3.6933589"
       id="rect181512" />
    <rect
       x="99.087746"
       y="41.435909"
       width="3.6953051"
       height="3.6933589"
       id="rect174636" />
    <rect
       x="95.128761"
       y="41.435909"
       width="3.695313"
       height="3.6933589"
       id="rect166940" />
    <rect
       x="91.169777"
       y="41.435909"
       width="3.6933589"
       height="3.6933589"
       id="rect162208" />
    <rect
       x="87.210793"
       y="41.435909"
       width="3.6933601"
       height="3.6933589"
       id="rect158160" />
    <rect
       x="83.232422"
       y="41.433594"
       width="3.6933601"
       height="3.6933589"
       id="rect153978" />
    <rect
       x="79.273438"
       y="41.433594"
       width="3.6933589"
       height="3.6933589"
       id="rect149322" />
    <rect
       x="75.3125"
       y="41.433594"
       width="3.695312"
       height="3.6933589"
       id="rect143784" />
    <rect
       x="71.353516"
       y="41.433594"
       width="3.695313"
       height="3.6933589"
       id="rect137002" />
    <rect
       x="67.394531"
       y="41.433594"
       width="3.6933589"
       height="3.6933589"
       id="rect131124" />
    <rect
       x="63.302734"
       y="41.433594"
       width="3.8261721"
       height="3.6933589"
       id="rect118673" />
    <rect
       x="130.76352"
       y="37.474972"
       width="3.6933601"
       height="3.695313"
       id="rect114137" />
    <rect
       x="126.80454"
       y="37.474972"
       width="3.6933601"
       height="3.695313"
       id="rect107167" />
    <rect
       x="122.8436"
       y="37.474972"
       width="3.6953101"
       height="3.695313"
       id="rect96131" />
    <rect
       x="118.88461"
       y="37.474972"
       width="3.6953199"
       height="3.695313"
       id="rect90978" />
    <rect
       x="114.92563"
       y="37.474972"
       width="3.6933601"
       height="3.695313"
       id="rect87766" />
    <rect
       x="110.96665"
       y="37.474972"
       width="3.6933601"
       height="3.695313"
       id="rect82860" />
    <rect
       x="107.00766"
       y="37.474972"
       width="3.6933601"
       height="3.695313"
       id="rect76914" />
    <rect
       x="103.04868"
       y="37.474972"
       width="3.6933601"
       height="3.695313"
       id="rect72370" />
    <rect
       x="99.087746"
       y="37.474972"
       width="3.6953051"
       height="3.695313"
       id="rect66778" />
    <rect
       x="95.128761"
       y="37.474972"
       width="3.695313"
       height="3.695313"
       id="rect60202" />
    <rect
       x="91.169777"
       y="37.474972"
       width="3.6933589"
       height="3.695313"
       id="rect54434" />
    <rect
       x="87.210793"
       y="37.474972"
       width="3.6933601"
       height="3.828125"
       id="rect45964" />
    <rect
       x="83.232422"
       y="37.472656"
       width="3.6933601"
       height="3.695313"
       id="rect38002" />
    <rect
       x="79.273438"
       y="37.472656"
       width="3.6933589"
       height="3.695313"
       id="rect32928" />
    <rect
       x="75.3125"
       y="37.472656"
       width="3.695312"
       height="3.695313"
       id="rect28267" />
    <rect
       x="71.353516"
       y="37.472656"
       width="3.695313"
       height="3.695313"
       id="rect19609" />
    <rect
       x="67.394531"
       y="37.472656"
       width="3.6933589"
       height="3.695313"
       id="rect12657" />
    <rect
       x="63.435547"
       y="37.339844"
       width="3.6933589"
       height="3.960937"
       id="rect5199" />
    <rect
       x="63.302914"
       y="53.178268"
       width="3.9593773"
       height="3.9593773"
       id="rect80178" />
    <rect
       x="63.302914"
       y="49.218891"
       width="3.9593773"
       height="3.9593773"
       id="rect74026" />
    <rect
       x="63.302914"
       y="45.259514"
       width="3.9593773"
       height="3.9593773"
       id="rect67272" />
    <rect
       x="59.343533"
       y="53.178268"
       width="3.9593773"
       height="3.9593773"
       id="rect64562" />
    <rect
       x="51.424778"
       y="53.178268"
       width="3.9593773"
       height="3.9593773"
       id="rect58722" />
    <rect
       x="59.343536"
       y="49.218891"
       width="3.9593735"
       height="3.9593773"
       id="rect54044" />
    <rect
       x="55.384159"
       y="49.218891"
       width="3.9593735"
       height="3.9593773"
       id="rect48410" />
    <rect
       x="59.343536"
       y="45.259514"
       width="3.9593773"
       height="3.9593773"
       id="rect43270" />
    <rect
       x="55.384159"
       y="45.259514"
       width="3.9593773"
       height="3.9593773"
       id="rect38718" />
    <rect
       x="47.465405"
       y="49.218891"
       width="3.9593773"
       height="3.9593773"
       id="rect34762" />
    <rect
       x="35.587269"
       y="53.178268"
       width="3.9593773"
       height="3.9593773"
       id="rect26842" />
    <rect
       x="47.465405"
       y="41.300137"
       width="3.9593773"
       height="3.9593773"
       id="rect17702" />
    <rect
       x="39.54665"
       y="41.300137"
       width="3.9593773"
       height="3.9593773"
       id="rect12340" />
    <rect
       x="44.527615"
       y="38.393581"
       width="2.6125472"
       height="2.9057267"
       id="rect4211" />
    <rect
       x="47.465401"
       y="72.975159"
       width="3.9593773"
       height="3.9593811"
       id="rect153091" />
    <rect
       x="47.465401"
       y="69.015778"
       width="3.9593773"
       height="3.9593811"
       id="rect149469" />
    <rect
       x="47.465401"
       y="65.056404"
       width="3.9593773"
       height="3.9593735"
       id="rect145571" />
    <rect
       x="47.465401"
       y="61.097023"
       width="3.9593773"
       height="3.9593811"
       id="rect141459" />
    <rect
       x="47.465401"
       y="57.137646"
       width="3.9593773"
       height="3.9593773"
       id="rect133563" />
    <rect
       x="39.546646"
       y="57.137646"
       width="3.9593773"
       height="3.9593773"
       id="rect128723" />
    <rect
       x="39.546646"
       y="53.178268"
       width="3.9593773"
       height="3.9593773"
       id="rect123511" />
    <rect
       x="47.465405"
       y="53.178268"
       width="3.9593735"
       height="3.9593773"
       id="rect114443" />
    <rect
       x="47.465405"
       y="49.218891"
       width="3.9593735"
       height="3.9593773"
       id="rect110257" />
    <rect
       x="39.54665"
       y="49.218891"
       width="3.9593773"
       height="3.9593773"
       id="rect105919" />
    <rect
       x="59.343533"
       y="57.137646"
       width="3.9593773"
       height="3.9593773"
       id="rect100509" />
    <rect
       x="59.343536"
       y="53.178268"
       width="3.9593735"
       height="3.9593773"
       id="rect96317" />
    <rect
       x="59.343536"
       y="49.218891"
       width="3.9593735"
       height="3.9593773"
       id="rect88707" />
    <rect
       x="55.384159"
       y="45.259514"
       width="3.9593773"
       height="3.9593773"
       id="rect82837" />
    <rect
       x="51.424782"
       y="45.259514"
       width="3.9593773"
       height="3.9593773"
       id="rect75055" />
    <rect
       x="47.465405"
       y="45.259514"
       width="3.9593773"
       height="3.9593773"
       id="rect64209" />
    <rect
       x="43.506027"
       y="45.259514"
       width="3.9593773"
       height="3.9593773"
       id="rect59663" />
    <rect
       x="39.54665"
       y="45.259514"
       width="3.9593773"
       height="3.9593773"
       id="rect54921" />
    <rect
       x="59.343536"
       y="45.259514"
       width="3.9593773"
       height="3.9593773"
       id="rect49555" />
    <rect
       x="59.343536"
       y="41.300137"
       width="3.9593773"
       height="3.9593773"
       id="rect40535" />
    <rect
       x="55.384159"
       y="41.300137"
       width="3.9593773"
       height="3.9593773"
       id="rect36863" />
    <rect
       x="51.424782"
       y="41.300137"
       width="3.9593773"
       height="3.9593773"
       id="rect31135" />
    <rect
       x="51.424782"
       y="41.300137"
       width="3.9593773"
       height="3.9593773"
       id="rect29017" />
    <rect
       x="47.465405"
       y="41.300137"
       width="3.9593773"
       height="3.9593773"
       id="rect24023" />
    <rect
       x="47.465405"
       y="41.300137"
       width="3.9593773"
       height="3.9593773"
       id="rect21041" />
    <rect
       x="43.506027"
       y="41.300137"
       width="3.9593773"
       height="3.9593773"
       id="rect12485" />
    <rect
       x="39.54665"
       y="41.300137"
       width="3.9593773"
       height="3.9593773"
       id="rect2521" />
    <rect
       x="59.343536"
       y="37.340759"
       width="3.9593773"
       height="3.9593773"
       id="rect146425" />
    <rect
       x="55.384159"
       y="37.340759"
       width="3.9593773"
       height="3.9593773"
       id="rect138835" />
    <rect
       x="51.424782"
       y="37.340759"
       width="3.9593773"
       height="3.9593773"
       id="rect128275" />
    <rect
       x="52.645203"
       y="38.393581"
       width="2.2943146"
       height="2.3642125"
       id="rect117599" />
    <rect
       x="47.465405"
       y="37.340759"
       width="3.9593773"
       height="3.9593773"
       id="rect112677" />
    <rect
       x="43.506027"
       y="37.340759"
       width="3.9593773"
       height="3.9593773"
       id="rect105109" />
    <rect
       x="39.54665"
       y="37.340759"
       width="3.9593773"
       height="3.9593773"
       id="rect99069" />
    <rect
       x="35.650688"
       y="73.10424"
       width="3.8409245"
       height="3.4598839"
       id="rect93155" />
    <rect
       x="35.587269"
       y="69.015778"
       width="3.9593773"
       height="3.9593811"
       id="rect81173" />
    <rect
       x="35.587269"
       y="65.056404"
       width="3.9593773"
       height="3.9593735"
       id="rect73525" />
    <rect
       x="35.587269"
       y="61.097023"
       width="3.9593773"
       height="3.9593811"
       id="rect66419" />
    <rect
       x="35.587269"
       y="57.137646"
       width="3.9593773"
       height="3.9593773"
       id="rect58853" />
    <rect
       x="35.587273"
       y="53.178268"
       width="3.9593735"
       height="3.9593773"
       id="rect51955" />
    <rect
       x="35.587273"
       y="37.340759"
       width="3.9593773"
       height="3.9593773"
       id="rect21751" />
    <rect
       x="35.587273"
       y="37.340759"
       width="3.9593773"
       height="3.9593773"
       id="rect12613" />
    <rect
       x="32.130764"
       y="54.404739"
       width="6.5085416"
       height="14.920208"
       id="rect2292" />
    <rect
       x="35.587273"
       y="37.340759"
       width="3.9593773"
       height="3.9593773"
       id="rect21751-4" />
    <rect
       x="35.587273"
       y="37.340759"
       width="3.9593773"
       height="3.9593773"
       id="rect21751-4-3" />
    <rect
       x="35.587273"
       y="37.340759"
       width="3.9593773"
       height="3.9593773"
       id="rect21751-4-8" />
    <rect
       x="35.587273"
       y="37.340759"
       width="3.9593773"
       height="3.9593773"
       id="rect21751-4-2" />
  </defs>
  <g
     inkscape:label="Warstwa 1"
     inkscape:groupmode="layer"
     id="layer1"
     transform="translate(-39.403451,-37.208984)"
     style="opacity:1">
    <g
       id="text2290"
       style="font-size:1.41111px;line-height:1.25;letter-spacing:0px;word-spacing:0px;white-space:pre;shape-inside:url(#rect2292)" />
    <path
       style="color:#000000;fill:#000000;fill-rule:evenodd;stroke-linecap:round;stroke-linejoin:bevel"
       d="m 39.546875,37.208984 -0.132813,0.13086 v 3.960937 l 0.132813,0.132813 h 3.958984 l 0.132813,-0.132813 v -3.960937 l -0.132813,-0.13086 z m 0.132812,0.263672 h 3.69336 v 3.695313 h -3.69336 z"
       id="rect56" />
    <path
       style="color:#000000;fill:#000000;fill-rule:evenodd;stroke-linecap:round;stroke-linejoin:bevel"
       d="m 43.505859,37.208984 -0.132812,0.13086 v 3.960937 l 0.132812,0.132813 h 3.958985 l 0.132812,-0.132813 v -3.960937 l -0.132812,-0.13086 z m 0.132813,0.263672 h 3.693359 v 3.695313 h -3.693359 z"
       id="rect58" />
    <path
       style="color:#000000;fill:#000000;fill-rule:evenodd;stroke-linecap:round;stroke-linejoin:bevel"
       d="m 47.464844,37.208984 -0.132813,0.13086 v 3.960937 l 0.132813,0.132813 h 3.958984 l 0.132813,-0.132813 v -3.960937 l -0.132813,-0.13086 z m 0.132812,0.263672 h 3.695313 v 3.695313 h -3.695313 z"
       id="rect60" />
    <path
       style="color:#000000;fill:#000000;fill-rule:evenodd;stroke-linecap:round;stroke-linejoin:bevel"
       d="m 51.423828,37.208984 -0.130859,0.13086 v 3.960937 l 0.130859,0.132813 h 3.960938 l 0.132812,-0.132813 v -3.960937 l -0.132812,-0.13086 z m 0.132813,0.263672 h 3.695312 v 3.695313 h -3.695312 z"
       id="rect62" />
    <path
       style="color:#000000;fill:#000000;fill-rule:evenodd;stroke-linecap:round;stroke-linejoin:bevel"
       d="m 55.384766,37.208984 -0.132813,0.13086 v 3.960937 l 0.132813,0.132813 h 3.958984 l 0.132812,-0.132813 v -3.960937 l -0.132812,-0.13086 z m 0.132812,0.263672 h 3.693359 v 3.695313 h -3.693359 z"
       id="rect64" />
    <path
       style="color:#000000;fill:#000000;fill-rule:evenodd;stroke-linecap:round;stroke-linejoin:bevel"
       d="m 59.34375,37.208984 -0.132813,0.13086 v 3.960937 l 0.132813,0.132813 h 3.958984 l 0.132813,-0.132813 v -3.960937 l -0.132813,-0.13086 z m 0.132812,0.263672 h 3.69336 v 3.695313 h -3.69336 z"
       id="rect66" />
    <path
       style="color:#000000;fill:#000000;fill-rule:evenodd;stroke-linecap:round;stroke-linejoin:bevel"
       d="m 39.546875,41.167969 -0.132813,0.132812 v 3.958985 l 0.132813,0.132812 h 3.958984 l 0.132813,-0.132812 v -3.958985 l -0.132813,-0.132812 z m 0.132812,0.265625 h 3.69336 v 3.693359 h -3.69336 z"
       id="rect68" />
    <path
       style="color:#000000;fill:#000000;fill-rule:evenodd;stroke-linecap:round;stroke-linejoin:bevel"
       d="m 43.505859,41.167969 -0.132812,0.132812 v 3.958985 l 0.132812,0.132812 h 3.958985 l 0.132812,-0.132812 v -3.958985 l -0.132812,-0.132812 z m 0.132813,0.265625 h 3.693359 v 3.693359 h -3.693359 z"
       id="rect70" />
    <path
       style="color:#000000;fill:#000000;fill-rule:evenodd;stroke-linecap:round;stroke-linejoin:bevel"
       d="m 47.464844,41.167969 -0.132813,0.132812 v 3.958985 l 0.132813,0.132812 h 3.958984 l 0.132813,-0.132812 v -3.958985 l -0.132813,-0.132812 z m 0.132812,0.265625 h 3.695313 v 3.693359 h -3.695313 z"
       id="rect72" />
    <path
       style="color:#000000;fill:#000000;fill-rule:evenodd;stroke-linecap:round;stroke-linejoin:bevel"
       d="m 51.423828,41.167969 -0.130859,0.132812 v 3.958985 l 0.130859,0.132812 h 3.960938 l 0.132812,-0.132812 v -3.958985 l -0.132812,-0.132812 z m 0.132813,0.265625 h 3.695312 v 3.693359 h -3.695312 z"
       id="rect74" />
    <path
       style="color:#000000;fill:#000000;fill-rule:evenodd;stroke-linecap:round;stroke-linejoin:bevel"
       d="m 55.384766,41.167969 -0.132813,0.132812 v 3.958985 l 0.132813,0.132812 h 3.958984 l 0.132812,-0.132812 V 41.300781 L 59.34375,41.167969 Z m 0.132812,0.265625 h 3.693359 v 3.693359 h -3.693359 z"
       id="rect76" />
    <path
       style="color:#000000;fill:#000000;fill-rule:evenodd;stroke-linecap:round;stroke-linejoin:bevel"
       d="m 59.34375,41.167969 -0.132813,0.132812 v 3.958985 l 0.132813,0.132812 h 3.958984 l 0.132813,-0.132812 v -3.958985 l -0.132813,-0.132812 z m 0.132812,0.265625 h 3.69336 v 3.693359 h -3.69336 z"
       id="rect78" />
    <g
       aria-label="Z"
       id="text117597"
       style="font-size:2.11667px;line-height:1.25;letter-spacing:0px;word-spacing:0px;white-space:pre;shape-inside:url(#rect117599)" />
    <g
       id="text21039"
       style="font-size:1.41111px;line-height:1.25;letter-spacing:0px;word-spacing:0px;white-space:pre;shape-inside:url(#rect21041)" />
    <g
       id="text29015"
       style="font-size:1.41111px;line-height:1.25;letter-spacing:0px;word-spacing:0px;white-space:pre;shape-inside:url(#rect29017)" />
    <g
       aria-label="B"
       transform="translate(0,-3.232942)"
       id="text59661"
       style="font-size:2.11667px;letter-spacing:0px;word-spacing:0px;white-space:pre">
      <path
         style="color:#000000;fill:#000000"
         d="m 45.175809,46.395615 v 0.565341 h 0.334864 q 0.168465,0 0.249081,-0.06925 0.08165,-0.07028 0.08165,-0.213941 0,-0.144694 -0.08165,-0.212907 -0.08062,-0.06925 -0.249081,-0.06925 z m 0,-0.634587 v 0.465088 h 0.309026 q 0.152962,0 0.227376,-0.05684 0.07545,-0.05788 0.07545,-0.1757 0,-0.116789 -0.07545,-0.174667 -0.07441,-0.05788 -0.227376,-0.05788 z m -0.208773,-0.171566 h 0.533302 q 0.238745,0 0.367937,0.09922 0.129191,0.09922 0.129191,0.282153 0,0.141594 -0.06615,0.22531 -0.06615,0.08372 -0.194304,0.104387 0.153996,0.03307 0.238746,0.138493 0.08578,0.104386 0.08578,0.261483 0,0.206706 -0.14056,0.319361 -0.140561,0.112654 -0.399977,0.112654 h -0.553972 z"
         id="path278" />
    </g>
    <g
       aria-label="D"
       transform="translate(4.0367212,-3.2110949)"
       id="text64207"
       style="font-size:2.11667px;letter-spacing:0px;word-spacing:0px;white-space:pre">
      <path
         style="color:#000000;fill:#000000"
         d="m 49.04591,45.761028 v 1.199928 h 0.252181 q 0.319361,0 0.467156,-0.144694 0.148828,-0.144694 0.148828,-0.45682 0,-0.310059 -0.148828,-0.45372 -0.147795,-0.144694 -0.467156,-0.144694 z m -0.208773,-0.171566 h 0.428915 q 0.448552,0 0.658359,0.187069 0.209806,0.186035 0.209806,0.582911 0,0.398942 -0.21084,0.586011 -0.21084,0.187069 -0.657325,0.187069 h -0.428915 z"
         id="path281" />
    </g>
    <g
       aria-label="1"
       transform="translate(3.9683437,0.72404279)"
       id="text21749"
       style="font-size:2.11667px;letter-spacing:0px;word-spacing:0px;white-space:pre">
      <path
         style="color:#000000;fill:#000000"
         d="m 37.156555,39.0369 h 0.341065 v -1.177191 l -0.371038,0.07441 v -0.19017 l 0.36897,-0.07441 h 0.208774 v 1.36736 h 0.341065 V 39.2126 h -0.888836 z"
         id="path193" />
    </g>
    <g
       aria-label="2"
       transform="translate(0.17675146,-0.29124958)"
       id="text4209"
       style="font-size:2.11667px;line-height:1.25;letter-spacing:0px;word-spacing:0px;white-space:pre;shape-inside:url(#rect4211)">
      <path
         d="m 44.933521,40.091588 h 0.728639 v 0.1757 h -0.979787 v -0.1757 q 0.118856,-0.12299 0.323495,-0.329696 0.205673,-0.20774 0.258383,-0.267685 0.100252,-0.112654 0.139526,-0.190169 0.04031,-0.07855 0.04031,-0.153996 0,-0.12299 -0.08682,-0.200505 -0.08578,-0.07751 -0.224277,-0.07751 -0.09819,0 -0.207739,0.03411 -0.108521,0.03411 -0.232544,0.103353 v -0.21084 q 0.12609,-0.05064 0.235644,-0.07648 0.109555,-0.02584 0.200505,-0.02584 0.239779,0 0.382407,0.11989 0.142627,0.119889 0.142627,0.320394 0,0.09508 -0.03617,0.180868 -0.03514,0.08475 -0.129191,0.200505 -0.02584,0.02997 -0.164331,0.173633 -0.138493,0.142627 -0.390675,0.399976 z"
         style="font-size:2.11667px;line-height:1.25;letter-spacing:0px;word-spacing:0px;white-space:pre;shape-inside:url(#rect4211)"
         id="path82870" />
    </g>
    <g
       aria-label="3"
       transform="translate(11.766869,0.75721788)"
       id="text21749-4-4"
       style="font-size:2.11667px;letter-spacing:0px;word-spacing:0px;white-space:pre">
      <path
         style="color:#000000;fill:#000000"
         d="m 37.752901,38.380609 q 0.149862,0.03204 0.233578,0.133325 0.08475,0.101286 0.08475,0.250114 0,0.228411 -0.157097,0.353468 -0.157096,0.125057 -0.446485,0.125057 -0.09715,0 -0.200505,-0.01964 -0.102319,-0.0186 -0.211873,-0.05684 v -0.201539 q 0.08682,0.05064 0.190169,0.07648 0.103353,0.02584 0.216008,0.02584 0.196371,0 0.29869,-0.07751 0.103353,-0.07752 0.103353,-0.22531 0,-0.136426 -0.09612,-0.212907 -0.09508,-0.07751 -0.265617,-0.07751 H 37.321919 V 38.30206 h 0.188103 q 0.153996,0 0.235645,-0.06098 0.08165,-0.06201 0.08165,-0.177767 0,-0.118856 -0.08475,-0.181901 -0.08372,-0.06408 -0.240812,-0.06408 -0.08578,0 -0.183969,0.0186 -0.09819,0.0186 -0.216008,0.05788 v -0.186035 q 0.118856,-0.03307 0.222209,-0.04961 0.104387,-0.01654 0.196371,-0.01654 0.237712,0 0.376205,0.10852 0.138493,0.107487 0.138493,0.291456 0,0.128158 -0.07338,0.217041 -0.07338,0.08785 -0.208774,0.121957 z"
         id="path203" />
    </g>
    <g
       aria-label="4"
       transform="translate(15.854817,0.72404179)"
       id="text21749-4-6"
       style="font-size:2.11667px;letter-spacing:0px;word-spacing:0px;white-space:pre">
      <path
         style="color:#000000;fill:#000000"
         d="m 37.69399,37.851441 -0.5271,0.823724 h 0.5271 z M 37.63921,37.66954 h 0.262517 v 1.005625 h 0.220142 v 0.173633 H 37.90173 v 0.363803 h -0.20774 v -0.363803 h -0.696599 v -0.201539 z"
         id="path208" />
    </g>
    <g
       aria-label="5"
       transform="translate(19.855669,-15.113849)"
       id="text51953"
       style="font-size:2.11667px;letter-spacing:0px;word-spacing:0px;white-space:pre">
      <path
         style="color:#000000;fill:#000000"
         d="m 37.122448,53.507431 h 0.81959 v 0.1757 h -0.628387 v 0.378272 q 0.04548,-0.0155 0.09095,-0.02274 0.04548,-0.0083 0.09095,-0.0083 0.258383,0 0.409278,0.141593 0.150896,0.141594 0.150896,0.38344 0,0.249081 -0.15503,0.387574 -0.155029,0.13746 -0.437183,0.13746 -0.09715,0 -0.198438,-0.01654 -0.100252,-0.01654 -0.207739,-0.04961 v -0.209807 q 0.09302,0.05064 0.192236,0.07545 0.09922,0.0248 0.209807,0.0248 0.178801,0 0.283187,-0.09405 0.104387,-0.09405 0.104387,-0.255282 0,-0.161231 -0.104387,-0.255282 -0.104386,-0.09405 -0.283187,-0.09405 -0.08372,0 -0.167432,0.0186 -0.08268,0.0186 -0.169499,0.05788 z"
         id="path211" />
    </g>
    <g
       aria-label="6"
       transform="translate(23.697007,-19.05256)"
       id="text58851"
       style="font-size:2.11667px;letter-spacing:0px;word-spacing:0px;white-space:pre">
      <path
         style="color:#000000;fill:#000000"
         d="m 37.592704,58.154746 q -0.14056,0 -0.223242,0.09612 -0.08165,0.09612 -0.08165,0.263551 0,0.166398 0.08165,0.26355 0.08268,0.09612 0.223242,0.09612 0.14056,0 0.222209,-0.09612 0.08268,-0.09715 0.08268,-0.26355 0,-0.167432 -0.08268,-0.263551 -0.08165,-0.09612 -0.222209,-0.09612 z m 0.414446,-0.654225 v 0.19017 q -0.07855,-0.03721 -0.159164,-0.05684 -0.07958,-0.01964 -0.15813,-0.01964 -0.206706,0 -0.31626,0.139526 -0.108521,0.139527 -0.124024,0.421681 0.06098,-0.08992 0.152963,-0.13746 0.09198,-0.04858 0.202572,-0.04858 0.232544,0 0.366903,0.141594 0.135392,0.14056 0.135392,0.38344 0,0.237711 -0.14056,0.381372 -0.14056,0.143661 -0.374138,0.143661 -0.267684,0 -0.409278,-0.204639 -0.141593,-0.205673 -0.141593,-0.595314 0,-0.365869 0.173633,-0.582911 0.173633,-0.218074 0.466122,-0.218074 0.07855,0 0.15813,0.0155 0.08062,0.0155 0.167432,0.04651 z"
         id="path214" />
    </g>
    <g
       aria-label="A"
       transform="translate(1.1613948,0.71118636)"
       id="text12338"
       style="font-size:2.11667px;line-height:1.25;letter-spacing:0px;word-spacing:0px;white-space:pre;shape-inside:url(#rect12340)">
      <path
         d="m 40.270346,41.83615 -0.283187,0.767913 h 0.567408 z m -0.117822,-0.205673 h 0.236678 l 0.588079,1.543061 h -0.217042 l -0.14056,-0.395842 h -0.695565 l -0.140561,0.395842 h -0.220142 z"
         style="font-size:2.11667px;line-height:1.25;letter-spacing:0px;word-spacing:0px;white-space:pre;shape-inside:url(#rect12340)"
         id="path82867" />
    </g>
    <g
       aria-label="E"
       transform="translate(7.9340767,-7.2142183)"
       id="text110255"
       style="font-size:2.11667px;letter-spacing:0px;word-spacing:0px;white-space:pre">
      <path
         style="color:#000000;fill:#000000"
         d="m 48.983381,49.548446 h 0.975653 v 0.1757 h -0.766879 v 0.456821 h 0.73484 v 0.1757 h -0.73484 v 0.55914 h 0.785483 v 0.1757 h -0.994257 z"
         id="path302" />
    </g>
    <g
       aria-label="F"
       transform="translate(11.959767,-15.136056)"
       id="text133561"
       style="font-size:2.11667px;letter-spacing:0px;word-spacing:0px;white-space:pre">
      <path
         style="color:#000000;fill:#000000"
         d="m 49.043326,57.466415 h 0.886769 v 0.1757 h -0.677996 v 0.454753 h 0.61185 v 0.1757 h -0.61185 v 0.736908 h -0.208773 z"
         id="path314" />
    </g>
    <g
       aria-label="C"
       transform="translate(0,0.74795614)"
       id="text17700"
       style="font-size:2.11667px;line-height:1.25;letter-spacing:0px;word-spacing:0px;white-space:pre;shape-inside:url(#rect17702)">
      <path
         d="m 50.068588,41.749333 v 0.220142 q -0.10542,-0.09819 -0.225309,-0.146761 -0.118856,-0.04858 -0.253215,-0.04858 -0.264584,0 -0.405144,0.162264 -0.14056,0.161231 -0.14056,0.467156 0,0.304891 0.14056,0.467156 0.14056,0.16123 0.405144,0.16123 0.134359,0 0.253215,-0.04858 0.119889,-0.04857 0.225309,-0.146761 v 0.218075 q -0.109554,0.07441 -0.232544,0.111621 -0.121957,0.03721 -0.258383,0.03721 -0.350366,0 -0.551905,-0.21394 -0.201538,-0.214975 -0.201538,-0.586012 0,-0.372071 0.201538,-0.586012 0.201539,-0.214974 0.551905,-0.214974 0.138493,0 0.26045,0.03721 0.12299,0.03617 0.230477,0.109554 z"
         style="text-align:center;text-anchor:middle"
         id="path82864" />
    </g>
    <path
       style="color:#000000;fill:#000000;fill-rule:evenodd;stroke-linecap:round;stroke-linejoin:bevel"
       d="m 63.302734,37.208984 -0.132813,0.13086 v 3.960937 l 0.132813,0.132813 h 3.958984 l 0.132813,-0.132813 v -3.960937 l -0.132813,-0.13086 z m 0.132812,0.263672 h 3.69336 v 3.695313 h -3.69336 z"
       id="rect56-3" />
    <path
       style="color:#000000;fill:#000000;fill-rule:evenodd;stroke-linecap:round;stroke-linejoin:bevel"
       d="m 67.261718,37.208984 -0.132812,0.13086 v 3.960937 l 0.132812,0.132813 h 3.958985 l 0.132812,-0.132813 v -3.960937 l -0.132812,-0.13086 z m 0.132813,0.263672 h 3.693359 v 3.695313 h -3.693359 z"
       id="rect58-6" />
    <path
       style="color:#000000;fill:#000000;fill-rule:evenodd;stroke-linecap:round;stroke-linejoin:bevel"
       d="m 71.220703,37.208984 -0.132813,0.13086 v 3.960937 l 0.132813,0.132813 h 3.958984 L 75.3125,41.300781 v -3.960937 l -0.132813,-0.13086 z m 0.132812,0.263672 h 3.695313 v 3.695313 h -3.695313 z"
       id="rect60-7" />
    <path
       style="color:#000000;fill:#000000;fill-rule:evenodd;stroke-linecap:round;stroke-linejoin:bevel"
       d="m 75.179687,37.208984 -0.130859,0.13086 v 3.960937 l 0.130859,0.132813 h 3.960938 l 0.132812,-0.132813 v -3.960937 l -0.132812,-0.13086 z m 0.132813,0.263672 h 3.695312 v 3.695313 H 75.3125 Z"
       id="rect62-5" />
    <path
       style="color:#000000;fill:#000000;fill-rule:evenodd;stroke-linecap:round;stroke-linejoin:bevel"
       d="m 79.140625,37.208984 -0.132813,0.13086 v 3.960937 l 0.132813,0.132813 h 3.958984 l 0.132812,-0.132813 v -3.960937 l -0.132812,-0.13086 z m 0.132812,0.263672 h 3.693359 v 3.695313 h -3.693359 z"
       id="rect64-3" />
    <path
       style="color:#000000;fill:#000000;fill-rule:evenodd;stroke-linecap:round;stroke-linejoin:bevel"
       d="m 83.099609,37.208984 -0.132813,0.13086 v 3.960937 l 0.132813,0.132813 h 3.958984 l 0.132813,-0.132813 v -3.960937 l -0.132813,-0.13086 z m 0.132812,0.263672 h 3.69336 v 3.695313 h -3.69336 z"
       id="rect66-5" />
    <path
       style="color:#000000;fill:#000000;fill-rule:evenodd;stroke-linecap:round;stroke-linejoin:bevel"
       d="m 63.302734,41.167969 -0.132813,0.132812 v 3.958985 l 0.132813,0.132812 h 3.958984 l 0.132813,-0.132812 v -3.958985 l -0.132813,-0.132812 z m 0.132812,0.265625 h 3.69336 v 3.693359 h -3.69336 z"
       id="rect68-6" />
    <path
       style="color:#000000;fill:#000000;fill-rule:evenodd;stroke-linecap:round;stroke-linejoin:bevel"
       d="m 67.261718,41.167969 -0.132812,0.132812 v 3.958985 l 0.132812,0.132812 h 3.958985 l 0.132812,-0.132812 v -3.958985 l -0.132812,-0.132812 z m 0.132813,0.265625 h 3.693359 v 3.693359 h -3.693359 z"
       id="rect70-2" />
    <path
       style="color:#000000;fill:#000000;fill-rule:evenodd;stroke-linecap:round;stroke-linejoin:bevel"
       d="m 71.220703,41.167969 -0.132813,0.132812 v 3.958985 l 0.132813,0.132812 h 3.958984 L 75.3125,45.259766 v -3.958985 l -0.132813,-0.132812 z m 0.132812,0.265625 h 3.695313 v 3.693359 h -3.695313 z"
       id="rect72-9" />
    <path
       style="color:#000000;fill:#000000;fill-rule:evenodd;stroke-linecap:round;stroke-linejoin:bevel"
       d="m 75.179687,41.167969 -0.130859,0.132812 v 3.958985 l 0.130859,0.132812 h 3.960938 l 0.132812,-0.132812 v -3.958985 l -0.132812,-0.132812 z m 0.132813,0.265625 h 3.695312 v 3.693359 H 75.3125 Z"
       id="rect74-1" />
    <path
       style="color:#000000;fill:#000000;fill-rule:evenodd;stroke-linecap:round;stroke-linejoin:bevel"
       d="m 79.140625,41.167969 -0.132813,0.132812 v 3.958985 l 0.132813,0.132812 h 3.958984 l 0.132812,-0.132812 v -3.958985 l -0.132812,-0.132812 z m 0.132812,0.265625 h 3.693359 v 3.693359 h -3.693359 z"
       id="rect76-2" />
    <path
       style="color:#000000;fill:#000000;fill-rule:evenodd;stroke-linecap:round;stroke-linejoin:bevel"
       d="m 83.099609,41.167969 -0.132813,0.132812 v 3.958985 l 0.132813,0.132812 h 3.958984 l 0.132813,-0.132812 v -3.958985 l -0.132813,-0.132812 z m 0.132812,0.265625 h 3.69336 v 3.693359 h -3.69336 z"
       id="rect78-7" />
    <g
       aria-label="7"
       transform="translate(0,0.71025143)"
       id="text5197"
       style="font-size:2.11667px;line-height:1.25;letter-spacing:0px;word-spacing:0px;white-space:pre;shape-inside:url(#rect5199)">
      <path
         d="m 64.782515,37.66954 h 0.992189 v 0.08888 l -0.560174,1.454178 h -0.218075 l 0.527101,-1.367361 h -0.741041 z"
         style="text-align:center;text-anchor:middle"
         id="path225030" />
    </g>
    <g
       aria-label="8"
       transform="translate(0,0.61154869)"
       id="text12655"
       style="font-size:2.11667px;line-height:1.25;letter-spacing:0px;word-spacing:0px;white-space:pre;shape-inside:url(#rect12657)">
      <path
         d="m 69.240694,38.61264 q -0.148828,0 -0.234611,0.07958 -0.08475,0.07958 -0.08475,0.219108 0,0.139527 0.08475,0.219109 0.08578,0.07958 0.234611,0.07958 0.148829,0 0.234612,-0.07958 0.08578,-0.08062 0.08578,-0.219109 0,-0.139526 -0.08578,-0.219108 -0.08475,-0.07958 -0.234612,-0.07958 z m -0.208773,-0.08888 q -0.134359,-0.03307 -0.209807,-0.125057 -0.07441,-0.09198 -0.07441,-0.224276 0,-0.185002 0.131259,-0.292489 0.132291,-0.107487 0.361735,-0.107487 0.230477,0 0.361736,0.107487 0.131258,0.107487 0.131258,0.292489 0,0.132292 -0.07545,0.224276 -0.07441,0.09199 -0.207739,0.125057 0.150895,0.03514 0.234611,0.13746 0.08475,0.102319 0.08475,0.250114 0,0.224276 -0.13746,0.344166 -0.136426,0.119889 -0.391708,0.119889 -0.255282,0 -0.392741,-0.119889 -0.136426,-0.11989 -0.136426,-0.344166 0,-0.147795 0.08475,-0.250114 0.08475,-0.102319 0.235645,-0.13746 z m -0.07648,-0.3297 q 0,0.11989 0.07441,0.187069 0.07545,0.06718 0.21084,0.06718 0.134359,0 0.209807,-0.06718 0.07648,-0.06718 0.07648,-0.187069 0,-0.119889 -0.07648,-0.187069 -0.07545,-0.06718 -0.209807,-0.06718 -0.135392,0 -0.21084,0.06718 -0.07441,0.06718 -0.07441,0.187069 z"
         style="text-align:center;text-anchor:middle"
         id="path225027" />
    </g>
    <g
       aria-label="9"
       transform="translate(0,0.6197973)"
       id="text19607"
       style="font-size:2.11667px;line-height:1.25;letter-spacing:0px;word-spacing:0px;white-space:pre;shape-inside:url(#rect19609)">
      <path
         d="m 72.760371,39.313374 v -0.19017 q 0.07855,0.03721 0.159164,0.05684 0.08062,0.01964 0.15813,0.01964 0.206706,0 0.315227,-0.138493 0.109554,-0.139526 0.125057,-0.422714 -0.05994,0.08888 -0.151929,0.136426 -0.09198,0.04754 -0.203606,0.04754 -0.23151,0 -0.366903,-0.139527 -0.134359,-0.14056 -0.134359,-0.38344 0,-0.237712 0.14056,-0.381372 0.140561,-0.143661 0.374138,-0.143661 0.267685,0 0.408245,0.205673 0.141593,0.204639 0.141593,0.595313 0,0.364836 -0.173633,0.582911 -0.172599,0.217041 -0.465088,0.217041 -0.07855,0 -0.159164,-0.0155 -0.08061,-0.0155 -0.167432,-0.04651 z m 0.415479,-0.654225 q 0.14056,0 0.222209,-0.09612 0.08268,-0.09612 0.08268,-0.263551 0,-0.166398 -0.08268,-0.262516 -0.08165,-0.09715 -0.222209,-0.09715 -0.14056,0 -0.223242,0.09715 -0.08165,0.09612 -0.08165,0.262516 0,0.167432 0.08165,0.263551 0.08268,0.09612 0.223242,0.09612 z"
         style="text-align:center;text-anchor:middle"
         id="path225024" />
    </g>
    <g
       aria-label="10"
       transform="translate(0,0.61931327)"
       id="text28265"
       style="font-size:2.11667px;line-height:1.25;letter-spacing:0px;word-spacing:0px;white-space:pre;shape-inside:url(#rect28267)">
      <path
         d="m 76.075983,39.169713 h 0.341065 v -1.177191 l -0.371037,0.07441 v -0.190169 l 0.36897,-0.07442 h 0.208773 v 1.367361 h 0.341065 v 0.1757 h -0.888836 z"
         style="text-align:center;text-anchor:middle"
         id="path225019" />
      <path
         d="m 77.832984,37.939812 q -0.16123,0 -0.242879,0.159164 -0.08062,0.15813 -0.08062,0.476457 0,0.317294 0.08062,0.476457 0.08165,0.158131 0.242879,0.158131 0.162265,0 0.24288,-0.158131 0.08165,-0.159163 0.08165,-0.476457 0,-0.318327 -0.08165,-0.476457 -0.08061,-0.159164 -0.24288,-0.159164 z m 0,-0.165365 q 0.259416,0 0.395842,0.205673 0.13746,0.204639 0.13746,0.595313 0,0.389641 -0.13746,0.595313 -0.136426,0.204639 -0.395842,0.204639 -0.259416,0 -0.396875,-0.204639 -0.136426,-0.205672 -0.136426,-0.595313 0,-0.390674 0.136426,-0.595313 0.137459,-0.205673 0.396875,-0.205673 z"
         style="text-align:center;text-anchor:middle"
         id="path225021" />
    </g>
    <g
       aria-label="11"
       transform="translate(0,0.60152023)"
       id="text32926"
       style="font-size:2.11667px;line-height:1.25;letter-spacing:0px;word-spacing:0px;white-space:pre;shape-inside:url(#rect32928)">
      <path
         d="m 80.035944,39.169713 h 0.341065 v -1.177191 l -0.371037,0.07441 v -0.190169 l 0.36897,-0.07442 h 0.208773 v 1.367361 h 0.341065 v 0.1757 h -0.888836 z"
         style="text-align:center;text-anchor:middle"
         id="path225014" />
      <path
         d="m 81.382634,39.169713 h 0.341065 v -1.177191 l -0.371038,0.07441 v -0.190169 l 0.368971,-0.07442 h 0.208773 v 1.367361 h 0.341065 v 0.1757 h -0.888836 z"
         style="text-align:center;text-anchor:middle"
         id="path225016" />
    </g>
    <g
       aria-label="12"
       transform="translate(0,0.62181736)"
       id="text38000"
       style="font-size:2.11667px;line-height:1.25;letter-spacing:0px;word-spacing:0px;white-space:pre;shape-inside:url(#rect38002)">
      <path
         d="m 83.994928,39.169713 h 0.341065 v -1.177191 l -0.371037,0.07441 v -0.190169 l 0.36897,-0.07442 h 0.208773 v 1.367361 h 0.341065 v 0.1757 h -0.888836 z"
         style="text-align:center;text-anchor:middle"
         id="path225009" />
      <path
         d="m 85.485279,39.169713 h 0.728639 v 0.1757 h -0.979787 v -0.1757 q 0.118856,-0.12299 0.323495,-0.329696 0.205673,-0.20774 0.258383,-0.267685 0.100252,-0.112654 0.139526,-0.190169 0.04031,-0.07855 0.04031,-0.153996 0,-0.12299 -0.08682,-0.200505 -0.08578,-0.07751 -0.224276,-0.07751 -0.09819,0 -0.207739,0.03411 -0.108521,0.03411 -0.232545,0.103353 v -0.21084 q 0.126091,-0.05064 0.235645,-0.07648 0.109554,-0.02584 0.200505,-0.02584 0.239779,0 0.382406,0.11989 0.142627,0.119889 0.142627,0.320394 0,0.09508 -0.03617,0.180868 -0.03514,0.08475 -0.129191,0.200505 -0.02584,0.02997 -0.164332,0.173633 -0.138493,0.142627 -0.390674,0.399976 z"
         style="text-align:center;text-anchor:middle"
         id="path225011" />
    </g>
    <g
       aria-label="G"
       transform="translate(0,0.5932409)"
       id="text118671"
       style="font-size:2.11667px;line-height:1.25;letter-spacing:0px;word-spacing:0px;white-space:pre;shape-inside:url(#rect118673)">
      <path
         d="m 65.655587,43.086209 v -0.414446 h -0.341065 v -0.171566 h 0.547771 v 0.662493 q -0.120923,0.08578 -0.26665,0.130225 -0.145728,0.04341 -0.311093,0.04341 -0.361736,0 -0.566374,-0.21084 -0.203606,-0.211874 -0.203606,-0.589113 0,-0.378272 0.203606,-0.589112 0.204638,-0.211873 0.566374,-0.211873 0.150895,0 0.286288,0.03721 0.136426,0.03721 0.251148,0.109554 v 0.222209 q -0.115756,-0.09819 -0.24598,-0.147795 -0.130225,-0.04961 -0.273886,-0.04961 -0.283187,0 -0.425814,0.15813 -0.141594,0.15813 -0.141594,0.471289 0,0.312127 0.141594,0.470257 0.142627,0.15813 0.425814,0.15813 0.110588,0 0.197404,-0.0186 0.08682,-0.01964 0.156063,-0.05994 z"
         style="text-align:center;text-anchor:middle"
         id="path224946" />
    </g>
    <g
       aria-label="H"
       transform="translate(0,0.56917553)"
       id="text131122"
       style="font-size:2.11667px;line-height:1.25;letter-spacing:0px;word-spacing:0px;white-space:pre;shape-inside:url(#rect131124)">
      <path
         d="m 68.653132,41.76329 h 0.208773 v 0.63252 h 0.758612 v -0.63252 h 0.208773 v 1.543061 h -0.208773 v -0.73484 h -0.758612 v 0.73484 h -0.208773 z"
         style="text-align:center;text-anchor:middle"
         id="path224943" />
    </g>
    <g
       aria-label="I"
       transform="translate(0,0.56214045)"
       id="text137000"
       style="font-size:2.11667px;line-height:1.25;letter-spacing:0px;word-spacing:0px;white-space:pre;shape-inside:url(#rect137002)">
      <path
         d="m 73.096785,41.76329 h 0.208773 v 1.543061 h -0.208773 z"
         style="text-align:center;text-anchor:middle"
         id="path224940" />
    </g>
    <g
       aria-label="J"
       transform="translate(0,0.56385143)"
       id="text143782"
       style="font-size:2.11667px;line-height:1.25;letter-spacing:0px;word-spacing:0px;white-space:pre;shape-inside:url(#rect143784)">
      <path
         d="m 77.05577,41.76329 h 0.208773 v 1.435573 q 0,0.279054 -0.106454,0.405144 -0.10542,0.126091 -0.340031,0.126091 h -0.07958 v -0.1757 h 0.06511 q 0.138493,0 0.195338,-0.07751 0.05684,-0.07751 0.05684,-0.27802 z"
         style="text-align:center;text-anchor:middle"
         id="path224937" />
    </g>
    <g
       aria-label="K"
       transform="translate(0,0.56056945)"
       id="text149320"
       style="font-size:2.11667px;line-height:1.25;letter-spacing:0px;word-spacing:0px;white-space:pre;shape-inside:url(#rect149322)">
      <path
         d="m 80.633841,41.76329 h 0.208773 v 0.652157 L 81.53508,41.76329 h 0.268717 l -0.765845,0.719337 0.820623,0.823724 h -0.27492 l -0.741041,-0.743109 v 0.743109 h -0.208773 z"
         style="text-align:center;text-anchor:middle"
         id="path224934" />
    </g>
    <g
       aria-label="L"
       transform="translate(0,0.56530535)"
       id="text153976"
       style="font-size:2.11667px;line-height:1.25;letter-spacing:0px;word-spacing:0px;white-space:pre;shape-inside:url(#rect153978)">
      <path
         d="m 84.697212,41.76329 h 0.208773 v 1.36736 h 0.751377 v 0.175701 h -0.96015 z"
         style="text-align:center;text-anchor:middle"
         id="path224931" />
    </g>
    <g
       id="text207342"
       style="font-size:1.41111px;line-height:1.25;letter-spacing:0px;word-spacing:0px;white-space:pre;shape-inside:url(#rect207344)" />
    <path
       style="color:#000000;fill:#000000;fill-rule:evenodd;stroke-linecap:round;stroke-linejoin:bevel"
       d="m 39.536264,45.17493 -0.132813,0.13086 v 3.960937 l 0.132813,0.132813 h 3.958984 l 0.132813,-0.132813 V 45.30579 l -0.132813,-0.13086 z m 0.132812,0.263672 h 3.69336 v 3.695313 h -3.69336 z"
       id="rect56-36" />
    <path
       style="color:#000000;fill:#000000;fill-rule:evenodd;stroke-linecap:round;stroke-linejoin:bevel"
       d="m 43.495248,45.17493 -0.132812,0.13086 v 3.960937 l 0.132812,0.132813 h 3.958985 l 0.132812,-0.132813 V 45.30579 l -0.132812,-0.13086 z m 0.132813,0.263672 h 3.693359 v 3.695313 h -3.693359 z"
       id="rect58-7" />
    <path
       style="color:#000000;fill:#000000;fill-rule:evenodd;stroke-linecap:round;stroke-linejoin:bevel"
       d="m 47.454233,45.17493 -0.132813,0.13086 v 3.960937 l 0.132813,0.132813 h 3.958984 L 51.54603,49.266727 V 45.30579 l -0.132813,-0.13086 z m 0.132812,0.263672 h 3.695313 v 3.695313 h -3.695313 z"
       id="rect60-5" />
    <path
       style="color:#000000;fill:#000000;fill-rule:evenodd;stroke-linecap:round;stroke-linejoin:bevel"
       d="m 51.413217,45.17493 -0.130859,0.13086 v 3.960937 l 0.130859,0.132813 h 3.960938 l 0.13281,-0.132813 V 45.30579 l -0.13281,-0.13086 z m 0.132813,0.263672 h 3.695305 v 3.695313 H 51.54603 Z"
       id="rect62-3" />
    <path
       style="color:#000000;fill:#000000;fill-rule:evenodd;stroke-linecap:round;stroke-linejoin:bevel"
       d="m 55.374155,45.17493 -0.13282,0.13086 v 3.960937 l 0.13282,0.132813 h 3.95898 l 0.13281,-0.132813 V 45.30579 l -0.13281,-0.13086 z m 0.13281,0.263672 h 3.69336 v 3.695313 h -3.69336 z"
       id="rect64-5" />
    <path
       style="color:#000000;fill:#000000;fill-rule:evenodd;stroke-linecap:round;stroke-linejoin:bevel"
       d="m 59.333135,45.17493 -0.13281,0.13086 v 3.960937 l 0.13281,0.132813 h 3.95898 l 0.13282,-0.132813 V 45.30579 l -0.13282,-0.13086 z m 0.13281,0.263672 h 3.69336 v 3.695313 h -3.69336 z"
       id="rect66-6" />
    <path
       style="color:#000000;fill:#000000;fill-rule:evenodd;stroke-linecap:round;stroke-linejoin:bevel"
       d="m 39.536264,49.133915 -0.132813,0.132812 v 3.958985 l 0.132813,0.132812 h 3.958984 l 0.132813,-0.132812 v -3.958985 l -0.132813,-0.132812 z m 0.132812,0.265625 h 3.69336 v 3.693359 h -3.69336 z"
       id="rect68-2" />
    <path
       style="color:#000000;fill:#000000;fill-rule:evenodd;stroke-linecap:round;stroke-linejoin:bevel"
       d="m 43.495248,49.133915 -0.132812,0.132812 v 3.958985 l 0.132812,0.132812 h 3.958985 l 0.132812,-0.132812 v -3.958985 l -0.132812,-0.132812 z m 0.132813,0.265625 h 3.693359 v 3.693359 h -3.693359 z"
       id="rect70-9" />
    <path
       style="color:#000000;fill:#000000;fill-rule:evenodd;stroke-linecap:round;stroke-linejoin:bevel"
       d="m 47.454233,49.133915 -0.132813,0.132812 v 3.958985 l 0.132813,0.132812 h 3.958984 l 0.132813,-0.132812 v -3.958985 l -0.132813,-0.132812 z m 0.132812,0.265625 h 3.695313 v 3.693359 h -3.695313 z"
       id="rect72-1" />
    <path
       style="color:#000000;fill:#000000;fill-rule:evenodd;stroke-linecap:round;stroke-linejoin:bevel"
       d="m 51.413217,49.133915 -0.130859,0.132812 v 3.958985 l 0.130859,0.132812 h 3.960938 l 0.13281,-0.132812 v -3.958985 l -0.13281,-0.132812 z m 0.132813,0.265625 h 3.695305 v 3.693359 H 51.54603 Z"
       id="rect74-2" />
    <path
       style="color:#000000;fill:#000000;fill-rule:evenodd;stroke-linecap:round;stroke-linejoin:bevel"
       d="m 55.374155,49.133915 -0.13282,0.132812 v 3.958985 l 0.13282,0.132812 h 3.95898 l 0.13281,-0.132812 v -3.958985 l -0.13281,-0.132812 z m 0.13281,0.265625 h 3.69336 v 3.693359 h -3.69336 z"
       id="rect76-7" />
    <path
       style="color:#000000;fill:#000000;fill-rule:evenodd;stroke-linecap:round;stroke-linejoin:bevel"
       d="m 59.333135,49.133915 -0.13281,0.132812 v 3.958985 l 0.13281,0.132812 h 3.95898 l 0.13282,-0.132812 v -3.958985 l -0.13282,-0.132812 z m 0.13281,0.265625 h 3.69336 v 3.693359 h -3.69336 z"
       id="rect78-0" />
    <path
       style="color:#000000;fill:#000000;fill-rule:evenodd;stroke-linecap:round;stroke-linejoin:bevel"
       d="m 63.292115,45.17493 -0.13281,0.13086 v 3.960937 l 0.13281,0.132813 h 3.95899 l 0.13281,-0.132813 V 45.30579 l -0.13281,-0.13086 z m 0.13282,0.263672 h 3.69336 v 3.695313 h -3.69336 z"
       id="rect56-3-1" />
    <path
       style="color:#000000;fill:#000000;fill-rule:evenodd;stroke-linecap:round;stroke-linejoin:bevel"
       d="m 67.251105,45.17493 -0.13281,0.13086 v 3.960937 l 0.13281,0.132813 h 3.95898 l 0.13281,-0.132813 V 45.30579 l -0.13281,-0.13086 z m 0.13281,0.263672 h 3.69336 v 3.695313 h -3.69336 z"
       id="rect58-6-2" />
    <path
       style="color:#000000;fill:#000000;fill-rule:evenodd;stroke-linecap:round;stroke-linejoin:bevel"
       d="m 71.210085,45.17493 -0.13281,0.13086 v 3.960937 l 0.13281,0.132813 h 3.95899 l 0.13281,-0.132813 V 45.30579 l -0.13281,-0.13086 z m 0.13281,0.263672 h 3.69532 v 3.695313 h -3.69532 z"
       id="rect60-7-9" />
    <path
       style="color:#000000;fill:#000000;fill-rule:evenodd;stroke-linecap:round;stroke-linejoin:bevel"
       d="m 75.169075,45.17493 -0.13086,0.13086 v 3.960937 l 0.13086,0.132813 h 3.96093 l 0.13282,-0.132813 V 45.30579 l -0.13282,-0.13086 z m 0.13281,0.263672 h 3.69531 v 3.695313 h -3.69531 z"
       id="rect62-5-3" />
    <path
       style="color:#000000;fill:#000000;fill-rule:evenodd;stroke-linecap:round;stroke-linejoin:bevel"
       d="m 79.130005,45.17493 -0.13281,0.13086 v 3.960937 l 0.13281,0.132813 h 3.95899 l 0.13281,-0.132813 V 45.30579 l -0.13281,-0.13086 z m 0.13282,0.263672 h 3.69336 v 3.695313 h -3.69336 z"
       id="rect64-3-1" />
    <path
       style="color:#000000;fill:#000000;fill-rule:evenodd;stroke-linecap:round;stroke-linejoin:bevel"
       d="m 83.088995,45.17493 -0.13281,0.13086 v 3.960937 l 0.13281,0.132813 h 3.95898 l 0.13282,-0.132813 V 45.30579 l -0.13282,-0.13086 z m 0.13281,0.263672 h 3.69336 v 3.695313 h -3.69336 z"
       id="rect66-5-9" />
    <path
       style="color:#000000;fill:#000000;fill-rule:evenodd;stroke-linecap:round;stroke-linejoin:bevel"
       d="m 63.292115,49.133915 -0.13281,0.132812 v 3.958985 l 0.13281,0.132812 h 3.95899 l 0.13281,-0.132812 v -3.958985 l -0.13281,-0.132812 z m 0.13282,0.265625 h 3.69336 v 3.693359 h -3.69336 z"
       id="rect68-6-4" />
    <path
       style="color:#000000;fill:#000000;fill-rule:evenodd;stroke-linecap:round;stroke-linejoin:bevel"
       d="m 67.251105,49.133915 -0.13281,0.132812 v 3.958985 l 0.13281,0.132812 h 3.95898 l 0.13281,-0.132812 v -3.958985 l -0.13281,-0.132812 z m 0.13281,0.265625 h 3.69336 v 3.693359 h -3.69336 z"
       id="rect70-2-7" />
    <path
       style="color:#000000;fill:#000000;fill-rule:evenodd;stroke-linecap:round;stroke-linejoin:bevel"
       d="m 71.210085,49.133915 -0.13281,0.132812 v 3.958985 l 0.13281,0.132812 h 3.95899 l 0.13281,-0.132812 v -3.958985 l -0.13281,-0.132812 z m 0.13281,0.265625 h 3.69532 v 3.693359 h -3.69532 z"
       id="rect72-9-8" />
    <path
       style="color:#000000;fill:#000000;fill-rule:evenodd;stroke-linecap:round;stroke-linejoin:bevel"
       d="m 75.169075,49.133915 -0.13086,0.132812 v 3.958985 l 0.13086,0.132812 h 3.96093 l 0.13282,-0.132812 v -3.958985 l -0.13282,-0.132812 z m 0.13281,0.265625 h 3.69531 v 3.693359 h -3.69531 z"
       id="rect74-1-4" />
    <path
       style="color:#000000;fill:#000000;fill-rule:evenodd;stroke-linecap:round;stroke-linejoin:bevel"
       d="m 79.130005,49.133915 -0.13281,0.132812 v 3.958985 l 0.13281,0.132812 h 3.95899 l 0.13281,-0.132812 v -3.958985 l -0.13281,-0.132812 z m 0.13282,0.265625 h 3.69336 v 3.693359 h -3.69336 z"
       id="rect76-2-5" />
    <path
       style="color:#000000;fill:#000000;fill-rule:evenodd;stroke-linecap:round;stroke-linejoin:bevel"
       d="m 83.088995,49.133915 -0.13281,0.132812 v 3.958985 l 0.13281,0.132812 h 3.95898 l 0.13282,-0.132812 v -3.958985 l -0.13282,-0.132812 z m 0.13281,0.265625 h 3.69336 v 3.693359 h -3.69336 z"
       id="rect78-7-0" />
    <g
       aria-label="13"
       transform="translate(-47.541715,8.583255)"
       id="text45962"
       style="font-size:2.11667px;line-height:1.25;letter-spacing:0px;word-spacing:0px;white-space:pre;shape-inside:url(#rect45964)">
      <path
         d="m 87.973444,39.171666 h 0.341065 v -1.177191 l -0.371037,0.07441 V 37.87872 l 0.36897,-0.07441 h 0.208773 v 1.36736 h 0.341065 v 0.1757 h -0.888836 z"
         style="text-align:center;text-anchor:middle"
         id="path225004" />
      <path
         d="m 89.916481,38.515374 q 0.149862,0.03204 0.233578,0.133326 0.08475,0.101286 0.08475,0.250114 0,0.22841 -0.157097,0.353467 -0.157096,0.125058 -0.446485,0.125058 -0.09715,0 -0.200504,-0.01964 -0.10232,-0.0186 -0.211874,-0.05684 v -0.201538 q 0.08682,0.05064 0.190169,0.07648 0.103353,0.02584 0.216008,0.02584 0.196371,0 0.29869,-0.07751 0.103353,-0.07752 0.103353,-0.22531 0,-0.136426 -0.09612,-0.212907 -0.09508,-0.07751 -0.265617,-0.07751 H 89.485498 V 38.436838 H 89.6736 q 0.153996,0 0.235645,-0.06098 0.08165,-0.06201 0.08165,-0.177767 0,-0.118856 -0.08475,-0.181902 -0.08372,-0.06408 -0.240812,-0.06408 -0.08578,0 -0.183968,0.0186 -0.09819,0.0186 -0.216008,0.05788 v -0.186036 q 0.118856,-0.03307 0.222209,-0.04961 0.104386,-0.01654 0.19637,-0.01654 0.237712,0 0.376205,0.108521 0.138493,0.107487 0.138493,0.291455 0,0.128158 -0.07338,0.217042 -0.07338,0.08785 -0.208773,0.121956 z"
         style="text-align:center;text-anchor:middle"
         id="path225006" />
    </g>
    <g
       aria-label="14"
       transform="translate(-47.541715,8.554935)"
       id="text54432"
       style="font-size:2.11667px;line-height:1.25;letter-spacing:0px;word-spacing:0px;white-space:pre;shape-inside:url(#rect54434)">
      <path
         d="m 91.932428,39.171666 h 0.341065 v -1.177191 l -0.371037,0.07441 V 37.87872 l 0.36897,-0.07441 h 0.208773 v 1.36736 h 0.341065 v 0.1757 h -0.888836 z"
         style="text-align:center;text-anchor:middle"
         id="path224999" />
      <path
         d="m 93.816554,37.986207 -0.527101,0.823723 h 0.527101 z m -0.05478,-0.181901 h 0.262516 v 1.005624 h 0.220142 v 0.173633 H 94.02429 v 0.363803 h -0.207739 v -0.363803 h -0.696599 v -0.201538 z"
         style="text-align:center;text-anchor:middle"
         id="path225001" />
    </g>
    <g
       aria-label="15"
       transform="translate(-47.541715,8.56018)"
       id="text60200"
       style="font-size:2.11667px;line-height:1.25;letter-spacing:0px;word-spacing:0px;white-space:pre;shape-inside:url(#rect60202)">
      <path
         d="m 95.892389,39.171666 h 0.341065 v -1.177191 l -0.371037,0.07441 V 37.87872 l 0.36897,-0.07441 h 0.208773 v 1.36736 h 0.341065 v 0.1757 h -0.888836 z"
         style="text-align:center;text-anchor:middle"
         id="path224994" />
      <path
         d="m 97.204973,37.804306 h 0.819589 v 0.1757 h -0.628386 v 0.378272 q 0.04547,-0.0155 0.09095,-0.02274 0.04548,-0.0083 0.09095,-0.0083 0.258383,0 0.409278,0.141593 0.150895,0.141594 0.150895,0.38344 0,0.249081 -0.155029,0.387574 -0.15503,0.13746 -0.437183,0.13746 -0.09715,0 -0.198438,-0.01654 -0.100253,-0.01654 -0.20774,-0.04961 v -0.209807 q 0.09302,0.05064 0.192237,0.07545 0.09922,0.0248 0.209806,0.0248 0.178801,0 0.283188,-0.09405 0.104386,-0.09405 0.104386,-0.255282 0,-0.161231 -0.104386,-0.255282 -0.104387,-0.09405 -0.283188,-0.09405 -0.08371,0 -0.167431,0.0186 -0.08268,0.0186 -0.169499,0.05788 z"
         style="text-align:center;text-anchor:middle"
         id="path224996" />
    </g>
    <g
       aria-label="16"
       transform="translate(-47.541715,8.585829)"
       id="text66776"
       style="font-size:2.11667px;line-height:1.25;letter-spacing:0px;word-spacing:0px;white-space:pre;shape-inside:url(#rect66778)">
      <path
         d="m 99.851374,39.171666 h 0.341066 v -1.177191 l -0.371039,0.07441 V 37.87872 l 0.368969,-0.07441 h 0.20877 v 1.36736 h 0.34107 v 0.1757 h -0.888836 z"
         style="text-align:center;text-anchor:middle"
         id="path224989" />
      <path
         d="m 101.63421,38.492637 q -0.14056,0 -0.22324,0.09612 -0.0817,0.09612 -0.0817,0.26355 0,0.166399 0.0817,0.26355 0.0827,0.09612 0.22324,0.09612 0.14056,0 0.22221,-0.09612 0.0827,-0.09715 0.0827,-0.26355 0,-0.167432 -0.0827,-0.26355 -0.0816,-0.09612 -0.22221,-0.09612 z m 0.41445,-0.654225 v 0.19017 q -0.0785,-0.03721 -0.15916,-0.05685 -0.0796,-0.01964 -0.15813,-0.01964 -0.20671,0 -0.31627,0.139527 -0.10852,0.139526 -0.12402,0.42168 0.061,-0.08992 0.15296,-0.137459 0.092,-0.04858 0.20258,-0.04858 0.23254,0 0.3669,0.141593 0.13539,0.140561 0.13539,0.38344 0,0.237712 -0.14056,0.381373 -0.14056,0.143661 -0.37414,0.143661 -0.26768,0 -0.40927,-0.204639 -0.1416,-0.205673 -0.1416,-0.595314 0,-0.36587 0.17363,-0.582911 0.17364,-0.218075 0.46613,-0.218075 0.0785,0 0.15813,0.0155 0.0806,0.0155 0.16743,0.04651 z"
         style="text-align:center;text-anchor:middle"
         id="path224991" />
    </g>
    <g
       aria-label="17"
       transform="translate(-47.541715,8.565873)"
       id="text72368"
       style="font-size:2.11667px;line-height:1.25;letter-spacing:0px;word-spacing:0px;white-space:pre;shape-inside:url(#rect72370)">
      <path
         d="m 103.81133,39.171666 h 0.34107 v -1.177191 l -0.37104,0.07441 V 37.87872 l 0.36897,-0.07441 h 0.20878 v 1.36736 h 0.34106 v 0.1757 h -0.88884 z"
         style="text-align:center;text-anchor:middle"
         id="path224984" />
      <path
         d="m 105.06914,37.804306 h 0.99219 v 0.08888 l -0.56017,1.454177 h -0.21808 l 0.5271,-1.36736 h -0.74104 z"
         style="text-align:center;text-anchor:middle"
         id="path224986" />
    </g>
    <g
       aria-label="18"
       transform="translate(-47.541715,8.58441)"
       id="text76912"
       style="font-size:2.11667px;line-height:1.25;letter-spacing:0px;word-spacing:0px;white-space:pre;shape-inside:url(#rect76914)">
      <path
         d="m 107.77032,39.171666 h 0.34106 v -1.177191 l -0.37103,0.07441 V 37.87872 l 0.36897,-0.07441 h 0.20877 v 1.36736 h 0.34106 v 0.1757 h -0.88883 z"
         style="text-align:center;text-anchor:middle"
         id="path224979" />
      <path
         d="m 109.52732,38.614593 q -0.14883,0 -0.23461,0.07958 -0.0847,0.07958 -0.0847,0.219108 0,0.139527 0.0847,0.219109 0.0858,0.07958 0.23461,0.07958 0.14883,0 0.23461,-0.07958 0.0858,-0.08062 0.0858,-0.219109 0,-0.139526 -0.0858,-0.219108 -0.0847,-0.07958 -0.23461,-0.07958 z m -0.20877,-0.08888 q -0.13436,-0.03307 -0.20981,-0.125058 -0.0744,-0.09198 -0.0744,-0.224276 0,-0.185002 0.13125,-0.292489 0.1323,-0.107487 0.36174,-0.107487 0.23048,0 0.36174,0.107487 0.13125,0.107487 0.13125,0.292489 0,0.132292 -0.0754,0.224276 -0.0744,0.09199 -0.20774,0.125058 0.15089,0.03514 0.23461,0.137459 0.0847,0.10232 0.0847,0.250114 0,0.224277 -0.13746,0.344166 -0.13643,0.11989 -0.39171,0.11989 -0.25528,0 -0.39274,-0.11989 -0.13643,-0.119889 -0.13643,-0.344166 0,-0.147794 0.0847,-0.250114 0.0847,-0.102319 0.23565,-0.137459 z m -0.0765,-0.329697 q 0,0.11989 0.0744,0.187069 0.0755,0.06718 0.21084,0.06718 0.13436,0 0.20981,-0.06718 0.0765,-0.06718 0.0765,-0.187069 0,-0.119889 -0.0765,-0.187069 -0.0754,-0.06718 -0.20981,-0.06718 -0.13539,0 -0.21084,0.06718 -0.0744,0.06718 -0.0744,0.187069 z"
         style="text-align:center;text-anchor:middle"
         id="path224981" />
    </g>
    <g
       aria-label="19"
       transform="translate(-47.541715,8.577062)"
       id="text82858"
       style="font-size:2.11667px;line-height:1.25;letter-spacing:0px;word-spacing:0px;white-space:pre;shape-inside:url(#rect82860)">
      <path
         d="m 111.7293,39.171666 h 0.34107 v -1.177191 l -0.37104,0.07441 V 37.87872 l 0.36897,-0.07441 h 0.20877 v 1.36736 h 0.34107 v 0.1757 h -0.88884 z"
         style="text-align:center;text-anchor:middle"
         id="path224974" />
      <path
         d="m 113.04602,39.315327 v -0.19017 q 0.0786,0.03721 0.15916,0.05684 0.0806,0.01964 0.15813,0.01964 0.20671,0 0.31523,-0.138493 0.10956,-0.139526 0.12506,-0.422714 -0.06,0.08888 -0.15193,0.136426 -0.092,0.04754 -0.20361,0.04754 -0.23151,0 -0.3669,-0.139527 -0.13436,-0.14056 -0.13436,-0.383439 0,-0.237712 0.14056,-0.381373 0.14056,-0.143661 0.37414,-0.143661 0.26768,0 0.40824,0.205673 0.1416,0.204639 0.1416,0.595313 0,0.364836 -0.17364,0.582911 -0.17259,0.217042 -0.46508,0.217042 -0.0785,0 -0.15917,-0.0155 -0.0806,-0.0155 -0.16743,-0.04651 z m 0.41548,-0.654225 q 0.14056,0 0.22221,-0.09612 0.0827,-0.09612 0.0827,-0.26355 0,-0.166399 -0.0827,-0.262517 -0.0817,-0.09715 -0.22221,-0.09715 -0.14056,0 -0.22324,0.09715 -0.0816,0.09612 -0.0816,0.262517 0,0.167431 0.0816,0.26355 0.0827,0.09612 0.22324,0.09612 z"
         style="text-align:center;text-anchor:middle"
         id="path224976" />
    </g>
    <g
       aria-label="20"
       transform="translate(-47.541715,8.577493)"
       id="text87764"
       style="font-size:2.11667px;line-height:1.25;letter-spacing:0px;word-spacing:0px;white-space:pre;shape-inside:url(#rect87766)">
      <path
         d="m 115.83195,39.171666 h 0.72864 v 0.1757 h -0.97979 v -0.1757 q 0.11886,-0.12299 0.3235,-0.329696 0.20567,-0.20774 0.25838,-0.267684 0.10025,-0.112655 0.13952,-0.19017 0.0403,-0.07855 0.0403,-0.153996 0,-0.12299 -0.0868,-0.200505 -0.0858,-0.07751 -0.22428,-0.07751 -0.0982,0 -0.20774,0.03411 -0.10852,0.03411 -0.23254,0.103353 v -0.21084 q 0.12609,-0.05064 0.23564,-0.07648 0.10955,-0.02584 0.20051,-0.02584 0.23977,0 0.3824,0.11989 0.14263,0.119889 0.14263,0.320394 0,0.09508 -0.0362,0.180868 -0.0351,0.08475 -0.1292,0.200505 -0.0258,0.02997 -0.16433,0.173633 -0.13849,0.142627 -0.39067,0.399976 z"
         style="text-align:center;text-anchor:middle"
         id="path224969" />
      <path
         d="m 117.44529,37.941765 q -0.16123,0 -0.24288,0.159164 -0.0806,0.15813 -0.0806,0.476457 0,0.317294 0.0806,0.476458 0.0816,0.15813 0.24288,0.15813 0.16226,0 0.24288,-0.15813 0.0816,-0.159164 0.0816,-0.476458 0,-0.318327 -0.0816,-0.476457 -0.0806,-0.159164 -0.24288,-0.159164 z m 0,-0.165365 q 0.25942,0 0.39584,0.205673 0.13746,0.204639 0.13746,0.595313 0,0.389641 -0.13746,0.595314 -0.13642,0.204639 -0.39584,0.204639 -0.25942,0 -0.39688,-0.204639 -0.13642,-0.205673 -0.13642,-0.595314 0,-0.390674 0.13642,-0.595313 0.13746,-0.205673 0.39688,-0.205673 z"
         style="text-align:center;text-anchor:middle"
         id="path224971" />
    </g>
    <g
       aria-label="21"
       transform="translate(-47.541715,8.554111)"
       id="text90976"
       style="font-size:2.11667px;line-height:1.25;letter-spacing:0px;word-spacing:0px;white-space:pre;shape-inside:url(#rect90978)">
      <path
         d="m 119.79191,39.171666 h 0.72864 v 0.1757 h -0.97979 v -0.1757 q 0.11886,-0.12299 0.3235,-0.329696 0.20567,-0.20774 0.25838,-0.267684 0.10025,-0.112655 0.13953,-0.19017 0.0403,-0.07855 0.0403,-0.153996 0,-0.12299 -0.0868,-0.200505 -0.0858,-0.07751 -0.22428,-0.07751 -0.0982,0 -0.20774,0.03411 -0.10852,0.03411 -0.23254,0.103353 v -0.21084 q 0.12609,-0.05064 0.23564,-0.07648 0.10956,-0.02584 0.20051,-0.02584 0.23978,0 0.3824,0.11989 0.14263,0.119889 0.14263,0.320394 0,0.09508 -0.0362,0.180868 -0.0351,0.08475 -0.12919,0.200505 -0.0258,0.02997 -0.16434,0.173633 -0.13849,0.142627 -0.39067,0.399976 z"
         style="text-align:center;text-anchor:middle"
         id="path224964" />
      <path
         d="m 120.99494,39.171666 h 0.34106 v -1.177191 l -0.37103,0.07441 V 37.87872 l 0.36897,-0.07441 h 0.20877 v 1.36736 h 0.34106 v 0.1757 h -0.88883 z"
         style="text-align:center;text-anchor:middle"
         id="path224966" />
    </g>
    <g
       aria-label="22"
       transform="translate(-47.541715,8.59869)"
       id="text96129"
       style="font-size:2.11667px;line-height:1.25;letter-spacing:0px;word-spacing:0px;white-space:pre;shape-inside:url(#rect96131)">
      <path
         d="m 123.75089,39.171666 h 0.72864 v 0.1757 h -0.97978 v -0.1757 q 0.11885,-0.12299 0.32349,-0.329696 0.20567,-0.20774 0.25838,-0.267684 0.10026,-0.112655 0.13953,-0.19017 0.0403,-0.07855 0.0403,-0.153996 0,-0.12299 -0.0868,-0.200505 -0.0858,-0.07751 -0.22427,-0.07751 -0.0982,0 -0.20774,0.03411 -0.10853,0.03411 -0.23255,0.103353 v -0.21084 q 0.12609,-0.05064 0.23565,-0.07648 0.10955,-0.02584 0.2005,-0.02584 0.23978,0 0.38241,0.11989 0.14262,0.119889 0.14262,0.320394 0,0.09508 -0.0362,0.180868 -0.0351,0.08475 -0.12919,0.200505 -0.0258,0.02997 -0.16433,0.173633 -0.13849,0.142627 -0.39068,0.399976 z"
         style="text-align:center;text-anchor:middle"
         id="path224959" />
      <path
         d="m 125.09758,39.171666 h 0.72864 v 0.1757 h -0.97978 v -0.1757 q 0.11885,-0.12299 0.32349,-0.329696 0.20567,-0.20774 0.25838,-0.267684 0.10026,-0.112655 0.13953,-0.19017 0.0403,-0.07855 0.0403,-0.153996 0,-0.12299 -0.0868,-0.200505 -0.0858,-0.07751 -0.22428,-0.07751 -0.0982,0 -0.20773,0.03411 -0.10853,0.03411 -0.23255,0.103353 v -0.21084 q 0.12609,-0.05064 0.23565,-0.07648 0.10955,-0.02584 0.2005,-0.02584 0.23978,0 0.38241,0.11989 0.14262,0.119889 0.14262,0.320394 0,0.09508 -0.0362,0.180868 -0.0351,0.08475 -0.12919,0.200505 -0.0258,0.02997 -0.16433,0.173633 -0.1385,0.142627 -0.39068,0.399976 z"
         style="text-align:center;text-anchor:middle"
         id="path224961" />
    </g>
    <g
       aria-label="23"
       transform="translate(-47.541715,8.584765)"
       id="text107165"
       style="font-size:2.11667px;line-height:1.25;letter-spacing:0px;word-spacing:0px;white-space:pre;shape-inside:url(#rect107167)">
      <path
         d="m 127.71085,39.171666 h 0.72864 v 0.1757 h -0.97978 v -0.1757 q 0.11885,-0.12299 0.32349,-0.329696 0.20567,-0.20774 0.25838,-0.267684 0.10026,-0.112655 0.13953,-0.19017 0.0403,-0.07855 0.0403,-0.153996 0,-0.12299 -0.0868,-0.200505 -0.0858,-0.07751 -0.22427,-0.07751 -0.0982,0 -0.20774,0.03411 -0.10852,0.03411 -0.23255,0.103353 v -0.21084 q 0.12609,-0.05064 0.23565,-0.07648 0.10955,-0.02584 0.2005,-0.02584 0.23978,0 0.38241,0.11989 0.14263,0.119889 0.14263,0.320394 0,0.09508 -0.0362,0.180868 -0.0351,0.08475 -0.12919,0.200505 -0.0258,0.02997 -0.16433,0.173633 -0.13849,0.142627 -0.39068,0.399976 z"
         style="text-align:center;text-anchor:middle"
         id="path224954" />
      <path
         d="m 129.51023,38.515374 q 0.14986,0.03204 0.23358,0.133326 0.0848,0.101286 0.0848,0.250114 0,0.22841 -0.1571,0.353467 -0.1571,0.125058 -0.44648,0.125058 -0.0972,0 -0.20051,-0.01964 -0.10232,-0.0186 -0.21187,-0.05684 v -0.201538 q 0.0868,0.05064 0.19017,0.07648 0.10335,0.02584 0.21601,0.02584 0.19637,0 0.29869,-0.07751 0.10335,-0.07752 0.10335,-0.22531 0,-0.136426 -0.0961,-0.212907 -0.0951,-0.07751 -0.26562,-0.07751 h -0.17983 v -0.171566 h 0.1881 q 0.154,0 0.23565,-0.06098 0.0816,-0.06201 0.0816,-0.177767 0,-0.118856 -0.0847,-0.181902 -0.0837,-0.06408 -0.24082,-0.06408 -0.0858,0 -0.18397,0.0186 -0.0982,0.0186 -0.216,0.05788 v -0.186036 q 0.11885,-0.03307 0.22221,-0.04961 0.10438,-0.01654 0.19637,-0.01654 0.23771,0 0.3762,0.108521 0.13849,0.107487 0.13849,0.291455 0,0.128158 -0.0734,0.217042 -0.0734,0.08785 -0.20877,0.121956 z"
         style="text-align:center;text-anchor:middle"
         id="path224956" />
    </g>
    <g
       aria-label="24"
       transform="translate(-47.541715,8.577187)"
       id="text114135"
       style="font-size:2.11667px;line-height:1.25;letter-spacing:0px;word-spacing:0px;white-space:pre;shape-inside:url(#rect114137)">
      <path
         d="m 131.66984,39.171666 h 0.72864 v 0.1757 h -0.97979 v -0.1757 q 0.11886,-0.12299 0.3235,-0.329696 0.20567,-0.20774 0.25838,-0.267684 0.10025,-0.112655 0.13953,-0.19017 0.0403,-0.07855 0.0403,-0.153996 0,-0.12299 -0.0868,-0.200505 -0.0858,-0.07751 -0.22428,-0.07751 -0.0982,0 -0.20774,0.03411 -0.10852,0.03411 -0.23254,0.103353 v -0.21084 q 0.12609,-0.05064 0.23564,-0.07648 0.10956,-0.02584 0.20051,-0.02584 0.23978,0 0.3824,0.11989 0.14263,0.119889 0.14263,0.320394 0,0.09508 -0.0362,0.180868 -0.0351,0.08475 -0.1292,0.200505 -0.0258,0.02997 -0.16433,0.173633 -0.13849,0.142627 -0.39067,0.399976 z"
         style="text-align:center;text-anchor:middle"
         id="path224949" />
      <path
         d="m 133.4103,37.986207 -0.5271,0.823723 h 0.5271 z m -0.0548,-0.181901 h 0.26251 v 1.005624 h 0.22015 v 0.173633 h -0.22015 v 0.363803 h -0.20774 v -0.363803 h -0.6966 v -0.201538 z"
         style="text-align:center;text-anchor:middle"
         id="path224951" />
    </g>
    <g
       aria-label="M"
       transform="translate(-47.541715,8.522868)"
       id="text158158"
       style="font-size:2.11667px;line-height:1.25;letter-spacing:0px;word-spacing:0px;white-space:pre;shape-inside:url(#rect158160)">
      <path
         d="m 88.352233,41.765243 h 0.311092 l 0.393775,1.050067 0.395842,-1.050067 h 0.311093 v 1.543061 H 89.56043 v -1.354958 l -0.397909,1.058334 h -0.209807 l -0.397909,-1.058334 v 1.354958 h -0.202572 z"
         style="text-align:center;text-anchor:middle"
         id="path224928" />
    </g>
    <g
       aria-label="N"
       transform="translate(-47.541715,8.528852)"
       id="text162206"
       style="font-size:2.11667px;line-height:1.25;letter-spacing:0px;word-spacing:0px;white-space:pre;shape-inside:url(#rect162208)">
      <path
         d="m 92.432657,41.765243 h 0.28112 l 0.684197,1.290879 v -1.290879 h 0.202572 v 1.543061 h -0.28112 l -0.684197,-1.29088 v 1.29088 h -0.202572 z"
         style="text-align:center;text-anchor:middle"
         id="path224925" />
    </g>
    <g
       aria-label="O"
       transform="translate(-47.541715,8.553748)"
       id="text166938"
       style="font-size:2.11667px;line-height:1.25;letter-spacing:0px;word-spacing:0px;white-space:pre;shape-inside:url(#rect166940)">
      <path
         d="m 96.977596,41.906837 q -0.227377,0 -0.361736,0.169499 -0.133325,0.169499 -0.133325,0.461988 0,0.291455 0.133325,0.460954 0.134359,0.169499 0.361736,0.169499 0.227377,0 0.359669,-0.169499 0.133325,-0.169499 0.133325,-0.460954 0,-0.292489 -0.133325,-0.461988 -0.132292,-0.169499 -0.359669,-0.169499 z m 0,-0.169499 q 0.324529,0 0.518832,0.218075 0.194304,0.217041 0.194304,0.582911 0,0.364836 -0.194304,0.582911 -0.194303,0.217041 -0.518832,0.217041 -0.325562,0 -0.520899,-0.217041 -0.194304,-0.217042 -0.194304,-0.582911 0,-0.36587 0.194304,-0.582911 0.195337,-0.218075 0.520899,-0.218075 z"
         style="text-align:center;text-anchor:middle"
         id="path224922" />
    </g>
    <g
       aria-label="P"
       transform="translate(-47.541715,8.523264)"
       id="text174634"
       style="font-size:2.11667px;line-height:1.25;letter-spacing:0px;word-spacing:0px;white-space:pre;shape-inside:url(#rect174636)">
      <path
         d="m 100.71385,41.936809 v 0.57981 h 0.26252 q 0.14573,0 0.22531,-0.07545 0.0796,-0.07545 0.0796,-0.214975 0,-0.138493 -0.0796,-0.21394 -0.0796,-0.07545 -0.22531,-0.07545 z m -0.20877,-0.171566 h 0.47129 q 0.25942,0 0.39171,0.117822 0.13332,0.116789 0.13332,0.343132 0,0.228411 -0.13332,0.3452 -0.13229,0.116789 -0.39171,0.116789 h -0.26252 v 0.620118 h -0.20877 z"
         style="text-align:center;text-anchor:middle"
         id="path224919" />
    </g>
    <g
       aria-label="R"
       transform="translate(-47.541715,8.518176)"
       id="text181510"
       style="font-size:2.11667px;line-height:1.25;letter-spacing:0px;word-spacing:0px;white-space:pre;shape-inside:url(#rect181512)">
      <path
         d="m 105.09963,42.584832 q 0.0672,0.02274 0.13022,0.09715 0.0641,0.07441 0.12816,0.204639 l 0.21188,0.421681 h -0.22428 l -0.1974,-0.395842 q -0.0765,-0.15503 -0.14883,-0.205673 -0.0713,-0.05064 -0.19534,-0.05064 h -0.22738 v 0.652158 h -0.20877 v -1.543061 h 0.47129 q 0.26458,0 0.39481,0.110588 0.13022,0.110587 0.13022,0.33383 0,0.145728 -0.0682,0.241846 -0.0672,0.09612 -0.19637,0.133325 z m -0.52297,-0.648023 v 0.547771 h 0.26252 q 0.1509,0 0.22738,-0.06925 0.0775,-0.07028 0.0775,-0.205673 0,-0.135392 -0.0775,-0.203605 -0.0765,-0.06925 -0.22738,-0.06925 z"
         style="text-align:center;text-anchor:middle"
         id="path224916" />
    </g>
    <g
       aria-label="S"
       transform="translate(-47.541715,8.564572)"
       id="text187614"
       style="font-size:2.11667px;line-height:1.25;letter-spacing:0px;word-spacing:0px;white-space:pre;shape-inside:url(#rect187616)">
      <path
         d="m 109.31545,41.815886 v 0.203605 q -0.11886,-0.05684 -0.22428,-0.08475 -0.10542,-0.0279 -0.2036,-0.0279 -0.17054,0 -0.26356,0.06615 -0.092,0.06615 -0.092,0.188102 0,0.10232 0.061,0.15503 0.062,0.05168 0.23358,0.08372 l 0.12609,0.02584 q 0.23358,0.04444 0.34416,0.157096 0.11162,0.111622 0.11162,0.299724 0,0.224276 -0.15089,0.340032 -0.14986,0.115755 -0.44028,0.115755 -0.10956,0 -0.23358,-0.02481 -0.12299,-0.0248 -0.25528,-0.07338 v -0.214975 q 0.12712,0.07131 0.24908,0.107487 0.12195,0.03617 0.23978,0.03617 0.1788,0 0.27595,-0.07028 0.0971,-0.07028 0.0971,-0.200505 0,-0.113688 -0.0703,-0.177767 -0.0692,-0.06408 -0.22841,-0.09612 l -0.12712,-0.02481 q -0.23358,-0.04651 -0.33797,-0.145728 -0.10439,-0.09922 -0.10439,-0.275952 0,-0.204639 0.14366,-0.322462 0.1447,-0.117822 0.39791,-0.117822 0.10852,0 0.22118,0.01964 0.11265,0.01964 0.23048,0.05891 z"
         style="text-align:center;text-anchor:middle"
         id="path224913" />
    </g>
    <g
       aria-label="T"
       transform="translate(-47.541715,8.532296)"
       id="text192168"
       style="font-size:2.11667px;line-height:1.25;letter-spacing:0px;word-spacing:0px;white-space:pre;shape-inside:url(#rect192170)">
      <path
         d="m 112.1608,41.765243 h 1.30535 v 0.1757 h -0.54777 v 1.367361 h -0.20981 v -1.367361 h -0.54777 z"
         style="text-align:center;text-anchor:middle"
         id="path224910" />
    </g>
    <g
       aria-label="U"
       transform="translate(-47.541715,8.53456)"
       id="text196898"
       style="font-size:2.11667px;line-height:1.25;letter-spacing:0px;word-spacing:0px;white-space:pre;shape-inside:url(#rect196900)">
      <path
         d="m 116.1818,41.765243 h 0.20981 v 0.937412 q 0,0.248047 0.0899,0.357601 0.0899,0.108521 0.29146,0.108521 0.2005,0 0.29042,-0.108521 0.0899,-0.109554 0.0899,-0.357601 v -0.937412 h 0.2098 v 0.96325 q 0,0.301791 -0.14986,0.455787 -0.14883,0.153996 -0.44028,0.153996 -0.29249,0 -0.44235,-0.153996 -0.14883,-0.153996 -0.14883,-0.455787 z"
         style="text-align:center;text-anchor:middle"
         id="path224907" />
    </g>
    <g
       aria-label="W"
       transform="translate(-47.541715,8.541666)"
       id="text202146"
       style="font-size:2.11667px;line-height:1.25;letter-spacing:0px;word-spacing:0px;white-space:pre;shape-inside:url(#rect202148)">
      <path
         d="m 119.75625,41.765243 h 0.21084 l 0.32453,1.304315 0.3235,-1.304315 h 0.23461 l 0.32453,1.304315 0.32349,-1.304315 h 0.21187 l -0.38757,1.543061 h -0.26252 l -0.32556,-1.339456 -0.32866,1.339456 h -0.26252 z"
         style="text-align:center;text-anchor:middle"
         id="path224904" />
    </g>
    <g
       aria-label="X"
       transform="translate(-47.541715,8.525223)"
       id="text211110"
       style="font-size:2.11667px;line-height:1.25;letter-spacing:0px;word-spacing:0px;white-space:pre;shape-inside:url(#rect211112)">
      <path
         d="m 124.09971,41.765243 h 0.22428 l 0.38344,0.573609 0.3855,-0.573609 h 0.22428 l -0.4961,0.741041 0.52917,0.80202 h -0.22427 l -0.43409,-0.656292 -0.43718,0.656292 h -0.22531 l 0.55087,-0.823724 z"
         style="text-align:center;text-anchor:middle"
         id="path224900" />
    </g>
    <g
       aria-label="Y"
       transform="translate(-47.541715,8.528582)"
       id="text219130"
       style="font-size:2.11667px;line-height:1.25;letter-spacing:0px;word-spacing:0px;white-space:pre;shape-inside:url(#rect219132)">
      <path
         d="m 128.00076,41.765243 h 0.22428 l 0.42788,0.634588 0.42478,-0.634588 h 0.22427 l -0.5457,0.808221 v 0.73484 h -0.20981 v -0.73484 z"
         style="text-align:center;text-anchor:middle"
         id="path224897" />
    </g>
    <g
       aria-label="Z"
       transform="translate(-47.541715,8.533864)"
       id="text223454"
       style="font-size:2.11667px;line-height:1.25;letter-spacing:0px;word-spacing:0px;white-space:pre;shape-inside:url(#rect223456)">
      <path
         d="m 132.00419,41.765243 h 1.21233 v 0.159164 l -0.97566,1.208196 h 0.99943 v 0.175701 h -1.25988 V 43.14914 l 0.97566,-1.208197 h -0.95188 z"
         style="text-align:center;text-anchor:middle"
         id="path224894" />
    </g>
  </g>
</svg>
