<?xml version="1.0" encoding="UTF-8" standalone="no"?>
<svg
   width="177.24182mm"
   height="102.69817mm"
   viewBox="0 0 177.24182 102.69817"
   version="1.1"
   id="svg5"
   sodipodi:docname="czeko.svg"
   inkscape:version="1.1-dev (2afca83fab, 2021-01-02, custom)"
   xmlns:inkscape="http://www.inkscape.org/namespaces/inkscape"
   xmlns:sodipodi="http://sodipodi.sourceforge.net/DTD/sodipodi-0.dtd"
   xmlns="http://www.w3.org/2000/svg"
   xmlns:svg="http://www.w3.org/2000/svg">
  <sodipodi:namedview
     id="namedview7"
     pagecolor="#ffffff"
     bordercolor="#666666"
     borderopacity="1.0"
     objecttolerance="10.0"
     gridtolerance="10.0"
     guidetolerance="10.0"
     inkscape:pageshadow="2"
     inkscape:pageopacity="0.0"
     inkscape:pagecheckerboard="false"
     inkscape:document-units="mm"
     showgrid="false"
     inkscape:zoom="1.1652357"
     inkscape:cx="322.2524"
     inkscape:cy="83.244961"
     inkscape:window-width="1920"
     inkscape:window-height="1050"
     inkscape:window-x="0"
     inkscape:window-y="30"
     inkscape:window-maximized="1"
     inkscape:current-layer="layer2"
     fit-margin-top="10"
     lock-margins="true"
     fit-margin-left="10"
     fit-margin-right="10"
     fit-margin-bottom="10" />
  <defs
     id="defs2">
    <rect
       x="157.23021"
       y="119.45508"
       width="9.4423256"
       height="10.611415"
       id="rect141646" />
    <rect
       x="95.79641"
       y="121.09152"
       width="9.5040102"
       height="8.5397015"
       id="rect133577" />
    <rect
       x="106.4834"
       y="130.71844"
       width="10.719037"
       height="9.3384161"
       id="rect127031" />
    <rect
       x="117.86502"
       y="120.96273"
       width="7.9022193"
       height="8.5146399"
       id="rect119585" />
    <rect
       x="105.49449"
       y="111.44241"
       width="7.3283401"
       height="8.1657076"
       id="rect114585" />
    <rect
       x="102.92058"
       y="112.27777"
       width="10.575265"
       height="7.9328775"
       id="rect104857" />
    <rect
       x="10.370144"
       y="112.17741"
       width="67.602821"
       height="35.615002"
       id="rect12385" />
    <rect
       x="15.824326"
       y="114.81982"
       width="223.23"
       height="26.547035"
       id="rect5845" />
  </defs>
  <g
     inkscape:groupmode="layer"
     id="layer2"
     inkscape:label="Warstwa 2"
     transform="translate(-0.43757,-100.2269)">
    <path
       style="font-variation-settings:normal;opacity:1;fill:none;fill-opacity:1;stroke:#000000;stroke-width:1.565;stroke-linecap:butt;stroke-linejoin:miter;stroke-miterlimit:4;stroke-dasharray:none;stroke-dashoffset:0;stroke-opacity:1;stop-color:#000000;stop-opacity:1"
       d="M 31.31962,146.1029 V 110.81921"
       id="path870" />
    <path
       style="font-variation-settings:normal;fill:none;fill-opacity:1;stroke:#000000;stroke-width:1.565;stroke-linecap:butt;stroke-linejoin:miter;stroke-miterlimit:4;stroke-dasharray:none;stroke-dashoffset:0;stroke-opacity:1;stop-color:#000000"
       d="M 48.765322,145.51059 V 110.2269"
       id="path870-3" />
    <path
       style="font-variation-settings:normal;opacity:1;fill:none;fill-opacity:1;stroke:#000000;stroke-width:1.665;stroke-linecap:butt;stroke-linejoin:miter;stroke-miterlimit:4;stroke-dasharray:none;stroke-dashoffset:0;stroke-opacity:1;stop-color:#000000;stop-opacity:1"
       d="m 10.43757,123.46421 h 58.24"
       id="path1004" />
    <path
       style="font-variation-settings:normal;fill:none;fill-opacity:1;stroke:#000000;stroke-width:1.665;stroke-linecap:butt;stroke-linejoin:miter;stroke-miterlimit:4;stroke-dasharray:none;stroke-dashoffset:0;stroke-opacity:1;stop-color:#000000"
       d="m 10.736398,132.07939 h 58.24"
       id="path1004-6" />
    <text
       xml:space="preserve"
       id="text5843"
       style="font-size:1.41111px;line-height:1.25;font-family:sans-serif;letter-spacing:0px;word-spacing:0px;white-space:pre;shape-inside:url(#rect5845)" />
    <g
       aria-label="AB CD EF GH IJ  KL MN OPRS"
       transform="translate(5.7582164,3.2550537)"
       id="text12383"
       style="font-size:7.05556px;line-height:1.25;letter-spacing:2.23308px;word-spacing:0px;white-space:pre;shape-inside:url(#rect12385)">
      <path
         d="m 10.420483,118.51372 h 0.613833 l 0.522112,-1.45345 h 2.039057 l 0.486833,1.45345 h 0.656167 l -1.721556,-4.89656 h -0.762001 z m 1.312334,-1.96145 0.867834,-2.43417 0.818445,2.43417 z"
         style="font-family:'Noto Sans Sinhala UI';-inkscape-font-specification:'Noto Sans Sinhala UI'"
         id="path99051" />
      <path
         d="m 18.568793,118.43764 h 1.707445 c 1.12889,0 1.792113,-0.52917 1.792113,-1.42523 0,-0.61383 -0.345723,-1.0795 -0.910168,-1.27 0.331612,-0.1905 0.543279,-0.59267 0.543279,-1.02305 0,-0.74789 -0.599723,-1.17828 -1.643946,-1.17828 h -1.488723 z m 0.585611,-2.30717 h 1.291168 c 0.620889,0 1.023056,0.39511 1.023056,1.00189 0,0.56444 -0.338667,0.80433 -1.121834,0.80433 h -1.19239 z m 1.404057,-0.48684 c -0.01411,0 -0.03528,0 -0.04939,0 h -1.354668 v -1.60161 h 0.832556 c 0.74789,0 1.114779,0.27517 1.114779,0.83256 0,0.34572 -0.155222,0.5715 -0.543278,0.76905 z"
         style="font-family:'Noto Sans Sinhala UI';-inkscape-font-specification:'Noto Sans Sinhala UI'"
         id="path99053" />
      <path
         d="m 30.278327,118.58427 c 0.472723,0 0.966612,-0.10583 1.432279,-0.31044 l -0.134056,-0.43039 c -0.352778,0.14111 -0.790222,0.22578 -1.164167,0.22578 -1.171223,0 -1.947335,-0.83256 -1.947335,-2.08139 0,-1.19239 0.712612,-1.91912 1.89089,-1.91912 0.395112,0 0.839612,0.0847 1.213557,0.22578 l 0.169333,-0.43744 c -0.359833,-0.1905 -0.867834,-0.30339 -1.347612,-0.30339 -1.516945,0 -2.52589,1.03011 -2.52589,2.56822 0,1.47461 0.966611,2.46239 2.413001,2.46239 z"
         style="font-family:'Noto Sans Sinhala UI';-inkscape-font-specification:'Noto Sans Sinhala UI'"
         id="path99055" />
      <path
         d="m 35.608662,118.34976 h 1.495779 c 1.481667,0 2.490612,-0.96662 2.490612,-2.54001 0,-1.48166 -0.889,-2.35655 -2.384779,-2.35655 h -1.601612 z m 0.585611,-0.508 v -3.88056 h 0.945446 c 1.192389,0 1.855612,0.6985 1.855612,1.94028 0,1.23472 -0.656167,1.94028 -1.820335,1.94028 z"
         style="font-family:'Noto Sans Sinhala UI';-inkscape-font-specification:'Noto Sans Sinhala UI'"
         id="path99057" />
      <path
         d="m 45.282814,118.47457 h 3.076224 v -0.508 h -2.490612 v -1.77095 h 2.300112 v -0.508 h -2.300112 v -1.60161 h 2.490612 v -0.508 h -3.076224 z"
         style="font-family:'Noto Sans Sinhala UI';-inkscape-font-specification:'Noto Sans Sinhala UI'"
         id="path99059" />
      <path
         d="m 52.305739,118.51372 h 0.585612 v -2.27189 h 2.250723 v -0.508 h -2.250723 v -1.60867 h 2.455335 v -0.508 h -3.040947 z"
         style="font-family:'Noto Sans Sinhala UI';-inkscape-font-specification:'Noto Sans Sinhala UI'"
         id="path99061" />
      <path
         d="m 13.418654,127.15153 c 0.677334,0 1.291167,-0.19755 1.785057,-0.58561 v -2.07433 h -1.975557 v 0.508 h 1.389945 v 1.36878 c -0.345722,0.17639 -0.726723,0.26811 -1.114778,0.26811 -1.178279,0 -1.940279,-0.81139 -1.940279,-2.06728 0,-1.22061 0.6985,-1.92617 1.89089,-1.92617 0.4445,0 0.959556,0.0988 1.389945,0.26106 l 0.169334,-0.45156 c -0.43039,-0.21167 -0.945446,-0.32455 -1.481668,-0.32455 -1.545168,0 -2.568224,1.00894 -2.568224,2.54705 0,1.49578 0.973667,2.4765 2.455335,2.4765 z"
         style="font-family:'Noto Sans Sinhala UI';-inkscape-font-specification:'Noto Sans Sinhala UI'"
         id="path99063" />
      <path
         d="m 18.481077,127.06612 h 0.585612 v -2.27894 h 2.617613 v 2.27894 h 0.585611 v -4.89655 h -0.585611 v 2.10961 h -2.617613 v -2.10961 h -0.585612 z"
         style="font-family:'Noto Sans Sinhala UI';-inkscape-font-specification:'Noto Sans Sinhala UI'"
         id="path99065" />
      <path
         d="m 29.9097,127.0759 h 0.585611 v -4.89655 H 29.9097 Z"
         style="font-family:'Noto Sans Sinhala UI';-inkscape-font-specification:'Noto Sans Sinhala UI'"
         id="path99067" />
      <path
         d="m 35.358076,126.96854 c 0.832556,0 1.305279,-0.52917 1.305279,-1.48167 v -3.48544 h -0.585612 v 3.54894 c 0,0.57856 -0.261055,0.90311 -0.733778,0.90311 -0.211667,0 -0.493889,-0.0635 -0.691445,-0.16227 l -0.169333,0.43744 c 0.282222,0.16933 0.578556,0.23989 0.874889,0.23989 z"
         style="font-family:'Noto Sans Sinhala UI';-inkscape-font-specification:'Noto Sans Sinhala UI'"
         id="path99069" />
      <path
         d="m 47.819674,126.84365 h 0.769056 l -2.328335,-2.58233 2.236612,-2.31422 H 47.77734 l -2.20839,2.32833 v -2.32833 h -0.585612 v 4.89655 h 0.585612 v -2.52589 z"
         style="font-family:'Noto Sans Sinhala UI';-inkscape-font-specification:'Noto Sans Sinhala UI'"
         id="path99071" />
      <path
         d="m 52.366034,127.10159 h 2.779891 v -0.52211 h -2.19428 v -4.37444 h -0.585611 z"
         style="font-family:'Noto Sans Sinhala UI';-inkscape-font-specification:'Noto Sans Sinhala UI'"
         id="path99073" />
      <path
         d="m 10.686319,135.53361 h 0.55739 v -3.84528 l 1.587501,3.08328 h 0.458611 l 1.601612,-3.14678 v 3.90878 h 0.557389 v -4.89656 h -0.578556 l -1.792112,3.50662 -1.792112,-3.50662 h -0.599723 z"
         style="font-family:'Noto Sans Sinhala UI';-inkscape-font-specification:'Noto Sans Sinhala UI'"
         id="path99075" />
      <path
         d="m 18.710721,135.45155 h 0.550333 v -4.11339 l 2.794002,4.11339 h 0.649112 v -4.89656 h -0.550334 v 4.11339 l -2.772835,-4.11339 h -0.670278 z"
         style="font-family:'Noto Sans Sinhala UI';-inkscape-font-specification:'Noto Sans Sinhala UI'"
         id="path99077" />
      <path
         d="m 30.384283,135.64085 c 1.411112,0 2.356557,-1.02306 2.356557,-2.56117 0,-1.46755 -0.917223,-2.44828 -2.286001,-2.44828 -1.389946,0 -2.314224,1.016 -2.314224,2.53295 0,1.48872 0.896056,2.4765 2.243668,2.4765 z m 0.07056,-0.508 c -1.030112,0 -1.714501,-0.81844 -1.714501,-2.05317 0,-1.15711 0.656167,-1.93322 1.643945,-1.93322 1.051279,0 1.756835,0.80433 1.756835,2.01789 0,1.17828 -0.677334,1.9685 -1.686279,1.9685 z"
         style="font-family:'Noto Sans Sinhala UI';-inkscape-font-specification:'Noto Sans Sinhala UI'"
         id="path99079" />
      <path
         d="m 36.408054,135.45631 h 0.585612 v -1.70744 h 0.832556 c 1.093612,0 1.82739,-0.64911 1.82739,-1.62984 0,-0.93839 -0.691445,-1.55928 -1.721557,-1.55928 h -1.524001 z m 0.585612,-2.21544 v -2.17312 H 37.8615 c 0.712611,0 1.192389,0.46567 1.192389,1.15712 0,0.66322 -0.395111,1.016 -1.121834,1.016 z"
         style="font-family:'Noto Sans Sinhala UI';-inkscape-font-specification:'Noto Sans Sinhala UI'"
         id="path99081" />
      <path
         d="m 45.618643,135.50965 h 0.585611 v -1.98261 h 0.966612 c 0.04939,0 0.09878,0 0.155222,-0.007 l 1.135945,1.98967 h 0.698501 l -1.241779,-2.11667 c 0.592667,-0.23283 0.959556,-0.75494 0.959556,-1.41111 0,-0.86078 -0.635,-1.36878 -1.63689,-1.36878 h -1.622778 z m 0.585611,-2.4765 v -1.91206 h 0.966612 c 0.6985,0 1.107723,0.35984 1.107723,0.96662 0,0.59972 -0.366889,0.94544 -1.037168,0.94544 z"
         style="font-family:'Noto Sans Sinhala UI';-inkscape-font-specification:'Noto Sans Sinhala UI'"
         id="path99083" />
      <path
         d="m 54.391786,135.49731 c 1.093611,0 1.806223,-0.55739 1.806223,-1.41817 0,-1.73567 -2.744613,-1.04422 -2.744613,-2.30717 0,-0.51505 0.416278,-0.79728 1.164168,-0.79728 0.416278,0 0.867833,0.0847 1.220611,0.23284 l 0.176389,-0.45861 c -0.416278,-0.18345 -0.889,-0.28223 -1.354667,-0.28223 -1.093612,0 -1.806223,0.54328 -1.806223,1.397 0,1.67923 2.737557,1.05128 2.737557,2.30012 0,0.49389 -0.423334,0.81139 -1.164168,0.81139 -0.4445,0 -0.994834,-0.11995 -1.474612,-0.3175 l -0.176389,0.45861 c 0.543278,0.24694 1.093612,0.381 1.615724,0.381 z"
         style="font-family:'Noto Sans Sinhala UI';-inkscape-font-specification:'Noto Sans Sinhala UI'"
         id="path99085" />
    </g>
    <g
       aria-label="T"
       transform="translate(1.0931897,1.3884296)"
       id="text114583"
       style="font-size:7.05556px;line-height:1.25;letter-spacing:0px;word-spacing:0px;white-space:pre;shape-inside:url(#rect114585)">
      <path
         d="m 105.47347,112.54235 h 4.35116 v 0.58566 h -1.8259 v 4.55787 h -0.69936 v -4.55787 h -1.8259 z"
         id="path138943" />
    </g>
    <g
       aria-label="U"
       transform="translate(-0.44057271,0.18217871)"
       id="text119583"
       style="font-size:7.05556px;line-height:1.25;letter-spacing:0px;word-spacing:0px;white-space:pre;shape-inside:url(#rect119585)">
      <path
         d="m 118.47846,122.06188 h 0.69936 v 3.1247 q 0,0.82682 0.29972,1.192 0.29972,0.36174 0.97152,0.36174 0.66835,0 0.96807,-0.36174 0.29972,-0.36518 0.29972,-1.192 v -3.1247 h 0.69936 v 3.21083 q 0,1.00597 -0.49954,1.51929 -0.49609,0.51332 -1.46761,0.51332 -0.97496,0 -1.4745,-0.51332 -0.4961,-0.51332 -0.4961,-1.51929 z"
         style="font-size:7.05556px;line-height:1.25;letter-spacing:0px;word-spacing:0px;white-space:pre;shape-inside:url(#rect119585)"
         id="path138965" />
    </g>
    <g
       aria-label="W"
       transform="translate(0.29438296,-0.90241103)"
       id="text127029"
       style="font-size:7.05556px;line-height:1.25;letter-spacing:0px;word-spacing:0px;white-space:pre;shape-inside:url(#rect127031)">
      <path
         d="m 106.71864,131.81774 h 0.7028 l 1.08176,4.34771 1.07832,-4.34771 h 0.78204 l 1.08176,4.34771 1.07831,-4.34771 h 0.70625 l -1.29192,5.14353 h -0.87505 l -1.08521,-4.46485 -1.09554,4.46485 h -0.87505 z"
         style="font-size:7.05556px;line-height:1.25;letter-spacing:0px;word-spacing:0px;white-space:pre;shape-inside:url(#rect127031)"
         id="path138987" />
    </g>
    <g
       aria-label="Y"
       transform="translate(2.2357789,0.15155357)"
       id="text133575"
       style="font-size:7.05556px;line-height:1.25;letter-spacing:0px;word-spacing:0px;white-space:pre;shape-inside:url(#rect133577)">
      <path
         d="m 95.783095,122.19078 h 0.747586 l 1.42627,2.11529 1.415935,-2.11529 h 0.747584 l -1.819009,2.69407 v 2.44946 h -0.699355 v -2.44946 z"
         style="font-size:7.05556px;line-height:1.25;letter-spacing:0px;word-spacing:0px;white-space:pre;shape-inside:url(#rect133577)"
         id="path138903" />
    </g>
    <path
       style="font-variation-settings:normal;vector-effect:none;fill:#000000;fill-opacity:1;stroke:none;stroke-width:0.264583px;stroke-linecap:butt;stroke-linejoin:miter;stroke-miterlimit:4;stroke-dasharray:none;stroke-dashoffset:0;stroke-opacity:1;stop-color:#000000"
       d="m 96.465614,137.48035 22.554876,-22.80707 h 2.01829 l -22.585253,22.87789 z"
       id="path139042" />
    <path
       style="font-variation-settings:normal;vector-effect:none;fill:#000000;fill-opacity:1;stroke:none;stroke-width:0.264583px;stroke-linecap:butt;stroke-linejoin:miter;stroke-miterlimit:4;stroke-dasharray:none;stroke-dashoffset:0;stroke-opacity:1;stop-color:#000000"
       d="M 122.3961,136.56728 99.841229,113.76021 h -2.01829 l 22.585251,22.87789 z"
       id="path139042-6" />
    <circle
       style="fill:none;fill-opacity:1;fill-rule:evenodd;stroke:#000000;stroke-width:1.35469;stroke-linecap:round;stroke-linejoin:bevel;stroke-opacity:1"
       id="path139340"
       cx="159.909"
       cy="123.58197"
       r="7.0930462" />
    <g
       aria-label="z"
       transform="translate(0.44452031,-1.0754488)"
       id="text141644"
       style="font-size:8.46667px;line-height:1.25;letter-spacing:0px;word-spacing:0px;white-space:pre;shape-inside:url(#rect141646)">
      <path
         d="m 157.69762,122.31589 h 3.61322 v 0.69453 l -2.86081,3.32796 h 2.86081 v 0.60772 h -3.71657 v -0.69453 l 2.86081,-3.32797 h -2.75746 z"
         style="font-size:8.46667px;line-height:1.25;letter-spacing:0px;word-spacing:0px;white-space:pre;shape-inside:url(#rect141646)"
         id="path152144" />
    </g>
    <path
       style="font-variation-settings:normal;opacity:1;vector-effect:none;fill:#000000;fill-opacity:1;stroke:none;stroke-width:0.264583px;stroke-linecap:butt;stroke-linejoin:miter;stroke-miterlimit:4;stroke-dasharray:none;stroke-dashoffset:0;stroke-opacity:1;stop-color:#000000;stop-opacity:1"
       d="m 15.910288,170.5522 v 11.82239 h 17.552481 v -11.76775 h -1.49982 v 10.10783 H 17.49625 v -10.23493 z"
       id="path152311" />
    <path
       style="font-variation-settings:normal;opacity:1;fill:none;fill-opacity:1;stroke:#000000;stroke-width:1.19022;stroke-linecap:butt;stroke-linejoin:miter;stroke-miterlimit:4;stroke-dasharray:none;stroke-dashoffset:0;stroke-opacity:1;stop-color:#000000;stop-opacity:1"
       d="m 128.91455,182.77284 h 17.17637 V 171.0707 h -17.21436 z"
       id="path152379" />
    <path
       d="m 25.87102,192.61263 c 0.472723,0 0.966612,-0.10583 1.432279,-0.31044 l -0.134056,-0.43039 c -0.352778,0.14111 -0.790222,0.22578 -1.164167,0.22578 -1.171223,0 -1.947335,-0.83256 -1.947335,-2.08139 0,-1.19239 0.712612,-1.91912 1.89089,-1.91912 0.395112,0 0.839612,0.0847 1.213557,0.22578 l 0.169333,-0.43744 c -0.359833,-0.1905 -0.867834,-0.30339 -1.347612,-0.30339 -1.516945,0 -2.52589,1.03011 -2.52589,2.56822 0,1.47461 0.966611,2.46239 2.413001,2.46239 z"
       style="font-size:7.05556px;line-height:1.25;font-family:'Noto Sans Sinhala UI';-inkscape-font-specification:'Noto Sans Sinhala UI';letter-spacing:2.23308px;word-spacing:0px;white-space:pre;shape-inside:url(#rect12385)"
       id="path99055-3" />
    <circle
       style="fill:none;fill-opacity:1;fill-rule:evenodd;stroke:#000000;stroke-width:1.2409;stroke-linecap:round;stroke-linejoin:bevel;stroke-opacity:1"
       id="path139340-2"
       cx="47.543636"
       cy="177.57935"
       r="6.4972425" />
    <g
       aria-label="z"
       transform="matrix(1.1726205,0,0,1.1726205,-141.46619,44.065477)"
       id="text141644-0"
       style="font-size:8.46667px;line-height:1.25;letter-spacing:0px;word-spacing:0px;white-space:pre;shape-inside:url(#rect141646)">
      <path
         d="m 157.69762,122.31589 h 3.61322 v 0.69453 l -2.86081,3.32796 h 2.86081 v 0.60772 h -3.71657 v -0.69453 l 2.86081,-3.32797 h -2.75746 z"
         style="font-size:8.46667px;line-height:1.25;letter-spacing:0px;word-spacing:0px;white-space:pre;shape-inside:url(#rect141646)"
         id="path152144-6" />
    </g>
    <g
       aria-label="U"
       transform="translate(-51.041332,65.320079)"
       id="text119583-1"
       style="font-size:7.05556px;line-height:1.25;letter-spacing:0px;word-spacing:0px;white-space:pre;shape-inside:url(#rect119585)">
      <path
         d="m 118.47846,122.06188 h 0.69936 v 3.1247 q 0,0.82682 0.29972,1.192 0.29972,0.36174 0.97152,0.36174 0.66835,0 0.96807,-0.36174 0.29972,-0.36518 0.29972,-1.192 v -3.1247 h 0.69936 v 3.21083 q 0,1.00597 -0.49954,1.51929 -0.49609,0.51332 -1.46761,0.51332 -0.97496,0 -1.4745,-0.51332 -0.4961,-0.51332 -0.4961,-1.51929 z"
         style="font-size:7.05556px;line-height:1.25;letter-spacing:0px;word-spacing:0px;white-space:pre;shape-inside:url(#rect119585)"
         id="path138965-5" />
    </g>
    <g
       aria-label="W"
       transform="translate(-17.280925,55.632633)"
       id="text127029-5"
       style="font-size:7.05556px;line-height:1.25;letter-spacing:0px;word-spacing:0px;white-space:pre;shape-inside:url(#rect127031)">
      <path
         d="m 106.71864,131.81774 h 0.7028 l 1.08176,4.34771 1.07832,-4.34771 h 0.78204 l 1.08176,4.34771 1.07831,-4.34771 h 0.70625 l -1.29192,5.14353 h -0.87505 l -1.08521,-4.46485 -1.09554,4.46485 h -0.87505 z"
         style="font-size:7.05556px;line-height:1.25;letter-spacing:0px;word-spacing:0px;white-space:pre;shape-inside:url(#rect127031)"
         id="path138987-4" />
    </g>
    <path
       d="m 111.86754,192.71114 h 0.61384 l 0.52211,-1.45345 h 2.03906 l 0.48683,1.45345 h 0.65617 l -1.72156,-4.89656 h -0.762 z m 1.31234,-1.96145 0.86783,-2.43417 0.81845,2.43417 z"
       style="font-size:7.05556px;line-height:1.25;font-family:'Noto Sans Sinhala UI';-inkscape-font-specification:'Noto Sans Sinhala UI';letter-spacing:2.23308px;word-spacing:0px;white-space:pre;shape-inside:url(#rect12385)"
       id="path99051-7" />
    <path
       d="m 138.09612,192.50247 c 0.83255,0 1.30527,-0.52917 1.30527,-1.48167 v -3.48544 h -0.58561 v 3.54894 c 0,0.57856 -0.26105,0.90311 -0.73378,0.90311 -0.21166,0 -0.49388,-0.0635 -0.69144,-0.16227 l -0.16933,0.43744 c 0.28222,0.16933 0.57855,0.23989 0.87489,0.23989 z"
       style="font-size:7.05556px;line-height:1.25;font-family:'Noto Sans Sinhala UI';-inkscape-font-specification:'Noto Sans Sinhala UI';letter-spacing:2.23308px;word-spacing:0px;white-space:pre;shape-inside:url(#rect12385)"
       id="path99069-6" />
    <path
       style="font-variation-settings:normal;opacity:1;vector-effect:none;fill:#000000;fill-opacity:1;stroke:none;stroke-width:0.264583px;stroke-linecap:butt;stroke-linejoin:miter;stroke-miterlimit:4;stroke-dasharray:none;stroke-dashoffset:0;stroke-opacity:1;stop-color:#000000;stop-opacity:1"
       d="m 106.66276,183.15611 v -1.66863 h 15.2881 v -12.34585 h 1.35408 V 183.06 Z"
       id="path156656" />
    <path
       style="font-variation-settings:normal;opacity:1;fill:#000000;fill-opacity:1;stroke:none;stroke-width:0.265;stroke-linecap:butt;stroke-linejoin:miter;stroke-miterlimit:4;stroke-dasharray:none;stroke-dashoffset:0;stroke-opacity:1;stop-color:#000000;stop-opacity:1"
       d="m 82.610954,183.31233 7.091108,-14.22834 h 2.179828 l 8.22632,14.24839 h -1.714443 l -7.094294,-12.28767 h -0.858779 l -6.177902,12.25321 z"
       id="path156724" />
    <path
       style="font-variation-settings:normal;fill:#000000;fill-opacity:1;stroke:none;stroke-width:0.265;stroke-linecap:butt;stroke-linejoin:miter;stroke-miterlimit:4;stroke-dasharray:none;stroke-dashoffset:0;stroke-opacity:1;stop-color:#000000"
       d="m 76.561084,185.24218 -14.22834,-7.09111 v -2.17982 l 14.24839,-8.22632 v 1.71444 l -12.28767,7.09429 v 0.85878 l 12.25321,6.1779 z"
       id="path156724-5" />
    <circle
       style="fill:#000000;fill-opacity:1;fill-rule:evenodd;stroke:none;stroke-width:0.264999;stroke-linecap:round;stroke-linejoin:bevel;stroke-miterlimit:4;stroke-dasharray:none;stroke-opacity:1"
       id="path156911"
       cx="20.590343"
       cy="176.57001"
       r="1.0768417" />
    <circle
       style="fill:#000000;fill-opacity:1;fill-rule:evenodd;stroke:none;stroke-width:0.264999;stroke-linecap:round;stroke-linejoin:bevel;stroke-miterlimit:4;stroke-dasharray:none;stroke-opacity:1"
       id="path156911-6"
       cx="47.166393"
       cy="177.58188"
       r="1.0768417" />
    <circle
       style="fill:#000000;fill-opacity:1;fill-rule:evenodd;stroke:none;stroke-width:0.264999;stroke-linecap:round;stroke-linejoin:bevel;stroke-miterlimit:4;stroke-dasharray:none;stroke-opacity:1"
       id="path156911-9"
       cx="72.354614"
       cy="176.61397"
       r="1.0768417" />
    <circle
       style="fill:#000000;fill-opacity:1;fill-rule:evenodd;stroke:none;stroke-width:0.264999;stroke-linecap:round;stroke-linejoin:bevel;stroke-miterlimit:4;stroke-dasharray:none;stroke-opacity:1"
       id="path156911-3"
       cx="91.272728"
       cy="177.66513"
       r="1.0768417" />
    <circle
       style="fill:#000000;fill-opacity:1;fill-rule:evenodd;stroke:none;stroke-width:0.264999;stroke-linecap:round;stroke-linejoin:bevel;stroke-miterlimit:4;stroke-dasharray:none;stroke-opacity:1"
       id="path156911-7"
       cx="109.87721"
       cy="175.54501"
       r="1.0768417" />
    <circle
       style="fill:#000000;fill-opacity:1;fill-rule:evenodd;stroke:none;stroke-width:0.264999;stroke-linecap:round;stroke-linejoin:bevel;stroke-miterlimit:4;stroke-dasharray:none;stroke-opacity:1"
       id="path156911-4"
       cx="141.89268"
       cy="176.99246"
       r="1.0768417" />
  </g>
</svg>
