<?xml version="1.0" encoding="UTF-8" standalone="no"?>
<svg
   width="128.2612mm"
   height="87.249184mm"
   viewBox="0 0 128.2612 87.249181"
   version="1.1"
   id="svg5"
   sodipodi:docname="grupowy2.svg"
   inkscape:version="1.1-dev (2afca83fab, 2021-01-02, custom)"
   xmlns:inkscape="http://www.inkscape.org/namespaces/inkscape"
   xmlns:sodipodi="http://sodipodi.sourceforge.net/DTD/sodipodi-0.dtd"
   xmlns="http://www.w3.org/2000/svg"
   xmlns:svg="http://www.w3.org/2000/svg">
  <sodipodi:namedview
     id="namedview7"
     pagecolor="#ffffff"
     bordercolor="#666666"
     borderopacity="1.0"
     objecttolerance="10.0"
     gridtolerance="10.0"
     guidetolerance="10.0"
     inkscape:pageshadow="2"
     inkscape:pageopacity="0.0"
     inkscape:pagecheckerboard="false"
     inkscape:document-units="mm"
     showgrid="false"
     inkscape:zoom="0.82394606"
     inkscape:cx="196.00798"
     inkscape:cy="8.4957017"
     inkscape:window-width="1920"
     inkscape:window-height="1050"
     inkscape:window-x="0"
     inkscape:window-y="30"
     inkscape:window-maximized="1"
     inkscape:current-layer="layer2"
     fit-margin-top="10"
     lock-margins="true"
     fit-margin-left="10"
     fit-margin-right="10"
     fit-margin-bottom="10" />
  <defs
     id="defs2">
    <rect
       x="13.878683"
       y="104.82708"
       width="6.736155"
       height="9.3057346"
       id="rect58136" />
    <rect
       x="48.438801"
       y="132.62494"
       width="10.353461"
       height="14.003376"
       id="rect14569" />
    <rect
       x="27.13339"
       y="111.6489"
       width="13.320492"
       height="10.134314"
       id="rect7809" />
    <rect
       x="27.104546"
       y="111.98514"
       width="12.69095"
       height="9.7087574"
       id="rect3359" />
    <rect
       x="157.23021"
       y="119.45508"
       width="9.4423256"
       height="10.611415"
       id="rect141646" />
    <rect
       x="95.79641"
       y="121.09152"
       width="9.5040102"
       height="8.5397015"
       id="rect133577" />
    <rect
       x="106.4834"
       y="130.71844"
       width="10.719037"
       height="9.3384161"
       id="rect127031" />
    <rect
       x="117.86502"
       y="120.96273"
       width="7.9022193"
       height="8.5146399"
       id="rect119585" />
    <rect
       x="105.49449"
       y="111.44241"
       width="7.3283401"
       height="8.1657076"
       id="rect114585" />
    <rect
       x="102.92058"
       y="112.27777"
       width="10.575265"
       height="7.9328775"
       id="rect104857" />
    <rect
       x="10.370144"
       y="112.17741"
       width="67.602821"
       height="35.615002"
       id="rect12385" />
    <rect
       x="15.824326"
       y="114.81982"
       width="223.23"
       height="26.547035"
       id="rect5845" />
    <rect
       x="48.438801"
       y="132.62494"
       width="10.353461"
       height="14.003376"
       id="rect14569-3" />
    <rect
       x="48.438801"
       y="132.62494"
       width="10.353461"
       height="14.003376"
       id="rect14569-7" />
    <rect
       x="27.13339"
       y="111.6489"
       width="13.320492"
       height="10.134314"
       id="rect7809-3" />
    <rect
       x="48.438801"
       y="132.62494"
       width="10.353461"
       height="14.003376"
       id="rect14569-5" />
    <rect
       x="48.438801"
       y="132.62494"
       width="10.353461"
       height="14.003376"
       id="rect14569-3-6" />
    <rect
       x="48.438801"
       y="132.62494"
       width="10.353461"
       height="14.003376"
       id="rect14569-7-2" />
    <rect
       x="27.13339"
       y="111.6489"
       width="13.320492"
       height="10.134314"
       id="rect7809-36" />
    <rect
       x="48.438801"
       y="132.62494"
       width="10.353461"
       height="14.003376"
       id="rect14569-0" />
    <rect
       x="48.438801"
       y="132.62494"
       width="10.353461"
       height="14.003376"
       id="rect14569-3-62" />
    <rect
       x="48.438801"
       y="132.62494"
       width="10.353461"
       height="14.003376"
       id="rect14569-7-6" />
    <rect
       x="27.13339"
       y="111.6489"
       width="13.320492"
       height="10.134314"
       id="rect7809-2" />
    <rect
       x="48.438801"
       y="132.62494"
       width="10.353461"
       height="14.003376"
       id="rect14569-37" />
    <rect
       x="48.438801"
       y="132.62494"
       width="10.353461"
       height="14.003376"
       id="rect14569-3-5" />
    <rect
       x="48.438801"
       y="132.62494"
       width="10.353461"
       height="14.003376"
       id="rect14569-7-9" />
    <rect
       x="27.13339"
       y="111.6489"
       width="13.320492"
       height="10.134314"
       id="rect7809-3-2" />
    <rect
       x="48.438801"
       y="132.62494"
       width="10.353461"
       height="14.003376"
       id="rect14569-5-2" />
    <rect
       x="48.438801"
       y="132.62494"
       width="10.353461"
       height="14.003376"
       id="rect14569-3-6-8" />
    <rect
       x="48.438801"
       y="132.62494"
       width="10.353461"
       height="14.003376"
       id="rect14569-7-2-9" />
    <rect
       x="27.13339"
       y="111.6489"
       width="13.320492"
       height="10.134314"
       id="rect7809-36-7" />
    <rect
       x="48.438801"
       y="132.62494"
       width="10.353461"
       height="14.003376"
       id="rect14569-0-3" />
    <rect
       x="48.438801"
       y="132.62494"
       width="10.353461"
       height="14.003376"
       id="rect14569-3-62-6" />
    <rect
       x="48.438801"
       y="132.62494"
       width="10.353461"
       height="14.003376"
       id="rect14569-7-6-1" />
    <rect
       x="13.878683"
       y="104.82708"
       width="6.736155"
       height="9.3057346"
       id="rect58136-0" />
    <rect
       x="13.878683"
       y="104.82708"
       width="6.736155"
       height="9.3057346"
       id="rect58136-1" />
    <rect
       x="13.878683"
       y="104.82708"
       width="6.736155"
       height="9.3057346"
       id="rect58136-5" />
    <rect
       x="13.878683"
       y="104.82708"
       width="6.736155"
       height="9.3057346"
       id="rect58136-7" />
    <rect
       x="13.878683"
       y="104.82708"
       width="6.736155"
       height="9.3057346"
       id="rect58136-6" />
  </defs>
  <g
     inkscape:groupmode="layer"
     id="layer2"
     inkscape:label="Warstwa 2"
     transform="translate(-4.6540532,-95.925158)">
    <g
       id="text5843"
       style="font-size:1.41111px;line-height:1.25;letter-spacing:0px;word-spacing:0px;white-space:pre;shape-inside:url(#rect5845)" />
    <path
       style="color:#000000;fill:#000000;stroke-width:0.264583px"
       d="m 21.271775,137.20601 22.554876,-22.80707 h 2.01829 l -22.585253,22.87789 z"
       id="path139042" />
    <path
       style="color:#000000;fill:#000000;stroke-width:0.264583px"
       d="M 47.202261,136.29294 24.64739,113.48587 H 22.6291 l 22.585251,22.87789 z"
       id="path139042-6" />
    <g
       id="text3357"
       style="font-size:1.41111px;line-height:1.25;letter-spacing:0px;word-spacing:0px;white-space:pre;shape-inside:url(#rect3359)" />
    <path
       style="color:#000000;fill:#000000;stroke-width:0.264583px"
       d="M 60.767761,137.57987 83.322637,114.7728 h 2.01829 l -22.585253,22.87789 z"
       id="path139042-9" />
    <path
       style="color:#000000;fill:#000000;stroke-width:0.264583px"
       d="M 86.698247,136.6668 64.143376,113.85973 h -2.01829 l 22.585251,22.87789 z"
       id="path139042-6-1" />
    <path
       style="color:#000000;fill:#000000;stroke-width:0.264583px"
       d="m 96.984762,138.22975 22.554878,-22.80707 h 2.01829 l -22.58526,22.87789 z"
       id="path139042-1" />
    <path
       style="color:#000000;fill:#000000;stroke-width:0.264583px"
       d="M 122.91525,137.31668 100.36038,114.50961 H 98.342087 L 120.92734,137.3875 Z"
       id="path139042-6-8" />
    <path
       style="color:#000000;fill:#000000;stroke-width:0.264583px"
       d="m 20.421167,172.07978 22.554876,-22.80707 h 2.01829 L 22.40908,172.1506 Z"
       id="path139042-2" />
    <path
       style="color:#000000;fill:#000000;stroke-width:0.264583px"
       d="M 46.351653,171.16671 23.796782,148.35964 h -2.01829 l 22.585251,22.87789 z"
       id="path139042-6-9" />
    <path
       style="color:#000000;fill:#000000;stroke-width:0.264583px"
       d="m 59.917153,172.45364 22.554876,-22.80707 h 2.01829 l -22.585253,22.87789 z"
       id="path139042-9-7" />
    <path
       style="color:#000000;fill:#000000;stroke-width:0.264583px"
       d="M 85.847639,171.54057 63.292768,148.7335 h -2.01829 l 22.585251,22.87789 z"
       id="path139042-6-1-8" />
    <path
       style="color:#000000;fill:#000000;stroke-width:0.264583px"
       d="m 96.134154,173.10352 22.554876,-22.80707 h 2.01829 l -22.585258,22.87789 z"
       id="path139042-1-6" />
    <path
       style="color:#000000;fill:#000000;stroke-width:0.264583px"
       d="M 122.06464,172.19045 99.509772,149.38338 h -2.018293 l 22.585251,22.87789 z"
       id="path139042-6-8-1" />
    <g
       aria-label="4"
       transform="translate(11.243058,16.091074)"
       id="text58134-4-3"
       style="font-size:7.05556px;line-height:1.25;letter-spacing:0px;word-spacing:0px;white-space:pre;shape-inside:url(#rect58136-5)">
      <path
         d="m 16.545412,106.5315 -1.757,2.74574 h 1.757 z m -0.18259,-0.60634 h 0.875055 v 3.35208 h 0.733805 v 0.57877 h -0.733805 v 1.21268 h -0.692465 v -1.21268 h -2.321996 v -0.67179 z"
         id="path72870-6" />
    </g>
    <g
       aria-label="3"
       transform="translate(57.905783,9.2845977)"
       id="text58134-5-7"
       style="font-size:7.05556px;line-height:1.25;letter-spacing:0px;word-spacing:0px;white-space:pre;shape-inside:url(#rect58136-1)">
      <path
         d="m 16.741782,108.29539 q 0.49954,0.10679 0.778593,0.44441 0.282498,0.33762 0.282498,0.83372 0,0.76136 -0.523655,1.17822 -0.523655,0.41686 -1.488283,0.41686 -0.323839,0 -0.668348,-0.0655 -0.341065,-0.062 -0.706246,-0.18948 v -0.67179 q 0.289389,0.16881 0.633898,0.25493 0.34451,0.0861 0.720026,0.0861 0.654568,0 0.995633,-0.25838 0.34451,-0.25838 0.34451,-0.75103 0,-0.45476 -0.320394,-0.70969 -0.316949,-0.25839 -0.88539,-0.25839 h -0.599447 v -0.57188 h 0.627007 q 0.51332,0 0.785483,-0.20326 0.272162,-0.20671 0.272162,-0.59256 0,-0.39619 -0.282498,-0.60634 -0.279052,-0.21359 -0.802707,-0.21359 -0.285943,0 -0.613228,0.062 -0.327284,0.062 -0.720025,0.19292 v -0.62011 q 0.396186,-0.11025 0.740696,-0.16537 0.347955,-0.0551 0.654568,-0.0551 0.792373,0 1.254016,0.36174 0.461643,0.35829 0.461643,0.97151 0,0.4272 -0.244602,0.72347 -0.244602,0.29284 -0.69591,0.40653 z"
         id="path72873-5" />
    </g>
    <g
       aria-label="2"
       transform="translate(94.915231,9.4850976)"
       id="text58134-6-3"
       style="font-size:7.05556px;line-height:1.25;letter-spacing:0px;word-spacing:0px;white-space:pre;shape-inside:url(#rect58136-0)">
      <path
         d="m 15.23283,110.48302 h 2.428794 v 0.58567 h -3.265953 v -0.58567 q 0.396186,-0.40996 1.078315,-1.09898 0.685575,-0.69247 0.861275,-0.89228 0.334174,-0.37552 0.465088,-0.6339 0.134359,-0.26183 0.134359,-0.51332 0,-0.40997 -0.289388,-0.66835 -0.285943,-0.25838 -0.747586,-0.25838 -0.327285,0 -0.692465,0.11369 -0.361735,0.11368 -0.775147,0.34451 v -0.7028 q 0.420302,-0.16881 0.785482,-0.25494 0.365181,-0.0861 0.668349,-0.0861 0.799263,0 1.274686,0.39963 0.475424,0.39963 0.475424,1.06798 0,0.31695 -0.120579,0.60289 -0.117133,0.2825 -0.430637,0.66835 -0.08613,0.0999 -0.54777,0.57878 -0.461644,0.47542 -1.302247,1.33325 z"
         id="path72876-5" />
    </g>
    <g
       aria-label="3"
       transform="translate(93.574587,59.841434)"
       id="text58134-5-6"
       style="font-size:7.05556px;line-height:1.25;letter-spacing:0px;word-spacing:0px;white-space:pre;shape-inside:url(#rect58136-1)">
      <path
         d="m 16.741782,108.29539 q 0.49954,0.10679 0.778593,0.44441 0.282498,0.33762 0.282498,0.83372 0,0.76136 -0.523655,1.17822 -0.523655,0.41686 -1.488283,0.41686 -0.323839,0 -0.668348,-0.0655 -0.341065,-0.062 -0.706246,-0.18948 v -0.67179 q 0.289389,0.16881 0.633898,0.25493 0.34451,0.0861 0.720026,0.0861 0.654568,0 0.995633,-0.25838 0.34451,-0.25838 0.34451,-0.75103 0,-0.45476 -0.320394,-0.70969 -0.316949,-0.25839 -0.88539,-0.25839 h -0.599447 v -0.57188 h 0.627007 q 0.51332,0 0.785483,-0.20326 0.272162,-0.20671 0.272162,-0.59256 0,-0.39619 -0.282498,-0.60634 -0.279052,-0.21359 -0.802707,-0.21359 -0.285943,0 -0.613228,0.062 -0.327284,0.062 -0.720025,0.19292 v -0.62011 q 0.396186,-0.11025 0.740696,-0.16537 0.347955,-0.0551 0.654568,-0.0551 0.792373,0 1.254016,0.36174 0.461643,0.35829 0.461643,0.97151 0,0.4272 -0.244602,0.72347 -0.244602,0.29284 -0.69591,0.40653 z"
         id="path72873-2" />
    </g>
    <g
       aria-label="2"
       transform="translate(57.103669,43.349138)"
       id="text58134-6-9"
       style="font-size:7.05556px;line-height:1.25;letter-spacing:0px;word-spacing:0px;white-space:pre;shape-inside:url(#rect58136-0)">
      <path
         d="m 15.23283,110.48302 h 2.428794 v 0.58567 h -3.265953 v -0.58567 q 0.396186,-0.40996 1.078315,-1.09898 0.685575,-0.69247 0.861275,-0.89228 0.334174,-0.37552 0.465088,-0.6339 0.134359,-0.26183 0.134359,-0.51332 0,-0.40997 -0.289388,-0.66835 -0.285943,-0.25838 -0.747586,-0.25838 -0.327285,0 -0.692465,0.11369 -0.361735,0.11368 -0.775147,0.34451 v -0.7028 q 0.420302,-0.16881 0.785482,-0.25494 0.365181,-0.0861 0.668349,-0.0861 0.799263,0 1.274686,0.39963 0.475424,0.39963 0.475424,1.06798 0,0.31695 -0.120579,0.60289 -0.117133,0.2825 -0.430637,0.66835 -0.08613,0.0999 -0.54777,0.57878 -0.461644,0.47542 -1.302247,1.33325 z"
         id="path72876-1" />
    </g>
    <g
       aria-label="5"
       transform="translate(24.592872,51.087209)"
       id="text58134-65-2"
       style="font-size:7.05556px;line-height:1.25;letter-spacing:0px;word-spacing:0px;white-space:pre;shape-inside:url(#rect58136-7)">
      <path
         d="m 14.640273,105.92516 h 2.731962 v 0.58566 h -2.094619 v 1.26091 q 0.151584,-0.0517 0.303169,-0.0758 0.151584,-0.0276 0.303168,-0.0276 0.861275,0 1.364259,0.47198 0.502984,0.47197 0.502984,1.27813 0,0.83027 -0.516765,1.29191 -0.516764,0.4582 -1.457276,0.4582 -0.323839,0 -0.661459,-0.0551 -0.334174,-0.0551 -0.692464,-0.16537 v -0.69935 q 0.310058,0.16881 0.640788,0.25149 0.330729,0.0827 0.699355,0.0827 0.596002,0 0.943956,-0.3135 0.347955,-0.31351 0.347955,-0.85094 0,-0.53744 -0.347955,-0.85094 -0.347954,-0.31351 -0.943956,-0.31351 -0.279053,0 -0.558106,0.062 -0.275608,0.062 -0.564996,0.19292 z"
         id="path72867-7" />
    </g>
  </g>
</svg>
