<?xml version="1.0" encoding="UTF-8" standalone="no"?>
<svg
   width="128.2612mm"
   height="87.249184mm"
   viewBox="0 0 128.2612 87.249181"
   version="1.1"
   id="svg5"
   sodipodi:docname="grupowy.svg"
   inkscape:version="1.1-dev (2afca83fab, 2021-01-02, custom)"
   xmlns:inkscape="http://www.inkscape.org/namespaces/inkscape"
   xmlns:sodipodi="http://sodipodi.sourceforge.net/DTD/sodipodi-0.dtd"
   xmlns="http://www.w3.org/2000/svg"
   xmlns:svg="http://www.w3.org/2000/svg">
  <sodipodi:namedview
     id="namedview7"
     pagecolor="#ffffff"
     bordercolor="#666666"
     borderopacity="1.0"
     objecttolerance="10.0"
     gridtolerance="10.0"
     guidetolerance="10.0"
     inkscape:pageshadow="2"
     inkscape:pageopacity="0.0"
     inkscape:pagecheckerboard="false"
     inkscape:document-units="mm"
     showgrid="false"
     inkscape:zoom="6.5915685"
     inkscape:cx="420.46138"
     inkscape:cy="144.12351"
     inkscape:window-width="1920"
     inkscape:window-height="1050"
     inkscape:window-x="0"
     inkscape:window-y="30"
     inkscape:window-maximized="1"
     inkscape:current-layer="layer2"
     fit-margin-top="10"
     lock-margins="true"
     fit-margin-left="10"
     fit-margin-right="10"
     fit-margin-bottom="10" />
  <defs
     id="defs2">
    <rect
       x="13.878683"
       y="104.82708"
       width="6.736155"
       height="9.3057346"
       id="rect58136" />
    <rect
       x="48.438801"
       y="132.62494"
       width="10.353461"
       height="14.003376"
       id="rect14569" />
    <rect
       x="27.13339"
       y="111.6489"
       width="13.320492"
       height="10.134314"
       id="rect7809" />
    <rect
       x="27.104546"
       y="111.98514"
       width="12.69095"
       height="9.7087574"
       id="rect3359" />
    <rect
       x="157.23021"
       y="119.45508"
       width="9.4423256"
       height="10.611415"
       id="rect141646" />
    <rect
       x="95.79641"
       y="121.09152"
       width="9.5040102"
       height="8.5397015"
       id="rect133577" />
    <rect
       x="106.4834"
       y="130.71844"
       width="10.719037"
       height="9.3384161"
       id="rect127031" />
    <rect
       x="117.86502"
       y="120.96273"
       width="7.9022193"
       height="8.5146399"
       id="rect119585" />
    <rect
       x="105.49449"
       y="111.44241"
       width="7.3283401"
       height="8.1657076"
       id="rect114585" />
    <rect
       x="102.92058"
       y="112.27777"
       width="10.575265"
       height="7.9328775"
       id="rect104857" />
    <rect
       x="10.370144"
       y="112.17741"
       width="67.602821"
       height="35.615002"
       id="rect12385" />
    <rect
       x="15.824326"
       y="114.81982"
       width="223.23"
       height="26.547035"
       id="rect5845" />
    <rect
       x="48.438801"
       y="132.62494"
       width="10.353461"
       height="14.003376"
       id="rect14569-3" />
    <rect
       x="48.438801"
       y="132.62494"
       width="10.353461"
       height="14.003376"
       id="rect14569-7" />
    <rect
       x="27.13339"
       y="111.6489"
       width="13.320492"
       height="10.134314"
       id="rect7809-3" />
    <rect
       x="48.438801"
       y="132.62494"
       width="10.353461"
       height="14.003376"
       id="rect14569-5" />
    <rect
       x="48.438801"
       y="132.62494"
       width="10.353461"
       height="14.003376"
       id="rect14569-3-6" />
    <rect
       x="48.438801"
       y="132.62494"
       width="10.353461"
       height="14.003376"
       id="rect14569-7-2" />
    <rect
       x="27.13339"
       y="111.6489"
       width="13.320492"
       height="10.134314"
       id="rect7809-36" />
    <rect
       x="48.438801"
       y="132.62494"
       width="10.353461"
       height="14.003376"
       id="rect14569-0" />
    <rect
       x="48.438801"
       y="132.62494"
       width="10.353461"
       height="14.003376"
       id="rect14569-3-62" />
    <rect
       x="48.438801"
       y="132.62494"
       width="10.353461"
       height="14.003376"
       id="rect14569-7-6" />
    <rect
       x="27.13339"
       y="111.6489"
       width="13.320492"
       height="10.134314"
       id="rect7809-2" />
    <rect
       x="48.438801"
       y="132.62494"
       width="10.353461"
       height="14.003376"
       id="rect14569-37" />
    <rect
       x="48.438801"
       y="132.62494"
       width="10.353461"
       height="14.003376"
       id="rect14569-3-5" />
    <rect
       x="48.438801"
       y="132.62494"
       width="10.353461"
       height="14.003376"
       id="rect14569-7-9" />
    <rect
       x="27.13339"
       y="111.6489"
       width="13.320492"
       height="10.134314"
       id="rect7809-3-2" />
    <rect
       x="48.438801"
       y="132.62494"
       width="10.353461"
       height="14.003376"
       id="rect14569-5-2" />
    <rect
       x="48.438801"
       y="132.62494"
       width="10.353461"
       height="14.003376"
       id="rect14569-3-6-8" />
    <rect
       x="48.438801"
       y="132.62494"
       width="10.353461"
       height="14.003376"
       id="rect14569-7-2-9" />
    <rect
       x="27.13339"
       y="111.6489"
       width="13.320492"
       height="10.134314"
       id="rect7809-36-7" />
    <rect
       x="48.438801"
       y="132.62494"
       width="10.353461"
       height="14.003376"
       id="rect14569-0-3" />
    <rect
       x="48.438801"
       y="132.62494"
       width="10.353461"
       height="14.003376"
       id="rect14569-3-62-6" />
    <rect
       x="48.438801"
       y="132.62494"
       width="10.353461"
       height="14.003376"
       id="rect14569-7-6-1" />
    <rect
       x="13.878683"
       y="104.82708"
       width="6.736155"
       height="9.3057346"
       id="rect58136-0" />
    <rect
       x="13.878683"
       y="104.82708"
       width="6.736155"
       height="9.3057346"
       id="rect58136-1" />
    <rect
       x="13.878683"
       y="104.82708"
       width="6.736155"
       height="9.3057346"
       id="rect58136-5" />
    <rect
       x="13.878683"
       y="104.82708"
       width="6.736155"
       height="9.3057346"
       id="rect58136-7" />
    <rect
       x="13.878683"
       y="104.82708"
       width="6.736155"
       height="9.3057346"
       id="rect58136-6" />
  </defs>
  <g
     inkscape:groupmode="layer"
     id="layer2"
     inkscape:label="Warstwa 2"
     transform="translate(-4.6540532,-95.925158)">
    <g
       id="text5843"
       style="font-size:1.41111px;line-height:1.25;letter-spacing:0px;word-spacing:0px;white-space:pre;shape-inside:url(#rect5845)" />
    <path
       style="color:#000000;fill:#000000;stroke-width:0.264583px"
       d="m 21.271775,137.20601 22.554876,-22.80707 h 2.01829 l -22.585253,22.87789 z"
       id="path139042" />
    <path
       style="color:#000000;fill:#000000;stroke-width:0.264583px"
       d="M 47.202261,136.29294 24.64739,113.48587 H 22.6291 l 22.585251,22.87789 z"
       id="path139042-6" />
    <g
       id="text3357"
       style="font-size:1.41111px;line-height:1.25;letter-spacing:0px;word-spacing:0px;white-space:pre;shape-inside:url(#rect3359)" />
    <g
       aria-label="A"
       transform="translate(1.136506,0.82624337)"
       id="text7807"
       style="font-size:7.05556px;line-height:1.25;letter-spacing:0px;word-spacing:0px;white-space:pre;shape-inside:url(#rect7809)">
      <path
         d="m 33.791246,113.433 -0.943957,2.55971 h 1.891359 z m -0.392741,-0.68558 h 0.788927 l 1.960261,5.14353 h -0.72347 l -0.468534,-1.31947 h -2.318551 l -0.468533,1.31947 h -0.733806 z"
         style="text-align:center;text-anchor:middle"
         id="path72951" />
    </g>
    <g
       aria-label="B"
       transform="translate(-8.3243137,-11.437897)"
       id="text14567"
       style="font-size:7.05556px;line-height:1.25;letter-spacing:0px;word-spacing:0px;white-space:pre;shape-inside:url(#rect14569)">
      <path
         d="m 49.827828,136.41116 v 1.88447 h 1.116211 q 0.561551,0 0.830269,-0.23082 0.272162,-0.23427 0.272162,-0.71314 0,-0.48231 -0.272162,-0.70969 -0.268718,-0.23082 -0.830269,-0.23082 z m 0,-2.11529 v 1.5503 h 1.030084 q 0.509874,0 0.757921,-0.18948 0.251492,-0.19293 0.251492,-0.58567 0,-0.3893 -0.251492,-0.58222 -0.248047,-0.19293 -0.757921,-0.19293 z m -0.69591,-0.57188 h 1.77767 q 0.795818,0 1.226455,0.33073 0.430637,0.33072 0.430637,0.94051 0,0.47198 -0.220486,0.75103 -0.220486,0.27905 -0.647678,0.34795 0.513319,0.11025 0.795817,0.46165 0.285943,0.34795 0.285943,0.87161 0,0.68902 -0.468533,1.06453 -0.468533,0.37552 -1.333253,0.37552 h -1.846572 z"
         style="font-size:7.05556px;line-height:1.25;letter-spacing:0px;word-spacing:0px;white-space:pre;shape-inside:url(#rect14569)"
         id="path72948" />
    </g>
    <g
       aria-label="C"
       transform="translate(-16.541528,-5.0799631)"
       id="text14567-6"
       style="font-size:7.05556px;line-height:1.25;letter-spacing:0px;word-spacing:0px;white-space:pre;shape-inside:url(#rect14569-3)">
      <path
         d="m 52.983537,134.12017 v 0.73381 q -0.3514,-0.32729 -0.751031,-0.48921 -0.396187,-0.16192 -0.844049,-0.16192 -0.881945,0 -1.350479,0.54089 -0.468533,0.53743 -0.468533,1.55718 0,1.0163 0.468533,1.55718 0.468534,0.53744 1.350479,0.53744 0.447862,0 0.844049,-0.16192 0.399631,-0.16192 0.751031,-0.4892 v 0.72691 q -0.36518,0.24805 -0.775147,0.37207 -0.406522,0.12402 -0.861274,0.12402 -1.167889,0 -1.839683,-0.71313 -0.671794,-0.71658 -0.671794,-1.95337 0,-1.24024 0.671794,-1.95337 0.671794,-0.71658 1.839683,-0.71658 0.461643,0 0.868164,0.12402 0.409967,0.12058 0.768257,0.36518 z"
         id="path72945" />
    </g>
    <g
       aria-label="D"
       transform="translate(-24.35491,-11.86162)"
       id="text14567-5"
       style="font-size:7.05556px;line-height:1.25;letter-spacing:0px;word-spacing:0px;white-space:pre;shape-inside:url(#rect14569-7)">
      <path
         d="m 49.827828,134.29587 v 3.99976 h 0.840603 q 1.064536,0 1.557185,-0.48231 0.496094,-0.48232 0.496094,-1.52274 0,-1.03353 -0.496094,-1.51239 -0.492649,-0.48232 -1.557185,-0.48232 z m -0.69591,-0.57188 h 1.429715 q 1.495173,0 2.194528,0.62356 0.699354,0.62012 0.699354,1.94303 0,1.32981 -0.7028,1.95337 -0.702799,0.62357 -2.191082,0.62357 h -1.429715 z"
         id="path72942" />
    </g>
    <path
       style="color:#000000;fill:#000000;stroke-width:0.264583px"
       d="M 60.767761,137.57987 83.322637,114.7728 h 2.01829 l -22.585253,22.87789 z"
       id="path139042-9" />
    <path
       style="color:#000000;fill:#000000;stroke-width:0.264583px"
       d="M 86.698247,136.6668 64.143376,113.85973 h -2.01829 l 22.585251,22.87789 z"
       id="path139042-6-1" />
    <g
       aria-label="E"
       transform="translate(40.632492,1.2000992)"
       id="text7807-2"
       style="font-size:7.05556px;line-height:1.25;letter-spacing:0px;word-spacing:0px;white-space:pre;shape-inside:url(#rect7809-3)">
      <path
         d="m 32.256455,112.74742 h 3.252172 v 0.58567 h -2.556262 v 1.52273 h 2.449464 v 0.58567 h -2.449464 v 1.8638 h 2.618274 v 0.58566 h -3.314184 z"
         style="text-align:center;text-anchor:middle"
         id="path72939" />
    </g>
    <g
       aria-label="F"
       transform="translate(31.171672,-11.064041)"
       id="text14567-7"
       style="font-size:7.05556px;line-height:1.25;letter-spacing:0px;word-spacing:0px;white-space:pre;shape-inside:url(#rect14569-5)">
      <path
         d="m 49.131918,133.72399 h 2.955894 v 0.58566 h -2.259984 v 1.51585 h 2.039497 v 0.58566 h -2.039497 v 2.45636 h -0.69591 z"
         id="path72936" />
    </g>
    <g
       aria-label="G"
       transform="translate(22.954458,-4.7061073)"
       id="text14567-6-0"
       style="font-size:7.05556px;line-height:1.25;letter-spacing:0px;word-spacing:0px;white-space:pre;shape-inside:url(#rect14569-3-6)">
      <path
         d="m 52.639027,138.13371 v -1.38148 h -1.136882 v -0.57189 h 1.825902 v 2.20831 q -0.403077,0.28594 -0.888835,0.43408 -0.485759,0.14469 -1.036975,0.14469 -1.205784,0 -1.887913,-0.7028 -0.678685,-0.70624 -0.678685,-1.9637 0,-1.26091 0.678685,-1.96371 0.682129,-0.70624 1.887913,-0.70624 0.502984,0 0.954292,0.12402 0.454753,0.12403 0.837159,0.36518 v 0.7407 q -0.385851,-0.32729 -0.819933,-0.49265 -0.434083,-0.16537 -0.912951,-0.16537 -0.943957,0 -1.41938,0.5271 -0.471979,0.5271 -0.471979,1.57097 0,1.04042 0.471979,1.56752 0.475423,0.5271 1.41938,0.5271 0.368625,0 0.658013,-0.062 0.289389,-0.0655 0.52021,-0.19982 z"
         id="path72933" />
    </g>
    <g
       aria-label="H"
       transform="translate(15.141076,-11.487764)"
       id="text14567-5-9"
       style="font-size:7.05556px;line-height:1.25;letter-spacing:0px;word-spacing:0px;white-space:pre;shape-inside:url(#rect14569-7-2)">
      <path
         d="m 49.131918,133.72399 h 0.69591 v 2.1084 h 2.528701 v -2.1084 h 0.69591 v 5.14353 h -0.69591 v -2.44947 h -2.528701 v 2.44947 h -0.69591 z"
         id="path72930" />
    </g>
    <path
       style="color:#000000;fill:#000000;stroke-width:0.264583px"
       d="m 96.984762,138.22975 22.554878,-22.80707 h 2.01829 l -22.58526,22.87789 z"
       id="path139042-1" />
    <path
       style="color:#000000;fill:#000000;stroke-width:0.264583px"
       d="M 122.91525,137.31668 100.36038,114.50961 H 98.342087 L 120.92734,137.3875 Z"
       id="path139042-6-8" />
    <g
       aria-label="I"
       transform="translate(76.849493,1.8499873)"
       id="text7807-7"
       style="font-size:7.05556px;line-height:1.25;letter-spacing:0px;word-spacing:0px;white-space:pre;shape-inside:url(#rect7809-36)">
      <path
         d="m 33.445014,112.74742 h 0.69591 v 5.14353 h -0.69591 z"
         style="text-align:center;text-anchor:middle"
         id="path72927" />
    </g>
    <g
       aria-label="J"
       transform="translate(67.388673,-11.265106)"
       id="text14567-9"
       style="font-size:7.05556px;line-height:1.25;letter-spacing:0px;word-spacing:0px;white-space:pre;shape-inside:url(#rect14569-0)">
      <path
         d="m 49.131918,133.72399 h 0.69591 v 4.78524 q 0,0.93017 -0.354846,1.35048 -0.3514,0.4203 -1.133437,0.4203 h -0.265272 v -0.58567 h 0.217041 q 0.461643,0 0.651123,-0.25838 0.189481,-0.25838 0.189481,-0.92673 z"
         id="path72924" />
    </g>
    <g
       aria-label="K"
       transform="translate(59.171459,-4.0562192)"
       id="text14567-6-2"
       style="font-size:7.05556px;line-height:1.25;letter-spacing:0px;word-spacing:0px;white-space:pre;shape-inside:url(#rect14569-3-62)">
      <path
         d="m 49.131918,133.72399 h 0.69591 v 2.17385 l 2.308215,-2.17385 h 0.895725 l -2.552817,2.39778 2.735408,2.74575 h -0.916396 l -2.470135,-2.47703 v 2.47703 h -0.69591 z"
         id="path72921" />
    </g>
    <g
       aria-label="L"
       transform="translate(51.358077,-10.837876)"
       id="text14567-5-0"
       style="font-size:7.05556px;line-height:1.25;letter-spacing:0px;word-spacing:0px;white-space:pre;shape-inside:url(#rect14569-7-6)">
      <path
         d="m 49.131918,133.72399 h 0.69591 v 4.55786 h 2.504586 v 0.58567 h -3.200496 z"
         id="path72918" />
    </g>
    <path
       style="color:#000000;fill:#000000;stroke-width:0.264583px"
       d="m 20.421167,172.07978 22.554876,-22.80707 h 2.01829 L 22.40908,172.1506 Z"
       id="path139042-2" />
    <path
       style="color:#000000;fill:#000000;stroke-width:0.264583px"
       d="M 46.351653,171.16671 23.796782,148.35964 h -2.01829 l 22.585251,22.87789 z"
       id="path139042-6-9" />
    <g
       aria-label="M"
       transform="translate(0.28589836,35.70001)"
       id="text7807-3"
       style="font-size:7.05556px;line-height:1.25;letter-spacing:0px;word-spacing:0px;white-space:pre;shape-inside:url(#rect7809-2)">
      <path
         d="m 31.44169,112.74742 h 1.036974 l 1.312582,3.50022 1.319473,-3.50022 h 1.036974 v 5.14353 h -0.678684 v -4.51652 l -1.326363,3.52778 h -0.699355 l -1.326362,-3.52778 v 4.51652 H 31.44169 Z"
         style="text-align:center;text-anchor:middle"
         id="path72915" />
    </g>
    <g
       aria-label="N"
       transform="translate(-9.1749216,23.43587)"
       id="text14567-1"
       style="font-size:7.05556px;line-height:1.25;letter-spacing:0px;word-spacing:0px;white-space:pre;shape-inside:url(#rect14569-37)">
      <path
         d="m 49.131918,133.72399 h 0.937066 l 2.280655,4.30292 v -4.30292 h 0.675239 v 5.14353 h -0.937066 l -2.280655,-4.30293 v 4.30293 h -0.675239 z"
         id="path72912" />
    </g>
    <g
       aria-label="O"
       transform="translate(-17.392136,29.793804)"
       id="text14567-6-9"
       style="font-size:7.05556px;line-height:1.25;letter-spacing:0px;word-spacing:0px;white-space:pre;shape-inside:url(#rect14569-3-5)">
      <path
         d="m 51.219647,134.19596 q -0.757922,0 -1.205784,0.565 -0.444418,0.565 -0.444418,1.53996 0,0.97152 0.444418,1.53651 0.447862,0.565 1.205784,0.565 0.757921,0 1.198894,-0.565 0.444418,-0.56499 0.444418,-1.53651 0,-0.97496 -0.444418,-1.53996 -0.440973,-0.565 -1.198894,-0.565 z m 0,-0.56499 q 1.081761,0 1.729439,0.72691 0.647678,0.72347 0.647678,1.94304 0,1.21612 -0.647678,1.94303 -0.647678,0.72347 -1.729439,0.72347 -1.085206,0 -1.736329,-0.72347 -0.647679,-0.72347 -0.647679,-1.94303 0,-1.21957 0.647679,-1.94304 0.651123,-0.72691 1.736329,-0.72691 z"
         id="path72909" />
    </g>
    <g
       aria-label="P"
       transform="translate(-25.205518,23.012147)"
       id="text14567-5-4"
       style="font-size:7.05556px;line-height:1.25;letter-spacing:0px;word-spacing:0px;white-space:pre;shape-inside:url(#rect14569-7-9)">
      <path
         d="m 49.827828,134.29587 v 1.9327 h 0.875054 q 0.485759,0 0.751032,-0.25149 0.265272,-0.25149 0.265272,-0.71658 0,-0.46164 -0.265272,-0.71314 -0.265273,-0.25149 -0.751032,-0.25149 z m -0.69591,-0.57188 h 1.570964 q 0.86472,0 1.305692,0.39274 0.444418,0.38929 0.444418,1.14377 0,0.76137 -0.444418,1.15066 -0.440972,0.3893 -1.305692,0.3893 h -0.875054 v 2.06706 h -0.69591 z"
         id="path72906" />
    </g>
    <path
       style="color:#000000;fill:#000000;stroke-width:0.264583px"
       d="m 59.917153,172.45364 22.554876,-22.80707 h 2.01829 l -22.585253,22.87789 z"
       id="path139042-9-7" />
    <path
       style="color:#000000;fill:#000000;stroke-width:0.264583px"
       d="M 85.847639,171.54057 63.292768,148.7335 h -2.01829 l 22.585251,22.87789 z"
       id="path139042-6-1-8" />
    <g
       aria-label="R"
       transform="translate(39.781884,36.073866)"
       id="text7807-2-4"
       style="font-size:7.05556px;line-height:1.25;letter-spacing:0px;word-spacing:0px;white-space:pre;shape-inside:url(#rect7809-3-2)">
      <path
         d="m 34.473376,115.47939 q 0.223931,0.0758 0.434082,0.32384 0.213596,0.24804 0.427192,0.68212 l 0.706245,1.4056 h -0.747586 l -0.658014,-1.31947 q -0.254937,-0.51676 -0.496094,-0.68557 -0.237712,-0.16881 -0.651123,-0.16881 h -0.757922 v 2.17385 h -0.69591 v -5.14353 h 1.570965 q 0.881945,0 1.316027,0.36863 0.434083,0.36862 0.434083,1.11277 0,0.48575 -0.227377,0.80615 -0.223931,0.32039 -0.654568,0.44442 z m -1.74322,-2.16008 v 1.8259 h 0.875055 q 0.502984,0 0.757921,-0.23082 0.258383,-0.23427 0.258383,-0.68557 0,-0.45131 -0.258383,-0.67869 -0.254937,-0.23082 -0.757921,-0.23082 z"
         style="text-align:center;text-anchor:middle"
         id="path72903" />
    </g>
    <g
       aria-label="S"
       transform="translate(30.321064,23.809726)"
       id="text14567-7-5"
       style="font-size:7.05556px;line-height:1.25;letter-spacing:0px;word-spacing:0px;white-space:pre;shape-inside:url(#rect14569-5-2)">
      <path
         d="m 52.21528,133.8928 v 0.67868 q -0.396186,-0.18948 -0.747586,-0.2825 -0.3514,-0.093 -0.678684,-0.093 -0.568441,0 -0.8785,0.22049 -0.306614,0.22049 -0.306614,0.62701 0,0.34106 0.203261,0.51676 0.206706,0.17226 0.778592,0.27906 l 0.420302,0.0861 q 0.778592,0.14814 1.147217,0.52366 0.372071,0.37207 0.372071,0.99908 0,0.74758 -0.502984,1.13343 -0.499539,0.38585 -1.467612,0.38585 -0.36518,0 -0.778592,-0.0827 -0.409967,-0.0827 -0.850939,-0.2446 v -0.71658 q 0.423747,0.23771 0.830268,0.35829 0.406522,0.12058 0.799263,0.12058 0.596002,0 0.919841,-0.23427 0.323839,-0.23426 0.323839,-0.66835 0,-0.37896 -0.234266,-0.59255 -0.230822,-0.2136 -0.761367,-0.3204 l -0.423747,-0.0827 q -0.778592,-0.15503 -1.126547,-0.48576 -0.347955,-0.33073 -0.347955,-0.91984 0,-0.68213 0.478869,-1.07487 0.482314,-0.39274 1.326363,-0.39274 0.361735,0 0.73725,0.0655 0.375516,0.0654 0.768257,0.19637 z"
         id="path72900" />
    </g>
    <g
       aria-label="T"
       transform="translate(22.619756,30.16766)"
       id="text14567-6-0-0"
       style="font-size:7.05556px;line-height:1.25;letter-spacing:0px;word-spacing:0px;white-space:pre;shape-inside:url(#rect14569-3-6-8)">
      <path
         d="m 48.418783,133.72399 h 4.351158 v 0.58566 h -1.825902 v 4.55787 h -0.699355 v -4.55787 h -1.825901 z"
         id="path72897" />
    </g>
    <g
       aria-label="U"
       transform="translate(14.290468,23.386003)"
       id="text14567-5-9-3"
       style="font-size:7.05556px;line-height:1.25;letter-spacing:0px;word-spacing:0px;white-space:pre;shape-inside:url(#rect14569-7-2-9)">
      <path
         d="m 49.052681,133.72399 h 0.699354 v 3.1247 q 0,0.82682 0.299724,1.192 0.299723,0.36174 0.971517,0.36174 0.668349,0 0.968073,-0.36174 0.299723,-0.36518 0.299723,-1.192 v -3.1247 h 0.699355 v 3.21083 q 0,1.00597 -0.499539,1.51929 -0.496094,0.51331 -1.467612,0.51331 -0.974962,0 -1.474501,-0.51331 -0.496094,-0.51332 -0.496094,-1.51929 z"
         id="path72894" />
    </g>
    <path
       style="color:#000000;fill:#000000;stroke-width:0.264583px"
       d="m 96.134154,173.10352 22.554876,-22.80707 h 2.01829 l -22.585258,22.87789 z"
       id="path139042-1-6" />
    <path
       style="color:#000000;fill:#000000;stroke-width:0.264583px"
       d="M 122.06464,172.19045 99.509772,149.38338 h -2.018293 l 22.585251,22.87789 z"
       id="path139042-6-8-1" />
    <g
       aria-label="W"
       transform="translate(75.998885,36.723754)"
       id="text7807-7-0"
       style="font-size:7.05556px;line-height:1.25;letter-spacing:0px;word-spacing:0px;white-space:pre;shape-inside:url(#rect7809-36-7)">
      <path
         d="m 30.539074,112.74742 h 0.7028 l 1.081761,4.34772 1.078315,-4.34772 h 0.782037 l 1.081761,4.34772 1.078316,-4.34772 h 0.706245 l -1.291912,5.14353 h -0.875055 l -1.085206,-4.46484 -1.095541,4.46484 h -0.875054 z"
         style="text-align:center;text-anchor:middle"
         id="path72891" />
    </g>
    <g
       aria-label="X"
       transform="translate(66.538065,24.459614)"
       id="text14567-9-6"
       style="font-size:7.05556px;line-height:1.25;letter-spacing:0px;word-spacing:0px;white-space:pre;shape-inside:url(#rect14569-0-3)">
      <path
         d="m 48.883871,133.72399 h 0.747586 l 1.278131,1.91203 1.285022,-1.91203 h 0.747586 l -1.653647,2.47013 1.76389,2.6734 h -0.747586 l -1.446941,-2.18764 -1.457277,2.18764 h -0.751031 l 1.836237,-2.74575 z"
         id="path72888" />
    </g>
    <g
       aria-label="Y"
       transform="translate(58.770922,30.817548)"
       id="text14567-6-2-3"
       style="font-size:7.05556px;line-height:1.25;letter-spacing:0px;word-spacing:0px;white-space:pre;shape-inside:url(#rect14569-3-62-6)">
      <path
         d="m 48.425673,133.72399 h 0.747586 l 1.42627,2.11529 1.415936,-2.11529 h 0.747586 l -1.819012,2.69406 v 2.44947 h -0.699355 v -2.44947 z"
         id="path72885" />
    </g>
    <g
       aria-label="Z"
       transform="translate(50.507469,24.035891)"
       id="text14567-5-0-2"
       style="font-size:7.05556px;line-height:1.25;letter-spacing:0px;word-spacing:0px;white-space:pre;shape-inside:url(#rect14569-7-6-1)">
      <path
         d="m 48.835639,133.72399 h 4.0411 v 0.53054 l -3.252172,4.02732 h 3.331409 v 0.58567 h -4.199574 v -0.53055 l 3.252172,-4.02732 h -3.172935 z"
         id="path72882" />
    </g>
    <g
       aria-label="1"
       id="text58134"
       style="font-size:7.05556px;line-height:1.25;letter-spacing:0px;word-spacing:0px;white-space:pre;shape-inside:url(#rect58136)">
      <path
         d="m 14.753961,110.48302 h 1.136882 v -3.92396 l -1.23679,0.24804 v -0.63389 l 1.2299,-0.24805 h 0.69591 v 4.55786 h 1.136882 v 0.58567 h -2.962784 z"
         style="font-size:7.05556px;line-height:1.25;letter-spacing:0px;word-spacing:0px;white-space:pre;shape-inside:url(#rect58136)"
         id="path72879" />
    </g>
    <g
       aria-label="2"
       transform="translate(41.642652,0.58548104)"
       id="text58134-6"
       style="font-size:7.05556px;line-height:1.25;letter-spacing:0px;word-spacing:0px;white-space:pre;shape-inside:url(#rect58136-0)">
      <path
         d="m 15.23283,110.48302 h 2.428794 v 0.58567 h -3.265953 v -0.58567 q 0.396186,-0.40996 1.078315,-1.09898 0.685575,-0.69247 0.861275,-0.89228 0.334174,-0.37552 0.465088,-0.6339 0.134359,-0.26183 0.134359,-0.51332 0,-0.40997 -0.289388,-0.66835 -0.285943,-0.25838 -0.747586,-0.25838 -0.327285,0 -0.692465,0.11369 -0.361735,0.11368 -0.775147,0.34451 v -0.7028 q 0.420302,-0.16881 0.785482,-0.25494 0.365181,-0.0861 0.668349,-0.0861 0.799263,0 1.274686,0.39963 0.475424,0.39963 0.475424,1.06798 0,0.31695 -0.120579,0.60289 -0.117133,0.2825 -0.430637,0.66835 -0.08613,0.0999 -0.54777,0.57878 -0.461644,0.47542 -1.302247,1.33325 z"
         id="path72876" />
    </g>
    <g
       aria-label="3"
       transform="translate(81.662721,0.35841681)"
       id="text58134-5"
       style="font-size:7.05556px;line-height:1.25;letter-spacing:0px;word-spacing:0px;white-space:pre;shape-inside:url(#rect58136-1)">
      <path
         d="m 16.741782,108.29539 q 0.49954,0.10679 0.778593,0.44441 0.282498,0.33762 0.282498,0.83372 0,0.76136 -0.523655,1.17822 -0.523655,0.41686 -1.488283,0.41686 -0.323839,0 -0.668348,-0.0655 -0.341065,-0.062 -0.706246,-0.18948 v -0.67179 q 0.289389,0.16881 0.633898,0.25493 0.34451,0.0861 0.720026,0.0861 0.654568,0 0.995633,-0.25838 0.34451,-0.25838 0.34451,-0.75103 0,-0.45476 -0.320394,-0.70969 -0.316949,-0.25839 -0.88539,-0.25839 h -0.599447 v -0.57188 h 0.627007 q 0.51332,0 0.785483,-0.20326 0.272162,-0.20671 0.272162,-0.59256 0,-0.39619 -0.282498,-0.60634 -0.279052,-0.21359 -0.802707,-0.21359 -0.285943,0 -0.613228,0.062 -0.327284,0.062 -0.720025,0.19292 v -0.62011 q 0.396186,-0.11025 0.740696,-0.16537 0.347955,-0.0551 0.654568,-0.0551 0.792373,0 1.254016,0.36174 0.461643,0.35829 0.461643,0.97151 0,0.4272 -0.244602,0.72347 -0.244602,0.29284 -0.69591,0.40653 z"
         id="path72873" />
    </g>
    <g
       aria-label="4"
       transform="translate(3.098501,35.97871)"
       id="text58134-4"
       style="font-size:7.05556px;line-height:1.25;letter-spacing:0px;word-spacing:0px;white-space:pre;shape-inside:url(#rect58136-5)">
      <path
         d="m 16.545412,106.5315 -1.757,2.74574 h 1.757 z m -0.18259,-0.60634 h 0.875055 v 3.35208 h 0.733805 v 0.57877 h -0.733805 v 1.21268 h -0.692465 v -1.21268 h -2.321996 v -0.67179 z"
         id="path72870" />
    </g>
    <g
       aria-label="5"
       transform="translate(44.622223,36.204722)"
       id="text58134-65"
       style="font-size:7.05556px;line-height:1.25;letter-spacing:0px;word-spacing:0px;white-space:pre;shape-inside:url(#rect58136-7)">
      <path
         d="m 14.640273,105.92516 h 2.731962 v 0.58566 h -2.094619 v 1.26091 q 0.151584,-0.0517 0.303169,-0.0758 0.151584,-0.0276 0.303168,-0.0276 0.861275,0 1.364259,0.47198 0.502984,0.47197 0.502984,1.27813 0,0.83027 -0.516765,1.29191 -0.516764,0.4582 -1.457276,0.4582 -0.323839,0 -0.661459,-0.0551 -0.334174,-0.0551 -0.692464,-0.16537 v -0.69935 q 0.310058,0.16881 0.640788,0.25149 0.330729,0.0827 0.699355,0.0827 0.596002,0 0.943956,-0.3135 0.347955,-0.31351 0.347955,-0.85094 0,-0.53744 -0.347955,-0.85094 -0.347954,-0.31351 -0.943956,-0.31351 -0.279053,0 -0.558106,0.062 -0.275608,0.062 -0.564996,0.19292 z"
         id="path72867" />
    </g>
    <g
       aria-label="6"
       transform="translate(81.100679,36.453003)"
       id="text58134-9"
       style="font-size:7.05556px;line-height:1.25;letter-spacing:0px;word-spacing:0px;white-space:pre;shape-inside:url(#rect58136-6)">
      <path
         d="m 16.207792,108.21959 q -0.468533,0 -0.744141,0.3204 -0.272163,0.32039 -0.272163,0.8785 0,0.55466 0.272163,0.8785 0.275608,0.32039 0.744141,0.32039 0.468534,0 0.740696,-0.32039 0.275608,-0.32384 0.275608,-0.8785 0,-0.55811 -0.275608,-0.8785 -0.272162,-0.3204 -0.740696,-0.3204 z m 1.381484,-2.18074 v 0.63389 q -0.261827,-0.12402 -0.530545,-0.18948 -0.265272,-0.0654 -0.5271,-0.0654 -0.689019,0 -1.054199,0.46509 -0.361736,0.46508 -0.413412,1.4056 0.203261,-0.29973 0.509874,-0.4582 0.306614,-0.16192 0.675239,-0.16192 0.775147,0 1.22301,0.47198 0.451308,0.46853 0.451308,1.27813 0,0.79237 -0.468533,1.27124 -0.468534,0.47887 -1.247126,0.47887 -0.89228,0 -1.364258,-0.68213 -0.471979,-0.68558 -0.471979,-1.98438 0,-1.21956 0.578777,-1.94303 0.578776,-0.72692 1.553739,-0.72692 0.261827,0 0.5271,0.0517 0.268717,0.0517 0.558105,0.15503 z"
         id="path72864" />
    </g>
  </g>
</svg>
