<?xml version="1.0" encoding="UTF-8" standalone="no"?>
<svg
   width="31.939453mm"
   height="20.060547mm"
   viewBox="0 0 31.939453 20.060547"
   version="1.1"
   id="svg5"
   sodipodi:docname="liczbowy2.svg"
   inkscape:version="1.1-dev (2afca83fab, 2021-01-02, custom)"
   xmlns:inkscape="http://www.inkscape.org/namespaces/inkscape"
   xmlns:sodipodi="http://sodipodi.sourceforge.net/DTD/sodipodi-0.dtd"
   xmlns="http://www.w3.org/2000/svg"
   xmlns:svg="http://www.w3.org/2000/svg">
  <sodipodi:namedview
     id="namedview7"
     pagecolor="#ffffff"
     bordercolor="#666666"
     borderopacity="1.0"
     objecttolerance="10.0"
     gridtolerance="10.0"
     guidetolerance="10.0"
     inkscape:pageshadow="2"
     inkscape:pageopacity="0.0"
     inkscape:pagecheckerboard="false"
     inkscape:document-units="mm"
     showgrid="false"
     inkscape:zoom="18.643771"
     inkscape:cx="18.907119"
     inkscape:cy="19.738496"
     inkscape:window-width="1920"
     inkscape:window-height="1050"
     inkscape:window-x="0"
     inkscape:window-y="30"
     inkscape:window-maximized="1"
     inkscape:current-layer="layer1"
     showguides="true"
     inkscape:guide-bbox="true"
     fit-margin-top="0"
     lock-margins="false"
     fit-margin-left="0"
     fit-margin-right="0"
     fit-margin-bottom="0">
    <sodipodi:guide
       position="13.90667,18.875949"
       orientation="0,-1"
       id="guide114625" />
    <sodipodi:guide
       position="7.2334515,10.888159"
       orientation="0,-1"
       id="guide62049" />
  </sodipodi:namedview>
  <defs
     id="defs2">
    <rect
       x="63.302914"
       y="53.178268"
       width="3.9593773"
       height="3.9593773"
       id="rect80178" />
    <rect
       x="63.302914"
       y="49.218891"
       width="3.9593773"
       height="3.9593773"
       id="rect74026" />
    <rect
       x="63.302914"
       y="45.259514"
       width="3.9593773"
       height="3.9593773"
       id="rect67272" />
    <rect
       x="59.343533"
       y="53.178268"
       width="3.9593773"
       height="3.9593773"
       id="rect64562" />
    <rect
       x="51.424778"
       y="53.178268"
       width="3.9593773"
       height="3.9593773"
       id="rect58722" />
    <rect
       x="59.343536"
       y="49.218891"
       width="3.9593735"
       height="3.9593773"
       id="rect54044" />
    <rect
       x="55.384159"
       y="49.218891"
       width="3.9593735"
       height="3.9593773"
       id="rect48410" />
    <rect
       x="59.343536"
       y="45.259514"
       width="3.9593773"
       height="3.9593773"
       id="rect43270" />
    <rect
       x="55.384159"
       y="45.259514"
       width="3.9593773"
       height="3.9593773"
       id="rect38718" />
    <rect
       x="47.465405"
       y="49.218891"
       width="3.9593773"
       height="3.9593773"
       id="rect34762" />
    <rect
       x="35.587269"
       y="53.178268"
       width="3.9593773"
       height="3.9593773"
       id="rect26842" />
    <rect
       x="47.465405"
       y="41.300137"
       width="3.9593773"
       height="3.9593773"
       id="rect17702" />
    <rect
       x="39.54665"
       y="41.300137"
       width="3.9593773"
       height="3.9593773"
       id="rect12340" />
    <rect
       x="44.527615"
       y="38.393581"
       width="2.6125472"
       height="2.9057267"
       id="rect4211" />
    <rect
       x="47.465401"
       y="72.975159"
       width="3.9593773"
       height="3.9593811"
       id="rect153091" />
    <rect
       x="47.465401"
       y="69.015778"
       width="3.9593773"
       height="3.9593811"
       id="rect149469" />
    <rect
       x="47.465401"
       y="65.056404"
       width="3.9593773"
       height="3.9593735"
       id="rect145571" />
    <rect
       x="47.465401"
       y="61.097023"
       width="3.9593773"
       height="3.9593811"
       id="rect141459" />
    <rect
       x="47.465401"
       y="57.137646"
       width="3.9593773"
       height="3.9593773"
       id="rect133563" />
    <rect
       x="39.546646"
       y="57.137646"
       width="3.9593773"
       height="3.9593773"
       id="rect128723" />
    <rect
       x="39.546646"
       y="53.178268"
       width="3.9593773"
       height="3.9593773"
       id="rect123511" />
    <rect
       x="47.465405"
       y="53.178268"
       width="3.9593735"
       height="3.9593773"
       id="rect114443" />
    <rect
       x="47.465405"
       y="49.218891"
       width="3.9593735"
       height="3.9593773"
       id="rect110257" />
    <rect
       x="39.54665"
       y="49.218891"
       width="3.9593773"
       height="3.9593773"
       id="rect105919" />
    <rect
       x="59.343533"
       y="57.137646"
       width="3.9593773"
       height="3.9593773"
       id="rect100509" />
    <rect
       x="59.343536"
       y="53.178268"
       width="3.9593735"
       height="3.9593773"
       id="rect96317" />
    <rect
       x="59.343536"
       y="49.218891"
       width="3.9593735"
       height="3.9593773"
       id="rect88707" />
    <rect
       x="55.384159"
       y="45.259514"
       width="3.9593773"
       height="3.9593773"
       id="rect82837" />
    <rect
       x="51.424782"
       y="45.259514"
       width="3.9593773"
       height="3.9593773"
       id="rect75055" />
    <rect
       x="47.465405"
       y="45.259514"
       width="3.9593773"
       height="3.9593773"
       id="rect64209" />
    <rect
       x="43.506027"
       y="45.259514"
       width="3.9593773"
       height="3.9593773"
       id="rect59663" />
    <rect
       x="39.54665"
       y="45.259514"
       width="3.9593773"
       height="3.9593773"
       id="rect54921" />
    <rect
       x="59.343536"
       y="45.259514"
       width="3.9593773"
       height="3.9593773"
       id="rect49555" />
    <rect
       x="59.343536"
       y="41.300137"
       width="3.9593773"
       height="3.9593773"
       id="rect40535" />
    <rect
       x="55.384159"
       y="41.300137"
       width="3.9593773"
       height="3.9593773"
       id="rect36863" />
    <rect
       x="51.424782"
       y="41.300137"
       width="3.9593773"
       height="3.9593773"
       id="rect31135" />
    <rect
       x="51.424782"
       y="41.300137"
       width="3.9593773"
       height="3.9593773"
       id="rect29017" />
    <rect
       x="47.465405"
       y="41.300137"
       width="3.9593773"
       height="3.9593773"
       id="rect24023" />
    <rect
       x="47.465405"
       y="41.300137"
       width="3.9593773"
       height="3.9593773"
       id="rect21041" />
    <rect
       x="43.506027"
       y="41.300137"
       width="3.9593773"
       height="3.9593773"
       id="rect12485" />
    <rect
       x="39.54665"
       y="41.300137"
       width="3.9593773"
       height="3.9593773"
       id="rect2521" />
    <rect
       x="59.343536"
       y="37.340759"
       width="3.9593773"
       height="3.9593773"
       id="rect146425" />
    <rect
       x="55.384159"
       y="37.340759"
       width="3.9593773"
       height="3.9593773"
       id="rect138835" />
    <rect
       x="51.424782"
       y="37.340759"
       width="3.9593773"
       height="3.9593773"
       id="rect128275" />
    <rect
       x="52.645203"
       y="38.393581"
       width="2.2943146"
       height="2.3642125"
       id="rect117599" />
    <rect
       x="47.465405"
       y="37.340759"
       width="3.9593773"
       height="3.9593773"
       id="rect112677" />
    <rect
       x="43.506027"
       y="37.340759"
       width="3.9593773"
       height="3.9593773"
       id="rect105109" />
    <rect
       x="39.54665"
       y="37.340759"
       width="3.9593773"
       height="3.9593773"
       id="rect99069" />
    <rect
       x="35.650688"
       y="73.10424"
       width="3.8409245"
       height="3.4598839"
       id="rect93155" />
    <rect
       x="35.587269"
       y="69.015778"
       width="3.9593773"
       height="3.9593811"
       id="rect81173" />
    <rect
       x="35.587269"
       y="65.056404"
       width="3.9593773"
       height="3.9593735"
       id="rect73525" />
    <rect
       x="35.587269"
       y="61.097023"
       width="3.9593773"
       height="3.9593811"
       id="rect66419" />
    <rect
       x="35.587269"
       y="57.137646"
       width="3.9593773"
       height="3.9593773"
       id="rect58853" />
    <rect
       x="35.587273"
       y="53.178268"
       width="3.9593735"
       height="3.9593773"
       id="rect51955" />
    <rect
       x="35.587273"
       y="37.340759"
       width="3.9593773"
       height="3.9593773"
       id="rect21751" />
    <rect
       x="35.587273"
       y="37.340759"
       width="3.9593773"
       height="3.9593773"
       id="rect12613" />
    <rect
       x="32.130764"
       y="54.404739"
       width="6.5085416"
       height="14.920208"
       id="rect2292" />
    <rect
       x="35.587273"
       y="37.340759"
       width="3.9593773"
       height="3.9593773"
       id="rect21751-4" />
    <rect
       x="35.587273"
       y="37.340759"
       width="3.9593773"
       height="3.9593773"
       id="rect21751-4-3" />
    <rect
       x="35.587273"
       y="37.340759"
       width="3.9593773"
       height="3.9593773"
       id="rect21751-4-8" />
    <rect
       x="35.587273"
       y="37.340759"
       width="3.9593773"
       height="3.9593773"
       id="rect21751-4-2" />
  </defs>
  <g
     inkscape:label="Warstwa 1"
     inkscape:groupmode="layer"
     id="layer1"
     transform="translate(-35.455078,-37.208984)">
    <rect
       style="mix-blend-mode:multiply;fill:#909100;fill-opacity:1;fill-rule:evenodd;stroke:#ffffff;stroke-width:0.264999;stroke-linecap:round;stroke-linejoin:bevel;stroke-opacity:1"
       id="rect1282"
       width="3.9513595"
       height="3.9513595"
       x="43.522282"
       y="37.341896" />
    <rect
       style="mix-blend-mode:multiply;fill:#909100;fill-opacity:1;fill-rule:evenodd;stroke:#fdfdfd;stroke-width:0.264999;stroke-linecap:round;stroke-linejoin:bevel;stroke-opacity:1"
       id="rect3778"
       width="3.9411306"
       height="3.7631669"
       x="35.587891"
       y="45.392578" />
    <rect
       style="mix-blend-mode:multiply;fill:#909100;fill-opacity:1;fill-rule:evenodd;stroke:#fdfdfd;stroke-width:0.264999;stroke-linecap:round;stroke-linejoin:bevel;stroke-opacity:1"
       id="rect4066"
       width="3.9476261"
       height="3.7983756"
       x="43.505859"
       y="45.392578" />
    <g
       id="text2290"
       style="font-size:1.41111px;line-height:1.25;letter-spacing:0px;word-spacing:0px;white-space:pre;shape-inside:url(#rect2292);fill:#ffffff;fill-opacity:1" />
    <path
       style="color:#000000;fill:#ffffff;fill-opacity:1;fill-rule:evenodd;stroke-linecap:round;stroke-linejoin:bevel"
       d="m 35.587891,37.208984 -0.132813,0.13086 v 7.919922 l 0.132813,0.132812 h 3.958984 l 0.132812,-0.132812 v -7.919922 l -0.132812,-0.13086 z m 0.132812,0.263672 h 3.693359 v 7.654297 h -3.693359 z"
       id="rect54" />
    <path
       style="color:#000000;fill:#ffffff;fill-opacity:1;fill-rule:evenodd;stroke-linecap:round;stroke-linejoin:bevel"
       d="m 39.546875,37.208984 -0.132813,0.13086 v 3.960937 l 0.132813,0.132813 h 3.958984 l 0.132813,-0.132813 v -3.960937 l -0.132813,-0.13086 z m 0.132812,0.263672 h 3.69336 v 3.695313 h -3.69336 z"
       id="rect56" />
    <path
       style="color:#000000;fill:#ffffff;fill-opacity:1;fill-rule:evenodd;stroke-linecap:round;stroke-linejoin:bevel"
       d="m 47.464844,37.208984 -0.132813,0.13086 v 3.960937 l 0.132813,0.132813 h 3.958984 l 0.132813,-0.132813 v -3.960937 l -0.132813,-0.13086 z m 0.132812,0.263672 h 3.695313 v 3.695313 h -3.695313 z"
       id="rect60" />
    <path
       style="color:#000000;fill:#ffffff;fill-opacity:1;fill-rule:evenodd;stroke-linecap:round;stroke-linejoin:bevel"
       d="m 51.423828,37.208984 -0.130859,0.13086 v 3.960937 l 0.130859,0.132813 h 3.960938 l 0.132812,-0.132813 v -3.960937 l -0.132812,-0.13086 z m 0.132813,0.263672 h 3.695312 v 3.695313 h -3.695312 z"
       id="rect62" />
    <path
       style="color:#000000;fill:#ffffff;fill-opacity:1;fill-rule:evenodd;stroke-linecap:round;stroke-linejoin:bevel"
       d="m 55.384766,37.208984 -0.132813,0.13086 v 3.960937 l 0.132813,0.132813 h 3.958984 l 0.132812,-0.132813 v -3.960937 l -0.132812,-0.13086 z m 0.132812,0.263672 h 3.693359 v 3.695313 h -3.693359 z"
       id="rect64" />
    <path
       style="color:#000000;fill:#ffffff;fill-opacity:1;fill-rule:evenodd;stroke-linecap:round;stroke-linejoin:bevel"
       d="m 59.34375,37.208984 -0.132813,0.13086 v 3.960937 l 0.132813,0.132813 h 3.958984 l 0.132813,-0.132813 v -3.960937 l -0.132813,-0.13086 z m 0.132812,0.263672 h 3.69336 v 3.695313 h -3.69336 z"
       id="rect66" />
    <path
       style="color:#000000;fill:#ffffff;fill-opacity:1;fill-rule:evenodd;stroke-linecap:round;stroke-linejoin:bevel"
       d="m 39.546875,41.167969 -0.132813,0.132812 v 3.958985 l 0.132813,0.132812 h 3.958984 l 0.132813,-0.132812 v -3.958985 l -0.132813,-0.132812 z m 0.132812,0.265625 h 3.69336 v 3.693359 h -3.69336 z"
       id="rect68" />
    <path
       style="color:#000000;fill:#ffffff;fill-opacity:1;fill-rule:evenodd;stroke-linecap:round;stroke-linejoin:bevel"
       d="m 43.505859,41.167969 -0.132812,0.132812 v 3.958985 l 0.132812,0.132812 h 3.958985 l 0.132812,-0.132812 v -3.958985 l -0.132812,-0.132812 z m 0.132813,0.265625 h 3.693359 v 3.693359 h -3.693359 z"
       id="rect70" />
    <path
       style="color:#000000;fill:#ffffff;fill-opacity:1;fill-rule:evenodd;stroke-linecap:round;stroke-linejoin:bevel"
       d="m 47.464844,41.167969 -0.132813,0.132812 v 3.958985 l 0.132813,0.132812 h 3.958984 l 0.132813,-0.132812 v -3.958985 l -0.132813,-0.132812 z m 0.132812,0.265625 h 3.695313 v 3.693359 h -3.695313 z"
       id="rect72" />
    <path
       style="color:#000000;fill:#ffffff;fill-opacity:1;fill-rule:evenodd;stroke-linecap:round;stroke-linejoin:bevel"
       d="m 51.423828,41.167969 -0.130859,0.132812 v 3.958985 l 0.130859,0.132812 h 3.960938 l 0.132812,-0.132812 v -3.958985 l -0.132812,-0.132812 z m 0.132813,0.265625 h 3.695312 v 3.693359 h -3.695312 z"
       id="rect74" />
    <path
       style="color:#000000;fill:#ffffff;fill-opacity:1;fill-rule:evenodd;stroke-linecap:round;stroke-linejoin:bevel"
       d="m 55.384766,41.167969 -0.132813,0.132812 v 3.958985 l 0.132813,0.132812 h 3.958984 l 0.132812,-0.132812 V 41.300781 L 59.34375,41.167969 Z m 0.132812,0.265625 h 3.693359 v 3.693359 h -3.693359 z"
       id="rect76" />
    <path
       style="color:#000000;fill:#ffffff;fill-opacity:1;fill-rule:evenodd;stroke-linecap:round;stroke-linejoin:bevel"
       d="m 59.34375,41.167969 -0.132813,0.132812 v 3.958985 l 0.132813,0.132812 h 3.958984 l 0.132813,-0.132812 v -3.958985 l -0.132813,-0.132812 z m 0.132812,0.265625 h 3.69336 v 3.693359 h -3.69336 z"
       id="rect78" />
    <path
       style="color:#000000;fill:#ffffff;fill-opacity:1;fill-rule:evenodd;stroke-linecap:round;stroke-linejoin:bevel"
       d="m 39.546875,45.126953 -0.132813,0.132813 v 3.958984 l 0.132813,0.132812 h 3.958984 l 0.132813,-0.132812 v -3.958984 l -0.132813,-0.132813 z m 0.132812,0.265625 h 3.69336 v 3.693359 h -3.69336 z"
       id="rect80" />
    <path
       style="color:#000000;fill:#ffffff;fill-opacity:1;fill-rule:evenodd;stroke-linecap:round;stroke-linejoin:bevel"
       d="m 47.464844,45.126953 -0.132813,0.132813 v 3.958984 l 0.132813,0.132812 h 3.958984 l 0.132813,-0.132812 v -3.958984 l -0.132813,-0.132813 z m 0.132812,0.265625 h 3.695313 v 3.693359 h -3.695313 z"
       id="rect84" />
    <path
       style="color:#000000;fill:#ffffff;fill-opacity:1;fill-rule:evenodd;stroke-linecap:round;stroke-linejoin:bevel"
       d="m 51.423828,45.126953 -0.130859,0.132813 v 3.958984 l 0.130859,0.132812 h 3.960938 l 0.132812,-0.132812 v -3.958984 l -0.132812,-0.132813 z m 0.132813,0.265625 h 3.695312 v 3.693359 h -3.695312 z"
       id="rect86" />
    <path
       style="color:#000000;fill:#ffffff;fill-opacity:1;fill-rule:evenodd;stroke-linecap:round;stroke-linejoin:bevel"
       d="m 55.384766,45.126953 -0.132813,0.132813 v 3.958984 l 0.132813,0.132812 H 59.34375 L 59.476562,49.21875 V 45.259766 L 59.34375,45.126953 Z m 0.132812,0.265625 h 3.693359 v 3.693359 h -3.693359 z"
       id="rect88" />
    <path
       style="color:#000000;fill:#ffffff;fill-opacity:1;fill-rule:evenodd;stroke-linecap:round;stroke-linejoin:bevel"
       d="m 59.34375,45.126953 -0.132813,0.132813 v 3.958984 l 0.132813,0.132812 h 3.958984 l 0.132813,-0.132812 v -3.958984 l -0.132813,-0.132813 z m 0.132812,0.265625 h 3.69336 v 3.693359 h -3.69336 z"
       id="rect90" />
    <path
       style="color:#000000;fill:#ffffff;fill-opacity:1;fill-rule:evenodd;stroke-linecap:round;stroke-linejoin:bevel"
       d="m 39.546875,49.085937 -0.132813,0.132813 v 3.958984 l 0.132813,0.132813 h 3.958984 l 0.132813,-0.132813 V 49.21875 l -0.132813,-0.132813 z m 0.132812,0.265625 h 3.69336 v 3.69336 h -3.69336 z"
       id="rect92" />
    <path
       style="color:#000000;fill:#ffffff;fill-opacity:1;fill-rule:evenodd;stroke-linecap:round;stroke-linejoin:bevel"
       d="m 43.505859,49.085937 -0.132812,0.132813 v 3.958984 l 0.132812,0.132813 h 3.958985 l 0.132812,-0.132813 V 49.21875 l -0.132812,-0.132813 z m 0.132813,0.265625 h 3.693359 v 3.69336 h -3.693359 z"
       id="rect94" />
    <path
       style="color:#000000;fill:#ffffff;fill-opacity:1;fill-rule:evenodd;stroke-linecap:round;stroke-linejoin:bevel"
       d="m 47.464844,49.085937 -0.132813,0.132813 v 3.958984 l 0.132813,0.132813 h 3.958984 l 0.132813,-0.132813 V 49.21875 l -0.132813,-0.132813 z m 0.132812,0.265625 h 3.695313 v 3.69336 h -3.695313 z"
       id="rect96" />
    <path
       style="color:#000000;fill:#ffffff;fill-opacity:1;fill-rule:evenodd;stroke-linecap:round;stroke-linejoin:bevel"
       d="m 51.423828,49.085937 -0.130859,0.132813 v 3.958984 l 0.130859,0.132813 h 3.960938 l 0.132812,-0.132813 V 49.21875 l -0.132812,-0.132813 z m 0.132813,0.265625 h 3.695312 v 3.69336 h -3.695312 z"
       id="rect98" />
    <path
       style="color:#000000;fill:#ffffff;fill-opacity:1;fill-rule:evenodd;stroke-linecap:round;stroke-linejoin:bevel"
       d="m 55.384766,49.085937 -0.132813,0.132813 v 3.958984 l 0.132813,0.132813 h 3.958984 l 0.132812,-0.132813 V 49.21875 L 59.34375,49.085937 Z m 0.132812,0.265625 h 3.693359 v 3.69336 h -3.693359 z"
       id="rect100" />
    <path
       style="color:#000000;fill:#ffffff;fill-opacity:1;fill-rule:evenodd;stroke-linecap:round;stroke-linejoin:bevel"
       d="m 59.34375,49.085937 -0.132813,0.132813 v 3.958984 l 0.132813,0.132813 h 3.958984 l 0.132813,-0.132813 V 49.21875 l -0.132813,-0.132813 z m 0.132812,0.265625 h 3.69336 v 3.69336 h -3.69336 z"
       id="rect102" />
    <path
       style="color:#000000;fill:#ffffff;fill-opacity:1;fill-rule:evenodd;stroke-linecap:round;stroke-linejoin:bevel"
       d="m 35.587891,53.044922 -0.132813,0.132812 v 3.958985 l 0.132813,0.132812 h 3.958984 l 0.132812,-0.132812 v -3.958985 l -0.132812,-0.132812 z m 0.132812,0.265625 h 3.693359 v 3.695312 h -3.693359 z"
       id="rect132" />
    <path
       style="color:#000000;fill:#ffffff;fill-opacity:1;fill-rule:evenodd;stroke-linecap:round;stroke-linejoin:bevel"
       d="m 39.546875,53.044922 -0.132813,0.132812 v 3.958985 l 0.132813,0.132812 h 3.958984 l 0.132813,-0.132812 v -3.958985 l -0.132813,-0.132812 z m 0.132812,0.265625 h 3.69336 v 3.695312 h -3.69336 z"
       id="rect134" />
    <path
       style="color:#000000;fill:#ffffff;fill-opacity:1;fill-rule:evenodd;stroke-linecap:round;stroke-linejoin:bevel"
       d="m 43.505859,53.044922 -0.132812,0.132812 v 3.958985 l 0.132812,0.132812 h 3.958985 l 0.132812,-0.132812 v -3.958985 l -0.132812,-0.132812 z m 0.132813,0.265625 h 3.693359 v 3.695312 h -3.693359 z"
       id="rect136" />
    <path
       style="color:#000000;fill:#ffffff;fill-opacity:1;fill-rule:evenodd;stroke-linecap:round;stroke-linejoin:bevel"
       d="m 47.464844,53.044922 -0.132813,0.132812 v 3.958985 l 0.132813,0.132812 h 3.958984 l 0.132813,-0.132812 v -3.958985 l -0.132813,-0.132812 z m 0.132812,0.265625 h 3.695313 v 3.695312 h -3.695313 z"
       id="rect138" />
    <path
       style="color:#000000;fill:#ffffff;fill-opacity:1;fill-rule:evenodd;stroke-linecap:round;stroke-linejoin:bevel"
       d="m 51.423828,53.044922 -0.130859,0.132812 v 3.958985 l 0.130859,0.132812 h 3.960938 l 0.132812,-0.132812 v -3.958985 l -0.132812,-0.132812 z m 0.132813,0.265625 h 3.695312 v 3.695312 h -3.695312 z"
       id="rect140" />
    <path
       style="color:#000000;fill:#ffffff;fill-opacity:1;fill-rule:evenodd;stroke-linecap:round;stroke-linejoin:bevel"
       d="m 55.384766,53.044922 -0.132813,0.132812 v 3.958985 l 0.132813,0.132812 h 3.958984 l 0.132812,-0.132812 V 53.177734 L 59.34375,53.044922 Z m 0.132812,0.265625 h 3.693359 v 3.695312 h -3.693359 z"
       id="rect142" />
    <path
       style="color:#000000;fill:#ffffff;fill-opacity:1;fill-rule:evenodd;stroke-linecap:round;stroke-linejoin:bevel"
       d="m 59.34375,53.044922 -0.132813,0.132812 v 3.958985 l 0.132813,0.132812 h 3.958984 l 0.132813,-0.132812 v -3.958985 l -0.132813,-0.132812 z m 0.132812,0.265625 h 3.69336 v 3.695312 h -3.69336 z"
       id="rect144" />
    <path
       style="color:#000000;fill:#ffffff;fill-opacity:1;fill-rule:evenodd;stroke-linecap:round;stroke-linejoin:bevel"
       d="m 63.302734,53.044922 -0.132812,0.132812 v 3.958985 l 0.132812,0.132812 h 3.958985 l 0.132812,-0.132812 v -3.958985 l -0.132812,-0.132812 z m 0.132813,0.265625 h 3.693359 v 3.695312 h -3.693359 z"
       id="rect154" />
    <path
       style="color:#000000;fill:#ffffff;fill-opacity:1;fill-rule:evenodd;stroke-linecap:round;stroke-linejoin:bevel"
       d="m 63.302734,49.085937 -0.132812,0.132813 v 3.958984 l 0.132812,0.132813 h 3.958985 l 0.132812,-0.132813 V 49.21875 l -0.132812,-0.132813 z m 0.132813,0.265625 h 3.693359 v 3.69336 h -3.693359 z"
       id="rect156" />
    <path
       style="color:#000000;fill:#ffffff;fill-opacity:1;fill-rule:evenodd;stroke-linecap:round;stroke-linejoin:bevel"
       d="m 63.302734,45.126953 -0.132812,0.132813 v 3.958984 l 0.132812,0.132812 h 3.958985 l 0.132812,-0.132812 v -3.958984 l -0.132812,-0.132813 z m 0.132813,0.265625 h 3.693359 v 3.693359 h -3.693359 z"
       id="rect158" />
    <path
       style="color:#000000;fill:#ffffff;fill-opacity:1;fill-rule:evenodd;stroke-linecap:round;stroke-linejoin:bevel"
       d="m 35.587891,49.085937 -0.132813,0.132813 v 3.958984 l 0.132813,0.132813 h 3.958984 l 0.132812,-0.132813 V 49.21875 l -0.132812,-0.132813 z m 0.132812,0.265625 h 3.693359 v 3.69336 h -3.693359 z"
       id="rect206" />
    <g
       aria-label="7"
       transform="translate(0,-15.04598)"
       id="text66417"
       style="font-size:2.11667px;letter-spacing:0px;word-spacing:0px;white-space:pre;fill:#ffffff;fill-opacity:1">
      <path
         style="color:#000000;fill:#ffffff;fill-opacity:1"
         d="m 37.067671,61.427352 h 0.992189 v 0.08888 l -0.560173,1.454177 h -0.218075 l 0.5271,-1.36736 h -0.741041 z"
         id="path217" />
    </g>
    <g
       aria-label="8"
       transform="translate(0,-15.17619)"
       id="text73523"
       style="font-size:2.11667px;letter-spacing:0px;word-spacing:0px;white-space:pre;fill:#ffffff;fill-opacity:1">
      <path
         style="color:#000000;fill:#ffffff;fill-opacity:1"
         d="m 37.566866,66.196624 q -0.148828,0 -0.234611,0.07958 -0.08475,0.07958 -0.08475,0.219109 0,0.139526 0.08475,0.219108 0.08578,0.07958 0.234611,0.07958 0.148828,0 0.234611,-0.07958 0.08578,-0.08061 0.08578,-0.219108 0,-0.139527 -0.08578,-0.219109 -0.08475,-0.07958 -0.234611,-0.07958 z m -0.208773,-0.08888 q -0.134359,-0.03307 -0.209807,-0.125057 -0.07441,-0.09198 -0.07441,-0.224276 0,-0.185002 0.131258,-0.292489 0.132292,-0.107488 0.361736,-0.107488 0.230477,0 0.361736,0.107488 0.131258,0.107487 0.131258,0.292489 0,0.132292 -0.07545,0.224276 -0.07441,0.09198 -0.207739,0.125057 0.150895,0.03514 0.234611,0.137459 0.08475,0.10232 0.08475,0.250115 0,0.224276 -0.13746,0.344165 -0.136426,0.11989 -0.391708,0.11989 -0.255282,0 -0.392741,-0.11989 -0.136426,-0.119889 -0.136426,-0.344165 0,-0.147795 0.08475,-0.250115 0.08475,-0.102319 0.235645,-0.137459 z m -0.07648,-0.329696 q 0,0.119889 0.07441,0.187069 0.07545,0.06718 0.21084,0.06718 0.134359,0 0.209807,-0.06718 0.07648,-0.06718 0.07648,-0.187069 0,-0.11989 -0.07648,-0.187069 -0.07545,-0.06718 -0.209807,-0.06718 -0.135392,0 -0.21084,0.06718 -0.07441,0.06718 -0.07441,0.187069 z"
         id="path220" />
    </g>
    <g
       aria-label="Z"
       id="text117597"
       style="font-size:2.11667px;line-height:1.25;letter-spacing:0px;word-spacing:0px;white-space:pre;shape-inside:url(#rect117599);fill:#ffffff;fill-opacity:1" />
    <g
       id="text21039"
       style="font-size:1.41111px;line-height:1.25;letter-spacing:0px;word-spacing:0px;white-space:pre;shape-inside:url(#rect21041);fill:#ffffff;fill-opacity:1" />
    <g
       id="text29015"
       style="font-size:1.41111px;line-height:1.25;letter-spacing:0px;word-spacing:0px;white-space:pre;shape-inside:url(#rect29017);fill:#ffffff;fill-opacity:1" />
    <g
       aria-label="T"
       transform="translate(-19.661464,8.6310719)"
       id="text49553"
       style="font-size:2.11667px;letter-spacing:0px;word-spacing:0px;white-space:pre;fill:#ffffff;fill-opacity:1">
      <path
         style="color:#000000;fill:#ffffff;fill-opacity:1"
         d="m 60.670568,45.589462 h 1.305349 v 0.1757 h -0.547771 v 1.36736 h -0.209807 v -1.36736 h -0.547771 z"
         id="path272" />
    </g>
    <g
       aria-label="B"
       transform="translate(0,-3.232942)"
       id="text59661"
       style="font-size:2.11667px;letter-spacing:0px;word-spacing:0px;white-space:pre;fill:#ffffff;fill-opacity:1">
      <path
         style="color:#000000;fill:#ffffff;fill-opacity:1"
         d="m 45.175809,46.395615 v 0.565341 h 0.334864 q 0.168465,0 0.249081,-0.06925 0.08165,-0.07028 0.08165,-0.213941 0,-0.144694 -0.08165,-0.212907 -0.08062,-0.06925 -0.249081,-0.06925 z m 0,-0.634587 v 0.465088 h 0.309026 q 0.152962,0 0.227376,-0.05684 0.07545,-0.05788 0.07545,-0.1757 0,-0.116789 -0.07545,-0.174667 -0.07441,-0.05788 -0.227376,-0.05788 z m -0.208773,-0.171566 h 0.533302 q 0.238745,0 0.367937,0.09922 0.129191,0.09922 0.129191,0.282153 0,0.141594 -0.06615,0.22531 -0.06615,0.08372 -0.194304,0.104387 0.153996,0.03307 0.238746,0.138493 0.08578,0.104386 0.08578,0.261483 0,0.206706 -0.14056,0.319361 -0.140561,0.112654 -0.399977,0.112654 h -0.553972 z"
         id="path278" />
    </g>
    <g
       aria-label="D"
       transform="translate(4.0367212,-3.2110949)"
       id="text64207"
       style="font-size:2.11667px;letter-spacing:0px;word-spacing:0px;white-space:pre;fill:#ffffff;fill-opacity:1">
      <path
         style="color:#000000;fill:#ffffff;fill-opacity:1"
         d="m 49.04591,45.761028 v 1.199928 h 0.252181 q 0.319361,0 0.467156,-0.144694 0.148828,-0.144694 0.148828,-0.45682 0,-0.310059 -0.148828,-0.45372 -0.147795,-0.144694 -0.467156,-0.144694 z m -0.208773,-0.171566 h 0.428915 q 0.448552,0 0.658359,0.187069 0.209806,0.186035 0.209806,0.582911 0,0.398942 -0.21084,0.586011 -0.21084,0.187069 -0.657325,0.187069 h -0.428915 z"
         id="path281" />
    </g>
    <g
       aria-label="P"
       transform="translate(-3.9878862,4.7227923)"
       id="text82835"
       style="font-size:2.11667px;letter-spacing:0px;word-spacing:0px;white-space:pre;fill:#ffffff;fill-opacity:1">
      <path
         style="color:#000000;fill:#ffffff;fill-opacity:1"
         d="m 57.142566,45.761028 v 0.57981 h 0.262516 q 0.145728,0 0.22531,-0.07545 0.07958,-0.07545 0.07958,-0.214975 0,-0.138493 -0.07958,-0.213941 -0.07958,-0.07545 -0.22531,-0.07545 z m -0.208774,-0.171566 h 0.47129 q 0.259416,0 0.391708,0.117822 0.133326,0.116789 0.133326,0.343132 0,0.22841 -0.133326,0.345199 -0.132292,0.116789 -0.391708,0.116789 h -0.262516 v 0.620118 h -0.208774 z"
         id="path287" />
    </g>
    <g
       aria-label="U"
       transform="translate(-15.783821,4.6922983)"
       id="text88705"
       style="font-size:2.11667px;letter-spacing:0px;word-spacing:0px;white-space:pre;fill:#ffffff;fill-opacity:1">
      <path
         style="color:#000000;fill:#ffffff;fill-opacity:1"
         d="m 60.73258,49.548446 h 0.209806 v 0.937412 q 0,0.248047 0.08992,0.357602 0.08992,0.10852 0.291456,0.10852 0.200505,0 0.290422,-0.10852 0.08992,-0.109555 0.08992,-0.357602 v -0.937412 h 0.209807 v 0.96325 q 0,0.301791 -0.149862,0.455787 -0.148829,0.153996 -0.440284,0.153996 -0.292489,0 -0.442351,-0.153996 -0.148828,-0.153996 -0.148828,-0.455787 z"
         id="path290" />
    </g>
    <g
       aria-label="W"
       transform="translate(-11.89753,0.76422276)"
       id="text96315"
       style="font-size:2.11667px;letter-spacing:0px;word-spacing:0px;white-space:pre;fill:#ffffff;fill-opacity:1">
      <path
         style="color:#000000;fill:#ffffff;fill-opacity:1"
         d="m 60.347073,53.507431 h 0.21084 l 0.324529,1.304315 0.323495,-1.304315 h 0.234611 l 0.324528,1.304315 0.323495,-1.304315 h 0.211874 l -0.387574,1.54306 h -0.262516 l -0.325563,-1.339455 -0.328662,1.339455 h -0.262517 z"
         id="path293" />
    </g>
    <g
       aria-label="Y"
       transform="translate(-4.0634728,-3.2697363)"
       id="text100507"
       style="font-size:2.11667px;letter-spacing:0px;word-spacing:0px;white-space:pre;fill:#ffffff;fill-opacity:1">
      <path
         style="color:#000000;fill:#ffffff;fill-opacity:1"
         d="m 60.672635,57.466415 h 0.224276 l 0.427881,0.634587 0.424781,-0.634587 h 0.224276 l -0.545703,0.808221 v 0.73484 h -0.209807 v -0.73484 z"
         id="path296" />
    </g>
    <g
       aria-label="M"
       transform="translate(0.10130743,0.87922415)"
       id="text105917"
       style="font-size:2.11667px;letter-spacing:0px;word-spacing:0px;white-space:pre;fill:#ffffff;fill-opacity:1">
      <path
         style="color:#000000;fill:#ffffff;fill-opacity:1"
         d="m 40.820983,49.548446 h 0.311092 l 0.393775,1.050067 0.395842,-1.050067 h 0.311093 v 1.543061 H 42.02918 v -1.354958 l -0.397909,1.058335 h -0.209807 l -0.397909,-1.058335 v 1.354958 h -0.202572 z"
         id="path299" />
    </g>
    <g
       aria-label="N"
       transform="translate(4.058931,-3.0704615)"
       id="text123509"
       style="font-size:2.11667px;letter-spacing:0px;word-spacing:0px;white-space:pre;fill:#ffffff;fill-opacity:1">
      <path
         style="color:#000000;fill:#ffffff;fill-opacity:1"
         d="m 40.942423,53.507431 h 0.28112 l 0.684197,1.290879 v -1.290879 h 0.202572 v 1.54306 h -0.28112 l -0.684197,-1.290879 v 1.290879 h -0.202572 z"
         id="path308" />
    </g>
    <g
       aria-label="G"
       transform="translate(-8.0156718,-15.021655)"
       id="text141457"
       style="font-size:2.11667px;letter-spacing:0px;word-spacing:0px;white-space:pre;fill:#ffffff;fill-opacity:1">
      <path
         style="color:#000000;fill:#ffffff;fill-opacity:1"
         d="m 49.884103,62.750271 v -0.414446 h -0.341065 v -0.171566 h 0.547771 v 0.662493 q -0.120923,0.08578 -0.266651,0.130225 -0.145727,0.04341 -0.311092,0.04341 -0.361736,0 -0.566375,-0.21084 -0.203605,-0.211873 -0.203605,-0.589112 0,-0.378272 0.203605,-0.589112 0.204639,-0.211874 0.566375,-0.211874 0.150895,0 0.286288,0.03721 0.136426,0.03721 0.251147,0.109554 v 0.222209 q -0.115755,-0.09819 -0.24598,-0.147794 -0.130225,-0.04961 -0.273885,-0.04961 -0.283188,0 -0.425815,0.15813 -0.141593,0.15813 -0.141593,0.47129 0,0.312126 0.141593,0.470256 0.142627,0.15813 0.425815,0.15813 0.110587,0 0.197404,-0.0186 0.08682,-0.01964 0.156063,-0.05994 z"
         id="path317" />
    </g>
    <g
       aria-label="H"
       transform="translate(-3.8727817,-19.004965)"
       id="text145569"
       style="font-size:2.11667px;letter-spacing:0px;word-spacing:0px;white-space:pre;fill:#ffffff;fill-opacity:1">
      <path
         style="color:#000000;fill:#ffffff;fill-opacity:1"
         d="m 48.856257,65.386337 h 0.208773 v 0.63252 h 0.758612 v -0.63252 h 0.208773 v 1.54306 h -0.208773 v -0.73484 H 49.06503 v 0.73484 h -0.208773 z"
         id="path320" />
    </g>
    <g
       aria-label="I"
       transform="translate(0,-22.963949)"
       id="text149467"
       style="font-size:2.11667px;letter-spacing:0px;word-spacing:0px;white-space:pre;fill:#ffffff;fill-opacity:1">
      <path
         style="color:#000000;fill:#ffffff;fill-opacity:1"
         d="m 49.339949,69.345321 h 0.208773 v 1.543061 h -0.208773 z"
         id="path323" />
    </g>
    <g
       aria-label="J"
       transform="translate(3.8829368,-26.922934)"
       id="text153089"
       style="font-size:2.11667px;letter-spacing:0px;word-spacing:0px;white-space:pre;fill:#ffffff;fill-opacity:1">
      <path
         style="color:#000000;fill:#ffffff;fill-opacity:1"
         d="m 49.339949,73.304306 h 0.208773 v 1.435573 q 0,0.279053 -0.106453,0.405144 -0.10542,0.126091 -0.340032,0.126091 h -0.07958 v -0.175701 h 0.06511 q 0.138493,0 0.195337,-0.07751 0.05684,-0.07752 0.05684,-0.27802 z"
         id="path326" />
    </g>
    <g
       aria-label="1"
       transform="translate(3.9683437,0.72404279)"
       id="text21749"
       style="font-size:2.11667px;letter-spacing:0px;word-spacing:0px;white-space:pre;fill:#ffffff;fill-opacity:1">
      <path
         style="color:#000000;fill:#ffffff;fill-opacity:1"
         d="m 37.156555,39.0369 h 0.341065 v -1.177191 l -0.371038,0.07441 v -0.19017 l 0.36897,-0.07441 h 0.208774 v 1.36736 h 0.341065 V 39.2126 h -0.888836 z"
         id="path193" />
    </g>
    <g
       aria-label="2"
       transform="translate(0.17675146,-0.29124958)"
       id="text4209"
       style="font-size:2.11667px;line-height:1.25;letter-spacing:0px;word-spacing:0px;white-space:pre;shape-inside:url(#rect4211);fill:#ffffff;fill-opacity:1">
      <path
         d="m 44.933521,40.091588 h 0.728639 v 0.1757 h -0.979787 v -0.1757 q 0.118856,-0.12299 0.323495,-0.329696 0.205673,-0.20774 0.258383,-0.267685 0.100252,-0.112654 0.139526,-0.190169 0.04031,-0.07855 0.04031,-0.153996 0,-0.12299 -0.08682,-0.200505 -0.08578,-0.07751 -0.224277,-0.07751 -0.09819,0 -0.207739,0.03411 -0.108521,0.03411 -0.232544,0.103353 v -0.21084 q 0.12609,-0.05064 0.235644,-0.07648 0.109555,-0.02584 0.200505,-0.02584 0.239779,0 0.382407,0.11989 0.142627,0.119889 0.142627,0.320394 0,0.09508 -0.03617,0.180868 -0.03514,0.08475 -0.129191,0.200505 -0.02584,0.02997 -0.164331,0.173633 -0.138493,0.142627 -0.390675,0.399976 z"
         style="font-size:2.11667px;line-height:1.25;letter-spacing:0px;word-spacing:0px;white-space:pre;shape-inside:url(#rect4211);fill:#ffffff;fill-opacity:1"
         id="path82870" />
    </g>
    <g
       aria-label="3"
       transform="translate(11.766869,0.75721788)"
       id="text21749-4-4"
       style="font-size:2.11667px;letter-spacing:0px;word-spacing:0px;white-space:pre;fill:#ffffff;fill-opacity:1">
      <path
         style="color:#000000;fill:#ffffff;fill-opacity:1"
         d="m 37.752901,38.380609 q 0.149862,0.03204 0.233578,0.133325 0.08475,0.101286 0.08475,0.250114 0,0.228411 -0.157097,0.353468 -0.157096,0.125057 -0.446485,0.125057 -0.09715,0 -0.200505,-0.01964 -0.102319,-0.0186 -0.211873,-0.05684 v -0.201539 q 0.08682,0.05064 0.190169,0.07648 0.103353,0.02584 0.216008,0.02584 0.196371,0 0.29869,-0.07751 0.103353,-0.07752 0.103353,-0.22531 0,-0.136426 -0.09612,-0.212907 -0.09508,-0.07751 -0.265617,-0.07751 H 37.321919 V 38.30206 h 0.188103 q 0.153996,0 0.235645,-0.06098 0.08165,-0.06201 0.08165,-0.177767 0,-0.118856 -0.08475,-0.181901 -0.08372,-0.06408 -0.240812,-0.06408 -0.08578,0 -0.183969,0.0186 -0.09819,0.0186 -0.216008,0.05788 v -0.186035 q 0.118856,-0.03307 0.222209,-0.04961 0.104387,-0.01654 0.196371,-0.01654 0.237712,0 0.376205,0.10852 0.138493,0.107487 0.138493,0.291456 0,0.128158 -0.07338,0.217041 -0.07338,0.08785 -0.208774,0.121957 z"
         id="path203" />
    </g>
    <g
       aria-label="4"
       transform="translate(15.854817,0.72404179)"
       id="text21749-4-6"
       style="font-size:2.11667px;letter-spacing:0px;word-spacing:0px;white-space:pre;fill:#ffffff;fill-opacity:1">
      <path
         style="color:#000000;fill:#ffffff;fill-opacity:1"
         d="m 37.69399,37.851441 -0.5271,0.823724 h 0.5271 z M 37.63921,37.66954 h 0.262517 v 1.005625 h 0.220142 v 0.173633 H 37.90173 v 0.363803 h -0.20774 v -0.363803 h -0.696599 v -0.201539 z"
         id="path208" />
    </g>
    <g
       aria-label="5"
       transform="translate(19.855669,-15.113849)"
       id="text51953"
       style="font-size:2.11667px;letter-spacing:0px;word-spacing:0px;white-space:pre;fill:#ffffff;fill-opacity:1">
      <path
         style="color:#000000;fill:#ffffff;fill-opacity:1"
         d="m 37.122448,53.507431 h 0.81959 v 0.1757 h -0.628387 v 0.378272 q 0.04548,-0.0155 0.09095,-0.02274 0.04548,-0.0083 0.09095,-0.0083 0.258383,0 0.409278,0.141593 0.150896,0.141594 0.150896,0.38344 0,0.249081 -0.15503,0.387574 -0.155029,0.13746 -0.437183,0.13746 -0.09715,0 -0.198438,-0.01654 -0.100252,-0.01654 -0.207739,-0.04961 v -0.209807 q 0.09302,0.05064 0.192236,0.07545 0.09922,0.0248 0.209807,0.0248 0.178801,0 0.283187,-0.09405 0.104387,-0.09405 0.104387,-0.255282 0,-0.161231 -0.104387,-0.255282 -0.104386,-0.09405 -0.283187,-0.09405 -0.08372,0 -0.167432,0.0186 -0.08268,0.0186 -0.169499,0.05788 z"
         id="path211" />
    </g>
    <g
       aria-label="6"
       transform="translate(23.697007,-19.05256)"
       id="text58851"
       style="font-size:2.11667px;letter-spacing:0px;word-spacing:0px;white-space:pre;fill:#ffffff;fill-opacity:1">
      <path
         style="color:#000000;fill:#ffffff;fill-opacity:1"
         d="m 37.592704,58.154746 q -0.14056,0 -0.223242,0.09612 -0.08165,0.09612 -0.08165,0.263551 0,0.166398 0.08165,0.26355 0.08268,0.09612 0.223242,0.09612 0.14056,0 0.222209,-0.09612 0.08268,-0.09715 0.08268,-0.26355 0,-0.167432 -0.08268,-0.263551 -0.08165,-0.09612 -0.222209,-0.09612 z m 0.414446,-0.654225 v 0.19017 q -0.07855,-0.03721 -0.159164,-0.05684 -0.07958,-0.01964 -0.15813,-0.01964 -0.206706,0 -0.31626,0.139526 -0.108521,0.139527 -0.124024,0.421681 0.06098,-0.08992 0.152963,-0.13746 0.09198,-0.04858 0.202572,-0.04858 0.232544,0 0.366903,0.141594 0.135392,0.14056 0.135392,0.38344 0,0.237711 -0.14056,0.381372 -0.14056,0.143661 -0.374138,0.143661 -0.267684,0 -0.409278,-0.204639 -0.141593,-0.205673 -0.141593,-0.595314 0,-0.365869 0.173633,-0.582911 0.173633,-0.218074 0.466122,-0.218074 0.07855,0 0.15813,0.0155 0.08062,0.0155 0.167432,0.04651 z"
         id="path214" />
    </g>
    <path
       style="color:#000000;fill:#ffffff;fill-opacity:1;fill-rule:evenodd;stroke-linecap:round;stroke-linejoin:bevel"
       d="m 63.302734,37.208984 -0.132812,0.13086 v 7.919922 l 0.132812,0.132812 h 3.958985 l 0.132812,-0.132812 v -7.919922 l -0.132812,-0.13086 z m 0.132813,0.263672 h 3.693359 v 7.654297 h -3.693359 z"
       id="rect54-3" />
    <g
       aria-label="A"
       transform="translate(1.1613948,0.71118636)"
       id="text12338"
       style="font-size:2.11667px;line-height:1.25;letter-spacing:0px;word-spacing:0px;white-space:pre;shape-inside:url(#rect12340);fill:#ffffff;fill-opacity:1">
      <path
         d="m 40.270346,41.83615 -0.283187,0.767913 h 0.567408 z m -0.117822,-0.205673 h 0.236678 l 0.588079,1.543061 h -0.217042 l -0.14056,-0.395842 h -0.695565 l -0.140561,0.395842 h -0.220142 z"
         style="font-size:2.11667px;line-height:1.25;letter-spacing:0px;word-spacing:0px;white-space:pre;shape-inside:url(#rect12340);fill:#ffffff;fill-opacity:1"
         id="path82867" />
    </g>
    <g
       aria-label="E"
       transform="translate(7.9340767,-7.2142183)"
       id="text110255"
       style="font-size:2.11667px;letter-spacing:0px;word-spacing:0px;white-space:pre;fill:#ffffff;fill-opacity:1">
      <path
         style="color:#000000;fill:#ffffff;fill-opacity:1"
         d="m 48.983381,49.548446 h 0.975653 v 0.1757 h -0.766879 v 0.456821 h 0.73484 v 0.1757 h -0.73484 v 0.55914 h 0.785483 v 0.1757 h -0.994257 z"
         id="path302" />
    </g>
    <g
       aria-label="F"
       transform="translate(11.959767,-15.232809)"
       id="text133561"
       style="font-size:2.11667px;letter-spacing:0px;word-spacing:0px;white-space:pre;fill:#ffffff;fill-opacity:1">
      <path
         style="color:#000000;fill:#ffffff;fill-opacity:1"
         d="m 49.043326,57.466415 h 0.886769 v 0.1757 h -0.677996 v 0.454753 h 0.61185 v 0.1757 h -0.61185 v 0.736908 h -0.208773 z"
         id="path314" />
    </g>
    <g
       aria-label="C"
       transform="translate(0,0.74795614)"
       id="text17700"
       style="font-size:2.11667px;line-height:1.25;letter-spacing:0px;word-spacing:0px;white-space:pre;shape-inside:url(#rect17702);fill:#ffffff;fill-opacity:1">
      <path
         d="m 50.068588,41.749333 v 0.220142 q -0.10542,-0.09819 -0.225309,-0.146761 -0.118856,-0.04858 -0.253215,-0.04858 -0.264584,0 -0.405144,0.162264 -0.14056,0.161231 -0.14056,0.467156 0,0.304891 0.14056,0.467156 0.14056,0.16123 0.405144,0.16123 0.134359,0 0.253215,-0.04858 0.119889,-0.04857 0.225309,-0.146761 v 0.218075 q -0.109554,0.07441 -0.232544,0.111621 -0.121957,0.03721 -0.258383,0.03721 -0.350366,0 -0.551905,-0.21394 -0.201538,-0.214975 -0.201538,-0.586012 0,-0.372071 0.201538,-0.586012 0.201539,-0.214974 0.551905,-0.214974 0.138493,0 0.26045,0.03721 0.12299,0.03617 0.230477,0.109554 z"
         style="text-align:center;text-anchor:middle;fill:#ffffff;fill-opacity:1"
         id="path82864" />
    </g>
    <g
       aria-label="9"
       transform="translate(1.3280083,0.71385202)"
       id="text26840"
       style="font-size:2.11667px;line-height:1.25;letter-spacing:0px;word-spacing:0px;white-space:pre;shape-inside:url(#rect26842);fill:#ffffff;fill-opacity:1">
      <path
         d="m 35.820435,55.018452 v -0.19017 q 0.07855,0.03721 0.159164,0.05684 0.08062,0.01964 0.15813,0.01964 0.206706,0 0.315226,-0.138493 0.109555,-0.139526 0.125058,-0.422714 -0.05994,0.08888 -0.151929,0.136426 -0.09199,0.04754 -0.203606,0.04754 -0.231511,0 -0.366903,-0.139527 -0.134359,-0.14056 -0.134359,-0.383439 0,-0.237712 0.14056,-0.381373 0.14056,-0.143661 0.374138,-0.143661 0.267684,0 0.408245,0.205673 0.141593,0.204639 0.141593,0.595313 0,0.364836 -0.173633,0.582911 -0.172599,0.217042 -0.465089,0.217042 -0.07855,0 -0.159163,-0.0155 -0.08062,-0.0155 -0.167432,-0.04651 z m 0.415479,-0.654225 q 0.14056,0 0.222209,-0.09612 0.08268,-0.09612 0.08268,-0.26355 0,-0.166399 -0.08268,-0.262517 -0.08165,-0.09715 -0.222209,-0.09715 -0.14056,0 -0.223242,0.09715 -0.08165,0.09612 -0.08165,0.262517 0,0.167431 0.08165,0.26355 0.08268,0.09612 0.223242,0.09612 z"
         style="font-size:2.11667px;line-height:1.25;letter-spacing:0px;word-spacing:0px;white-space:pre;shape-inside:url(#rect26842);fill:#ffffff;fill-opacity:1"
         id="path82861" />
    </g>
    <g
       aria-label="O"
       transform="translate(0,0.79684144)"
       id="text34760"
       style="font-size:2.11667px;line-height:1.25;letter-spacing:0px;word-spacing:0px;white-space:pre;shape-inside:url(#rect34762);fill:#ffffff;fill-opacity:1">
      <path
         d="m 49.445369,49.69004 q -0.227376,0 -0.361735,0.169499 -0.133326,0.169499 -0.133326,0.461988 0,0.291455 0.133326,0.460954 0.134359,0.169499 0.361735,0.169499 0.227377,0 0.359669,-0.169499 0.133325,-0.169499 0.133325,-0.460954 0,-0.292489 -0.133325,-0.461988 -0.132292,-0.169499 -0.359669,-0.169499 z m 0,-0.169499 q 0.324529,0 0.518833,0.218075 0.194303,0.217041 0.194303,0.582911 0,0.364836 -0.194303,0.582911 -0.194304,0.217041 -0.518833,0.217041 -0.325562,0 -0.520899,-0.217041 -0.194303,-0.217042 -0.194303,-0.582911 0,-0.36587 0.194303,-0.582911 0.195337,-0.218075 0.520899,-0.218075 z"
         style="text-align:center;text-anchor:middle;fill:#ffffff;fill-opacity:1"
         id="path82858" />
    </g>
    <g
       aria-label="K"
       transform="translate(1.2155165,0.77293944)"
       id="text38716"
       style="font-size:2.11667px;line-height:1.25;letter-spacing:0px;word-spacing:0px;white-space:pre;shape-inside:url(#rect38718);fill:#ffffff;fill-opacity:1">
      <path
         d="m 55.592505,45.589462 h 0.208773 v 0.652157 l 0.692466,-0.652157 h 0.268717 l -0.765845,0.719337 0.820623,0.823723 h -0.27492 l -0.741041,-0.743108 v 0.743108 h -0.208773 z"
         style="font-size:2.11667px;line-height:1.25;letter-spacing:0px;word-spacing:0px;white-space:pre;shape-inside:url(#rect38718);fill:#ffffff;fill-opacity:1"
         id="path82855" />
    </g>
    <g
       aria-label="L"
       transform="translate(0,0.78943759)"
       id="text43268"
       style="font-size:2.11667px;line-height:1.25;letter-spacing:0px;word-spacing:0px;white-space:pre;shape-inside:url(#rect43270);fill:#ffffff;fill-opacity:1">
      <path
         d="m 60.941353,45.589462 h 0.208773 v 1.36736 h 0.751376 v 0.1757 h -0.960149 z"
         style="text-align:center;text-anchor:middle;fill:#ffffff;fill-opacity:1"
         id="path82852" />
    </g>
    <g
       aria-label="R"
       transform="translate(1.2566601,0.66223368)"
       id="text48408"
       style="font-size:2.11667px;line-height:1.25;letter-spacing:0px;word-spacing:0px;white-space:pre;shape-inside:url(#rect48410);fill:#ffffff;fill-opacity:1">
      <path
         d="m 56.324245,50.368036 q 0.06718,0.02274 0.130224,0.09715 0.06408,0.07442 0.128158,0.204639 l 0.211874,0.421681 h -0.224276 l -0.197404,-0.395842 q -0.07648,-0.15503 -0.148829,-0.205673 -0.07131,-0.05064 -0.195337,-0.05064 h -0.227377 v 0.652158 h -0.208773 v -1.543061 h 0.47129 q 0.264584,0 0.394809,0.110588 0.130224,0.110588 0.130224,0.33383 0,0.145728 -0.06821,0.241846 -0.06718,0.09612 -0.19637,0.133326 z m -0.522967,-0.648024 v 0.547771 h 0.262517 q 0.150895,0 0.227377,-0.06925 0.07751,-0.07028 0.07751,-0.205673 0,-0.135392 -0.07751,-0.203605 -0.07648,-0.06925 -0.227377,-0.06925 z"
         style="font-size:2.11667px;line-height:1.25;letter-spacing:0px;word-spacing:0px;white-space:pre;shape-inside:url(#rect48410);fill:#ffffff;fill-opacity:1"
         id="path82849" />
    </g>
    <g
       aria-label="S"
       transform="translate(0,0.6745144)"
       id="text54042"
       style="font-size:2.11667px;line-height:1.25;letter-spacing:0px;word-spacing:0px;white-space:pre;shape-inside:url(#rect54044);fill:#ffffff;fill-opacity:1">
      <path
         d="m 61.784197,49.599089 v 0.203606 q -0.118856,-0.05685 -0.224276,-0.08475 -0.10542,-0.0279 -0.203606,-0.0279 -0.170532,0 -0.26355,0.06615 -0.09198,0.06615 -0.09198,0.188102 0,0.10232 0.06098,0.15503 0.06201,0.05168 0.233578,0.08372 l 0.126091,0.02584 q 0.233577,0.04444 0.344165,0.157097 0.111621,0.111621 0.111621,0.299723 0,0.224276 -0.150895,0.340032 -0.149862,0.115755 -0.440284,0.115755 -0.109554,0 -0.233578,-0.02481 -0.12299,-0.0248 -0.255282,-0.07338 v -0.214975 q 0.127125,0.07131 0.249081,0.107488 0.121957,0.03617 0.239779,0.03617 0.178801,0 0.275953,-0.07028 0.09715,-0.07028 0.09715,-0.200505 0,-0.113688 -0.07028,-0.177767 -0.06925,-0.06408 -0.22841,-0.09612 l -0.127124,-0.02481 q -0.233578,-0.04651 -0.337964,-0.145728 -0.104387,-0.09922 -0.104387,-0.275952 0,-0.204639 0.143661,-0.322462 0.144694,-0.117822 0.397909,-0.117822 0.108521,0 0.221175,0.01964 0.112655,0.01964 0.230478,0.05891 z"
         style="text-align:center;text-anchor:middle;fill:#ffffff;fill-opacity:1"
         id="path82846" />
    </g>
    <g
       aria-label="X"
       transform="translate(1.1642412,0.75516367)"
       id="text58720"
       style="font-size:2.11667px;line-height:1.25;letter-spacing:0px;word-spacing:0px;white-space:pre;shape-inside:url(#rect58722);fill:#ffffff;fill-opacity:1">
      <path
         d="m 51.557154,53.507431 h 0.224276 l 0.383439,0.573609 0.385507,-0.573609 h 0.224276 l -0.496094,0.741041 0.529167,0.802019 h -0.224276 l -0.434083,-0.656292 -0.437183,0.656292 h -0.22531 l 0.550872,-0.823723 z"
         style="font-size:2.11667px;line-height:1.25;letter-spacing:0px;word-spacing:0px;white-space:pre;shape-inside:url(#rect58722);fill:#ffffff;fill-opacity:1"
         id="path82843" />
    </g>
    <g
       aria-label="Z"
       transform="translate(1.2516951,0.57918119)"
       id="text64560"
       style="font-size:2.11667px;line-height:1.25;letter-spacing:0px;word-spacing:0px;white-space:pre;shape-inside:url(#rect64562);fill:#ffffff;fill-opacity:1">
      <path
         d="m 59.462606,53.507431 h 1.212331 v 0.159163 l -0.975653,1.208197 h 0.999424 v 0.1757 h -1.259873 v -0.159164 l 0.975652,-1.208196 h -0.951881 z"
         style="font-size:2.11667px;line-height:1.25;letter-spacing:0px;word-spacing:0px;white-space:pre;shape-inside:url(#rect64562);fill:#ffffff;fill-opacity:1"
         id="path82840" />
    </g>
    <g
       aria-label="+"
       transform="translate(0,0.60555511)"
       id="text67270"
       style="font-size:2.11667px;line-height:1.25;letter-spacing:0px;word-spacing:0px;white-space:pre;shape-inside:url(#rect67272);fill:#ffffff;fill-opacity:1">
      <path
         d="m 65.369043,45.80547 v 0.575676 h 0.575676 v 0.1757 h -0.575676 v 0.575676 H 65.19541 v -0.575676 h -0.575676 v -0.1757 H 65.19541 V 45.80547 Z"
         style="text-align:center;text-anchor:middle;fill:#ffffff;fill-opacity:1"
         id="path82837" />
    </g>
    <g
       aria-label="x"
       transform="translate(0,0.45468106)"
       id="text74024"
       style="font-size:2.11667px;line-height:1.25;letter-spacing:0px;word-spacing:0px;white-space:pre;shape-inside:url(#rect74026);fill:#ffffff;fill-opacity:1">
      <path
         d="m 65.817595,49.933953 -0.41858,0.563274 0.440284,0.59428 h -0.224276 l -0.336931,-0.454754 -0.33693,0.454754 h -0.224276 l 0.449585,-0.605649 -0.411345,-0.551905 h 0.224276 l 0.306959,0.412378 0.306958,-0.412378 z"
         style="text-align:center;text-anchor:middle;fill:#ffffff;fill-opacity:1"
         id="path82834" />
    </g>
    <g
       aria-label="-"
       transform="translate(0,0.42030233)"
       id="text80176"
       style="font-size:2.11667px;line-height:1.25;letter-spacing:0px;word-spacing:0px;white-space:pre;shape-inside:url(#rect80178);fill:#ffffff;fill-opacity:1">
      <path
         d="m 65.00369,54.385931 h 0.557073 V 54.55543 H 65.00369 Z"
         style="text-align:center;text-anchor:middle;fill:#ffffff;fill-opacity:1"
         id="path82831" />
    </g>
  </g>
</svg>
