<?xml version="1.0" encoding="UTF-8" standalone="no"?>
<!-- Created with Inkscape (http://www.inkscape.org/) -->

<svg
   width="210.57079mm"
   height="139.56392mm"
   viewBox="0 0 210.57079 139.56392"
   version="1.1"
   id="svg1277"
   inkscape:version="1.1 (c68e22c387, 2021-05-23)"
   sodipodi:docname="morse.svg"
   xmlns:inkscape="http://www.inkscape.org/namespaces/inkscape"
   xmlns:sodipodi="http://sodipodi.sourceforge.net/DTD/sodipodi-0.dtd"
   xmlns="http://www.w3.org/2000/svg"
   xmlns:svg="http://www.w3.org/2000/svg">
  <sodipodi:namedview
     id="namedview1279"
     pagecolor="#505050"
     bordercolor="#eeeeee"
     borderopacity="1"
     inkscape:pageshadow="0"
     inkscape:pageopacity="0"
     inkscape:pagecheckerboard="0"
     inkscape:document-units="mm"
     showgrid="false"
     inkscape:zoom="2.2413861"
     inkscape:cx="164.4072"
     inkscape:cy="198.31479"
     inkscape:window-width="1600"
     inkscape:window-height="837"
     inkscape:window-x="-8"
     inkscape:window-y="-8"
     inkscape:window-maximized="1"
     inkscape:current-layer="layer2"
     fit-margin-top="10"
     fit-margin-left="10"
     fit-margin-right="10"
     fit-margin-bottom="10" />
  <defs
     id="defs1274">
    <pattern
       id="EMFhbasepattern"
       patternUnits="userSpaceOnUse"
       width="6"
       height="6"
       x="0"
       y="0" />
  </defs>
  <g
     inkscape:groupmode="layer"
     id="layer2"
     inkscape:label="Warstwa 2"
     transform="translate(0.77629836,-129.83865)">
    <g
       aria-label="A
B
C
D
E
F
G
H
I
J
K
L"
       id="text2166"
       style="font-size:8.11389px;line-height:1.25;stroke-width:0.264583">
      <path
         d="m 14.013591,146.75897 h -2.38504 l -0.376377,1.07762 H 9.7189342 l 2.1909088,-5.91505 h 1.818494 l 2.190908,5.91505 h -1.53324 z m -2.004702,-1.09744 h 1.620401 l -0.808219,-2.35334 z"
         style="font-weight:bold"
         id="path33759" />
      <path
         d="m 12.793338,154.35385 q 0.360529,0 0.546736,-0.15847 0.186208,-0.15848 0.186208,-0.4675 0,-0.30506 -0.186208,-0.46354 -0.186207,-0.16243 -0.546736,-0.16243 h -0.843877 v 1.25194 z m 0.0515,2.5871 q 0.459576,0 0.689364,-0.19413 0.233749,-0.19413 0.233749,-0.58636 0,-0.3843 -0.229788,-0.57447 -0.229787,-0.19413 -0.693325,-0.19413 h -0.895381 v 1.54909 z m 1.418346,-2.12752 q 0.49127,0.14263 0.760677,0.52693 0.269406,0.3843 0.269406,0.94292 0,0.85576 -0.578431,1.27572 -0.578432,0.41996 -1.759066,0.41996 H 10.424145 V 152.0639 H 12.7141 q 1.232139,0 1.782838,0.37241 0.55466,0.37242 0.55466,1.19252 0,0.43185 -0.202055,0.73691 -0.202055,0.3011 -0.586355,0.44769 z"
         style="font-weight:bold"
         id="path33761" />
      <path
         d="m 15.114988,167.79645 q -0.419957,0.2179 -0.875571,0.32883 -0.455614,0.11093 -0.950847,0.11093 -1.477774,0 -2.341459,-0.82407 -0.863686,-0.82802 -0.863686,-2.24241 0,-1.41834 0.863686,-2.24241 0.863685,-0.82803 2.341459,-0.82803 0.495233,0 0.950847,0.11093 0.455614,0.11093 0.875571,0.32884 v 1.22421 q -0.423919,-0.28921 -0.835953,-0.42392 -0.412033,-0.1347 -0.867647,-0.1347 -0.816143,0 -1.283643,0.52296 -0.467499,0.52297 -0.467499,1.44212 0,0.91519 0.467499,1.43816 0.4675,0.52296 1.283643,0.52296 0.455614,0 0.867647,-0.1347 0.412034,-0.1347 0.835953,-0.42392 z"
         style="font-weight:bold"
         id="path33763" />
      <path
         d="m 11.949461,173.50152 v 3.60926 h 0.546737 q 0.934999,0 1.42627,-0.46354 0.495232,-0.46354 0.495232,-1.34703 0,-0.87953 -0.49127,-1.33911 -0.491271,-0.45958 -1.430232,-0.45958 z m -1.525316,-1.1529 h 1.608516 q 1.347032,0 2.004701,0.19413 0.66163,0.19017 1.133092,0.64975 0.415995,0.40015 0.61805,0.92311 0.202055,0.52297 0.202055,1.1846 0,0.66955 -0.202055,1.19648 -0.202055,0.52297 -0.61805,0.92311 -0.475423,0.45958 -1.141016,0.65371 -0.665592,0.19017 -1.996777,0.19017 h -1.608516 z"
         style="font-weight:bold"
         id="path33765" />
      <path
         d="m 10.424145,182.49098 h 4.116373 v 1.15291 h -2.591057 v 1.10139 h 2.436544 v 1.1529 h -2.436544 v 1.35496 h 2.678218 v 1.1529 h -4.203534 z"
         style="font-weight:bold"
         id="path33767" />
      <path
         d="m 10.424145,192.63335 h 4.116373 v 1.1529 h -2.591057 v 1.1014 h 2.436544 v 1.1529 h -2.436544 v 2.50785 h -1.525316 z"
         style="font-weight:bold"
         id="path33769" />
      <path
         d="m 15.740962,208.251 q -0.570508,0.27733 -1.184597,0.416 -0.614088,0.13866 -1.267795,0.13866 -1.477774,0 -2.341459,-0.82407 -0.863686,-0.82803 -0.863686,-2.24241 0,-1.43023 0.879533,-2.25034 0.879533,-0.8201 2.408811,-0.8201 0.590317,0 1.12913,0.11093 0.542775,0.11093 1.02216,0.32884 v 1.22421 q -0.495232,-0.28129 -0.986503,-0.41996 -0.487309,-0.13866 -0.978579,-0.13866 -0.911228,0 -1.406461,0.51108 -0.49127,0.50712 -0.49127,1.454 0,0.93896 0.475423,1.45004 0.475423,0.51108 1.350994,0.51108 0.237712,0 0.439767,-0.0277 0.206016,-0.0317 0.368453,-0.0951 v -1.14894 h -0.931037 v -1.02216 h 2.377116 z"
         style="font-weight:bold"
         id="path33771" />
      <path
         d="m 10.424145,212.91807 h 1.525316 v 2.2543 h 2.250337 v -2.2543 h 1.525316 v 5.91506 h -1.525316 v -2.50786 h -2.250337 v 2.50786 h -1.525316 z"
         style="font-weight:bold"
         id="path33773" />
      <path
         d="m 10.424145,223.06043 h 1.525316 v 5.91506 h -1.525316 z"
         style="font-weight:bold"
         id="path33775" />
      <path
         d="m 10.424145,233.2028 h 1.525316 v 5.34058 q 0,1.10536 -0.602202,1.6521 -0.598241,0.54674 -1.8145323,0.54674 H 9.2237016 v -1.15291 h 0.2377117 q 0.4754232,0 0.7170967,-0.26544 0.245635,-0.26545 0.245635,-0.78049 z"
         style="font-weight:bold"
         id="path33777" />
      <path
         d="m 10.424145,243.34516 h 1.525316 v 2.15921 l 2.198833,-2.15921 h 1.770951 l -2.848577,2.80103 3.141755,3.11402 h -1.909617 l -2.353345,-2.32957 v 2.32957 h -1.525316 z"
         style="font-weight:bold"
         id="path33779" />
      <path
         d="m 10.424145,253.48752 h 1.525316 v 4.76216 h 2.678218 v 1.1529 h -4.203534 z"
         style="font-weight:bold"
         id="path33781" />
    </g>
    <g
       aria-label="•—
—•••
—•—•
—••
•
••—•
——•
••••
••
•———
—•—
•—••"
       id="text2166-3"
       style="font-size:8.11389px;line-height:1.25;stroke-width:0.264583">
      <path
         d="m 23.004085,144.31685 q 0,-0.29318 0.103009,-0.5507 0.10697,-0.25752 0.309025,-0.45562 0.209978,-0.20205 0.467499,-0.30506 0.257521,-0.10697 0.546737,-0.10697 0.289216,0 0.546737,0.10697 0.261483,0.10697 0.459576,0.30506 0.206016,0.20602 0.309025,0.46354 0.10697,0.25356 0.10697,0.54278 0,0.29318 -0.10697,0.55466 -0.106971,0.25752 -0.309025,0.45957 -0.202055,0.20206 -0.463538,0.30903 -0.257521,0.10697 -0.550699,0.10697 -0.289215,0 -0.546736,-0.10697 -0.257521,-0.10697 -0.459576,-0.30903 -0.198093,-0.20205 -0.305063,-0.45957 -0.106971,-0.26148 -0.106971,-0.55466 z"
         style="font-weight:bold"
         id="path33784" />
      <path
         d="m 27.457217,144.6021 h 7.24228 v 1.02216 h -7.24228 z"
         style="font-weight:bold"
         id="path33786" />
      <path
         d="m 22.271141,154.74446 h 7.242281 v 1.02216 h -7.242281 z"
         style="font-weight:bold"
         id="path33788" />
      <path
         d="m 31.117975,154.45921 q 0,-0.29318 0.103009,-0.5507 0.10697,-0.25752 0.309025,-0.45561 0.209978,-0.20206 0.467499,-0.30507 0.257521,-0.10697 0.546737,-0.10697 0.289216,0 0.546737,0.10697 0.261482,0.10697 0.459575,0.30507 0.206017,0.20601 0.309025,0.46353 0.106971,0.25356 0.106971,0.54278 0,0.29318 -0.106971,0.55466 -0.10697,0.25752 -0.309025,0.45958 -0.202055,0.20205 -0.463537,0.30902 -0.257521,0.10697 -0.550699,0.10697 -0.289216,0 -0.546737,-0.10697 -0.257521,-0.10697 -0.459575,-0.30902 -0.198093,-0.20206 -0.305064,-0.45958 -0.10697,-0.26148 -0.10697,-0.55466 z"
         style="font-weight:bold"
         id="path33790" />
      <path
         d="m 36.30405,154.45921 q 0,-0.29318 0.103009,-0.5507 0.10697,-0.25752 0.309025,-0.45561 0.209978,-0.20206 0.467499,-0.30507 0.257521,-0.10697 0.546737,-0.10697 0.289216,0 0.546737,0.10697 0.261483,0.10697 0.459576,0.30507 0.206016,0.20601 0.309025,0.46353 0.10697,0.25356 0.10697,0.54278 0,0.29318 -0.10697,0.55466 -0.106971,0.25752 -0.309025,0.45958 -0.202055,0.20205 -0.463538,0.30902 -0.257521,0.10697 -0.550699,0.10697 -0.289215,0 -0.546736,-0.10697 -0.257521,-0.10697 -0.459576,-0.30902 -0.198093,-0.20206 -0.305063,-0.45958 -0.106971,-0.26148 -0.106971,-0.55466 z"
         style="font-weight:bold"
         id="path33792" />
      <path
         d="m 41.490126,154.45921 q 0,-0.29318 0.103008,-0.5507 0.10697,-0.25752 0.309025,-0.45561 0.209979,-0.20206 0.4675,-0.30507 0.25752,-0.10697 0.546736,-0.10697 0.289216,0 0.546737,0.10697 0.261483,0.10697 0.459576,0.30507 0.206016,0.20601 0.309025,0.46353 0.10697,0.25356 0.10697,0.54278 0,0.29318 -0.10697,0.55466 -0.10697,0.25752 -0.309025,0.45958 -0.202055,0.20205 -0.463538,0.30902 -0.257521,0.10697 -0.550698,0.10697 -0.289216,0 -0.546737,-0.10697 -0.257521,-0.10697 -0.459576,-0.30902 -0.198093,-0.20206 -0.305063,-0.45958 -0.10697,-0.26148 -0.10697,-0.55466 z"
         style="font-weight:bold"
         id="path33794" />
      <path
         d="m 22.271141,164.88683 h 7.242281 v 1.02216 h -7.242281 z"
         style="font-weight:bold"
         id="path33796" />
      <path
         d="m 31.117975,164.60157 q 0,-0.29318 0.103009,-0.5507 0.10697,-0.25752 0.309025,-0.45561 0.209978,-0.20206 0.467499,-0.30506 0.257521,-0.10697 0.546737,-0.10697 0.289216,0 0.546737,0.10697 0.261482,0.10697 0.459575,0.30506 0.206017,0.20602 0.309025,0.46354 0.106971,0.25356 0.106971,0.54277 0,0.29318 -0.106971,0.55466 -0.10697,0.25752 -0.309025,0.45958 -0.202055,0.20205 -0.463537,0.30902 -0.257521,0.10697 -0.550699,0.10697 -0.289216,0 -0.546737,-0.10697 -0.257521,-0.10697 -0.459575,-0.30902 -0.198093,-0.20206 -0.305064,-0.45958 -0.10697,-0.26148 -0.10697,-0.55466 z"
         style="font-weight:bold"
         id="path33798" />
      <path
         d="m 35.571106,164.88683 h 7.242281 v 1.02216 h -7.242281 z"
         style="font-weight:bold"
         id="path33800" />
      <path
         d="m 44.41794,164.60157 q 0,-0.29318 0.103008,-0.5507 0.106971,-0.25752 0.309026,-0.45561 0.209978,-0.20206 0.467499,-0.30506 0.257521,-0.10697 0.546737,-0.10697 0.289216,0 0.546736,0.10697 0.261483,0.10697 0.459576,0.30506 0.206017,0.20602 0.309025,0.46354 0.106971,0.25356 0.106971,0.54277 0,0.29318 -0.106971,0.55466 -0.10697,0.25752 -0.309025,0.45958 -0.202055,0.20205 -0.463537,0.30902 -0.257521,0.10697 -0.550699,0.10697 -0.289216,0 -0.546737,-0.10697 -0.257521,-0.10697 -0.459575,-0.30902 -0.198094,-0.20206 -0.305064,-0.45958 -0.10697,-0.26148 -0.10697,-0.55466 z"
         style="font-weight:bold"
         id="path33802" />
      <path
         d="m 22.271141,175.02919 h 7.242281 v 1.02216 h -7.242281 z"
         style="font-weight:bold"
         id="path33804" />
      <path
         d="m 31.117975,174.74393 q 0,-0.29317 0.103009,-0.55069 0.10697,-0.25753 0.309025,-0.45562 0.209978,-0.20205 0.467499,-0.30506 0.257521,-0.10697 0.546737,-0.10697 0.289216,0 0.546737,0.10697 0.261482,0.10697 0.459575,0.30506 0.206017,0.20602 0.309025,0.46354 0.106971,0.25356 0.106971,0.54277 0,0.29318 -0.106971,0.55466 -0.10697,0.25753 -0.309025,0.45958 -0.202055,0.20205 -0.463537,0.30903 -0.257521,0.10697 -0.550699,0.10697 -0.289216,0 -0.546737,-0.10697 -0.257521,-0.10698 -0.459575,-0.30903 -0.198093,-0.20205 -0.305064,-0.45958 -0.10697,-0.26148 -0.10697,-0.55466 z"
         style="font-weight:bold"
         id="path33806" />
      <path
         d="m 36.30405,174.74393 q 0,-0.29317 0.103009,-0.55069 0.10697,-0.25753 0.309025,-0.45562 0.209978,-0.20205 0.467499,-0.30506 0.257521,-0.10697 0.546737,-0.10697 0.289216,0 0.546737,0.10697 0.261483,0.10697 0.459576,0.30506 0.206016,0.20602 0.309025,0.46354 0.10697,0.25356 0.10697,0.54277 0,0.29318 -0.10697,0.55466 -0.106971,0.25753 -0.309025,0.45958 -0.202055,0.20205 -0.463538,0.30903 -0.257521,0.10697 -0.550699,0.10697 -0.289215,0 -0.546736,-0.10697 -0.257521,-0.10698 -0.459576,-0.30903 -0.198093,-0.20205 -0.305063,-0.45958 -0.106971,-0.26148 -0.106971,-0.55466 z"
         style="font-weight:bold"
         id="path33808" />
      <path
         d="m 23.004085,184.8863 q 0,-0.29318 0.103009,-0.5507 0.10697,-0.25752 0.309025,-0.45562 0.209978,-0.20205 0.467499,-0.30506 0.257521,-0.10697 0.546737,-0.10697 0.289216,0 0.546737,0.10697 0.261483,0.10697 0.459576,0.30506 0.206016,0.20602 0.309025,0.46354 0.10697,0.25356 0.10697,0.54278 0,0.29317 -0.10697,0.55466 -0.106971,0.25752 -0.309025,0.45957 -0.202055,0.20206 -0.463538,0.30903 -0.257521,0.10697 -0.550699,0.10697 -0.289215,0 -0.546736,-0.10697 -0.257521,-0.10697 -0.459576,-0.30903 -0.198093,-0.20205 -0.305063,-0.45957 -0.106971,-0.26149 -0.106971,-0.55466 z"
         style="font-weight:bold"
         id="path33810" />
      <path
         d="m 23.004085,195.02866 q 0,-0.29318 0.103009,-0.5507 0.10697,-0.25752 0.309025,-0.45561 0.209978,-0.20206 0.467499,-0.30507 0.257521,-0.10697 0.546737,-0.10697 0.289216,0 0.546737,0.10697 0.261483,0.10697 0.459576,0.30507 0.206016,0.20601 0.309025,0.46353 0.10697,0.25356 0.10697,0.54278 0,0.29318 -0.10697,0.55466 -0.106971,0.25752 -0.309025,0.45957 -0.202055,0.20206 -0.463538,0.30903 -0.257521,0.10697 -0.550699,0.10697 -0.289215,0 -0.546736,-0.10697 -0.257521,-0.10697 -0.459576,-0.30903 -0.198093,-0.20205 -0.305063,-0.45957 -0.106971,-0.26148 -0.106971,-0.55466 z"
         style="font-weight:bold"
         id="path33812" />
      <path
         d="m 28.190161,195.02866 q 0,-0.29318 0.103008,-0.5507 0.10697,-0.25752 0.309025,-0.45561 0.209979,-0.20206 0.4675,-0.30507 0.257521,-0.10697 0.546736,-0.10697 0.289216,0 0.546737,0.10697 0.261483,0.10697 0.459576,0.30507 0.206017,0.20601 0.309025,0.46353 0.10697,0.25356 0.10697,0.54278 0,0.29318 -0.10697,0.55466 -0.10697,0.25752 -0.309025,0.45957 -0.202055,0.20206 -0.463538,0.30903 -0.257521,0.10697 -0.550698,0.10697 -0.289216,0 -0.546737,-0.10697 -0.257521,-0.10697 -0.459576,-0.30903 -0.198093,-0.20205 -0.305063,-0.45957 -0.10697,-0.26148 -0.10697,-0.55466 z"
         style="font-weight:bold"
         id="path33814" />
      <path
         d="m 32.643292,195.31391 h 7.24228 v 1.02216 h -7.24228 z"
         style="font-weight:bold"
         id="path33816" />
      <path
         d="m 41.490126,195.02866 q 0,-0.29318 0.103008,-0.5507 0.10697,-0.25752 0.309025,-0.45561 0.209979,-0.20206 0.4675,-0.30507 0.25752,-0.10697 0.546736,-0.10697 0.289216,0 0.546737,0.10697 0.261483,0.10697 0.459576,0.30507 0.206016,0.20601 0.309025,0.46353 0.10697,0.25356 0.10697,0.54278 0,0.29318 -0.10697,0.55466 -0.10697,0.25752 -0.309025,0.45957 -0.202055,0.20206 -0.463538,0.30903 -0.257521,0.10697 -0.550698,0.10697 -0.289216,0 -0.546737,-0.10697 -0.257521,-0.10697 -0.459576,-0.30903 -0.198093,-0.20205 -0.305063,-0.45957 -0.10697,-0.26148 -0.10697,-0.55466 z"
         style="font-weight:bold"
         id="path33818" />
      <path
         d="m 22.271141,205.45627 h 7.242281 v 1.02216 h -7.242281 z"
         style="font-weight:bold"
         id="path33820" />
      <path
         d="m 30.385031,205.45627 h 7.24228 v 1.02216 h -7.24228 z"
         style="font-weight:bold"
         id="path33822" />
      <path
         d="m 39.231865,205.17102 q 0,-0.29318 0.103008,-0.5507 0.10697,-0.25752 0.309025,-0.45561 0.209979,-0.20206 0.4675,-0.30507 0.257521,-0.10697 0.546737,-0.10697 0.289215,0 0.546736,0.10697 0.261483,0.10697 0.459576,0.30507 0.206017,0.20601 0.309025,0.46354 0.10697,0.25355 0.10697,0.54277 0,0.29318 -0.10697,0.55466 -0.10697,0.25752 -0.309025,0.45958 -0.202055,0.20205 -0.463538,0.30902 -0.257521,0.10697 -0.550698,0.10697 -0.289216,0 -0.546737,-0.10697 -0.257521,-0.10697 -0.459576,-0.30902 -0.198093,-0.20206 -0.305063,-0.45958 -0.10697,-0.26148 -0.10697,-0.55466 z"
         style="font-weight:bold"
         id="path33824" />
      <path
         d="m 23.004085,215.31338 q 0,-0.29318 0.103009,-0.5507 0.10697,-0.25752 0.309025,-0.45561 0.209978,-0.20206 0.467499,-0.30506 0.257521,-0.10697 0.546737,-0.10697 0.289216,0 0.546737,0.10697 0.261483,0.10697 0.459576,0.30506 0.206016,0.20602 0.309025,0.46354 0.10697,0.25356 0.10697,0.54277 0,0.29318 -0.10697,0.55466 -0.106971,0.25752 -0.309025,0.45958 -0.202055,0.20205 -0.463538,0.30902 -0.257521,0.10697 -0.550699,0.10697 -0.289215,0 -0.546736,-0.10697 -0.257521,-0.10697 -0.459576,-0.30902 -0.198093,-0.20206 -0.305063,-0.45958 -0.106971,-0.26148 -0.106971,-0.55466 z"
         style="font-weight:bold"
         id="path33826" />
      <path
         d="m 28.190161,215.31338 q 0,-0.29318 0.103008,-0.5507 0.10697,-0.25752 0.309025,-0.45561 0.209979,-0.20206 0.4675,-0.30506 0.257521,-0.10697 0.546736,-0.10697 0.289216,0 0.546737,0.10697 0.261483,0.10697 0.459576,0.30506 0.206017,0.20602 0.309025,0.46354 0.10697,0.25356 0.10697,0.54277 0,0.29318 -0.10697,0.55466 -0.10697,0.25752 -0.309025,0.45958 -0.202055,0.20205 -0.463538,0.30902 -0.257521,0.10697 -0.550698,0.10697 -0.289216,0 -0.546737,-0.10697 -0.257521,-0.10697 -0.459576,-0.30902 -0.198093,-0.20206 -0.305063,-0.45958 -0.10697,-0.26148 -0.10697,-0.55466 z"
         style="font-weight:bold"
         id="path33828" />
      <path
         d="m 33.376236,215.31338 q 0,-0.29318 0.103008,-0.5507 0.10697,-0.25752 0.309025,-0.45561 0.209979,-0.20206 0.4675,-0.30506 0.257521,-0.10697 0.546737,-0.10697 0.289215,0 0.546736,0.10697 0.261483,0.10697 0.459576,0.30506 0.206017,0.20602 0.309025,0.46354 0.10697,0.25356 0.10697,0.54277 0,0.29318 -0.10697,0.55466 -0.10697,0.25752 -0.309025,0.45958 -0.202055,0.20205 -0.463538,0.30902 -0.257521,0.10697 -0.550698,0.10697 -0.289216,0 -0.546737,-0.10697 -0.257521,-0.10697 -0.459576,-0.30902 -0.198093,-0.20206 -0.305063,-0.45958 -0.10697,-0.26148 -0.10697,-0.55466 z"
         style="font-weight:bold"
         id="path33830" />
      <path
         d="m 38.562311,215.31338 q 0,-0.29318 0.103008,-0.5507 0.106971,-0.25752 0.309026,-0.45561 0.209978,-0.20206 0.467499,-0.30506 0.257521,-0.10697 0.546737,-0.10697 0.289216,0 0.546736,0.10697 0.261483,0.10697 0.459576,0.30506 0.206017,0.20602 0.309025,0.46354 0.106971,0.25356 0.106971,0.54277 0,0.29318 -0.106971,0.55466 -0.10697,0.25752 -0.309025,0.45958 -0.202055,0.20205 -0.463537,0.30902 -0.257521,0.10697 -0.550699,0.10697 -0.289216,0 -0.546737,-0.10697 -0.257521,-0.10697 -0.459575,-0.30902 -0.198093,-0.20206 -0.305064,-0.45958 -0.10697,-0.26148 -0.10697,-0.55466 z"
         style="font-weight:bold"
         id="path33832" />
      <path
         d="m 23.004085,225.45574 q 0,-0.29317 0.103009,-0.55069 0.10697,-0.25753 0.309025,-0.45562 0.209978,-0.20205 0.467499,-0.30506 0.257521,-0.10697 0.546737,-0.10697 0.289216,0 0.546737,0.10697 0.261483,0.10697 0.459576,0.30506 0.206016,0.20602 0.309025,0.46354 0.10697,0.25356 0.10697,0.54277 0,0.29318 -0.10697,0.55466 -0.106971,0.25753 -0.309025,0.45958 -0.202055,0.20206 -0.463538,0.30903 -0.257521,0.10697 -0.550699,0.10697 -0.289215,0 -0.546736,-0.10697 -0.257521,-0.10697 -0.459576,-0.30903 -0.198093,-0.20205 -0.305063,-0.45958 -0.106971,-0.26148 -0.106971,-0.55466 z"
         style="font-weight:bold"
         id="path33834" />
      <path
         d="m 28.190161,225.45574 q 0,-0.29317 0.103008,-0.55069 0.10697,-0.25753 0.309025,-0.45562 0.209979,-0.20205 0.4675,-0.30506 0.257521,-0.10697 0.546736,-0.10697 0.289216,0 0.546737,0.10697 0.261483,0.10697 0.459576,0.30506 0.206017,0.20602 0.309025,0.46354 0.10697,0.25356 0.10697,0.54277 0,0.29318 -0.10697,0.55466 -0.10697,0.25753 -0.309025,0.45958 -0.202055,0.20206 -0.463538,0.30903 -0.257521,0.10697 -0.550698,0.10697 -0.289216,0 -0.546737,-0.10697 -0.257521,-0.10697 -0.459576,-0.30903 -0.198093,-0.20205 -0.305063,-0.45958 -0.10697,-0.26148 -0.10697,-0.55466 z"
         style="font-weight:bold"
         id="path33836" />
      <path
         d="m 23.004085,235.59811 q 0,-0.29318 0.103009,-0.5507 0.10697,-0.25752 0.309025,-0.45562 0.209978,-0.20205 0.467499,-0.30506 0.257521,-0.10697 0.546737,-0.10697 0.289216,0 0.546737,0.10697 0.261483,0.10697 0.459576,0.30506 0.206016,0.20602 0.309025,0.46354 0.10697,0.25356 0.10697,0.54278 0,0.29317 -0.10697,0.55466 -0.106971,0.25752 -0.309025,0.45957 -0.202055,0.20206 -0.463538,0.30903 -0.257521,0.10697 -0.550699,0.10697 -0.289215,0 -0.546736,-0.10697 -0.257521,-0.10697 -0.459576,-0.30903 -0.198093,-0.20205 -0.305063,-0.45957 -0.106971,-0.26149 -0.106971,-0.55466 z"
         style="font-weight:bold"
         id="path33838" />
      <path
         d="m 27.457217,235.88336 h 7.24228 v 1.02216 h -7.24228 z"
         style="font-weight:bold"
         id="path33840" />
      <path
         d="m 35.571106,235.88336 h 7.242281 v 1.02216 h -7.242281 z"
         style="font-weight:bold"
         id="path33842" />
      <path
         d="m 43.684996,235.88336 h 7.24228 v 1.02216 h -7.24228 z"
         style="font-weight:bold"
         id="path33844" />
      <path
         d="m 22.271141,246.02572 h 7.242281 v 1.02216 h -7.242281 z"
         style="font-weight:bold"
         id="path33846" />
      <path
         d="m 31.117975,245.74047 q 0,-0.29318 0.103009,-0.5507 0.10697,-0.25752 0.309025,-0.45561 0.209978,-0.20206 0.467499,-0.30507 0.257521,-0.10697 0.546737,-0.10697 0.289216,0 0.546737,0.10697 0.261482,0.10697 0.459575,0.30507 0.206017,0.20601 0.309025,0.46353 0.106971,0.25356 0.106971,0.54278 0,0.29318 -0.106971,0.55466 -0.10697,0.25752 -0.309025,0.45957 -0.202055,0.20206 -0.463537,0.30903 -0.257521,0.10697 -0.550699,0.10697 -0.289216,0 -0.546737,-0.10697 -0.257521,-0.10697 -0.459575,-0.30903 -0.198093,-0.20205 -0.305064,-0.45957 -0.10697,-0.26148 -0.10697,-0.55466 z"
         style="font-weight:bold"
         id="path33848" />
      <path
         d="m 35.571106,246.02572 h 7.242281 v 1.02216 h -7.242281 z"
         style="font-weight:bold"
         id="path33850" />
      <path
         d="m 23.004085,255.88283 q 0,-0.29318 0.103009,-0.5507 0.10697,-0.25752 0.309025,-0.45561 0.209978,-0.20206 0.467499,-0.30506 0.257521,-0.10698 0.546737,-0.10698 0.289216,0 0.546737,0.10698 0.261483,0.10697 0.459576,0.30506 0.206016,0.20601 0.309025,0.46354 0.10697,0.25355 0.10697,0.54277 0,0.29318 -0.10697,0.55466 -0.106971,0.25752 -0.309025,0.45958 -0.202055,0.20205 -0.463538,0.30902 -0.257521,0.10697 -0.550699,0.10697 -0.289215,0 -0.546736,-0.10697 -0.257521,-0.10697 -0.459576,-0.30902 -0.198093,-0.20206 -0.305063,-0.45958 -0.106971,-0.26148 -0.106971,-0.55466 z"
         style="font-weight:bold"
         id="path33852" />
      <path
         d="m 27.457217,256.16808 h 7.24228 v 1.02216 h -7.24228 z"
         style="font-weight:bold"
         id="path33854" />
      <path
         d="m 36.30405,255.88283 q 0,-0.29318 0.103009,-0.5507 0.10697,-0.25752 0.309025,-0.45561 0.209978,-0.20206 0.467499,-0.30506 0.257521,-0.10698 0.546737,-0.10698 0.289216,0 0.546737,0.10698 0.261483,0.10697 0.459576,0.30506 0.206016,0.20601 0.309025,0.46354 0.10697,0.25355 0.10697,0.54277 0,0.29318 -0.10697,0.55466 -0.106971,0.25752 -0.309025,0.45958 -0.202055,0.20205 -0.463538,0.30902 -0.257521,0.10697 -0.550699,0.10697 -0.289215,0 -0.546736,-0.10697 -0.257521,-0.10697 -0.459576,-0.30902 -0.198093,-0.20206 -0.305063,-0.45958 -0.106971,-0.26148 -0.106971,-0.55466 z"
         style="font-weight:bold"
         id="path33856" />
      <path
         d="m 41.490126,255.88283 q 0,-0.29318 0.103008,-0.5507 0.10697,-0.25752 0.309025,-0.45561 0.209979,-0.20206 0.4675,-0.30506 0.25752,-0.10698 0.546736,-0.10698 0.289216,0 0.546737,0.10698 0.261483,0.10697 0.459576,0.30506 0.206016,0.20601 0.309025,0.46354 0.10697,0.25355 0.10697,0.54277 0,0.29318 -0.10697,0.55466 -0.10697,0.25752 -0.309025,0.45958 -0.202055,0.20205 -0.463538,0.30902 -0.257521,0.10697 -0.550698,0.10697 -0.289216,0 -0.546737,-0.10697 -0.257521,-0.10697 -0.459576,-0.30902 -0.198093,-0.20206 -0.305063,-0.45958 -0.10697,-0.26148 -0.10697,-0.55466 z"
         style="font-weight:bold"
         id="path33858" />
    </g>
    <g
       aria-label="M
N
O
P
Q
R
S
T
U
V
W
X"
       id="text2166-4"
       style="font-size:8.11389px;line-height:1.25;stroke-width:0.264583">
      <path
         d="m 79.511103,141.58767 h 1.941312 l 1.347032,3.16553 1.354956,-3.16553 h 1.93735 v 5.91506 h -1.442117 v -4.32635 l -1.36288,3.1893 h -0.966694 l -1.36288,-3.1893 v 4.32635 h -1.446079 z"
         style="font-weight:bold"
         id="path33861" />
      <path
         d="m 79.511103,151.73004 h 1.7036 l 2.15129,4.05694 v -4.05694 h 1.446079 v 5.91505 h -1.7036 l -2.15129,-4.05694 v 4.05694 h -1.446079 z"
         style="font-weight:bold"
         id="path33863" />
      <path
         d="m 82.213092,162.87079 q -0.697288,0 -1.081588,0.51504 -0.3843,0.51504 -0.3843,1.45004 0,0.93104 0.3843,1.44608 0.3843,0.51504 1.081588,0.51504 0.701249,0 1.08555,-0.51504 0.3843,-0.51504 0.3843,-1.44608 0,-0.935 -0.3843,-1.45004 -0.384301,-0.51504 -1.08555,-0.51504 z m 0,-1.10536 q 1.42627,0 2.234489,0.81614 0.80822,0.81614 0.80822,2.2543 0,1.43419 -0.80822,2.25034 -0.808219,0.81614 -2.234489,0.81614 -1.422308,0 -2.234489,-0.81614 -0.80822,-0.81615 -0.80822,-2.25034 0,-1.43816 0.80822,-2.2543 0.812181,-0.81614 2.234489,-0.81614 z"
         style="font-weight:bold"
         id="path33865" />
      <path
         d="m 79.511103,172.01476 h 2.531629 q 1.12913,0 1.731333,0.50316 0.606164,0.49919 0.606164,1.42627 0,0.93103 -0.606164,1.43419 -0.602203,0.49919 -1.731333,0.49919 h -1.006313 v 2.05225 h -1.525316 z m 1.525316,1.10536 v 1.6521 h 0.843877 q 0.443728,0 0.685401,-0.21395 0.241674,-0.2179 0.241674,-0.61408 0,-0.39619 -0.241674,-0.61013 -0.241673,-0.21394 -0.685401,-0.21394 z"
         style="font-weight:bold"
         id="path33867" />
      <path
         d="m 82.375528,188.17915 h -0.118856 q -1.461926,0 -2.274107,-0.80822 -0.812182,-0.80822 -0.812182,-2.25034 0,-1.43815 0.80822,-2.25429 0.812181,-0.81615 2.234489,-0.81615 1.438155,0 2.238451,0.80822 0.804258,0.80822 0.804258,2.26222 0,0.99839 -0.427881,1.71945 -0.423919,0.72106 -1.224215,1.08555 l 1.19252,1.33119 h -1.454003 z m -0.162436,-5.02364 q -0.697288,0 -1.081588,0.51504 -0.3843,0.51504 -0.3843,1.45004 0,0.95085 0.376376,1.45797 0.376377,0.50315 1.089512,0.50315 0.701249,0 1.08555,-0.51504 0.3843,-0.51504 0.3843,-1.44608 0,-0.935 -0.3843,-1.45004 -0.384301,-0.51504 -1.08555,-0.51504 z"
         style="font-weight:bold"
         id="path33869" />
      <path
         d="m 81.678241,194.92224 q 0.479385,0 0.685402,-0.17829 0.209978,-0.17828 0.209978,-0.58635 0,-0.40411 -0.209978,-0.57843 -0.206017,-0.17433 -0.685402,-0.17433 h -0.641822 v 1.5174 z m -0.641822,1.05385 v 2.23845 h -1.525316 v -5.91506 h 2.329574 q 1.168749,0 1.711524,0.39223 0.546736,0.39222 0.546736,1.24006 0,0.58636 -0.285254,0.96273 -0.281292,0.37638 -0.8518,0.55466 0.312987,0.0713 0.558623,0.32488 0.249597,0.24959 0.503156,0.76067 l 0.828029,1.67983 h -1.624363 l -0.721058,-1.46985 q -0.217903,-0.44373 -0.443729,-0.60616 -0.221864,-0.16244 -0.594279,-0.16244 z"
         style="font-weight:bold"
         id="path33871" />
      <path
         d="M 83.627476,202.62805 V 203.88 q -0.487309,-0.2179 -0.950846,-0.32883 -0.463538,-0.11093 -0.875572,-0.11093 -0.546736,0 -0.808219,0.15055 -0.261483,0.15055 -0.261483,0.4675 0,0.23771 0.174322,0.37241 0.178284,0.13074 0.641821,0.22583 l 0.649745,0.13074 q 0.986504,0.19809 1.402499,0.6022 0.415995,0.40411 0.415995,1.14894 0,0.97858 -0.582393,1.45796 -0.578432,0.47543 -1.770952,0.47543 -0.562584,0 -1.12913,-0.10697 -0.566546,-0.10697 -1.133092,-0.31695 v -1.28761 q 0.566546,0.30111 1.093474,0.45562 0.530889,0.15055 1.022159,0.15055 0.499195,0 0.764639,-0.1664 0.265445,-0.1664 0.265445,-0.47542 0,-0.27733 -0.182245,-0.42788 -0.178284,-0.15055 -0.717097,-0.26941 l -0.590317,-0.13074 q -0.887457,-0.19017 -1.29949,-0.60617 -0.408072,-0.41599 -0.408072,-1.1212 0,-0.8835 0.570508,-1.35892 0.570508,-0.47542 1.64021,-0.47542 0.487309,0 1.002351,0.0753 0.515041,0.0713 1.06574,0.2179 z"
         style="font-weight:bold"
         id="path33873" />
      <path
         d="m 78.805892,212.58421 h 5.45152 v 1.1529 h -1.961121 v 4.76216 h -1.525316 v -4.76216 h -1.965083 z"
         style="font-weight:bold"
         id="path33875" />
      <path
         d="m 79.511103,222.72657 h 1.525316 v 3.54587 q 0,0.73294 0.237712,1.04989 0.241673,0.31299 0.784448,0.31299 0.546737,0 0.784449,-0.31299 0.241673,-0.31695 0.241673,-1.04989 v -3.54587 h 1.525316 v 3.54587 q 0,1.25591 -0.629935,1.86999 -0.629936,0.61409 -1.921503,0.61409 -1.287604,0 -1.91754,-0.61409 -0.629936,-0.61408 -0.629936,-1.86999 z"
         style="font-weight:bold"
         id="path33877" />
      <path
         d="m 78.805892,232.86893 h 1.53324 l 1.568897,4.36597 1.564934,-4.36597 h 1.53324 l -2.190908,5.91506 h -1.818494 z"
         style="font-weight:bold"
         id="path33879" />
      <path
         d="m 79.007947,243.0113 h 1.461926 l 1.02216,4.29861 1.014237,-4.29861 h 1.46985 l 1.014236,4.29861 1.02216,-4.29861 h 1.450041 l -1.394575,5.91505 h -1.759066 l -1.073664,-4.49671 -1.061779,4.49671 h -1.759066 z"
         style="font-weight:bold"
         id="path33881" />
      <path
         d="m 82.807371,256.04978 2.052243,3.01893 h -1.588705 l -1.38269,-2.02054 -1.370803,2.02054 h -1.59663 l 2.052244,-3.01893 -1.973007,-2.89612 h 1.592668 l 1.295528,1.90565 1.291567,-1.90565 h 1.600591 z"
         style="font-weight:bold"
         id="path33883" />
    </g>
    <g
       aria-label="——
—•
———
•——•
——•—
•—•
•••
—
••—
•••—
•——
—••—"
       id="text2166-3-0"
       style="font-size:8.11389px;line-height:1.25;stroke-width:0.264583">
      <path
         d="m 91.358099,144.26824 h 7.242281 v 1.02216 h -7.242281 z"
         style="font-weight:bold"
         id="path33886" />
      <path
         d="m 99.471989,144.26824 h 7.242281 v 1.02216 h -7.242281 z"
         style="font-weight:bold"
         id="path33888" />
      <path
         d="m 91.358099,154.4106 h 7.242281 v 1.02216 h -7.242281 z"
         style="font-weight:bold"
         id="path33890" />
      <path
         d="m 100.20493,154.12535 q 0,-0.29318 0.10301,-0.5507 0.10697,-0.25752 0.30903,-0.45562 0.20998,-0.20205 0.4675,-0.30506 0.25752,-0.10697 0.54673,-0.10697 0.28922,0 0.54674,0.10697 0.26148,0.10697 0.45958,0.30506 0.20601,0.20602 0.30902,0.46354 0.10697,0.25356 0.10697,0.54278 0,0.29317 -0.10697,0.55466 -0.10697,0.25752 -0.30902,0.45957 -0.20206,0.20206 -0.46354,0.30903 -0.25752,0.10697 -0.5507,0.10697 -0.28922,0 -0.54674,-0.10697 -0.25752,-0.10697 -0.45957,-0.30903 -0.1981,-0.20205 -0.30507,-0.45957 -0.10697,-0.26149 -0.10697,-0.55466 z"
         style="font-weight:bold"
         id="path33892" />
      <path
         d="m 91.358099,164.55296 h 7.242281 v 1.02216 h -7.242281 z"
         style="font-weight:bold"
         id="path33894" />
      <path
         d="m 99.471989,164.55296 h 7.242281 v 1.02216 h -7.242281 z"
         style="font-weight:bold"
         id="path33896" />
      <path
         d="m 107.58588,164.55296 h 7.24228 v 1.02216 h -7.24228 z"
         style="font-weight:bold"
         id="path33898" />
      <path
         d="m 92.091043,174.41007 q 0,-0.29318 0.103009,-0.5507 0.10697,-0.25752 0.309025,-0.45561 0.209978,-0.20206 0.467499,-0.30506 0.257521,-0.10697 0.546737,-0.10697 0.289216,0 0.546737,0.10697 0.261483,0.10697 0.459576,0.30506 0.206016,0.20602 0.309025,0.46354 0.10697,0.25356 0.10697,0.54277 0,0.29318 -0.10697,0.55466 -0.106971,0.25752 -0.309025,0.45958 -0.202055,0.20205 -0.463538,0.30902 -0.257521,0.10697 -0.550699,0.10697 -0.289215,0 -0.546736,-0.10697 -0.257521,-0.10697 -0.459576,-0.30902 -0.198093,-0.20206 -0.305063,-0.45958 -0.106971,-0.26148 -0.106971,-0.55466 z"
         style="font-weight:bold"
         id="path33900" />
      <path
         d="m 96.544174,174.69533 h 7.242276 v 1.02216 h -7.242276 z"
         style="font-weight:bold"
         id="path33902" />
      <path
         d="m 104.65806,174.69533 h 7.24228 v 1.02216 h -7.24228 z"
         style="font-weight:bold"
         id="path33904" />
      <path
         d="m 113.5049,174.41007 q 0,-0.29318 0.10301,-0.5507 0.10697,-0.25752 0.30902,-0.45561 0.20998,-0.20206 0.4675,-0.30506 0.25752,-0.10697 0.54674,-0.10697 0.28921,0 0.54673,0.10697 0.26149,0.10697 0.45958,0.30506 0.20602,0.20602 0.30903,0.46354 0.10697,0.25356 0.10697,0.54277 0,0.29318 -0.10697,0.55466 -0.10697,0.25752 -0.30903,0.45958 -0.20205,0.20205 -0.46354,0.30902 -0.25752,0.10697 -0.5507,0.10697 -0.28921,0 -0.54673,-0.10697 -0.25752,-0.10697 -0.45958,-0.30902 -0.19809,-0.20206 -0.30506,-0.45958 -0.10697,-0.26148 -0.10697,-0.55466 z"
         style="font-weight:bold"
         id="path33906" />
      <path
         d="m 91.358099,184.83769 h 7.242281 v 1.02216 h -7.242281 z"
         style="font-weight:bold"
         id="path33908" />
      <path
         d="m 99.471989,184.83769 h 7.242281 v 1.02216 h -7.242281 z"
         style="font-weight:bold"
         id="path33910" />
      <path
         d="m 108.31882,184.55243 q 0,-0.29317 0.10301,-0.55069 0.10697,-0.25753 0.30903,-0.45562 0.20997,-0.20205 0.4675,-0.30506 0.25752,-0.10697 0.54673,-0.10697 0.28922,0 0.54674,0.10697 0.26148,0.10697 0.45957,0.30506 0.20602,0.20602 0.30903,0.46354 0.10697,0.25356 0.10697,0.54277 0,0.29318 -0.10697,0.55466 -0.10697,0.25752 -0.30903,0.45958 -0.20205,0.20205 -0.46353,0.30902 -0.25752,0.10698 -0.5507,0.10698 -0.28922,0 -0.54674,-0.10698 -0.25752,-0.10697 -0.45957,-0.30902 -0.1981,-0.20206 -0.30507,-0.45958 -0.10697,-0.26148 -0.10697,-0.55466 z"
         style="font-weight:bold"
         id="path33912" />
      <path
         d="m 112.77195,184.83769 h 7.24228 v 1.02216 h -7.24228 z"
         style="font-weight:bold"
         id="path33914" />
      <path
         d="m 92.091043,194.6948 q 0,-0.29318 0.103009,-0.5507 0.10697,-0.25752 0.309025,-0.45562 0.209978,-0.20205 0.467499,-0.30506 0.257521,-0.10697 0.546737,-0.10697 0.289216,0 0.546737,0.10697 0.261483,0.10697 0.459576,0.30506 0.206016,0.20602 0.309025,0.46354 0.10697,0.25356 0.10697,0.54278 0,0.29317 -0.10697,0.55466 -0.106971,0.25752 -0.309025,0.45957 -0.202055,0.20206 -0.463538,0.30903 -0.257521,0.10697 -0.550699,0.10697 -0.289215,0 -0.546736,-0.10697 -0.257521,-0.10697 -0.459576,-0.30903 -0.198093,-0.20205 -0.305063,-0.45957 -0.106971,-0.26149 -0.106971,-0.55466 z"
         style="font-weight:bold"
         id="path33916" />
      <path
         d="m 96.544174,194.98005 h 7.242276 v 1.02216 h -7.242276 z"
         style="font-weight:bold"
         id="path33918" />
      <path
         d="m 105.39101,194.6948 q 0,-0.29318 0.10301,-0.5507 0.10697,-0.25752 0.30902,-0.45562 0.20998,-0.20205 0.4675,-0.30506 0.25752,-0.10697 0.54674,-0.10697 0.28921,0 0.54673,0.10697 0.26149,0.10697 0.45958,0.30506 0.20602,0.20602 0.30903,0.46354 0.10697,0.25356 0.10697,0.54278 0,0.29317 -0.10697,0.55466 -0.10697,0.25752 -0.30903,0.45957 -0.20205,0.20206 -0.46354,0.30903 -0.25752,0.10697 -0.5507,0.10697 -0.28921,0 -0.54673,-0.10697 -0.25752,-0.10697 -0.45958,-0.30903 -0.19809,-0.20205 -0.30506,-0.45957 -0.10697,-0.26149 -0.10697,-0.55466 z"
         style="font-weight:bold"
         id="path33920" />
      <path
         d="m 92.091043,204.83716 q 0,-0.29318 0.103009,-0.5507 0.10697,-0.25752 0.309025,-0.45561 0.209978,-0.20206 0.467499,-0.30507 0.257521,-0.10697 0.546737,-0.10697 0.289216,0 0.546737,0.10697 0.261483,0.10697 0.459576,0.30507 0.206016,0.20601 0.309025,0.46353 0.10697,0.25356 0.10697,0.54278 0,0.29318 -0.10697,0.55466 -0.106971,0.25752 -0.309025,0.45957 -0.202055,0.20206 -0.463538,0.30903 -0.257521,0.10697 -0.550699,0.10697 -0.289215,0 -0.546736,-0.10697 -0.257521,-0.10697 -0.459576,-0.30903 -0.198093,-0.20205 -0.305063,-0.45957 -0.106971,-0.26148 -0.106971,-0.55466 z"
         style="font-weight:bold"
         id="path33922" />
      <path
         d="m 97.277119,204.83716 q 0,-0.29318 0.103008,-0.5507 0.10697,-0.25752 0.309025,-0.45561 0.209979,-0.20206 0.4675,-0.30507 0.25752,-0.10697 0.546736,-0.10697 0.289216,0 0.546737,0.10697 0.261483,0.10697 0.459576,0.30507 0.206016,0.20601 0.309029,0.46353 0.10697,0.25356 0.10697,0.54278 0,0.29318 -0.10697,0.55466 -0.106974,0.25752 -0.309029,0.45957 -0.202055,0.20206 -0.463538,0.30903 -0.257521,0.10697 -0.550698,0.10697 -0.289216,0 -0.546737,-0.10697 -0.257521,-0.10697 -0.459576,-0.30903 -0.198093,-0.20205 -0.305063,-0.45957 -0.10697,-0.26148 -0.10697,-0.55466 z"
         style="font-weight:bold"
         id="path33924" />
      <path
         d="m 102.46319,204.83716 q 0,-0.29318 0.10301,-0.5507 0.10697,-0.25752 0.30903,-0.45561 0.20998,-0.20206 0.4675,-0.30507 0.25752,-0.10697 0.54673,-0.10697 0.28922,0 0.54674,0.10697 0.26148,0.10697 0.45958,0.30507 0.20601,0.20601 0.30902,0.46353 0.10697,0.25356 0.10697,0.54278 0,0.29318 -0.10697,0.55466 -0.10697,0.25752 -0.30902,0.45957 -0.20206,0.20206 -0.46354,0.30903 -0.25752,0.10697 -0.5507,0.10697 -0.28922,0 -0.54674,-0.10697 -0.25752,-0.10697 -0.45957,-0.30903 -0.1981,-0.20205 -0.30507,-0.45957 -0.10697,-0.26148 -0.10697,-0.55466 z"
         style="font-weight:bold"
         id="path33926" />
      <path
         d="m 91.358099,215.26477 h 7.242281 v 1.02216 h -7.242281 z"
         style="font-weight:bold"
         id="path33928" />
      <path
         d="m 92.091043,225.12188 q 0,-0.29318 0.103009,-0.5507 0.10697,-0.25752 0.309025,-0.45561 0.209978,-0.20206 0.467499,-0.30506 0.257521,-0.10697 0.546737,-0.10697 0.289216,0 0.546737,0.10697 0.261483,0.10697 0.459576,0.30506 0.206016,0.20602 0.309025,0.46354 0.10697,0.25356 0.10697,0.54277 0,0.29318 -0.10697,0.55466 -0.106971,0.25752 -0.309025,0.45958 -0.202055,0.20205 -0.463538,0.30902 -0.257521,0.10697 -0.550699,0.10697 -0.289215,0 -0.546736,-0.10697 -0.257521,-0.10697 -0.459576,-0.30902 -0.198093,-0.20206 -0.305063,-0.45958 -0.106971,-0.26148 -0.106971,-0.55466 z"
         style="font-weight:bold"
         id="path33930" />
      <path
         d="m 97.277119,225.12188 q 0,-0.29318 0.103008,-0.5507 0.10697,-0.25752 0.309025,-0.45561 0.209979,-0.20206 0.4675,-0.30506 0.25752,-0.10697 0.546736,-0.10697 0.289216,0 0.546737,0.10697 0.261483,0.10697 0.459576,0.30506 0.206016,0.20602 0.309029,0.46354 0.10697,0.25356 0.10697,0.54277 0,0.29318 -0.10697,0.55466 -0.106974,0.25752 -0.309029,0.45958 -0.202055,0.20205 -0.463538,0.30902 -0.257521,0.10697 -0.550698,0.10697 -0.289216,0 -0.546737,-0.10697 -0.257521,-0.10697 -0.459576,-0.30902 -0.198093,-0.20206 -0.305063,-0.45958 -0.10697,-0.26148 -0.10697,-0.55466 z"
         style="font-weight:bold"
         id="path33932" />
      <path
         d="m 101.73025,225.40714 h 7.24228 v 1.02216 h -7.24228 z"
         style="font-weight:bold"
         id="path33934" />
      <path
         d="m 92.091043,235.26424 q 0,-0.29317 0.103009,-0.55069 0.10697,-0.25753 0.309025,-0.45562 0.209978,-0.20205 0.467499,-0.30506 0.257521,-0.10697 0.546737,-0.10697 0.289216,0 0.546737,0.10697 0.261483,0.10697 0.459576,0.30506 0.206016,0.20602 0.309025,0.46354 0.10697,0.25356 0.10697,0.54277 0,0.29318 -0.10697,0.55466 -0.106971,0.25753 -0.309025,0.45958 -0.202055,0.20206 -0.463538,0.30903 -0.257521,0.10697 -0.550699,0.10697 -0.289215,0 -0.546736,-0.10697 -0.257521,-0.10697 -0.459576,-0.30903 -0.198093,-0.20205 -0.305063,-0.45958 -0.106971,-0.26148 -0.106971,-0.55466 z"
         style="font-weight:bold"
         id="path33936" />
      <path
         d="m 97.277119,235.26424 q 0,-0.29317 0.103008,-0.55069 0.10697,-0.25753 0.309025,-0.45562 0.209979,-0.20205 0.4675,-0.30506 0.25752,-0.10697 0.546736,-0.10697 0.289216,0 0.546737,0.10697 0.261483,0.10697 0.459576,0.30506 0.206016,0.20602 0.309029,0.46354 0.10697,0.25356 0.10697,0.54277 0,0.29318 -0.10697,0.55466 -0.106974,0.25753 -0.309029,0.45958 -0.202055,0.20206 -0.463538,0.30903 -0.257521,0.10697 -0.550698,0.10697 -0.289216,0 -0.546737,-0.10697 -0.257521,-0.10697 -0.459576,-0.30903 -0.198093,-0.20205 -0.305063,-0.45958 -0.10697,-0.26148 -0.10697,-0.55466 z"
         style="font-weight:bold"
         id="path33938" />
      <path
         d="m 102.46319,235.26424 q 0,-0.29317 0.10301,-0.55069 0.10697,-0.25753 0.30903,-0.45562 0.20998,-0.20205 0.4675,-0.30506 0.25752,-0.10697 0.54673,-0.10697 0.28922,0 0.54674,0.10697 0.26148,0.10697 0.45958,0.30506 0.20601,0.20602 0.30902,0.46354 0.10697,0.25356 0.10697,0.54277 0,0.29318 -0.10697,0.55466 -0.10697,0.25753 -0.30902,0.45958 -0.20206,0.20206 -0.46354,0.30903 -0.25752,0.10697 -0.5507,0.10697 -0.28922,0 -0.54674,-0.10697 -0.25752,-0.10697 -0.45957,-0.30903 -0.1981,-0.20205 -0.30507,-0.45958 -0.10697,-0.26148 -0.10697,-0.55466 z"
         style="font-weight:bold"
         id="path33940" />
      <path
         d="m 106.91632,235.5495 h 7.24229 v 1.02216 h -7.24229 z"
         style="font-weight:bold"
         id="path33942" />
      <path
         d="m 92.091043,245.40661 q 0,-0.29318 0.103009,-0.5507 0.10697,-0.25752 0.309025,-0.45562 0.209978,-0.20205 0.467499,-0.30506 0.257521,-0.10697 0.546737,-0.10697 0.289216,0 0.546737,0.10697 0.261483,0.10697 0.459576,0.30506 0.206016,0.20602 0.309025,0.46354 0.10697,0.25356 0.10697,0.54278 0,0.29317 -0.10697,0.55466 -0.106971,0.25752 -0.309025,0.45957 -0.202055,0.20206 -0.463538,0.30903 -0.257521,0.10697 -0.550699,0.10697 -0.289215,0 -0.546736,-0.10697 -0.257521,-0.10697 -0.459576,-0.30903 -0.198093,-0.20205 -0.305063,-0.45957 -0.106971,-0.26149 -0.106971,-0.55466 z"
         style="font-weight:bold"
         id="path33944" />
      <path
         d="m 96.544174,245.69186 h 7.242276 v 1.02216 h -7.242276 z"
         style="font-weight:bold"
         id="path33946" />
      <path
         d="m 104.65806,245.69186 h 7.24228 v 1.02216 h -7.24228 z"
         style="font-weight:bold"
         id="path33948" />
      <path
         d="m 91.358099,255.83422 h 7.242281 v 1.02216 h -7.242281 z"
         style="font-weight:bold"
         id="path33950" />
      <path
         d="m 100.20493,255.54897 q 0,-0.29318 0.10301,-0.5507 0.10697,-0.25752 0.30903,-0.45561 0.20998,-0.20206 0.4675,-0.30507 0.25752,-0.10697 0.54673,-0.10697 0.28922,0 0.54674,0.10697 0.26148,0.10697 0.45958,0.30507 0.20601,0.20601 0.30902,0.46353 0.10697,0.25356 0.10697,0.54278 0,0.29318 -0.10697,0.55466 -0.10697,0.25752 -0.30902,0.45957 -0.20206,0.20206 -0.46354,0.30903 -0.25752,0.10697 -0.5507,0.10697 -0.28922,0 -0.54674,-0.10697 -0.25752,-0.10697 -0.45957,-0.30903 -0.1981,-0.20205 -0.30507,-0.45957 -0.10697,-0.26148 -0.10697,-0.55466 z"
         style="font-weight:bold"
         id="path33952" />
      <path
         d="m 105.39101,255.54897 q 0,-0.29318 0.10301,-0.5507 0.10697,-0.25752 0.30902,-0.45561 0.20998,-0.20206 0.4675,-0.30507 0.25752,-0.10697 0.54674,-0.10697 0.28921,0 0.54673,0.10697 0.26149,0.10697 0.45958,0.30507 0.20602,0.20601 0.30903,0.46353 0.10697,0.25356 0.10697,0.54278 0,0.29318 -0.10697,0.55466 -0.10697,0.25752 -0.30903,0.45957 -0.20205,0.20206 -0.46354,0.30903 -0.25752,0.10697 -0.5507,0.10697 -0.28921,0 -0.54673,-0.10697 -0.25752,-0.10697 -0.45958,-0.30903 -0.19809,-0.20205 -0.30506,-0.45957 -0.10697,-0.26148 -0.10697,-0.55466 z"
         style="font-weight:bold"
         id="path33954" />
      <path
         d="m 109.84414,255.83422 h 7.24228 v 1.02216 h -7.24228 z"
         style="font-weight:bold"
         id="path33956" />
    </g>
    <g
       aria-label="Y
Z
1
2
3
4
5
6
7
8
9
0"
       id="text2166-4-0"
       style="font-size:8.11389px;line-height:1.25;stroke-width:0.264583">
      <path
         d="m 147.42558,139.83865 h 1.66795 l 1.34703,2.10771 1.34703,-2.10771 h 1.67191 l -2.2543,3.42305 v 2.49201 h -1.52532 v -2.49201 z"
         style="font-weight:bold"
         id="path33959" />
      <path
         d="m 147.96044,149.98101 h 4.97213 v 0.92312 l -3.17345,3.83904 h 3.26457 v 1.1529 h -5.15438 v -0.92311 l 3.17345,-3.83905 h -3.08232 z"
         style="font-weight:bold"
         id="path33961" />
      <path
         d="m 148.45567,164.98458 h 1.34703 v -3.8232 l -1.38269,0.28526 v -1.03801 l 1.37477,-0.28526 h 1.45004 v 4.86121 h 1.34703 v 1.05385 h -4.13618 z"
         style="font-weight:bold"
         id="path33963" />
      <path
         d="m 149.84232,175.05959 h 2.60294 v 1.1212 h -4.29862 v -1.1212 l 2.15922,-1.90566 q 0.28921,-0.26148 0.42788,-0.51108 0.13866,-0.24959 0.13866,-0.519 0,-0.416 -0.28129,-0.66955 -0.27733,-0.25356 -0.74087,-0.25356 -0.35656,0 -0.78048,0.15451 -0.42392,0.15055 -0.90727,0.45165 v -1.29949 q 0.51504,-0.17036 1.0182,-0.25752 0.50315,-0.0911 0.9865,-0.0911 1.06178,0 1.64814,0.4675 0.59031,0.4675 0.59031,1.30345 0,0.48335 -0.24959,0.9033 -0.2496,0.416 -1.0499,1.11725 z"
         style="font-weight:bold"
         id="path33965" />
      <path
         d="m 151.28444,183.13386 q 0.59824,0.15451 0.90726,0.53881 0.31299,0.38034 0.31299,0.97066 0,0.87953 -0.67352,1.33911 -0.67351,0.45561 -1.96508,0.45561 -0.45561,0 -0.91519,-0.0753 -0.45561,-0.0713 -0.9033,-0.2179 v -1.17667 q 0.42788,0.21394 0.84783,0.32487 0.42392,0.10697 0.832,0.10697 0.60616,0 0.92707,-0.20998 0.32487,-0.20997 0.32487,-0.6022 0,-0.40411 -0.33279,-0.61012 -0.32884,-0.20998 -0.97462,-0.20998 h -0.61013 v -0.98254 h 0.64182 q 0.57447,0 0.85577,-0.17829 0.28129,-0.18224 0.28129,-0.5507 0,-0.34072 -0.27337,-0.52692 -0.27337,-0.18621 -0.77256,-0.18621 -0.36846,0 -0.74483,0.0832 -0.37638,0.0832 -0.74879,0.24563 v -1.11724 q 0.45165,-0.12678 0.89538,-0.19017 0.44372,-0.0634 0.87161,-0.0634 1.1529,0 1.7234,0.38034 0.57447,0.37637 0.57447,1.13705 0,0.519 -0.27336,0.8518 -0.27337,0.32884 -0.80822,0.46354 z"
         style="font-weight:bold"
         id="path33967" />
      <path
         d="m 150.49206,191.80637 -1.6719,2.47616 h 1.6719 z m -0.25355,-1.25591 h 1.69567 v 3.73207 h 0.84388 v 1.10536 h -0.84388 v 1.07763 h -1.44212 v -1.07763 h -2.62275 v -1.30741 z"
         style="font-weight:bold"
         id="path33969" />
      <path
         d="m 148.36455,200.69282 h 3.7915 v 1.12121 h -2.57521 v 0.91519 q 0.17432,-0.0475 0.34864,-0.0713 0.17828,-0.0277 0.36845,-0.0277 1.08159,0 1.68379,0.54278 0.60221,0.53881 0.60221,1.5055 0,0.95877 -0.65767,1.50155 -0.65371,0.54277 -1.8185,0.54277 -0.50315,0 -0.99838,-0.099 -0.49128,-0.0951 -0.97858,-0.29318 v -1.20044 q 0.48334,0.27733 0.91519,0.41599 0.4358,0.13867 0.8201,0.13867 0.55466,0 0.87161,-0.26941 0.32091,-0.27337 0.32091,-0.73691 0,-0.46749 -0.32091,-0.7369 -0.31695,-0.26941 -0.87161,-0.26941 -0.32883,0 -0.70125,0.0872 -0.37241,0.0832 -0.80029,0.26149 z"
         style="font-weight:bold"
         id="path33971" />
      <path
         d="m 150.44056,213.83035 q -0.40015,0 -0.6022,0.26148 -0.1981,0.25753 -0.1981,0.77653 0,0.519 0.1981,0.78049 0.20205,0.25752 0.6022,0.25752 0.40411,0 0.6022,-0.25752 0.20206,-0.26149 0.20206,-0.78049 0,-0.519 -0.20206,-0.77653 -0.19809,-0.26148 -0.6022,-0.26148 z m 1.88585,-2.84065 v 1.09347 q -0.37638,-0.17828 -0.70918,-0.26148 -0.33279,-0.0872 -0.64974,-0.0872 -0.68144,0 -1.06178,0.38034 -0.38034,0.37637 -0.44373,1.1212 0.26148,-0.19413 0.56655,-0.28921 0.30506,-0.099 0.66559,-0.099 0.90727,0 1.46193,0.53089 0.55862,0.53089 0.55862,1.39061 0,0.95085 -0.62201,1.52532 -0.62202,0.57051 -1.66795,0.57051 -1.1529,0 -1.7868,-0.77653 -0.62993,-0.78048 -0.62993,-2.21072 0,-1.46588 0.7369,-2.30184 0.74087,-0.83991 2.02848,-0.83991 0.40807,0 0.79237,0.0634 0.3843,0.0634 0.76068,0.19017 z"
         style="font-weight:bold"
         id="path33973" />
      <path
         d="m 148.0476,220.97755 h 4.45709 v 0.85972 l -2.3058,5.05533 h -1.4857 l 2.18298,-4.79385 h -2.84857 z"
         style="font-weight:bold"
         id="path33975" />
      <path
         d="m 150.32963,234.38844 q -0.42788,0 -0.65767,0.23375 -0.22979,0.23375 -0.22979,0.66956 0,0.4358 0.22979,0.66955 0.22979,0.22979 0.65767,0.22979 0.42392,0 0.64974,-0.22979 0.22583,-0.23375 0.22583,-0.66955 0,-0.43977 -0.22583,-0.66956 -0.22582,-0.23375 -0.64974,-0.23375 z m -1.11328,-0.50315 q -0.53882,-0.16244 -0.81219,-0.4992 -0.27336,-0.33675 -0.27336,-0.83991 0,-0.74879 0.55862,-1.14102 0.55862,-0.39222 1.64021,-0.39222 1.07366,0 1.63228,0.39222 0.55863,0.38827 0.55863,1.14102 0,0.50316 -0.27733,0.83991 -0.27337,0.33676 -0.81218,0.4992 0.6022,0.1664 0.90726,0.54277 0.30903,0.37242 0.30903,0.94293 0,0.87953 -0.58636,1.33118 -0.58239,0.44769 -1.73133,0.44769 -1.1529,0 -1.74322,-0.44769 -0.58636,-0.45165 -0.58636,-1.33118 0,-0.57051 0.30507,-0.94293 0.30902,-0.37637 0.91123,-0.54277 z m 0.35656,-1.1846 q 0,0.35261 0.19413,0.54278 0.1981,0.19017 0.56259,0.19017 0.35657,0 0.5507,-0.19017 0.19413,-0.19017 0.19413,-0.54278 0,-0.3526 -0.19413,-0.53881 -0.19413,-0.19017 -0.5507,-0.19017 -0.36449,0 -0.56259,0.19017 -0.19413,0.19017 -0.19413,0.53881 z"
         style="font-weight:bold"
         id="path33977" />
      <path
         d="m 148.317,247.04659 v -1.09348 q 0.36449,0.17036 0.69729,0.25753 0.3328,0.0832 0.65767,0.0832 0.68144,0 1.06178,-0.37637 0.38034,-0.38034 0.44769,-1.12517 -0.26941,0.19809 -0.57447,0.29714 -0.30506,0.0991 -0.66163,0.0991 -0.90727,0 -1.46589,-0.52693 -0.55466,-0.53089 -0.55466,-1.39458 0,-0.95481 0.61805,-1.52927 0.62201,-0.57447 1.66398,-0.57447 1.15686,0 1.79076,0.78048 0.6339,0.78049 0.6339,2.20676 0,1.46589 -0.74087,2.3058 -0.74087,0.83595 -2.03243,0.83595 -0.416,0 -0.79634,-0.0634 -0.38034,-0.0594 -0.74483,-0.18224 z m 1.88189,-2.84858 q 0.40014,0 0.6022,-0.25752 0.20205,-0.26148 0.20205,-0.78049 0,-0.51504 -0.20205,-0.77652 -0.20206,-0.26148 -0.6022,-0.26148 -0.40015,0 -0.60221,0.26148 -0.20205,0.26148 -0.20205,0.77652 0,0.51901 0.20205,0.78049 0.20206,0.25752 0.60221,0.25752 z"
         style="font-weight:bold"
         id="path33979" />
      <path
         d="m 151.23689,254.35622 q 0,-1.10932 -0.20997,-1.56097 -0.20602,-0.45562 -0.69729,-0.45562 -0.49127,0 -0.70125,0.45562 -0.20998,0.45165 -0.20998,1.56097 0,1.12121 0.20998,1.58078 0.20998,0.45958 0.70125,0.45958 0.48731,0 0.69729,-0.45958 0.20997,-0.45957 0.20997,-1.58078 z m 1.52532,0.0119 q 0,1.46985 -0.6339,2.27014 -0.63389,0.79634 -1.79868,0.79634 -1.16875,0 -1.80265,-0.79634 -0.6339,-0.80029 -0.6339,-2.27014 0,-1.47382 0.6339,-2.27015 0.6339,-0.8003 1.80265,-0.8003 1.16479,0 1.79868,0.8003 0.6339,0.79633 0.6339,2.27015 z"
         style="font-weight:bold"
         id="path33981" />
    </g>
    <g
       aria-label="—•——
——••
•————
••——
•••——
•••—
•••••
—••••
——•••
———••
————•
—————"
       id="text2166-3-0-1"
       style="font-size:8.11389px;line-height:1.25;stroke-width:0.264583">
      <path
         d="m 160.09665,142.51922 h 7.24228 v 1.02216 h -7.24228 z"
         style="font-weight:bold"
         id="path33984" />
      <path
         d="m 168.94348,142.23396 q 0,-0.29318 0.10301,-0.5507 0.10697,-0.25752 0.30902,-0.45561 0.20998,-0.20206 0.4675,-0.30506 0.25753,-0.10697 0.54674,-0.10697 0.28922,0 0.54674,0.10697 0.26148,0.10697 0.45957,0.30506 0.20602,0.20602 0.30903,0.46354 0.10697,0.25356 0.10697,0.54277 0,0.29318 -0.10697,0.55466 -0.10697,0.25752 -0.30903,0.45958 -0.20205,0.20205 -0.46353,0.30902 -0.25753,0.10697 -0.5507,0.10697 -0.28922,0 -0.54674,-0.10697 -0.25752,-0.10697 -0.45958,-0.30902 -0.19809,-0.20206 -0.30506,-0.45958 -0.10697,-0.26148 -0.10697,-0.55466 z"
         style="font-weight:bold"
         id="path33986" />
      <path
         d="m 173.39661,142.51922 h 7.24228 v 1.02216 h -7.24228 z"
         style="font-weight:bold"
         id="path33988" />
      <path
         d="m 181.5105,142.51922 h 7.24228 v 1.02216 h -7.24228 z"
         style="font-weight:bold"
         id="path33990" />
      <path
         d="m 160.09665,152.66158 h 7.24228 v 1.02216 h -7.24228 z"
         style="font-weight:bold"
         id="path33992" />
      <path
         d="m 168.21054,152.66158 h 7.24228 v 1.02216 h -7.24228 z"
         style="font-weight:bold"
         id="path33994" />
      <path
         d="m 177.05737,152.37632 q 0,-0.29317 0.10301,-0.55069 0.10697,-0.25753 0.30902,-0.45562 0.20998,-0.20205 0.4675,-0.30506 0.25752,-0.10697 0.54674,-0.10697 0.28922,0 0.54674,0.10697 0.26148,0.10697 0.45957,0.30506 0.20602,0.20602 0.30903,0.46354 0.10697,0.25356 0.10697,0.54277 0,0.29318 -0.10697,0.55466 -0.10697,0.25753 -0.30903,0.45958 -0.20205,0.20205 -0.46353,0.30903 -0.25753,0.10697 -0.5507,0.10697 -0.28922,0 -0.54674,-0.10697 -0.25752,-0.10698 -0.45958,-0.30903 -0.19809,-0.20205 -0.30506,-0.45958 -0.10697,-0.26148 -0.10697,-0.55466 z"
         style="font-weight:bold"
         id="path33996" />
      <path
         d="m 182.24345,152.37632 q 0,-0.29317 0.103,-0.55069 0.10697,-0.25753 0.30903,-0.45562 0.20998,-0.20205 0.4675,-0.30506 0.25752,-0.10697 0.54674,-0.10697 0.28921,0 0.54673,0.10697 0.26149,0.10697 0.45958,0.30506 0.20602,0.20602 0.30902,0.46354 0.10697,0.25356 0.10697,0.54277 0,0.29318 -0.10697,0.55466 -0.10697,0.25753 -0.30902,0.45958 -0.20206,0.20205 -0.46354,0.30903 -0.25752,0.10697 -0.5507,0.10697 -0.28921,0 -0.54673,-0.10697 -0.25753,-0.10698 -0.45958,-0.30903 -0.19809,-0.20205 -0.30506,-0.45958 -0.10697,-0.26148 -0.10697,-0.55466 z"
         style="font-weight:bold"
         id="path33998" />
      <path
         d="m 160.82959,162.51869 q 0,-0.29318 0.10301,-0.5507 0.10697,-0.25752 0.30903,-0.45562 0.20997,-0.20205 0.46749,-0.30506 0.25753,-0.10697 0.54674,-0.10697 0.28922,0 0.54674,0.10697 0.26148,0.10697 0.45957,0.30506 0.20602,0.20602 0.30903,0.46354 0.10697,0.25356 0.10697,0.54278 0,0.29317 -0.10697,0.55466 -0.10697,0.25752 -0.30903,0.45957 -0.20205,0.20206 -0.46353,0.30903 -0.25752,0.10697 -0.5507,0.10697 -0.28922,0 -0.54674,-0.10697 -0.25752,-0.10697 -0.45957,-0.30903 -0.1981,-0.20205 -0.30507,-0.45957 -0.10697,-0.26149 -0.10697,-0.55466 z"
         style="font-weight:bold"
         id="path34000" />
      <path
         d="m 165.28272,162.80394 h 7.24228 v 1.02216 h -7.24228 z"
         style="font-weight:bold"
         id="path34002" />
      <path
         d="m 173.39661,162.80394 h 7.24228 v 1.02216 h -7.24228 z"
         style="font-weight:bold"
         id="path34004" />
      <path
         d="m 181.5105,162.80394 h 7.24228 v 1.02216 h -7.24228 z"
         style="font-weight:bold"
         id="path34006" />
      <path
         d="m 189.62439,162.80394 h 7.24228 v 1.02216 h -7.24228 z"
         style="font-weight:bold"
         id="path34008" />
      <path
         d="m 160.82959,172.66105 q 0,-0.29318 0.10301,-0.5507 0.10697,-0.25752 0.30903,-0.45561 0.20997,-0.20206 0.46749,-0.30507 0.25753,-0.10697 0.54674,-0.10697 0.28922,0 0.54674,0.10697 0.26148,0.10697 0.45957,0.30507 0.20602,0.20601 0.30903,0.46353 0.10697,0.25356 0.10697,0.54278 0,0.29318 -0.10697,0.55466 -0.10697,0.25752 -0.30903,0.45957 -0.20205,0.20206 -0.46353,0.30903 -0.25752,0.10697 -0.5507,0.10697 -0.28922,0 -0.54674,-0.10697 -0.25752,-0.10697 -0.45957,-0.30903 -0.1981,-0.20205 -0.30507,-0.45957 -0.10697,-0.26148 -0.10697,-0.55466 z"
         style="font-weight:bold"
         id="path34010" />
      <path
         d="m 166.01567,172.66105 q 0,-0.29318 0.10301,-0.5507 0.10697,-0.25752 0.30902,-0.45561 0.20998,-0.20206 0.4675,-0.30507 0.25752,-0.10697 0.54674,-0.10697 0.28921,0 0.54673,0.10697 0.26149,0.10697 0.45958,0.30507 0.20602,0.20601 0.30902,0.46353 0.10697,0.25356 0.10697,0.54278 0,0.29318 -0.10697,0.55466 -0.10697,0.25752 -0.30902,0.45957 -0.20206,0.20206 -0.46354,0.30903 -0.25752,0.10697 -0.5507,0.10697 -0.28921,0 -0.54673,-0.10697 -0.25752,-0.10697 -0.45958,-0.30903 -0.19809,-0.20205 -0.30506,-0.45957 -0.10697,-0.26148 -0.10697,-0.55466 z"
         style="font-weight:bold"
         id="path34012" />
      <path
         d="m 170.4688,172.9463 h 7.24228 v 1.02216 h -7.24228 z"
         style="font-weight:bold"
         id="path34014" />
      <path
         d="m 178.58269,172.9463 h 7.24228 v 1.02216 h -7.24228 z"
         style="font-weight:bold"
         id="path34016" />
      <path
         d="m 160.82959,182.80341 q 0,-0.29318 0.10301,-0.5507 0.10697,-0.25752 0.30903,-0.45561 0.20997,-0.20206 0.46749,-0.30507 0.25753,-0.10697 0.54674,-0.10697 0.28922,0 0.54674,0.10697 0.26148,0.10697 0.45957,0.30507 0.20602,0.20601 0.30903,0.46354 0.10697,0.25355 0.10697,0.54277 0,0.29318 -0.10697,0.55466 -0.10697,0.25752 -0.30903,0.45958 -0.20205,0.20205 -0.46353,0.30902 -0.25752,0.10697 -0.5507,0.10697 -0.28922,0 -0.54674,-0.10697 -0.25752,-0.10697 -0.45957,-0.30902 -0.1981,-0.20206 -0.30507,-0.45958 -0.10697,-0.26148 -0.10697,-0.55466 z"
         style="font-weight:bold"
         id="path34018" />
      <path
         d="m 166.01567,182.80341 q 0,-0.29318 0.10301,-0.5507 0.10697,-0.25752 0.30902,-0.45561 0.20998,-0.20206 0.4675,-0.30507 0.25752,-0.10697 0.54674,-0.10697 0.28921,0 0.54673,0.10697 0.26149,0.10697 0.45958,0.30507 0.20602,0.20601 0.30902,0.46354 0.10697,0.25355 0.10697,0.54277 0,0.29318 -0.10697,0.55466 -0.10697,0.25752 -0.30902,0.45958 -0.20206,0.20205 -0.46354,0.30902 -0.25752,0.10697 -0.5507,0.10697 -0.28921,0 -0.54673,-0.10697 -0.25752,-0.10697 -0.45958,-0.30902 -0.19809,-0.20206 -0.30506,-0.45958 -0.10697,-0.26148 -0.10697,-0.55466 z"
         style="font-weight:bold"
         id="path34020" />
      <path
         d="m 171.20174,182.80341 q 0,-0.29318 0.10301,-0.5507 0.10697,-0.25752 0.30903,-0.45561 0.20997,-0.20206 0.4675,-0.30507 0.25752,-0.10697 0.54673,-0.10697 0.28922,0 0.54674,0.10697 0.26148,0.10697 0.45957,0.30507 0.20602,0.20601 0.30903,0.46354 0.10697,0.25355 0.10697,0.54277 0,0.29318 -0.10697,0.55466 -0.10697,0.25752 -0.30903,0.45958 -0.20205,0.20205 -0.46353,0.30902 -0.25752,0.10697 -0.5507,0.10697 -0.28922,0 -0.54674,-0.10697 -0.25752,-0.10697 -0.45957,-0.30902 -0.1981,-0.20206 -0.30507,-0.45958 -0.10697,-0.26148 -0.10697,-0.55466 z"
         style="font-weight:bold"
         id="path34022" />
      <path
         d="m 175.65487,183.08866 h 7.24228 v 1.02216 h -7.24228 z"
         style="font-weight:bold"
         id="path34024" />
      <path
         d="m 183.76876,183.08866 h 7.24228 v 1.02216 h -7.24228 z"
         style="font-weight:bold"
         id="path34026" />
      <path
         d="m 160.82959,192.94577 q 0,-0.29318 0.10301,-0.5507 0.10697,-0.25752 0.30903,-0.45561 0.20997,-0.20206 0.46749,-0.30506 0.25753,-0.10697 0.54674,-0.10697 0.28922,0 0.54674,0.10697 0.26148,0.10697 0.45957,0.30506 0.20602,0.20602 0.30903,0.46354 0.10697,0.25356 0.10697,0.54277 0,0.29318 -0.10697,0.55466 -0.10697,0.25752 -0.30903,0.45958 -0.20205,0.20205 -0.46353,0.30902 -0.25752,0.10697 -0.5507,0.10697 -0.28922,0 -0.54674,-0.10697 -0.25752,-0.10697 -0.45957,-0.30902 -0.1981,-0.20206 -0.30507,-0.45958 -0.10697,-0.26148 -0.10697,-0.55466 z"
         style="font-weight:bold"
         id="path34028" />
      <path
         d="m 166.01567,192.94577 q 0,-0.29318 0.10301,-0.5507 0.10697,-0.25752 0.30902,-0.45561 0.20998,-0.20206 0.4675,-0.30506 0.25752,-0.10697 0.54674,-0.10697 0.28921,0 0.54673,0.10697 0.26149,0.10697 0.45958,0.30506 0.20602,0.20602 0.30902,0.46354 0.10697,0.25356 0.10697,0.54277 0,0.29318 -0.10697,0.55466 -0.10697,0.25752 -0.30902,0.45958 -0.20206,0.20205 -0.46354,0.30902 -0.25752,0.10697 -0.5507,0.10697 -0.28921,0 -0.54673,-0.10697 -0.25752,-0.10697 -0.45958,-0.30902 -0.19809,-0.20206 -0.30506,-0.45958 -0.10697,-0.26148 -0.10697,-0.55466 z"
         style="font-weight:bold"
         id="path34030" />
      <path
         d="m 171.20174,192.94577 q 0,-0.29318 0.10301,-0.5507 0.10697,-0.25752 0.30903,-0.45561 0.20997,-0.20206 0.4675,-0.30506 0.25752,-0.10697 0.54673,-0.10697 0.28922,0 0.54674,0.10697 0.26148,0.10697 0.45957,0.30506 0.20602,0.20602 0.30903,0.46354 0.10697,0.25356 0.10697,0.54277 0,0.29318 -0.10697,0.55466 -0.10697,0.25752 -0.30903,0.45958 -0.20205,0.20205 -0.46353,0.30902 -0.25752,0.10697 -0.5507,0.10697 -0.28922,0 -0.54674,-0.10697 -0.25752,-0.10697 -0.45957,-0.30902 -0.1981,-0.20206 -0.30507,-0.45958 -0.10697,-0.26148 -0.10697,-0.55466 z"
         style="font-weight:bold"
         id="path34032" />
      <path
         d="m 175.65487,193.23103 h 7.24228 v 1.02216 h -7.24228 z"
         style="font-weight:bold"
         id="path34034" />
      <path
         d="m 160.82959,203.08813 q 0,-0.29317 0.10301,-0.55069 0.10697,-0.25753 0.30903,-0.45562 0.20997,-0.20205 0.46749,-0.30506 0.25753,-0.10697 0.54674,-0.10697 0.28922,0 0.54674,0.10697 0.26148,0.10697 0.45957,0.30506 0.20602,0.20602 0.30903,0.46354 0.10697,0.25356 0.10697,0.54277 0,0.29318 -0.10697,0.55466 -0.10697,0.25753 -0.30903,0.45958 -0.20205,0.20206 -0.46353,0.30903 -0.25752,0.10697 -0.5507,0.10697 -0.28922,0 -0.54674,-0.10697 -0.25752,-0.10697 -0.45957,-0.30903 -0.1981,-0.20205 -0.30507,-0.45958 -0.10697,-0.26148 -0.10697,-0.55466 z"
         style="font-weight:bold"
         id="path34036" />
      <path
         d="m 166.01567,203.08813 q 0,-0.29317 0.10301,-0.55069 0.10697,-0.25753 0.30902,-0.45562 0.20998,-0.20205 0.4675,-0.30506 0.25752,-0.10697 0.54674,-0.10697 0.28921,0 0.54673,0.10697 0.26149,0.10697 0.45958,0.30506 0.20602,0.20602 0.30902,0.46354 0.10697,0.25356 0.10697,0.54277 0,0.29318 -0.10697,0.55466 -0.10697,0.25753 -0.30902,0.45958 -0.20206,0.20206 -0.46354,0.30903 -0.25752,0.10697 -0.5507,0.10697 -0.28921,0 -0.54673,-0.10697 -0.25752,-0.10697 -0.45958,-0.30903 -0.19809,-0.20205 -0.30506,-0.45958 -0.10697,-0.26148 -0.10697,-0.55466 z"
         style="font-weight:bold"
         id="path34038" />
      <path
         d="m 171.20174,203.08813 q 0,-0.29317 0.10301,-0.55069 0.10697,-0.25753 0.30903,-0.45562 0.20997,-0.20205 0.4675,-0.30506 0.25752,-0.10697 0.54673,-0.10697 0.28922,0 0.54674,0.10697 0.26148,0.10697 0.45957,0.30506 0.20602,0.20602 0.30903,0.46354 0.10697,0.25356 0.10697,0.54277 0,0.29318 -0.10697,0.55466 -0.10697,0.25753 -0.30903,0.45958 -0.20205,0.20206 -0.46353,0.30903 -0.25752,0.10697 -0.5507,0.10697 -0.28922,0 -0.54674,-0.10697 -0.25752,-0.10697 -0.45957,-0.30903 -0.1981,-0.20205 -0.30507,-0.45958 -0.10697,-0.26148 -0.10697,-0.55466 z"
         style="font-weight:bold"
         id="path34040" />
      <path
         d="m 176.38782,203.08813 q 0,-0.29317 0.10301,-0.55069 0.10697,-0.25753 0.30902,-0.45562 0.20998,-0.20205 0.4675,-0.30506 0.25752,-0.10697 0.54674,-0.10697 0.28921,0 0.54673,0.10697 0.26149,0.10697 0.45958,0.30506 0.20602,0.20602 0.30902,0.46354 0.10697,0.25356 0.10697,0.54277 0,0.29318 -0.10697,0.55466 -0.10697,0.25753 -0.30902,0.45958 -0.20206,0.20206 -0.46354,0.30903 -0.25752,0.10697 -0.5507,0.10697 -0.28921,0 -0.54673,-0.10697 -0.25752,-0.10697 -0.45958,-0.30903 -0.19809,-0.20205 -0.30506,-0.45958 -0.10697,-0.26148 -0.10697,-0.55466 z"
         style="font-weight:bold"
         id="path34042" />
      <path
         d="m 181.57389,203.08813 q 0,-0.29317 0.10301,-0.55069 0.10697,-0.25753 0.30903,-0.45562 0.20997,-0.20205 0.4675,-0.30506 0.25752,-0.10697 0.54673,-0.10697 0.28922,0 0.54674,0.10697 0.26148,0.10697 0.45957,0.30506 0.20602,0.20602 0.30903,0.46354 0.10697,0.25356 0.10697,0.54277 0,0.29318 -0.10697,0.55466 -0.10697,0.25753 -0.30903,0.45958 -0.20205,0.20206 -0.46353,0.30903 -0.25752,0.10697 -0.5507,0.10697 -0.28922,0 -0.54674,-0.10697 -0.25752,-0.10697 -0.45957,-0.30903 -0.1981,-0.20205 -0.30507,-0.45958 -0.10697,-0.26148 -0.10697,-0.55466 z"
         style="font-weight:bold"
         id="path34044" />
      <path
         d="m 160.09665,213.51575 h 7.24228 v 1.02216 h -7.24228 z"
         style="font-weight:bold"
         id="path34046" />
      <path
         d="m 168.94348,213.2305 q 0,-0.29318 0.10301,-0.5507 0.10697,-0.25752 0.30902,-0.45562 0.20998,-0.20205 0.4675,-0.30506 0.25753,-0.10697 0.54674,-0.10697 0.28922,0 0.54674,0.10697 0.26148,0.10697 0.45957,0.30506 0.20602,0.20602 0.30903,0.46354 0.10697,0.25356 0.10697,0.54278 0,0.29317 -0.10697,0.55466 -0.10697,0.25752 -0.30903,0.45957 -0.20205,0.20206 -0.46353,0.30903 -0.25753,0.10697 -0.5507,0.10697 -0.28922,0 -0.54674,-0.10697 -0.25752,-0.10697 -0.45958,-0.30903 -0.19809,-0.20205 -0.30506,-0.45957 -0.10697,-0.26149 -0.10697,-0.55466 z"
         style="font-weight:bold"
         id="path34048" />
      <path
         d="m 174.12956,213.2305 q 0,-0.29318 0.103,-0.5507 0.10698,-0.25752 0.30903,-0.45562 0.20998,-0.20205 0.4675,-0.30506 0.25752,-0.10697 0.54674,-0.10697 0.28921,0 0.54673,0.10697 0.26149,0.10697 0.45958,0.30506 0.20602,0.20602 0.30902,0.46354 0.10697,0.25356 0.10697,0.54278 0,0.29317 -0.10697,0.55466 -0.10697,0.25752 -0.30902,0.45957 -0.20206,0.20206 -0.46354,0.30903 -0.25752,0.10697 -0.5507,0.10697 -0.28921,0 -0.54673,-0.10697 -0.25753,-0.10697 -0.45958,-0.30903 -0.19809,-0.20205 -0.30506,-0.45957 -0.10697,-0.26149 -0.10697,-0.55466 z"
         style="font-weight:bold"
         id="path34050" />
      <path
         d="m 179.31563,213.2305 q 0,-0.29318 0.10301,-0.5507 0.10697,-0.25752 0.30903,-0.45562 0.20997,-0.20205 0.46749,-0.30506 0.25753,-0.10697 0.54674,-0.10697 0.28922,0 0.54674,0.10697 0.26148,0.10697 0.45957,0.30506 0.20602,0.20602 0.30903,0.46354 0.10697,0.25356 0.10697,0.54278 0,0.29317 -0.10697,0.55466 -0.10697,0.25752 -0.30903,0.45957 -0.20205,0.20206 -0.46353,0.30903 -0.25752,0.10697 -0.5507,0.10697 -0.28922,0 -0.54674,-0.10697 -0.25752,-0.10697 -0.45957,-0.30903 -0.1981,-0.20205 -0.30507,-0.45957 -0.10697,-0.26149 -0.10697,-0.55466 z"
         style="font-weight:bold"
         id="path34052" />
      <path
         d="m 184.50171,213.2305 q 0,-0.29318 0.10301,-0.5507 0.10697,-0.25752 0.30902,-0.45562 0.20998,-0.20205 0.4675,-0.30506 0.25752,-0.10697 0.54674,-0.10697 0.28921,0 0.54673,0.10697 0.26149,0.10697 0.45958,0.30506 0.20602,0.20602 0.30902,0.46354 0.10697,0.25356 0.10697,0.54278 0,0.29317 -0.10697,0.55466 -0.10697,0.25752 -0.30902,0.45957 -0.20206,0.20206 -0.46354,0.30903 -0.25752,0.10697 -0.5507,0.10697 -0.28921,0 -0.54673,-0.10697 -0.25752,-0.10697 -0.45958,-0.30903 -0.19809,-0.20205 -0.30506,-0.45957 -0.10697,-0.26149 -0.10697,-0.55466 z"
         style="font-weight:bold"
         id="path34054" />
      <path
         d="m 160.09665,223.65811 h 7.24228 v 1.02216 h -7.24228 z"
         style="font-weight:bold"
         id="path34056" />
      <path
         d="m 168.21054,223.65811 h 7.24228 v 1.02216 h -7.24228 z"
         style="font-weight:bold"
         id="path34058" />
      <path
         d="m 177.05737,223.37286 q 0,-0.29318 0.10301,-0.5507 0.10697,-0.25752 0.30902,-0.45561 0.20998,-0.20206 0.4675,-0.30507 0.25752,-0.10697 0.54674,-0.10697 0.28922,0 0.54674,0.10697 0.26148,0.10697 0.45957,0.30507 0.20602,0.20601 0.30903,0.46353 0.10697,0.25356 0.10697,0.54278 0,0.29318 -0.10697,0.55466 -0.10697,0.25752 -0.30903,0.45957 -0.20205,0.20206 -0.46353,0.30903 -0.25753,0.10697 -0.5507,0.10697 -0.28922,0 -0.54674,-0.10697 -0.25752,-0.10697 -0.45958,-0.30903 -0.19809,-0.20205 -0.30506,-0.45957 -0.10697,-0.26148 -0.10697,-0.55466 z"
         style="font-weight:bold"
         id="path34060" />
      <path
         d="m 182.24345,223.37286 q 0,-0.29318 0.103,-0.5507 0.10697,-0.25752 0.30903,-0.45561 0.20998,-0.20206 0.4675,-0.30507 0.25752,-0.10697 0.54674,-0.10697 0.28921,0 0.54673,0.10697 0.26149,0.10697 0.45958,0.30507 0.20602,0.20601 0.30902,0.46353 0.10697,0.25356 0.10697,0.54278 0,0.29318 -0.10697,0.55466 -0.10697,0.25752 -0.30902,0.45957 -0.20206,0.20206 -0.46354,0.30903 -0.25752,0.10697 -0.5507,0.10697 -0.28921,0 -0.54673,-0.10697 -0.25753,-0.10697 -0.45958,-0.30903 -0.19809,-0.20205 -0.30506,-0.45957 -0.10697,-0.26148 -0.10697,-0.55466 z"
         style="font-weight:bold"
         id="path34062" />
      <path
         d="m 187.42952,223.37286 q 0,-0.29318 0.10301,-0.5507 0.10697,-0.25752 0.30902,-0.45561 0.20998,-0.20206 0.4675,-0.30507 0.25753,-0.10697 0.54674,-0.10697 0.28922,0 0.54674,0.10697 0.26148,0.10697 0.45957,0.30507 0.20602,0.20601 0.30903,0.46353 0.10697,0.25356 0.10697,0.54278 0,0.29318 -0.10697,0.55466 -0.10697,0.25752 -0.30903,0.45957 -0.20205,0.20206 -0.46353,0.30903 -0.25752,0.10697 -0.5507,0.10697 -0.28922,0 -0.54674,-0.10697 -0.25752,-0.10697 -0.45958,-0.30903 -0.19809,-0.20205 -0.30506,-0.45957 -0.10697,-0.26148 -0.10697,-0.55466 z"
         style="font-weight:bold"
         id="path34064" />
      <path
         d="m 160.09665,233.80047 h 7.24228 v 1.02216 h -7.24228 z"
         style="font-weight:bold"
         id="path34066" />
      <path
         d="m 168.21054,233.80047 h 7.24228 v 1.02216 h -7.24228 z"
         style="font-weight:bold"
         id="path34068" />
      <path
         d="m 176.32443,233.80047 h 7.24228 v 1.02216 h -7.24228 z"
         style="font-weight:bold"
         id="path34070" />
      <path
         d="m 185.17126,233.51522 q 0,-0.29318 0.10301,-0.5507 0.10697,-0.25752 0.30902,-0.45561 0.20998,-0.20206 0.4675,-0.30506 0.25752,-0.10698 0.54674,-0.10698 0.28922,0 0.54674,0.10698 0.26148,0.10697 0.45957,0.30506 0.20602,0.20601 0.30903,0.46354 0.10697,0.25355 0.10697,0.54277 0,0.29318 -0.10697,0.55466 -0.10697,0.25752 -0.30903,0.45958 -0.20205,0.20205 -0.46353,0.30902 -0.25753,0.10697 -0.5507,0.10697 -0.28922,0 -0.54674,-0.10697 -0.25752,-0.10697 -0.45958,-0.30902 -0.19809,-0.20206 -0.30506,-0.45958 -0.10697,-0.26148 -0.10697,-0.55466 z"
         style="font-weight:bold"
         id="path34072" />
      <path
         d="m 190.35734,233.51522 q 0,-0.29318 0.103,-0.5507 0.10697,-0.25752 0.30903,-0.45561 0.20998,-0.20206 0.4675,-0.30506 0.25752,-0.10698 0.54674,-0.10698 0.28921,0 0.54673,0.10698 0.26149,0.10697 0.45958,0.30506 0.20601,0.20601 0.30902,0.46354 0.10697,0.25355 0.10697,0.54277 0,0.29318 -0.10697,0.55466 -0.10697,0.25752 -0.30902,0.45958 -0.20206,0.20205 -0.46354,0.30902 -0.25752,0.10697 -0.5507,0.10697 -0.28921,0 -0.54673,-0.10697 -0.25753,-0.10697 -0.45958,-0.30902 -0.19809,-0.20206 -0.30506,-0.45958 -0.10697,-0.26148 -0.10697,-0.55466 z"
         style="font-weight:bold"
         id="path34074" />
      <path
         d="m 160.09665,243.94284 h 7.24228 v 1.02216 h -7.24228 z"
         style="font-weight:bold"
         id="path34076" />
      <path
         d="m 168.21054,243.94284 h 7.24228 v 1.02216 h -7.24228 z"
         style="font-weight:bold"
         id="path34078" />
      <path
         d="m 176.32443,243.94284 h 7.24228 v 1.02216 h -7.24228 z"
         style="font-weight:bold"
         id="path34080" />
      <path
         d="m 184.43832,243.94284 h 7.24228 v 1.02216 h -7.24228 z"
         style="font-weight:bold"
         id="path34082" />
      <path
         d="m 193.28515,243.65758 q 0,-0.29317 0.10301,-0.5507 0.10697,-0.25752 0.30902,-0.45561 0.20998,-0.20205 0.4675,-0.30506 0.25752,-0.10697 0.54674,-0.10697 0.28922,0 0.54674,0.10697 0.26148,0.10697 0.45957,0.30506 0.20602,0.20602 0.30903,0.46354 0.10697,0.25356 0.10697,0.54277 0,0.29318 -0.10697,0.55466 -0.10697,0.25752 -0.30903,0.45958 -0.20205,0.20205 -0.46354,0.30902 -0.25752,0.10697 -0.55069,0.10697 -0.28922,0 -0.54674,-0.10697 -0.25752,-0.10697 -0.45958,-0.30902 -0.19809,-0.20206 -0.30506,-0.45958 -0.10697,-0.26148 -0.10697,-0.55466 z"
         style="font-weight:bold"
         id="path34084" />
      <path
         d="m 160.09665,254.0852 h 7.24228 v 1.02216 h -7.24228 z"
         style="font-weight:bold"
         id="path34086" />
      <path
         d="m 168.21054,254.0852 h 7.24228 v 1.02216 h -7.24228 z"
         style="font-weight:bold"
         id="path34088" />
      <path
         d="m 176.32443,254.0852 h 7.24228 v 1.02216 h -7.24228 z"
         style="font-weight:bold"
         id="path34090" />
      <path
         d="m 184.43832,254.0852 h 7.24228 v 1.02216 h -7.24228 z"
         style="font-weight:bold"
         id="path34092" />
      <path
         d="m 192.55221,254.0852 h 7.24228 v 1.02216 h -7.24228 z"
         style="font-weight:bold"
         id="path34094" />
    </g>
  </g>
</svg>
