<?xml version="1.0" encoding="UTF-8" standalone="no"?>
<svg
   width="23.918482mm"
   height="15.058928mm"
   viewBox="0 0 23.918482 15.058928"
   version="1.1"
   id="svg5"
   sodipodi:docname="ulamkowy.svg"
   inkscape:version="1.1-dev (2afca83fab, 2021-01-02, custom)"
   xmlns:inkscape="http://www.inkscape.org/namespaces/inkscape"
   xmlns:sodipodi="http://sodipodi.sourceforge.net/DTD/sodipodi-0.dtd"
   xmlns="http://www.w3.org/2000/svg"
   xmlns:svg="http://www.w3.org/2000/svg">
  <sodipodi:namedview
     id="namedview7"
     pagecolor="#ffffff"
     bordercolor="#666666"
     borderopacity="1.0"
     objecttolerance="10.0"
     gridtolerance="10.0"
     guidetolerance="10.0"
     inkscape:pageshadow="2"
     inkscape:pageopacity="0.0"
     inkscape:pagecheckerboard="false"
     inkscape:document-units="mm"
     showgrid="false"
     inkscape:zoom="8"
     inkscape:cx="60.6875"
     inkscape:cy="48.625"
     inkscape:window-width="1920"
     inkscape:window-height="1050"
     inkscape:window-x="0"
     inkscape:window-y="30"
     inkscape:window-maximized="1"
     inkscape:current-layer="layer2"
     showguides="true"
     inkscape:guide-bbox="true"
     fit-margin-top="2"
     lock-margins="true"
     fit-margin-left="2"
     fit-margin-right="2"
     fit-margin-bottom="2">
    <sodipodi:guide
       position="12.637482,23.61338"
       orientation="0,-1"
       id="guide114625" />
    <sodipodi:guide
       position="5.964264,15.62559"
       orientation="0,-1"
       id="guide62049" />
  </sodipodi:namedview>
  <defs
     id="defs2">
    <rect
       x="37.867695"
       y="48.019367"
       width="8.656539"
       height="7.6469045"
       id="rect5963" />
    <rect
       x="47.465401"
       y="72.975159"
       width="3.9593773"
       height="3.9593811"
       id="rect153091" />
    <rect
       x="47.465401"
       y="69.015778"
       width="3.9593773"
       height="3.9593811"
       id="rect149469" />
    <rect
       x="47.465401"
       y="65.056404"
       width="3.9593773"
       height="3.9593735"
       id="rect145571" />
    <rect
       x="47.465401"
       y="61.097023"
       width="3.9593773"
       height="3.9593811"
       id="rect141459" />
    <rect
       x="47.465401"
       y="57.137646"
       width="3.9593773"
       height="3.9593773"
       id="rect133563" />
    <rect
       x="39.546646"
       y="57.137646"
       width="3.9593773"
       height="3.9593773"
       id="rect128723" />
    <rect
       x="39.546646"
       y="53.178268"
       width="3.9593773"
       height="3.9593773"
       id="rect123511" />
    <rect
       x="47.465405"
       y="53.178268"
       width="3.9593735"
       height="3.9593773"
       id="rect114443" />
    <rect
       x="47.465405"
       y="49.218891"
       width="3.9593735"
       height="3.9593773"
       id="rect110257" />
    <rect
       x="39.54665"
       y="49.218891"
       width="3.9593773"
       height="3.9593773"
       id="rect105919" />
    <rect
       x="59.343533"
       y="57.137646"
       width="3.9593773"
       height="3.9593773"
       id="rect100509" />
    <rect
       x="59.343536"
       y="53.178268"
       width="3.9593735"
       height="3.9593773"
       id="rect96317" />
    <rect
       x="59.343536"
       y="49.218891"
       width="3.9593735"
       height="3.9593773"
       id="rect88707" />
    <rect
       x="55.384159"
       y="45.259514"
       width="3.9593773"
       height="3.9593773"
       id="rect82837" />
    <rect
       x="51.424782"
       y="45.259514"
       width="3.9593773"
       height="3.9593773"
       id="rect75055" />
    <rect
       x="47.465405"
       y="45.259514"
       width="3.9593773"
       height="3.9593773"
       id="rect64209" />
    <rect
       x="43.506027"
       y="45.259514"
       width="3.9593773"
       height="3.9593773"
       id="rect59663" />
    <rect
       x="39.54665"
       y="45.259514"
       width="3.9593773"
       height="3.9593773"
       id="rect54921" />
    <rect
       x="59.343536"
       y="45.259514"
       width="3.9593773"
       height="3.9593773"
       id="rect49555" />
    <rect
       x="59.343536"
       y="41.300137"
       width="3.9593773"
       height="3.9593773"
       id="rect40535" />
    <rect
       x="55.384159"
       y="41.300137"
       width="3.9593773"
       height="3.9593773"
       id="rect36863" />
    <rect
       x="51.424782"
       y="41.300137"
       width="3.9593773"
       height="3.9593773"
       id="rect31135" />
    <rect
       x="51.424782"
       y="41.300137"
       width="3.9593773"
       height="3.9593773"
       id="rect29017" />
    <rect
       x="47.465405"
       y="41.300137"
       width="3.9593773"
       height="3.9593773"
       id="rect24023" />
    <rect
       x="47.465405"
       y="41.300137"
       width="3.9593773"
       height="3.9593773"
       id="rect21041" />
    <rect
       x="43.506027"
       y="41.300137"
       width="3.9593773"
       height="3.9593773"
       id="rect12485" />
    <rect
       x="39.54665"
       y="41.300137"
       width="3.9593773"
       height="3.9593773"
       id="rect2521" />
    <rect
       x="59.343536"
       y="37.340759"
       width="3.9593773"
       height="3.9593773"
       id="rect146425" />
    <rect
       x="55.384159"
       y="37.340759"
       width="3.9593773"
       height="3.9593773"
       id="rect138835" />
    <rect
       x="51.424782"
       y="37.340759"
       width="3.9593773"
       height="3.9593773"
       id="rect128275" />
    <rect
       x="52.645203"
       y="38.393581"
       width="2.2943146"
       height="2.3642125"
       id="rect117599" />
    <rect
       x="47.465405"
       y="37.340759"
       width="3.9593773"
       height="3.9593773"
       id="rect112677" />
    <rect
       x="43.506027"
       y="37.340759"
       width="3.9593773"
       height="3.9593773"
       id="rect105109" />
    <rect
       x="39.54665"
       y="37.340759"
       width="3.9593773"
       height="3.9593773"
       id="rect99069" />
    <rect
       x="35.650688"
       y="73.10424"
       width="3.8409245"
       height="3.4598839"
       id="rect93155" />
    <rect
       x="35.587269"
       y="69.015778"
       width="3.9593773"
       height="3.9593811"
       id="rect81173" />
    <rect
       x="35.587269"
       y="65.056404"
       width="3.9593773"
       height="3.9593735"
       id="rect73525" />
    <rect
       x="35.587269"
       y="61.097023"
       width="3.9593773"
       height="3.9593811"
       id="rect66419" />
    <rect
       x="35.587269"
       y="57.137646"
       width="3.9593773"
       height="3.9593773"
       id="rect58853" />
    <rect
       x="35.587273"
       y="53.178268"
       width="3.9593735"
       height="3.9593773"
       id="rect51955" />
    <rect
       x="35.587273"
       y="37.340759"
       width="3.9593773"
       height="3.9593773"
       id="rect21751" />
    <rect
       x="35.587273"
       y="37.340759"
       width="3.9593773"
       height="3.9593773"
       id="rect12613" />
    <rect
       x="32.130764"
       y="54.404739"
       width="6.5085416"
       height="14.920208"
       id="rect2292" />
    <rect
       x="35.587273"
       y="37.340759"
       width="3.9593773"
       height="3.9593773"
       id="rect21751-4" />
    <rect
       x="35.587273"
       y="37.340759"
       width="3.9593773"
       height="3.9593773"
       id="rect21751-4-3" />
    <rect
       x="35.587273"
       y="37.340759"
       width="3.9593773"
       height="3.9593773"
       id="rect21751-4-8" />
    <rect
       x="35.587273"
       y="37.340759"
       width="3.9593773"
       height="3.9593773"
       id="rect21751-4-2" />
    <rect
       x="37.867695"
       y="48.019367"
       width="8.656539"
       height="7.6469045"
       id="rect5963-3" />
    <rect
       x="37.867695"
       y="48.019367"
       width="8.656539"
       height="7.6469045"
       id="rect5963-3-5" />
    <rect
       x="37.867695"
       y="48.019367"
       width="8.656539"
       height="7.6469045"
       id="rect5963-3-5-7" />
    <rect
       x="37.867695"
       y="48.019367"
       width="8.656539"
       height="7.6469045"
       id="rect5963-3-5-7-4" />
    <rect
       x="37.867695"
       y="48.019367"
       width="8.656539"
       height="7.6469045"
       id="rect5963-3-5-7-4-0" />
    <rect
       x="37.867695"
       y="48.019367"
       width="8.656539"
       height="7.6469045"
       id="rect5963-3-5-7-4-0-8" />
    <rect
       x="37.867695"
       y="48.019367"
       width="8.656539"
       height="7.6469045"
       id="rect5963-3-4" />
    <rect
       x="37.867695"
       y="48.019367"
       width="8.656539"
       height="7.6469045"
       id="rect5963-3-4-1" />
    <rect
       x="37.867695"
       y="48.019367"
       width="8.656539"
       height="7.6469045"
       id="rect5963-3-4-9" />
    <rect
       x="37.867695"
       y="48.019367"
       width="8.656539"
       height="7.6469045"
       id="rect5963-3-4-0" />
    <rect
       x="37.867695"
       y="48.019367"
       width="8.656539"
       height="7.6469045"
       id="rect5963-3-4-8" />
    <rect
       x="37.867695"
       y="48.019367"
       width="8.656539"
       height="7.6469045"
       id="rect5963-3-4-8-2" />
    <rect
       x="37.867695"
       y="48.019367"
       width="8.656539"
       height="7.6469045"
       id="rect5963-3-4-8-2-4" />
    <rect
       x="37.867695"
       y="48.019367"
       width="8.656539"
       height="7.6469045"
       id="rect5963-3-4-8-2-5" />
    <rect
       x="37.867695"
       y="48.019367"
       width="8.656539"
       height="7.6469045"
       id="rect5963-3-5-7-4-0-8-4" />
    <rect
       x="37.867695"
       y="48.019367"
       width="8.656539"
       height="7.6469045"
       id="rect5963-3-5-7-4-0-8-4-7" />
    <rect
       x="37.867695"
       y="48.019367"
       width="8.656539"
       height="7.6469045"
       id="rect5963-3-4-1-7" />
    <rect
       x="37.867695"
       y="48.019367"
       width="8.656539"
       height="7.6469045"
       id="rect5963-3-4-7" />
    <rect
       x="37.867695"
       y="48.019367"
       width="8.656539"
       height="7.6469045"
       id="rect5963-3-4-1-7-6" />
    <rect
       x="37.867695"
       y="48.019367"
       width="8.656539"
       height="7.6469045"
       id="rect5963-3-4-9-0" />
    <rect
       x="37.867695"
       y="48.019367"
       width="8.656539"
       height="7.6469045"
       id="rect5963-3-4-1-7-6-1" />
    <rect
       x="37.867695"
       y="48.019367"
       width="8.656539"
       height="7.6469045"
       id="rect5963-3-4-1-7-6-1-9" />
    <rect
       x="37.867695"
       y="48.019367"
       width="8.656539"
       height="7.6469045"
       id="rect5963-3-4-9-0-9" />
    <rect
       x="37.867695"
       y="48.019367"
       width="8.656539"
       height="7.6469045"
       id="rect5963-3-4-9-0-97" />
    <rect
       x="37.867695"
       y="48.019367"
       width="8.656539"
       height="7.6469045"
       id="rect5963-3-4-7-6" />
    <rect
       x="37.867695"
       y="48.019367"
       width="8.656539"
       height="7.6469045"
       id="rect5963-3-4-8-2-3" />
    <rect
       x="37.867695"
       y="48.019367"
       width="8.656539"
       height="7.6469045"
       id="rect5963-3-4-7-6-5" />
    <rect
       x="37.867695"
       y="48.019367"
       width="8.656539"
       height="7.6469045"
       id="rect5963-3-4-1-7-3" />
    <rect
       x="37.867695"
       y="48.019367"
       width="8.656539"
       height="7.6469045"
       id="rect5963-3-4-8-2-3-4" />
    <rect
       x="37.867695"
       y="48.019367"
       width="8.656539"
       height="7.6469045"
       id="rect5963-3-4-8-2-5-1" />
    <rect
       x="37.867695"
       y="48.019367"
       width="8.656539"
       height="7.6469045"
       id="rect5963-3-5-7-4-0-8-4-7-9" />
    <rect
       x="37.867695"
       y="48.019367"
       width="8.656539"
       height="7.6469045"
       id="rect5963-3-5-7-4-0-8-4-7-9-9" />
    <rect
       x="37.867695"
       y="48.019367"
       width="8.656539"
       height="7.6469045"
       id="rect5963-3-5-7-4-0-8-4-7-9-8" />
    <rect
       x="37.867695"
       y="48.019367"
       width="8.656539"
       height="7.6469045"
       id="rect5963-3-5-7-4-0-8-4-7-9-5" />
    <rect
       x="37.867695"
       y="48.019367"
       width="8.656539"
       height="7.6469045"
       id="rect5963-3-5-7-4-0-8-4-7-9-9-6" />
    <rect
       x="37.867695"
       y="48.019367"
       width="8.656539"
       height="7.6469045"
       id="rect5963-3-5-7-4-0-8-4-7-9-9-8" />
    <rect
       x="37.867695"
       y="48.019367"
       width="8.656539"
       height="7.6469045"
       id="rect5963-3-5-7-4-0-8-4-7-9-9-61" />
  </defs>
  <g
     inkscape:groupmode="layer"
     id="layer2"
     inkscape:label="Warstwa 2"
     transform="translate(-1.2694967,-9.7397733)">
    <g
       aria-label="ABC"
       transform="matrix(1,0,0,1.4954097,-33.967968,-60.198403)"
       id="text5961"
       style="font-size:0.705556px;line-height:1.25;letter-spacing:0px;word-spacing:0px;white-space:pre;shape-inside:url(#rect5963-3)">
      <path
         d="m 38.108344,48.197987 -0.0944,0.255971 h 0.189136 z m -0.03927,-0.06856 h 0.07889 l 0.196026,0.514353 h -0.07235 l -0.04685,-0.131947 h -0.231855 l -0.04685,0.131947 H 37.8727 Z"
         style="font-family:'Noto Serif Balinese';-inkscape-font-specification:'Noto Serif Balinese'"
         id="path1326" />
      <path
         d="m 38.488683,48.398147 v 0.188447 h 0.111621 q 0.05615,0 0.08303,-0.02308 0.02722,-0.02343 0.02722,-0.07131 0,-0.04823 -0.02722,-0.07097 -0.02687,-0.02308 -0.08303,-0.02308 z m 0,-0.211529 v 0.15503 h 0.103009 q 0.05099,0 0.07579,-0.01895 0.02515,-0.01929 0.02515,-0.05857 0,-0.03893 -0.02515,-0.05822 -0.02481,-0.01929 -0.07579,-0.01929 z m -0.06959,-0.05719 h 0.177767 q 0.07958,0 0.122646,0.03307 0.04306,0.03307 0.04306,0.09405 0,0.0472 -0.02205,0.0751 -0.02205,0.0279 -0.06477,0.0348 0.05133,0.01102 0.07958,0.04616 0.02859,0.0348 0.02859,0.08716 0,0.0689 -0.04685,0.106453 -0.04685,0.03755 -0.133326,0.03755 h -0.184657 z"
         style="font-family:'Noto Serif Balinese';-inkscape-font-specification:'Noto Serif Balinese'"
         id="path1328" />
      <path
         d="m 39.275888,48.169048 v 0.07338 q -0.03514,-0.03273 -0.0751,-0.04892 -0.03962,-0.01619 -0.08441,-0.01619 -0.08819,0 -0.135048,0.05409 -0.04685,0.05374 -0.04685,0.155718 0,0.101631 0.04685,0.155719 0.04685,0.05374 0.135048,0.05374 0.04479,0 0.08441,-0.01619 0.03996,-0.01619 0.0751,-0.04892 v 0.07269 q -0.03652,0.02481 -0.07752,0.03721 -0.04065,0.0124 -0.08613,0.0124 -0.116789,0 -0.183968,-0.07131 -0.06718,-0.07166 -0.06718,-0.195337 0,-0.124023 0.06718,-0.195337 0.06718,-0.07166 0.183968,-0.07166 0.04616,0 0.08682,0.0124 0.041,0.01206 0.07683,0.03652 z"
         style="font-family:'Noto Serif Balinese';-inkscape-font-specification:'Noto Serif Balinese'"
         id="path1330" />
    </g>
    <path
       id="rect20813"
       style="fill-rule:evenodd;stroke-width:0.264999;stroke-linecap:round;stroke-linejoin:bevel"
       d="m 3.2694967,13.098269 h 2.3960945 v 0.305617 H 3.2694967 Z" />
    <path
       id="rect20813-5"
       style="fill-rule:evenodd;stroke-width:0.212105;stroke-linecap:round;stroke-linejoin:bevel"
       d="M 6.4412704,13.100288 H 7.976307 v 0.305617 H 6.4412704 Z" />
    <g
       aria-label="DEF"
       transform="matrix(1,0,0,1.4954097,-31.386223,-60.202073)"
       id="text5961-4"
       style="font-size:0.705556px;line-height:1.25;letter-spacing:0px;word-spacing:0px;white-space:pre;shape-inside:url(#rect5963-3-5)">
      <path
         d="m 38.006025,48.186618 v 0.399976 h 0.08406 q 0.106454,0 0.155719,-0.04823 0.04961,-0.04823 0.04961,-0.152273 0,-0.103353 -0.04961,-0.15124 -0.04926,-0.04823 -0.155719,-0.04823 z m -0.06959,-0.05719 h 0.142972 q 0.149517,0 0.219452,0.06236 0.06994,0.06201 0.06994,0.194304 0,0.13298 -0.07028,0.195337 -0.07028,0.06236 -0.219108,0.06236 h -0.142972 z"
         id="path1298" />
      <path
         d="m 38.479726,48.12943 h 0.325217 V 48.188 h -0.255626 v 0.152273 h 0.244946 v 0.05857 h -0.244946 v 0.18638 h 0.261827 v 0.05857 h -0.331418 z"
         id="path1300" />
      <path
         d="m 38.925521,48.12943 h 0.29559 V 48.188 h -0.225999 v 0.151584 h 0.20395 v 0.05857 h -0.20395 v 0.245636 h -0.06959 z"
         id="path1302" />
    </g>
    <g
       aria-label="GHI"
       transform="matrix(1,0,0,1.4954097,-28.902476,-60.198488)"
       id="text5961-4-4"
       style="font-size:0.705556px;line-height:1.25;letter-spacing:0px;word-spacing:0px;white-space:pre;shape-inside:url(#rect5963-3-5-7)">
      <path
         d="m 38.287145,48.570402 v -0.138148 h -0.113688 v -0.05719 h 0.18259 v 0.220831 q -0.04031,0.02859 -0.08888,0.04341 -0.04858,0.01447 -0.103697,0.01447 -0.120579,0 -0.188791,-0.07028 -0.06787,-0.07062 -0.06787,-0.196371 0,-0.12609 0.06787,-0.19637 0.06821,-0.07062 0.188791,-0.07062 0.0503,0 0.09543,0.0124 0.04547,0.0124 0.08372,0.03652 v 0.07407 q -0.03858,-0.03273 -0.08199,-0.04927 -0.04341,-0.01654 -0.0913,-0.01654 -0.0944,0 -0.141938,0.05271 -0.0472,0.05271 -0.0472,0.157096 0,0.104042 0.0472,0.156752 0.04754,0.05271 0.141938,0.05271 0.03686,0 0.0658,-0.0062 0.02894,-0.0065 0.05202,-0.01998 z"
         id="path1291" />
      <path
         d="m 38.483171,48.12943 h 0.06959 v 0.21084 h 0.25287 v -0.21084 h 0.06959 v 0.514353 h -0.06959 v -0.244947 h -0.25287 v 0.244947 h -0.06959 z"
         id="path1293" />
      <path
         d="m 39.013716,48.12943 h 0.06959 v 0.514353 h -0.06959 z"
         id="path1295" />
    </g>
    <g
       aria-label="JKL"
       transform="matrix(1,0,0,1.4954097,-26.342841,-60.233443)"
       id="text5961-4-4-3"
       style="font-size:0.705556px;line-height:1.25;letter-spacing:0px;word-spacing:0px;white-space:pre;shape-inside:url(#rect5963-3-5-7-4)">
      <path
         d="m 37.936434,48.12943 h 0.06959 v 0.478524 q 0,0.09302 -0.03549,0.135048 -0.03514,0.04203 -0.113343,0.04203 h -0.02653 v -0.05857 h 0.0217 q 0.04616,0 0.06511,-0.02584 0.01895,-0.02584 0.01895,-0.09267 z"
         id="path1284" />
      <path
         d="m 38.144518,48.12943 h 0.06959 v 0.217386 L 38.44493,48.12943 h 0.08957 l -0.255282,0.239779 0.273541,0.274574 h -0.09164 l -0.24701,-0.247703 v 0.247703 h -0.06959 z"
         id="path1286" />
      <path
         d="m 38.607194,48.12943 h 0.06959 v 0.455786 h 0.250459 v 0.05857 h -0.32005 z"
         id="path1288" />
    </g>
    <path
       id="rect20813-6-3"
       style="display:inline;fill-rule:evenodd;stroke-width:0.208722;stroke-linecap:round;stroke-linejoin:bevel"
       d="m 11.253645,13.104627 h 1.486452 v 0.305616 h -1.486452 z" />
    <path
       id="rect20813-6-7"
       style="display:inline;fill-rule:evenodd;stroke-width:0.230444;stroke-linecap:round;stroke-linejoin:bevel"
       d="m 13.73773,13.114302 h 1.811944 v 0.305616 H 13.73773 Z" />
    <path
       id="rect20813-6-4"
       style="display:inline;fill-rule:evenodd;stroke-width:0.216219;stroke-linecap:round;stroke-linejoin:bevel"
       d="m 16.322702,13.091612 h 1.595159 v 0.305616 h -1.595159 z" />
    <path
       id="rect20813-6-5"
       style="display:inline;fill-rule:evenodd;stroke-width:0.220619;stroke-linecap:round;stroke-linejoin:bevel"
       d="m 18.908106,13.105237 h 1.660731 v 0.305616 h -1.660731 z" />
    <path
       id="rect20813-6-2"
       style="display:inline;fill-rule:evenodd;stroke-width:0.224239;stroke-linecap:round;stroke-linejoin:bevel"
       d="m 21.4723,13.102121 h 1.715678 v 0.305617 H 21.4723 Z" />
    <path
       id="rect20813-6"
       style="display:inline;fill-rule:evenodd;stroke-width:0.208722;stroke-linecap:round;stroke-linejoin:bevel"
       d="m 8.8593807,13.105 h 1.4864523 v 0.305616 H 8.8593807 Z" />
    <g
       aria-label="MNO"
       transform="matrix(1,0,0,1.4954097,-24.040081,-60.153812)"
       id="text5961-4-4-3-7"
       style="font-size:0.705556px;line-height:1.25;letter-spacing:0px;word-spacing:0px;white-space:pre;shape-inside:url(#rect5963-3-5-7-4-0)">
      <path
         d="m 37.936434,48.12943 h 0.103697 l 0.131259,0.350022 0.131947,-0.350022 h 0.103697 v 0.514353 h -0.06787 v -0.451652 l -0.132636,0.352778 h -0.06994 l -0.132636,-0.352778 v 0.451652 h -0.06752 z"
         id="path1271" />
      <path
         d="m 38.545183,48.12943 h 0.09371 l 0.228066,0.430293 V 48.12943 h 0.06752 v 0.514353 h -0.09371 L 38.612707,48.21349 v 0.430293 h -0.06752 z"
         id="path1273" />
      <path
         d="m 39.281745,48.176628 q -0.07579,0 -0.120579,0.0565 -0.04444,0.0565 -0.04444,0.153996 0,0.09715 0.04444,0.153652 0.04479,0.0565 0.120579,0.0565 0.07579,0 0.119889,-0.0565 0.04444,-0.0565 0.04444,-0.153652 0,-0.0975 -0.04444,-0.153996 -0.0441,-0.0565 -0.119889,-0.0565 z m 0,-0.0565 q 0.108176,0 0.172943,0.07269 0.06477,0.07235 0.06477,0.194303 0,0.121612 -0.06477,0.194304 -0.06477,0.07235 -0.172943,0.07235 -0.108521,0 -0.173633,-0.07235 -0.06477,-0.07235 -0.06477,-0.194304 0,-0.121956 0.06477,-0.194303 0.06511,-0.07269 0.173633,-0.07269 z"
         id="path1275" />
    </g>
    <g
       aria-label="PRS"
       transform="matrix(1,0,0,1.4954097,-21.426469,-60.179972)"
       id="text5961-4-4-3-7-8"
       style="font-size:0.705556px;line-height:1.25;letter-spacing:0px;word-spacing:0px;white-space:pre;shape-inside:url(#rect5963-3-5-7-4-0-8)">
      <path
         d="m 38.006025,48.186618 v 0.19327 h 0.08751 q 0.04858,0 0.0751,-0.02515 0.02653,-0.02515 0.02653,-0.07166 0,-0.04616 -0.02653,-0.07131 -0.02653,-0.02515 -0.0751,-0.02515 z m -0.06959,-0.05719 h 0.157096 q 0.08647,0 0.13057,0.03927 0.04444,0.03893 0.04444,0.114377 0,0.07614 -0.04444,0.115066 -0.0441,0.03893 -0.13057,0.03893 h -0.08751 v 0.206706 h -0.06959 z"
         id="path1264" />
      <path
         d="m 38.605816,48.402626 q 0.02239,0.0076 0.04341,0.03238 0.02136,0.02481 0.04272,0.06821 l 0.07062,0.14056 h -0.07476 l -0.0658,-0.131947 q -0.02549,-0.05168 -0.04961,-0.06856 -0.02377,-0.01688 -0.06511,-0.01688 h -0.07579 v 0.217386 h -0.06959 V 48.12943 H 38.519 q 0.08819,0 0.131603,0.03686 0.04341,0.03686 0.04341,0.111277 0,0.04858 -0.02274,0.08062 -0.02239,0.03204 -0.06546,0.04444 z m -0.174322,-0.216008 v 0.182591 H 38.519 q 0.0503,0 0.07579,-0.02308 0.02584,-0.02343 0.02584,-0.06856 0,-0.04513 -0.02584,-0.06787 -0.02549,-0.02308 -0.07579,-0.02308 z"
         id="path1266" />
      <path
         d="m 39.160477,48.146311 v 0.06787 q -0.03962,-0.01895 -0.07476,-0.02825 -0.03514,-0.0093 -0.06787,-0.0093 -0.05684,0 -0.08785,0.02205 -0.03066,0.02205 -0.03066,0.0627 0,0.03411 0.02033,0.05168 0.02067,0.01722 0.07786,0.0279 l 0.04203,0.0086 q 0.07786,0.01481 0.114722,0.05236 0.03721,0.03721 0.03721,0.09991 0,0.07476 -0.0503,0.113344 -0.04995,0.03858 -0.146762,0.03858 -0.03652,0 -0.07786,-0.0083 -0.041,-0.0083 -0.08509,-0.02446 v -0.07166 q 0.04237,0.02377 0.08303,0.03583 0.04065,0.01206 0.07993,0.01206 0.0596,0 0.09199,-0.02343 0.03238,-0.02343 0.03238,-0.06683 0,-0.0379 -0.02343,-0.05926 -0.02308,-0.02136 -0.07614,-0.03204 l -0.04237,-0.0083 q -0.07786,-0.0155 -0.112654,-0.04858 -0.0348,-0.03307 -0.0348,-0.09198 0,-0.06821 0.04789,-0.107487 0.04823,-0.03927 0.132636,-0.03927 0.03617,0 0.07373,0.0065 0.03755,0.0065 0.07683,0.01964 z"
         id="path1268" />
    </g>
    <g
       aria-label="1"
       transform="matrix(1,0,0,1.4954097,-33.594258,-57.77191)"
       id="text5961-3"
       style="font-size:0.705556px;line-height:1.25;letter-spacing:0px;word-spacing:0px;white-space:pre;shape-inside:url(#rect5963-3-4)">
      <path
         d="m 37.954693,48.585216 h 0.113688 V 48.19282 l -0.123679,0.0248 v -0.06339 l 0.12299,-0.02481 h 0.06959 v 0.455786 h 0.113688 v 0.05857 h -0.296278 z"
         id="path1261" />
    </g>
    <g
       aria-label="2"
       transform="matrix(1,0,0,1.4954097,-30.818308,-57.772035)"
       id="text5961-3-4"
       style="font-size:0.705556px;line-height:1.25;letter-spacing:0px;word-spacing:0px;white-space:pre;shape-inside:url(#rect5963-3-4-1)">
      <path
         d="m 38.00258,48.585216 h 0.242879 v 0.05857 h -0.326595 v -0.05857 q 0.03962,-0.041 0.107832,-0.109898 0.06856,-0.06925 0.08613,-0.08923 0.03342,-0.03755 0.04651,-0.06339 0.01344,-0.02618 0.01344,-0.05133 0,-0.041 -0.02894,-0.06684 -0.02859,-0.02584 -0.07476,-0.02584 -0.03273,0 -0.06925,0.01137 -0.03617,0.01137 -0.07751,0.03445 v -0.07028 q 0.04203,-0.01688 0.07855,-0.02549 0.03652,-0.0086 0.06683,-0.0086 0.07993,0 0.127469,0.03996 0.04754,0.03996 0.04754,0.106798 0,0.03169 -0.01206,0.06029 -0.01171,0.02825 -0.04306,0.06683 -0.0086,0.01 -0.05478,0.05788 -0.04616,0.04754 -0.130225,0.133325 z"
         id="path1258" />
    </g>
    <g
       aria-label="3"
       transform="matrix(1,0,0,1.4954097,-28.433187,-57.788406)"
       id="text5961-3-2"
       style="font-size:0.705556px;line-height:1.25;letter-spacing:0px;word-spacing:0px;white-space:pre;shape-inside:url(#rect5963-3-4-9)">
      <path
         d="m 38.153475,48.366453 q 0.04995,0.01068 0.07786,0.04444 0.02825,0.03376 0.02825,0.08337 0,0.07614 -0.05236,0.117822 -0.05237,0.04169 -0.148829,0.04169 -0.03238,0 -0.06683,-0.0065 -0.03411,-0.0062 -0.07062,-0.01895 v -0.06718 q 0.02894,0.01688 0.06339,0.02549 0.03445,0.0086 0.072,0.0086 0.06546,0 0.09956,-0.02584 0.03445,-0.02584 0.03445,-0.0751 0,-0.04548 -0.03204,-0.07097 -0.03169,-0.02584 -0.08854,-0.02584 h -0.05994 v -0.05719 h 0.0627 q 0.05133,0 0.07855,-0.02033 0.02722,-0.02067 0.02722,-0.05926 0,-0.03962 -0.02825,-0.06063 -0.02791,-0.02136 -0.08027,-0.02136 -0.02859,0 -0.06132,0.0062 -0.03273,0.0062 -0.072,0.01929 v -0.06201 q 0.03962,-0.01102 0.07407,-0.01654 0.0348,-0.0055 0.06546,-0.0055 0.07924,0 0.125402,0.03617 0.04616,0.03583 0.04616,0.09715 0,0.04272 -0.02446,0.07235 -0.02446,0.02928 -0.06959,0.04065 z"
         id="path1255" />
    </g>
    <g
       aria-label="4"
       transform="matrix(1,0,0,1.4954097,-25.993087,-57.777708)"
       id="text5961-3-6"
       style="font-size:0.705556px;line-height:1.25;letter-spacing:0px;word-spacing:0px;white-space:pre;shape-inside:url(#rect5963-3-4-0)">
      <path
         d="m 38.133838,48.190064 -0.1757,0.274574 h 0.1757 z m -0.01826,-0.06063 h 0.08751 v 0.335208 h 0.07338 v 0.05788 h -0.07338 v 0.121268 h -0.06925 v -0.121268 h -0.2322 v -0.06718 z"
         id="path1252" />
    </g>
    <g
       aria-label="5"
       transform="matrix(1,0,0,1.4954097,-23.525296,-57.769542)"
       id="text5961-3-9"
       style="font-size:0.705556px;line-height:1.25;letter-spacing:0px;word-spacing:0px;white-space:pre;shape-inside:url(#rect5963-3-4-8)">
      <path
         d="M 37.943324,48.12943 H 38.21652 V 48.188 h -0.209462 v 0.12609 q 0.01516,-0.0052 0.03032,-0.0076 0.01516,-0.0028 0.03032,-0.0028 0.08613,0 0.136426,0.0472 0.0503,0.0472 0.0503,0.127813 0,0.08303 -0.05168,0.129191 -0.05168,0.04582 -0.145728,0.04582 -0.03238,0 -0.06614,-0.0055 -0.03342,-0.0055 -0.06925,-0.01654 v -0.06994 q 0.03101,0.01688 0.06408,0.02515 0.03307,0.0083 0.06994,0.0083 0.0596,0 0.0944,-0.03135 0.03479,-0.03135 0.03479,-0.08509 0,-0.05374 -0.03479,-0.08509 -0.0348,-0.03135 -0.0944,-0.03135 -0.0279,0 -0.05581,0.0062 -0.02756,0.0062 -0.0565,0.01929 z"
         id="path1249" />
    </g>
    <g
       aria-label="6"
       transform="matrix(1,0,0,1.4954097,-20.829473,-57.793045)"
       id="text5961-3-9-6"
       style="font-size:0.705556px;line-height:1.25;letter-spacing:0px;word-spacing:0px;white-space:pre;shape-inside:url(#rect5963-3-4-8-2)">
      <path
         d="m 38.100076,48.358873 q -0.04685,0 -0.07441,0.03204 -0.02722,0.03204 -0.02722,0.08785 0,0.05547 0.02722,0.08785 0.02756,0.03204 0.07441,0.03204 0.04685,0 0.07407,-0.03204 0.02756,-0.03238 0.02756,-0.08785 0,-0.05581 -0.02756,-0.08785 -0.02722,-0.03204 -0.07407,-0.03204 z m 0.138149,-0.218074 v 0.06339 q -0.02618,-0.0124 -0.05306,-0.01895 -0.02653,-0.0065 -0.05271,-0.0065 -0.0689,0 -0.10542,0.04651 -0.03617,0.04651 -0.04134,0.14056 0.02033,-0.02997 0.05099,-0.04582 0.03066,-0.01619 0.06752,-0.01619 0.07751,0 0.122301,0.0472 0.04513,0.04685 0.04513,0.127813 0,0.07924 -0.04685,0.127124 -0.04685,0.04789 -0.124713,0.04789 -0.08923,0 -0.136426,-0.06821 -0.0472,-0.06856 -0.0472,-0.198438 0,-0.121956 0.05788,-0.194303 0.05788,-0.07269 0.155374,-0.07269 0.02618,0 0.05271,0.0052 0.02687,0.0052 0.05581,0.0155 z"
         id="path1246" />
    </g>
    <g
       aria-label="7"
       transform="matrix(1,0,0,1.4954097,-18.246875,-57.779231)"
       id="text5961-3-9-6-9"
       style="font-size:0.705556px;line-height:1.25;letter-spacing:0px;word-spacing:0px;white-space:pre;shape-inside:url(#rect5963-3-4-8-2-4)">
      <path
         d="m 37.925065,48.12943 h 0.33073 v 0.02963 l -0.186725,0.484725 h -0.07269 l 0.1757,-0.455786 h -0.247014 z"
         id="path1243" />
    </g>
    <g
       aria-label="8"
       transform="matrix(1,0,0,1.4954097,-15.793606,-57.778152)"
       id="text5961-3-9-6-0"
       style="font-size:0.705556px;line-height:1.25;letter-spacing:0px;word-spacing:0px;white-space:pre;shape-inside:url(#rect5963-3-4-8-2-5)">
      <path
         d="m 38.091463,48.399526 q -0.04961,0 -0.0782,0.02653 -0.02825,0.02653 -0.02825,0.07304 0,0.04651 0.02825,0.07304 0.02859,0.02653 0.0782,0.02653 0.04961,0 0.0782,-0.02653 0.02859,-0.02687 0.02859,-0.07304 0,-0.04651 -0.02859,-0.07304 -0.02825,-0.02653 -0.0782,-0.02653 z m -0.06959,-0.02963 q -0.04479,-0.01102 -0.06994,-0.04169 -0.02481,-0.03066 -0.02481,-0.07476 0,-0.06167 0.04375,-0.0975 0.0441,-0.03583 0.120578,-0.03583 0.07683,0 0.120579,0.03583 0.04375,0.03583 0.04375,0.0975 0,0.0441 -0.02515,0.07476 -0.0248,0.03066 -0.06925,0.04169 0.0503,0.01171 0.0782,0.04582 0.02825,0.03411 0.02825,0.08337 0,0.07476 -0.04582,0.114722 -0.04548,0.03996 -0.13057,0.03996 -0.08509,0 -0.130913,-0.03996 -0.04548,-0.03996 -0.04548,-0.114722 0,-0.04926 0.02825,-0.08337 0.02825,-0.03411 0.07855,-0.04582 z m -0.02549,-0.109899 q 0,0.03996 0.0248,0.06236 0.02515,0.02239 0.07028,0.02239 0.04479,0 0.06994,-0.02239 0.02549,-0.02239 0.02549,-0.06236 0,-0.03996 -0.02549,-0.06236 -0.02515,-0.02239 -0.06994,-0.02239 -0.04513,0 -0.07028,0.02239 -0.0248,0.02239 -0.0248,0.06236 z"
         id="path1240" />
    </g>
    <g
       aria-label="TUW"
       transform="matrix(1,0,0,1.4954097,-18.886345,-60.189774)"
       id="text5961-4-4-3-7-8-8"
       style="font-size:0.705556px;line-height:1.25;letter-spacing:0px;word-spacing:0px;white-space:pre;shape-inside:url(#rect5963-3-5-7-4-0-8-4)">
      <path
         d="m 37.86512,48.12943 h 0.435116 V 48.188 h -0.18259 v 0.455786 h -0.06994 V 48.187997 H 37.86512 Z"
         id="path1233" />
      <path
         d="m 38.359492,48.12943 h 0.06993 v 0.31247 q 0,0.08268 0.02997,0.119201 0.02997,0.03617 0.09715,0.03617 0.06683,0 0.09681,-0.03617 0.02997,-0.03652 0.02997,-0.119201 v -0.31247 h 0.06994 v 0.321083 q 0,0.100597 -0.04995,0.151929 -0.04961,0.05133 -0.146761,0.05133 -0.0975,0 -0.147451,-0.05133 -0.04961,-0.05133 -0.04961,-0.151929 z"
         id="path1235" />
      <path
         d="m 38.838016,48.12943 h 0.07028 l 0.108176,0.434771 0.107832,-0.434771 h 0.0782 l 0.108176,0.434771 0.107832,-0.434771 h 0.07062 l -0.129191,0.514353 h -0.08751 l -0.108521,-0.446485 -0.109554,0.446485 h -0.08751 z"
         id="path1237" />
    </g>
    <g
       aria-label="XYZ"
       transform="matrix(1,0,0,1.4954097,-16.238008,-60.185906)"
       id="text5961-4-4-3-7-8-8-1"
       style="font-size:0.705556px;line-height:1.25;letter-spacing:0px;word-spacing:0px;white-space:pre;shape-inside:url(#rect5963-3-5-7-4-0-8-4-7)">
      <path
         d="m 37.911629,48.12943 h 0.07476 l 0.127813,0.191203 0.128502,-0.191203 h 0.07476 l -0.165365,0.247013 0.176389,0.26734 h -0.07476 l -0.144694,-0.218764 -0.145727,0.218764 h -0.0751 l 0.183623,-0.274574 z"
         id="path1226" />
      <path
         d="m 38.349157,48.12943 h 0.07476 l 0.142627,0.211529 0.141594,-0.211529 h 0.07476 l -0.181901,0.269406 v 0.244947 h -0.06994 v -0.244947 z"
         id="path1228" />
      <path
         d="m 38.821135,48.12943 h 0.40411 v 0.05305 l -0.325217,0.402732 h 0.333141 v 0.05857 h -0.419958 v -0.05306 l 0.325217,-0.402731 h -0.317293 z"
         id="path1230" />
    </g>
    <g
       aria-label="2"
       transform="matrix(1,0,0,1.4954097,-29.002332,-53.513901)"
       id="text5961-3-4-2"
       style="font-size:0.705556px;line-height:1.25;letter-spacing:0px;word-spacing:0px;white-space:pre;shape-inside:url(#rect5963-3-4-1-7)">
      <path
         d="m 38.00258,48.585216 h 0.242879 v 0.05857 h -0.326595 v -0.05857 q 0.03962,-0.041 0.107832,-0.109898 0.06856,-0.06925 0.08613,-0.08923 0.03342,-0.03755 0.04651,-0.06339 0.01344,-0.02618 0.01344,-0.05133 0,-0.041 -0.02894,-0.06684 -0.02859,-0.02584 -0.07476,-0.02584 -0.03273,0 -0.06925,0.01137 -0.03617,0.01137 -0.07751,0.03445 v -0.07028 q 0.04203,-0.01688 0.07855,-0.02549 0.03652,-0.0086 0.06683,-0.0086 0.07993,0 0.127469,0.03996 0.04754,0.03996 0.04754,0.106798 0,0.03169 -0.01206,0.06029 -0.01171,0.02825 -0.04306,0.06683 -0.0086,0.01 -0.05478,0.05788 -0.04616,0.04754 -0.130225,0.133325 z"
         id="path1223" />
    </g>
    <g
       aria-label="1"
       transform="matrix(1,0,0,1.4954097,-27.963087,-53.529073)"
       id="text5961-3-22"
       style="font-size:0.705556px;line-height:1.25;letter-spacing:0px;word-spacing:0px;white-space:pre;shape-inside:url(#rect5963-3-4-7)">
      <path
         d="m 37.954693,48.585216 h 0.113688 V 48.19282 l -0.123679,0.0248 v -0.06339 l 0.12299,-0.02481 h 0.06959 v 0.455786 h 0.113688 v 0.05857 h -0.296278 z"
         id="path1220" />
    </g>
    <g
       aria-label="2"
       transform="matrix(1,0,0,1.4954097,-26.945394,-53.534545)"
       id="text5961-3-4-2-1"
       style="font-size:0.705556px;line-height:1.25;letter-spacing:0px;word-spacing:0px;white-space:pre;shape-inside:url(#rect5963-3-4-1-7-6)">
      <path
         d="m 38.00258,48.585216 h 0.242879 v 0.05857 h -0.326595 v -0.05857 q 0.03962,-0.041 0.107832,-0.109898 0.06856,-0.06925 0.08613,-0.08923 0.03342,-0.03755 0.04651,-0.06339 0.01344,-0.02618 0.01344,-0.05133 0,-0.041 -0.02894,-0.06684 -0.02859,-0.02584 -0.07476,-0.02584 -0.03273,0 -0.06925,0.01137 -0.03617,0.01137 -0.07751,0.03445 v -0.07028 q 0.04203,-0.01688 0.07855,-0.02549 0.03652,-0.0086 0.06683,-0.0086 0.07993,0 0.127469,0.03996 0.04754,0.03996 0.04754,0.106798 0,0.03169 -0.01206,0.06029 -0.01171,0.02825 -0.04306,0.06683 -0.0086,0.01 -0.05478,0.05788 -0.04616,0.04754 -0.130225,0.133325 z"
         id="path1217" />
    </g>
    <g
       aria-label="3"
       transform="matrix(1,0,0,1.4954097,-25.871368,-53.555755)"
       id="text5961-3-2-6"
       style="font-size:0.705556px;line-height:1.25;letter-spacing:0px;word-spacing:0px;white-space:pre;shape-inside:url(#rect5963-3-4-9-0)">
      <path
         d="m 38.153475,48.366453 q 0.04995,0.01068 0.07786,0.04444 0.02825,0.03376 0.02825,0.08337 0,0.07614 -0.05236,0.117822 -0.05237,0.04169 -0.148829,0.04169 -0.03238,0 -0.06683,-0.0065 -0.03411,-0.0062 -0.07062,-0.01895 v -0.06718 q 0.02894,0.01688 0.06339,0.02549 0.03445,0.0086 0.072,0.0086 0.06546,0 0.09956,-0.02584 0.03445,-0.02584 0.03445,-0.0751 0,-0.04548 -0.03204,-0.07097 -0.03169,-0.02584 -0.08854,-0.02584 h -0.05994 v -0.05719 h 0.0627 q 0.05133,0 0.07855,-0.02033 0.02722,-0.02067 0.02722,-0.05926 0,-0.03962 -0.02825,-0.06063 -0.02791,-0.02136 -0.08027,-0.02136 -0.02859,0 -0.06132,0.0062 -0.03273,0.0062 -0.072,0.01929 v -0.06201 q 0.03962,-0.01102 0.07407,-0.01654 0.0348,-0.0055 0.06546,-0.0055 0.07924,0 0.125402,0.03617 0.04616,0.03583 0.04616,0.09715 0,0.04272 -0.02446,0.07235 -0.02446,0.02928 -0.06959,0.04065 z"
         id="path1214" />
    </g>
    <g
       aria-label="2"
       transform="matrix(1,0,0,1.4954097,-24.755837,-53.535384)"
       id="text5961-3-4-2-1-5"
       style="font-size:0.705556px;line-height:1.25;letter-spacing:0px;word-spacing:0px;white-space:pre;shape-inside:url(#rect5963-3-4-1-7-6-1)">
      <path
         d="m 38.00258,48.585216 h 0.242879 v 0.05857 h -0.326595 v -0.05857 q 0.03962,-0.041 0.107832,-0.109898 0.06856,-0.06925 0.08613,-0.08923 0.03342,-0.03755 0.04651,-0.06339 0.01344,-0.02618 0.01344,-0.05133 0,-0.041 -0.02894,-0.06684 -0.02859,-0.02584 -0.07476,-0.02584 -0.03273,0 -0.06925,0.01137 -0.03617,0.01137 -0.07751,0.03445 v -0.07028 q 0.04203,-0.01688 0.07855,-0.02549 0.03652,-0.0086 0.06683,-0.0086 0.07993,0 0.127469,0.03996 0.04754,0.03996 0.04754,0.106798 0,0.03169 -0.01206,0.06029 -0.01171,0.02825 -0.04306,0.06683 -0.0086,0.01 -0.05478,0.05788 -0.04616,0.04754 -0.130225,0.133325 z"
         id="path1211" />
    </g>
    <g
       aria-label="2"
       transform="matrix(1,0,0,1.4954097,-23.665885,-53.537986)"
       id="text5961-3-4-2-1-5-4"
       style="font-size:0.705556px;line-height:1.25;letter-spacing:0px;word-spacing:0px;white-space:pre;shape-inside:url(#rect5963-3-4-1-7-6-1-9)">
      <path
         d="m 38.00258,48.585216 h 0.242879 v 0.05857 h -0.326595 v -0.05857 q 0.03962,-0.041 0.107832,-0.109898 0.06856,-0.06925 0.08613,-0.08923 0.03342,-0.03755 0.04651,-0.06339 0.01344,-0.02618 0.01344,-0.05133 0,-0.041 -0.02894,-0.06684 -0.02859,-0.02584 -0.07476,-0.02584 -0.03273,0 -0.06925,0.01137 -0.03617,0.01137 -0.07751,0.03445 v -0.07028 q 0.04203,-0.01688 0.07855,-0.02549 0.03652,-0.0086 0.06683,-0.0086 0.07993,0 0.127469,0.03996 0.04754,0.03996 0.04754,0.106798 0,0.03169 -0.01206,0.06029 -0.01171,0.02825 -0.04306,0.06683 -0.0086,0.01 -0.05478,0.05788 -0.04616,0.04754 -0.130225,0.133325 z"
         id="path1208" />
    </g>
    <g
       aria-label="3"
       transform="matrix(1,0,0,1.4954097,-22.604842,-53.554135)"
       id="text5961-3-2-6-0"
       style="font-size:0.705556px;line-height:1.25;letter-spacing:0px;word-spacing:0px;white-space:pre;shape-inside:url(#rect5963-3-4-9-0-9)">
      <path
         d="m 38.153475,48.366453 q 0.04995,0.01068 0.07786,0.04444 0.02825,0.03376 0.02825,0.08337 0,0.07614 -0.05236,0.117822 -0.05237,0.04169 -0.148829,0.04169 -0.03238,0 -0.06683,-0.0065 -0.03411,-0.0062 -0.07062,-0.01895 v -0.06718 q 0.02894,0.01688 0.06339,0.02549 0.03445,0.0086 0.072,0.0086 0.06546,0 0.09956,-0.02584 0.03445,-0.02584 0.03445,-0.0751 0,-0.04548 -0.03204,-0.07097 -0.03169,-0.02584 -0.08854,-0.02584 h -0.05994 v -0.05719 h 0.0627 q 0.05133,0 0.07855,-0.02033 0.02722,-0.02067 0.02722,-0.05926 0,-0.03962 -0.02825,-0.06063 -0.02791,-0.02136 -0.08027,-0.02136 -0.02859,0 -0.06132,0.0062 -0.03273,0.0062 -0.072,0.01929 v -0.06201 q 0.03962,-0.01102 0.07407,-0.01654 0.0348,-0.0055 0.06546,-0.0055 0.07924,0 0.125402,0.03617 0.04616,0.03583 0.04616,0.09715 0,0.04272 -0.02446,0.07235 -0.02446,0.02928 -0.06959,0.04065 z"
         id="path1205" />
    </g>
    <path
       id="rect20813-6-3-9"
       style="display:inline;fill-rule:evenodd;stroke-width:0.149746;stroke-linecap:round;stroke-linejoin:bevel"
       d="m 8.7052994,19.695354 h 0.765112 v 0.305617 h -0.765112 z" />
    <path
       id="rect20813-6-3-9-1"
       style="display:inline;fill-rule:evenodd;stroke-width:0.118556;stroke-linecap:round;stroke-linejoin:bevel"
       d="m 9.8760395,19.697506 h 0.4795795 v 0.305616 H 9.8760395 Z" />
    <path
       id="rect20813-6-3-9-7"
       style="display:inline;fill-rule:evenodd;stroke-width:0.149746;stroke-linecap:round;stroke-linejoin:bevel"
       d="m 10.658599,19.693874 h 0.765112 v 0.305617 h -0.765112 z" />
    <path
       id="rect20813-6-3-9-1-7"
       style="display:inline;fill-rule:evenodd;stroke-width:0.131718;stroke-linecap:round;stroke-linejoin:bevel"
       d="m 11.860902,19.686436 h 0.591977 v 0.305616 h -0.591977 z" />
    <path
       id="rect20813-6-3-9-1-1"
       style="display:inline;fill-rule:evenodd;stroke-width:0.146016;stroke-linecap:round;stroke-linejoin:bevel"
       d="m 12.875585,19.678909 h 0.727464 v 0.305617 h -0.727464 z" />
    <path
       id="rect20813-6-3-9-1-1-1"
       style="display:inline;fill-rule:evenodd;stroke-width:0.146016;stroke-linecap:round;stroke-linejoin:bevel"
       d="m 14.045808,19.674969 h 0.727464 v 0.305616 h -0.727464 z" />
    <path
       id="rect20813-6-3-9-1-1-5"
       style="display:inline;fill-rule:evenodd;stroke-width:0.141901;stroke-linecap:round;stroke-linejoin:bevel"
       d="m 15.278255,19.673292 h 0.687037 v 0.305616 h -0.687037 z" />
    <g
       aria-label="3"
       transform="matrix(1,0,0,1.4954097,-28.9486,-51.560663)"
       id="text5961-3-2-6-7"
       style="font-size:0.705556px;line-height:1.25;letter-spacing:0px;word-spacing:0px;white-space:pre;shape-inside:url(#rect5963-3-4-9-0-97)">
      <path
         d="m 38.153475,48.366453 q 0.04995,0.01068 0.07786,0.04444 0.02825,0.03376 0.02825,0.08337 0,0.07614 -0.05236,0.117822 -0.05237,0.04169 -0.148829,0.04169 -0.03238,0 -0.06683,-0.0065 -0.03411,-0.0062 -0.07062,-0.01895 v -0.06718 q 0.02894,0.01688 0.06339,0.02549 0.03445,0.0086 0.072,0.0086 0.06546,0 0.09956,-0.02584 0.03445,-0.02584 0.03445,-0.0751 0,-0.04548 -0.03204,-0.07097 -0.03169,-0.02584 -0.08854,-0.02584 h -0.05994 v -0.05719 h 0.0627 q 0.05133,0 0.07855,-0.02033 0.02722,-0.02067 0.02722,-0.05926 0,-0.03962 -0.02825,-0.06063 -0.02791,-0.02136 -0.08027,-0.02136 -0.02859,0 -0.06132,0.0062 -0.03273,0.0062 -0.072,0.01929 v -0.06201 q 0.03962,-0.01102 0.07407,-0.01654 0.0348,-0.0055 0.06546,-0.0055 0.07924,0 0.125402,0.03617 0.04616,0.03583 0.04616,0.09715 0,0.04272 -0.02446,0.07235 -0.02446,0.02928 -0.06959,0.04065 z"
         id="path1195" />
    </g>
    <g
       aria-label="1"
       transform="matrix(1,0,0,1.4954097,-27.904182,-51.561031)"
       id="text5961-3-22-7"
       style="font-size:0.705556px;line-height:1.25;letter-spacing:0px;word-spacing:0px;white-space:pre;shape-inside:url(#rect5963-3-4-7-6)">
      <path
         d="m 37.954693,48.585216 h 0.113688 V 48.19282 l -0.123679,0.0248 v -0.06339 l 0.12299,-0.02481 h 0.06959 v 0.455786 h 0.113688 v 0.05857 h -0.296278 z"
         id="path1192" />
    </g>
    <g
       aria-label="6"
       transform="matrix(1,0,0,1.4954097,-26.891868,-51.552089)"
       id="text5961-3-9-6-6"
       style="font-size:0.705556px;line-height:1.25;letter-spacing:0px;word-spacing:0px;white-space:pre;shape-inside:url(#rect5963-3-4-8-2-3)">
      <path
         d="m 38.100076,48.358873 q -0.04685,0 -0.07441,0.03204 -0.02722,0.03204 -0.02722,0.08785 0,0.05547 0.02722,0.08785 0.02756,0.03204 0.07441,0.03204 0.04685,0 0.07407,-0.03204 0.02756,-0.03238 0.02756,-0.08785 0,-0.05581 -0.02756,-0.08785 -0.02722,-0.03204 -0.07407,-0.03204 z m 0.138149,-0.218074 v 0.06339 q -0.02618,-0.0124 -0.05306,-0.01895 -0.02653,-0.0065 -0.05271,-0.0065 -0.0689,0 -0.10542,0.04651 -0.03617,0.04651 -0.04134,0.14056 0.02033,-0.02997 0.05099,-0.04582 0.03066,-0.01619 0.06752,-0.01619 0.07751,0 0.122301,0.0472 0.04513,0.04685 0.04513,0.127813 0,0.07924 -0.04685,0.127124 -0.04685,0.04789 -0.124713,0.04789 -0.08923,0 -0.136426,-0.06821 -0.0472,-0.06856 -0.0472,-0.198438 0,-0.121956 0.05788,-0.194303 0.05788,-0.07269 0.155374,-0.07269 0.02618,0 0.05271,0.0052 0.02687,0.0052 0.05581,0.0155 z"
         id="path1189" />
    </g>
    <g
       aria-label="1"
       transform="matrix(1,0,0,1.4954097,-25.854862,-51.567296)"
       id="text5961-3-22-7-6"
       style="font-size:0.705556px;line-height:1.25;letter-spacing:0px;word-spacing:0px;white-space:pre;shape-inside:url(#rect5963-3-4-7-6-5)">
      <path
         d="m 37.954693,48.585216 h 0.113688 V 48.19282 l -0.123679,0.0248 v -0.06339 l 0.12299,-0.02481 h 0.06959 v 0.455786 h 0.113688 v 0.05857 h -0.296278 z"
         id="path1186" />
    </g>
    <g
       aria-label="2"
       transform="matrix(1,0,0,1.4954097,-24.827979,-51.565398)"
       id="text5961-3-4-2-9"
       style="font-size:0.705556px;line-height:1.25;letter-spacing:0px;word-spacing:0px;white-space:pre;shape-inside:url(#rect5963-3-4-1-7-3)">
      <path
         d="m 38.00258,48.585216 h 0.242879 v 0.05857 h -0.326595 v -0.05857 q 0.03962,-0.041 0.107832,-0.109898 0.06856,-0.06925 0.08613,-0.08923 0.03342,-0.03755 0.04651,-0.06339 0.01344,-0.02618 0.01344,-0.05133 0,-0.041 -0.02894,-0.06684 -0.02859,-0.02584 -0.07476,-0.02584 -0.03273,0 -0.06925,0.01137 -0.03617,0.01137 -0.07751,0.03445 v -0.07028 q 0.04203,-0.01688 0.07855,-0.02549 0.03652,-0.0086 0.06683,-0.0086 0.07993,0 0.127469,0.03996 0.04754,0.03996 0.04754,0.106798 0,0.03169 -0.01206,0.06029 -0.01171,0.02825 -0.04306,0.06683 -0.0086,0.01 -0.05478,0.05788 -0.04616,0.04754 -0.130225,0.133325 z"
         id="path1183" />
    </g>
    <g
       aria-label="6"
       transform="matrix(1,0,0,1.4954097,-23.75832,-51.556329)"
       id="text5961-3-9-6-6-8"
       style="font-size:0.705556px;line-height:1.25;letter-spacing:0px;word-spacing:0px;white-space:pre;shape-inside:url(#rect5963-3-4-8-2-3-4)">
      <path
         d="m 38.100076,48.358873 q -0.04685,0 -0.07441,0.03204 -0.02722,0.03204 -0.02722,0.08785 0,0.05547 0.02722,0.08785 0.02756,0.03204 0.07441,0.03204 0.04685,0 0.07407,-0.03204 0.02756,-0.03238 0.02756,-0.08785 0,-0.05581 -0.02756,-0.08785 -0.02722,-0.03204 -0.07407,-0.03204 z m 0.138149,-0.218074 v 0.06339 q -0.02618,-0.0124 -0.05306,-0.01895 -0.02653,-0.0065 -0.05271,-0.0065 -0.0689,0 -0.10542,0.04651 -0.03617,0.04651 -0.04134,0.14056 0.02033,-0.02997 0.05099,-0.04582 0.03066,-0.01619 0.06752,-0.01619 0.07751,0 0.122301,0.0472 0.04513,0.04685 0.04513,0.127813 0,0.07924 -0.04685,0.127124 -0.04685,0.04789 -0.124713,0.04789 -0.08923,0 -0.136426,-0.06821 -0.0472,-0.06856 -0.0472,-0.198438 0,-0.121956 0.05788,-0.194303 0.05788,-0.07269 0.155374,-0.07269 0.02618,0 0.05271,0.0052 0.02687,0.0052 0.05581,0.0155 z"
         id="path1180" />
    </g>
    <g
       aria-label="8"
       transform="matrix(1,0,0,1.4954097,-22.661681,-51.54571)"
       id="text5961-3-9-6-0-2"
       style="font-size:0.705556px;line-height:1.25;letter-spacing:0px;word-spacing:0px;white-space:pre;shape-inside:url(#rect5963-3-4-8-2-5-1)">
      <path
         d="m 38.091463,48.399526 q -0.04961,0 -0.0782,0.02653 -0.02825,0.02653 -0.02825,0.07304 0,0.04651 0.02825,0.07304 0.02859,0.02653 0.0782,0.02653 0.04961,0 0.0782,-0.02653 0.02859,-0.02687 0.02859,-0.07304 0,-0.04651 -0.02859,-0.07304 -0.02825,-0.02653 -0.0782,-0.02653 z m -0.06959,-0.02963 q -0.04479,-0.01102 -0.06994,-0.04169 -0.02481,-0.03066 -0.02481,-0.07476 0,-0.06167 0.04375,-0.0975 0.0441,-0.03583 0.120578,-0.03583 0.07683,0 0.120579,0.03583 0.04375,0.03583 0.04375,0.0975 0,0.0441 -0.02515,0.07476 -0.0248,0.03066 -0.06925,0.04169 0.0503,0.01171 0.0782,0.04582 0.02825,0.03411 0.02825,0.08337 0,0.07476 -0.04582,0.114722 -0.04548,0.03996 -0.13057,0.03996 -0.08509,0 -0.130913,-0.03996 -0.04548,-0.03996 -0.04548,-0.114722 0,-0.04926 0.02825,-0.08337 0.02825,-0.03411 0.07855,-0.04582 z m -0.02549,-0.109899 q 0,0.03996 0.0248,0.06236 0.02515,0.02239 0.07028,0.02239 0.04479,0 0.06994,-0.02239 0.02549,-0.02239 0.02549,-0.06236 0,-0.03996 -0.02549,-0.06236 -0.02515,-0.02239 -0.06994,-0.02239 -0.04513,0 -0.07028,0.02239 -0.0248,0.02239 -0.0248,0.06236 z"
         id="path1177" />
    </g>
    <g
       aria-label="Z"
       transform="matrix(1,0,0,1.4954097,-22.603456,-49.958199)"
       id="text5961-4-4-3-7-8-8-1-3"
       style="font-size:0.705556px;line-height:1.25;letter-spacing:0px;word-spacing:0px;white-space:pre;shape-inside:url(#rect5963-3-5-7-4-0-8-4-7-9)">
      <path
         d="m 37.906806,48.12943 h 0.40411 v 0.05305 l -0.325217,0.402732 h 0.333141 v 0.05857 h -0.419958 v -0.05306 L 38.2241,48.187997 h -0.317294 z"
         id="path1174" />
    </g>
    <g
       aria-label="R"
       transform="matrix(1,0,0,1.4954097,-23.737772,-49.950692)"
       id="text5961-4-4-3-7-8-8-1-3-0"
       style="font-size:0.705556px;line-height:1.25;letter-spacing:0px;word-spacing:0px;white-space:pre;shape-inside:url(#rect5963-3-5-7-4-0-8-4-7-9-9)">
      <path
         d="m 38.180347,48.402626 q 0.02239,0.0076 0.04341,0.03238 0.02136,0.02481 0.04272,0.06821 l 0.07062,0.14056 h -0.07476 l -0.0658,-0.131947 q -0.02549,-0.05168 -0.04961,-0.06856 -0.02377,-0.01688 -0.06511,-0.01688 h -0.07579 v 0.217386 h -0.06959 V 48.12943 h 0.157096 q 0.08819,0 0.131603,0.03686 0.04341,0.03686 0.04341,0.111277 0,0.04858 -0.02274,0.08062 -0.02239,0.03204 -0.06546,0.04444 z m -0.174322,-0.216008 v 0.182591 h 0.08751 q 0.0503,0 0.07579,-0.02308 0.02584,-0.02343 0.02584,-0.06856 0,-0.04513 -0.02584,-0.06787 -0.02549,-0.02308 -0.07579,-0.02308 z"
         id="path1171" />
    </g>
    <g
       aria-label="E"
       transform="matrix(1,0,0,1.4954097,-24.858164,-49.946173)"
       id="text5961-4-4-3-7-8-8-1-3-8"
       style="font-size:0.705556px;line-height:1.25;letter-spacing:0px;word-spacing:0px;white-space:pre;shape-inside:url(#rect5963-3-5-7-4-0-8-4-7-9-8)">
      <path
         d="m 37.936434,48.12943 h 0.325217 V 48.188 h -0.255626 v 0.152273 h 0.244946 v 0.05857 h -0.244946 v 0.18638 h 0.261827 v 0.05857 h -0.331418 z"
         id="path1168" />
    </g>
    <g
       aria-label="C"
       transform="matrix(1,0,0,1.4954097,-26.048173,-49.959168)"
       id="text5961-4-4-3-7-8-8-1-3-09"
       style="font-size:0.705556px;line-height:1.25;letter-spacing:0px;word-spacing:0px;white-space:pre;shape-inside:url(#rect5963-3-5-7-4-0-8-4-7-9-5)">
      <path
         d="m 38.321596,48.169048 v 0.07338 q -0.03514,-0.03273 -0.0751,-0.04892 -0.03962,-0.01619 -0.08441,-0.01619 -0.08819,0 -0.135048,0.05409 -0.04685,0.05374 -0.04685,0.155718 0,0.101631 0.04685,0.155719 0.04685,0.05374 0.135048,0.05374 0.04479,0 0.08441,-0.01619 0.03996,-0.01619 0.0751,-0.04892 v 0.07269 q -0.03652,0.02481 -0.07751,0.03721 -0.04065,0.0124 -0.08613,0.0124 -0.116789,0 -0.183968,-0.07131 -0.06718,-0.07166 -0.06718,-0.195337 0,-0.124023 0.06718,-0.195337 0.06718,-0.07166 0.183968,-0.07166 0.04616,0 0.08682,0.0124 0.041,0.01206 0.07683,0.03652 z"
         id="path1165" />
    </g>
    <g
       aria-label="R"
       transform="matrix(1,0,0,1.4954097,-26.961942,-49.947863)"
       id="text5961-4-4-3-7-8-8-1-3-0-3"
       style="font-size:0.705556px;line-height:1.25;letter-spacing:0px;word-spacing:0px;white-space:pre;shape-inside:url(#rect5963-3-5-7-4-0-8-4-7-9-9-6)">
      <path
         d="m 38.180347,48.402626 q 0.02239,0.0076 0.04341,0.03238 0.02136,0.02481 0.04272,0.06821 l 0.07062,0.14056 h -0.07476 l -0.0658,-0.131947 q -0.02549,-0.05168 -0.04961,-0.06856 -0.02377,-0.01688 -0.06511,-0.01688 h -0.07579 v 0.217386 h -0.06959 V 48.12943 h 0.157096 q 0.08819,0 0.131603,0.03686 0.04341,0.03686 0.04341,0.111277 0,0.04858 -0.02274,0.08062 -0.02239,0.03204 -0.06546,0.04444 z m -0.174322,-0.216008 v 0.182591 h 0.08751 q 0.0503,0 0.07579,-0.02308 0.02584,-0.02343 0.02584,-0.06856 0,-0.04513 -0.02584,-0.06787 -0.02549,-0.02308 -0.07579,-0.02308 z"
         id="path1162" />
    </g>
    <g
       aria-label="A"
       transform="matrix(1,0,0,1.4954097,-27.920993,-49.943684)"
       id="text5961-4-4-3-7-8-8-1-3-0-5"
       style="font-size:0.705556px;line-height:1.25;letter-spacing:0px;word-spacing:0px;white-space:pre;shape-inside:url(#rect5963-3-5-7-4-0-8-4-7-9-9-8)">
      <path
         d="m 38.108344,48.197987 -0.0944,0.255971 h 0.189136 z m -0.03927,-0.06856 h 0.07889 l 0.196026,0.514353 h -0.07235 l -0.04685,-0.131947 h -0.231855 l -0.04685,0.131947 H 37.8727 Z"
         id="path1159" />
    </g>
    <g
       aria-label="H"
       transform="matrix(1,0,0,1.4954097,-28.894856,-49.951034)"
       id="text5961-4-4-3-7-8-8-1-3-0-1"
       style="font-size:0.705556px;line-height:1.25;letter-spacing:0px;word-spacing:0px;white-space:pre;shape-inside:url(#rect5963-3-5-7-4-0-8-4-7-9-9-61)">
      <path
         d="m 37.936434,48.12943 h 0.06959 v 0.21084 h 0.25287 v -0.21084 h 0.06959 v 0.514353 h -0.06959 v -0.244947 h -0.25287 v 0.244947 h -0.06959 z"
         id="path1156" />
    </g>
  </g>
</svg>
